<?xml version="1.0" encoding="utf-8"?>
<!-- Generator: Adobe Illustrator 16.0.0, SVG Export Plug-In . SVG Version: 6.00 Build 0)  -->
<!DOCTYPE svg PUBLIC "-//W3C//DTD SVG 1.1//EN" "http://www.w3.org/Graphics/SVG/1.1/DTD/svg11.dtd">
<svg version="1.1" id="图层_1" xmlns="http://www.w3.org/2000/svg" xmlns:xlink="http://www.w3.org/1999/xlink" x="0px" y="0px"
	 width="35.717px" height="20px" viewBox="0 0 35.717 20" enable-background="new 0 0 35.717 20" xml:space="preserve">
<g>
	<path fill="#00A5EB" d="M10.807,3.71v0.476c0.757,4.772,2.629,8.171,6.248,10.126c-0.623-1.302-0.985-2.791-0.985-4.338
		c0-2.009,0.538-3.9,1.561-5.435C18.64,6.074,19.2,7.966,19.2,9.974c0,1.743-0.43,3.4-1.214,4.811
		c0.046,0.021-0.036,0.041,0.017,0.061c4.128-2.381,5.629-5.926,6.373-10.659V0c-3.011,0.306-5.35,2.001-6.891,4.452
		c-1.481-2.354-3.751-4.01-6.529-4.414C10.919,0.704,10.807,3.488,10.807,3.71z"/>
	<path fill="#00A5EB" d="M28.146,3.478v0.591c0,5.032,2.289,8.436,6.362,10.417c0.65-1.361,1.209-2.897,1.209-4.512
		c0-4.904-3.803-8.967-7.571-9.855C28.146,0.94,28.146,2.093,28.146,3.478z"/>
	<path fill="#00A5EB" d="M7.796,4.298V0.1C3.272,0.95,0,5.04,0,9.975c0,1.858,0.461,3.597,1.3,5.087
		C5.625,12.68,7.796,9.1,7.796,4.298z"/>
	<path fill="#00A5EB" d="M9.697,9.732c-1.257,3.178-3.534,5.741-6.56,7.609C4.841,18.988,7.111,20,9.617,20
		c2.438,0,4.654-0.959,6.338-2.533C13.063,15.701,11.082,13.091,9.697,9.732z"/>
	<path fill="#00A5EB" d="M26.071,9.494c-1.422,3.316-3.633,5.959-6.836,7.947C20.924,19.025,23.146,20,25.604,20
		c2.547,0,4.852-1.041,6.567-2.739C29.414,15.396,27.329,12.811,26.071,9.494z"/>
</g>
</svg>
