<?xml version="1.0" encoding="utf-8"?>
<!-- Generator: Adobe Illustrator 16.0.0, SVG Export Plug-In . SVG Version: 6.00 Build 0)  -->
<!DOCTYPE svg PUBLIC "-//W3C//DTD SVG 1.1//EN" "http://www.w3.org/Graphics/SVG/1.1/DTD/svg11.dtd">
<svg version="1.1" id="图层_1" xmlns="http://www.w3.org/2000/svg" xmlns:xlink="http://www.w3.org/1999/xlink" x="0px" y="0px"
	 width="35px" height="20px" viewBox="0 0 35 20" enable-background="new 0 0 35 20" xml:space="preserve">
<g>
	<path fill="#F7CC48" d="M10.949,3.71v0.476c0.742,4.772,2.576,8.171,6.123,10.126c-0.61-1.303-0.965-2.791-0.965-4.338
		c0-2.009,0.527-3.9,1.529-5.435c0.989,1.535,1.538,3.427,1.538,5.435c0,1.743-0.421,3.4-1.189,4.811
		c0.044,0.021-0.035,0.041,0.017,0.061c4.045-2.381,5.516-5.926,6.245-10.659V0c-2.95,0.306-5.242,2.001-6.753,4.452
		c-1.451-2.354-3.675-4.01-6.397-4.414C11.058,0.704,10.949,3.488,10.949,3.71z"/>
	<path fill="#F7CC48" d="M27.939,3.478v0.591c0,5.032,2.242,8.436,6.233,10.417c0.638-1.361,1.185-2.897,1.185-4.512
		c0-4.904-3.727-8.967-7.418-9.855C27.939,0.94,27.939,2.093,27.939,3.478z"/>
	<path fill="#F7CC48" d="M7.998,4.298V0.1c-4.433,0.85-7.64,4.94-7.64,9.875c0,1.858,0.452,3.597,1.274,5.087
		C5.871,12.68,7.998,9.1,7.998,4.298z"/>
	<path fill="#F7CC48" d="M9.86,9.732c-1.231,3.178-3.462,5.741-6.428,7.609C5.102,18.988,7.327,20,9.783,20
		c2.389,0,4.56-0.959,6.21-2.533C13.159,15.701,11.218,13.091,9.86,9.732z"/>
	<path fill="#F7CC48" d="M25.906,9.494c-1.395,3.316-3.561,5.959-6.698,7.947C20.861,19.025,23.039,20,25.449,20
		c2.494,0,4.754-1.041,6.436-2.739C29.184,15.396,27.139,12.811,25.906,9.494z"/>
</g>
</svg>
