<?xml version="1.0" encoding="utf-8"?>
<!-- Generator: Adobe Illustrator 16.0.0, SVG Export Plug-In . SVG Version: 6.00 Build 0)  -->
<!DOCTYPE svg PUBLIC "-//W3C//DTD SVG 1.1//EN" "http://www.w3.org/Graphics/SVG/1.1/DTD/svg11.dtd">
<svg version="1.1" id="图层_1" xmlns="http://www.w3.org/2000/svg" xmlns:xlink="http://www.w3.org/1999/xlink" x="0px" y="0px"
	 width="20px" height="20px" viewBox="0 0 20 20" enable-background="new 0 0 20 20" xml:space="preserve">
<polygon fill="#00A5EB" points="2.734,8.989 2.695,8.873 2.664,8.723 2.646,8.637 2.646,8.534 2.646,8.411 2.646,8.295 2.682,8.164 
	2.715,8.021 2.764,7.871 2.832,7.707 2.924,7.534 3.047,7.358 3.047,7.241 3.058,7.126 3.076,6.969 3.135,6.801 3.181,6.611 
	3.219,6.528 3.264,6.446 3.32,6.356 3.389,6.293 3.389,6.169 3.389,6.032 3.389,5.864 3.421,5.646 3.457,5.389 3.525,5.083 
	3.615,4.768 3.681,4.592 3.75,4.399 3.823,4.223 3.911,4.033 4.002,3.823 4.101,3.627 4.219,3.42 4.363,3.211 4.431,3.093 
	4.502,2.995 4.658,2.778 4.816,2.557 5,2.329 5.195,2.11 5.405,1.893 5.625,1.669 5.892,1.43 6.064,1.284 6.269,1.127 6.477,0.99 
	6.708,0.854 6.924,0.737 7.168,0.636 7.431,0.517 7.688,0.433 7.949,0.346 8.228,0.258 8.507,0.195 8.802,0.141 9.101,0.094 
	9.392,0.055 9.687,0.014 9.998,0 10.298,0 10.603,0 10.921,0 11.229,0.034 11.54,0.073 11.856,0.105 12.152,0.175 12.458,0.239 
	12.749,0.313 13.071,0.395 13.354,0.496 13.64,0.613 13.94,0.737 14.212,0.871 14.468,1.018 14.741,1.181 14.956,1.333 15.054,1.42 
	15.171,1.479 15.374,1.655 15.554,1.821 15.724,1.995 15.894,2.182 16.03,2.368 16.2,2.557 16.315,2.758 16.431,2.942 16.558,3.153 
	16.655,3.334 16.831,3.725 16.92,3.927 16.987,4.116 17.052,4.318 17.115,4.506 17.158,4.672 17.21,4.863 17.302,5.209 
	17.362,5.506 17.405,5.798 17.437,6.032 17.495,6.391 17.505,6.446 17.554,6.514 17.658,6.696 17.731,6.821 17.802,6.95 
	17.886,7.093 17.964,7.258 18.005,7.426 18.062,7.617 18.101,7.807 18.12,7.905 18.136,8.021 18.136,8.12 18.12,8.221 18.12,8.344 
	18.084,8.469 18.034,8.706 17.966,8.823 17.925,8.956 17.925,8.989 17.944,9.03 18.005,9.128 18.276,9.523 18.491,9.818 
	18.599,10.021 18.743,10.238 18.862,10.475 18.999,10.729 19.136,11.014 19.298,11.338 19.388,11.536 19.468,11.73 19.534,11.936 
	19.604,12.119 19.658,12.313 19.71,12.49 19.78,12.842 19.833,13.211 19.868,13.527 19.868,13.703 19.868,13.842 19.868,13.979 
	19.841,14.145 19.808,14.416 19.761,14.664 19.683,14.893 19.658,14.986 19.604,15.094 19.563,15.172 19.507,15.264 19.448,15.322 
	19.388,15.402 19.329,15.465 19.265,15.518 19.193,15.551 19.118,15.582 19.069,15.598 19.019,15.598 18.979,15.598 18.927,15.582 
	18.823,15.537 18.771,15.5 18.726,15.465 18.668,15.42 18.618,15.363 18.53,15.264 18.417,15.127 18.335,14.986 18.257,14.871 
	18.169,14.736 18.054,14.498 17.925,14.248 17.905,14.242 17.886,14.242 17.827,14.281 17.802,14.346 17.749,14.426 17.658,14.664 
	17.534,15.01 17.358,15.42 17.229,15.627 17.095,15.834 16.931,16.076 16.765,16.314 16.675,16.418 16.573,16.535 16.323,16.768 
	16.345,16.787 16.382,16.826 16.499,16.896 17.007,17.131 17.229,17.256 17.437,17.373 17.651,17.52 17.827,17.674 17.925,17.744 
	17.993,17.822 18.062,17.918 18.12,18.018 18.147,18.096 18.185,18.199 18.2,18.291 18.218,18.389 18.2,18.455 18.2,18.525 
	18.185,18.598 18.147,18.662 18.136,18.711 18.101,18.777 18.005,18.896 17.925,18.994 17.854,19.072 17.802,19.121 17.658,19.225 
	17.505,19.307 17.339,19.387 17.158,19.469 16.953,19.545 16.851,19.58 16.753,19.611 16.519,19.658 16.272,19.715 16.03,19.762 
	15.774,19.805 15.501,19.814 15.218,19.85 14.937,19.85 14.646,19.85 14.351,19.85 14.038,19.834 13.745,19.805 13.433,19.762 
	13.12,19.734 12.792,19.684 12.476,19.611 12.163,19.545 11.856,19.463 11.54,19.348 11.229,19.26 11.069,19.209 10.921,19.152 
	10.833,19.121 10.737,19.102 10.622,19.102 10.483,19.102 10.187,19.08 10.035,19.072 9.841,19.045 9.718,19.152 9.542,19.26 
	9.316,19.365 9.062,19.508 8.906,19.58 8.746,19.639 8.39,19.781 8.195,19.834 7.99,19.885 7.709,19.934 7.529,19.951 7.346,19.969 
	7.149,19.99 6.924,20 6.708,20 6.477,20 5.996,20 5.469,19.99 4.963,19.934 4.707,19.904 4.459,19.867 4.219,19.834 3.974,19.781 
	3.75,19.715 3.525,19.658 3.32,19.58 3.135,19.508 2.951,19.424 2.8,19.328 2.646,19.225 2.589,19.17 2.522,19.102 2.471,19.045 
	2.422,18.984 2.383,18.916 2.344,18.852 2.295,18.711 2.275,18.643 2.256,18.564 2.256,18.486 2.275,18.406 2.275,18.318 
	2.295,18.232 2.295,18.182 2.295,18.07 2.306,17.98 2.344,17.881 2.383,17.783 2.441,17.658 2.484,17.607 2.522,17.553 
	2.617,17.439 2.695,17.377 2.764,17.338 2.832,17.281 2.939,17.256 3.027,17.199 3.135,17.15 3.252,17.115 3.372,17.076 
	3.514,17.047 3.644,17.029 3.803,17.012 3.974,17 4.021,16.982 4.033,16.982 4.052,16.963 4.052,16.943 4.021,16.904 3.928,16.865 
	3.701,16.67 3.547,16.553 3.372,16.396 3.193,16.23 3.008,16.01 2.8,15.771 2.715,15.635 2.615,15.5 2.522,15.342 2.441,15.172 
	2.33,15.01 2.256,14.816 2.173,14.637 2.088,14.426 2.027,14.229 1.965,13.979 1.946,13.975 1.933,13.975 1.922,13.955 1.9,13.955 
	1.863,13.975 1.846,13.979 1.818,14.02 1.811,14.072 1.794,14.115 1.758,14.189 1.655,14.375 1.601,14.482 1.518,14.58 
	1.426,14.695 1.326,14.816 1.221,14.932 1.096,15.047 0.98,15.146 0.854,15.225 0.715,15.314 0.584,15.363 0.421,15.402 
	0.265,15.42 0.254,15.42 0.234,15.42 0.195,15.402 0.167,15.342 0.122,15.314 0.066,15.172 0.024,15.094 -0.01,14.986 
	-0.049,14.871 -0.064,14.756 -0.111,14.498 -0.132,14.346 -0.132,14.189 -0.132,13.842 -0.111,13.477 -0.082,13.287 -0.049,13.092 
	-0.01,12.881 0.046,12.684 0.113,12.459 0.179,12.236 0.265,12.012 0.353,11.791 0.469,11.572 0.584,11.338 0.715,11.117 
	0.869,10.873 1.034,10.656 1.201,10.418 1.338,10.249 1.518,10.057 1.708,9.867 1.794,9.775 1.9,9.67 2.051,9.538 2.211,9.402 
	2.471,9.177 2.664,9.038 "/>
</svg>
