<?xml version="1.0" encoding="utf-8"?>
<!-- Generator: Adobe Illustrator 16.0.0, SVG Export Plug-In . SVG Version: 6.00 Build 0)  -->
<!DOCTYPE svg PUBLIC "-//W3C//DTD SVG 1.1//EN" "http://www.w3.org/Graphics/SVG/1.1/DTD/svg11.dtd">
<svg version="1.1" id="图层_1" xmlns="http://www.w3.org/2000/svg" xmlns:xlink="http://www.w3.org/1999/xlink" x="0px" y="0px"
	 width="20px" height="20px" viewBox="0 0 20 20" enable-background="new 0 0 20 20" xml:space="preserve">
<polygon fill="#F7CC48" points="2.866,8.989 2.827,8.873 2.796,8.723 2.778,8.637 2.778,8.534 2.778,8.411 2.778,8.295 2.814,8.164 
	2.847,8.021 2.896,7.871 2.964,7.707 3.056,7.534 3.179,7.358 3.179,7.241 3.19,7.126 3.208,6.969 3.267,6.801 3.313,6.611 
	3.351,6.528 3.396,6.446 3.452,6.356 3.521,6.293 3.521,6.169 3.521,6.032 3.521,5.864 3.553,5.646 3.589,5.389 3.657,5.083 
	3.747,4.768 3.813,4.592 3.882,4.399 3.955,4.223 4.043,4.033 4.134,3.823 4.233,3.627 4.351,3.42 4.495,3.211 4.563,3.093 
	4.634,2.995 4.79,2.778 4.948,2.557 5.132,2.329 5.327,2.11 5.537,1.893 5.757,1.669 6.024,1.43 6.196,1.284 6.401,1.127 
	6.609,0.99 6.84,0.854 7.056,0.737 7.3,0.636 7.563,0.517 7.82,0.433 8.081,0.346 8.359,0.258 8.639,0.195 8.934,0.141 9.232,0.094 
	9.523,0.055 9.818,0.014 10.13,0 10.43,0 10.734,0 11.053,0 11.361,0.034 11.672,0.073 11.988,0.105 12.284,0.175 12.59,0.239 
	12.881,0.313 13.203,0.395 13.486,0.496 13.771,0.613 14.072,0.737 14.344,0.871 14.6,1.018 14.873,1.181 15.088,1.333 15.186,1.42 
	15.303,1.479 15.506,1.655 15.686,1.821 15.855,1.995 16.025,2.182 16.162,2.368 16.332,2.557 16.447,2.758 16.563,2.942 
	16.689,3.153 16.787,3.334 16.963,3.725 17.052,3.927 17.119,4.116 17.184,4.318 17.247,4.506 17.29,4.672 17.342,4.863 
	17.434,5.209 17.494,5.506 17.537,5.798 17.568,6.032 17.627,6.391 17.637,6.446 17.686,6.514 17.79,6.696 17.863,6.821 
	17.934,6.95 18.018,7.093 18.096,7.258 18.137,7.426 18.193,7.617 18.232,7.807 18.252,7.905 18.268,8.021 18.268,8.12 
	18.252,8.221 18.252,8.344 18.216,8.469 18.166,8.706 18.098,8.823 18.057,8.956 18.057,8.989 18.076,9.03 18.137,9.128 
	18.408,9.523 18.623,9.818 18.73,10.021 18.875,10.238 18.994,10.475 19.131,10.729 19.268,11.014 19.43,11.338 19.52,11.536 
	19.6,11.73 19.666,11.936 19.736,12.119 19.79,12.313 19.842,12.49 19.912,12.842 19.965,13.211 20,13.527 20,13.703 20,13.842 
	20,13.979 19.973,14.145 19.939,14.416 19.893,14.664 19.814,14.893 19.79,14.986 19.736,15.094 19.695,15.172 19.639,15.264 
	19.58,15.322 19.52,15.402 19.461,15.465 19.396,15.518 19.325,15.551 19.25,15.582 19.201,15.598 19.15,15.598 19.111,15.598 
	19.059,15.582 18.955,15.537 18.902,15.5 18.857,15.465 18.8,15.42 18.75,15.363 18.662,15.264 18.549,15.127 18.467,14.986 
	18.389,14.871 18.301,14.736 18.186,14.498 18.057,14.248 18.037,14.242 18.018,14.242 17.959,14.281 17.934,14.346 17.881,14.426 
	17.79,14.664 17.666,15.01 17.49,15.42 17.361,15.627 17.227,15.834 17.063,16.076 16.896,16.314 16.807,16.418 16.705,16.535 
	16.455,16.768 16.477,16.787 16.514,16.826 16.631,16.896 17.139,17.131 17.361,17.256 17.568,17.373 17.783,17.52 17.959,17.674 
	18.057,17.744 18.125,17.822 18.193,17.918 18.252,18.018 18.279,18.096 18.316,18.199 18.332,18.291 18.35,18.389 18.332,18.455 
	18.332,18.525 18.316,18.598 18.279,18.662 18.268,18.711 18.232,18.777 18.137,18.896 18.057,18.994 17.986,19.072 17.934,19.121 
	17.79,19.225 17.637,19.307 17.471,19.387 17.29,19.469 17.085,19.545 16.982,19.58 16.885,19.611 16.65,19.658 16.404,19.715 
	16.162,19.762 15.906,19.805 15.633,19.814 15.35,19.85 15.068,19.85 14.777,19.85 14.482,19.85 14.17,19.834 13.877,19.805 
	13.564,19.762 13.252,19.734 12.924,19.684 12.607,19.611 12.295,19.545 11.988,19.463 11.672,19.348 11.361,19.26 11.201,19.209 
	11.053,19.152 10.965,19.121 10.869,19.102 10.754,19.102 10.615,19.102 10.318,19.08 10.167,19.072 9.973,19.045 9.85,19.152 
	9.674,19.26 9.448,19.365 9.193,19.508 9.038,19.58 8.878,19.639 8.521,19.781 8.327,19.834 8.122,19.885 7.841,19.934 
	7.661,19.951 7.478,19.969 7.281,19.99 7.056,20 6.84,20 6.609,20 6.128,20 5.601,19.99 5.095,19.934 4.839,19.904 4.591,19.867 
	4.351,19.834 4.106,19.781 3.882,19.715 3.657,19.658 3.452,19.58 3.267,19.508 3.083,19.424 2.932,19.328 2.778,19.225 
	2.721,19.17 2.654,19.102 2.603,19.045 2.554,18.984 2.515,18.916 2.476,18.852 2.427,18.711 2.407,18.643 2.388,18.564 
	2.388,18.486 2.407,18.406 2.407,18.318 2.427,18.232 2.427,18.182 2.427,18.07 2.438,17.98 2.476,17.881 2.515,17.783 
	2.573,17.658 2.616,17.607 2.654,17.553 2.749,17.439 2.827,17.377 2.896,17.338 2.964,17.281 3.071,17.256 3.159,17.199 
	3.267,17.15 3.384,17.115 3.504,17.076 3.646,17.047 3.776,17.029 3.935,17.012 4.106,17 4.153,16.982 4.165,16.982 4.184,16.963 
	4.184,16.943 4.153,16.904 4.06,16.865 3.833,16.67 3.679,16.553 3.504,16.396 3.325,16.23 3.14,16.01 2.932,15.771 2.847,15.635 
	2.747,15.5 2.654,15.342 2.573,15.172 2.462,15.01 2.388,14.816 2.305,14.637 2.22,14.426 2.159,14.229 2.097,13.979 2.078,13.975 
	2.065,13.975 2.054,13.955 2.032,13.955 1.995,13.975 1.978,13.979 1.95,14.02 1.943,14.072 1.926,14.115 1.89,14.189 1.787,14.375 
	1.733,14.482 1.65,14.58 1.558,14.695 1.458,14.816 1.353,14.932 1.228,15.047 1.112,15.146 0.986,15.225 0.847,15.314 
	0.716,15.363 0.553,15.402 0.397,15.42 0.386,15.42 0.366,15.42 0.327,15.402 0.299,15.342 0.254,15.314 0.198,15.172 0.156,15.094 
	0.122,14.986 0.083,14.871 0.068,14.756 0.021,14.498 0,14.346 0,14.189 0,13.842 0.021,13.477 0.05,13.287 0.083,13.092 
	0.122,12.881 0.178,12.684 0.245,12.459 0.311,12.236 0.397,12.012 0.485,11.791 0.601,11.572 0.716,11.338 0.847,11.117 
	1.001,10.873 1.166,10.656 1.333,10.418 1.47,10.249 1.65,10.057 1.84,9.867 1.926,9.775 2.032,9.67 2.183,9.538 2.343,9.402 
	2.603,9.177 2.796,9.038 "/>
</svg>
