<?xml version="1.0" encoding="utf-8"?>
<!-- Generator: Adobe Illustrator 16.0.0, SVG Export Plug-In . SVG Version: 6.00 Build 0)  -->
<!DOCTYPE svg PUBLIC "-//W3C//DTD SVG 1.1//EN" "http://www.w3.org/Graphics/SVG/1.1/DTD/svg11.dtd">
<svg version="1.1" id="图层_1" xmlns="http://www.w3.org/2000/svg" xmlns:xlink="http://www.w3.org/1999/xlink" x="0px" y="0px"
	 width="25px" height="20px" viewBox="0 0 25 20" enable-background="new 0 0 25 20" xml:space="preserve">
<g>
	<path fill="#F7CC48" d="M18.516,9.948c-0.975-0.188-0.5-0.712-0.5-0.712s0.948-1.569-0.188-2.713
		c-1.412-1.412-4.846,0.178-4.846,0.178c-1.309,0.41-0.963-0.186-0.779-1.197c0-1.188-0.402-3.202-3.897-2.011
		C4.815,4.689,1.82,8.877,1.82,8.877c-2.083,2.787-1.809,4.938-1.809,4.938c0.52,4.748,5.561,6.051,9.48,6.36
		c4.125,0.322,9.69-1.422,11.378-5.014C22.559,11.571,19.494,10.145,18.516,9.948z M9.796,18.838c-4.096,0.191-7.4-1.863-7.4-4.602
		c0-2.74,3.304-4.936,7.4-5.125c4.099-0.188,7.41,1.502,7.41,4.237C17.206,16.084,13.895,18.652,9.796,18.838z"/>
	<path fill="#F7CC48" d="M8.978,10.913c-4.114,0.485-3.637,4.349-3.637,4.349s-0.043,1.223,1.101,1.848
		c2.412,1.306,4.893,0.515,6.144-1.106C13.839,14.381,13.104,10.44,8.978,10.913z M7.94,16.34c-0.768,0.088-1.386-0.355-1.386-1
		c0-0.643,0.549-1.313,1.319-1.395c0.883-0.084,1.458,0.43,1.458,1.07C9.332,15.658,8.708,16.25,7.94,16.34z M10.37,14.268
		c-0.261,0.193-0.583,0.168-0.718-0.065c-0.145-0.229-0.088-0.595,0.172-0.783c0.305-0.229,0.625-0.16,0.763,0.063
		C10.723,13.719,10.625,14.066,10.37,14.268z"/>
	<path fill="#F7CC48" d="M20.52,8.277c0.334,0,0.613-0.245,0.66-0.565c0.008-0.022,0.01-0.045,0.01-0.071
		c0.506-4.531-3.703-3.75-3.703-3.75c-0.37,0-0.674,0.303-0.674,0.682c0,0.371,0.304,0.673,0.674,0.673
		c3.022-0.668,2.356,2.36,2.356,2.36C19.841,7.976,20.146,8.277,20.52,8.277z"/>
	<path fill="#F7CC48" d="M20.031,0.374c-1.458-0.341-2.954-0.047-3.374,0.034c-0.032,0.003-0.064,0.031-0.093,0.038
		c-0.018,0.004-0.021,0.019-0.021,0.019c-0.415,0.116-0.714,0.5-0.714,0.952c0,0.539,0.437,0.981,0.979,0.981
		c0,0,0.53-0.07,0.887-0.21c0.359-0.143,3.373-0.106,4.869,2.409c0.816,1.84,0.354,3.069,0.299,3.265c0,0-0.193,0.478-0.193,0.95
		c0,0.54,0.438,0.882,0.979,0.882c0.455,0,0.834-0.06,0.945-0.828h0.004C26.208,3.501,22.634,0.982,20.031,0.374z"/>
</g>
</svg>
