<?xml version="1.0" encoding="utf-8"?>
<!-- Generator: Adobe Illustrator 16.0.0, SVG Export Plug-In . SVG Version: 6.00 Build 0)  -->
<!DOCTYPE svg PUBLIC "-//W3C//DTD SVG 1.1//EN" "http://www.w3.org/Graphics/SVG/1.1/DTD/svg11.dtd">
<svg version="1.1" id="图层_1" xmlns="http://www.w3.org/2000/svg" xmlns:xlink="http://www.w3.org/1999/xlink" x="0px" y="0px"
	 width="27.473px" height="23px" viewBox="0 0 27.473 23" enable-background="new 0 0 27.473 23" xml:space="preserve">
<g>
	<path fill="#F7CC48" d="M18.612,6.959c0.307,0,0.624,0.024,0.933,0.062C18.701,2.992,14.53,0,9.763,0
		C4.44,0,0.078,3.745,0.078,8.499c0,2.746,1.45,4.998,3.879,6.746l-0.971,3.011l3.389-1.753c1.212,0.247,2.187,0.5,3.396,0.5
		c0.303,0,0.604-0.017,0.904-0.043c-0.188-0.669-0.299-1.366-0.299-2.096C10.373,10.502,14.011,6.959,18.612,6.959z M13.401,4.252
		c0.729,0,1.21,0.496,1.21,1.247c0,0.75-0.485,1.252-1.21,1.252c-0.729,0-1.457-0.503-1.457-1.252
		C11.945,4.747,12.676,4.252,13.401,4.252z M6.622,6.75c-0.729,0-1.463-0.503-1.463-1.253s0.735-1.244,1.463-1.244
		c0.724,0,1.208,0.495,1.208,1.244C7.827,6.247,7.345,6.75,6.622,6.75z"/>
	<path fill="#F7CC48" d="M27.46,14.752c0-4-3.878-7.257-8.23-7.257c-4.617,0-8.244,3.259-8.244,7.257c0,3.996,3.627,7.25,8.244,7.25
		c0.96,0,1.935-0.254,2.901-0.505L24.791,23l-0.723-2.494C26.004,19.004,27.46,17.002,27.46,14.752z M16.552,13.497
		c-0.48,0-0.966-0.494-0.966-0.995c0-0.502,0.484-1.001,0.966-1.001c0.733,0,1.214,0.5,1.214,1.001
		C17.764,13.001,17.285,13.497,16.552,13.497z M21.885,13.497c-0.48,0-0.963-0.494-0.963-0.995c0-0.502,0.48-1.001,0.963-1.001
		c0.722,0,1.21,0.5,1.21,1.001C23.094,13.001,22.605,13.497,21.885,13.497z"/>
</g>
</svg>
