<?xml version="1.0" encoding="utf-8"?>
<!-- Generator: Adobe Illustrator 16.0.0, SVG Export Plug-In . SVG Version: 6.00 Build 0)  -->
<!DOCTYPE svg PUBLIC "-//W3C//DTD SVG 1.1//EN" "http://www.w3.org/Graphics/SVG/1.1/DTD/svg11.dtd">
<svg version="1.1" id="图层_1" xmlns="http://www.w3.org/2000/svg" xmlns:xlink="http://www.w3.org/1999/xlink" x="0px" y="0px"
	 width="27.472px" height="23px" viewBox="0 0 27.472 23" enable-background="new 0 0 27.472 23" xml:space="preserve">
<g>
	<path fill="#00A5EB" d="M18.612,6.959c0.309,0,0.624,0.024,0.935,0.062C18.7,2.992,14.53,0,9.764,0
		C4.441,0,0.078,3.745,0.078,8.499c0,2.746,1.45,4.998,3.879,6.746l-0.973,3.011l3.387-1.753c1.212,0.247,2.187,0.502,3.397,0.502
		c0.303,0,0.601-0.019,0.903-0.043c-0.188-0.669-0.298-1.366-0.298-2.096C10.373,10.502,14.011,6.959,18.612,6.959z M13.402,4.252
		c0.729,0,1.21,0.496,1.21,1.247c0,0.75-0.485,1.252-1.21,1.252c-0.731,0-1.46-0.503-1.46-1.252
		C11.943,4.747,12.676,4.252,13.402,4.252z M6.622,6.75c-0.729,0-1.462-0.503-1.462-1.253c0-0.75,0.736-1.244,1.462-1.244
		c0.723,0,1.208,0.495,1.208,1.244C7.826,6.247,7.344,6.75,6.622,6.75z"/>
	<path fill="#00A5EB" d="M27.459,14.752c0-4-3.878-7.257-8.231-7.257c-4.617,0-8.244,3.259-8.244,7.257
		c0,3.996,3.627,7.25,8.244,7.25c0.96,0,1.937-0.254,2.902-0.505L24.79,23l-0.723-2.494C26.004,19.004,27.459,17.002,27.459,14.752z
		 M16.551,13.497c-0.481,0-0.966-0.494-0.966-0.995c0-0.502,0.484-1.001,0.966-1.001c0.735,0,1.218,0.5,1.218,1.001
		C17.765,13.001,17.285,13.497,16.551,13.497z M21.885,13.497c-0.481,0-0.963-0.494-0.963-0.995c0-0.502,0.48-1.001,0.963-1.001
		c0.721,0,1.209,0.5,1.209,1.001C23.094,13.001,22.606,13.497,21.885,13.497z"/>
</g>
</svg>
