<?xml version="1.0" encoding="utf-8"?>
<!-- Generator: Adobe Illustrator 16.0.0, SVG Export Plug-In . SVG Version: 6.00 Build 0)  -->
<!DOCTYPE svg PUBLIC "-//W3C//DTD SVG 1.1//EN" "http://www.w3.org/Graphics/SVG/1.1/DTD/svg11.dtd">
<svg version="1.1" id="map-t3" xmlns="http://www.w3.org/2000/svg" xmlns:xlink="http://www.w3.org/1999/xlink" x="0px" y="0px"
	 width="320px" height="525px" viewBox="0 0 320 525" enable-background="new 0 0 320 525" xml:space="preserve">
<path fill="#1B3467" d="M227.658,201.123v-0.907h5.092v-1.109h1.361v1.109h5.142v0.907h-5.142v1.26h4.537v6.756
	c0.031,1.042-0.504,1.545-1.612,1.512h-1.109v-0.856h0.655c0.538,0.032,0.79-0.185,0.756-0.656v-5.898h-7.766v7.461h-1.313v-8.319
	h4.487v-1.26H227.658z M230.382,206.014v-0.857h1.106c-0.199-0.369-0.318-0.84-0.354-1.412h1.16
	c0.033,0.504,0.149,0.975,0.354,1.412h1.563c0.167-0.369,0.303-0.84,0.4-1.412h1.16c-0.031,0.504-0.168,0.975-0.402,1.412h1.158
	v0.857h-2.418v1.311h2.771v0.856h-2.771v2.27h-1.313v-2.27h-2.723v-0.856h2.723v-1.311H230.382z"/>
<path fill="#1B3467" d="M227.658,222.493v-0.806c1.813-1.748,2.822-3.832,3.023-6.251h-2.771v-0.958h4.035v0.908
	C231.675,218.443,230.246,220.813,227.658,222.493z M231.137,223.451v-0.908h0.908c0.538,0.033,0.79-0.185,0.756-0.655v-9.832h1.36
	v9.882c0.032,1.042-0.487,1.545-1.563,1.513H231.137L231.137,223.451z M239.254,222.493c-2.754-1.748-4.148-4.117-4.184-7.108
	v-0.908h1.462c0.874,0,1.663-0.152,2.37-0.454v1.008c-0.571,0.27-1.313,0.403-2.221,0.403h-0.402
	c0.033,2.454,1.022,4.521,2.976,6.201L239.254,222.493L239.254,222.493z"/>
<path fill="#1B3467" d="M227.658,229.054v-0.907h3.379v-3.126h1.411v9.63c0.032,1.008-0.521,1.512-1.664,1.512h-3.126v-0.856h2.521
	c0.604,0,0.891-0.269,0.855-0.807v-5.445L227.658,229.054L227.658,229.054z M236.128,236.164c-1.106,0-1.683-0.504-1.714-1.512
	v-9.63h1.462v3.126h3.378v0.907h-3.378v5.446c-0.032,0.538,0.252,0.806,0.856,0.806h2.521v0.857H236.128L236.128,236.164z"/>
<path fill="#1B3467" d="M228.616,248.509v-6.15h-1.009v-0.857h2.168v5.294c0.369-0.201,0.705-0.437,1.008-0.706v0.958
	C230.18,247.687,229.455,248.175,228.616,248.509z M229.02,240.543c-0.17-0.806-0.453-1.663-0.856-2.57h1.062
	c0.471,0.874,0.791,1.731,0.959,2.57H229.02z M230.583,249.468v-0.907c0.504-0.505,0.737-1.378,0.705-2.623v-7.562h7.562v9.277
	c0.033,1.176-0.502,1.73-1.611,1.663h-0.756v-0.807h0.401c0.571,0.033,0.843-0.201,0.81-0.706v-8.52H232.5v6.201
	C232.6,247.334,231.96,248.661,230.583,249.468z M233.053,241.452v-0.807h1.463v-0.958h1.108v0.958h1.463v0.807h-1.463v1.21h1.664
	v0.806h-4.438v-0.806h1.664v-1.21H233.053z M233.255,247.905v-3.53h3.579v2.017c0.031,1.042-0.438,1.546-1.411,1.513H233.255
	L233.255,247.905z M234.213,247.098h1.008c0.471,0.034,0.688-0.184,0.655-0.655v-1.311h-1.663V247.098z"/>
<path fill="#1B3467" d="M228.264,258.94v-6.1h4.486v-2.119h1.411v2.119h4.487v4.285c0.031,1.244-0.521,1.849-1.664,1.815h-2.823
	v3.479h-1.411v-3.479H228.264L228.264,258.94z M229.573,258.032h3.177v-4.285h-3.177V258.032z M237.337,253.747h-3.176v4.285h2.42
	c0.505,0,0.756-0.285,0.756-0.856V253.747L237.337,253.747z"/>
<path fill="#1B3467" d="M227.859,271.756v-1.008c0.908-1.008,1.512-1.781,1.813-2.318c-0.104,0-0.271,0-0.504,0
	c-0.538,0.033-1.061,0.033-1.563,0v-0.908c0.906-1.105,1.547-2.387,1.916-3.83h1.313c-0.506,1.479-1.21,2.755-2.118,3.83
	c0.472,0.033,0.923,0.02,1.36-0.051c-0.033,0,0,0,0.101,0c0.136-0.234,0.319-0.656,0.558-1.26c0.031-0.066,0.051-0.117,0.051-0.15
	h1.261c-0.706,1.982-1.696,3.547-2.976,4.688c1.106-0.065,1.998-0.135,2.673-0.201v0.854
	C230.563,271.639,229.271,271.756,227.859,271.756z M227.709,274.176v-0.906c1.479,0.033,2.854-0.102,4.134-0.402v0.855
	C230.563,274.025,229.188,274.176,227.709,274.176z M232.145,266.211v-0.908h1.465c-0.033-0.504-0.053-1.041-0.053-1.611h1.313
	c0,0.57,0,1.107,0,1.611h1.714v-1.361h1.107v1.361h1.211v0.908h-3.98c0,0.604,0.032,1.191,0.102,1.766h4.186v0.906h-4.084
	c0.031,0.369,0.102,0.891,0.202,1.564c0.03,0.301,0.065,0.52,0.101,0.652c0.032,0.102,0.066,0.234,0.102,0.402
	c0.066,0.201,0.115,0.371,0.15,0.504c0.641-0.535,1.262-1.293,1.865-2.27h1.361c-0.875,1.479-1.832,2.57-2.875,3.277
	c0.437,0.809,0.924,1.209,1.464,1.209c0.604,0.068,0.89-0.25,0.854-0.957h0.905c0.034,1.313-0.537,1.949-1.714,1.916
	c-1.042,0-1.883-0.539-2.521-1.615c-0.438,0.236-1.229,0.539-2.369,0.908c-0.305,0.104-0.521,0.186-0.655,0.252v-0.756
	c1.042-0.404,1.916-0.822,2.622-1.26c-0.169-0.402-0.305-0.891-0.402-1.463c-0.17-0.707-0.304-1.496-0.402-2.371h-1.916v-0.906
	h1.867c-0.033-0.572-0.086-1.16-0.152-1.766L232.145,266.211L232.145,266.211z"/>
<path fill="#1B3467" d="M228.363,278.502v-0.959h10.135v0.959h-4.337v7.965h5.042v0.857h-11.494v-0.857h5.041v-7.965H228.363z"/>
<path fill="#1B3467" d="M227.809,291.014v-0.855h2.168c0.57,0,1.229-0.102,1.969-0.305v0.908c-0.369,0.135-0.842,0.219-1.411,0.252
	v1.764h1.358v0.855h-1.262c0.27,1.078,0.706,2.035,1.313,2.875v1.16c-0.672-0.771-1.146-1.395-1.41-1.865v5.295h-1.213v-4.992
	c-0.401,0.941-1.022,1.916-1.863,2.926v-1.262c0.738-1.209,1.327-2.586,1.764-4.135h-1.563v-0.854h1.663v-1.766L227.809,291.014
	L227.809,291.014z M232.145,295.602v-0.855h6.907v0.855h-2.823v1.563h2.521v0.854h-2.521v1.767h3.176v0.756h-7.863v-0.756h3.379
	v-1.767h-2.57v-0.854h2.57v-1.563H232.145z M232.549,293.635v-3.527h6.102v2.064c0.033,1.01-0.502,1.498-1.611,1.463H232.549z
	 M233.759,292.777h2.923c0.537,0.033,0.791-0.2,0.758-0.707v-1.108h-3.681V292.777L233.759,292.777z"/>
<path fill="#1B3467" d="M227.607,313.95v-0.757c0.84-0.401,1.227-1.024,1.16-1.864v-4.233h-1.16v-0.856h2.42v4.84
	c0.031,1.106,0.654,1.678,1.865,1.715h7.409v0.906h-7.409c-1.074,0-1.852-0.32-2.319-0.957
	C229.171,313.277,228.516,313.68,227.607,313.95z M229.02,305.127c-0.102-0.707-0.371-1.547-0.808-2.521h1.106
	c0.473,0.94,0.791,1.781,0.961,2.521H229.02z M236.432,312.135v-0.756h0.354c0.438,0,0.654-0.234,0.654-0.707v-0.604h-1.813v1.865
	h-1.26v-1.865h-1.813v2.017h-1.212v-6.756h2.621c-0.569-0.472-1.157-0.908-1.763-1.312h1.511c0.404,0.233,0.772,0.485,1.106,0.756
	c0.438-0.203,1.012-0.558,1.718-1.062h-5.345v-0.808h7.357v0.808c-0.938,0.672-1.896,1.211-2.872,1.613h2.976v5.192
	c0.031,1.144-0.486,1.683-1.563,1.612h-0.654v0.005H236.432z M232.549,306.084v1.26h1.814v-1.26H232.549z M232.549,308.051v1.311
	h1.814v-1.311H232.549z M237.438,306.084h-1.813v1.26h1.813V306.084z M235.624,308.051v1.311h1.813v-1.311H235.624z"/>
<path fill="#1B3467" d="M227.658,325.745v-0.808c1.813-1.746,2.822-3.832,3.023-6.25h-2.771v-0.959h4.035v0.905
	C231.675,321.695,230.246,324.064,227.658,325.745z M231.137,326.704v-0.908h0.908c0.538,0.033,0.79-0.185,0.756-0.653v-9.834h1.36
	v9.883c0.032,1.041-0.487,1.545-1.563,1.513H231.137L231.137,326.704z M239.254,325.745c-2.754-1.746-4.148-4.117-4.184-7.109
	v-0.905h1.462c0.874,0,1.663-0.149,2.37-0.453v1.009c-0.571,0.271-1.313,0.401-2.221,0.401h-0.402
	c0.033,2.455,1.022,4.521,2.976,6.203L239.254,325.745L239.254,325.745z"/>
<line fill="none" stroke="#1B3467" stroke-miterlimit="10" x1="243.253" y1="198.546" x2="243.253" y2="327.26"/>
</svg>
