<?xml version="1.0" encoding="utf-8"?>
<!-- Generator: Adobe Illustrator 16.0.0, SVG Export Plug-In . SVG Version: 6.00 Build 0)  -->
<!DOCTYPE svg PUBLIC "-//W3C//DTD SVG 1.1//EN" "http://www.w3.org/Graphics/SVG/1.1/DTD/svg11.dtd">
<svg version="1.1" id="map-t2" xmlns="http://www.w3.org/2000/svg" xmlns:xlink="http://www.w3.org/1999/xlink" x="0px" y="0px"
	 width="320px" height="525px" viewBox="0 0 320 525" enable-background="new 0 0 320 525" xml:space="preserve">
<path fill="#1B3467" d="M281.789,288.913c1.663-1.894,3.174-3.722,4.539-5.488c1.359-1.768,2.434-3.418,3.219-4.952
	c0.785-1.535,1.385-2.494,1.801-2.875c0.416-0.382,0.965-0.627,1.646-0.744c0.682-0.113,1.591,0.389,2.736,1.506
	c1.143,1.121,1.904,2.272,2.303,3.467c0.392,1.188,0.381,2.164-0.034,2.926c-0.301,0.528-1.479,1.313-3.531,2.336
	c-2.057,1.023-4.145,2.037-6.27,3.029l-3.671,1.66l-1.315,0.623c5.681,5.608,12.442,10.146,20.292,13.608l3.048,1.351l3.705,1.49
	c0.395,0.346,0.581,0.688,0.57,1.022s-0.354,0.616-1.021,0.849c-0.3,0.114-0.93,0.127-1.887,0.032
	c-0.96-0.092-1.743-0.022-2.354,0.209c-0.612,0.229-1.194,0.578-1.749,1.039l-1.731,1.56c-1.754,1.434-3.694,2.03-5.817,1.801
	c-1.387-0.139-2.719-0.629-4-1.473c-1.281-0.843-2.725-2.076-4.328-3.705c-1.604-1.627-2.531-2.625-2.787-2.996l-4.535-5.679
	c-0.021,2.378-0.034,4.144-0.034,5.298l0.104,11.084c0,1.869-0.142,3.254-0.416,4.153c-0.53,1.64-1.268,2.789-2.198,3.447
	c-0.938,0.657-2.226,1.372-3.862,2.146c-1.641,0.772-2.792,1.079-3.463,0.918c-0.831-0.162-1.359-0.468-1.591-0.918
	c-0.231-0.449-0.4-1.399-0.503-2.854c-0.104-1.455-0.586-2.656-1.438-3.604l-3.321-2.563c-0.531-0.509-0.744-0.871-0.645-1.091
	c0.104-0.221,0.455-0.364,1.059-0.435c0.483-0.021,1.492,0.327,3.027,1.058c1.535,0.729,2.534,0.857,2.996,0.396
	s0.689-1.42,0.689-2.875l-0.139-22.686c-3.787,6.904-6.354,11.504-7.705,13.801c-1.352,2.299-2.973,4.342-4.863,6.131
	c-1.895,1.789-3.778,3.313-5.661,4.57c-1.882,1.258-3.202,1.984-3.966,2.182c-0.762,0.197-1.219,0.227-1.365,0.089
	c-0.15-0.14-0.229-0.415-0.229-0.834l2.459-3.185l2.805-4.123c0.812-1.178,1.849-2.967,3.115-5.367
	c1.271-2.398,2.067-3.98,2.394-4.743l1.976-4.675c-1.063,0.736-1.99,1.326-2.789,1.768c-0.796,0.438-1.572,0.621-2.336,0.555
	c-0.576-0.022-1.018-0.155-1.314-0.397c-0.301-0.241-0.732-0.836-1.297-1.782c-0.567-0.945-0.994-1.854-1.281-2.72
	c-0.291-0.864-0.262-1.563,0.086-2.096c0.254-0.394,1.177-0.582,2.77-0.572c1.594,0.015,3.244-0.172,4.953-0.553
	c1.709-0.382,2.949-0.804,3.725-1.267c0.771-0.461,1.474-0.963,2.097-1.507c0.624-0.543,1.071-0.858,1.353-0.952
	c0.783-0.209,2.479,0.729,5.092,2.805c-0.115-4.315-0.213-7.502-0.295-9.559c-0.08-2.057-0.174-3.979-0.275-5.783
	c-0.104-1.801-0.254-3.377-0.449-4.729c-0.197-1.353-0.169-2.185,0.086-2.492c0.254-0.313,0.738-0.487,1.454-0.536
	c0.784-0.048,1.823,0.256,3.116,0.897c1.293,0.646,2.309,1.233,3.048,1.769c0.737,0.528,1.407,1.239,2.009,2.129
	c0.603,0.891,0.992,1.649,1.178,2.284c0.188,0.638,0.188,2.097,0,4.382c-0.094,1.018-0.137,2.217-0.137,3.602l-0.035,7.551
	L281.789,288.913z"/>
</svg>
