<?xml version="1.0" encoding="utf-8"?>
<!-- Generator: Adobe Illustrator 16.0.0, SVG Export Plug-In . SVG Version: 6.00 Build 0)  -->
<!DOCTYPE svg PUBLIC "-//W3C//DTD SVG 1.1//EN" "http://www.w3.org/Graphics/SVG/1.1/DTD/svg11.dtd">
<svg version="1.1" id="图层_1" xmlns="http://www.w3.org/2000/svg" xmlns:xlink="http://www.w3.org/1999/xlink" x="0px" y="0px"
	 width="320px" height="525px" viewBox="0 0 320 525" enable-background="new 0 0 320 525" xml:space="preserve">
<path fill="#1B3467" d="M261.02,217.753c0.229,0.739,0.361,1.305,0.396,1.697c0.034,0.393,0.007,1.062-0.085,2.008l-0.452,3.706
	c1.178-0.23,2.064-0.416,2.667-0.554l5.091-0.936l3.813-0.797c-0.117-1.87-0.21-3.786-0.278-5.749
	c-1.339,0.277-2.303,0.329-2.894,0.156c-0.588-0.172-1.279-0.623-2.075-1.35c-0.798-0.727-1.253-1.443-1.368-2.147
	s0.1-1.373,0.645-2.008c0.539-0.634,2.313-1.195,5.313-1.68c-0.229-1.154-0.434-2.412-0.605-3.775
	c-0.172-1.361-0.373-2.452-0.604-3.272c-0.229-0.819-0.276-1.414-0.138-1.783c0.093-0.23,0.341-0.537,0.742-0.917
	c0.404-0.38,1.146-0.433,2.219-0.156c1.072,0.276,1.979,1.038,2.719,2.286c0.624,1.131,0.938,2.031,0.938,2.7l0.14,3.81
	c2.237-0.438,4.36-0.946,6.372-1.524c0.093-1.477,0.207-2.874,0.347-4.19c0.138-1.316,0.144-2.585,0.019-3.809
	c-0.127-1.223-0.069-2.118,0.174-2.684c0.24-0.566,0.769-0.981,1.574-1.247c0.811-0.265,1.908,0.059,3.31,0.97
	c1.396,0.912,2.229,1.939,2.511,3.082c0.276,1.143,0.266,2.522-0.033,4.138l-0.521,2.701c1.04-0.138,1.974-0.299,2.806-0.484
	c0.831-0.185,1.488-0.219,1.975-0.104c0.483,0.116,1.098,0.716,1.836,1.801c0.736,1.085,0.93,2.06,0.569,2.926
	c-0.355,0.865-1.204,1.484-2.544,1.853l-3.602,0.38l-2.426,0.277c-0.646,2.424-1.233,4.826-1.768,7.203
	c5.125-0.554,8.352-0.952,9.68-1.195c1.326-0.242,2.521-0.312,3.585-0.208c1.063,0.104,1.93,0.566,2.599,1.385
	c0.669,0.82,0.991,1.761,0.97,2.822c-0.021,1.063-0.387,1.871-1.09,2.424c-0.706,0.555-2.298,0.733-4.778,0.538
	c-2.48-0.197-6.318-0.081-11.515,0.346c-5.196,0.428-9.26,1.091-12.19,1.992c-2.933,0.9-5.144,1.675-6.632,2.32
	c-1.487,0.646-2.78,1.137-3.879,1.472c-1.096,0.334-1.897,0.26-2.405-0.225l-1.662-1.212c-0.115,2.333-0.195,4.022-0.24,5.074
	c-0.051,1.051-0.141,2.886-0.278,5.506c-0.138,2.622-0.229,4.439-0.276,5.454c-0.047,1.016-0.094,2.73-0.139,5.143
	c-0.047,2.413-0.34,3.723-0.884,3.93c-0.541,0.209-1.442-0.22-2.7-1.28c-1.26-1.063-1.918-2.251-1.975-3.568
	c-0.059-1.315,0.109-2.937,0.502-4.864c0.393-1.929,0.658-3.412,0.797-4.45c0.138-1.04,0.555-7.874,1.246-20.501
	c-2.563,2.609-4.363,4.237-5.401,4.883l-3.013,1.766c-1.803,1.339-2.854,1.818-3.151,1.438c-0.302-0.381-0.104-0.999,0.589-1.853
	c0.187-0.231,1.668-2.459,4.449-6.684c2.782-4.225,4.762-7.48,5.938-9.766c1.179-2.286,2.058-4.271,2.635-5.957l0.97-2.84
	c0.556-1.455,1.147-2.268,1.783-2.441s1.494,0.18,2.58,1.057c1.062,0.9,1.948,2.136,2.667,3.705c0.716,1.571,0.943,2.967,0.689,4.19
	c-0.16,0.716-0.676,1.72-1.541,3.013C264.846,212.985,263.281,215.005,261.02,217.753z M275.979,232.401
	c1.315-0.392,2.311-0.681,2.979-0.866l4.744-1.039l2.044-0.451c0.047-0.669,0.167-1.207,0.363-1.61
	c0.192-0.404,0.635-0.75,1.313-1.039c0.683-0.289,1.589-0.134,2.72,0.467c0.602,0.346,1.239,0.9,1.924,1.663
	c0.681,0.761,1.24,1.782,1.679,3.064c0.438,1.282,0.669,2.61,0.692,3.982c0.021,1.374-0.014,4.278-0.104,8.709
	c-0.067,2.84-0.274,4.866-0.622,6.078s-1.051,2.551-2.111,4.017c-1.063,1.466-2.164,2.21-3.308,2.234
	c-1.144,0.022-1.888-0.255-2.233-0.831c-0.185-0.277-0.242-0.833-0.174-1.663c0.069-0.831,0.006-1.363-0.189-1.593
	c-0.194-0.231-0.951-0.22-2.27,0.034c-1.105,0.231-2.193,0.358-3.257,0.381c-1.062,0.023-1.7,0.098-1.921,0.224
	c-0.221,0.127-0.693,0.653-1.42,1.575c-0.729,0.923-1.553,0.913-2.479-0.033c-0.764-0.716-1.226-2.097-1.386-4.138
	c-0.162-2.044-0.294-4.047-0.396-6.008c-0.104-1.963-0.195-4.07-0.275-6.321c-0.082-2.251-0.088-4.022-0.02-5.315
	c0.067-1.293,0.256-2.09,0.556-2.39C273.844,230.589,274.895,230.878,275.979,232.401z M277.434,248.366
	c5.588-0.393,8.549-0.705,8.885-0.936c0.334-0.231,0.421-1.397,0.261-3.498l-0.277-8.451l-0.104-2.146
	c-0.854,0.254-2.368,0.698-4.537,1.333c-2.171,0.634-3.752,1.091-4.744,1.368l0.14,2.875c2.539-0.416,4.2-0.71,4.984-0.883
	c0.784-0.173,1.552-0.104,2.303,0.208c0.75,0.313,1.168,1.023,1.247,2.13c0.08,1.108-0.118,1.83-0.604,2.165
	c-0.483,0.335-1.857,0.733-4.121,1.194l-3.53,0.589L277.434,248.366z M281.382,221.077c0.507-2.101,0.796-3.417,0.865-3.948
	l0.381-2.805c-1.778,0.601-3.51,1.189-5.194,1.766c-0.07,1.523-0.104,2.424-0.104,2.701l-0.139,3.082
	C278.529,221.62,279.927,221.354,281.382,221.077z"/>
</svg>
