<svg  id="map-dot"   x="0px" y="0px" width="320px" height="525px" viewBox="0 0 320 525" enable-background="new 0 0 320 525">
<path fill="#F7CC48" d="M193.805,121.027c3.016,0,5.459,2.444,5.459,5.46c0,3.016-2.443,5.461-5.459,5.461
	c-3.017,0-5.461-2.445-5.461-5.461C188.344,123.472,190.788,121.027,193.805,121.027z"/>
<circle fill="#FFFFFF" cx="141.789" cy="126.488" r="3.715"/>
<circle fill="#FFFFFF" cx="132.244" cy="140.967" r="3.715"/>
<circle fill="#FFFFFF" cx="120.67" cy="168.09" r="3.715"/>
<circle fill="#FFFFFF" cx="117.114" cy="207.654" r="3.715"/>
<circle fill="#FFFFFF" cx="117.248" cy="226.579" r="3.715"/>
<circle fill="#FFFFFF" cx="116.52" cy="257.452" r="3.716"/>
<path fill="#FFFFFF" d="M111.393,276.782c2.053,0,3.717,1.661,3.717,3.715c0,2.051-1.664,3.715-3.717,3.715
	c-2.051,0-3.713-1.664-3.713-3.715C107.68,278.443,109.344,276.782,111.393,276.782z"/>
<circle fill="#FFFFFF" cx="102.915" cy="299.733" r="3.715"/>
<circle fill="#FFFFFF" cx="68.295" cy="328.716" r="3.715"/>
<circle fill="#FFFFFF" cx="81.592" cy="362.063" r="3.715"/>
<circle fill="#F7CC48" cx="37.123" cy="392.575" r="5.461"/>
<polygon fill="#F7CC48" points="165.289,87.389 167.156,93.136 173.199,93.136 168.311,96.687 170.178,102.435 165.289,98.883 
	160.4,102.435 162.268,96.687 157.378,93.136 163.422,93.136 "/>
</svg>
