<?xml version="1.0" encoding="utf-8"?>
<!-- Generator: Adobe Illustrator 16.0.0, SVG Export Plug-In . SVG Version: 6.00 Build 0)  -->
<!DOCTYPE svg PUBLIC "-//W3C//DTD SVG 1.1//EN" "http://www.w3.org/Graphics/SVG/1.1/DTD/svg11.dtd">
<svg version="1.1" id="图层_1" xmlns="http://www.w3.org/2000/svg" xmlns:xlink="http://www.w3.org/1999/xlink" x="0px" y="0px"
	 width="230.063px" height="161.75px" viewBox="0 30.062 230.063 161.75" enable-background="new 0 30.062 230.063 161.75"
	 xml:space="preserve">
<g>
	<g>
		<g>
			<g enable-background="new    ">
				<path fill="#1B3467" d="M96.889,48.249l2.481,1.112c-0.4,0.8-1.144,2.197-2.227,4.193c0.798-1.427,0.713-1.256-0.256,0.513
					l-2.396-1.197C95.405,51.33,96.204,49.789,96.889,48.249z M96.803,47.65v-7.701h5.99v-5.905h2.909v1.712h8.557v2.567h-8.557
					v1.626h6.846v7.701H96.803z M109.553,45.169v-2.738h-9.84v2.738H109.553z M100.14,49.361l2.481-0.77
					c0.685,1.711,1.226,3.137,1.626,4.278l-2.653,0.685c0-0.058-0.029-0.172-0.085-0.343
					C100.996,51.615,100.539,50.332,100.14,49.361z M104.932,49.19l2.567-0.771c0.171,0.4,0.456,1.057,0.854,1.969
					c0.398,0.913,0.712,1.625,0.941,2.139l-2.653,0.855c-0.058-0.171-0.171-0.457-0.342-0.855
					C105.959,51.615,105.502,50.503,104.932,49.19z M109.724,49.104l2.396-0.941c0.912,1.541,1.711,3.11,2.396,4.707l-2.565,0.941
					c-0.399-0.856-0.941-2.026-1.625-3.509C110.037,49.789,109.838,49.391,109.724,49.104z"/>
				<path fill="#1B3467" d="M116.742,48.335l-0.516-2.91c0.455-0.056,1.111-0.113,1.968-0.171c0.741-0.113,1.313-0.171,1.714-0.171
					v-2.652h-3.682v-2.567h3.682V37.81c-0.4,0.058-1.027,0.115-1.885,0.171c-0.398,0.058-0.715,0.086-0.939,0.086
					c0-0.114-0.029-0.37-0.086-0.771c-0.115-0.74-0.2-1.34-0.256-1.797c3.021-0.228,5.932-0.514,8.728-0.855l0.599,2.481
					c-0.91,0.171-1.938,0.314-3.08,0.428v2.313h3.938c-0.057-1.825-0.143-3.766-0.256-5.819h2.909c0,1.998,0.056,3.937,0.171,5.819
					h6.675v2.567h-6.589c0.113,1.54,0.285,2.853,0.514,3.936c1.143-1.083,2.195-2.311,3.166-3.68l2.227,1.798
					c-1.369,1.711-2.91,3.28-4.621,4.706c0.342,0.855,0.738,1.427,1.196,1.711c0.627,0.343,1.026,0.229,1.198-0.342
					c0.229-0.741,0.428-1.797,0.6-3.166c0.971,0.628,1.798,1.084,2.48,1.369c-0.342,1.883-0.685,3.08-1.027,3.594
					c-0.513,1.026-1.281,1.54-2.31,1.54c-1.94,0-3.423-0.999-4.45-2.995c-1.197,0.685-2.425,1.369-3.68,2.054
					c-0.399-0.685-0.971-1.425-1.711-2.225c1.652-0.627,3.137-1.425,4.449-2.396c-0.457-1.996-0.715-3.965-0.771-5.904h-4.105v2.31
					c0.396-0.056,0.969-0.142,1.711-0.256c0.799-0.114,1.367-0.199,1.712-0.257c-0.06,1.084-0.06,1.997,0,2.738
					c-1.198,0.114-2.342,0.257-3.423,0.428v4.021c0,1.426-0.656,2.167-1.971,2.225c-0.912,0.114-2.082,0.172-3.508,0.172
					c-0.172-1.198-0.428-2.054-0.77-2.567c0.797,0.058,1.625,0.086,2.479,0.086c0.457,0,0.688-0.343,0.688-1.027v-2.481
					C118.823,47.992,117.768,48.163,116.742,48.335z M130.176,36.27l1.797-1.712c1.541,1.256,2.709,2.282,3.509,3.081
					c-0.513,0.457-1.142,1.056-1.882,1.797C132.572,38.353,131.429,37.296,130.176,36.27z"/>
				<path fill="#1B3467" d="M140.701,51.586h-1.799V35.328h4.449v15.916h-1.711v-1.455h-0.939V51.586L140.701,51.586z
					 M141.642,47.65V37.467h-0.939V47.65H141.642z M149.599,47.564c0,1.94-0.998,2.967-2.994,3.081
					c-0.058-0.456-0.172-1.083-0.342-1.883c-0.059-0.171-0.086-0.285-0.086-0.343v5.477h-1.969V34.814h5.135v2.311l-0.941,5.391
					C149.201,44.398,149.599,46.082,149.599,47.564z M147.718,46.966c0-1.141-0.372-2.567-1.112-4.279l0.941-5.562h-1.369v11.038
					C147.205,48.221,147.718,47.821,147.718,46.966z M149.857,37.382v-2.396h8.559v2.396h-1.027v13.691
					c0,1.653-0.713,2.509-2.139,2.566h-2.824c-0.057-0.685-0.229-1.398-0.514-2.139c1.084,0.058,1.824,0.085,2.226,0.085
					c0.627,0,0.94-0.342,0.94-1.026V37.382H149.857z M149.857,39.008h4.363v9.755h-2.566v1.711h-1.797V39.008L149.857,39.008z
					 M152.51,46.709v-5.647h-0.855v5.647H152.51z"/>
				<path fill="#1B3467" d="M161.408,34.985h3.338l-0.516,13.093h-2.396L161.408,34.985z M161.494,49.618h3.08v3.166h-3.08V49.618z"
					/>
			</g>
		</g>
		<g>
			<g enable-background="new    ">
				<path fill="#1B3467" d="M6.452,67.116v-2.652h7.188v-2.226h2.995v2.226h7.273v2.652H20.57l2.056,1.455
					c-0.855,1.142-1.685,2.054-2.481,2.738h4.877v2.652h-6.76c1.882,1.94,4.193,3.423,6.931,4.449
					c-0.569,0.742-1.17,1.541-1.797,2.396c-2.91-1.426-5.164-3.223-6.76-5.391v6.588H13.64V75.5
					c-1.711,2.169-3.965,3.994-6.76,5.477c-0.571-0.854-1.17-1.626-1.797-2.312c2.624-1.141,4.878-2.708,6.76-4.706H5.425v-2.65
					h4.536c-0.229-0.285-0.628-0.799-1.198-1.541c-0.457-0.569-0.799-0.997-1.027-1.283l1.885-1.369H6.452L6.452,67.116z
					 M12.185,69.854l-1.968,1.455h3.423v-4.193H9.789c0.112,0.115,0.257,0.257,0.428,0.428
					C10.673,68.058,11.33,68.828,12.185,69.854z M20.571,67.116h-3.936v4.193h3.251l-1.797-1.541
					C18.888,69.028,19.716,68.144,20.571,67.116z"/>
				<path fill="#1B3467" d="M38.028,70.282l1.799-1.797c2.225,1.598,4.42,3.252,6.589,4.963l-2.056,2.567
					c-2.34-2.054-4.448-3.766-6.333-5.135v11.125H34.69V66.261h-7.443v-2.909h19.681v2.909h-8.899V70.282L38.028,70.282z"/>
				<path fill="#1B3467" d="M48.895,69.17v-2.14h4.707v-1.369H49.58v-1.968h4.021v-1.455h2.567v1.455h3.851v1.968h-3.851v1.369
					h4.449c-0.059-1.026-0.085-2.652-0.085-4.877h2.651c0,1.769,0.028,3.395,0.085,4.877h5.819v2.14h-5.647
					c0.113,1.711,0.258,3.224,0.43,4.535c0.854-1.198,1.596-2.452,2.225-3.765l2.225,1.026c-1.025,2.225-2.254,4.223-3.68,5.99
					c0.171,0.514,0.371,0.999,0.601,1.454c0.171,0.344,0.368,0.543,0.599,0.6c0.285-0.057,0.456-0.256,0.513-0.6
					c0.171-0.74,0.285-1.739,0.342-2.994c0.8,0.513,1.626,0.913,2.481,1.197c-0.057,1.428-0.314,2.598-0.771,3.51
					c-0.455,1.141-1.196,1.738-2.225,1.797c-1.541,0-2.738-0.855-3.594-2.567c-0.687,0.569-1.398,1.198-2.141,1.883
					c-0.457-0.457-0.939-0.913-1.453-1.368c-0.742,0-1.455,0.027-2.141,0.086v2.139H54.2v-2.055
					c-1.885,0.114-3.48,0.199-4.792,0.258l-0.259-2.312c1.825-0.056,3.51-0.085,5.051-0.085v-1.455h-4.45v-2.311
					c0-0.056,0.026-0.113,0.085-0.171c0.285-0.285,0.685-0.798,1.198-1.54h-1.713v-2.054h2.824c0.171-0.285,0.342-0.6,0.515-0.941
					h2.908c-0.171,0.342-0.342,0.656-0.514,0.941h5.134v2.054h-6.417c-0.398,0.685-0.854,1.341-1.369,1.968H54.2v-1.198h2.651v1.198
					h2.995v2.054h-2.995v1.369c0.342,0,0.855-0.028,1.54-0.086c0.741,0,1.284-0.027,1.626-0.085
					c-0.058,0.171-0.086,0.342-0.086,0.515c0.627-0.515,1.198-1.083,1.711-1.713c-0.397-1.883-0.714-4.307-0.939-7.273L48.895,69.17
					L48.895,69.17z M63.87,63.437l2.054-1.198c0.798,0.8,1.626,1.798,2.479,2.995l-2.311,1.369
					C65.41,65.52,64.668,64.464,63.87,63.437z"/>
				<path fill="#1B3467" d="M70.715,69.512l1.711-1.625c1.027,0.913,1.883,1.769,2.567,2.566L73.11,72.25
					C72.483,71.452,71.684,70.539,70.715,69.512z M70.801,63.779l1.711-1.455c0.798,0.685,1.654,1.54,2.567,2.567l-1.885,1.626
					c-0.284-0.343-0.714-0.856-1.281-1.541C71.4,64.464,71.028,64.065,70.801,63.779z M72.512,73.106
					c0.456,0.229,1.083,0.513,1.883,0.855c0.171,0.058,0.285,0.086,0.342,0.086c-0.113,0.741-0.313,1.911-0.599,3.508
					c-0.342,1.883-0.628,3.364-0.854,4.45c-0.344-0.172-0.856-0.373-1.541-0.6c-0.344-0.115-0.601-0.201-0.771-0.258
					C71.485,78.982,71.999,76.302,72.512,73.106z M75.678,76.871l1.711-0.941h-1.797v-5.647h8.129v5.647h-1.883l1.626,0.685
					c-0.115,0.172-0.257,0.458-0.428,0.856c-0.229,0.399-0.4,0.714-0.516,0.94c0.627-0.113,1.228-0.199,1.797-0.256
					c-0.113,0.397-0.171,0.826-0.171,1.282c1.825-1.426,3.564-3.252,5.222-5.477l1.797,2.054c-1.711,2.169-3.823,4.249-6.333,6.246
					c-0.06-0.057-0.115-0.143-0.171-0.256c-0.115-0.229-0.43-0.742-0.941-1.541c-3.081,0.343-6.02,0.771-8.814,1.283l-0.342-2.396
					c0.741-0.112,1.541-0.199,2.396-0.257C76.562,78.298,76.134,77.556,75.678,76.871z M75.507,69.341v-2.054h2.995v-1.283h-3.423
					v-2.14h3.423v-1.626h2.565v1.626h2.995v2.14h-2.995v1.283h2.824v2.054H75.507z M79.101,78.069l-1.797,0.94
					c0.285-0.057,0.713-0.113,1.284-0.17c0.514-0.057,0.912-0.086,1.198-0.086c0.513-0.97,0.969-1.912,1.367-2.824h-3.422
					c0.113,0.115,0.256,0.314,0.43,0.6C78.445,76.871,78.759,77.385,79.101,78.069z M77.989,73.876h3.254v-1.454h-3.254V73.876z
					 M83.979,72.679c1.77-1.198,3.596-2.966,5.479-5.306l1.625,2.054c-2.168,2.396-4.107,4.25-5.819,5.563
					c-0.171-0.284-0.399-0.712-0.685-1.283C84.291,73.249,84.092,72.907,83.979,72.679z M84.15,66.346
					c1.369-0.969,2.88-2.366,4.535-4.192l1.626,1.968c-2.109,2.111-3.765,3.624-4.963,4.535
					C84.777,67.516,84.377,66.746,84.15,66.346z"/>
				<path fill="#1B3467" d="M92.536,69.598l1.54-1.797c0.627,0.457,1.481,1.142,2.565,2.054c0.229,0.171,0.398,0.314,0.515,0.428
					l-1.884,2.14c-0.058-0.057-0.143-0.142-0.257-0.257C94.218,71.195,93.391,70.34,92.536,69.598z M94.418,73.534
					c1.025,0.457,1.854,0.77,2.48,0.941c-0.569,2.282-1.17,4.792-1.797,7.53c-0.457-0.172-1.084-0.4-1.882-0.686
					c-0.286-0.058-0.485-0.115-0.599-0.172C93.248,79.21,93.847,76.672,94.418,73.534z M97.242,64.292l-0.259-1.026
					c2.396-0.113,4.508-0.313,6.332-0.599l0.687,2.396c-0.687,0.058-1.398,0.144-2.141,0.257v2.995h1.884v2.566h-1.884
					c0,0.343-0.027,1.228-0.085,2.653h2.141v2.396h2.995v-1.882h-2.567v-2.482h2.567v-1.797h-2.482v-2.396h2.482V65.49h-2.653
					v-2.396h8.3v2.396h-2.995v1.883h2.653v2.396h-2.653v1.797h2.653v2.482h-2.653v1.882h3.337v2.396h-3.337v3.68h-2.65v-3.68h-3.425
					v-2.225h-1.883c-0.171,2.109-1.142,4.135-2.909,6.074c-0.113-0.17-0.313-0.428-0.599-0.771c-0.685-0.913-1.17-1.483-1.455-1.711
					c1.254-1.026,1.996-2.225,2.227-3.594h-1.711v-2.567h2.054c0-0.229,0-0.569,0-1.027c0.056-0.685,0.086-1.226,0.086-1.626h-1.883
					v-2.566h1.883v-2.738c-0.229,0-0.543,0.029-0.941,0.085c-0.342,0-0.599,0-0.77,0l-0.257-0.855l-1.711,1.883
					c-0.856-0.97-1.741-1.825-2.653-2.567l1.541-1.883c0.456,0.343,1.055,0.8,1.797,1.369C96.757,63.95,97.071,64.179,97.242,64.292
					z"/>
				<path fill="#1B3467" d="M125.052,63.95v2.311h-2.823c0.343,0.171,1.083,0.485,2.227,0.941c-0.229,0.342-0.571,0.855-1.026,1.54
					h2.053v2.311h-3.936v1.369h3.594v2.225h-3.594v4.963c0,1.198-0.629,1.884-1.883,2.054c-0.516,0.058-1.283,0.086-2.313,0.086
					c-0.115-1.084-0.256-1.797-0.428-2.14c-0.058,0.115-0.145,0.257-0.257,0.429c-0.06,0.17-0.114,0.285-0.171,0.342
					c-0.516-0.285-1.229-0.569-2.141-0.854c0.687-1.255,1.284-2.767,1.797-4.536l2.227,0.771c-0.343,1.198-0.771,2.368-1.283,3.509
					c0.342,0.058,0.684,0.085,1.026,0.085c0.513,0,0.771-0.313,0.771-0.941V74.65h-3.851v-2.225h3.851v-1.369H114.7v-2.311h2.225
					c-0.229-0.456-0.514-0.97-0.855-1.54l2.141-0.856c0.228,0.343,0.542,0.886,0.939,1.626c0.229,0.343,0.398,0.6,0.516,0.771h0.854
					c0.688-1.141,1.143-1.968,1.369-2.481h-6.76V63.95h3.594c-0.057-0.113-0.115-0.257-0.171-0.428
					c-0.171-0.398-0.286-0.685-0.343-0.855l2.824-0.514c0.057,0.115,0.111,0.286,0.172,0.514c0.056,0.171,0.197,0.599,0.428,1.283
					H125.052z M134.808,68.742v2.738h-1.541v10.354h-2.65V71.48h-1.799v1.112c-0.058,4.278-0.999,7.501-2.822,9.669
					c-0.457-0.399-1.112-0.94-1.97-1.625c-0.284-0.172-0.483-0.313-0.599-0.43c0.798-0.568,1.396-1.367,1.797-2.396l-2.055,1.198
					c-0.514-1.084-1.026-2.083-1.539-2.995l1.968-1.027c0.171,0.343,0.513,0.941,1.026,1.798c0.285,0.457,0.482,0.799,0.6,1.026
					c0.569-1.312,0.855-2.909,0.855-4.792v-9.156c3.137-0.342,5.646-0.855,7.528-1.54l1.198,2.738
					c-1.826,0.399-3.823,0.742-5.99,1.027v2.652h5.991L134.808,68.742L134.808,68.742z"/>
				<path fill="#1B3467" d="M137.289,82.005V64.806h2.736v17.199H137.289z M139.856,63.009l2.396-0.855
					c0.627,0.971,1.284,2.054,1.969,3.252l-2.567,1.026c-0.685-1.254-0.771-1.425-0.257-0.514
					C140.883,65.007,140.37,64.036,139.856,63.009z M140.627,79.011L140.37,76.7l1.626-0.086v-7.615h-1.198v-2.225h11.466v2.225
					h-1.369v7.188c0.627-0.056,1.255-0.085,1.883-0.085c-0.113,0.799-0.171,1.512-0.171,2.14c-0.171,0-0.457,0.028-0.854,0.086
					c-0.343,0-0.628,0.028-0.856,0.084v1.113c0.344,0,0.627,0,0.856,0c0.97,0,1.454-0.484,1.454-1.455V65.576h-8.129v-2.481h10.865
					V78.24c0,1.996-0.654,3.166-1.968,3.51c-0.628,0.17-1.882,0.256-3.765,0.256c-0.061-0.172-0.115-0.428-0.172-0.771
					c-0.115-0.399-0.2-0.685-0.256-0.854h-1.284v-1.883C145.646,78.667,143.022,78.839,140.627,79.011z M144.391,68.999v1.197h4.107
					v-1.197H144.391z M144.391,72.079v1.198h4.107v-1.198H144.391z M148.499,76.357V75.16h-4.107v1.369
					C145.76,76.415,147.13,76.357,148.499,76.357z"/>
				<path fill="#1B3467" d="M164.072,82.177h-2.736v-6.675c-0.686,0.171-1.313,0.286-1.883,0.343
					c-0.344-0.854-0.715-1.626-1.111-2.311c2.965-0.343,5.361-0.771,7.188-1.284c-0.685-0.455-1.341-0.969-1.969-1.54
					c-0.114,0.058-0.256,0.144-0.428,0.257c-0.971,0.629-1.74,1.057-2.313,1.283c-0.513-0.685-1.024-1.312-1.537-1.882
					c2.338-0.97,4.221-2.195,5.646-3.68h3.166c-0.171,0.229-0.4,0.485-0.685,0.771h7.613v-1.198h-13.006v2.481h-2.824V63.95h7.872
					c-0.058-0.285-0.198-0.685-0.428-1.198c-0.058-0.171-0.115-0.284-0.171-0.342l3.508-0.343c0.059,0.171,0.145,0.428,0.257,0.771
					c0.114,0.457,0.229,0.827,0.345,1.112h7.271v4.792h-2.479v0.685c-1.258,1.255-2.513,2.196-3.768,2.823
					c1.939,0.458,4.279,0.771,7.02,0.941c-0.115,0.343-0.314,0.828-0.602,1.455c-0.229,0.457-0.371,0.8-0.428,1.026
					c-0.171-0.056-0.485-0.113-0.941-0.171c-0.397-0.056-0.714-0.085-0.939-0.085v6.759h-2.738v-0.94h-8.897L164.072,82.177
					L164.072,82.177z M168.522,73.619c-1.598,0.571-3.538,1.113-5.817,1.626h12.149C172.344,74.789,170.233,74.248,168.522,73.619z
					 M172.971,79.096v-1.54h-8.899v1.54H172.971z M168.607,71.31c1.143-0.456,2.168-1.056,3.081-1.798h-6.161
					C166.383,70.254,167.41,70.854,168.607,71.31z"/>
				<path fill="#1B3467" d="M182.555,72.165v-7.017h6.761c0-0.057-0.027-0.142-0.086-0.257c-0.229-0.685-0.514-1.284-0.854-1.797
					l3.08-1.027c0.112,0.286,0.343,0.828,0.685,1.626c0.285,0.629,0.514,1.112,0.687,1.455h6.504v10.524h-2.824V74.56H185.21
					c-0.343,3.196-1.229,5.704-2.653,7.529c-0.057-0.057-0.143-0.17-0.256-0.342c-0.571-0.742-1.17-1.397-1.798-1.969
					C181.871,77.784,182.555,75.245,182.555,72.165z M185.38,71.822h11.124v-3.938H185.38V71.822z"/>
				<path fill="#1B3467" d="M206.601,68.742l2.481,0.257c-0.115,0.628-0.286,1.54-0.516,2.738c-0.397,2.396-0.714,4.222-0.938,5.477
					c0.513-0.172,0.997-0.257,1.454-0.257c-0.115,0.399-0.171,1.255-0.171,2.567c-1.94,0.229-4.021,0.569-6.247,1.026l-0.515-2.481
					c1.083-0.171,2.227-0.343,3.425-0.514C205.917,74.704,206.26,71.767,206.601,68.742z M202.408,68.314v-2.567h2.48
					c-0.172-0.342-0.372-0.771-0.6-1.283c-0.286-0.685-0.485-1.141-0.601-1.369l2.396-1.027c0.057,0.115,0.172,0.343,0.343,0.685
					c0.113,0.229,0.483,0.971,1.112,2.225l-1.883,0.771h3.509v2.567h-6.76v-0.002H202.408z M202.408,69.17l2.226-0.342
					c0.342,2.396,0.685,4.849,1.026,7.358l-2.227,0.343C203.207,74.02,202.864,71.565,202.408,69.17z M209.34,71.565V69.17h12.664
					v2.396h-5.479l-0.342,1.284h5.563v7.53c0,1.082-0.602,1.625-1.798,1.625c-0.973,0-1.6,0-1.884,0c0-0.114-0.027-0.313-0.086-0.6
					c0-0.229,0-0.371,0-0.428h-1.797v-5.733h-1.198v5.733h-1.968v-5.733h-1.11v6.76h-2.481V72.85h4.192l0.257-1.284L209.34,71.565
					L209.34,71.565z M221.234,68.058H210.11v-4.706h2.396v2.31h1.797v-3.594h2.653v3.594h1.882v-2.31h2.396V68.058z M218.838,79.867
					c0.343,0,0.514-0.143,0.514-0.429v-4.193h-1.198v4.622C218.438,79.867,218.667,79.867,218.838,79.867z"/>
			</g>
		</g>
		<g>
			<g>
				<path fill="#1B3467" d="M82.688,39.688v-1.543h-4.626v5.396h-0.771v0.771h-2.313v-1.541h-0.771v-2.313h-0.771v-0.771h-0.771
					v-1.543h-1.544v-2.313H70.35V34.29h-6.938v0.771H62.64v1.542h-0.77v1.541H59.56v0.771h-1.541v0.771h-0.771v0.771h-0.771v1.542
					h1.542v-0.771h0.771v-0.771h0.771v-0.771h2.313v-0.771h0.771v1.542h-1.54v3.083h-0.771v0.771H59.56v0.771h-0.771v0.771h-2.313
					v0.771h3.083v3.083h0.771v0.771h1.541v0.771h3.084v-0.771h1.543v-1.542h-0.771v-0.771h-0.771v-1.542h-1.54v0.771h-1.544v1.542
					h1.544v-0.771h0.771v1.541h-2.313v-0.771h-0.771v-3.854h0.771V44.31h0.771v-0.771h0.772v0.771h2.313v1.542H66.5v2.313h0.771
					v1.541h1.542v-3.083H68.04V44.31H67.27v-0.771h-1.542v-0.77h-2.313v-2.313h3.083v0.771h1.541v1.543h0.771v2.313h0.771v1.542
					h1.542V43.54h-0.771v-2.313H69.58v-0.771H68.81v-1.542h1.542v1.542h0.771v0.771h0.771v1.543h0.772v6.938h-0.772v1.542h-0.771
					v1.542H58.789v1.542h13.104v-0.771h0.772v-1.542h1.54v-3.084h4.626v-0.771h0.771v-0.771h0.771v-1.542h1.54v-0.771h0.771v-2.313
					h0.771v-3.084h-0.77L82.688,39.688L82.688,39.688z M69.581,38.146H67.27v0.771h-0.771v0.771h-1.543v-0.771h-1.54v-1.541h0.771
					v-1.543h0.771v-0.771h3.854v1.542h0.771L69.581,38.146L69.581,38.146z M81.916,42.001h-0.771v2.313h-0.771v0.771h-0.771v0.771
					h-0.771v0.771h-0.771v0.771h-3.084v-2.313h3.854v-0.771h0.771v-5.396h1.542v1.542h0.771L81.916,42.001L81.916,42.001z"/>
			</g>
		</g>
	</g>
</g>
<path fill="#1B3467" d="M149.425,164.156c0.018-0.007,0.031-0.009,0.048-0.015c0.084,0.129,0.17,0.256,0.249,0.387
	c0.576,0.966,1.075,1.976,1.556,2.992c0.71,1.5,2.646,2.563,4.294,2.299c0.797-0.127,1.323-0.571,1.55-1.358
	c0.254-0.892,0.271-1.78,0.02-2.672c-0.208-0.744-0.637-1.289-1.418-1.49c-0.616-0.157-1.157-0.457-1.644-0.866
	c-0.123-0.105-0.259-0.199-0.395-0.293c-0.501-0.354-1.052-0.563-1.671-0.521c-0.339,0.02-0.412,0.129-0.313,0.449
	c0.157,0.512,0.073,0.801-0.665,0.867c-0.595,0.059-1.052-0.283-1.343-0.938c-0.047-0.104-0.063-0.244-0.185-0.279
	c-0.221-0.069-0.215-0.233-0.22-0.414c-0.03-1.012,0.129-2.012,0.224-3.016c0.029-0.308,0.154-0.519,0.479-0.597
	c0.203-0.051,0.399-0.141,0.597-0.221c0.78-0.313,1.604-0.533,2.162-1.254c0.349-0.445,0.717-0.881,1.005-1.367
	c0.184-0.307,0.344-0.623,0.406-0.979c0.088-0.502-0.203-0.933-0.704-1.011c-0.353-0.057-0.688,0.048-1.019,0.146
	c-0.396,0.119-0.784,0.262-1.184,0.369c-0.277,0.076-0.408-0.049-0.332-0.313c0.134-0.453,0.308-0.867,0.792-1.106
	c0.646-0.313,1.272-0.699,1.771-1.229c0.704-0.75,0.945-1.723,1.094-2.707c0.056-0.354-0.112-0.526-0.457-0.678
	c-0.459-0.195-0.91-0.412-1.369-0.605c-0.336-0.143-0.672-0.338-1.046-0.268c-0.407,0.078-0.829,0.221-1.111,0.516
	c-0.382,0.396-0.854,0.396-1.32,0.474c-0.214,0.035-0.396-0.058-0.462-0.265c-0.13-0.396-0.046-0.766,0.232-1.071
	c0.225-0.246,0.5-0.146,0.75-0.056c0.416,0.15,0.795,0.086,1.157-0.139c0.479-0.293,0.763-0.734,0.86-1.275
	c0.153-0.832,0.107-1.666-0.097-2.485c-0.133-0.531-0.309-0.646-0.848-0.563c-0.541,0.078-1.086,0.146-1.623,0.248
	c-0.568,0.11-1.053-0.271-1.256-0.634c-0.095-0.161-0.143-0.348-0.031-0.521c0.104-0.161,0.282-0.139,0.445-0.129
	c0.182,0.011,0.361,0.048,0.545,0.037c0.397-0.021,0.763-0.127,0.983-0.498c0.396-0.653,0.717-1.338,0.841-2.104
	c0.095-0.547-0.063-0.961-0.559-1.271c-0.601-0.377-1.263-0.607-1.887-0.928c-0.206-0.103-0.396-0.109-0.607-0.037
	c-0.662,0.217-1.273,0.539-1.893,0.854c-0.941,0.478-1.854,1.012-2.894,1.278c-0.743,0.191-1.421,0.57-2.124,0.877
	c-0.095,0.043-0.182,0.11-0.255,0.187c-0.228,0.224-0.5,0.447-0.383,0.812c0.112,0.344,0.452,0.385,0.754,0.44
	c0.587,0.113,1.169-0.01,1.751-0.034c0.472-0.021,0.939-0.078,1.406,0.024c0.245,0.055,0.357,0.201,0.343,0.455
	c-0.041,0.524-0.206,1.01-0.463,1.471c-0.36,0.652-0.896,1.062-1.621,1.229c-0.318,0.074-0.623,0.189-0.914,0.349
	c-0.408,0.222-0.515,0.433-0.449,0.896c0.069,0.484,0.231,0.947,0.365,1.42c0.164,0.582,0.466,0.838,1.282,0.74
	c0.449-0.055,0.888-0.164,1.322-0.281c0.214-0.059,0.338,0.004,0.375,0.226c0.062,0.356,0.131,0.719,0.073,1.086
	c-0.063,0.399-0.106,0.447-0.512,0.472c-0.472,0.026-0.939,0.03-1.411,0.071c-0.534,0.047-1.073,0.063-1.592,0.231
	c-0.202,0.068-0.324,0.185-0.37,0.396c-0.081,0.387-0.18,0.77-0.271,1.15c-0.356,1.496,0.245,2.461,1.444,3.51
	c0.276,0.238,0.471,0.203,0.729-0.061c0.227-0.228,0.438-0.457,0.646-0.695c0.165-0.189,0.354-0.354,0.56-0.498
	c0.177-0.125,0.385-0.156,0.576-0.072s0.155,0.289,0.165,0.459c0.018,0.367-0.028,0.73-0.075,1.092
	c-0.03,0.258-0.131,0.474-0.342,0.646c-1.373,1.116-2.622,2.371-3.969,3.521c-0.463,0.396-0.519,0.822-0.248,1.375
	c0.285,0.582,0.647,1.113,1.101,1.58c0.882,0.91,1.892,0.937,2.82,0.074c0.059-0.053,0.108-0.107,0.169-0.16
	c0.242-0.213,0.471-0.449,0.764-0.605c0.15-0.084,0.313-0.223,0.479-0.135c0.186,0.099,0.103,0.314,0.092,0.478
	c-0.084,1.17-0.039,2.344-0.078,3.517c-0.055,1.547-0.008,3.096-0.021,4.646c-0.014,1.254,0.131,2.49,0.394,3.717
	c0.424,1.982,0.783,3.977,0.826,6.012c0.017,0.633,0.07,1.269,0.194,1.891c0.104,0.517,0.179,0.572,0.692,0.556
	c0.713-0.024,1.411-0.168,2.104-0.326c0.802-0.184,0.84-0.228,0.823-1.039c-0.024-1.297-0.175-2.588-0.18-3.885
	c0-0.701-0.004-1.401-0.022-2.104c-0.039-1.479-0.105-2.957-0.131-4.436c-0.023-1.414-0.023-2.824-0.184-4.23
	C149.519,165.339,149.479,164.748,149.425,164.156z M133.769,160.146c0.082,0.076,0.047,0.168,0.045,0.248
	c-0.009,1.148-0.193,2.273-0.426,3.396c-0.062,0.287-0.259,0.383-0.514,0.42c-0.21,0.031-0.422,0.051-0.626,0.098
	c-0.188,0.041-0.27,0.144-0.121,0.328c1.006,1.291,1.479,2.809,1.834,4.373c0.129,0.566,0.348,0.791,0.93,0.891
	c0.548,0.097,0.771-0.006,1.049-0.485c0.182-0.32,0.314-0.656,0.381-1.021c0.124-0.685,0.154-1.375,0.248-2.062
	c0.12-0.888,0.308-1.767,0.354-2.656c0.077-1.461,0.295-2.901,0.464-4.354c0.106-0.927,0.315-1.845,0.286-2.776
	c-0.021-0.688,0.131-1.234,0.686-1.697c0.437-0.365,0.688-0.875,0.667-1.479c-0.019-0.533,0.063-1.055,0.16-1.574
	c0.089-0.48,0.198-0.959,0.278-1.439c0.104-0.627-0.104-0.817-0.729-0.729c-0.171,0.023-0.344,0.053-0.516,0.055
	c-0.37,0.008-0.477-0.078-0.551-0.444c-0.1-0.492-0.009-0.979,0.104-1.455c0.089-0.388,0.183-0.455,0.579-0.447
	c0.313,0.008,0.626,0,0.873-0.217c0.244-0.216,0.472-0.453,0.693-0.688c0.133-0.144,0.227-0.322,0.237-0.517
	c0.037-0.502,0.181-0.981,0.266-1.478c0.042-0.237,0.052-0.479,0.037-0.719c-0.026-0.473-0.206-0.687-0.657-0.822
	c-0.211-0.063-0.438-0.094-0.616-0.229c-0.217-0.164-0.468-0.207-0.729-0.248c-0.625-0.101-1.248-0.028-1.868,0.017
	c-0.542,0.039-1.059,0.162-1.459,0.59c-0.216,0.229-0.496,0.396-0.739,0.598c-0.593,0.482-1.277,0.688-2.033,0.688
	c-0.288-0.002-0.576,0.004-0.858,0.063c-0.338,0.071-0.459,0.215-0.443,0.562c0.018,0.463,0.134,0.912,0.191,1.366
	c0.031,0.263,0.165,0.355,0.399,0.398c0.53,0.1,1.063,0.155,1.604,0.172c0.412,0.008,0.576,0.147,0.602,0.541
	c0.05,0.81-0.437,1.61-1.156,1.797c-0.278,0.067-0.562,0.146-0.831,0.242c-0.356,0.131-0.451,0.28-0.398,0.659
	c0.051,0.359,0.116,0.722,0.21,1.072c0.124,0.479,0.361,0.887,0.81,1.146c0.248,0.146,0.483,0.313,0.725,0.473
	c0.675,0.457,0.739,0.795,0.271,1.391c-0.021,0.023-0.026,0.054-0.045,0.074c-0.495,0.699-0.986,1.429-1.687,1.922
	c-0.692,0.486-0.858,1.104-0.731,1.854c0.146,0.858,0.346,1.713,0.592,2.556c0.074,0.25,0.228,0.401,0.48,0.428
	c0.563,0.059,1.04-0.113,1.408-0.56C133.581,160.354,133.618,160.201,133.769,160.146z M121.526,174.401
	c0,0.396-0.012,0.931,0.002,1.457c0.02,0.621,0.362,0.896,0.979,0.82c0.104-0.014,0.212-0.029,0.313-0.031
	c0.883-0.01,1.592-0.358,2.173-1.021c0.514-0.586,0.993-1.195,1.396-1.863c0.253-0.422,0.532-0.854,0.592-1.34
	c0.097-0.773,0.43-1.436,0.866-2.049c0.965-1.354,1.785-2.773,2.346-4.352c0.427-1.193,0.872-2.383,1.108-3.635
	c0.066-0.355,0.109-0.724,0.04-1.089c-0.064-0.348-0.271-0.438-0.555-0.229c-0.262,0.188-0.46,0.438-0.632,0.707
	c-0.509,0.805-1.004,1.619-1.518,2.418c-0.969,1.5-2.036,2.916-3.463,4.022c-0.542,0.423-0.896,0.341-1.104-0.309
	c-0.211-0.656-0.463-1.3-0.479-2.011c-0.053-1.97-0.155-3.938,0.492-5.85c0.034-0.1,0.048-0.204,0.063-0.311
	c0.139-1.064-0.002-2.107-0.271-3.139c-0.063-0.23-0.164-0.441-0.37-0.604c-0.528-0.402-0.982-0.89-1.417-1.392
	c-0.615-0.721-1.079-1.545-1.621-2.313c-0.17-0.244-0.344-0.486-0.537-0.713c-0.277-0.322-0.478-0.287-0.671,0.094
	c-0.11,0.22-0.168,0.453-0.218,0.688c-0.28,1.332-0.395,2.679-0.403,4.035c-0.004,0.396,0.117,0.734,0.384,1.023
	c0.479,0.518,0.839,1.1,0.984,1.799c0.076,0.365,0.155,0.734,0.232,1.102c0.366,1.72,0.728,3.439,1.101,5.156
	c0.249,1.152,0.39,2.308,0.358,3.486C121.661,170.74,121.495,172.501,121.526,174.401z M73.178,173.873
	c0.017,0.326,0.05,0.623,0.146,0.905c0.271,0.808,0.843,1.271,1.653,1.494c0.788,0.218,1.339-0.127,1.82-0.688
	c0.051-0.06,0.1-0.115,0.146-0.176c0.79-0.953,1.391-2.027,1.977-3.109c1.177-2.164,2.015-4.487,3.182-6.655
	c0.338-0.629,0.488-1.3,0.438-2.025c-0.066-0.898,0.104-1.779,0.314-2.65c0.035-0.145,0.197-0.361,0.022-0.436
	c-0.153-0.066-0.229,0.188-0.307,0.318c-1.11,1.922-2.211,3.854-3.325,5.77c-0.387,0.664-0.781,1.332-1.376,1.838
	c-0.396,0.338-0.698,0.277-0.98-0.15c-0.311-0.469-0.482-1-0.72-1.506c-0.198-0.424-0.271-0.877-0.33-1.336
	c-0.146-1.131-0.096-2.262-0.049-3.396c0.037-0.844,0.117-1.687,0.204-2.523c0.048-0.459-0.054-0.855-0.352-1.205
	c-0.329-0.389-0.756-0.656-1.175-0.926c-0.997-0.643-1.428-1.604-1.566-2.729c-0.087-0.681,0.201-1.234,0.669-1.711
	c0.252-0.254,0.5-0.504,0.706-0.797c0.102-0.144,0.189-0.287,0.242-0.455c0.067-0.22,0.019-0.396-0.146-0.55
	c-0.165-0.149-0.341-0.11-0.51-0.021c-0.36,0.199-0.717,0.424-1.117,0.525c-0.7,0.182-1.37,0.053-2.021-0.234
	c-0.279-0.123-0.388-0.063-0.479,0.231c-0.09,0.3-0.052,0.599,0.042,0.882c0.337,1.043,0.446,2.118,0.521,3.205
	c0.06,0.813,0.224,1.592,0.648,2.309c0.311,0.518,0.622,1.039,0.833,1.609c0.373,1.004,0.502,2.059,0.567,3.108
	c0.104,1.629,0.313,3.244,0.501,4.865c0.117,1.002,0.062,2.016,0.02,3.021C73.339,171.755,73.271,172.83,73.178,173.873z
	 M107.045,171.677c0.175-0.025,0.368-0.037,0.555-0.086c0.583-0.146,0.945-0.617,0.883-1.219c-0.146-1.377-0.482-2.703-1.131-3.938
	c-0.316-0.606-0.762-1.069-1.406-1.346c-0.396-0.168-0.834-0.318-1.125-0.635c-0.387-0.418-0.845-0.461-1.34-0.412
	c-0.596,0.059-1.097,0.293-1.357,0.877c-0.096,0.207-0.082,0.381,0.083,0.576c0.428,0.508,0.83,1.035,1.137,1.629
	c0.229,0.438,0.212,0.861-0.009,1.295c-0.879,1.74-2.131,3.188-3.544,4.512c-0.471,0.438-0.992,0.783-1.598,1.012
	c-0.259,0.099-0.496,0.25-0.736,0.392c-0.111,0.065-0.251,0.151-0.197,0.313c0.047,0.143,0.191,0.135,0.317,0.149
	c0.335,0.041,0.671,0.019,1.006-0.002c1.409-0.078,2.75-0.397,3.994-1.096c1.006-0.564,1.986-1.173,3.026-1.673
	C106.048,171.813,106.495,171.558,107.045,171.677z M83.054,147.707c-0.015-0.459-0.302-1.144-0.67-1.808
	c-0.66-1.194-1.768-1.875-2.896-2.521c-0.824-0.473-1.759-0.568-2.684-0.539c-0.912,0.029-1.578,0.553-2.062,1.307
	c-0.217,0.338-0.146,0.447,0.25,0.478c0.897,0.063,1.521,0.633,1.682,1.545c0.098,0.558,0.056,0.658-0.429,0.935
	c-0.15,0.086-0.313,0.146-0.468,0.229c-0.42,0.228-0.886,0.381-1.189,0.787c-0.107,0.146-0.127,0.269,0.003,0.407
	c0.383,0.418,0.8,0.75,1.423,0.658c0.188-0.026,0.382-0.024,0.572-0.043c1-0.084,1.991-0.139,2.948,0.285
	c0.398,0.178,0.828,0.297,1.271,0.361C82.069,149.979,83.054,149.208,83.054,147.707z M99.571,164.173
	c0.735-0.01,1.326-0.172,1.813-0.736c0.661-0.77,1.374-1.498,2.141-2.172c0.338-0.297,0.69-0.526,1.146-0.619
	c0.613-0.121,1.212-0.309,1.745-0.649c0.402-0.265,0.724-0.613,0.582-1.256c-0.256-1.177-0.771-2.228-1.492-3.181
	c-0.452-0.604-0.952-1.168-1.655-1.481c-0.709-0.315-1.432-0.435-2.151-0.004c-0.188,0.11-0.245,0.227-0.176,0.442
	c0.226,0.676,0.396,1.365,0.515,2.068c0.064,0.387,0.053,0.758-0.076,1.133c-0.438,1.277-1.012,2.492-1.676,3.66
	c-0.459,0.811-0.885,1.646-1.659,2.225c-0.188,0.14-0.13,0.332,0.118,0.433C99.023,164.147,99.322,164.167,99.571,164.173z
	 M126.343,143.675c-0.328-0.021-0.646,0.016-0.951,0.098c-0.731,0.197-1.454,0.431-2.189,0.609
	c-0.283,0.072-0.341,0.211-0.271,0.451c0.14,0.523,0.489,0.863,0.973,1.074c0.272,0.117,0.539,0.256,0.787,0.418
	c0.46,0.303,0.503,0.666,0.104,1.041c-0.712,0.664-1.523,1.166-2.468,1.438c-0.108,0.029-0.252,0.031-0.271,0.174
	c-0.021,0.156,0.127,0.195,0.233,0.256c0.021,0.017,0.049,0.025,0.074,0.037c1.227,0.438,2.481,0.709,3.788,0.572
	c1.251-0.129,2.494-0.076,3.729,0.133c0.413,0.07,0.723-0.063,0.985-0.334c0.544-0.563,0.672-1.315,0.307-2.026
	c-0.767-1.48-1.939-2.589-3.32-3.486C127.395,143.83,126.898,143.625,126.343,143.675z M104.793,140.897
	c-0.341-0.024-0.581-0.008-0.814,0.039c-1.158,0.226-2.132,0.845-3.1,1.478c-0.104,0.067-0.139,0.158-0.081,0.272
	c0.287,0.572,0.544,1.17,1.101,1.558c0.256,0.178,0.481,0.394,0.52,0.728c0.035,0.34,0.008,0.676-0.169,0.979
	c-0.232,0.396-0.478,0.789-0.708,1.188c-0.239,0.404-0.514,0.793-0.646,1.25c-0.094,0.313,0.029,0.51,0.354,0.549
	c0.235,0.025,0.478,0.006,0.715-0.033c1.346-0.223,2.2-1.028,2.77-2.229c0.469-0.991,0.826-2.024,1.23-3.043
	c0.226-0.562,0.437-1.131,0.487-1.741c0.025-0.337-0.083-0.608-0.327-0.662C105.645,141.117,105.194,140.892,104.793,140.897z
	 M83.237,184.664c0-0.002,0-0.002,0-0.002c0.174,0,0.347,0.002,0.519-0.002c0.077-0.002,0.156,0,0.205-0.078
	c0.115-0.185,0.003-0.608-0.196-0.692c-0.118-0.052-0.122-0.138-0.122-0.232c-0.002-0.547-0.002-1.096,0-1.645
	c0-0.084-0.014-0.201,0.091-0.22c0.367-0.053,0.231-0.332,0.254-0.539c0.021-0.183-0.067-0.258-0.253-0.256
	c-0.308,0.008-0.612,0.002-0.921,0.002c-0.154,0-0.345-0.021-0.326,0.211c0.018,0.201-0.146,0.492,0.222,0.558
	c0.118,0.021,0.147,0.092,0.161,0.198c0.051,0.429,0.006,0.479-0.433,0.479c-0.088,0-0.173,0.008-0.261,0
	c-0.135-0.01-0.328,0.045-0.313-0.182c0.014-0.183-0.143-0.431,0.2-0.511c0.301-0.073,0.15-0.348,0.171-0.537
	c0.02-0.182-0.109-0.221-0.264-0.219c-0.327,0.006-0.654,0-0.979,0.004c-0.086,0.002-0.177-0.01-0.231,0.078
	c-0.115,0.187-0.002,0.606,0.198,0.694c0.114,0.05,0.12,0.136,0.122,0.23c0.001,0.549,0.001,1.098-0.002,1.645
	c0,0.084,0.014,0.203-0.093,0.22c-0.364,0.055-0.23,0.332-0.254,0.539c-0.02,0.182,0.068,0.258,0.254,0.256
	c0.336-0.008,0.671-0.002,1.011-0.004c0.074,0,0.152,0.004,0.207-0.07c0.14-0.19,0.014-0.61-0.219-0.698
	c-0.086-0.033-0.113-0.084-0.129-0.168c-0.07-0.425-0.002-0.507,0.434-0.509c0.086,0,0.173-0.002,0.258,0.002
	c0.138,0.009,0.328-0.038,0.313,0.187c-0.01,0.182,0.146,0.451-0.205,0.5c-0.113,0.016-0.152,0.096-0.172,0.199
	c-0.079,0.465,0,0.563,0.472,0.563C83.045,184.664,83.141,184.664,83.237,184.664z M130.693,181c-0.236,0-0.479-0.004-0.719,0.002
	c-0.126,0.004-0.316-0.041-0.309,0.156c0.016,0.209-0.178,0.504,0.18,0.606c0.135,0.041,0.154,0.127,0.154,0.236
	c0,0.549,0,1.098-0.001,1.646c0,0.084,0.014,0.203-0.09,0.222c-0.388,0.062-0.23,0.354-0.256,0.563
	c-0.019,0.152,0.063,0.229,0.224,0.229c0.354-0.004,0.71,0,1.064-0.002c0.065-0.002,0.135-0.008,0.182-0.07
	c0.14-0.189,0.015-0.611-0.219-0.699c-0.087-0.033-0.131-0.082-0.126-0.166c0.007-0.119-0.058-0.287,0.104-0.322
	c0.182-0.039,0.415-0.104,0.541,0.063c0.089,0.117,0.392,0.267,0.049,0.494c-0.167,0.108-0.091,0.381-0.055,0.572
	c0.035,0.188,0.213,0.127,0.336,0.131c0.289,0.008,0.578,0.006,0.866,0c0.106-0.002,0.262,0.024,0.271-0.138
	c0.011-0.202,0.117-0.51-0.082-0.58c-0.298-0.104-0.355-0.348-0.505-0.547c-0.136-0.18-0.152-0.323,0.013-0.524
	c0.287-0.354,0.326-0.776,0.123-1.194c-0.205-0.425-0.552-0.656-1.026-0.673C131.177,180.994,130.936,181,130.693,181z
	 M110.741,184.664c0.125,0,0.251,0.008,0.375-0.004c0.146-0.015,0.381,0.071,0.369-0.185c-0.007-0.211,0.188-0.531-0.231-0.594
	c-0.146-0.021-0.163-0.15-0.194-0.258c-0.183-0.605-0.352-1.221-0.546-1.818c-0.317-0.979-0.038-0.777-1.091-0.813
	c-0.239-0.01-0.334,0.088-0.397,0.309c-0.214,0.76-0.444,1.514-0.675,2.268c-0.032,0.105-0.038,0.271-0.156,0.289
	c-0.375,0.045-0.275,0.313-0.292,0.539c-0.012,0.205,0.086,0.271,0.276,0.267c0.298-0.008,0.596,0.002,0.896-0.002
	c0.135-0.004,0.328,0.041,0.323-0.177c-0.003-0.204,0.147-0.479-0.175-0.59c-0.066-0.024-0.134-0.047-0.117-0.133
	c0.017-0.088,0.041-0.186,0.147-0.188c0.297-0.005,0.597-0.005,0.893,0.006c0.089,0.004,0.118,0.088,0.138,0.166
	c0.018,0.063,0.006,0.119-0.066,0.135c-0.396,0.091-0.216,0.402-0.205,0.613c0.012,0.262,0.264,0.144,0.417,0.164
	C110.528,184.673,110.636,184.664,110.741,184.664z M89.503,184.662c0,0,0,0,0,0.002c0.164,0,0.327,0.002,0.49-0.002
	c0.941-0.021,0.783,0.168,0.801-0.834c0.002-0.048-0.004-0.097-0.008-0.144c-0.01-0.063-0.034-0.121-0.1-0.127
	c-0.172-0.012-0.347-0.02-0.519-0.01c-0.145,0.01-0.128,0.146-0.161,0.238c-0.021,0.061-0.07,0.082-0.132,0.098
	c-0.385,0.104-0.524-0.016-0.53-0.406c-0.004-0.262,0.146-0.262,0.335-0.268c0.146-0.008,0.343,0.08,0.401-0.162
	c0.106-0.438-0.005-0.59-0.45-0.604c-0.028,0-0.058-0.002-0.086-0.002c-0.13,0.002-0.207-0.063-0.188-0.19
	c0.021-0.158-0.096-0.362,0.108-0.465c0.204-0.104,0.474,0.004,0.573,0.215c0.028,0.07,0.075,0.103,0.146,0.117
	c0.466,0.106,0.605-0.004,0.605-0.479c0-0.123-0.008-0.25,0-0.373c0.014-0.199-0.078-0.271-0.272-0.27
	c-0.674,0.006-1.345,0-2.019,0.002c-0.126,0-0.281-0.006-0.268,0.174c0.021,0.199-0.146,0.475,0.146,0.578
	c0.168,0.061,0.195,0.146,0.195,0.295c-0.003,0.52-0.006,1.037,0.002,1.555c0.001,0.162-0.037,0.246-0.216,0.314
	c-0.264,0.102-0.109,0.365-0.13,0.561c-0.02,0.176,0.127,0.187,0.258,0.187C88.832,184.662,89.166,184.662,89.503,184.662z
	 M124.133,181c-0.338,0-0.672-0.002-1.009,0.002c-0.092,0.002-0.195-0.019-0.255,0.088c-0.11,0.195,0.002,0.591,0.212,0.688
	c0.111,0.055,0.11,0.145,0.11,0.238c0.001,0.539,0,1.075,0.001,1.614c0,0.136-0.022,0.224-0.183,0.271
	c-0.302,0.104-0.142,0.373-0.158,0.57c-0.02,0.198,0.147,0.188,0.284,0.188c0.488,0.002,0.979,0.002,1.47,0.002
	c0.882,0,0.91-0.035,0.802-0.918c-0.006-0.029-0.007-0.062-0.014-0.086c-0.012-0.052-0.039-0.099-0.09-0.103
	c-0.173-0.01-0.345-0.02-0.517-0.01c-0.146,0.008-0.131,0.143-0.162,0.236c-0.021,0.061-0.07,0.082-0.131,0.1
	c-0.389,0.105-0.529-0.014-0.533-0.402c-0.004-0.26,0.142-0.266,0.332-0.271c0.146-0.008,0.343,0.082,0.4-0.158
	c0.112-0.434-0.005-0.594-0.443-0.607c-0.029,0-0.06-0.002-0.088-0.002c-0.128,0.002-0.207-0.061-0.19-0.19
	c0.021-0.158-0.096-0.36,0.106-0.465c0.198-0.104,0.478,0.006,0.572,0.213c0.032,0.069,0.075,0.104,0.148,0.119
	c0.461,0.106,0.604-0.005,0.605-0.476c0-0.137-0.007-0.271-0.003-0.404c0.009-0.17-0.067-0.241-0.237-0.239
	C124.824,181.003,124.477,181,124.133,181z M101.849,181c-0.241,0-0.48-0.004-0.723,0.002c-0.126,0.004-0.317-0.041-0.308,0.158
	c0.016,0.209-0.177,0.5,0.181,0.604c0.116,0.033,0.151,0.103,0.151,0.211c0,0.563,0.002,1.131,0,1.695
	c0,0.078,0.002,0.186-0.09,0.195c-0.342,0.043-0.24,0.299-0.259,0.504c-0.018,0.209,0.064,0.299,0.279,0.291
	c0.297-0.012,0.597,0,0.896-0.002c0.149,0,0.347,0.025,0.328-0.207c-0.016-0.201,0.147-0.492-0.215-0.561
	c-0.199-0.039-0.156-0.187-0.16-0.313c-0.007-0.147,0.077-0.205,0.215-0.205c0.203-0.002,0.401,0.004,0.604-0.039
	c0.613-0.135,1.018-0.67,0.959-1.285c-0.058-0.598-0.548-1.043-1.169-1.055C102.309,180.996,102.077,181,101.849,181z M116.813,181
	c-0.271,0-0.539-0.002-0.809,0.002c-0.083,0.002-0.175-0.01-0.229,0.082c-0.112,0.187-0.001,0.604,0.201,0.69
	c0.113,0.05,0.12,0.14,0.12,0.232c0,0.549,0.002,1.096,0,1.645c0,0.074,0.012,0.188-0.068,0.203
	c-0.384,0.063-0.264,0.353-0.276,0.582c-0.01,0.154,0.067,0.228,0.228,0.226c0.316-0.004,0.634,0,0.949,0
	c0.155,0,0.342,0.021,0.322-0.211c-0.016-0.203,0.146-0.492-0.221-0.558c-0.199-0.037-0.147-0.188-0.152-0.317
	c-0.008-0.15,0.086-0.197,0.22-0.197c0.222,0,0.441,0,0.657-0.055c0.576-0.146,0.956-0.687,0.896-1.273
	c-0.059-0.588-0.543-1.032-1.146-1.051C117.273,180.996,117.044,181,116.813,181z M75.05,181c-0.229,0-0.462-0.004-0.69,0
	c-0.92,0.021-0.771-0.164-0.781,0.824c-0.001,0.131-0.021,0.311,0.18,0.288s0.484,0.166,0.585-0.178
	c0.032-0.11,0.08-0.176,0.199-0.156c0.13,0.019,0.13,0.123,0.13,0.22c0,0.56,0,1.114,0,1.674c0,0.076,0.003,0.188-0.084,0.193
	c-0.399,0.026-0.298,0.315-0.309,0.553c-0.006,0.164,0.065,0.246,0.24,0.246c0.348-0.008,0.691-0.002,1.037-0.004
	c0.076-0.002,0.153-0.002,0.203-0.078c0.117-0.188,0.006-0.604-0.195-0.697c-0.084-0.036-0.12-0.092-0.12-0.176
	c-0.001-0.586-0.003-1.172,0-1.76c0-0.078,0.025-0.154,0.124-0.166c0.098-0.009,0.144,0.051,0.151,0.137
	c0.021,0.158,0.11,0.199,0.258,0.205c0.557,0.028,0.56,0.028,0.559-0.537c0-0.104-0.003-0.211,0-0.315
	c0.01-0.193-0.074-0.275-0.271-0.271C75.857,181.005,75.454,181,75.05,181z"/>
<path fill="#1B3467" d="M149.425,164.156c0.056,0.592,0.095,1.184,0.159,1.771c0.159,1.408,0.159,2.818,0.184,4.232
	c0.022,1.479,0.092,2.955,0.131,4.438c0.021,0.697,0.022,1.398,0.022,2.103c0.005,1.297,0.154,2.588,0.18,3.885
	c0.019,0.813-0.021,0.856-0.823,1.039c-0.691,0.157-1.393,0.301-2.104,0.326c-0.515,0.02-0.591-0.039-0.692-0.554
	c-0.124-0.623-0.181-1.258-0.192-1.893c-0.043-2.037-0.404-4.025-0.828-6.012c-0.261-1.225-0.403-2.463-0.394-3.719
	c0.016-1.547-0.03-3.099,0.021-4.646c0.039-1.172-0.006-2.346,0.078-3.517c0.011-0.159,0.094-0.379-0.09-0.476
	c-0.166-0.091-0.327,0.05-0.479,0.134c-0.293,0.154-0.521,0.396-0.765,0.605c-0.061,0.051-0.109,0.105-0.168,0.16
	c-0.933,0.859-1.939,0.836-2.821-0.074c-0.45-0.467-0.813-0.998-1.099-1.58c-0.271-0.553-0.217-0.979,0.248-1.377
	c1.345-1.146,2.594-2.4,3.967-3.52c0.211-0.174,0.312-0.39,0.342-0.646c0.048-0.359,0.093-0.723,0.075-1.09
	c-0.008-0.17,0.026-0.375-0.165-0.459s-0.399-0.053-0.576,0.072c-0.202,0.145-0.393,0.309-0.558,0.496
	c-0.208,0.238-0.425,0.473-0.647,0.697c-0.263,0.262-0.454,0.297-0.729,0.061c-1.201-1.051-1.806-2.014-1.446-3.512
	c0.095-0.383,0.189-0.767,0.271-1.148c0.048-0.213,0.168-0.326,0.37-0.396c0.52-0.172,1.06-0.188,1.592-0.232
	c0.472-0.041,0.939-0.045,1.411-0.072c0.402-0.023,0.45-0.068,0.514-0.471c0.056-0.367-0.017-0.729-0.075-1.086
	c-0.037-0.221-0.161-0.281-0.375-0.225c-0.438,0.114-0.873,0.229-1.321,0.278c-0.815,0.099-1.119-0.157-1.283-0.739
	c-0.133-0.472-0.296-0.935-0.363-1.421c-0.064-0.463,0.041-0.674,0.447-0.896c0.291-0.155,0.598-0.272,0.914-0.348
	c0.728-0.172,1.263-0.58,1.621-1.229c0.257-0.461,0.422-0.945,0.463-1.474c0.02-0.254-0.098-0.397-0.343-0.453
	c-0.467-0.104-0.936-0.051-1.406-0.024c-0.582,0.024-1.164,0.147-1.751,0.035c-0.302-0.062-0.642-0.101-0.754-0.44
	c-0.117-0.363,0.155-0.589,0.383-0.812c0.074-0.074,0.16-0.146,0.256-0.187c0.702-0.307,1.382-0.686,2.123-0.877
	c1.038-0.27,1.949-0.805,2.894-1.279c0.616-0.313,1.229-0.639,1.893-0.854c0.212-0.069,0.401-0.063,0.607,0.039
	c0.624,0.315,1.286,0.552,1.888,0.929c0.494,0.313,0.649,0.727,0.56,1.271c-0.124,0.764-0.444,1.445-0.843,2.104
	c-0.224,0.369-0.586,0.479-0.983,0.498c-0.184,0.008-0.363-0.027-0.544-0.039c-0.164-0.01-0.346-0.031-0.446,0.131
	c-0.108,0.174-0.063,0.357,0.031,0.521c0.205,0.357,0.688,0.744,1.256,0.631c0.537-0.104,1.082-0.17,1.623-0.248
	c0.539-0.08,0.715,0.033,0.849,0.564c0.203,0.822,0.25,1.656,0.097,2.488c-0.102,0.541-0.382,0.979-0.861,1.272
	c-0.362,0.226-0.741,0.289-1.157,0.142c-0.25-0.095-0.524-0.193-0.75,0.053c-0.278,0.311-0.362,0.68-0.231,1.074
	c0.065,0.204,0.248,0.297,0.463,0.262c0.467-0.078,0.938-0.074,1.318-0.474c0.282-0.293,0.705-0.438,1.111-0.514
	c0.374-0.07,0.71,0.123,1.046,0.267c0.459,0.192,0.91,0.411,1.369,0.606c0.346,0.146,0.514,0.319,0.457,0.678
	c-0.146,0.981-0.388,1.955-1.092,2.707c-0.497,0.529-1.123,0.912-1.771,1.229c-0.483,0.238-0.659,0.651-0.792,1.104
	c-0.077,0.269,0.055,0.392,0.331,0.313c0.396-0.108,0.787-0.25,1.186-0.368c0.329-0.103,0.665-0.203,1.017-0.148
	c0.501,0.08,0.792,0.509,0.704,1.011c-0.063,0.358-0.225,0.678-0.406,0.979c-0.287,0.488-0.656,0.922-1.005,1.369
	c-0.556,0.719-1.382,0.94-2.162,1.254c-0.194,0.08-0.392,0.168-0.597,0.219c-0.322,0.08-0.447,0.291-0.479,0.599
	c-0.095,1.004-0.253,2.004-0.224,3.016c0.005,0.179-0.001,0.342,0.221,0.414c0.117,0.035,0.138,0.174,0.186,0.277
	c0.291,0.653,0.748,0.994,1.341,0.938c0.74-0.067,0.824-0.356,0.665-0.867c-0.102-0.321-0.024-0.43,0.313-0.45
	c0.619-0.041,1.17,0.17,1.671,0.521c0.138,0.094,0.271,0.188,0.395,0.293c0.484,0.41,1.024,0.709,1.644,0.867
	c0.781,0.202,1.21,0.745,1.418,1.489c0.253,0.892,0.234,1.783-0.02,2.672c-0.227,0.787-0.753,1.231-1.548,1.361
	c-1.647,0.264-3.584-0.8-4.294-2.303c-0.479-1.018-0.979-2.025-1.558-2.99c-0.079-0.132-0.165-0.257-0.249-0.389
	C149.456,164.147,149.441,164.149,149.425,164.156z"/>
<path fill="#1B3467" d="M133.769,160.146c-0.148,0.058-0.188,0.209-0.274,0.314c-0.368,0.441-0.847,0.615-1.408,0.559
	c-0.256-0.022-0.406-0.178-0.48-0.428c-0.246-0.842-0.442-1.693-0.592-2.555c-0.128-0.748,0.038-1.365,0.731-1.854
	c0.696-0.492,1.188-1.223,1.687-1.92c0.019-0.022,0.024-0.053,0.045-0.074c0.467-0.598,0.4-0.936-0.271-1.393
	c-0.238-0.162-0.477-0.324-0.725-0.473c-0.445-0.262-0.686-0.67-0.81-1.146c-0.094-0.354-0.16-0.713-0.21-1.072
	c-0.053-0.379,0.042-0.528,0.398-0.66c0.271-0.098,0.553-0.172,0.831-0.241c0.723-0.187,1.206-0.988,1.156-1.797
	c-0.023-0.392-0.188-0.533-0.602-0.541c-0.541-0.015-1.072-0.072-1.604-0.171c-0.236-0.043-0.368-0.139-0.4-0.399
	c-0.06-0.455-0.176-0.903-0.19-1.367c-0.016-0.346,0.104-0.485,0.443-0.561c0.282-0.062,0.57-0.064,0.858-0.064
	c0.756,0,1.44-0.202,2.032-0.688c0.244-0.201,0.524-0.367,0.74-0.599c0.4-0.428,0.917-0.551,1.459-0.59
	c0.62-0.045,1.243-0.113,1.868-0.016c0.261,0.041,0.512,0.084,0.729,0.248c0.181,0.139,0.405,0.17,0.616,0.23
	c0.451,0.137,0.63,0.352,0.657,0.821c0.014,0.24,0.005,0.479-0.037,0.72c-0.085,0.491-0.229,0.973-0.266,1.477
	c-0.014,0.191-0.104,0.371-0.237,0.516c-0.225,0.236-0.449,0.477-0.693,0.688c-0.247,0.219-0.56,0.227-0.873,0.219
	c-0.396-0.01-0.49,0.063-0.579,0.445c-0.109,0.479-0.2,0.965-0.104,1.455c0.072,0.367,0.181,0.453,0.551,0.444
	c0.172,0,0.345-0.026,0.516-0.053c0.627-0.093,0.833,0.103,0.729,0.728c-0.08,0.481-0.189,0.961-0.278,1.44
	c-0.097,0.521-0.179,1.041-0.16,1.574c0.021,0.602-0.23,1.11-0.667,1.477c-0.555,0.464-0.703,1.013-0.686,1.699
	c0.027,0.935-0.182,1.853-0.286,2.774c-0.169,1.451-0.387,2.896-0.464,4.354c-0.047,0.894-0.231,1.771-0.354,2.658
	c-0.094,0.687-0.124,1.377-0.248,2.059c-0.063,0.363-0.199,0.701-0.381,1.021c-0.275,0.479-0.501,0.582-1.049,0.485
	c-0.582-0.1-0.801-0.322-0.93-0.891c-0.354-1.564-0.828-3.082-1.834-4.373c-0.146-0.188-0.066-0.289,0.121-0.33
	c0.203-0.045,0.416-0.063,0.626-0.096c0.255-0.037,0.45-0.133,0.513-0.42c0.229-1.123,0.417-2.248,0.427-3.396
	C133.815,160.313,133.851,160.222,133.769,160.146z"/>
<path fill="#1B3467" d="M121.526,174.401c-0.029-1.899,0.137-3.661,0.179-5.43c0.026-1.184-0.111-2.334-0.36-3.486
	c-0.372-1.719-0.731-3.438-1.099-5.157c-0.079-0.365-0.158-0.734-0.234-1.101c-0.146-0.701-0.509-1.281-0.984-1.801
	c-0.267-0.287-0.387-0.627-0.384-1.021c0.012-1.359,0.123-2.705,0.403-4.037c0.051-0.234,0.104-0.47,0.219-0.688
	c0.192-0.382,0.395-0.416,0.67-0.095c0.193,0.226,0.367,0.47,0.538,0.713c0.542,0.771,1.005,1.597,1.62,2.313
	c0.435,0.503,0.889,0.986,1.417,1.392c0.206,0.16,0.31,0.371,0.37,0.604c0.27,1.029,0.407,2.072,0.271,3.138
	c-0.016,0.104-0.026,0.211-0.063,0.312c-0.647,1.909-0.545,3.879-0.491,5.85c0.019,0.711,0.271,1.354,0.479,2.01
	c0.209,0.646,0.563,0.729,1.104,0.311c1.426-1.106,2.493-2.522,3.462-4.024c0.515-0.8,1.009-1.613,1.52-2.416
	c0.17-0.271,0.368-0.521,0.63-0.707c0.284-0.207,0.487-0.117,0.556,0.229c0.068,0.363,0.025,0.729-0.04,1.088
	c-0.237,1.25-0.686,2.438-1.108,3.635c-0.561,1.574-1.382,2.996-2.347,4.351c-0.438,0.613-0.771,1.272-0.866,2.052
	c-0.06,0.483-0.339,0.916-0.592,1.336c-0.399,0.668-0.884,1.278-1.396,1.864c-0.581,0.66-1.29,1.011-2.171,1.021
	c-0.104,0.002-0.209,0.021-0.313,0.031c-0.618,0.076-0.964-0.199-0.979-0.82C121.515,175.332,121.526,174.8,121.526,174.401z"/>
<path fill="#1B3467" d="M73.178,173.873c0.093-1.043,0.16-2.117,0.205-3.188c0.042-1.011,0.101-2.021-0.018-3.023
	c-0.189-1.621-0.396-3.236-0.503-4.865c-0.065-1.053-0.194-2.104-0.567-3.107c-0.211-0.569-0.522-1.096-0.833-1.61
	c-0.428-0.716-0.592-1.494-0.648-2.308c-0.072-1.086-0.187-2.164-0.521-3.205c-0.092-0.282-0.132-0.582-0.042-0.881
	c0.092-0.299,0.199-0.356,0.479-0.231c0.649,0.286,1.319,0.416,2.021,0.233c0.4-0.104,0.757-0.326,1.118-0.524
	c0.168-0.093,0.344-0.132,0.509,0.021c0.165,0.149,0.218,0.33,0.146,0.549c-0.053,0.168-0.144,0.313-0.24,0.455
	c-0.207,0.293-0.456,0.545-0.707,0.797c-0.469,0.477-0.757,1.031-0.668,1.711c0.14,1.125,0.567,2.086,1.564,2.729
	c0.419,0.271,0.846,0.537,1.175,0.926c0.298,0.352,0.396,0.746,0.352,1.205c-0.087,0.842-0.167,1.684-0.204,2.525
	c-0.047,1.133-0.095,2.264,0.05,3.395c0.06,0.459,0.131,0.912,0.329,1.336c0.234,0.508,0.409,1.037,0.72,1.508
	c0.282,0.431,0.588,0.486,0.98,0.148c0.596-0.506,0.991-1.174,1.376-1.838c1.116-1.916,2.215-3.848,3.326-5.77
	c0.075-0.131,0.149-0.387,0.306-0.318c0.175,0.072,0.013,0.291-0.022,0.438c-0.21,0.869-0.384,1.752-0.314,2.648
	c0.054,0.729-0.101,1.398-0.438,2.025c-1.167,2.168-2.005,4.494-3.182,6.656c-0.586,1.082-1.185,2.155-1.975,3.108
	c-0.052,0.062-0.101,0.119-0.147,0.176c-0.482,0.563-1.033,0.904-1.821,0.688c-0.813-0.223-1.382-0.688-1.653-1.493
	C73.228,174.496,73.194,174.199,73.178,173.873z"/>
<path fill="#1B3467" d="M107.045,171.677c-0.55-0.119-0.997,0.137-1.442,0.352c-1.04,0.5-2.021,1.105-3.026,1.673
	c-1.244,0.694-2.585,1.018-3.994,1.098c-0.335,0.019-0.671,0.041-1.006,0.002c-0.126-0.018-0.271-0.01-0.317-0.151
	c-0.054-0.159,0.086-0.246,0.197-0.313c0.24-0.141,0.479-0.293,0.736-0.391c0.604-0.229,1.127-0.572,1.598-1.012
	c1.413-1.32,2.665-2.771,3.544-4.511c0.22-0.434,0.235-0.856,0.009-1.297c-0.307-0.592-0.709-1.121-1.137-1.627
	c-0.165-0.194-0.179-0.371-0.083-0.578c0.264-0.584,0.766-0.817,1.357-0.877c0.495-0.049,0.953-0.006,1.34,0.414
	c0.291,0.313,0.729,0.465,1.125,0.633c0.646,0.275,1.09,0.736,1.406,1.347c0.646,1.233,0.985,2.561,1.131,3.938
	c0.063,0.604-0.3,1.074-0.883,1.221C107.413,171.64,107.219,171.651,107.045,171.677z"/>
<path fill="#1B3467" d="M83.054,147.707c0,1.502-0.984,2.272-2.246,2.084c-0.44-0.065-0.872-0.187-1.271-0.36
	c-0.957-0.425-1.948-0.371-2.948-0.287c-0.19,0.02-0.386,0.016-0.572,0.045c-0.623,0.092-1.04-0.242-1.423-0.66
	c-0.13-0.144-0.11-0.26-0.003-0.406c0.307-0.408,0.771-0.563,1.191-0.789c0.149-0.082,0.313-0.145,0.466-0.229
	c0.481-0.274,0.523-0.375,0.429-0.934c-0.161-0.912-0.781-1.479-1.682-1.545c-0.396-0.027-0.467-0.141-0.25-0.479
	c0.48-0.752,1.146-1.273,2.062-1.308c0.925-0.028,1.856,0.068,2.686,0.539c1.13,0.646,2.234,1.326,2.896,2.521
	C82.753,146.563,83.04,147.248,83.054,147.707z"/>
<path fill="#1B3467" d="M99.571,164.173c-0.249-0.006-0.548-0.023-0.826-0.141c-0.248-0.1-0.306-0.293-0.118-0.434
	c0.774-0.576,1.2-1.414,1.659-2.224c0.664-1.168,1.234-2.383,1.676-3.66c0.129-0.375,0.144-0.748,0.076-1.133
	c-0.119-0.703-0.289-1.396-0.515-2.069c-0.069-0.218-0.012-0.33,0.174-0.443c0.725-0.43,1.444-0.313,2.153,0.006
	c0.703,0.314,1.203,0.881,1.655,1.482c0.721,0.952,1.236,2.002,1.492,3.178c0.142,0.645-0.18,0.992-0.582,1.258
	c-0.533,0.344-1.132,0.529-1.745,0.65c-0.456,0.09-0.812,0.321-1.146,0.619c-0.767,0.674-1.479,1.401-2.141,2.172
	C100.897,164.001,100.307,164.164,99.571,164.173z"/>
<path fill="#1B3467" d="M126.343,143.675c0.557-0.051,1.053,0.154,1.511,0.451c1.381,0.898,2.557,2.008,3.32,3.488
	c0.365,0.709,0.237,1.467-0.307,2.025c-0.266,0.272-0.572,0.403-0.985,0.334c-1.234-0.209-2.479-0.263-3.729-0.132
	c-1.307,0.136-2.563-0.137-3.786-0.573c-0.027-0.011-0.055-0.021-0.076-0.037c-0.106-0.06-0.257-0.099-0.233-0.256
	c0.021-0.142,0.161-0.144,0.271-0.175c0.941-0.27,1.756-0.771,2.468-1.438c0.396-0.373,0.354-0.738-0.104-1.039
	c-0.248-0.164-0.515-0.302-0.787-0.421c-0.48-0.211-0.833-0.549-0.973-1.073c-0.064-0.24-0.012-0.377,0.271-0.449
	c0.735-0.182,1.458-0.414,2.189-0.61C125.697,143.69,126.014,143.651,126.343,143.675z"/>
<path fill="#1B3467" d="M104.793,140.897c0.399-0.006,0.853,0.22,1.328,0.32c0.244,0.055,0.354,0.328,0.327,0.664
	c-0.054,0.611-0.265,1.184-0.487,1.742c-0.404,1.018-0.767,2.051-1.23,3.043c-0.566,1.199-1.424,2.008-2.77,2.23
	c-0.237,0.039-0.479,0.061-0.715,0.03c-0.323-0.036-0.446-0.235-0.354-0.549c0.134-0.457,0.405-0.844,0.646-1.25
	c0.23-0.396,0.476-0.787,0.708-1.187c0.177-0.303,0.204-0.64,0.169-0.979c-0.035-0.332-0.264-0.549-0.52-0.728
	c-0.557-0.387-0.813-0.981-1.101-1.558c-0.06-0.114-0.021-0.204,0.081-0.271c0.968-0.632,1.938-1.25,3.1-1.479
	C104.212,140.89,104.452,140.873,104.793,140.897z"/>
<path fill="#1B3467" d="M83.237,184.664c-0.097,0-0.19,0-0.286,0c-0.472-0.002-0.551-0.099-0.472-0.563
	c0.02-0.104,0.059-0.187,0.172-0.201c0.352-0.047,0.195-0.316,0.205-0.5c0.018-0.224-0.176-0.176-0.313-0.185
	c-0.085-0.004-0.172-0.002-0.258-0.002c-0.436,0.002-0.506,0.084-0.434,0.506c0.016,0.084,0.043,0.138,0.129,0.171
	c0.229,0.088,0.355,0.508,0.219,0.698c-0.055,0.074-0.133,0.07-0.207,0.07c-0.34,0.002-0.675-0.005-1.011,0.004
	c-0.186,0.002-0.271-0.074-0.254-0.257c0.021-0.206-0.11-0.483,0.254-0.538c0.104-0.017,0.093-0.138,0.093-0.222
	c0.003-0.547,0.003-1.094,0.002-1.643c-0.002-0.1-0.008-0.186-0.122-0.232c-0.2-0.086-0.313-0.51-0.198-0.692
	c0.058-0.088,0.146-0.076,0.23-0.078c0.326-0.004,0.653,0.002,0.979-0.004c0.152-0.002,0.281,0.037,0.265,0.219
	c-0.021,0.188,0.13,0.464-0.171,0.537c-0.344,0.08-0.188,0.328-0.2,0.511c-0.017,0.226,0.18,0.172,0.313,0.182
	c0.088,0.008,0.173,0,0.261,0c0.438,0,0.48-0.051,0.433-0.479c-0.014-0.107-0.043-0.178-0.161-0.197
	c-0.365-0.063-0.204-0.354-0.222-0.557c-0.019-0.232,0.17-0.213,0.326-0.213c0.309,0,0.613,0.006,0.921,0
	c0.186-0.004,0.272,0.07,0.253,0.256c-0.021,0.205,0.113,0.482-0.254,0.537c-0.104,0.018-0.091,0.135-0.091,0.219
	c-0.002,0.549-0.002,1.098,0,1.646c0,0.098,0.004,0.186,0.122,0.231c0.199,0.086,0.313,0.512,0.196,0.693
	c-0.049,0.078-0.128,0.078-0.205,0.078c-0.172,0.004-0.345,0.002-0.519,0.002C83.237,184.662,83.237,184.662,83.237,184.664z"/>
<path fill="#1B3467" d="M130.693,181c0.242,0,0.482-0.006,0.725,0.004c0.478,0.017,0.821,0.248,1.026,0.672
	c0.203,0.418,0.164,0.841-0.123,1.195c-0.163,0.201-0.146,0.348-0.013,0.526c0.146,0.195,0.207,0.439,0.505,0.545
	c0.2,0.07,0.095,0.379,0.082,0.582c-0.012,0.162-0.164,0.134-0.271,0.136c-0.288,0.006-0.577,0.008-0.866,0
	c-0.123-0.004-0.301,0.057-0.336-0.13c-0.036-0.192-0.112-0.465,0.055-0.573c0.343-0.229,0.04-0.377-0.049-0.494
	c-0.126-0.166-0.359-0.103-0.54-0.063c-0.162,0.037-0.101,0.205-0.104,0.322c-0.007,0.086,0.037,0.135,0.126,0.168
	c0.229,0.086,0.354,0.508,0.217,0.697c-0.047,0.063-0.112,0.07-0.182,0.07c-0.354,0.002-0.712,0-1.064,0.002
	c-0.158,0.002-0.239-0.074-0.222-0.229c0.021-0.211-0.134-0.507,0.254-0.564c0.104-0.02,0.09-0.139,0.09-0.223
	c0.001-0.549,0.001-1.097,0.001-1.644c0-0.112-0.021-0.198-0.154-0.239c-0.354-0.104-0.164-0.396-0.18-0.604
	c-0.011-0.199,0.183-0.154,0.309-0.158C130.213,180.996,130.455,181,130.693,181z M131.188,182.574
	c0.373-0.005,0.563-0.115,0.588-0.355c0.022-0.194-0.067-0.358-0.242-0.409c-0.234-0.068-0.486-0.099-0.725,0.024
	c-0.008,0.006-0.013,0.019-0.013,0.024c-0.03,0.209-0.068,0.433,0.015,0.623C130.878,182.642,131.069,182.548,131.188,182.574z"/>
<path fill="#1B3467" d="M110.741,184.664c-0.104,0-0.215,0.01-0.314-0.006c-0.152-0.021-0.404,0.1-0.417-0.164
	c-0.01-0.209-0.188-0.521,0.206-0.611c0.072-0.016,0.084-0.069,0.066-0.135c-0.02-0.08-0.049-0.164-0.138-0.168
	c-0.296-0.009-0.596-0.009-0.893-0.004c-0.106,0.004-0.134,0.103-0.147,0.188c-0.017,0.086,0.049,0.104,0.117,0.133
	c0.322,0.11,0.172,0.387,0.175,0.59c0.005,0.217-0.188,0.174-0.323,0.176c-0.302,0.004-0.6-0.006-0.896,0.002
	c-0.189,0.006-0.287-0.061-0.275-0.266c0.017-0.228-0.083-0.494,0.292-0.539c0.118-0.017,0.124-0.185,0.156-0.289
	c0.229-0.754,0.461-1.508,0.675-2.266c0.063-0.222,0.158-0.316,0.397-0.312c1.053,0.032,0.771-0.17,1.091,0.813
	c0.194,0.602,0.363,1.213,0.546,1.819c0.031,0.104,0.051,0.235,0.194,0.258c0.419,0.062,0.228,0.382,0.231,0.593
	c0.012,0.256-0.225,0.17-0.369,0.184C110.992,184.671,110.866,184.664,110.741,184.664z M109.731,181.903
	c-0.021-0.002-0.045-0.002-0.067-0.004c-0.069,0.226-0.141,0.453-0.208,0.683c-0.022,0.076-0.036,0.162,0.062,0.192
	c0.13,0.037,0.271,0.047,0.396-0.01c0.079-0.033,0.05-0.113,0.027-0.18C109.872,182.358,109.801,182.132,109.731,181.903z"/>
<path fill="#1B3467" d="M89.503,184.662c-0.337,0-0.671,0-1.009,0c-0.132,0-0.275-0.011-0.259-0.187
	c0.021-0.194-0.134-0.459,0.132-0.563c0.177-0.066,0.215-0.15,0.214-0.313c-0.006-0.518-0.004-1.035-0.002-1.557
	c0-0.146-0.027-0.232-0.195-0.293c-0.293-0.104-0.125-0.379-0.146-0.578c-0.017-0.18,0.142-0.176,0.268-0.176
	c0.675,0,1.345,0.004,2.019-0.002c0.194-0.002,0.286,0.068,0.272,0.271c-0.008,0.123,0,0.25,0,0.373
	c0,0.476-0.143,0.586-0.605,0.479c-0.07-0.018-0.118-0.049-0.146-0.119c-0.103-0.209-0.369-0.316-0.573-0.215
	s-0.091,0.307-0.108,0.465c-0.019,0.129,0.062,0.193,0.188,0.191c0.028,0,0.058,0.002,0.086,0.002c0.445,0.016,0.56,0.17,0.45,0.604
	c-0.062,0.242-0.258,0.152-0.401,0.16c-0.188,0.006-0.338,0.008-0.335,0.269c0.006,0.393,0.146,0.512,0.53,0.405
	c0.062-0.016,0.111-0.037,0.132-0.096c0.033-0.097,0.021-0.229,0.161-0.24c0.172-0.008,0.347-0.002,0.519,0.011
	c0.063,0.006,0.092,0.063,0.1,0.127c0.004,0.047,0.01,0.096,0.008,0.145c-0.016,1.002,0.144,0.813-0.801,0.832
	c-0.163,0.004-0.326,0.002-0.49,0.002C89.503,184.662,89.503,184.662,89.503,184.662z"/>
<path fill="#1B3467" d="M124.133,181c0.345,0,0.691,0.004,1.037,0c0.17-0.002,0.246,0.069,0.239,0.24
	c-0.006,0.135,0.002,0.27,0.002,0.403c-0.002,0.472-0.146,0.582-0.606,0.476c-0.073-0.017-0.116-0.05-0.146-0.119
	c-0.1-0.207-0.374-0.315-0.574-0.213c-0.202,0.104-0.088,0.307-0.106,0.465c-0.017,0.133,0.063,0.192,0.19,0.19
	c0.028,0,0.059,0.002,0.088,0.002c0.438,0.017,0.559,0.177,0.445,0.608c-0.063,0.239-0.26,0.149-0.402,0.157
	c-0.19,0.006-0.336,0.012-0.332,0.271c0.004,0.392,0.146,0.511,0.533,0.402c0.061-0.018,0.107-0.037,0.131-0.1
	c0.031-0.098,0.02-0.229,0.162-0.236c0.172-0.01,0.344,0,0.517,0.01c0.051,0.004,0.079,0.051,0.09,0.103
	c0.008,0.024,0.01,0.057,0.014,0.086c0.108,0.883,0.082,0.918-0.802,0.918c-0.489,0-0.979,0-1.47-0.002
	c-0.137,0-0.304,0.012-0.284-0.188c0.02-0.197-0.144-0.468,0.158-0.57c0.157-0.051,0.184-0.139,0.184-0.271
	c-0.002-0.536,0-1.075-0.002-1.614c0-0.097,0.002-0.187-0.11-0.238c-0.21-0.098-0.322-0.49-0.212-0.688
	c0.06-0.104,0.163-0.086,0.255-0.088C123.461,180.998,123.795,181,124.133,181z"/>
<path fill="#1B3467" d="M101.849,181c0.229,0,0.46-0.004,0.69,0c0.621,0.015,1.111,0.457,1.169,1.056
	c0.059,0.614-0.346,1.149-0.959,1.284c-0.2,0.043-0.398,0.037-0.604,0.039c-0.138,0-0.222,0.058-0.215,0.205
	c0.004,0.127-0.039,0.272,0.16,0.313c0.362,0.065,0.199,0.356,0.215,0.561c0.019,0.232-0.179,0.207-0.328,0.207
	c-0.299,0.002-0.599-0.01-0.896,0.002c-0.215,0.008-0.297-0.082-0.279-0.291c0.019-0.205-0.083-0.461,0.259-0.504
	c0.092-0.014,0.09-0.117,0.09-0.195c0.002-0.564,0-1.133,0-1.695c0-0.108-0.035-0.178-0.151-0.211
	c-0.354-0.104-0.165-0.396-0.181-0.604c-0.013-0.199,0.182-0.153,0.308-0.158C101.366,180.996,101.607,181,101.849,181z
	 M102.305,182.574c0.034,0,0.054-0.005,0.072,0c0.25,0.016,0.465-0.041,0.544-0.314c0.053-0.178-0.035-0.317-0.177-0.424
	c-0.113-0.082-0.674-0.101-0.758-0.028c-0.013,0.014-0.029,0.026-0.032,0.047c-0.041,0.209-0.063,0.426,0.006,0.623
	C102.015,182.632,102.196,182.55,102.305,182.574z"/>
<path fill="#1B3467" d="M116.813,181c0.229,0,0.46-0.004,0.69,0c0.604,0.019,1.089,0.463,1.146,1.051
	c0.06,0.591-0.32,1.13-0.896,1.273c-0.216,0.055-0.438,0.055-0.657,0.055c-0.134,0-0.228,0.047-0.22,0.197
	c0.005,0.129-0.047,0.28,0.152,0.317c0.365,0.063,0.205,0.354,0.221,0.558c0.02,0.229-0.167,0.211-0.322,0.211
	c-0.315,0-0.633-0.004-0.949,0c-0.157,0.002-0.234-0.068-0.228-0.226c0.016-0.229-0.104-0.521,0.276-0.582
	c0.08-0.016,0.068-0.129,0.068-0.203c0.002-0.549,0-1.096,0-1.645c0-0.096-0.007-0.186-0.12-0.232
	c-0.202-0.088-0.313-0.506-0.201-0.69c0.058-0.092,0.146-0.08,0.229-0.082C116.274,180.998,116.544,181,116.813,181z
	 M117.361,181.767c-0.487-0.002-0.487-0.002-0.487,0.41c0,0.068,0.003,0.135,0.004,0.201c0,0.115,0.054,0.188,0.17,0.188
	c0.172,0.002,0.349,0.017,0.517-0.014c0.19-0.027,0.304-0.174,0.313-0.361c0.012-0.205-0.104-0.348-0.302-0.401
	C117.481,181.763,117.383,181.769,117.361,181.767z"/>
<path fill="#1B3467" d="M75.05,181c0.404,0,0.809,0.006,1.213-0.002c0.196-0.004,0.28,0.078,0.271,0.272
	c-0.003,0.104,0,0.211,0,0.314c0.001,0.564-0.002,0.564-0.559,0.537c-0.146-0.006-0.235-0.047-0.259-0.205
	c-0.01-0.086-0.056-0.145-0.15-0.137c-0.1,0.012-0.124,0.088-0.124,0.164c-0.003,0.59-0.001,1.176,0,1.762
	c0,0.084,0.036,0.141,0.12,0.176c0.201,0.096,0.313,0.512,0.195,0.697c-0.05,0.074-0.127,0.076-0.203,0.078
	c-0.346,0.002-0.689-0.004-1.037,0.004c-0.176,0-0.246-0.082-0.24-0.246c0.011-0.234-0.094-0.523,0.309-0.555
	c0.087-0.004,0.084-0.115,0.084-0.191c0-0.559,0-1.113,0-1.674c0-0.098,0-0.201-0.13-0.221c-0.119-0.019-0.167,0.047-0.199,0.158
	c-0.101,0.342-0.384,0.151-0.585,0.176c-0.198,0.021-0.181-0.156-0.18-0.289c0.014-0.986-0.139-0.803,0.781-0.822
	C74.588,180.996,74.819,181,75.05,181z"/>
<g>
	<path fill="none" d="M89.538,156.99c0.17-0.002,0.28,0.116,0.305,0.293v-0.001C89.822,157.104,89.708,156.985,89.538,156.99
		c-0.529,0.009-1.037,0.091-1.414,0.519c-0.41,0.473-0.811,0.953-1.236,1.406c0.429-0.453,0.826-0.936,1.236-1.404
		C88.501,157.081,89.009,156.999,89.538,156.99z"/>
	<polygon fill="none" points="86.533,159.467 86.533,159.468 86.537,159.459 	"/>
</g>
<g>
	<path fill="#1B3467" d="M96.279,167.751c-1.254-0.443-2.531-0.828-3.859-0.252c-0.134,0.061-0.207,0.016-0.22-0.121
		c-0.015-0.146,0.002-0.307,0.152-0.375c0.481-0.23,0.828-0.617,1.218-0.959c0.441-0.383,0.841-0.84,1.362-1.102
		c0.648-0.323,0.816-0.832,0.765-1.475c-0.058-0.707-0.2-1.406-0.18-2.123c0.007-0.242-0.138-0.359-0.385-0.369
		c-0.377-0.015-0.748,0.01-1.104,0.16c-0.229,0.098-0.47,0.161-0.715,0.217c-0.248,0.059-0.307-0.096-0.35-0.271
		c-0.047-0.195-0.078-0.424,0.173-0.477c0.317-0.063,0.456-0.275,0.551-0.533c0.272-0.738,0.397-1.502,0.319-2.289
		c-0.027-0.281-0.111-0.551-0.396-0.695c-0.088-0.043-0.105-0.133-0.127-0.217c-0.196-0.682-0.058-0.938,0.61-1.141
		c0.036-0.012,0.073-0.025,0.11-0.033c0.259-0.037,0.396-0.211,0.479-0.443c0.098-0.27,0.11-0.545,0.034-0.818
		c-0.073-0.27-0.21-0.525-0.252-0.797c-0.083-0.531-0.448-0.695-0.896-0.791c-0.702-0.152-1.409-0.094-2.118-0.016
		c-0.757,0.08-1.408,0.371-1.973,0.867c-0.423,0.375-0.85,0.75-1.275,1.125c-0.741,0.654-1.555,1.195-2.501,1.508
		c-0.469,0.15-0.684-0.01-0.674-0.502c0.009-0.307,0.08-0.607,0.141-0.91c0.081-0.398,0.308-0.646,0.688-0.773
		c0.312-0.104,0.622-0.205,0.896-0.389c0.758-0.494,1.533-0.949,2.331-1.375c1.171-0.621,2.208-1.465,3.364-2.115
		c1.059-0.6,2.086-1.267,3.271-1.621c0.153-0.043,0.266-0.144,0.358-0.272c0.328-0.463,0.546-0.972,0.643-1.529
		c0.097-0.6-0.255-1.225-0.803-1.461c-0.192-0.082-0.388-0.108-0.588-0.026c-0.498,0.203-1.011,0.358-1.531,0.5
		c-0.588,0.156-1.142,0.396-1.649,0.74c-0.263,0.176-0.528,0.344-0.795,0.522c-0.135,0.09-0.217,0.047-0.243-0.104
		c-0.013-0.102-0.023-0.209-0.026-0.313c-0.027-0.733,0.034-1.459,0.095-2.188c0.021-0.224,0.126-0.283,0.334-0.298
		c0.854-0.048,1.704-0.104,2.546-0.272c1.198-0.239,2.567-1.19,2.161-3.063c-0.156-0.716-0.429-0.937-1.166-0.86
		c-0.832,0.088-1.663,0.168-2.496,0.246c-0.406,0.036-0.499-0.05-0.566-0.461c-0.095-0.568-0.014-1.131,0.053-1.689
		c0.066-0.563,0.224-1.111,0.334-1.666c0.154-0.77-0.036-1.451-0.563-2.029c-0.303-0.332-0.54-0.336-0.865-0.037
		c-0.178,0.163-0.342,0.336-0.493,0.521c-0.417,0.505-0.864,0.955-1.521,1.136c-0.158,0.043-0.296,0.139-0.416,0.252
		c-0.095,0.088-0.194,0.209-0.144,0.326c0.19,0.437,0.135,0.959,0.449,1.356c0.167,0.209,0.226,0.459,0.216,0.73
		c-0.023,0.58-0.194,1.132-0.311,1.695c-0.05,0.242-0.257,0.401-0.466,0.529c-0.258,0.151-0.528,0.271-0.827,0.323
		c-0.578,0.104-1.163,0.136-1.666,0.121c-0.256,0-0.43,0-0.6-0.003c-0.702,0-0.689-0.074-0.381,0.625
		c0.378,0.869,1.023,1.578,1.38,2.457c0.12,0.291,0.327,0.329,0.687,0.229c0.484-0.139,0.965-0.264,1.475-0.242
		c0.541,0.02,0.751,0.242,0.771,0.785c0.03,0.775,0.051,1.558,0.115,2.332c0.043,0.498-0.03,0.907-0.498,1.178
		c-0.141,0.08-0.253,0.207-0.373,0.316c-0.977,0.91-2.135,1.568-3.228,2.316c-0.697,0.482-1.431,0.924-2.235,1.185
		c-1.14,0.372-2.341,0.446-3.534,0.397c-0.624-0.025-1.249-0.049-1.872-0.027c-0.459,0.018-0.925,0.023-1.369,0.164
		c-0.15,0.049-0.317,0.107-0.215,0.32c0.375,0.777,0.701,1.584,1.284,2.242c0.349,0.395,0.759,0.635,1.317,0.563
		c1.339-0.172,2.638-0.494,3.901-0.975c0.38-0.143,0.715-0.377,1.089-0.529c0.109-0.045,0.234-0.098,0.227,0.115
		c-0.05,1.201-0.1,2.4-0.146,3.6c-0.007,0.201-0.079,0.385-0.229,0.512c-0.294,0.248-0.325,0.529-0.213,0.879
		c0.44,1.362,0.845,2.734,1.19,4.127c0.213,0.863,0.486,1.718,0.542,2.617c0.031,0.5,0.114,0.99,0.303,1.463
		c0.082,0.207,0.219,0.33,0.417,0.406c0.526,0.197,1.04,0.061,1.46-0.393c0.322-0.355,0.65-0.703,0.982-1.055
		c0.058-0.057,0.122-0.148,0.215-0.104c0.096,0.047,0.054,0.156,0.046,0.236c-0.047,0.535-0.114,1.068-0.146,1.604
		c-0.014,0.256-0.098,0.344-0.361,0.359c-0.833,0.045-1.67,0.035-2.493,0.201c-0.229,0.047-0.446,0.111-0.647,0.229
		c-0.801,0.477-1.463,1.117-2.117,1.771c-0.454,0.453-0.592,0.969-0.395,1.578c0.066,0.209,0.107,0.43,0.171,0.643
		c0.19,0.671,0.417,1.336,0.562,2.023c0.205,0.976,1.122,1.562,2.021,1.529c0.716-0.029,1.439-0.025,2.153-0.13
		c0.78-0.11,1.404-0.427,1.736-1.194c0.105-0.238,0.273-0.443,0.462-0.625c0.871-0.815,1.804-1.563,2.825-2.179
		c0.795-0.478,1.71-0.722,2.521-1.19c0.123-0.068,0.262-0.061,0.396-0.021c0.18,0.051,0.34,0.01,0.493-0.09
		c0.433-0.275,0.73-0.666,0.879-1.145c0.153-0.484,0.335-0.961,0.493-1.441C97.04,168.397,96.899,167.974,96.279,167.751z"/>
</g>
<path fill="#F7CC48" d="M131.188,182.574c-0.119-0.025-0.312,0.067-0.377-0.089c-0.083-0.192-0.045-0.414-0.015-0.625
	c0-0.008,0.005-0.021,0.013-0.024c0.235-0.123,0.487-0.096,0.725-0.024c0.175,0.051,0.268,0.217,0.242,0.412
	C131.749,182.458,131.562,182.569,131.188,182.574z"/>
<path fill="#F7CC48" d="M109.731,181.903c0.068,0.229,0.143,0.455,0.207,0.685c0.021,0.063,0.05,0.146-0.027,0.181
	c-0.125,0.057-0.267,0.047-0.396,0.008c-0.098-0.029-0.084-0.115-0.062-0.191c0.067-0.229,0.139-0.457,0.208-0.684
	C109.687,181.901,109.709,181.901,109.731,181.903z"/>
<path fill="#F7CC48" d="M102.305,182.574c-0.108-0.023-0.29,0.059-0.345-0.101c-0.067-0.197-0.047-0.412-0.006-0.623
	c0.003-0.02,0.021-0.031,0.032-0.045c0.084-0.07,0.645-0.055,0.758,0.027c0.142,0.104,0.229,0.246,0.177,0.424
	c-0.079,0.271-0.294,0.33-0.544,0.313C102.358,182.569,102.34,182.574,102.305,182.574z"/>
<path fill="#F7CC48" d="M117.361,181.767c0.021,0.002,0.12-0.004,0.21,0.021c0.198,0.059,0.313,0.197,0.303,0.402
	c-0.011,0.188-0.119,0.334-0.313,0.362c-0.168,0.025-0.345,0.015-0.517,0.013c-0.116,0-0.17-0.07-0.17-0.188
	c-0.001-0.065-0.004-0.133-0.004-0.199C116.872,181.765,116.872,181.765,117.361,181.767z"/>
<path fill="#F7CC48" d="M89.846,157.469c-0.003,0.032-0.006,0.064-0.015,0.094c-0.006,0.021-0.02,0.039-0.031,0.059
	c-0.009,0.018-0.015,0.037-0.028,0.053c-0.028,0.033-0.064,0.062-0.112,0.084c-0.695,0.324-1.143,0.931-1.652,1.457
	c-0.381,0.394-0.75,0.798-1.16,1.158c-0.096,0.082-0.202,0.217-0.351,0.142c-0.035-0.019-0.056-0.042-0.069-0.068
	c-0.02-0.037-0.021-0.081-0.019-0.126c0.002-0.051,0.008-0.103,0.004-0.149c-0.002-0.127,0.006-0.248,0.026-0.365
	c0.021-0.117,0.052-0.229,0.095-0.338c0-0.001,0-0.001,0-0.001c0.001-0.003,0.003-0.005,0.004-0.008
	c0.038-0.096,0.084-0.188,0.141-0.277c0.06-0.092,0.128-0.181,0.209-0.267c0.426-0.453,0.826-0.934,1.236-1.406
	c0.377-0.428,0.885-0.51,1.414-0.52c0.17-0.004,0.283,0.115,0.305,0.293v0.001c0,0.001,0,0.003,0,0.004c0,0.005,0,0.01,0.001,0.015
	c0.005,0.045,0.008,0.09,0.006,0.134C89.85,157.447,89.847,157.458,89.846,157.469z"/>
</svg>
