<?xml version="1.0" encoding="utf-8"?>
<!-- Generator: Adobe Illustrator 16.0.0, SVG Export Plug-In . SVG Version: 6.00 Build 0)  -->
<!DOCTYPE svg PUBLIC "-//W3C//DTD SVG 1.1//EN" "http://www.w3.org/Graphics/SVG/1.1/DTD/svg11.dtd">
<svg version="1.1" id="图层_1" xmlns="http://www.w3.org/2000/svg" xmlns:xlink="http://www.w3.org/1999/xlink" x="0px" y="0px"
	 width="640px" height="960px" viewBox="0 0 640 960" enable-background="new 0 0 640 960" xml:space="preserve">
<path fill="none" stroke="#FFFFFF" stroke-width="1.5" stroke-miterlimit="10" d="M243.709,960.639l0.002-109.871v-31.295
	l-3.86-2.996l-6.428,5.998h-12.004l-0.146-61.725v-8.895h-20.855v-4.822l-9.858-7.289l-9.864,7.717v4.395h-20.572v74.48v134.061
	 M178.693,959.217h-14.574v-2.141h14.574V959.217z M178.693,953.645h-14.574v-2.148h14.574V953.645z M178.693,948.072h-14.574
	v-2.146h14.574V948.072z M178.693,942.502h-14.574v-2.146h14.574V942.502z M178.693,936.922h-14.574v-2.137h14.574V936.922z
	 M178.693,931.352h-14.574v-2.139h14.574V931.352z M178.693,925.781h-14.574v-2.148h14.574V925.781z M178.693,920.209h-14.574
	v-2.146h14.574V920.209z M178.693,914.639h-14.574v-2.148h14.574V914.639z M178.693,903.709h-14.574v-2.143h14.574V903.709z
	 M178.693,898.133h-14.574v-2.141h14.574V898.133z M178.693,892.563h-14.574v-2.143h14.574V892.563z M178.693,886.988h-14.574
	v-2.141h14.574V886.988z M178.693,881.42h-14.574v-2.143h14.574V881.42z M178.693,875.844h-14.574v-2.143h14.574V875.844z
	 M178.693,870.273h-14.574v-2.146h14.574V870.273z M178.693,864.699h-14.574v-2.143h14.574V864.699z M178.693,859.123h-14.574
	v-2.141h14.574V859.123z M178.693,853.557h-14.574v-2.146h14.574V853.557z M178.693,847.982h-14.574v-2.143h14.574V847.982z
	 M178.693,842.406h-14.574v-2.143h14.574V842.406z M178.693,836.836h-14.574v-2.145h14.574V836.836z M178.693,825.908h-14.574
	v-2.145h14.574V825.908z M178.693,820.334h-14.574v-2.143h14.574V820.334z M178.693,814.764h-14.574v-2.143h14.574V814.764z
	 M178.693,809.188h-14.574v-2.143h14.574V809.188z M178.693,803.617h-14.574v-2.143h14.574V803.617z M178.693,798.047h-14.574
	v-2.145h14.574V798.047z M178.693,792.471h-14.574v-2.143h14.574V792.471z M178.693,786.898h-14.574v-2.143h14.574V786.898z
	 M178.693,781.328h-14.574v-2.143h14.574V781.328z M178.693,775.754h-14.574v-2.146h14.574V775.754z M178.693,770.182h-14.574
	v-2.145h14.574V770.182z M178.693,764.607h-14.574v-2.143h14.574V764.607z M178.693,759.033h-14.574v-2.139h14.574V759.033z
	 M189.407,745.32h2.999v6.855h-2.999V745.32z M182.55,960.885V912.49h1.286v48.389 M183.836,902.85h-1.286v-68.158h1.286V902.85z
	 M183.836,825.051h-1.286v-68.156h1.286V825.051z M194.555,959.852h-6.864v-3h6.864V959.852z M194.555,953.639h-6.864v-3.004h6.864
	V953.639z M194.555,947.424h-6.864v-3h6.864V947.424z M194.555,941.209h-6.864v-2.998h6.864V941.209z M194.555,934.994h-6.864v-3
	h6.864V934.994z M194.555,928.781h-6.864v-3h6.864V928.781z M194.555,922.568h-6.864v-3.002h6.864V922.568z M194.555,916.354h-6.864
	v-3.002h6.864V916.354z M194.555,900.701h-6.864v-3.002h6.864V900.701z M194.555,894.484h-6.864v-3h6.864V894.484z M194.555,888.27
	h-6.864v-2.998h6.864V888.27z M194.555,882.053h-6.864v-3h6.864V882.053z M194.555,875.84h-6.864v-3h6.864V875.84z M194.555,869.627
	h-6.864v-3.002h6.864V869.627z M194.555,863.412h-6.864v-3.002h6.864V863.412z M194.555,857.191h-6.864v-2.998h6.864V857.191z
	 M194.555,850.98h-6.864v-3h6.864V850.98z M194.555,844.768h-6.864v-3.004h6.864V844.768z M194.555,838.551h-6.864v-3h6.864V838.551
	z M194.555,822.902h-6.864v-3h6.864V822.902z M194.555,816.684h-6.864v-3.002h6.864V816.684z M194.555,810.469h-6.864v-2.998h6.864
	V810.469z M194.555,804.258h-6.864v-3.004h6.864V804.258z M194.555,798.041h-6.864v-3h6.864V798.041z M194.555,791.826h-6.864
	v-3.004h6.864V791.826z M194.555,785.609h-6.864v-3h6.864V785.609z M194.555,779.396h-6.864v-3.002h6.864V779.396z M194.555,773.182
	h-6.864v-3h6.864V773.182z M194.555,766.965h-6.864v-3.002h6.864V766.965z M194.555,760.75h-6.864v-3h6.864V760.75z M198.41,960.639
	V912.49h1.285v48.148 M199.695,902.85h-1.285v-68.158h1.285V902.85z M199.695,825.051h-1.285v-68.156h1.285V825.051z
	 M218.126,959.217H203.56v-2.141h14.566V959.217z M218.126,953.645H203.56v-2.148h14.566V953.645z M218.126,948.072H203.56v-2.146
	h14.566V948.072z M218.126,942.502H203.56v-2.146h14.566V942.502z M218.126,936.922H203.56v-2.137h14.566V936.922z M218.126,931.352
	H203.56v-2.139h14.566V931.352z M218.126,925.781H203.56v-2.148h14.566V925.781z M218.126,920.209H203.56v-2.146h14.566V920.209z
	 M218.126,914.639H203.56v-2.148h14.566V914.639z M218.126,903.709H203.56v-2.143h14.566V903.709z M218.126,898.133H203.56v-2.141
	h14.566V898.133z M218.126,892.563H203.56v-2.143h14.566V892.563z M218.126,886.988H203.56v-2.141h14.566V886.988z M218.126,881.42
	H203.56v-2.143h14.566V881.42z M218.126,875.844H203.56v-2.143h14.566V875.844z M218.126,870.273H203.56v-2.146h14.566V870.273z
	 M218.126,864.699H203.56v-2.143h14.566V864.699z M218.126,859.123H203.56v-2.141h14.566V859.123z M218.126,853.557H203.56v-2.146
	h14.566V853.557z M218.126,847.982H203.56v-2.143h14.566V847.982z M218.126,842.406H203.56v-2.143h14.566V842.406z M218.126,836.836
	H203.56v-2.145h14.566V836.836z M218.126,825.908H203.56v-2.145h14.566V825.908z M218.126,820.334H203.56v-2.143h14.566V820.334z
	 M218.126,814.764H203.56v-2.143h14.566V814.764z M218.126,809.188H203.56v-2.143h14.566V809.188z M218.126,803.617H203.56v-2.143
	h14.566V803.617z M218.126,798.047H203.56v-2.145h14.566V798.047z M218.126,792.471H203.56v-2.143h14.566V792.471z M218.126,786.898
	H203.56v-2.143h14.566V786.898z M218.126,781.328H203.56v-2.143h14.566V781.328z M218.126,775.754H203.56v-2.146h14.566V775.754z
	 M218.126,770.182H203.56v-2.145h14.566V770.182z M218.126,764.607H203.56v-2.143h14.566V764.607z M218.126,759.033H203.56v-2.139
	h14.566V759.033z M236.523,951.928h-10.223v-0.391v-12.998c5.711-6.699,10.223,0.391,10.223,0.391V951.928z M236.523,925.781
	h-10.223v-0.393v-12.996c5.711-6.697,10.223,0.391,10.223,0.391V925.781z M236.523,899.633h-10.223v-0.393v-13
	c5.711-6.697,10.223,0.396,10.223,0.396V899.633z M236.523,873.484h-10.223v-0.389v-13.002c5.711-6.695,10.223,0.393,10.223,0.393
	V873.484z M236.523,847.34h-10.223v-0.393v-13.002c5.711-6.695,10.223,0.393,10.223,0.393V847.34z"/>
<g>
	<g>
		<path fill="none" stroke="#FFFFFF" stroke-width="1.7" stroke-miterlimit="10" d="M406.951,370.64v44.097h4.619V370.64
			c0.848-0.059,1.527-0.759,1.527-1.613c0-0.907-0.731-1.643-1.631-1.643h-1.1v-68.399l-1.105,34.149l-1.099-34.149l-0.007,68.399
			h-1.098c-0.9,0-1.632,0.735-1.632,1.643C405.427,369.881,406.103,370.582,406.951,370.64z"/>
		<path fill="none" stroke="#FFFFFF" stroke-width="1.7" stroke-miterlimit="10" d="M448.598,925.832l21.37,34.752h13.304
			l-24.258-38.346c0.471-0.771,0.734-1.617,0.734-2.508c0-2.803-2.57-5.154-6.11-5.996l-21.766-34.404
			c9.36-6.934,15.455-18.023,15.455-30.566c0-14.871-8.546-27.717-20.979-33.979V614.711c10.393-5.941,17.412-17.117,17.412-29.943
			c0-16.168-11.125-29.693-26.13-33.436c-0.551-3.238-2.604-17.045-2.604-17.045h-0.033c2.018-0.664,3.332-1.658,3.332-2.787
			c0-1.205-1.482-2.266-3.734-2.928v-38.238c4.258-2.01,7.226-6.314,7.226-11.332c0-4.293-2.156-8.071-5.44-10.335
			c1.202-0.613,1.949-1.38,1.949-2.226c0-1.568-2.506-2.893-5.985-3.4v-42.07c1.128-0.077,2.03-0.997,2.03-2.144
			c0-1.206-0.977-2.181-2.176-2.181h-5.866c-1.205,0-2.175,0.975-2.175,2.181c0,1.146,0.897,2.067,2.029,2.144v42.066
			c-3.481,0.511-5.982,1.835-5.982,3.404c0,0.843,0.743,1.608,1.943,2.226c-3.28,2.264-5.439,6.042-5.439,10.335
			c0,5.013,2.965,9.316,7.221,11.332v38.244c-2.251,0.656-3.725,1.717-3.725,2.922c0,1.129,1.313,2.123,3.328,2.787h-0.102
			l-2.569,17.051c-14.983,3.76-26.091,17.277-26.091,33.43c0,12.828,7.02,24.004,17.414,29.945v200.068
			c-12.434,6.266-20.979,19.107-20.979,33.982c0,13.572,7.127,25.455,17.817,32.195l-13.367,36.65
			c-2.217,0.83-3.747,2.469-3.747,4.375c0,1.008,0.429,1.943,1.155,2.727l-13.08,35.873l10.739,0.758l10.196-27.811l-6.131,27.053
			h11.525l6.264-29.066l11.262,27.621l-1.488,1.445h2.078h4.832h0.393h2.08h11.387v-12.871l23.489-22.453
			C447.229,925.506,447.891,925.699,448.598,925.832z M439.59,848.502h4.752v4.752h-4.752V848.502z M435.771,582.389h4.755v4.756
			h-4.755V582.389z M417.09,481.381h-4.751v-4.757h4.751V481.381z M399.173,481.381v-4.757h9.502v4.757H399.173z M402.83,848.502
			h9.502v4.752h-9.502V848.502z M423.542,853.254h-4.749v-4.752h4.749V853.254z M429.566,848.502h4.753v4.752h-4.753V848.502z
			 M403.957,725.537c1.603,0.805,3.387,1.297,5.299,1.297c1.92,0,3.703-0.492,5.307-1.299v13.553
			c-1.604-0.803-3.387-1.299-5.307-1.299c-1.912,0-3.696,0.496-5.299,1.295V725.537z M403.957,690.764
			c1.603,0.803,3.387,1.297,5.299,1.297c1.92,0,3.703-0.494,5.307-1.301v13.553c-1.604-0.805-3.387-1.301-5.307-1.301
			c-1.912,0-3.696,0.496-5.299,1.301V690.764z M414.563,669.551c-1.604-0.803-3.387-1.297-5.307-1.297
			c-1.912,0-3.696,0.494-5.299,1.293v-13.551c1.603,0.797,3.387,1.295,5.299,1.295c1.92,0,3.703-0.498,5.307-1.301V669.551z
			 M403.957,760.307c1.603,0.803,3.387,1.299,5.299,1.299c1.92,0,3.703-0.496,5.307-1.299v13.555
			c-1.604-0.803-3.387-1.301-5.307-1.301c-1.912,0-3.696,0.498-5.299,1.295V760.307z M431.903,587.145h-21.469v-4.756h21.469
			V587.145z M401.581,587.145v-4.756h4.754v4.756H401.581z M387.851,582.389h9.501v4.756h-9.501V582.389z M409.256,619.262
			c1.81,0,3.572-0.18,5.307-0.449v15.957c-1.604-0.803-3.387-1.299-5.307-1.299c-1.912,0-3.696,0.496-5.299,1.299v-15.957
			C405.691,619.082,407.451,619.262,409.256,619.262z M403.957,795.076c1.603,0.805,3.387,1.301,5.299,1.301
			c1.92,0,3.703-0.496,5.307-1.301v16.037c-1.74-0.244-3.499-0.416-5.307-0.416c-1.801,0-3.559,0.172-5.299,0.416V795.076z
			 M389.799,848.502h4.754v4.752h-4.754V848.502z M384.43,853.254h-9.505v-4.752h9.505V853.254z M395.221,921.783
			c2.185-0.822,3.691-2.439,3.691-4.328c0-1.514-0.984-2.852-2.498-3.756l5.936-27.535c2.244,0.414,4.547,0.662,6.906,0.662v67.063
			l-0.266,0.258L395.221,921.783z M423.115,884.396l19.915,32.387c-0.655,0.883-1.065,1.873-1.065,2.947
			c0,0.701,0.201,1.361,0.498,1.996l-19.348,18.736V884.396z"/>
	</g>
</g>
</svg>
