<?xml version="1.0" encoding="utf-8"?>
<!-- Generator: Adobe Illustrator 16.0.0, SVG Export Plug-In . SVG Version: 6.00 Build 0)  -->
<!DOCTYPE svg PUBLIC "-//W3C//DTD SVG 1.1//EN" "http://www.w3.org/Graphics/SVG/1.1/DTD/svg11.dtd">
<svg version="1.1" id="图层_1" xmlns="http://www.w3.org/2000/svg" xmlns:xlink="http://www.w3.org/1999/xlink" x="0px" y="0px"
	 width="640px" height="960px" viewBox="0 0 640 960" enable-background="new 0 0 640 960" xml:space="preserve">
<g>
	<g>
		<path fill="#FFFFFF" d="M47,817.505c2.313-1.969,4.125-4.266,5.438-6.891h2.109c-0.367,0.727-0.754,1.422-1.16,2.086h16.324v1.688
			H52.286c-1.219,1.734-2.59,3.258-4.113,4.57C47.844,818.505,47.454,818.021,47,817.505z M47.094,822.45h3.445l1.055-5.859h15.492
			c-0.086,2.094-0.168,4.047-0.246,5.859h3.41v1.688h-3.48c-0.07,1.531-0.137,2.953-0.199,4.266h2.836v1.641h-2.965
			c-0.156,1.141-0.473,1.969-0.949,2.484c-0.609,0.672-1.672,1.008-3.188,1.008c-0.875,0-1.992-0.031-3.352-0.094
			c-0.078-0.531-0.195-1.164-0.352-1.898c1.609,0.141,2.766,0.211,3.469,0.211c0.984,0,1.633-0.188,1.945-0.563
			c0.211-0.219,0.371-0.602,0.48-1.148H49.485v-1.758l0.75-4.148h-3.141V822.45z M64.872,824.138H52.145l-0.738,4.266h13.266
			C64.75,827.013,64.817,825.591,64.872,824.138z M65.094,818.231H53.188l-0.738,4.219h12.504
			C65,821.075,65.047,819.669,65.094,818.231z M56.258,825.497l1.102-1.219c1.188,0.922,2.234,1.773,3.141,2.555l-1.242,1.383
			C58.055,827.091,57.055,826.185,56.258,825.497z M56.446,819.544l1.102-1.219c1.188,0.922,2.234,1.773,3.141,2.555l-1.266,1.406
			C58.454,821.333,57.461,820.419,56.446,819.544z"/>
		<path fill="#FFFFFF" d="M71,831.849c6.813-3.938,10.414-10.844,10.805-20.719h2.063c-0.086,1.672-0.25,3.266-0.492,4.781
			c1.938,7.813,5.578,12.953,10.922,15.422c-0.656,0.719-1.234,1.398-1.734,2.039c-4.641-2.625-7.949-7.27-9.926-13.934
			c-1.711,6.438-5.098,11.168-10.16,14.191C72.055,833.052,71.563,832.458,71,831.849z"/>
		<path fill="#F7CC48" d="M107.136,832.712v-29.185h-7.007l2.128-4.348h9.897v33.532H107.136z"/>
		<path fill="#FFFFFF" d="M140.154,813.825c2.453,2.281,4.773,4.617,6.961,7.008l-1.664,1.383c-0.625-0.734-1.258-1.457-1.898-2.168
			c-7.016,0.297-12.375,0.551-16.078,0.762c-0.859,0.063-1.688,0.188-2.484,0.375l-0.773-2.016c0.719-0.266,1.367-0.633,1.945-1.102
			c2.672-2.188,5.117-4.711,7.336-7.57l1.758,1.078c-2.344,2.75-4.789,5.195-7.336,7.336c4.789-0.148,9.5-0.32,14.133-0.516
			c-1.07-1.164-2.156-2.297-3.258-3.398L140.154,813.825z M143.599,823.13v10.641h-1.922v-1.547h-12.891v1.547h-1.922V823.13
			H143.599z M141.677,824.864h-12.891v5.672h12.891V824.864z"/>
	</g>
</g>
<g>
	<g>
		<path fill="#FFFFFF" d="M47.808,766.438c1.078,0.733,2.445,1.788,4.102,3.163l-1.359,1.5c-1.672-1.516-2.977-2.625-3.914-3.327
			L47.808,766.438z M49.425,773.211c0.656,0.313,1.289,0.57,1.898,0.773c-0.672,2.78-1.367,5.719-2.086,8.813l-2.063-0.608
			C47.956,779.719,48.706,776.727,49.425,773.211z M48.722,760.391c1.281,1.031,2.609,2.156,3.984,3.375l-1.406,1.406
			c-1.25-1.266-2.516-2.445-3.797-3.539L48.722,760.391z M52.167,775.438h7.641c0.172-0.5,0.281-1.039,0.328-1.617h1.711
			c-0.063,0.563-0.164,1.102-0.305,1.617h8.133v1.569h-6.844c1.469,2.109,3.797,3.478,6.984,4.103
			c-0.516,0.578-0.961,1.172-1.336,1.78c-3.578-1.188-6.039-3.147-7.383-5.883h-0.141c-1.297,2.719-3.953,4.742-7.969,6.07
			c-0.328-0.547-0.766-1.103-1.313-1.664c3.609-0.953,6.063-2.422,7.359-4.406h-6.867v-1.569H52.167z M53.597,762.242h4.5
			c0.375-0.688,0.789-1.556,1.242-2.603l1.688,0.609c-0.375,0.703-0.758,1.367-1.148,1.992h8.461v12.469h-1.711v-10.945h-11.32
			v10.945h-1.711L53.597,762.242L53.597,762.242z M55.987,767.773h4.172v-3.587h1.594v3.587h4.195v1.405h-4.195v1.57l0.703-0.914
			c1.297,0.719,2.523,1.477,3.68,2.273l-0.938,1.266c-1.125-0.844-2.273-1.633-3.445-2.367v2.392h-1.594v-3.023
			c-0.938,1.25-2.102,2.398-3.492,3.445c-0.328-0.392-0.703-0.789-1.125-1.195c1.5-0.984,2.766-2.133,3.797-3.445h-3.352V767.773z
			 M56.175,765.219l1.008-0.891c0.688,0.625,1.414,1.352,2.18,2.18l-1.102,0.938C57.542,766.586,56.847,765.844,56.175,765.219z
			 M62.55,766.508c0.797-0.703,1.531-1.453,2.203-2.25l1.125,0.938c-0.766,0.813-1.547,1.569-2.344,2.272L62.55,766.508z"/>
		<path fill="#FFFFFF" d="M70.636,781.016c6.445-2.866,9.922-7.172,10.43-12.914H71.058v-1.827h10.09
			c0.039-2.103,0.059-4.22,0.059-6.353h2.039c0,2.103-0.02,4.219-0.059,6.353h10.395v1.827h-10.43
			c1.109,6.242,4.75,10.359,10.922,12.353c-0.797,0.766-1.391,1.397-1.781,1.897c-5.086-2.047-8.41-5.69-9.973-10.934
			c-1.219,4.742-4.629,8.543-10.23,11.402C71.776,782.398,71.292,781.797,70.636,781.016z"/>
		<path fill="#FFFFFF" d="M94.589,776.961c2.094-2.281,3.859-5.102,5.297-8.461h-5.18v-1.711h5.625v-3.516
			c-1.609,0.155-3.203,0.305-4.781,0.444c-0.109-0.578-0.266-1.172-0.469-1.781c3.75-0.297,7.578-0.694,11.484-1.194l0.469,1.781
			c-1.656,0.202-3.297,0.391-4.922,0.563v3.703h5.32v1.711h-5.32v3.141l1.031-0.983c1.469,1.25,2.93,2.594,4.383,4.031l-1.43,1.452
			c-0.953-1.108-2.281-2.477-3.984-4.102v10.805h-1.781v-11.719c-1.344,3.031-2.945,5.68-4.805,7.945
			C95.104,778.055,94.792,777.352,94.589,776.961z M109.167,762.594h1.781v14.813h-1.781V762.594z M114.722,760.25h1.852v19.523
			c0,1.983-1,2.969-3,2.952c-0.641,0-1.68-0.008-3.117-0.022c-0.094-0.642-0.211-1.344-0.352-2.109
			c1.266,0.142,2.227,0.211,2.883,0.211c1.156,0.017,1.734-0.569,1.734-1.758V760.25L114.722,760.25z"/>
		<path fill="#FFFFFF" d="M118.706,779.563h7.57v-16.431h-6.656v-1.781h21.422v1.781h-6.727v16.431h7.594v1.733h-23.203V779.563z
			 M121.683,765.852c1.328,3.142,2.539,6.228,3.633,9.259l-1.945,0.866c-1.031-3.266-2.156-6.391-3.375-9.375L121.683,765.852z
			 M128.245,779.563h4.102v-16.431h-4.102V779.563z M135.159,775.32c1.25-2.547,2.531-5.688,3.844-9.422l1.898,0.75
			c-1.453,3.78-2.805,6.93-4.055,9.444L135.159,775.32z"/>
		<path fill="#FFFFFF" d="M144.698,761.539c2.594-0.047,5.305-0.367,8.133-0.961l0.609,1.758c-2.313,0.344-4.664,0.603-7.055,0.773
			v3.633h6.141v8.647h-1.641v-1.03h-4.594c-0.258,3.577-1.078,6.414-2.461,8.508c-0.422-0.517-0.852-0.992-1.289-1.431
			c1.438-1.969,2.156-5.202,2.156-9.702v-10.195H144.698z M150.886,772.813v-4.523h-4.5c0,2.328-0.004,3.836-0.012,4.523H150.886z
			 M154.776,761.68c3.719-0.141,7.102-0.483,10.148-1.03l0.633,1.78c-3.906,0.438-6.922,0.72-9.047,0.845v5.227h9.492v1.617h-3.633
			v12.656h-1.758v-12.656h-4.102v1.313c0,4.922-1.367,8.789-4.102,11.603c-0.453-0.531-0.898-1.047-1.336-1.547
			c2.469-2.531,3.703-5.898,3.703-10.103v-9.704H154.776z"/>
		<path fill="#FFFFFF" d="M173.269,782.797h-1.852v-12.129c-1.133,1.32-2.383,2.59-3.75,3.809c-0.328-0.547-0.703-1.116-1.125-1.711
			c3.016-2.522,5.371-5.319,7.066-8.391h-6.41v-1.734h7.289c0.445-0.977,0.828-1.977,1.148-3l1.945,0.445
			c-0.313,0.867-0.656,1.719-1.031,2.555h13.242v1.734h-14.086c-0.484,0.922-1.016,1.82-1.594,2.695h12.844v12.516
			c0,1.938-0.945,2.906-2.836,2.906c-0.828,0.016-2.086,0.022-3.773,0.022c-0.078-0.53-0.195-1.172-0.352-1.922
			c1.438,0.109,2.594,0.164,3.469,0.164c1.078,0,1.617-0.531,1.617-1.594V777.5h-11.813v5.297H173.269z M185.081,768.711h-11.813
			v2.789h11.813V768.711z M173.269,775.906h11.813v-2.813h-11.813V775.906z"/>
		<path fill="#FFFFFF" d="M204.769,767.609v2.344h8.695v1.641h-8.695v2.72h6.445v8.577h-1.781v-1.219h-10.969v1.219h-1.781v-8.577
			h6.305v-2.72h-7.945c-0.031,4.734-1.047,8.453-3.047,11.156c-0.359-0.453-0.828-0.977-1.406-1.57
			c1.75-2.483,2.625-5.819,2.625-10.008v-10.358h18.469v7.5h-1.781v-1.173h-14.859v2.813h7.945v-2.344L204.769,767.609
			L204.769,767.609z M209.901,762.453h-14.859v3.047h14.859V762.453z M209.433,775.906h-10.969v4.172h10.969V775.906z"/>
		<path fill="#FFFFFF" d="M217.026,760.766H235.8v8.556h-1.852v-1.031h-5.262c0.133,1.539,0.332,2.945,0.598,4.219h8.344v1.688
			h-7.922c0.797,2.733,1.984,4.741,3.563,6.022c0.781,0.642,1.391,0.517,1.828-0.375c0.375-0.766,0.656-2.094,0.844-3.983
			c0.719,0.313,1.32,0.539,1.805,0.68c-0.266,1.766-0.586,3.147-0.961,4.147c-0.516,1.328-1.289,1.992-2.32,1.992
			c-0.938,0-1.859-0.397-2.766-1.194c-1.719-1.47-3.016-3.898-3.891-7.289h-8.953v6.116c1.797-0.563,3.711-1.272,5.742-2.133
			c-0.063,0.72-0.07,1.406-0.023,2.063c-2.531,0.858-4.633,1.625-6.305,2.297c-0.188,0.094-0.477,0.242-0.867,0.445l-1.031-1.734
			c0.438-0.313,0.656-0.75,0.656-1.313L217.026,760.766L217.026,760.766z M233.948,762.453h-15.094v4.147h15.094V762.453z
			 M226.812,768.289h-7.957v4.219h8.578C227.175,771.219,226.968,769.813,226.812,768.289z"/>
	</g>
</g>
<g>
	<g>
		<path fill="#FFFFFF" d="M46.553,723.021h23.156v1.781h-3.891v15.867c0,2.109-1.023,3.172-3.07,3.188
			c-1.469,0-2.898-0.008-4.289-0.023c-0.078-0.719-0.203-1.43-0.375-2.133c1.766,0.125,3.109,0.188,4.031,0.188
			c1.156,0,1.734-0.625,1.734-1.875v-15.211H46.553V723.021z M49.155,728.271h10.336v9.258h-8.484v1.664h-1.852V728.271z
			 M57.639,729.936h-6.633v5.93h6.633V729.936z"/>
		<path fill="#FFFFFF" d="M80.913,734.646c0.047,1.016,0.109,1.758,0.188,2.227c-3.75,2.359-6.086,3.844-7.008,4.453
			c-0.516,0.359-1.008,0.75-1.477,1.172l-1.336-1.852c0.734-0.656,1.094-1.445,1.078-2.367V721.99h1.922v16.758
			C75.999,737.717,78.209,736.35,80.913,734.646z M88.178,721.662H90.1v4.219c0,4.32-0.555,7.75-1.664,10.289
			c1.938,2,3.766,3.969,5.484,5.906l-1.617,1.477c-1.602-1.984-3.199-3.871-4.793-5.66c-1.805,2.742-4.52,4.887-8.145,6.434
			c-0.359-0.484-0.781-1.023-1.266-1.617c3.938-1.813,6.586-3.914,7.945-6.305c1.453-2.344,2.164-5.867,2.133-10.57V721.662z
			 M79.952,721.123c1.047,1.656,2.211,3.641,3.492,5.953l-1.828,1.031c-1.219-2.406-2.328-4.438-3.328-6.094L79.952,721.123z"/>
		<path fill="#FFFFFF" d="M97.319,735.162c0.063,0,1.68-0.125,4.852-0.375c-0.078,0.484-0.148,0.992-0.211,1.523
			c-2.609,0.234-4.836,0.453-6.68,0.656l-0.375-1.5c0.938-0.891,2.117-2.531,3.539-4.922c-0.984,0.063-2.164,0.148-3.539,0.258
			l-0.492-1.477c1.344-1.531,2.813-4.219,4.406-8.063l1.852,0.656c-1.531,2.953-2.938,5.375-4.219,7.266
			c0.938-0.016,1.867-0.031,2.789-0.047c0.563-0.969,1.148-2.039,1.758-3.211l1.758,0.75
			C100.569,730.303,98.756,733.131,97.319,735.162z M94.506,740.6c2.906-0.547,5.516-1.086,7.828-1.617
			c-0.016,0.578-0.008,1.133,0.023,1.664c-3.188,0.672-5.602,1.234-7.242,1.688L94.506,740.6z M110.889,721.264l-0.492,0.797
			c1.828,2.984,4.336,5.453,7.523,7.406c-0.453,0.469-0.906,0.977-1.359,1.523c-3.063-2.172-5.445-4.617-7.148-7.336
			c-1.703,2.875-3.914,5.422-6.633,7.641c-0.297-0.344-0.75-0.781-1.359-1.313c3.156-2.406,5.617-5.313,7.383-8.719H110.889z
			 M103.624,734.342h11.859v9.914h-1.781v-1.57h-8.297v1.594h-1.781V734.342z M104.42,729.959h10.266v1.617H104.42V729.959z
			 M113.702,735.959h-8.297v5.109h8.297V735.959z"/>
	</g>
</g>
</svg>
