<?xml version="1.0" encoding="utf-8"?>
<!-- Generator: Adobe Illustrator 16.0.0, SVG Export Plug-In . SVG Version: 6.00 Build 0)  -->
<!DOCTYPE svg PUBLIC "-//W3C//DTD SVG 1.1//EN" "http://www.w3.org/Graphics/SVG/1.1/DTD/svg11.dtd">
<svg version="1.1" id="图层_1" xmlns="http://www.w3.org/2000/svg" xmlns:xlink="http://www.w3.org/1999/xlink" x="0px" y="0px"
	 width="640px" height="960px" viewBox="0 0 640 960" enable-background="new 0 0 640 960" xml:space="preserve">
<g opacity="0.9">
	<path fill="#FFFFFF" d="M275.951,470.113H39.542V156.616h236.409V470.113z M43.233,466.422h229.028V160.306H43.233V466.422z"/>
	<path fill="none" stroke="#FFFFFF" stroke-width="3.0821" d="M41.388,313.122"/>
	<path fill="#FFFFFF" d="M157.747,339.129c-14.206,0-25.764-11.559-25.764-25.766c0-14.205,11.558-25.762,25.764-25.762
		s25.766,11.557,25.766,25.762C183.513,327.57,171.953,339.129,157.747,339.129z M157.747,291.292
		c-12.171,0-22.072,9.902-22.072,22.071c0,12.172,9.901,22.075,22.072,22.075c12.17,0,22.074-9.903,22.074-22.075
		C179.821,301.194,169.917,291.292,157.747,291.292z"/>
	<path fill="#FFFFFF" d="M157.747,212.184c-7.714,0-14.939-3.428-19.824-9.403l2.857-2.336c4.182,5.114,10.365,8.048,16.967,8.048
		s12.787-2.936,16.971-8.052l2.857,2.336C172.688,208.755,165.461,212.184,157.747,212.184z"/>
	<path fill="#FFFFFF" d="M211.469,203.455H103.54v-46.839h107.929V203.455z M107.23,199.765h100.549v-39.459H107.23V199.765z"/>
	<path fill="#FFFFFF" d="M183.351,174.851H132.63v-18.234h50.721V174.851z M136.321,171.16h43.338v-10.854h-43.338V171.16z"/>
	<path fill="#FFFFFF" d="M169.289,160.306H146.69v-11.447h22.599V160.306z M150.382,156.616h15.217v-4.066h-15.217V156.616z"/>
	<circle fill="#FFFFFF" cx="157.747" cy="186.581" r="1.939"/>
	<path fill="#FFFFFF" d="M140.292,426.288l-2.857-2.336c4.888-5.977,12.115-9.405,19.828-9.405c7.714,0,14.938,3.427,19.826,9.401
		l-2.857,2.336c-4.183-5.114-10.367-8.047-16.969-8.047S144.476,421.173,140.292,426.288z"/>
	<path fill="#FFFFFF" d="M211.469,470.113H103.54v-46.839h107.929V470.113z M107.23,466.422h100.549v-39.457H107.23V466.422z"/>
	<path fill="#FFFFFF" d="M182.38,470.113h-50.721v-18.235h50.721V470.113z M135.351,466.422h43.339v-10.854h-43.339V466.422z"/>
	<path fill="#FFFFFF" d="M168.319,477.87h-22.6v-11.448h22.6V477.87z M149.411,474.181h15.217v-4.067h-15.217V474.181z"/>
	<circle fill="#FFFFFF" cx="157.263" cy="440.146" r="1.938"/>
	<circle fill="#FFFFFF" cx="157.747" cy="313.363" r="1.939"/>
	<path fill="#FFFFFF" d="M41.388,168.791V165.1c3.661,0,6.641-2.978,6.641-6.64h3.689C51.718,164.157,47.085,168.791,41.388,168.791
		z"/>
	<path fill="#FFFFFF" d="M273.995,168.791c-5.697,0-10.332-4.636-10.332-10.332h3.691c0,3.663,2.979,6.641,6.641,6.641V168.791z"/>
	<path fill="#FFFFFF" d="M267.354,468.359h-3.691c0-5.695,4.635-10.329,10.332-10.329v3.69
		C270.334,461.721,267.354,464.698,267.354,468.359z"/>
	<path fill="#FFFFFF" d="M51.718,468.361h-3.689c0-3.661-2.979-6.641-6.641-6.641v-3.69
		C47.085,458.03,51.718,462.665,51.718,468.361z"/>
	<rect x="41.388" y="311.276" fill="#FFFFFF" width="232.718" height="3.691"/>
</g>
</svg>
