<?xml version="1.0" encoding="utf-8"?>
<!-- Generator: Adobe Illustrator 16.0.0, SVG Export Plug-In . SVG Version: 6.00 Build 0)  -->
<!DOCTYPE svg PUBLIC "-//W3C//DTD SVG 1.1//EN" "http://www.w3.org/Graphics/SVG/1.1/DTD/svg11.dtd">
<svg version="1.1" id="图层_1" xmlns="http://www.w3.org/2000/svg" xmlns:xlink="http://www.w3.org/1999/xlink" x="0px" y="0px"
	 width="640px" height="960px" viewBox="0 0 640 960" enable-background="new 0 0 640 960" xml:space="preserve">
<g opacity="0.9">
	<path fill="#FFFFFF" d="M165.763,648.642h1.175h-1.085l1.085-0.032c0.016,0.2,0.042,0.521-0.089,0.839v0.733l-1.086,0.063h-7.431
		v38.623h10.744c0.066-0.006,0.171-0.011,0.297,0h1.62l12.159,0.065l1.087-0.065h16.809V683.4c0-3.905,4.054-7.082,9.036-7.082
		c4.983,0,9.036,3.177,9.036,7.082v5.467h29.158v-7.101c0-4.264,4.684-7.732,10.439-7.732c5.757,0,10.439,3.469,10.439,7.732v7.101
		h39.042v-8.473c0-4.88,5.695-8.848,12.696-8.848c6.998,0,12.693,3.968,12.693,8.848v8.473h37.84v-7.101
		c0-4.264,4.684-7.732,10.44-7.732c5.755,0,10.438,3.469,10.438,7.732v7.101h29.157V683.4c0-3.905,4.054-7.082,9.037-7.082
		s9.037,3.177,9.037,7.082v5.467h19.891c0.117-0.009,0.347-0.022,0.596,0.065h0.761l11.028-0.065h6.345l0.009-1.114l0.001-37.509
		h-6.615c-0.257,0.009-0.493,0.019-0.709,0h-7.408v-2.172h6.124v-0.063l1.086-0.058h8.182l-0.044,0.121h1.558l-0.07,41.932
		l-0.324,0.576v0.46h-1.431c-0.349,0.02-0.71,0.011-1.063,0.004l-3.039-0.004l-0.053,0.003l-15.661-0.003h-21.333v-7.64
		c0-2.661-3.144-4.909-6.865-4.909c-3.721,0-6.865,2.248-6.865,4.909v7.64h-33.502v-9.273c0-3.014-3.785-5.561-8.265-5.561
		c-4.481,0-8.268,2.547-8.268,5.561v9.273h-42.186v-10.646c0-3.619-4.817-6.676-10.521-6.676c-5.704,0-10.524,3.057-10.524,6.676
		v10.646h-43.387v-9.273c0-3.014-3.784-5.561-8.267-5.561c-4.48,0-8.267,2.547-8.267,5.561v9.273h-33.503v-7.64
		c0-2.661-3.143-4.909-6.864-4.909c-3.72,0-6.863,2.248-6.863,4.909v7.64l-17.948,0.003l-16.925-0.003h-12.188v-42.968h8.518"/>
	<path fill="#FFFFFF" d="M168.024,649.71c-0.246,0-0.463-0.033-0.629-0.191l-0.17-0.16l-0.012-0.264h0.496l-0.045-0.543h0.543
		l0.011,0.067l0.08-0.004l3.121-0.05c-0.044,0.01-0.087,0.027-0.124,0.05h4.4v1.087h-7.397
		C168.204,649.706,168.111,649.71,168.024,649.71z"/>
	<path fill="#FFFFFF" d="M473.712,649.71c-0.065,0-0.129-0.002-0.189-0.008h-15.859v-1.087l13.428-0.021l0.037-0.1h2.77l0.011,0.12
		h0.431v1.087h-0.35C473.894,649.706,473.802,649.71,473.712,649.71z"/>
	<path fill-rule="evenodd" clip-rule="evenodd" fill="none" d="M167.589,649.224c0.03,0,0.059,0,0.09,0
		c0,0.109,0.42,0.063,0.544,0.063c1.903,0,3.806,0,5.709,0c6.705,0-9.186,0-2.48,0c0-0.021,0-0.041,0-0.063
		c0.155,0,0.092-0.343,0.092-0.453"/>
	<g>
		<defs>
			<path id="SVGID_1_" d="M410.786,628.048H229.645c-43.126,0-45.306-2.06-47.229-3.876l-0.196-0.183l0.39-0.943
				c0.866,0.039,1.724,0.057,2.576,0.057c7.647,0,15.564-1.496,24.918-4.712l0.101-0.033l0.105,0.005l219.946-0.004l0.102,0.042
				c0.109,0.046,11.118,4.56,27.573,4.563l0.385,0.928c-0.039,0.037-0.075,0.072-0.116,0.107l-0.184,0.173
				C456.095,625.988,453.915,628.048,410.786,628.048z M184.211,624.182c2.438,1.35,9.932,2.779,45.434,2.779h181.142
				c36.762,0,43.495-1.533,45.676-2.925c-15.032-0.246-25.284-4.142-26.42-4.592l-219.679,0.007
				c-9.43,3.23-17.434,4.738-25.178,4.738l0,0C184.862,624.189,184.535,624.187,184.211,624.182z M414.643,611.499H225.79
				c-19.288,0-25.949-0.885-28.51-3.785c-0.061-0.08-0.09-0.123-0.118-0.171l-0.509-0.835l1.542,0.011
				c5.321,0,15.008-0.712,20.102-5.48c5.089-4.767,4.877-14.917,4.874-15.019l-0.021-0.786l2.716,0.945h188.701l2.588-0.901
				l0.1,0.645c0.736,4.765,5.6,12.528,6.075,13.277c5.439,4.978,16.331,7.218,19.568,7.229l1.124,0.004l-0.702,0.878
				C440.849,610.604,434.415,611.499,414.643,611.499z M199.054,607.8c3.012,1.961,10.181,2.613,26.736,2.613h188.853
				c16.88,0,24.077-0.693,26.967-2.772c-4.403-0.429-13.93-2.743-19.067-7.491l-0.089-0.104c-0.214-0.333-5.056-7.901-6.155-13.118
				l-1.64,0.538H225.683l-1.426-0.496c-0.047,2.563-0.572,10.711-5.218,15.063C213.941,606.803,204.669,607.719,199.054,607.8z"/>
		</defs>
		<use xlink:href="#SVGID_1_"  overflow="visible" fill="#FFFFFF"/>
		<clipPath id="SVGID_2_">
			<use xlink:href="#SVGID_1_"  overflow="visible"/>
		</clipPath>
		<g clip-path="url(#SVGID_2_)">
			<polygon fill="#FFFFFF" points="164.78,649.199 164.258,649.046 177.817,602.48 191.376,555.915 191.896,556.068 
				178.338,602.634 			"/>
			<polygon fill="#FFFFFF" points="194.412,556.068 194.278,556.544 181.127,602.632 167.836,649.193 167.321,649.046 
				167.455,648.57 180.606,602.482 193.898,555.921 			"/>
			<polygon fill="#FFFFFF" points="196.928,556.068 196.8,556.537 183.917,602.631 170.893,649.187 170.384,649.046 
				170.511,648.577 183.396,602.483 196.42,555.928 			"/>
			<polygon fill="#FFFFFF" points="199.443,556.068 199.322,556.531 186.706,602.629 173.949,649.181 173.446,649.046 
				173.567,648.583 186.185,602.485 198.942,555.934 			"/>
			<polygon fill="#FFFFFF" points="201.959,556.068 201.844,556.524 189.495,602.628 177.005,649.174 176.509,649.046 
				176.624,648.59 188.974,602.486 201.464,555.939 			"/>
			<polygon fill="#FFFFFF" points="204.474,556.068 204.367,556.519 192.284,602.626 180.062,649.168 179.572,649.046 
				179.68,648.596 191.763,602.488 203.986,555.946 			"/>
			<polygon fill="#FFFFFF" points="206.99,556.068 206.889,556.512 195.074,602.625 183.118,649.162 182.635,649.046 
				182.736,648.603 194.552,602.489 206.508,555.952 			"/>
			<polygon fill="#FFFFFF" points="209.505,556.068 209.411,556.506 197.863,602.623 186.174,649.155 185.698,649.046 
				185.792,648.608 197.341,602.491 209.03,555.958 			"/>
			<polygon fill="#FFFFFF" points="212.021,556.068 211.933,556.5 200.652,602.622 189.23,649.149 188.761,649.046 188.849,648.614 
				200.13,602.492 211.553,555.965 			"/>
			<polygon fill="#FFFFFF" points="214.537,556.068 214.455,556.493 203.441,602.62 192.287,649.144 191.823,649.046 
				191.905,648.621 202.919,602.494 214.075,555.971 			"/>
			<polygon fill="#FFFFFF" points="217.052,556.068 216.977,556.487 206.23,602.618 195.343,649.137 194.886,649.046 
				194.961,648.627 205.709,602.496 216.597,555.978 			"/>
			<polygon fill="#FFFFFF" points="219.567,556.068 219.499,556.48 209.02,602.617 198.399,649.131 197.949,649.046 
				198.018,648.634 208.498,602.497 219.119,555.983 			"/>
			<polygon fill="#FFFFFF" points="222.083,556.068 222.021,556.475 211.809,602.615 201.456,649.124 201.012,649.046 
				201.074,648.64 211.287,602.499 221.641,555.989 			"/>
			<polygon fill="#FFFFFF" points="224.599,556.068 224.543,556.468 214.598,602.614 204.512,649.118 204.075,649.046 
				204.13,648.646 214.076,602.5 224.163,555.996 			"/>
			<polygon fill="#FFFFFF" points="227.114,556.068 227.065,556.462 217.387,602.612 207.568,649.112 207.138,649.046 
				207.186,648.652 216.866,602.502 226.685,556.002 			"/>
			<polygon fill="#FFFFFF" points="229.63,556.068 229.587,556.455 220.176,602.611 210.625,649.105 210.2,649.046 210.243,648.659 
				219.655,602.503 229.207,556.008 			"/>
			<polygon fill="#FFFFFF" points="232.146,556.068 232.11,556.449 222.965,602.609 213.681,649.1 213.263,649.046 213.299,648.665 
				222.444,602.505 231.729,556.015 			"/>
			<polygon fill="#FFFFFF" points="234.661,556.068 234.632,556.443 225.754,602.608 216.737,649.094 216.326,649.046 
				216.355,648.671 225.233,602.506 234.251,556.021 			"/>
			<polygon fill="#FFFFFF" points="237.176,556.068 237.154,556.437 228.544,602.606 219.793,649.087 219.389,649.046 
				219.411,648.678 228.022,602.508 236.773,556.026 			"/>
			<polygon fill="#FFFFFF" points="239.692,556.068 239.676,556.431 231.333,602.604 222.85,649.081 222.452,649.046 
				222.467,648.684 230.812,602.51 239.295,556.033 			"/>
			<polygon fill="#FFFFFF" points="242.208,556.068 242.198,556.424 234.122,602.604 225.906,649.074 225.515,649.046 
				225.524,648.69 233.601,602.511 241.817,556.039 			"/>
			<polygon fill="#FFFFFF" points="244.723,556.068 244.72,556.418 236.911,602.602 228.962,649.068 228.577,649.046 
				228.58,648.696 236.39,602.513 244.339,556.045 			"/>
			<polygon fill="#FFFFFF" points="247.239,556.068 247.242,556.411 239.701,602.601 232.019,649.063 231.64,649.046 
				231.636,648.703 239.179,602.514 246.861,556.052 			"/>
			<polygon fill="#FFFFFF" points="249.754,556.068 249.765,556.405 242.49,602.599 235.075,649.056 234.703,649.046 
				234.692,648.709 241.968,602.516 249.383,556.058 			"/>
			<polygon fill="#FFFFFF" points="252.27,556.068 252.287,556.399 245.279,602.598 238.131,649.05 237.766,649.046 
				237.749,648.715 244.757,602.517 251.906,556.064 			"/>
			<polygon fill="#FFFFFF" points="254.785,556.068 254.809,556.393 248.068,602.596 241.188,649.044 240.829,649.046 
				240.805,648.722 247.546,602.519 254.428,556.07 			"/>
			<polygon fill="#FFFFFF" points="257.301,556.068 257.331,556.387 250.857,602.595 244.244,649.037 243.892,649.046 
				243.861,648.728 250.336,602.52 256.95,556.076 			"/>
			<polygon fill="#FFFFFF" points="259.816,556.068 259.853,556.38 253.646,602.593 247.3,649.031 246.954,649.046 246.917,648.734 
				253.125,602.521 259.472,556.083 			"/>
			<polygon fill="#FFFFFF" points="262.332,556.068 262.375,556.374 256.436,602.591 250.356,649.024 250.017,649.046 
				249.974,648.74 255.914,602.523 261.994,556.089 			"/>
			<polygon fill="#FFFFFF" points="264.848,556.068 264.897,556.367 259.225,602.59 253.413,649.019 253.08,649.046 253.03,648.747 
				258.703,602.524 264.516,556.095 			"/>
			<polygon fill="#FFFFFF" points="267.363,556.068 267.419,556.361 262.014,602.588 256.469,649.013 256.143,649.046 
				256.086,648.753 261.493,602.526 267.038,556.102 			"/>
			<polygon fill="#FFFFFF" points="269.878,556.068 269.941,556.354 264.803,602.587 259.525,649.006 259.206,649.046 
				259.143,648.76 264.282,602.527 269.56,556.107 			"/>
			<polygon fill="#FFFFFF" points="272.394,556.068 272.463,556.349 267.592,602.585 262.582,649 262.269,649.046 262.199,648.766 
				267.071,602.529 272.082,556.113 			"/>
			<polygon fill="#FFFFFF" points="274.91,556.068 274.986,556.343 270.381,602.584 265.638,648.994 265.331,649.046 
				265.255,648.771 269.86,602.53 274.604,556.12 			"/>
			<polygon fill="#FFFFFF" points="277.425,556.068 277.508,556.336 273.171,602.582 268.694,648.987 268.394,649.046 
				268.312,648.778 272.649,602.532 277.126,556.126 			"/>
			<polygon fill="#FFFFFF" points="279.941,556.068 280.03,556.33 275.96,602.581 271.75,648.981 271.457,649.046 271.368,648.784 
				275.438,602.533 279.648,556.132 			"/>
			<polygon fill="#FFFFFF" points="282.456,556.068 282.552,556.323 278.749,602.579 274.807,648.975 274.52,649.046 
				274.424,648.791 278.228,602.535 282.17,556.139 			"/>
			<polygon fill="#FFFFFF" points="284.972,556.068 285.074,556.317 281.538,602.577 277.863,648.969 277.583,649.046 
				277.48,648.797 281.017,602.537 284.692,556.145 			"/>
			<polygon fill="#FFFFFF" points="287.487,556.068 287.596,556.311 284.328,602.576 280.919,648.963 280.646,649.046 
				280.537,648.804 283.806,602.538 287.214,556.151 			"/>
			<polygon fill="#FFFFFF" points="290.003,556.068 290.118,556.305 287.117,602.574 283.976,648.956 283.708,649.046 
				283.593,648.81 286.595,602.54 289.736,556.157 			"/>
			<polygon fill="#FFFFFF" points="292.519,556.068 292.641,556.299 289.906,602.573 287.032,648.95 286.771,649.046 
				286.649,648.815 289.384,602.541 292.259,556.163 			"/>
			<polygon fill="#FFFFFF" points="295.034,556.068 295.163,556.292 292.695,602.571 290.088,648.944 289.834,649.046 
				289.705,648.822 292.173,602.543 294.781,556.17 			"/>
			<polygon fill="#FFFFFF" points="297.549,556.068 297.685,556.286 295.484,602.57 293.144,648.938 292.896,649.046 
				292.762,648.828 294.962,602.544 297.303,556.176 			"/>
			<polygon fill="#FFFFFF" points="300.065,556.068 300.207,556.279 298.273,602.568 296.201,648.932 295.959,649.046 
				295.818,648.835 297.752,602.546 299.825,556.182 			"/>
			<polygon fill="#FFFFFF" points="302.581,556.068 302.729,556.273 301.063,602.567 299.257,648.925 299.022,649.046 
				298.874,648.841 300.541,602.547 302.347,556.188 			"/>
			<polygon fill="#FFFFFF" points="305.096,556.068 305.251,556.267 303.852,602.565 302.313,648.919 302.085,649.046 
				301.93,648.848 303.33,602.549 304.869,556.194 			"/>
			<polygon fill="#FFFFFF" points="307.612,556.068 307.773,556.261 306.641,602.563 305.369,648.913 305.148,649.046 
				304.987,648.854 306.119,602.551 307.391,556.2 			"/>
			<polygon fill="#FFFFFF" points="310.127,556.068 310.295,556.255 309.43,602.563 308.426,648.906 308.211,649.046 
				308.043,648.859 308.909,602.552 309.913,556.207 			"/>
			<polygon fill="#FFFFFF" points="312.643,556.068 312.817,556.248 312.219,602.561 311.482,648.9 311.273,649.046 
				311.099,648.866 311.698,602.554 312.435,556.213 			"/>
			<polygon fill="#FFFFFF" points="315.158,556.068 315.339,556.242 315.008,602.56 314.538,648.895 314.336,649.046 
				314.155,648.872 314.487,602.555 314.957,556.219 			"/>
			<polygon fill="#FFFFFF" points="317.674,556.068 317.861,556.235 317.797,602.558 317.594,648.888 317.399,649.046 
				317.211,648.879 317.276,602.557 317.479,556.226 			"/>
			<polygon fill="#FFFFFF" points="320.189,556.068 320.384,556.229 320.587,602.557 320.65,648.882 320.462,649.046 
				320.268,648.885 320.065,602.558 320.001,556.231 			"/>
			<polygon fill="#FFFFFF" points="322.705,556.068 322.906,556.223 323.376,602.555 323.707,648.875 323.525,649.046 
				323.324,648.892 322.854,602.56 322.523,556.238 			"/>
			<polygon fill="#FFFFFF" points="325.221,556.068 325.428,556.217 326.165,602.554 326.764,648.869 326.588,649.046 
				326.381,648.897 325.644,602.561 325.046,556.244 			"/>
			<polygon fill="#FFFFFF" points="327.736,556.068 327.95,556.21 328.954,602.552 329.819,648.863 329.65,649.046 329.437,648.904 
				328.433,602.563 327.567,556.25 			"/>
			<polygon fill="#FFFFFF" points="330.252,556.068 330.472,556.204 331.743,602.551 332.876,648.856 332.714,649.046 
				332.493,648.91 331.222,602.563 330.09,556.257 			"/>
			<polygon fill="#FFFFFF" points="332.768,556.068 332.994,556.198 334.532,602.549 335.933,648.851 335.776,649.046 
				335.549,648.916 334.011,602.565 332.611,556.263 			"/>
			<polygon fill="#FFFFFF" points="335.283,556.068 335.517,556.191 337.322,602.547 338.988,648.845 338.839,649.046 
				338.605,648.923 336.801,602.567 335.134,556.269 			"/>
			<polygon fill="#FFFFFF" points="337.798,556.068 338.038,556.186 340.111,602.546 342.045,648.838 341.902,649.046 
				341.662,648.929 339.59,602.568 337.655,556.275 			"/>
			<polygon fill="#FFFFFF" points="340.313,556.068 340.561,556.179 342.9,602.544 345.101,648.832 344.965,649.046 
				344.718,648.936 342.379,602.57 340.178,556.281 			"/>
			<polygon fill="#FFFFFF" points="342.829,556.068 343.083,556.173 345.689,602.543 348.157,648.825 348.027,649.046 
				347.774,648.941 345.168,602.571 342.7,556.287 			"/>
			<polygon fill="#FFFFFF" points="345.345,556.068 345.604,556.166 348.479,602.541 351.214,648.819 351.091,649.046 
				350.83,648.948 347.957,602.573 345.222,556.294 			"/>
			<polygon fill="#FFFFFF" points="347.86,556.068 348.127,556.16 351.268,602.54 354.27,648.813 354.153,649.046 353.887,648.954 
				350.746,602.574 347.744,556.3 			"/>
			<polygon fill="#FFFFFF" points="350.376,556.068 350.649,556.154 354.057,602.538 357.326,648.807 357.216,649.046 
				356.943,648.96 353.535,602.576 350.266,556.306 			"/>
			<polygon fill="#FFFFFF" points="352.892,556.068 353.171,556.147 356.846,602.537 360.383,648.801 360.279,649.046 
				359.999,648.967 356.324,602.577 352.788,556.313 			"/>
			<polygon fill="#FFFFFF" points="355.407,556.068 355.693,556.142 359.636,602.535 363.438,648.795 363.342,649.046 
				363.056,648.973 359.114,602.579 355.311,556.318 			"/>
			<polygon fill="#FFFFFF" points="357.923,556.068 358.216,556.135 362.425,602.533 366.495,648.788 366.404,649.046 
				366.112,648.979 361.903,602.581 357.832,556.325 			"/>
			<polygon fill="#FFFFFF" points="360.438,556.068 360.737,556.129 365.214,602.532 369.551,648.782 369.468,649.046 
				369.168,648.985 364.692,602.582 360.354,556.331 			"/>
			<polygon fill="#FFFFFF" points="362.954,556.068 363.26,556.122 368.003,602.53 372.607,648.775 372.53,649.046 372.225,648.992 
				367.481,602.584 362.876,556.337 			"/>
			<polygon fill="#FFFFFF" points="365.47,556.068 365.781,556.116 370.792,602.529 375.664,648.77 375.593,649.046 375.28,648.998 
				370.271,602.585 365.398,556.344 			"/>
			<polygon fill="#FFFFFF" points="367.984,556.068 368.304,556.11 373.581,602.527 378.72,648.764 378.656,649.046 
				378.337,649.004 373.06,602.587 367.921,556.35 			"/>
			<polygon fill="#FFFFFF" points="370.5,556.068 370.826,556.104 376.37,602.526 381.776,648.757 381.719,649.046 381.394,649.011 
				375.849,602.588 370.442,556.355 			"/>
			<polygon fill="#FFFFFF" points="373.016,556.068 373.348,556.098 379.159,602.524 384.833,648.751 384.781,649.046 
				384.449,649.017 378.638,602.59 372.965,556.362 			"/>
			<polygon fill="#FFFFFF" points="375.531,556.068 375.87,556.091 381.949,602.523 387.889,648.745 387.845,649.046 
				387.506,649.023 381.428,602.591 375.486,556.368 			"/>
			<polygon fill="#FFFFFF" points="378.047,556.068 378.393,556.085 384.738,602.521 390.945,648.738 390.907,649.046 
				390.562,649.029 384.217,602.593 378.009,556.374 			"/>
			<polygon fill="#FFFFFF" points="380.563,556.068 380.914,556.078 387.527,602.52 394.002,648.732 393.97,649.046 
				393.618,649.036 387.006,602.595 380.531,556.381 			"/>
			<polygon fill="#FFFFFF" points="383.078,556.068 383.437,556.072 390.316,602.519 397.058,648.726 397.033,649.046 
				396.675,649.042 389.795,602.596 383.053,556.387 			"/>
			<polygon fill="#FFFFFF" points="385.594,556.068 385.959,556.065 393.105,602.517 400.114,648.72 400.096,649.046 
				399.73,649.049 392.584,602.598 385.575,556.393 			"/>
			<polygon fill="#FFFFFF" points="388.109,556.068 388.48,556.06 395.895,602.516 403.17,648.714 403.158,649.046 402.787,649.055 
				395.373,602.599 388.097,556.399 			"/>
			<polygon fill="#FFFFFF" points="390.625,556.068 391.003,556.054 398.684,602.514 406.227,648.707 406.222,649.046 
				405.844,649.061 398.162,602.601 390.619,556.405 			"/>
			<polygon fill="#FFFFFF" points="393.141,556.068 393.525,556.047 401.473,602.513 409.283,648.701 409.284,649.046 
				408.899,649.067 400.951,602.602 393.142,556.412 			"/>
			<polygon fill="#FFFFFF" points="395.656,556.068 396.047,556.041 404.263,602.511 412.339,648.695 412.347,649.046 
				411.956,649.073 403.741,602.604 395.663,556.418 			"/>
			<polygon fill="#FFFFFF" points="398.172,556.068 398.569,556.034 407.052,602.51 415.396,648.688 415.41,649.046 415.012,649.08 
				406.53,602.604 398.186,556.424 			"/>
			<polygon fill="#FFFFFF" points="400.687,556.068 401.091,556.028 409.841,602.508 418.452,648.683 418.473,649.046 
				418.068,649.086 409.319,602.606 400.707,556.431 			"/>
			<polygon fill="#FFFFFF" points="403.202,556.068 403.613,556.021 412.63,602.506 421.508,648.676 421.535,649.046 
				421.125,649.093 412.108,602.608 403.229,556.437 			"/>
			<polygon fill="#FFFFFF" points="405.718,556.068 406.136,556.016 415.419,602.505 424.564,648.67 424.599,649.046 
				424.181,649.099 414.897,602.609 405.752,556.442 			"/>
			<polygon fill="#FFFFFF" points="408.233,556.068 408.657,556.01 418.208,602.503 427.621,648.664 427.661,649.046 
				427.237,649.104 417.687,602.611 408.273,556.449 			"/>
			<polygon fill="#FFFFFF" points="410.749,556.068 411.18,556.003 420.997,602.502 430.677,648.657 430.724,649.046 
				430.293,649.111 420.476,602.612 410.796,556.455 			"/>
			<polygon fill="#FFFFFF" points="413.265,556.068 413.702,555.997 423.786,602.5 433.733,648.651 433.787,649.046 433.35,649.117 
				423.265,602.614 413.317,556.461 			"/>
			<polygon fill="#FFFFFF" points="415.78,556.068 416.224,555.99 426.576,602.499 436.789,648.646 436.85,649.046 436.406,649.124 
				426.055,602.615 415.84,556.468 			"/>
			<polygon fill="#FFFFFF" points="418.296,556.068 418.746,555.984 429.365,602.497 439.846,648.639 439.912,649.046 
				439.462,649.13 428.844,602.617 418.361,556.474 			"/>
			<polygon fill="#FFFFFF" points="420.812,556.068 421.269,555.978 432.154,602.496 442.902,648.633 442.976,649.046 
				442.519,649.137 431.633,602.618 420.884,556.479 			"/>
			<polygon fill="#FFFFFF" points="423.327,556.068 423.79,555.972 434.943,602.494 445.958,648.626 446.038,649.046 
				445.574,649.143 434.422,602.62 423.406,556.486 			"/>
			<polygon fill="#FFFFFF" points="425.843,556.068 426.313,555.965 437.732,602.492 449.015,648.62 449.101,649.046 
				448.631,649.149 437.211,602.622 425.928,556.492 			"/>
			<polygon fill="#FFFFFF" points="428.358,556.068 428.835,555.959 440.521,602.491 452.071,648.614 452.164,649.046 
				451.688,649.155 440,602.623 428.45,556.499 			"/>
			<polygon fill="#FFFFFF" points="430.873,556.068 431.356,555.953 443.311,602.489 455.127,648.607 455.227,649.046 
				454.743,649.161 442.789,602.625 430.972,556.505 			"/>
			<polygon fill="#FFFFFF" points="433.389,556.068 433.879,555.946 446.1,602.488 458.184,648.602 458.289,649.046 457.8,649.168 
				445.578,602.626 433.494,556.511 			"/>
			<polygon fill="#FFFFFF" points="435.904,556.068 436.4,555.94 448.89,602.486 461.239,648.596 461.353,649.046 460.856,649.174 
				448.368,602.628 436.017,556.518 			"/>
			<polygon fill="#FFFFFF" points="438.42,556.068 438.923,555.934 451.679,602.485 464.296,648.589 464.415,649.046 
				463.912,649.181 451.157,602.629 438.538,556.523 			"/>
			<polygon fill="#FFFFFF" points="440.936,556.068 441.445,555.928 454.468,602.483 467.353,648.583 467.478,649.046 
				466.969,649.187 453.946,602.631 441.061,556.529 			"/>
			<polygon fill="#FFFFFF" points="443.451,556.068 443.967,555.921 457.257,602.482 470.408,648.576 470.541,649.046 
				470.024,649.193 456.735,602.632 443.582,556.536 			"/>
			<polygon fill="#FFFFFF" points="473.081,649.199 459.524,602.634 445.967,556.068 446.489,555.915 460.046,602.48 
				473.604,649.046 			"/>
		</g>
	</g>
	<path fill="#FFFFFF" d="M444.162,631.271l-0.166-1.073l0.411-0.063c2.767-0.411,8.358-1.246,12.423-6.068
		c-0.13,0-0.258,0.001-0.388,0.001c-15.156,0-26.445-4.609-26.561-4.657l0.416-1.004c0.117,0.051,12,4.886,27.648,4.559l1.098-0.022
		l-0.648,0.886c-4.364,5.97-10.996,6.96-13.827,7.382L444.162,631.271z"/>
	<rect x="442.91" y="629.485" fill="#FFFFFF" width="1.086" height="19.025"/>
	<polygon fill="#FFFFFF" points="328.032,649.298 326.946,649.298 326.946,646.154 454.995,646.154 454.995,649.183 
		453.909,649.183 453.909,647.241 328.032,647.241 	"/>
	<rect x="329.816" y="644.404" fill="#FFFFFF" width="1.086" height="5.261"/>
	<g>
		<rect x="446.384" y="646.282" fill="#FFFFFF" width="1.086" height="3.016"/>
		<rect x="437.748" y="646.282" fill="#FFFFFF" width="1.086" height="3.016"/>
		<rect x="429.112" y="646.282" fill="#FFFFFF" width="1.086" height="3.016"/>
		<rect x="420.476" y="646.282" fill="#FFFFFF" width="1.087" height="3.016"/>
		<rect x="411.84" y="646.282" fill="#FFFFFF" width="1.087" height="3.016"/>
		<rect x="403.204" y="646.282" fill="#FFFFFF" width="1.087" height="3.016"/>
		<rect x="394.568" y="646.282" fill="#FFFFFF" width="1.087" height="3.016"/>
		<rect x="385.932" y="646.282" fill="#FFFFFF" width="1.087" height="3.016"/>
		<rect x="377.296" y="646.282" fill="#FFFFFF" width="1.087" height="3.016"/>
		<rect x="368.66" y="646.282" fill="#FFFFFF" width="1.087" height="3.016"/>
		<rect x="360.024" y="646.282" fill="#FFFFFF" width="1.087" height="3.016"/>
		<rect x="351.388" y="646.282" fill="#FFFFFF" width="1.088" height="3.016"/>
		<rect x="342.752" y="646.282" fill="#FFFFFF" width="1.088" height="3.016"/>
		<rect x="334.116" y="646.282" fill="#FFFFFF" width="1.088" height="3.016"/>
	</g>
	<g>
		<path fill="#FFFFFF" d="M414.628,634.503c-0.741,0-1.533-0.176-2.182-0.615c-0.656-0.442-1.077-1.092-1.234-1.894
			c-0.898-0.064-1.527-0.318-1.918-0.771c-0.359-0.415-0.487-0.973-0.387-1.658l1.076,0.158c-0.08,0.543,0.079,0.729,0.133,0.791
			c0.231,0.268,0.775,0.41,1.577,0.41h0.511l0.03,0.51c0.042,0.691,0.317,1.214,0.819,1.554c0.777,0.525,1.898,0.509,2.61,0.271
			l0.344,1.031C415.608,634.423,415.13,634.503,414.628,634.503z"/>
		<rect x="415.146" y="629.645" fill="#FFFFFF" width="1.088" height="17.005"/>
		<path fill="#FFFFFF" d="M419.504,634.503c-0.501,0-0.98-0.08-1.38-0.213l0.345-1.031c0.712,0.236,1.833,0.255,2.61-0.271
			c0.501-0.34,0.777-0.862,0.819-1.554l0.03-0.51h0.511c0.802,0,1.346-0.143,1.577-0.41c0.053-0.063,0.213-0.248,0.133-0.791
			l1.075-0.158c0.103,0.686-0.026,1.243-0.386,1.658c-0.391,0.452-1.021,0.706-1.919,0.771c-0.157,0.802-0.577,1.451-1.232,1.894
			C421.037,634.327,420.246,634.503,419.504,634.503z"/>
		<rect x="417.899" y="629.645" fill="#FFFFFF" width="1.086" height="17.005"/>
	</g>
	<g>
		<path fill="#FFFFFF" d="M388.344,634.503c-0.741,0-1.532-0.176-2.181-0.615c-0.655-0.441-1.077-1.091-1.234-1.894
			c-0.897-0.064-1.528-0.318-1.919-0.771c-0.357-0.414-0.486-0.973-0.386-1.658l1.074,0.158c-0.081,0.543,0.081,0.729,0.134,0.791
			c0.231,0.269,0.776,0.41,1.575,0.41h0.512l0.031,0.51c0.042,0.691,0.319,1.215,0.821,1.555c0.777,0.524,1.897,0.508,2.606,0.27
			l0.345,1.031C389.324,634.423,388.844,634.503,388.344,634.503z"/>
		<rect x="388.862" y="629.645" fill="#FFFFFF" width="1.086" height="17.005"/>
		<path fill="#FFFFFF" d="M393.222,634.503c-0.503,0-0.98-0.08-1.38-0.213l0.344-1.031c0.713,0.238,1.833,0.256,2.61-0.271
			c0.502-0.339,0.777-0.862,0.818-1.554l0.031-0.51h0.512c0.799,0,1.342-0.142,1.573-0.41c0.054-0.063,0.214-0.248,0.134-0.791
			l1.074-0.158c0.102,0.686-0.027,1.244-0.385,1.658c-0.391,0.452-1.021,0.706-1.918,0.771c-0.156,0.803-0.576,1.451-1.233,1.894
			C394.753,634.327,393.963,634.503,393.222,634.503z"/>
		<rect x="391.615" y="629.645" fill="#FFFFFF" width="1.086" height="17.005"/>
	</g>
	<g>
		<path fill="#FFFFFF" d="M362.06,634.503c-0.741,0-1.531-0.176-2.181-0.615c-0.656-0.442-1.077-1.091-1.233-1.894
			c-0.9-0.064-1.529-0.318-1.92-0.771c-0.356-0.415-0.486-0.973-0.385-1.658l1.074,0.158c-0.08,0.543,0.08,0.729,0.134,0.791
			c0.231,0.268,0.777,0.41,1.576,0.41h0.511l0.031,0.51c0.042,0.691,0.317,1.215,0.82,1.555c0.777,0.524,1.896,0.508,2.607,0.27
			l0.344,1.031C363.041,634.423,362.562,634.503,362.06,634.503z"/>
		<rect x="362.581" y="629.645" fill="#FFFFFF" width="1.086" height="17.005"/>
		<path fill="#FFFFFF" d="M366.938,634.503c-0.503,0-0.98-0.08-1.38-0.213l0.346-1.031c0.713,0.238,1.831,0.256,2.608-0.271
			c0.502-0.339,0.776-0.862,0.819-1.554l0.03-0.51h0.511c0.802,0,1.346-0.143,1.578-0.41c0.053-0.063,0.213-0.248,0.133-0.791
			l1.074-0.158c0.102,0.686-0.027,1.243-0.386,1.658c-0.39,0.452-1.021,0.706-1.918,0.771c-0.157,0.802-0.578,1.451-1.234,1.894
			C368.47,634.327,367.68,634.503,366.938,634.503z"/>
		<rect x="365.332" y="629.645" fill="#FFFFFF" width="1.085" height="17.005"/>
	</g>
	<g>
		<path fill="#FFFFFF" d="M335.775,634.503c-0.741,0-1.531-0.176-2.181-0.615c-0.654-0.442-1.076-1.091-1.233-1.894
			c-0.897-0.064-1.528-0.318-1.919-0.771c-0.357-0.415-0.486-0.973-0.385-1.658l1.075,0.158c-0.081,0.543,0.08,0.729,0.132,0.791
			c0.231,0.268,0.777,0.41,1.578,0.41h0.511l0.029,0.51c0.042,0.691,0.318,1.215,0.821,1.555c0.776,0.524,1.895,0.508,2.607,0.27
			l0.344,1.031C336.757,634.423,336.278,634.503,335.775,634.503z"/>
		<rect x="336.296" y="629.645" fill="#FFFFFF" width="1.087" height="17.005"/>
		<path fill="#FFFFFF" d="M340.653,634.503c-0.502,0-0.98-0.08-1.379-0.213l0.344-1.031c0.713,0.238,1.833,0.256,2.609-0.271
			c0.502-0.339,0.777-0.862,0.82-1.554l0.029-0.51h0.512c0.8,0,1.345-0.143,1.576-0.41c0.053-0.063,0.215-0.248,0.133-0.791
			l1.074-0.158c0.104,0.686-0.026,1.243-0.384,1.658c-0.391,0.452-1.021,0.706-1.919,0.771c-0.158,0.803-0.578,1.451-1.234,1.894
			C342.186,634.327,341.395,634.503,340.653,634.503z"/>
		<rect x="339.048" y="629.645" fill="#FFFFFF" width="1.087" height="17.005"/>
	</g>
	<g>
		<path fill="#FFFFFF" d="M439.827,634.503c-0.741,0-1.532-0.176-2.181-0.615c-0.656-0.441-1.078-1.091-1.234-1.894
			c-0.899-0.064-1.529-0.318-1.919-0.771c-0.357-0.415-0.487-0.973-0.384-1.66l1.073,0.162c-0.081,0.541,0.08,0.727,0.134,0.789
			c0.229,0.268,0.775,0.41,1.575,0.41h0.511l0.03,0.51c0.043,0.691,0.318,1.215,0.821,1.554c0.778,0.526,1.897,0.507,2.609,0.271
			l0.344,1.031C440.809,634.423,440.329,634.503,439.827,634.503z"/>
		<rect x="440.347" y="629.645" fill="#FFFFFF" width="1.086" height="17.005"/>
	</g>
	<rect x="422.104" y="631.52" fill="#FFFFFF" width="14.982" height="1.086"/>
	<rect x="396.518" y="631.52" fill="#FFFFFF" width="14.981" height="1.086"/>
	<rect x="370.166" y="631.52" fill="#FFFFFF" width="15.747" height="1.086"/>
	<rect x="343.574" y="631.52" fill="#FFFFFF" width="15.746" height="1.086"/>
	<rect x="418.554" y="634.386" fill="#FFFFFF" width="22.318" height="1.086"/>
	<rect x="392.212" y="634.386" fill="#FFFFFF" width="23.566" height="1.086"/>
	<rect x="366.148" y="634.386" fill="#FFFFFF" width="23.568" height="1.086"/>
	<rect x="339.729" y="634.386" fill="#FFFFFF" width="23.436" height="1.086"/>
	<path fill="#FFFFFF" d="M425.501,644.689h-4.964v-8.146h4.964V644.689z M421.079,644.146h3.878v-7.06h-3.878V644.146z"/>
	<path fill="#FFFFFF" d="M429.919,644.689h-4.964v-8.146h4.964V644.689z M425.499,644.146h3.877v-7.06h-3.877V644.146z"/>
	<path fill="#FFFFFF" d="M434.339,644.689h-4.963v-8.146h4.963V644.689z M429.919,644.146h3.877v-7.06h-3.877V644.146z"/>
	<path fill="#FFFFFF" d="M438.758,644.689h-4.962v-8.146h4.962V644.689z M434.338,644.146h3.877v-7.06h-3.877V644.146z"/>
	<path fill="#FFFFFF" d="M399.887,644.689h-4.962v-8.146h4.962V644.689z M395.468,644.146h3.876v-7.06h-3.876V644.146z"/>
	<path fill="#FFFFFF" d="M404.306,644.689h-4.963v-8.146h4.963V644.689z M399.886,644.146h3.877v-7.06h-3.877V644.146z"/>
	<path fill="#FFFFFF" d="M408.725,644.689h-4.962v-8.146h4.962V644.689z M404.306,644.146h3.876v-7.06h-3.876V644.146z"/>
	<path fill="#FFFFFF" d="M413.145,644.689h-4.964v-8.146h4.964V644.689z M408.724,644.146h3.877v-7.06h-3.877V644.146z"/>
	<path fill="#FFFFFF" d="M373.111,644.689h-4.963v-8.146h4.963V644.689z M368.691,644.146h3.876v-7.06h-3.876V644.146z"/>
	<path fill="#FFFFFF" d="M377.529,644.689h-4.964v-8.146h4.964V644.689z M373.108,644.146h3.878v-7.06h-3.878V644.146z"/>
	<path fill="#FFFFFF" d="M381.95,644.689h-4.964v-8.146h4.964V644.689z M377.529,644.146h3.878v-7.06h-3.878V644.146z"/>
	<path fill="#FFFFFF" d="M386.369,644.689h-4.965v-8.146h4.965V644.689z M381.948,644.146h3.878v-7.06h-3.878V644.146z"/>
	<path fill="#FFFFFF" d="M347.11,644.689h-4.965v-8.146h4.965V644.689z M342.688,644.146h3.879v-7.06h-3.879V644.146z"/>
	<path fill="#FFFFFF" d="M351.528,644.689h-4.964v-8.146h4.964V644.689z M347.108,644.146h3.877v-7.06h-3.877V644.146z"/>
	<path fill="#FFFFFF" d="M355.95,644.689h-4.965v-8.146h4.965V644.689z M351.528,644.146h3.878v-7.06h-3.878V644.146z"/>
	<path fill="#FFFFFF" d="M360.366,644.689h-4.964v-8.146h4.964V644.689z M355.945,644.146h3.878v-7.06h-3.878V644.146z"/>
	<polygon fill="#FFFFFF" points="430.437,614.284 323.128,614.284 323.128,613.198 429.351,613.198 429.351,610.632 
		430.437,610.632 	"/>
	<rect x="426.272" y="613.757" fill="#FFFFFF" width="1.085" height="4.962"/>
	<rect x="417.166" y="613.757" fill="#FFFFFF" width="1.086" height="4.962"/>
	<rect x="413.264" y="613.757" fill="#FFFFFF" width="1.086" height="4.962"/>
	<rect x="390.936" y="613.757" fill="#FFFFFF" width="1.086" height="4.962"/>
	<rect x="387.034" y="613.757" fill="#FFFFFF" width="1.086" height="4.962"/>
	<rect x="364.704" y="613.757" fill="#FFFFFF" width="1.087" height="4.962"/>
	<rect x="360.801" y="613.757" fill="#FFFFFF" width="1.086" height="4.962"/>
	<rect x="338.474" y="613.757" fill="#FFFFFF" width="1.086" height="4.962"/>
	<rect x="334.57" y="613.757" fill="#FFFFFF" width="1.086" height="4.962"/>
	<rect x="391.447" y="615.137" fill="#FFFFFF" width="22.663" height="1.087"/>
	<rect x="365.312" y="615.137" fill="#FFFFFF" width="22.355" height="1.087"/>
	<rect x="339.178" y="615.137" fill="#FFFFFF" width="22.355" height="1.087"/>
	<rect x="417.989" y="615.137" fill="#FFFFFF" width="8.782" height="1.087"/>
	<rect x="323.443" y="615.137" fill="#FFFFFF" width="11.651" height="1.087"/>
	<path fill="#FFFFFF" d="M414.902,587.466h-94.686v-1.086h94.225c0.351-0.293,0.8-0.451,1.307-0.629
		c0.969-0.338,2.172-0.761,3.231-2.392c0.821-1.266,0.038-2.159-0.336-2.484c-0.775-0.675-2.109-0.969-2.912-0.272l-0.891-0.511
		c0.24-1.272-0.013-1.555-0.042-1.583c-0.115-0.109-0.47-0.021-0.638,0.022c-0.036,0.008-0.07,0.017-0.103,0.024
		c-0.651,0.553-0.79,1.452-0.579,2.086c0.11,0.333,0.417,0.893,1.244,0.893c0.476,0,0.863,0.104,1.154,0.31
		c0.323,0.229,0.501,0.569,0.501,0.958c0,1.13-1.484,2.349-3.886,2.349h-92.276v-1.086h92.276c1.939,0,2.8-0.915,2.8-1.263
		c0-0.102-0.25-0.182-0.569-0.182c-1.088,0-1.938-0.612-2.275-1.638c-0.398-1.205,0.047-2.625,1.06-3.375l0.144-0.107l0.248-0.024
		c0.354-0.088,1.099-0.274,1.644,0.244c0.342,0.322,0.501,0.813,0.487,1.515c1.141-0.328,2.459,0.068,3.326,0.82
		c0.946,0.823,1.584,2.278,0.534,3.896c-1.262,1.942-2.718,2.452-3.782,2.824c-0.462,0.163-0.86,0.302-1.044,0.509L414.902,587.466z
		"/>
	<path fill="#FFFFFF" d="M410.786,628.048h-90.569v-1.085h90.569c42.699,0,44.798-1.985,46.484-3.581l0.208-0.193l0.733,0.801
		l-0.195,0.183C456.095,625.988,453.918,628.048,410.786,628.048z"/>
	<polygon fill="#FFFFFF" points="445.546,630.021 320.217,630.021 320.217,628.935 444.46,628.935 444.46,626.699 445.546,626.699 	
		"/>
	<path fill="#FFFFFF" d="M480.304,691.167h-6.968v-2.173h4.797V650.38H320.217v-2.173h160.087V691.167z M422.817,691.167h-32.01
		v-2.173h32.01V691.167z M372.761,691.167h-40.676v-2.173h40.676V691.167z"/>
	<rect x="196.437" y="629.485" fill="#FFFFFF" width="1.086" height="19.025"/>
	<polygon fill="#FFFFFF" points="313.488,649.298 312.401,649.298 312.401,647.241 186.522,647.241 186.522,649.183 
		185.437,649.183 185.437,646.154 313.488,646.154 	"/>
	<rect x="309.53" y="644.404" fill="#FFFFFF" width="1.086" height="5.261"/>
	<g>
		<rect x="192.962" y="646.109" fill="#FFFFFF" width="1.088" height="3.031"/>
		<rect x="201.598" y="646.109" fill="#FFFFFF" width="1.088" height="3.031"/>
		<rect x="210.234" y="646.109" fill="#FFFFFF" width="1.087" height="3.031"/>
		<rect x="218.87" y="646.109" fill="#FFFFFF" width="1.087" height="3.031"/>
		<rect x="227.505" y="646.109" fill="#FFFFFF" width="1.087" height="3.031"/>
		<rect x="236.142" y="646.109" fill="#FFFFFF" width="1.087" height="3.031"/>
		<rect x="244.777" y="646.109" fill="#FFFFFF" width="1.087" height="3.031"/>
		<rect x="253.413" y="646.109" fill="#FFFFFF" width="1.087" height="3.031"/>
		<rect x="262.049" y="646.109" fill="#FFFFFF" width="1.087" height="3.031"/>
		<rect x="270.685" y="646.109" fill="#FFFFFF" width="1.086" height="3.031"/>
		<rect x="279.321" y="646.109" fill="#FFFFFF" width="1.086" height="3.031"/>
		<rect x="287.957" y="646.109" fill="#FFFFFF" width="1.086" height="3.031"/>
		<rect x="296.593" y="646.109" fill="#FFFFFF" width="1.086" height="3.031"/>
		<rect x="305.229" y="646.109" fill="#FFFFFF" width="1.086" height="3.031"/>
	</g>
	<g>
		<path fill="#FFFFFF" d="M225.805,634.503c-0.501,0-0.98-0.08-1.38-0.213l0.345-1.031c0.712,0.238,1.832,0.256,2.608-0.271
			c0.503-0.34,0.778-0.862,0.82-1.554l0.031-0.51h0.512c0.798,0,1.343-0.142,1.574-0.41c0.054-0.063,0.215-0.248,0.134-0.791
			l1.074-0.158c0.103,0.686-0.028,1.244-0.385,1.658c-0.391,0.452-1.021,0.706-1.917,0.771c-0.158,0.803-0.58,1.451-1.236,1.894
			C227.337,634.327,226.547,634.503,225.805,634.503z"/>
		<rect x="224.2" y="629.645" fill="#FFFFFF" width="1.085" height="17.005"/>
		<path fill="#FFFFFF" d="M220.928,634.503c-0.742,0-1.532-0.176-2.181-0.615c-0.658-0.442-1.079-1.091-1.236-1.894
			c-0.896-0.064-1.527-0.318-1.917-0.771c-0.358-0.414-0.488-0.973-0.386-1.658l1.075,0.158c-0.081,0.543,0.08,0.729,0.134,0.791
			c0.23,0.268,0.775,0.41,1.574,0.41h0.511l0.032,0.51c0.041,0.691,0.316,1.215,0.819,1.554c0.777,0.525,1.897,0.507,2.609,0.271
			l0.345,1.031C221.909,634.423,221.429,634.503,220.928,634.503z"/>
		<rect x="221.446" y="629.645" fill="#FFFFFF" width="1.087" height="17.005"/>
	</g>
	<g>
		<path fill="#FFFFFF" d="M252.089,634.503c-0.502,0-0.981-0.08-1.381-0.213l0.346-1.031c0.711,0.236,1.831,0.255,2.609-0.271
			c0.502-0.339,0.778-0.862,0.82-1.554l0.03-0.51h0.511c0.8,0,1.346-0.143,1.576-0.41c0.053-0.063,0.214-0.248,0.133-0.789
			l1.074-0.162c0.102,0.688-0.027,1.245-0.385,1.66c-0.389,0.452-1.02,0.706-1.919,0.771c-0.156,0.803-0.576,1.451-1.233,1.894
			C253.62,634.327,252.831,634.503,252.089,634.503z"/>
		<rect x="250.482" y="629.645" fill="#FFFFFF" width="1.087" height="17.005"/>
		<path fill="#FFFFFF" d="M247.212,634.503c-0.742,0-1.533-0.176-2.183-0.615c-0.656-0.442-1.076-1.091-1.233-1.894
			c-0.896-0.064-1.527-0.318-1.917-0.771c-0.358-0.414-0.489-0.973-0.386-1.658l1.073,0.158c-0.079,0.543,0.081,0.729,0.135,0.791
			c0.23,0.269,0.775,0.41,1.575,0.41h0.511l0.03,0.51c0.042,0.691,0.318,1.214,0.82,1.554c0.777,0.526,1.899,0.507,2.609,0.271
			l0.345,1.031C248.193,634.423,247.713,634.503,247.212,634.503z"/>
		<rect x="247.73" y="629.645" fill="#FFFFFF" width="1.086" height="17.005"/>
	</g>
	<g>
		<path fill="#FFFFFF" d="M278.372,634.503c-0.501,0-0.98-0.08-1.38-0.213l0.345-1.031c0.712,0.238,1.832,0.256,2.608-0.271
			c0.503-0.339,0.778-0.862,0.819-1.554l0.03-0.51h0.513c0.799,0,1.345-0.143,1.576-0.411c0.053-0.062,0.214-0.248,0.134-0.788
			l1.072-0.162c0.104,0.688-0.025,1.245-0.384,1.66c-0.39,0.452-1.02,0.706-1.919,0.771c-0.158,0.802-0.577,1.451-1.233,1.894
			C279.903,634.327,279.114,634.503,278.372,634.503z"/>
		<rect x="276.767" y="629.645" fill="#FFFFFF" width="1.086" height="17.005"/>
		<path fill="#FFFFFF" d="M273.494,634.503c-0.741,0-1.53-0.176-2.18-0.615c-0.657-0.442-1.078-1.091-1.235-1.894
			c-0.897-0.064-1.527-0.318-1.917-0.771c-0.359-0.415-0.488-0.973-0.387-1.658l1.075,0.158c-0.08,0.543,0.081,0.729,0.133,0.791
			c0.232,0.268,0.775,0.41,1.574,0.41h0.513l0.032,0.51c0.041,0.691,0.316,1.215,0.817,1.554c0.779,0.525,1.899,0.509,2.61,0.271
			l0.346,1.031C274.477,634.423,273.997,634.503,273.494,634.503z"/>
		<rect x="274.014" y="629.645" fill="#FFFFFF" width="1.087" height="17.005"/>
	</g>
	<g>
		<path fill="#FFFFFF" d="M304.655,634.503c-0.502,0-0.98-0.08-1.38-0.213l0.345-1.031c0.711,0.236,1.832,0.255,2.611-0.271
			c0.501-0.34,0.777-0.862,0.818-1.554l0.03-0.51h0.512c0.798,0,1.344-0.143,1.575-0.41c0.053-0.063,0.214-0.248,0.133-0.791
			l1.075-0.158c0.102,0.686-0.029,1.244-0.386,1.658c-0.391,0.452-1.02,0.706-1.918,0.771c-0.156,0.802-0.578,1.451-1.234,1.894
			C306.188,634.327,305.397,634.503,304.655,634.503z"/>
		<rect x="303.05" y="629.645" fill="#FFFFFF" width="1.088" height="17.005"/>
		<path fill="#FFFFFF" d="M299.778,634.503c-0.742,0-1.531-0.176-2.183-0.615c-0.655-0.442-1.076-1.092-1.233-1.894
			c-0.897-0.064-1.527-0.318-1.918-0.771c-0.357-0.414-0.487-0.971-0.386-1.658l1.073,0.158c-0.08,0.543,0.083,0.729,0.136,0.791
			c0.231,0.269,0.775,0.41,1.575,0.41h0.512l0.03,0.51c0.042,0.691,0.317,1.214,0.819,1.554c0.777,0.526,1.898,0.507,2.607,0.271
			l0.347,1.031C300.759,634.423,300.279,634.503,299.778,634.503z"/>
		<rect x="300.298" y="629.645" fill="#FFFFFF" width="1.086" height="17.005"/>
	</g>
	<g>
		<path fill="#FFFFFF" d="M200.605,634.503c-0.501,0-0.98-0.08-1.38-0.213l0.345-1.031c0.712,0.238,1.832,0.256,2.608-0.271
			c0.502-0.339,0.778-0.862,0.82-1.554l0.03-0.51h0.512c0.8,0,1.345-0.143,1.575-0.41c0.054-0.063,0.215-0.248,0.134-0.791
			l1.073-0.158c0.102,0.686-0.027,1.243-0.384,1.658c-0.39,0.452-1.021,0.706-1.919,0.771c-0.158,0.803-0.578,1.451-1.234,1.894
			C202.136,634.327,201.347,634.503,200.605,634.503z"/>
		<rect x="199" y="629.645" fill="#FFFFFF" width="1.086" height="17.005"/>
	</g>
	<rect x="203.345" y="631.52" fill="#FFFFFF" width="14.983" height="1.086"/>
	<rect x="228.935" y="631.52" fill="#FFFFFF" width="14.981" height="1.086"/>
	<rect x="254.521" y="631.52" fill="#FFFFFF" width="15.744" height="1.086"/>
	<rect x="281.112" y="631.52" fill="#FFFFFF" width="15.746" height="1.086"/>
	<rect x="199.562" y="634.386" fill="#FFFFFF" width="22.318" height="1.086"/>
	<rect x="224.653" y="634.386" fill="#FFFFFF" width="23.566" height="1.086"/>
	<rect x="250.716" y="634.386" fill="#FFFFFF" width="23.566" height="1.086"/>
	<rect x="277.086" y="634.386" fill="#FFFFFF" width="23.567" height="1.086"/>
	<rect x="303.388" y="634.386" fill="#FFFFFF" width="33.32" height="1.086"/>
	<path fill="#FFFFFF" d="M219.895,644.689h-4.963v-8.146h4.963V644.689z M215.475,644.146h3.877v-7.06h-3.877V644.146z"/>
	<path fill="#FFFFFF" d="M215.477,644.689h-4.964v-8.146h4.964V644.689z M211.056,644.146h3.877v-7.06h-3.877V644.146z"/>
	<path fill="#FFFFFF" d="M211.056,644.689h-4.963v-8.146h4.963V644.689z M206.636,644.146h3.877v-7.06h-3.877V644.146z"/>
	<path fill="#FFFFFF" d="M206.637,644.689h-4.962v-8.146h4.962V644.689z M202.218,644.146h3.876v-7.06h-3.876V644.146z"/>
	<path fill="#FFFFFF" d="M245.509,644.689h-4.965v-8.146h4.965V644.689z M241.088,644.146h3.878v-7.06h-3.878V644.146z"/>
	<path fill="#FFFFFF" d="M241.089,644.689h-4.963v-8.146h4.963V644.689z M236.669,644.146h3.878v-7.06h-3.878V644.146z"/>
	<path fill="#FFFFFF" d="M236.669,644.689h-4.963v-8.146h4.963V644.689z M232.249,644.146h3.877v-7.06h-3.877V644.146z"/>
	<path fill="#FFFFFF" d="M232.25,644.689h-4.964v-8.146h4.964V644.689z M227.829,644.146h3.878v-7.06h-3.878V644.146z"/>
	<path fill="#FFFFFF" d="M272.284,644.689h-4.962v-8.146h4.962V644.689z M267.865,644.146h3.876v-7.06h-3.876V644.146z"/>
	<path fill="#FFFFFF" d="M267.866,644.689h-4.963v-8.146h4.963V644.689z M263.446,644.146h3.877v-7.06h-3.877V644.146z"/>
	<path fill="#FFFFFF" d="M263.446,644.689h-4.965v-8.146h4.965V644.689z M259.025,644.146h3.878v-7.06h-3.878V644.146z"/>
	<path fill="#FFFFFF" d="M259.027,644.689h-4.964v-8.146h4.964V644.689z M254.606,644.146h3.878v-7.06h-3.878V644.146z"/>
	<path fill="#FFFFFF" d="M298.287,644.689h-4.965v-8.146h4.965V644.689z M293.866,644.146h3.877v-7.06h-3.877V644.146z"/>
	<path fill="#FFFFFF" d="M293.867,644.689h-4.962v-8.146h4.962V644.689z M289.448,644.146h3.877v-7.06h-3.877V644.146z"/>
	<path fill="#FFFFFF" d="M289.448,644.689h-4.965v-8.146h4.965V644.689z M285.026,644.146h3.879v-7.06h-3.879V644.146z"/>
	<path fill="#FFFFFF" d="M285.028,644.689h-4.962v-8.146h4.962V644.689z M280.609,644.146h3.876v-7.06h-3.876V644.146z"/>
	<polygon fill="#FFFFFF" points="317.13,614.284 209.996,614.284 209.996,610.632 211.081,610.632 211.081,613.198 317.13,613.198 	
		"/>
	<rect x="213.075" y="613.757" fill="#FFFFFF" width="1.087" height="4.962"/>
	<rect x="222.179" y="613.757" fill="#FFFFFF" width="1.087" height="4.962"/>
	<rect x="226.081" y="613.757" fill="#FFFFFF" width="1.087" height="4.962"/>
	<rect x="248.41" y="613.757" fill="#FFFFFF" width="1.087" height="4.962"/>
	<rect x="252.313" y="613.757" fill="#FFFFFF" width="1.086" height="4.962"/>
	<rect x="274.643" y="613.757" fill="#FFFFFF" width="1.086" height="4.962"/>
	<rect x="278.544" y="613.757" fill="#FFFFFF" width="1.087" height="4.962"/>
	<rect x="300.874" y="613.757" fill="#FFFFFF" width="1.086" height="4.962"/>
	<rect x="304.775" y="613.757" fill="#FFFFFF" width="1.086" height="4.962"/>
	<rect x="226.321" y="615.137" fill="#FFFFFF" width="22.665" height="1.087"/>
	<rect x="252.764" y="615.137" fill="#FFFFFF" width="22.355" height="1.087"/>
	<rect x="278.897" y="615.137" fill="#FFFFFF" width="22.357" height="1.087"/>
	<rect x="213.663" y="615.137" fill="#FFFFFF" width="8.779" height="1.087"/>
	<rect x="305.335" y="615.137" fill="#FFFFFF" width="11.652" height="1.087"/>
	<path fill="#FFFFFF" d="M320.217,587.466h-94.688l-0.162-0.182c-0.184-0.207-0.582-0.346-1.045-0.509
		c-1.063-0.372-2.52-0.882-3.78-2.824c-1.05-1.618-0.413-3.074,0.535-3.896c0.865-0.752,2.186-1.151,3.324-0.82
		c-0.016-0.702,0.146-1.192,0.486-1.516c0.548-0.516,1.288-0.331,1.646-0.243l0.288,0.026l0.103,0.105
		c1.012,0.75,1.46,2.169,1.061,3.375c-0.337,1.025-1.19,1.638-2.278,1.638c-0.318,0-0.567,0.079-0.567,0.182
		c0,0.348,0.86,1.263,2.8,1.263h92.278v1.086h-92.278c-2.4,0-3.886-1.219-3.886-2.349c0-0.389,0.178-0.729,0.501-0.958
		c0.289-0.206,0.677-0.31,1.152-0.31c0.83,0,1.137-0.56,1.247-0.893c0.209-0.634,0.071-1.533-0.58-2.086
		c-0.032-0.008-0.066-0.017-0.103-0.024c-0.17-0.043-0.524-0.132-0.637-0.022c-0.029,0.028-0.281,0.311-0.043,1.583l-0.89,0.511
		c-0.802-0.694-2.137-0.401-2.911,0.272c-0.375,0.325-1.158,1.219-0.337,2.484c1.059,1.632,2.262,2.054,3.229,2.392
		c0.508,0.178,0.957,0.336,1.308,0.629h94.227V587.466z"/>
	<path fill-rule="evenodd" clip-rule="evenodd" fill="none" stroke="#040000" stroke-miterlimit="2.4142" d="M197.535,607.171"/>
	<polygon fill="#FFFFFF" points="320.217,630.021 194.886,630.021 194.886,626.699 195.972,626.699 195.972,628.935 
		320.217,628.935 	"/>
	<path fill="#FFFFFF" d="M309.544,691.169l-41.856-0.002v-2.173l41.856,0.003V691.169z M249.539,691.167h-31.926v-2.173h31.926
		V691.167z M168.957,691.167h-12.915v-42.96h164.175v2.173H158.215v38.614h10.742V691.167z"/>
	<rect x="307.236" y="631.744" fill="#FFFFFF" width="25.598" height="1.086"/>
	<path fill="#FFFFFF" d="M313.907,644.689h-6.943v-8.146h6.943V644.689z M307.506,644.146h5.858v-7.06h-5.858V644.146z"/>
	<path fill="#FFFFFF" d="M320.307,644.689h-6.942v-8.146h6.942V644.689z M313.907,644.146h5.856v-7.06h-5.856V644.146z"/>
	<path fill="#FFFFFF" d="M326.705,644.689h-6.943v-8.146h6.943V644.689z M320.306,644.146h5.856v-7.06h-5.856V644.146z"/>
	<path fill="#FFFFFF" d="M333.104,644.689h-6.942v-8.146h6.942V644.689z M326.705,644.146h5.857v-7.06h-5.857V644.146z"/>
	<rect x="312.794" y="647.066" fill="#FFFFFF" width="14.484" height="1.086"/>
	<rect x="315.281" y="646.487" fill="#FFFFFF" width="1.086" height="2.891"/>
	<rect x="318.987" y="646.487" fill="#FFFFFF" width="1.086" height="2.891"/>
	<rect x="322.691" y="646.487" fill="#FFFFFF" width="1.087" height="2.891"/>
	<path fill="none" d="M323.587,654.071c0.062-0.012,0.277,0.084,0.203-0.076C323.729,654.006,323.515,653.911,323.587,654.071
		L323.587,654.071z M318.931,653.091c-0.012,0.006-0.038,0.037-0.052,0.051c0.05,0.09,0.151-0.006,0.179-0.046
		C319.058,653.096,318.946,653.078,318.931,653.091L318.931,653.091z"/>
	<path fill="#FFFFFF" d="M273.094,667.034H159.178v-13.308h113.916V667.034z M160.264,665.948h111.744v-11.135H160.264V665.948z"/>
	<path fill="#FFFFFF" d="M476.851,667.034H366.414v-13.308h110.437V667.034z M367.5,665.948h108.265v-11.135H367.5V665.948z"/>
	<g>
		<path fill="none" d="M182.372,623.87l0.308-1.651c1.421,0.225,2.906,0.325,4.421,0.325l0,0c10.005,0.015,21.17-4.475,23.735-5.592
			l0,0c0.366-0.157,0.551-0.244,0.551-0.244h0.002l1.087,2.37c-0.086,0.022-13.112,6.052-25.375,6.074l0,0
			C185.469,625.152,182.372,623.87,182.372,623.87z"/>
	</g>
	<g>
		<path fill="none" d="M459.231,623.87l-0.309-1.651c-1.421,0.225-2.906,0.325-4.421,0.325l0,0
			c-10.007,0.015-21.172-4.475-23.736-5.592l0,0c-0.368-0.157-0.552-0.244-0.552-0.244h-0.002l-1.086,2.37
			c0.086,0.022,13.113,6.052,25.376,6.074l0,0C456.133,625.152,459.231,623.87,459.231,623.87z"/>
	</g>
	<polygon fill="#FFFFFF" points="320.217,619.446 209.741,619.446 209.741,613.607 210.827,613.607 210.827,618.36 320.217,618.36 	
		"/>
	<polygon fill="#FFFFFF" points="430.691,619.446 320.217,619.446 320.217,618.36 429.605,618.36 429.605,613.607 430.691,613.607 	
		"/>
</g>
<line fill="none" stroke="#FFFFFF" stroke-miterlimit="10" x1="142.716" y1="688.557" x2="0" y2="688.557"/>
<line fill="none" stroke="#FFFFFF" stroke-miterlimit="10" x1="640" y1="688.557" x2="491.138" y2="688.557"/>
</svg>
