<?xml version="1.0" encoding="utf-8"?>
<!-- Generator: Adobe Illustrator 16.0.0, SVG Export Plug-In . SVG Version: 6.00 Build 0)  -->
<!DOCTYPE svg PUBLIC "-//W3C//DTD SVG 1.1//EN" "http://www.w3.org/Graphics/SVG/1.1/DTD/svg11.dtd">
<svg version="1.1" id="图层_1" xmlns="http://www.w3.org/2000/svg" xmlns:xlink="http://www.w3.org/1999/xlink" x="0px" y="0px"
	 width="640px" height="960px" viewBox="0 0 640 960" enable-background="new 0 0 640 960" xml:space="preserve">
<g>
	<g>
		<path fill="#F7CC48" d="M127.174,663.094v11.595H67.308l33.381-39.972c4.149-5.004,7.18-9.397,9.093-13.182
			c1.912-3.783,2.868-7.222,2.868-10.314c0-4.434-1.312-7.922-3.936-10.465c-2.625-2.543-6.216-3.813-10.771-3.813
			c-4.068,0-7.425,1.271-10.069,3.813s-4.13,5.889-4.455,10.039H69.443c0-8.016,2.686-14.412,8.056-19.193
			c5.37-4.778,12.591-7.17,21.664-7.17c8.624,0,15.429,2.218,20.413,6.652c4.982,4.434,7.476,10.475,7.476,18.123
			c0,5.453-1.435,10.955-4.303,16.508s-8.94,13.619-18.216,24.197l-11.351,13.182H127.174L127.174,663.094z"/>
		<path fill="#F7CC48" d="M173.187,674.688v-77.015h-18.49l5.614-11.473h26.118v88.485h-13.242V674.688z"/>
		<path fill="#F7CC48" d="M285.534,631.666c0,14.197-2.858,25.314-8.574,33.35c-5.716,8.036-13.578,12.054-23.586,12.054
			c-10.131,0-18.013-4.06-23.647-12.177c-5.636-8.114-8.452-19.518-8.452-34.202c0-14.564,2.848-25.916,8.544-34.054
			c5.695-8.137,13.608-12.205,23.738-12.205c10.253,0,18.145,4.078,23.678,12.236C282.768,604.824,285.534,616.49,285.534,631.666z
			 M253.13,664.559c5.939,0,10.404-2.838,13.395-8.514c2.991-5.676,4.485-14.168,4.485-25.479c0-10.984-1.475-19.354-4.424-25.111
			c-2.95-5.756-7.253-8.635-12.907-8.635c-5.899,0-10.354,2.866-13.364,8.604c-3.012,5.736-4.516,14.199-4.516,25.388
			c0,10.862,1.495,19.202,4.485,25.021C243.274,661.65,247.556,664.559,253.13,664.559z"/>
		<path fill="#F7CC48" d="M324.163,674.688v-77.015h-18.49l5.614-11.473h26.118v88.485h-13.242V674.688z"/>
		<path fill="#F7CC48" d="M377.499,667.914c0-2.236,0.772-4.15,2.319-5.736c1.546-1.586,3.438-2.381,5.675-2.381
			s4.129,0.795,5.676,2.381c1.546,1.586,2.319,3.5,2.319,5.736c0,2.197-0.773,4.059-2.319,5.584
			c-1.547,1.525-3.438,2.289-5.676,2.289s-4.129-0.764-5.675-2.289C378.271,671.973,377.499,670.111,377.499,667.914z"/>
		<path fill="#F7CC48" d="M427.235,627.455c-4.437-1.912-7.689-4.414-9.766-7.508c-2.074-3.09-3.111-6.955-3.111-11.595
			c0-7.159,2.521-12.938,7.566-17.332c5.044-4.393,11.717-6.59,20.018-6.59c8.502,0,15.256,2.228,20.261,6.683
			c5.004,4.455,7.506,10.403,7.506,17.85c0,4.396-1.089,8.168-3.265,11.32c-2.179,3.153-5.382,5.545-9.612,7.172
			c4.964,1.627,8.849,4.506,11.656,8.635c2.807,4.129,4.211,9,4.211,14.615c0,8.219-2.716,14.668-8.147,19.346
			c-5.431,4.678-12.968,7.019-22.608,7.019c-9.48,0-16.945-2.341-22.396-7.019c-5.452-4.678-8.178-11.047-8.178-19.102
			c0-5.859,1.383-10.832,4.149-14.92C418.284,631.939,422.19,629.082,427.235,627.455z M441.942,665.168
			c5.248,0,9.355-1.373,12.326-4.119c2.97-2.746,4.455-6.539,4.455-11.381c0-4.883-1.485-8.705-4.455-11.473
			c-2.971-2.769-7.078-4.15-12.326-4.15c-5.126,0-9.176,1.404-12.146,4.211c-2.97,2.808-4.454,6.611-4.454,11.412
			c0,4.842,1.464,8.635,4.395,11.381C432.666,663.795,436.734,665.168,441.942,665.168z M442.247,596.209
			c-4.231,0-7.566,1.109-10.008,3.326c-2.441,2.219-3.661,5.237-3.661,9.063c0,3.744,1.188,6.672,3.569,8.787
			c2.38,2.117,5.646,3.174,9.795,3.174c4.271,0,7.598-1.047,9.978-3.143s3.57-5.035,3.57-8.818c0-3.864-1.182-6.896-3.54-9.094
			C449.591,597.309,446.356,596.209,442.247,596.209z"/>
		<path fill="#F7CC48" d="M65.328,729.162c4.484-6.203,8.031-13.805,10.642-22.803l3.778,1.104
			c-1.26,3.762-2.626,7.295-4.101,10.596v33.263h-3.593v-26.074c-1.612,2.887-3.333,5.543-5.16,7.969
			C66.465,731.865,65.942,730.514,65.328,729.162z M107.389,733.264c0.768,0.367,2.057,0.828,3.869,1.381
			c-0.276,3.41-0.63,6.373-1.06,8.892c-0.676,3.899-3.394,5.867-8.154,5.896c-4.883,0.187-9.521,0.187-13.912,0
			c-4.085-0.215-6.557-1.52-7.417-3.914c-0.799-2.457,0.169-5.59,2.902-9.397c2.672-3.654,8.938-11.18,18.796-22.572H82.005v-3.641
			h25.199v4.285c-7.433,8.106-13.897,15.633-19.395,22.571c-2.58,3.472-3.717,5.836-3.409,7.097
			c0.123,1.289,1.827,1.979,5.113,2.071c3.747,0.152,7.479,0.14,11.194-0.047c2.181-0.092,3.624-0.397,4.331-0.92
			c0.798-0.522,1.32-1.598,1.566-3.225C106.912,740.051,107.173,737.225,107.389,733.264z"/>
		<path fill="#F7CC48" d="M113.238,722.713h44.501v3.502h-14.557v17.967c0,1.812,0.921,2.718,2.764,2.718h3.962
			c2.211,0,3.47-1.015,3.777-3.039c0.276-1.722,0.507-3.9,0.691-6.543c1.229,0.43,2.564,0.813,4.008,1.151
			c-0.308,2.642-0.63,4.853-0.968,6.633c-0.614,3.38-2.841,5.068-6.68,5.068h-5.62c-3.87,0-5.805-1.889-5.805-5.666v-18.289h-9.397
			v1.475c0,6.511-0.983,11.332-2.948,14.466c-1.966,3.407-5.851,6.588-11.655,9.534c-1.105-1.352-2.012-2.381-2.718-3.086
			c5.313-2.61,8.891-5.358,10.733-8.245c1.812-2.765,2.718-6.927,2.718-12.484v-1.658h-12.807L113.238,722.713L113.238,722.713z
			 M117.661,709.309h35.748v3.5h-35.748V709.309L117.661,709.309z"/>
	</g>
</g>
</svg>
