<?xml version="1.0" encoding="utf-8"?>
<!-- Generator: Adobe Illustrator 16.0.0, SVG Export Plug-In . SVG Version: 6.00 Build 0)  -->
<!DOCTYPE svg PUBLIC "-//W3C//DTD SVG 1.1//EN" "http://www.w3.org/Graphics/SVG/1.1/DTD/svg11.dtd">
<svg version="1.1" id="图层_1" xmlns="http://www.w3.org/2000/svg" xmlns:xlink="http://www.w3.org/1999/xlink" x="0px" y="0px"
	 width="640px" height="960px" viewBox="0 0 640 960" enable-background="new 0 0 640 960" xml:space="preserve">
<g opacity="0.9">
	<path fill="#FFFFFF" d="M126.724,506.211l0.129,0.004l-0.024-5.856l-1.043-0.759l-1.139,0.829l-0.047,5.692l0.303,0.012
		c0.174-0.005,0.352-0.008,0.536-0.008C125.826,506.125,126.263,506.153,126.724,506.211z"/>
	<path fill="#FFFFFF" d="M96.017,546.913c0.844,0.643,0.005,0.004,0.007,0.006c0.73,0.723,3.865,2.459,4.762,2.95h49.886
		c1.464-0.607,5.587-2.591,7.028-6.223c1.766-4.447,1.305-7.554,1.305-7.554s-1.213,1.213-3.978,2.749
		c-2.764,1.535-6.211,2.115-8.429,2.318c-1.384,0.128-2.582,0.129-3.287,0.111v-5.05c1.196-0.451,4.501-3.359,5.906-6.059
		c1.508-2.893,0.72-7.027,0.72-7.027l-0.194-0.005l-0.265,0.225c0,0-3.721,1.839-5.783,2.557c-1.86,0.646-4.742,0.709-5.288,0.717
		v-5.182c0.292-0.164,0.788-0.532,1.354-1.326c0.905-1.268,2.336-2.838,2.578-4.255c0.243-1.417,0.575-4.813,0.575-4.813
		s-3.43,1.956-4.75,2.591s-2.261,0.66-2.818-0.559c-0.56-1.22-1.842-3.087-3.48-4.726c-1.296-1.295-3.4-1.938-5.142-2.149
		l-1.821-0.078c-1.594,0.045-2.893,0.356-4.977,2.051c-2.311,1.88-2.846,3.708-3.303,4.471c-0.456,0.762-0.38,1.244-1.98,1.244
		s-5.894-2.845-5.894-2.845l-0.119-0.081c0,0-0.109,3.055,0.635,4.784c0.743,1.729,0.884,2.092,1.608,3.036
		c0.602,0.786,2.008,2.181,2.465,2.629v5.16c-0.531,0.041-2.932,0.169-5.239-0.612c-2.613-0.884-6.554-2.936-6.554-2.936
		l-0.101,0.102c0,0-0.788,4.135,0.718,7.027c1.408,2.703,4.719,5.615,5.912,6.062v5c-0.808-0.008-2.812-0.075-6.02-0.489
		c-4.293-0.553-9.633-4.521-9.633-4.521s-0.254,4.362,1.482,7.178C94.383,544.359,95.175,546.27,96.017,546.913z M137.186,521.571
		v5.058l-22.627-0.055v-5.007L137.186,521.571z M142.091,536.281v4.977c-0.153-0.008-0.241-0.014-0.241-0.014l-32.555-0.021v-4.942
		H142.091z"/>
	<polygon fill="#FFFFFF" points="150.216,552.966 150.216,550.574 101.027,550.574 101.027,552.824 89.758,552.824 89.758,565.108 
		162.017,565.108 162.017,552.966 	"/>
	<polygon fill="#FFFFFF" points="150.146,550.071 101.027,549.999 150.146,550.071 	"/>
</g>
<path opacity="0.9" fill="#FFFFFF" d="M174.294,299.23l-0.146-1.324l-0.59-0.441l-0.588-0.736l-0.735-6.621l-1.03-1.472l0.589-6.181
	l-0.442-1.029l-2.795-1.324l-3.09-1.324l-1.472,1.324l1.177,1.913v1.03l-1.177,1.03l-2.208,2.942l-5.297-0.589
	c0,0-3.973,2.942-4.414,3.237s-0.883,0.441-2.501,0.589s-4.709,1.03-4.709,1.03l-0.442,2.648l-1.471,1.912l-0.146,0.883
	c0,0-0.883,1.473-1.03,2.502c-0.147,1.03-1.913,1.178-1.913,1.178l-0.146,1.618c0,0-0.148,3.531-0.59,4.268
	c-0.441,0.735-1.323,4.12-1.471,5.297s-1.913,2.06-1.913,2.06l-1.767,2.354l-1.029,1.913c0,0-1.471,1.766-2.061,1.766
	c-0.588,0-2.648,3.237-2.648,3.237l-2.501-0.294l-2.354-1.913l-4.12,2.06l-2.06,3.974l-7.211,6.621l-2.648,2.208
	c0,0-6.475,5.738-10.006,9.123c-3.531,3.384-3.236,5.297-3.236,5.297l-0.884,11.771l-3.973,0.441c0,0-1.618,1.619-3.825,4.414
	c-2.208,2.796-0.59,4.855-0.59,4.855l25.162,19.129l10.447-10.006l2.943-1.618l3.385-2.206l-0.295-0.885l-4.12,2.502l-3.237-2.207
	v-1.912h0.883v-0.736h-7.063v-1.766h-2.207v-2.943h1.766v-1.177h-4.414l0.146-1.472l2.943-1.766l1.324,0.146c0,0,0,0,2.207,2.207
	c2.207,2.208,4.268,0.884,4.268,0.884l1.766,1.177l-0.441,0.883l2.06,1.178l-0.147,3.679h1.031l0.293-1.03l-0.734-2.061
	c0,0,1.766,0,2.501-0.294s1.766-0.44,1.766-0.44s1.472-2.061,3.237-3.533c1.766-1.471,4.562-1.766,4.562-1.766
	c0.294-3.383,5.297-8.534,5.297-8.534l-2.06-7.945l-1.472,0.147l0.589,3.825l-7.945,2.501l-0.442-0.883l0.294-0.735l-0.146-1.03
	l-1.913,0.295v0.883l0.883,0.883c0,0,0,0,0,0.736c0,0.735-1.324,0.588-1.324,0.588l-0.441-1.324l-0.883,0.146
	c0,0,0.147,1.031,0.147,1.473c0,0.44-1.178,0.44-1.178,0.44l-2.207-2.942c0,0,0,0-0.588-2.354c-0.59-2.355,2.647-2.502,2.647-2.502
	l0.442,2.354h1.029l-0.588-5.443h-1.031v1.766l-2.207,0.44c0.148-0.882-1.618-3.237-1.618-3.237l1.618-3.383
	c0,0,8.094-2.061,11.184-2.355s2.061,1.324,2.061,1.324l1.029,4.268l1.178-0.295l-1.03-4.561l0.147-1.767c0,0,2.06-0.44,4.267-0.735
	c2.208-0.294,3.091-2.354,3.532-2.796c0.44-0.441,1.177-1.765,1.177-1.765s0,0,1.324-2.355c1.325-2.354-0.294-2.648-1.03-3.973
	c-0.735-1.324,0.295-3.679,0.295-3.679s2.354-2.796,3.531-4.415c1.177-1.617,1.177-3.678,1.619-5.297
	c0.441-1.618,1.029-3.237,2.059-4.119c1.031-0.883,1.325-1.619,1.325-1.619l-1.325,0.147h-0.588c0,0,1.766-3.09,2.502-3.974
	c0.736-0.883,1.471,0.441,1.471,0.441l-0.441,0.883l0.883,0.147l1.325-2.06l-1.178-0.295l-0.589-1.029c0,0,0.883-1.031,2.061-1.913
	c1.178-0.884,2.501,0.294,2.501,0.294v1.029l0.295,0.59l2.501-2.207l-1.324-0.59c0,0,0.883-1.471,1.619-1.618
	c0.735-0.147,1.471,0.735,1.471,0.735l2.061,3.237c0,0,0.589,0.589,1.324,0.736c0.736,0.147,2.502,0.589,2.502,0.589
	s2.207-1.325,2.795-1.473C174.884,300.996,174.294,299.23,174.294,299.23z M168.851,296.141c0.44-1.766,1.618-0.736,1.618-0.736
	C170.175,296.436,168.851,296.141,168.851,296.141z M170.616,293.197c-1.031,0.883-1.766,0.883-1.766,0.883l-1.031-0.735
	l-0.735-1.324l2.649-1.472C169.733,290.549,171.646,292.314,170.616,293.197z"/>
<rect x="69.333" y="254.938" fill="none" stroke="#FFFFFF" stroke-width="2" stroke-miterlimit="10" stroke-dasharray="1,4" width="505" height="160.695"/>
<rect x="69.333" y="456.912" fill="none" stroke="#FFFFFF" stroke-width="2" stroke-miterlimit="10" stroke-dasharray="1,4" width="505" height="160.695"/>
</svg>
