<?xml version="1.0" encoding="utf-8"?>
<!-- Generator: Adobe Illustrator 16.0.0, SVG Export Plug-In . SVG Version: 6.00 Build 0)  -->
<!DOCTYPE svg PUBLIC "-//W3C//DTD SVG 1.1//EN" "http://www.w3.org/Graphics/SVG/1.1/DTD/svg11.dtd">
<svg version="1.1" id="图层_1" xmlns="http://www.w3.org/2000/svg" xmlns:xlink="http://www.w3.org/1999/xlink" x="0px" y="0px"
	 width="640px" height="960px" viewBox="0 0 640 960" enable-background="new 0 0 640 960" xml:space="preserve">
<path fill="none" stroke="#FFFFFF" stroke-width="2" stroke-miterlimit="10" d="M224.738,591.821
	c0,12.594,8.044,22.805,17.967,22.805c9.924,0,17.968-10.211,17.968-22.805c0-12.595-17.968-35.013-17.968-35.013
	S224.738,579.227,224.738,591.821z"/>
<path fill="none" stroke="#FFFFFF" stroke-width="2" stroke-miterlimit="10" d="M218.701,706.637
	c0,16.825,10.747,30.466,24.004,30.466s24.004-13.641,24.004-30.466c0-16.826-24.004-46.776-24.004-46.776
	S218.701,689.811,218.701,706.637z"/>
<path fill="none" stroke="#FFFFFF" stroke-width="2" stroke-miterlimit="10" d="M238.384,459.815
	c-16.148-29.578-58.895-33.378-58.895-33.378s-18.329-2.024-17.098-23.747l-0.01-12.824v-0.95h1.369c2.624,0,4.75-2.127,4.75-4.749
	c0-2.624-2.126-4.75-4.75-4.75h-15.967c2.229,0,4.037-1.808,4.037-4.037c0-2.23-1.808-4.037-4.037-4.037h-4.391v-30.396
	c0,0,0.179,0.004,0.508,0.014c0.167,1.854,1.707,3.311,3.604,3.311c1.804,0,3.29-1.316,3.576-3.039
	c6.753,0.318,16.323,0.945,21.76,2.09c9.023,1.899,12.823-4.75,12.823-9.5c0-4.749,2.849-20.897-15.199-16.623
	c-7.233,1.713-13.93,1.938-19.361,1.592c-0.194-1.826-1.722-3.254-3.599-3.254c-1.586,0-2.922,1.022-3.419,2.439
	c-4.013-0.686-6.393-1.49-6.393-1.49s-3.943-2.844-12.823,0c-1.32,0.423-2.856,1.035-4.685,1.472
	c-0.502-1.407-1.833-2.421-3.412-2.421c-1.968,0-3.56,1.564-3.625,3.516c-4.637,0.387-10.135,0.238-16.301-0.903
	c-14.422-5.115-13.019,11.541-13.019,16.29c0,4.75,3.8,11.399,12.823,9.5c4.933-1.039,11.567-1.929,16.573-2.522
	c0.358,1.632,1.808,2.854,3.548,2.854c2.008,0,3.636-1.628,3.636-3.637l0,0l0.187,30.709h-4.782c-2.229,0-4.037,1.807-4.037,4.037
	c0,2.229,1.808,4.037,4.037,4.037h-15.705c-2.623,0-4.75,2.126-4.75,4.75c0,2.622,2.127,4.749,4.75,4.749h1.788l-0.299,15.198
	c0,0,4.749,23.273-21.373,24.223H34.63v-20.422H21.806v-23.748H0.433v131.562h20.898v-23.272h13.773v-18.049l45.12-0.949
	c0,0,9.031-0.957,29.219,9.023c11.621,5.745,33.57,10.207,56.026-7.939c3.379-2.73,8.861-4.243,13.619-4.336
	c14.275-0.279,30.944,12.286,36.022,43.623l38.883-7.124C253.994,506.705,254.532,489.395,238.384,459.815z"/>
</svg>
