<?xml version="1.0" encoding="utf-8"?>
<!-- Generator: Adobe Illustrator 16.0.0, SVG Export Plug-In . SVG Version: 6.00 Build 0)  -->
<!DOCTYPE svg PUBLIC "-//W3C//DTD SVG 1.1//EN" "http://www.w3.org/Graphics/SVG/1.1/DTD/svg11.dtd">
<svg version="1.1" id="图层_1" xmlns="http://www.w3.org/2000/svg" xmlns:xlink="http://www.w3.org/1999/xlink" x="0px" y="0px"
	 width="640px" height="130px" viewBox="0 0 640 130" enable-background="new 0 0 640 130" xml:space="preserve">
<rect y="1.792" fill="#F7CC48" width="640" height="130"/>
<g>
	<path fill="#1B3467" d="M19.14,54.214v-2.813h15.781v-3.438h4.219v3.438h15.938v2.813H39.14v3.906h14.063v20.938
		c0.103,3.227-1.563,4.789-5,4.688h-3.438V81.09h2.031c1.665,0.102,2.446-0.574,2.344-2.031V60.777H25.077v23.125h-4.063V58.121
		h13.906v-3.906H19.14z M27.577,69.371v-2.656h3.438c-0.625-1.146-0.991-2.603-1.094-4.375h3.594
		c0.103,1.563,0.469,3.022,1.094,4.375h4.844c0.52-1.146,0.938-2.603,1.25-4.375h3.594c-0.105,1.563-0.522,3.022-1.25,4.375h3.594
		v2.656h-7.5v4.063h8.594v2.656H39.14v7.031h-4.063V76.09H26.64v-2.656h8.438v-4.063H27.577z"/>
	<path fill="#1B3467" d="M59.14,80.465v-2.5c5.625-5.416,8.75-11.875,9.375-19.375h-8.594v-2.969h12.5v2.813
		C71.586,67.913,67.159,75.257,59.14,80.465z M69.921,83.434v-2.813h2.813c1.665,0.102,2.446-0.572,2.344-2.031V48.121h4.219v30.625
		c0.103,3.227-1.512,4.789-4.844,4.688H69.921z M95.077,80.465c-8.543-5.416-12.866-12.76-12.969-22.032v-2.813h4.531
		c2.707,0,5.156-0.469,7.344-1.406v3.125c-1.772,0.835-4.063,1.25-6.875,1.25h-1.25c0.103,7.605,3.176,14.011,9.219,19.219V80.465z"
		/>
	<path fill="#1B3467" d="M99.14,60.777v-2.813h10.469v-9.688h4.375v29.844c0.103,3.125-1.616,4.688-5.156,4.688H99.14v-2.656h7.813
		c1.875,0,2.759-0.833,2.656-2.5V60.777H99.14z M125.39,82.809c-3.438,0-5.21-1.563-5.313-4.688V48.277h4.531v9.688h10.469v2.813
		h-10.469v16.875c-0.105,1.667,0.781,2.5,2.656,2.5h7.813v2.656H125.39z"/>
	<path fill="#1B3467" d="M142.108,81.09V62.027h-3.125v-2.656h6.719v16.407c1.145-0.625,2.188-1.354,3.125-2.188v2.969
		C146.952,78.538,144.711,80.049,142.108,81.09z M143.358,56.402c-0.522-2.5-1.406-5.156-2.656-7.969h3.281
		c1.457,2.71,2.446,5.366,2.969,7.969H143.358z M148.202,84.059v-2.813c1.563-1.563,2.29-4.271,2.188-8.125V49.683h23.438v28.75
		c0.103,3.645-1.563,5.363-5,5.156h-2.344v-2.5h1.25c1.77,0.102,2.603-0.625,2.5-2.188V52.496H154.14v19.219
		C154.452,77.444,152.472,81.559,148.202,84.059z M155.858,59.214v-2.5h4.531v-2.969h3.438v2.969h4.531v2.5h-4.531v3.75h5.156v2.5
		h-13.75v-2.5h5.156v-3.75H155.858z M156.483,79.215V68.277h11.094v6.25c0.103,3.229-1.355,4.792-4.375,4.688H156.483z
		 M159.452,76.715h3.125c1.457,0.104,2.134-0.572,2.031-2.031v-4.063h-5.156V76.715z"/>
	<path fill="#1B3467" d="M181.015,73.434V54.527h13.906v-6.563h4.375v6.563h13.906v13.282c0.103,3.854-1.616,5.729-5.156,5.625
		h-8.75v10.781h-4.375V73.434H181.015z M185.077,70.621h9.844V57.339h-9.844V70.621z M209.14,57.339h-9.844v13.282h7.5
		c1.563,0,2.344-0.885,2.344-2.656V57.339z"/>
	<path fill="#1B3467" d="M219.765,73.121v-3.125c2.813-3.125,4.688-5.521,5.625-7.188c-0.313,0-0.835,0-1.563,0
		c-1.668,0.105-3.281,0.105-4.844,0v-2.813c2.813-3.438,4.79-7.395,5.938-11.875h4.063c-1.563,4.585-3.75,8.542-6.563,11.875
		c1.457,0.105,2.863,0.054,4.219-0.156c-0.105,0,0,0,0.313,0c0.415-0.728,0.988-2.031,1.719-3.906
		c0.103-0.208,0.156-0.364,0.156-0.469h3.906c-2.188,6.147-5.262,10.991-9.219,14.532c3.438-0.208,6.196-0.416,8.281-0.625v2.656
		C228.148,72.757,224.14,73.121,219.765,73.121z M219.296,80.621v-2.813c4.582,0.104,8.853-0.313,12.813-1.25v2.656
		C228.148,80.152,223.878,80.621,219.296,80.621z M233.046,55.933v-2.813h4.531c-0.105-1.563-0.156-3.228-0.156-5h4.063
		c0,1.772,0,3.438,0,5h5.313v-4.219h3.438v4.219h3.75v2.813H241.64c0,1.875,0.103,3.699,0.313,5.469h12.969v2.813h-12.656
		c0.103,1.147,0.313,2.761,0.625,4.844c0.103,0.938,0.207,1.615,0.313,2.031c0.103,0.313,0.207,0.729,0.313,1.25
		c0.207,0.625,0.363,1.146,0.469,1.563c1.978-1.666,3.906-4.01,5.781-7.031h4.219c-2.71,4.584-5.679,7.969-8.906,10.156
		c1.353,2.5,2.863,3.75,4.531,3.75c1.875,0.207,2.759-0.781,2.656-2.969h2.813c0.103,4.063-1.668,6.039-5.313,5.938
		c-3.23,0-5.835-1.668-7.813-5c-1.355,0.729-3.804,1.664-7.344,2.813c-0.938,0.313-1.616,0.57-2.031,0.781v-2.344
		c3.228-1.25,5.938-2.552,8.125-3.906c-0.522-1.25-0.938-2.76-1.25-4.531c-0.522-2.188-0.938-4.635-1.25-7.344h-5.938v-2.813h5.781
		c-0.105-1.77-0.262-3.594-0.469-5.469H233.046z"/>
	<path fill="#1B3467" d="M258.671,65.777v-2.969h36.875v2.969H258.671z"/>
	<path fill="#1B3467" d="M299.296,53.902v-2.656h2.5v-2.813h3.75v2.813h6.563v-2.813h3.75v2.813h2.5v2.656h-2.5v17.969h2.656v2.813
		h-19.531v-2.813h2.813V53.902H299.296z M299.14,84.059v-2.344c2.5-1.043,4.009-2.864,4.531-5.469h3.75
		C306.483,80.203,303.722,82.809,299.14,84.059z M305.546,53.902v4.219h6.563v-4.219H305.546z M305.546,60.777v4.219h6.563v-4.219
		H305.546z M305.546,67.652v4.219h6.563v-4.219H305.546z M317.265,84.059c-3.855-1.355-6.25-3.958-7.188-7.813h3.594
		c0.415,2.5,1.613,4.27,3.594,5.313V84.059z M318.046,84.059v-3.125c1.563-1.666,2.29-5.313,2.188-10.938V49.371h13.438v29.688
		c0.103,2.914-1.406,4.32-4.531,4.219h-2.813v-2.656h1.719c1.457,0.102,2.134-0.469,2.031-1.719v-7.656h-6.094
		C323.983,77.288,322.003,81.559,318.046,84.059z M323.983,51.871v7.031h6.094v-7.031H323.983z M323.983,61.558v7.188h6.094v-7.188
		H323.983z"/>
	<path fill="#1B3467" d="M340.233,56.714v-2.813h7.188v-5.781h4.219v5.781h10.781v-5.781h4.219v5.781h7.344v2.813h-7.344v11.094
		h8.594v2.813h-36.406v-2.813h8.594V56.714H340.233z M339.608,83.902v-2.5c4.79-1.354,7.863-4.114,9.219-8.281h4.531
		C351.483,78.851,346.898,82.441,339.608,83.902z M351.64,56.714v11.094h10.781V56.714H351.64z M374.608,83.902
		c-7.293-1.461-11.875-5.052-13.75-10.781h4.531c1.353,4.271,4.426,7.031,9.219,8.281V83.902z"/>
	<path fill="#1B3467" d="M379.14,54.058v-2.813h8.281v-3.438h4.063v3.438h11.25v-3.438h4.063v3.438h8.281v2.813h-8.281v3.75h-4.063
		v-3.75h-11.25v3.75h-4.063v-3.75H379.14z M379.296,72.496v-2.5c4.165-2.291,6.875-5.884,8.125-10.782h4.219
		c-0.938,2.917-2.031,5.261-3.281,7.032v17.813h-4.063V69.996C382.836,70.934,381.171,71.768,379.296,72.496z M391.171,76.246V73.59
		c2.188-0.521,4.321-1.094,6.406-1.719V59.214h4.219v10.782c3.75-2.083,6.509-5.052,8.281-8.907h4.219
		c-2.71,6.042-6.875,10.157-12.5,12.344v4.375c-0.105,1.771,0.781,2.602,2.656,2.5h4.688c1.77,0.102,2.603-0.677,2.5-2.344v-1.563
		h3.281v2.188c0.103,3.02-1.563,4.531-5,4.531h-7.188c-3.438,0.102-5.156-1.512-5.156-4.844V74.84
		C395.492,75.465,393.358,75.934,391.171,76.246z"/>
	<path fill="#1B3467" d="M429.765,83.277v-2.969h3.125c2.082,0.102,3.071-0.781,2.969-2.656V60.621
		c3.957-1.77,7.551-4.219,10.781-7.344h-26.406v-2.969h33.125v2.969c-4.063,3.647-8.387,6.46-12.969,8.438v15.782
		c0.103,3.957-1.929,5.883-6.094,5.781H429.765z"/>
	<path fill="#1B3467" d="M461.796,73.434V71.09c5.625-1.666,9.844-4.01,12.656-7.032c-4.063,1.147-8.96,2.188-14.688,3.125v-2.5
		c5.728-1.04,10.415-2.239,14.063-3.594c-2.71-1.25-5.469-2.134-8.281-2.656v-1.875c-1.563,0.625-3.335,1.094-5.313,1.406v-2.344
		c5.52-1.458,9.582-3.958,12.188-7.5h4.531c-0.625,0.938-1.304,1.772-2.031,2.5h17.188v2.656c-4.585,4.585-9.637,7.866-15.156,9.844
		h3.125c-0.73,0.938-1.512,1.824-2.344,2.657h15.938v2.656c-7.188,8.75-18.543,13.906-34.063,15.469v-2.5
		c7.188-1.148,12.759-2.656,16.719-4.531c-3.022-1.354-6.094-2.344-9.219-2.969v-1.875
		C465.546,72.444,463.773,72.913,461.796,73.434z M486.483,53.433h-14.531c-1.355,1.042-2.969,1.929-4.844,2.656
		c3.438,0.417,6.613,1.304,9.531,2.656v1.094C479.765,58.382,483.046,56.246,486.483,53.433z M487.89,68.59h-13.438
		c-1.668,1.146-3.594,2.136-5.781,2.969c3.75,0.625,7.082,1.563,10,2.813v1.406C482.108,73.799,485.18,71.402,487.89,68.59z"/>
	<path fill="#1B3467" d="M499.14,68.59v-2.813c4.165-3.646,6.77-8.489,7.813-14.532h4.063
		C509.867,58.956,505.909,64.737,499.14,68.59z M535.077,68.277c-1.563-0.938-2.866-1.875-3.906-2.813
		c-5.73,9.584-16.304,15.782-31.719,18.594v-2.656c13.645-3.229,22.759-8.906,27.344-17.032h3.125
		c-3.438-2.915-5.679-7.29-6.719-13.125h4.063c0.938,5.73,3.54,10.469,7.813,14.219V68.277z M514.921,70.309V48.121h4.375v22.188
		H514.921z"/>
	<path fill="#1B3467" d="M538.671,58.277v-2.188c2.915-1.875,4.478-4.531,4.688-7.969h3.906c-0.313,1.563-0.679,2.866-1.094,3.906
		h6.406v2.656h-7.969C543.253,56.246,541.273,57.444,538.671,58.277z M540.233,61.871v-2.656h11.406v2.656h-3.906v5.625h4.844v2.5
		h-4.844v8.75c1.563-0.521,3.176-1.25,4.844-2.188v2.813c-2.813,1.875-5.73,3.227-8.75,4.063V69.996h-4.688v-2.5h4.688v-5.625
		H540.233z M553.983,55.464v-2.656h4.375c0-1.563,0-3.176,0-4.844h3.906c0,1.667,0.051,3.281,0.156,4.844h4.219v-4.063h3.438v4.063
		h3.75v2.656h-11.406c0,2.188,0.103,4.116,0.313,5.781h12.031v2.813H562.89c0.103,1.667,0.313,3.386,0.625,5.157
		c0.207,1.563,0.469,2.865,0.781,3.906c1.978-1.666,3.801-3.906,5.469-6.719h4.063c-2.71,4.688-5.574,8.021-8.594,10
		c1.145,2.709,2.656,4.164,4.531,4.375c1.665,0.102,2.5-0.885,2.5-2.969h2.5c0.103,3.957-1.563,5.883-5,5.781
		c-3.23,0-5.73-1.824-7.5-5.469c-1.772,1.042-4.844,2.133-9.219,3.281v-2.188c3.75-1.458,6.457-2.708,8.125-3.75
		c-0.522-1.563-0.938-3.385-1.25-5.469c-0.313-1.875-0.625-3.854-0.938-5.938h-5.469v-2.813h5.313
		c-0.21-1.77-0.313-3.696-0.313-5.781H553.983z"/>
	<path fill="#1B3467" d="M585.233,73.59v-1.719c-0.105-2.916,1.301-5.364,4.219-7.344c3.02-2.188,4.426-4.426,4.219-6.719
		c-0.21-3.54-2.031-5.415-5.469-5.625c-3.543,0-5.887,2.241-7.031,6.719h-3.906c1.04-6.353,4.688-9.531,10.938-9.531
		c6.145,0.313,9.426,3.074,9.844,8.281c0.313,3.23-1.563,6.147-5.625,8.75c-2.188,1.563-3.23,3.49-3.125,5.781v1.406H585.233z
		 M584.921,82.184v-4.531h4.688v4.531H584.921z"/>
</g>
</svg>
