<?xml version="1.0" encoding="utf-8"?>
<!-- Generator: Adobe Illustrator 16.0.0, SVG Export Plug-In . SVG Version: 6.00 Build 0)  -->
<!DOCTYPE svg PUBLIC "-//W3C//DTD SVG 1.1//EN" "http://www.w3.org/Graphics/SVG/1.1/DTD/svg11.dtd">
<svg version="1.1" id="图层_1" xmlns="http://www.w3.org/2000/svg" xmlns:xlink="http://www.w3.org/1999/xlink" x="0px" y="0px"
	 width="640px" height="960px" viewBox="0 0 640 960" enable-background="new 0 0 640 960" xml:space="preserve">
<path fill="#FFFFFF" stroke="#FFFFFF" stroke-miterlimit="10" d="M373.454,377.567c0.048-3.346-0.203-6.467,3.31-6.467
	c5.974,0,11.063-4.788,5.52-8.385c-2.731-1.773-5.861-2.759-8.374-3.973c-2.179-1.052-5.547-2.524-7.707-3.526
	c-2.006-0.931-3.581-1.94-5.959-2.98c-2.655-1.162-2.207-2.8-2.207-5.462c0-2.991,5.738-3.068,8.163-3.915
	c2.123-0.742,6.378-1.971,6.617-5.075c-0.407-3.313-3.098-3.742-5.297-4.855c-2.759-1.397-7.085-2.699-11.267-3.532
	c-2.028-0.718-5.02-3.314-7.167-3.314c-0.368,0-2.988-1.073-3.195-1.325c-1.077-1.311-0.979-2.172-0.938-4.343
	c0.063-3.455,1.813-3.083,4.246-4.041c17.081-6.725-6.577-14.647-11.241-16.991c-2.555-1.284-7.34-3.343-9.476-6.175
	c-2.998-2.56-4.487-4.341-5.295-6.838c-0.494-1.533,0.006-4.556-2.214-5.075c0.414-1.268,2.551-7.864,0.888-9.484
	c-2.024-3.29-6.84-1.128-6.84,2.978c0,0.835,0.268,4.213,0.595,4.953c0.646,1.465-0.444,3.136-1.031,4.865
	c-2.541,7.487-9.866,13.07-16.973,15.441c-4.734,2.282-15.443,4.781-15.443,12.026c0,2.743,6.197,4.171,7.501,4.964
	c2.786,1.693,2.647,0.126,2.647,3.971c0,2.851,0.138,3.709-2.647,4.412c-0.874,0.628-2.624,1.352-3.53,1.768
	c-4.572,1.117-8.79,3.099-13.825,4.782c-7.191,2.404-7.928,5.939-7.912,5.927c-1.676,8.756,18.588,2.611,14.677,12.013
	c-0.368,2.606-6.471,4.656-8.381,5.52c-3.033,1.371-16.659,5.838-17.868,8.828c-1.746,4.316,4.566,5.72,7.061,6.399
	c4.28,1.542,3.971,0.899,3.971,5.404c0,0.277,0.323,1.505-0.225,1.505c-1.229,0-2.457,0-3.686,0c-15.938,0-31.877,0-47.815,0
	c-52.554,0-105.107,0-157.661,0c-16.541,0-33.082,0-49.622,0c-6.509,0-4.855,1.038-4.855,7.468c0,88.396,0,176.795,0,265.19
	c0,47.126,0,94.252,0,141.378c0,12.651,0,152.187,0,164.837c0,3.938-1.595,6.56,2.524,6.56c70.088,0,140.175,0,210.263,0
	c105.653,0,211.305,0,316.958,0c31.966,0,63.932,0,95.896,0c4.784,0,9.567,0,14.353,0c0.013,0,0.006-144.053,0.006-144.965
	c0-94.625,0-189.249,0-283.874c0-43.056,0-86.108,0-129.162c0-8.819,0-17.639,0-26.458c0-2.249-16.914-0.973-19.126-0.973
	C538.401,377.568,455.924,377.678,373.454,377.567z"/>
</svg>
