<?xml version="1.0" encoding="utf-8"?>
<!-- Generator: Adobe Illustrator 16.0.0, SVG Export Plug-In . SVG Version: 6.00 Build 0)  -->
<!DOCTYPE svg PUBLIC "-//W3C//DTD SVG 1.1//EN" "http://www.w3.org/Graphics/SVG/1.1/DTD/svg11.dtd">
<svg version="1.1" id="图层_1" xmlns="http://www.w3.org/2000/svg" xmlns:xlink="http://www.w3.org/1999/xlink" x="0px" y="0px"
	 width="640px" height="960px" viewBox="0 0 640 960" enable-background="new 0 0 640 960" xml:space="preserve">
<g>
	<g>
		<path fill="#FFFFFF" d="M72.348,366.57l1.102-0.938c0.625,0.563,1.305,1.234,2.039,2.016l-0.797,0.656h4.102v1.406h-4.242v1.922
			h3.891v1.359h-3.891v1.922h3.961v1.359h-3.961v1.922h4.219v1.406H69.23v1.313h-1.594v-9.574c-0.547,0.727-1.109,1.418-1.688,2.074
			c-0.344-0.453-0.703-0.891-1.078-1.313c1.719-1.75,3.117-3.781,4.195-6.094l1.5,0.656c-0.297,0.563-0.605,1.109-0.926,1.641h4.336
			C73.43,367.664,72.887,367.086,72.348,366.57z M78.277,377.234c1.031-0.719,1.973-1.527,2.824-2.426
			c-0.68-2.445-1.102-5.512-1.266-9.199H65.293v-1.547h6.352v-2.18h-4.969v-1.5h4.969v-2.227h1.641v2.227h4.594v1.5h-4.594v2.18
			h6.48c-0.047-1.344-0.098-3.32-0.152-5.93h1.734c0,2.211,0.035,4.188,0.105,5.93h6.574v1.547h-6.504
			c0.133,2.938,0.453,5.461,0.961,7.57c1.227-1.625,2.223-3.484,2.988-5.578l1.641,0.703c-1.047,2.578-2.402,4.863-4.066,6.855
			c0.359,1.039,0.777,1.941,1.254,2.707c0.406,0.672,0.805,1.008,1.195,1.008c0.328,0,0.563-0.297,0.703-0.891
			c0.188-0.781,0.367-1.875,0.539-3.281c0.609,0.281,1.164,0.492,1.664,0.633c-0.234,1.531-0.484,2.766-0.75,3.703
			c-0.375,1.266-1.047,1.898-2.016,1.898c-1.125,0-2.102-0.75-2.93-2.25c-0.367-0.602-0.703-1.289-1.008-2.063
			c-0.711,0.719-1.469,1.391-2.273,2.016C79.098,378.172,78.715,377.703,78.277,377.234z M69.23,371.633h3.727v-1.922H69.23V371.633
			z M69.23,374.914h3.727v-1.922H69.23V374.914z M69.23,378.195h3.727v-1.922H69.23V378.195z M82.473,360.172l1.031-1.219
			c1.375,0.953,2.594,1.852,3.656,2.695l-1.195,1.453C84.84,362.07,83.676,361.094,82.473,360.172z"/>
		<path fill="#FFFFFF" d="M89.199,377.961h10.523v-4.008h-8.977v-1.688h8.977v-3.188h1.969v3.188h8.836v1.688h-8.836v4.008h10.453
			v1.688H89.199V377.961z M104.668,362.398c2.406,2.031,4.594,4.016,6.563,5.953l-1.523,1.359c-0.508-0.539-1.047-1.098-1.617-1.676
			c-5.469,0.141-10.305,0.371-14.508,0.691c-0.453,0.047-1.078,0.172-1.875,0.375l-0.961-2.016c0.859-0.281,1.586-0.656,2.18-1.125
			c1.578-1.305,3.199-2.961,4.863-4.969h-8.027v-1.688h21.867v1.688h-11.262c-1.805,2-3.754,3.953-5.848,5.859
			c3.656-0.156,7.633-0.297,11.93-0.422c-0.938-0.914-1.953-1.867-3.047-2.859L104.668,362.398z"/>
		<path fill="#FFFFFF" d="M124.965,377.949h-11.039v-1.992l5.273-5.262c1.453-1.453,2.426-2.604,2.918-3.451
			s0.738-1.725,0.738-2.631c0-1.031-0.289-1.822-0.867-2.373s-1.414-0.826-2.508-0.826c-1.617,0-3.16,0.688-4.629,2.063v-2.332
			c1.43-1.102,3.094-1.652,4.992-1.652c1.633,0,2.922,0.441,3.867,1.324s1.418,2.07,1.418,3.563c0,1.125-0.303,2.229-0.908,3.311
			s-1.752,2.459-3.439,4.131l-4.137,4.043v0.047h8.32V377.949z"/>
		<path fill="#FFFFFF" d="M127.824,369.23c0-3.203,0.531-5.627,1.594-7.271s2.602-2.467,4.617-2.467
			c3.844,0,5.766,3.102,5.766,9.305c0,3.063-0.541,5.404-1.623,7.025s-2.6,2.432-4.553,2.432c-1.844,0-3.271-0.77-4.283-2.309
			S127.824,372.168,127.824,369.23z M130.168,369.125c0,4.82,1.223,7.23,3.668,7.23c2.406,0,3.609-2.449,3.609-7.348
			c0-5.07-1.18-7.605-3.539-7.605C131.414,361.402,130.168,363.977,130.168,369.125z"/>
		<path fill="#FFFFFF" d="M153.453,377.949h-10.406v-1.98h4.066v-13.781l-4.172,1.207v-2.109l6.457-1.875v16.559h4.055V377.949z"/>
		<path fill="#FFFFFF" d="M168.125,373.238h-2.32v4.711h-2.227v-4.711h-8.461v-1.488l8.027-11.953h2.66v11.625h2.32V373.238z
			 M163.578,371.422v-7.605c0-0.539,0.016-1.16,0.047-1.863h-0.047c-0.109,0.297-0.34,0.762-0.691,1.395l-5.402,8.074H163.578z"/>
		<path fill="#FFFFFF" d="M169.426,373.156h3.773v-6.703h8.297v-4.172h-6.891c-1.055,1.898-2.234,3.648-3.539,5.25
			c-0.406-0.438-0.891-0.875-1.453-1.313c2.219-2.5,3.883-5.305,4.992-8.414l1.922,0.539c-0.328,0.773-0.672,1.523-1.031,2.25
			h16.125v1.688h-8.227v4.172h7.828v1.641h-7.828v5.063h9.281v1.688h-9.281v6.328h-1.898v-6.328h-12.07V373.156z M175.051,373.156
			h6.445v-5.063h-6.445V373.156z"/>
		<path fill="#FFFFFF" d="M195.148,375.488c1,0.578,2.078,0.867,3.234,0.867c1.625,0,2.885-0.641,3.779-1.922
			s1.342-3.102,1.342-5.461c-0.016,0.016-0.031,0.016-0.047,0c-0.797,1.516-2.137,2.273-4.02,2.273c-1.523,0-2.785-0.523-3.785-1.57
			s-1.5-2.406-1.5-4.078c0-1.781,0.547-3.244,1.641-4.389s2.512-1.717,4.254-1.717c1.805,0,3.215,0.709,4.23,2.127
			s1.523,3.482,1.523,6.193c0,3.352-0.656,5.93-1.969,7.734s-3.129,2.707-5.449,2.707c-1.273,0-2.352-0.207-3.234-0.621V375.488z
			 M196.473,365.305c0,1.219,0.313,2.186,0.938,2.9s1.488,1.072,2.59,1.072c0.953,0,1.754-0.326,2.402-0.979
			s0.973-1.443,0.973-2.373c0-1.305-0.322-2.385-0.967-3.24s-1.494-1.283-2.549-1.283c-0.977,0-1.785,0.371-2.426,1.113
			S196.473,364.188,196.473,365.305z"/>
		<path fill="#FFFFFF" d="M213.066,373.133c-0.352,3.016-1.527,5.742-3.527,8.18c-0.5-0.484-1.039-0.953-1.617-1.406
			c1.516-1.641,2.531-3.594,3.047-5.859c0.359-1.672,0.539-3.984,0.539-6.938V359h15.656v18.281c0,2.313-1.102,3.469-3.305,3.469
			c-0.922,0-2.109-0.016-3.563-0.047c-0.078-0.563-0.195-1.219-0.352-1.969c1.438,0.094,2.57,0.141,3.398,0.141
			c1.266,0,1.898-0.617,1.898-1.852v-3.891H213.066z M213.254,371.422h11.988v-4.5H213.43
			C213.43,368.484,213.371,369.984,213.254,371.422z M213.43,360.758v4.453h11.813v-4.453H213.43z"/>
		<path fill="#FFFFFF" d="M242.188,358.508l1.781-0.727c0.5,0.859,1.047,1.828,1.641,2.906h8.742v1.641h-18.703v7.078
			c0,5.219-0.961,9.203-2.883,11.953c-0.406-0.531-0.859-1.055-1.359-1.57c1.578-2.078,2.367-5.445,2.367-10.102v-9h9.703
			C243.039,359.859,242.609,359.133,242.188,358.508z M238.273,364.836c5.359-0.047,10.258-0.328,14.695-0.844l0.586,1.758
			c-1.922,0.172-4.109,0.32-6.563,0.445c0,1.563,0.078,2.992,0.234,4.289h6.938v1.688h-6.68c0.641,3.25,1.906,5.438,3.797,6.563
			c0.563,0.328,0.969,0.156,1.219-0.516c0.219-0.797,0.406-1.945,0.563-3.445c0.672,0.281,1.258,0.492,1.758,0.633
			c-0.219,1.563-0.438,2.773-0.656,3.633c-0.375,1.281-1.086,1.922-2.133,1.922c-0.953,0-2.094-0.703-3.422-2.109
			c-1.422-1.578-2.406-3.805-2.953-6.68h-5.555v5.414c1.75-0.891,3.344-1.734,4.781-2.531c0.094,0.734,0.211,1.344,0.352,1.828
			c-1.969,1.016-3.688,1.961-5.156,2.836c-0.563,0.375-1.023,0.727-1.383,1.055l-1.219-1.547c0.531-0.453,0.797-1.125,0.797-2.016
			V364.836z M245.141,366.289c-1.578,0.063-3.258,0.125-5.039,0.188v4.008h5.297C245.242,369.203,245.156,367.805,245.141,366.289z
			 M243.266,378.898l1.125-1.055c1,0.75,1.93,1.523,2.789,2.32l-1.266,1.219C245.086,380.523,244.203,379.695,243.266,378.898z"/>
		<path fill="#FFFFFF" d="M268.297,375.043l-1.98,6.246h-1.641l1.441-6.246H268.297z"/>
		<path fill="#FFFFFF" d="M65.293,400.875h10.523v-2.648h1.922v2.648h10.266v1.664H77.738v2.391h8.977v13.289
			c0,1.828-0.906,2.75-2.719,2.766c-1.031,0.016-2.32-0.008-3.867-0.07c-0.094-0.578-0.211-1.219-0.352-1.922
			c1.547,0.094,2.727,0.141,3.539,0.141c1.031,0,1.547-0.453,1.547-1.359V406.57H68.645v14.508h-1.852V404.93h9.023v-2.391H65.293
			V400.875z M69.559,414.539h6.281v-2.555h-5.531v-1.547h7.359c0.75-1.125,1.508-2.359,2.273-3.703l1.734,0.961
			c-0.766,1.047-1.461,1.961-2.086,2.742h3.609v1.547h-5.531v2.555h6.281v1.547h-6.281v4.5H75.84v-4.5h-6.281V414.539z
			 M71.855,407.672l1.383-0.938c0.797,0.922,1.523,1.82,2.18,2.695l-1.547,0.961C73.246,409.484,72.574,408.578,71.855,407.672z"/>
		<path fill="#FFFFFF" d="M89.645,405.586v-1.781h8.086v1.711c-1.328,5.125-3.75,9.516-7.266,13.172
			c-0.531-0.609-1.008-1.086-1.43-1.43c3.531-3.719,5.805-7.609,6.82-11.672H89.645z M99.652,398.086h1.898v3.762
			c0.672,1.828,1.441,3.527,2.309,5.098c1.727-1.438,3.449-3.156,5.168-5.156l1.57,1.406c-1.828,1.914-3.758,3.699-5.789,5.355
			c2.063,3.266,4.586,5.918,7.57,7.957c-0.656,0.656-1.188,1.242-1.594,1.758c-4.109-3.234-7.188-7.238-9.234-12.012v10.957
			c0,2.328-1.117,3.492-3.352,3.492c-0.688,0-1.703-0.008-3.047-0.023c-0.078-0.578-0.203-1.281-0.375-2.109
			c1.25,0.125,2.266,0.188,3.047,0.188c1.219,0,1.828-0.586,1.828-1.758V398.086z"/>
		<path fill="#FFFFFF" d="M112.988,416.789c2.039-0.703,4.453-1.625,7.242-2.766v-7.383h-6.75v-1.734h6.75v-6.586h1.898v22.523
			h-1.898v-4.863c-1.5,0.609-3.664,1.496-6.492,2.66L112.988,416.789z M126.793,398.273h1.898v7.934
			c2.133-1.094,4.125-2.293,5.977-3.598l1.172,1.688c-1.688,1.063-4.07,2.363-7.148,3.902v8.613c0,1.063,0.586,1.594,1.758,1.594
			h1.641c1.125,0,1.758-0.531,1.898-1.594c0.141-0.984,0.266-2.266,0.375-3.844c0.688,0.281,1.352,0.531,1.992,0.75
			c-0.156,1.484-0.328,2.75-0.516,3.797c-0.297,1.781-1.398,2.672-3.305,2.672h-2.531c-2.141,0-3.211-1.055-3.211-3.164V398.273z"/>
		<path fill="#FFFFFF" d="M143.973,412.453c0.031,0.703,0.086,1.383,0.164,2.039c-1.625,1.188-3.031,2.305-4.219,3.352l-1.078-1.523
			c0.516-0.563,0.773-1.266,0.773-2.109v-7.148h-2.555v-1.641h4.266v9.117C142.152,413.93,143.035,413.234,143.973,412.453z
			 M139.918,398.461c1.047,1.031,2.219,2.258,3.516,3.68l-1.547,1.313c-1.219-1.547-2.32-2.836-3.305-3.867L139.918,398.461z
			 M146.434,401.039v9.633c0,4.578-1.242,8.055-3.727,10.43c-0.391-0.563-0.797-1.063-1.219-1.5
			c2.156-2.063,3.234-4.977,3.234-8.742v-11.414h14.438v18.75c0,1.734-0.797,2.602-2.391,2.602c-0.922,0-2.156-0.023-3.703-0.07
			c-0.078-0.578-0.195-1.18-0.352-1.805c1.656,0.109,2.844,0.164,3.563,0.164c0.781,0,1.172-0.414,1.172-1.242v-16.805H146.434z
			 M147.16,407.484h3.938v-2.156h-3.281v-1.5h3.281v-2.227h1.688v2.227h3.234v1.5h-3.234v2.156h3.938v1.5h-9.563V407.484z
			 M148.238,410.883h7.172v5.977h-5.531v1.078h-1.641V410.883z M153.77,412.383h-3.891v2.977h3.891V412.383z"/>
		<path fill="#FFFFFF" d="M161.363,417.586h10.266v-15.633h-8.93v-1.875h19.969v1.875h-8.977v15.633h10.289v1.828h-22.617V417.586z"
			/>
		<path fill="#FFFFFF" d="M184.848,414.563c1.547-2.258,2.734-4.93,3.563-8.016h-3.281V405h3.656v-3.668
			c-0.984,0.141-1.992,0.27-3.023,0.387c-0.125-0.531-0.289-1.07-0.492-1.617c2.656-0.219,5.336-0.641,8.039-1.266l0.516,1.641
			c-1.086,0.219-2.203,0.422-3.352,0.609V405h3.258v1.547h-3.258v3.094l0.914-0.797c0.625,0.641,1.539,1.664,2.742,3.07
			l-1.406,1.148c-0.906-1.156-1.656-2.09-2.25-2.801v10.84h-1.688v-11.227c-0.828,2.688-1.875,4.93-3.141,6.727
			C185.395,415.93,185.129,415.25,184.848,414.563z M193.121,418.266h6.703v-3.469h-5.32v-1.57h5.32v-3.188h-5.883v-1.57h13.664
			v1.57h-5.906v3.188h5.32v1.57h-5.32v3.469h6.703v1.57h-15.281V418.266z M194.996,399.094h11.625v8.039h-1.781v-0.961h-8.063v0.961
			h-1.781V399.094z M204.84,400.688h-8.063v3.891h8.063V400.688z"/>
		<path fill="#FFFFFF" d="M210.934,410.203c0.469,1.906,1.125,3.473,1.969,4.699c0.836-1.719,1.359-3.699,1.57-5.941h-4.688v-1.711
			l4.313-5.32h-4.781v-1.594h6.938v1.594l-4.406,5.438h4.383v1.383c-0.289,2.898-0.996,5.41-2.121,7.535
			c1.703,1.477,4.348,2.223,7.934,2.238c2.969,0.063,6.414,0.023,10.336-0.117c-0.266,0.641-0.523,1.258-0.773,1.852
			c-3.578-0.016-7.039-0.031-10.383-0.047c-3.484,0-6.156-0.813-8.016-2.438c-0.883,1.281-1.953,2.398-3.211,3.352
			c-0.25-0.453-0.57-0.961-0.961-1.523c1.172-0.891,2.156-1.93,2.953-3.117c-1.047-1.328-1.914-3.227-2.602-5.695L210.934,410.203z
			 M216.465,414.164h6v-2.039h-5.203v-1.406h5.203v-2.039h-4.875v-1.406h4.875v-2.039h-6.094v-1.453h6.094v-2.039h-4.875v-1.406
			h4.875v-2.297h1.734v2.297h5.438v3.445h2.461v1.453h-2.461v4.078h-1.688v-0.633h-3.75v2.039h5.906v1.406h-5.906v2.039h6.984v1.406
			h-6.984v2.414h-1.734v-2.414h-6V414.164z M227.949,401.742h-3.75v2.039h3.75V401.742z M224.199,407.273h3.75v-2.039h-3.75V407.273
			z"/>
		<path fill="#FFFFFF" d="M241.121,414.094c0.031,0.734,0.086,1.43,0.164,2.086c-2.141,1.391-3.734,2.508-4.781,3.352l-1.125-1.547
			c0.531-0.516,0.797-1.219,0.797-2.109v-8.344h-2.977v-1.688h4.758v10.406C238.973,415.578,240.027,414.859,241.121,414.094z
			 M236.387,398.719c1.203,1.188,2.352,2.391,3.445,3.609l-1.641,1.359c-1.141-1.469-2.211-2.719-3.211-3.75L236.387,398.719z
			 M241.051,410.016v-1.617h12.773v1.617c-1.234,2.711-2.758,4.836-4.57,6.375c1.992,1.313,4.391,2.227,7.195,2.742
			c-0.547,0.703-1.023,1.336-1.43,1.898c-2.789-0.805-5.219-1.973-7.289-3.504c-2.125,1.438-4.813,2.668-8.063,3.691
			c-0.406-0.578-0.813-1.141-1.219-1.688c3.102-0.836,5.695-1.902,7.781-3.199c-1.813-1.75-3.129-3.855-3.949-6.316H241.051z
			 M250.895,400.875h-5.859v0.68c0,2.875-1.313,5.016-3.938,6.422c-0.422-0.516-0.875-1-1.359-1.453
			c2.313-1.188,3.469-2.828,3.469-4.922v-2.461h9.516v4.781c0,0.703,0.359,1.055,1.078,1.055h2.578
			c-0.078,0.641-0.141,1.219-0.188,1.734h-3.094c-1.469,0-2.203-0.813-2.203-2.438V400.875z M244.051,410.016
			c0.789,1.992,2.027,3.746,3.715,5.262c1.656-1.281,2.98-3.035,3.973-5.262H244.051z"/>
		<path fill="#FFFFFF" d="M256.848,415.453c1.281-0.281,2.461-0.555,3.539-0.82v-12.445h-3.211V400.5h8.039v1.688h-3v12
			c1.297-0.313,2.406-0.594,3.328-0.844c0.031,0.813,0.086,1.43,0.164,1.852c-3.75,0.938-6.531,1.656-8.344,2.156L256.848,415.453z
			 M271.707,407.133h1.828v3.633c0,1.625-0.219,3.055-0.656,4.289c2.734,1.469,5.18,2.93,7.336,4.383l-1.219,1.664
			c-2.156-1.609-4.438-3.109-6.844-4.5c-0.109,0.172-0.219,0.336-0.328,0.492c-1.266,1.734-3.492,3.172-6.68,4.313
			c-0.313-0.484-0.703-1.016-1.172-1.594c3.063-1.031,5.18-2.32,6.352-3.867c0.922-1.188,1.383-2.938,1.383-5.25V407.133z
			 M266.41,403.969h4.336l0.656-2.93h-5.531v-1.641h14.133v1.641h-6.563l-0.773,2.93h6.164v12.234h-1.828v-10.594h-8.766v10.594
			h-1.828V403.969z"/>
		<path fill="#FFFFFF" d="M284.223,399.141h16.969v21.703h-1.992v-1.758h-12.984v1.758h-1.992V399.141z M286.215,400.875v4.383
			h12.984v-4.383H286.215z M286.215,406.898v4.383h12.984v-4.383H286.215z M286.215,412.922v4.43h12.984v-4.43H286.215z"/>
		<path fill="#FFFFFF" d="M66.652,443.055h9.023v-5.109h2.016v5.109h9.117v10.688h-1.922v-1.266h-7.195v8.719h-2.016v-8.719h-7.102
			v1.266h-1.922V443.055z M68.574,450.742h7.102v-5.953h-7.102V450.742z M84.887,444.789h-7.195v5.953h7.195V444.789z"/>
		<path fill="#FFFFFF" d="M92.059,452.172c1.391-0.203,3.031-0.469,4.922-0.797c-0.094,0.578-0.164,1.18-0.211,1.805
			c-2.609,0.406-4.898,0.773-6.867,1.102l-0.375-1.758c1.086-1.164,2.277-2.824,3.574-4.98c-1.266,0.07-2.457,0.16-3.574,0.27
			l-0.445-1.594c1.453-1.984,2.945-4.766,4.477-8.344l1.781,0.703c-1.609,3.172-2.992,5.672-4.148,7.5
			c0.93-0.031,1.871-0.066,2.824-0.105c0.539-0.961,1.098-2.004,1.676-3.129l1.734,0.867
			C95.52,447.008,93.73,449.828,92.059,452.172z M89.082,457.586c2.75-0.594,5.531-1.242,8.344-1.945
			c-0.047,0.625-0.07,1.219-0.07,1.781c-2.609,0.609-5.195,1.258-7.758,1.945L89.082,457.586z M96.066,459.25
			c2.938-1.055,5.48-2.277,7.629-3.668c-0.555-1.414-0.992-3.09-1.313-5.027l-5.004,0.703l-0.281-1.688l5.051-0.703
			c-0.133-1.094-0.23-2.262-0.293-3.504l-4.242,0.48l-0.281-1.688l4.43-0.492c-0.086-1.625-0.164-3.492-0.234-5.602h1.922
			c0.039,2.016,0.09,3.813,0.152,5.391l7.84-0.891l0.211,1.664l-7.98,0.926c0.055,1.234,0.145,2.391,0.27,3.469l8.086-1.137
			l0.211,1.664l-8.074,1.148c0.266,1.617,0.625,3.023,1.078,4.219c1.656-1.25,3.035-2.617,4.137-4.102l1.523,1.148
			c-1.406,1.695-3.039,3.23-4.898,4.605c0.602,1.078,1.32,1.902,2.156,2.473c1.031,0.609,1.695,0.297,1.992-0.938
			c0.203-1,0.367-2.109,0.492-3.328c0.719,0.313,1.32,0.539,1.805,0.68c-0.266,1.688-0.531,2.961-0.797,3.82
			c-0.453,1.328-1.227,1.992-2.32,1.992c-1.141,0-2.195-0.469-3.164-1.406c-0.633-0.602-1.199-1.348-1.699-2.238
			c-2.148,1.391-4.559,2.598-7.23,3.621C96.957,460.406,96.566,459.875,96.066,459.25z M105.418,439.305l1.008-1.172
			c1.109,0.703,2.297,1.547,3.563,2.531l-1.125,1.359C107.566,440.914,106.418,440.008,105.418,439.305z"/>
		<path fill="#FFFFFF" d="M113.059,447.813h23.297v2.063h-23.297V447.813z"/>
		<path fill="#FFFFFF" d="M141.09,455.711l1.43,1.125c-1.578,1.703-3.016,3.133-4.313,4.289c-0.328-0.375-0.742-0.789-1.242-1.242
			C138.449,458.617,139.824,457.227,141.09,455.711z M137.152,453.672h2.203v-10.828h-1.922v-1.594h1.922v-2.859h1.734v2.859h4.875
			v-2.953h1.734v2.953h1.898v1.594h-1.898v10.828h1.875v1.594h-12.422V453.672z M141.09,445.445h4.875v-2.602h-4.875V445.445z
			 M141.09,449.547h4.875v-2.602h-4.875V449.547z M141.09,453.672h4.875v-2.625h-4.875V453.672z M144.16,456.813l1.125-1.148
			c1.094,0.813,2.125,1.633,3.094,2.461l-1.242,1.336C146.262,458.586,145.27,457.703,144.16,456.813z M150.816,438.953h8.297
			v19.008c0,1.844-0.875,2.766-2.625,2.766c-0.875,0-1.734-0.023-2.578-0.07c-0.063-0.516-0.156-1.117-0.281-1.805
			c1.141,0.109,1.961,0.164,2.461,0.164c0.859,0,1.289-0.43,1.289-1.289v-4.922h-5.016c-0.172,3.422-1.211,6.266-3.117,8.531
			c-0.422-0.438-0.891-0.875-1.406-1.313c1.266-1.453,2.07-2.961,2.414-4.523c0.375-1.5,0.563-4.109,0.563-7.828V438.953z
			 M152.469,451.258h4.91v-4.594h-4.828C152.566,448.68,152.539,450.211,152.469,451.258z M157.379,440.547h-4.828v4.57h4.828
			V440.547z"/>
		<path fill="#FFFFFF" d="M161.363,457.586h10.266v-15.633h-8.93v-1.875h19.969v1.875h-8.977v15.633h10.289v1.828h-22.617V457.586z"
			/>
		<path fill="#FFFFFF" d="M184.848,454.563c1.547-2.258,2.734-4.93,3.563-8.016h-3.281V445h3.656v-3.668
			c-0.984,0.141-1.992,0.27-3.023,0.387c-0.125-0.531-0.289-1.07-0.492-1.617c2.656-0.219,5.336-0.641,8.039-1.266l0.516,1.641
			c-1.086,0.219-2.203,0.422-3.352,0.609V445h3.258v1.547h-3.258v3.094l0.914-0.797c0.625,0.641,1.539,1.664,2.742,3.07
			l-1.406,1.148c-0.906-1.156-1.656-2.09-2.25-2.801v10.84h-1.688v-11.227c-0.828,2.688-1.875,4.93-3.141,6.727
			C185.395,455.93,185.129,455.25,184.848,454.563z M193.121,458.266h6.703v-3.469h-5.32v-1.57h5.32v-3.188h-5.883v-1.57h13.664
			v1.57h-5.906v3.188h5.32v1.57h-5.32v3.469h6.703v1.57h-15.281V458.266z M194.996,439.094h11.625v8.039h-1.781v-0.961h-8.063v0.961
			h-1.781V439.094z M204.84,440.688h-8.063v3.891h8.063V440.688z"/>
		<path fill="#FFFFFF" d="M71.785,495.805l1.055,1.453c-2.281,1.141-4.523,2.141-6.727,3c-0.234-0.484-0.508-1.008-0.82-1.57
			C67.621,497.781,69.785,496.82,71.785,495.805z M81.746,490.484c2.188,1.781,3.93,3.305,5.227,4.57l-1.289,1.313
			c-0.609-0.633-1.238-1.258-1.887-1.875c-1.906,0.078-3.832,0.16-5.777,0.246v3.129c0,1.938-0.977,2.906-2.93,2.906
			c-1,0-2.117-0.008-3.352-0.023c-0.094-0.625-0.211-1.273-0.352-1.945c1.203,0.109,2.281,0.164,3.234,0.164
			c1.047,0,1.57-0.57,1.57-1.711v-2.438c-2.094,0.102-4.211,0.203-6.352,0.305c-0.688,0.031-1.352,0.094-1.992,0.188l-0.633-1.781
			c0.953-0.109,2.023-0.391,3.211-0.844c1.602-0.617,3.332-1.344,5.191-2.18c-1.945,0.063-3.676,0.141-5.191,0.234
			c-0.75,0.047-1.313,0.094-1.688,0.141l-0.609-1.547c0.781-0.156,1.57-0.414,2.367-0.773c1.047-0.469,2.082-0.977,3.105-1.523
			h-4.395v0.68h-1.781v-8.906h18.539v8.906h-1.781v-0.68h-7.781c-1.727,0.875-3.43,1.672-5.109,2.391
			c2.047-0.055,4.43-0.133,7.148-0.234c1.078-0.508,2.195-1.055,3.352-1.641l1.219,1.266c-3.734,1.766-7.563,3.375-11.484,4.828
			c3.945-0.172,7.52-0.359,10.723-0.563c-0.57-0.508-1.152-1.008-1.746-1.5L81.746,490.484z M69.207,482.281h6.609v-2.109h-6.609
			V482.281z M69.207,485.68h6.609v-2.133h-6.609V485.68z M84.184,480.172h-6.633v2.109h6.633V480.172z M77.551,485.68h6.633v-2.133
			h-6.633V485.68z M81.301,495.898c2.328,0.781,4.563,1.648,6.703,2.602l-0.727,1.594c-2.094-0.953-4.352-1.836-6.773-2.648
			L81.301,495.898z"/>
		<path fill="#FFFFFF" d="M98.715,494.563c0.047,0.813,0.102,1.492,0.164,2.039c-2.5,1.563-4.563,2.922-6.188,4.078l-1.125-1.594
			c0.547-0.469,0.82-1.18,0.82-2.133v-9.281h-3.328v-1.688h5.203v11.391C95.621,496.547,97.105,495.609,98.715,494.563z
			 M91.449,478.367c1.703,1.75,2.938,3.047,3.703,3.891l-1.641,1.383c-0.984-1.297-2.148-2.641-3.492-4.031L91.449,478.367z
			 M96.559,486.125h6.82v-8.063h2.016v8.063h6.867v1.688h-6.867v13.219h-2.016v-13.219h-6.82V486.125z"/>
		<path fill="#FFFFFF" d="M113.715,490.602h22.031v1.664h-7.57v4.969c0,1.031,0.508,1.547,1.523,1.547h2.484
			c1.063,0,1.656-0.359,1.781-1.078s0.211-1.742,0.258-3.07c0.563,0.219,1.25,0.453,2.063,0.703
			c-0.109,1.281-0.25,2.328-0.422,3.141c-0.219,1.344-1.164,2.016-2.836,2.016h-3.82c-1.953,0-2.93-1-2.93-3v-5.227h-4.207
			c-0.039,4.406-2.621,7.344-7.746,8.813c-0.313-0.516-0.703-1.094-1.172-1.734c4.625-1.125,6.977-3.484,7.055-7.078h-6.492V490.602
			z M113.902,480.945h10.031c-0.305-0.633-0.695-1.375-1.172-2.227l1.828-0.844c0.617,1.188,1.117,2.211,1.5,3.07h9.375v4.313
			h-1.922v-2.648h-17.719v2.648h-1.922V480.945z M116.621,485.75h16.5v1.641h-16.5V485.75z"/>
		<path fill="#FFFFFF" d="M146.996,499.25c1.805-1.211,3.414-2.621,4.828-4.23c-0.906-2.305-1.441-6.027-1.605-11.168h-8.848v3.563
			h6.75c-0.094,2.984-0.219,5.492-0.375,7.523c-0.188,2.156-1.234,3.234-3.141,3.234c-0.641,0-1.492-0.031-2.555-0.094
			c-0.094-0.578-0.219-1.227-0.375-1.945c1.094,0.156,2.008,0.234,2.742,0.234c0.906,0,1.414-0.625,1.523-1.875
			c0.125-1.438,0.219-3.219,0.281-5.344h-4.863c-0.125,5.43-1.223,9.445-3.293,12.047c-0.391-0.531-0.797-1.07-1.219-1.617
			c1.766-2.344,2.648-6.047,2.648-11.109v-6.352h10.652c-0.055-1.234-0.105-2.57-0.152-4.008h1.945
			c-0.008,1.102,0.012,2.438,0.059,4.008h8.074v1.734h-8.016c0.156,4.203,0.543,7.344,1.16,9.422
			c1.516-2.055,2.762-4.383,3.738-6.984l1.852,0.773c-1.344,3.18-2.957,5.945-4.84,8.297c1.148,2.336,2.27,3.504,3.363,3.504
			c0.398,0,0.703-0.363,0.914-1.09c0.219-1.141,0.391-2.313,0.516-3.516c0.672,0.266,1.266,0.484,1.781,0.656
			c-0.234,1.672-0.492,3.039-0.773,4.102c-0.297,1.141-0.953,1.758-1.969,1.852c-0.953,0.063-1.867-0.258-2.742-0.961
			c-0.945-0.727-1.75-1.727-2.414-3c-1.32,1.422-2.758,2.672-4.313,3.75C147.926,500.188,147.48,499.719,146.996,499.25z
			 M153.723,479.258l0.984-1.219c1.313,0.75,2.539,1.531,3.68,2.344l-1.125,1.406C156.137,480.898,154.957,480.055,153.723,479.258z
			"/>
		<path fill="#FFFFFF" d="M161.035,490.578c1.094-0.297,2.234-0.629,3.422-0.996v-5.168h-3.117v-1.641h3.117v-4.547h1.758v4.547
			h2.836v1.641h-2.836v4.617c0.805-0.258,1.633-0.531,2.484-0.82c-0.016,0.5,0,1.109,0.047,1.828
			c-0.852,0.266-1.695,0.535-2.531,0.809v7.371c0,1.703-0.758,2.555-2.273,2.555h-2.273c-0.063-0.547-0.164-1.211-0.305-1.992
			c0.875,0.094,1.586,0.141,2.133,0.141c0.641,0,0.961-0.375,0.961-1.125v-6.375c-1.07,0.359-2.133,0.727-3.188,1.102
			L161.035,490.578z M169.871,490.461v-1.641h12.047v1.617c-1.063,2.477-2.559,4.559-4.488,6.246
			c1.867,1.172,4.215,1.988,7.043,2.449c-0.438,0.578-0.828,1.172-1.172,1.781c-2.922-0.641-5.359-1.676-7.313-3.105
			c-2.109,1.477-4.641,2.574-7.594,3.293c-0.344-0.641-0.688-1.188-1.031-1.641c2.836-0.594,5.25-1.535,7.242-2.824
			c-1.719-1.648-2.945-3.707-3.68-6.176H169.871z M181.754,485.328h2.625c-0.156,0.563-0.289,1.133-0.398,1.711h-2.484
			c-1.797,0-2.695-0.859-2.695-2.578v-3.68h-5.203v0.867c0.016,3.016-1.18,5.266-3.586,6.75c-0.391-0.516-0.813-0.992-1.266-1.43
			c2.063-1.125,3.094-2.898,3.094-5.32v-2.508h8.719v5.063C180.559,484.953,180.957,485.328,181.754,485.328z M179.973,490.461
			h-7.348c0.656,2.078,1.781,3.801,3.375,5.168C177.711,494.23,179.035,492.508,179.973,490.461z"/>
		<path fill="#FFFFFF" d="M191.223,483.242c0.281,0.609,0.586,1.164,0.914,1.664c-1.859,1.391-3.797,2.898-5.813,4.523l-1.219-1.594
			C187.309,486.32,189.348,484.789,191.223,483.242z M197.598,491.938c-0.016,1.688-0.133,2.984-0.352,3.891
			c3.563,1.156,6.961,2.359,10.195,3.609l-0.984,1.711c-2.953-1.219-6.242-2.477-9.867-3.773c-1.047,1.859-4.383,3.148-10.008,3.867
			c-0.281-0.594-0.617-1.203-1.008-1.828c5.172-0.453,8.297-1.422,9.375-2.906c0.578-0.781,0.852-2.305,0.82-4.57H197.598z
			 M187.051,478.156c1.344,0.844,2.648,1.719,3.914,2.625l-1.195,1.453c-1.125-0.891-2.375-1.82-3.75-2.789L187.051,478.156z
			 M188.527,489.406h16.289v7.641h-1.828v-6h-12.633v6h-1.828V489.406z M191.551,487.766c4.688-1.203,7.227-3.234,7.617-6.094h-3.75
			c-0.563,1.156-1.188,2.195-1.875,3.117c-0.5-0.344-1.023-0.68-1.57-1.008c1.469-1.734,2.508-3.742,3.117-6.023l1.758,0.422
			c-0.234,0.688-0.477,1.336-0.727,1.945h11.109v1.477l-1.594,3.188c-0.531-0.25-1.102-0.492-1.711-0.727l1.242-2.391h-4.172
			c-0.125,0.5-0.266,0.984-0.422,1.453c1.344,2.219,3.867,3.758,7.57,4.617c-0.438,0.594-0.828,1.164-1.172,1.711
			c-3.328-1.063-5.703-2.625-7.125-4.688c-1.078,1.875-3.445,3.391-7.102,4.547C192.434,488.844,192.035,488.328,191.551,487.766z"
			/>
	</g>
</g>
<g>
	<path fill="none" stroke="#FFFFFF" stroke-width="2" stroke-miterlimit="10" d="M549.308,388.85h-25.83
		c-4.205,0-7.612,3.404-7.612,7.61c0,1.452,0.424,2.795,1.138,3.952c5.943-3.336,12.493-5.216,19.392-5.216
		c6.902,0,13.448,1.88,19.396,5.216c0.705-1.157,1.138-2.5,1.138-3.952C556.928,392.254,553.512,388.85,549.308,388.85z
		 M550.881,384.317l9.604-19.485h-48.183l9.605,19.485H550.881z"/>
	<path fill="none" stroke="#FFFFFF" stroke-width="2" stroke-miterlimit="10" d="M536.395,514.312
		c29.884,0,38.086,12.164,38.086,12.164l18.006-21.199c-12.196-9.3-8.021-37.68-8.021-37.68l-0.063,0.004
		c0.381-3.176,0.643-6.405,0.643-9.722c0-34.655-21.781-58.041-48.65-58.041c-26.873,0-48.65,23.386-48.65,58.041
		c0,3.316,0.254,6.546,0.642,9.722l-0.066-0.004c0,0,4.18,28.38-8.024,37.68l18.013,21.199
		C498.308,526.476,506.51,514.312,536.395,514.312z"/>
	<path fill="none" stroke="#FFFFFF" stroke-width="2" stroke-miterlimit="10" d="M539.89,451.517v-12.319
		c4.521,0,7.18,3.457,7.445,6.996h15.326c0-13.639-11.162-18.419-22.771-19.045v-5.494h-7.354v5.494
		c-11.341,1.682-22.055,5.757-22.055,19.487c0,12.329,9.835,15.868,22.055,19.315v13.92c-4.695-0.985-7.259-4.347-7.259-9.225
		h-16.032c0,13.819,10.532,20.735,23.291,21.185v8.589h7.354v-8.589c12.846-0.449,23.663-5.319,23.663-19.855
		C563.553,460.104,553.267,455.143,539.89,451.517z M532.535,450.186c-2.829-1.155-6.641-1.86-6.641-6.116
		c0-3.362,3.451-4.872,6.641-4.872V450.186z M539.89,480.399v-12.945c4.343,0.896,7.711,3.192,7.711,7.097
		C547.601,478.267,543.526,480.399,539.89,480.399z"/>
</g>
<g>
	<path fill="none" stroke="#FFFFFF" stroke-width="2" stroke-miterlimit="10" d="M449.372,339.191h-22.381
		c-3.644,0-6.596,2.949-6.596,6.593c0,1.258,0.367,2.422,0.985,3.425c5.15-2.891,10.825-4.52,16.803-4.52
		c5.98,0,11.652,1.629,16.806,4.52c0.61-1.002,0.985-2.167,0.985-3.425C455.975,342.14,453.015,339.191,449.372,339.191z
		 M450.735,335.263l8.322-16.883h-41.749l8.323,16.883H450.735z"/>
	<path fill="none" stroke="#FFFFFF" stroke-width="2" stroke-miterlimit="10" d="M438.184,447.899c25.894,0,33,10.54,33,10.54
		l15.602-18.368c-10.567-8.058-6.949-32.648-6.949-32.648l-0.056,0.003c0.33-2.751,0.558-5.55,0.558-8.423
		c0-30.028-18.873-50.291-42.154-50.291c-23.285,0-42.154,20.263-42.154,50.291c0,2.874,0.221,5.672,0.557,8.423l-0.058-0.003
		c0,0,3.621,24.59-6.953,32.648l15.607,18.368C405.183,458.438,412.289,447.899,438.184,447.899z"/>
	<path fill="none" stroke="#FFFFFF" stroke-width="2" stroke-miterlimit="10" d="M441.212,393.49v-10.674
		c3.917,0,6.221,2.995,6.451,6.061h13.279c0-11.817-9.671-15.959-19.73-16.502v-4.76h-6.372v4.76
		c-9.827,1.458-19.11,4.988-19.11,16.885c0,10.683,8.522,13.749,19.11,16.735v12.062c-4.068-0.854-6.29-3.767-6.29-7.993h-13.892
		c0,11.974,9.126,17.967,20.182,18.356v7.442h6.372v-7.442c11.13-0.389,20.503-4.609,20.503-17.204
		C461.715,400.929,452.803,396.631,441.212,393.49z M434.84,392.336c-2.451-1-5.754-1.612-5.754-5.299
		c0-2.913,2.99-4.221,5.754-4.221V392.336z M441.212,418.515v-11.217c3.763,0.776,6.682,2.766,6.682,6.149
		C447.894,416.667,444.363,418.515,441.212,418.515z"/>
</g>
</svg>
