<?xml version="1.0" encoding="utf-8"?>
<!-- Generator: Adobe Illustrator 16.0.0, SVG Export Plug-In . SVG Version: 6.00 Build 0)  -->
<!DOCTYPE svg PUBLIC "-//W3C//DTD SVG 1.1//EN" "http://www.w3.org/Graphics/SVG/1.1/DTD/svg11.dtd">
<svg version="1.1" id="图层_1" xmlns="http://www.w3.org/2000/svg" xmlns:xlink="http://www.w3.org/1999/xlink" x="0px" y="0px"
	 width="640px" height="960px" viewBox="0 0 640 960" enable-background="new 0 0 640 960" xml:space="preserve">
<g>
	<path fill="#FFFFFF" d="M347.087,531.13c1.727-2.406,3.02-5.172,3.879-8.297h-3.598v-1.57h3.633v-4.664h1.711v4.664h3.422v1.57
		h-3.422v4.078l0.938-0.961c1.078,1.047,2.07,2.055,2.977,3.023l-1.266,1.242c-0.859-1.016-1.742-2.004-2.648-2.965v12.199h-1.711
		v-12.199c-0.844,2.32-1.867,4.293-3.07,5.918C347.696,532.497,347.415,531.817,347.087,531.13z M357.001,518.075h12.328v21.422
		h-1.781v-1.594h-8.766v1.594h-1.781V518.075z M367.548,519.669h-8.766v4.5h8.766V519.669z M358.782,530.216h8.766v-4.5h-8.766
		V530.216z M358.782,536.31h8.766v-4.547h-8.766V536.31z"/>
	<path fill="#FFFFFF" d="M374.425,536.567h18.563v-4.031h-17.133v-1.664h17.133v-3.961h-17.883v-1.664h9.07v-8.695h1.945v8.695
		h8.813v14.391h-1.945v-1.406h-18.563V536.567z M375.854,518.872l1.313-1.172c1.688,1.578,3.258,3.227,4.711,4.945l-1.57,1.336
		C378.995,522.263,377.511,520.56,375.854,518.872z M394.604,518.966c-1.672,1.891-3.336,3.594-4.992,5.109l-1.406-1.266
		c1.594-1.438,3.195-3.148,4.805-5.133L394.604,518.966z"/>
	<path fill="#FFFFFF" d="M400.004,526.067h10.898v-6.047h-9.023v-1.852h19.406v1.852h-8.414v6.047h10.195v1.852h-10.195v8.039
		c0,1.063-0.195,1.828-0.586,2.297c-0.438,0.547-1.258,0.836-2.461,0.867c-0.703,0-2.023-0.008-3.961-0.023
		c-0.078-0.719-0.203-1.43-0.375-2.133c1.766,0.125,2.992,0.188,3.68,0.188c0.703,0,1.172-0.133,1.406-0.398
		c0.219-0.219,0.328-0.711,0.328-1.477v-7.359h-10.898V526.067z"/>
	<path fill="#FFFFFF" d="M426.287,527.661h4.125v-10.266h15.305v10.266h3.867v1.781h-3.867v7.078c0,1.891-0.906,2.836-2.719,2.836
		c-1.016,0-2.25-0.031-3.703-0.094c-0.078-0.531-0.195-1.195-0.352-1.992c1.359,0.109,2.492,0.164,3.398,0.164
		c0.938,0,1.406-0.508,1.406-1.523v-6.469h-11.484c-0.359,4.555-1.578,8.008-3.656,10.359c-0.469-0.469-1.008-0.938-1.617-1.406
		c1.828-1.813,2.922-4.797,3.281-8.953h-3.984V527.661z M432.381,519.153v8.508h11.367v-8.508H432.381z M435.311,521.731
		l1.453-1.172c1.172,1.188,2.398,2.531,3.68,4.031l-1.617,1.313C437.857,524.591,436.686,523.2,435.311,521.731z"/>
	<path fill="#FFFFFF" d="M453.812,522.856c1.594,0.969,3.164,2.023,4.711,3.164l-1.313,1.711c-1.563-1.281-3.07-2.398-4.523-3.352
		L453.812,522.856z M456.718,529.653c0.625,0.406,1.266,0.773,1.922,1.102c-1.125,2.797-2.227,5.703-3.305,8.719l-1.992-1.125
		C454.577,535.755,455.702,532.856,456.718,529.653z M455.007,516.88c1.453,0.984,2.961,2.102,4.523,3.352l-1.266,1.594
		c-1.469-1.313-2.938-2.508-4.406-3.586L455.007,516.88z M459.015,536.052h7.5V520.56h-6.094v-1.734h14.555v1.734h-6.492v15.492
		h7.523v1.734h-16.992V536.052z"/>
	<path fill="#FFFFFF" d="M481.407,518.849h18.609v19.734h-2.016v-2.273h-14.578v2.273h-2.016V518.849z M498.001,534.552v-13.945
		h-14.578v13.945H498.001z"/>
	<path fill="#FFFFFF" d="M509.659,537.13h-1.828v-12.117h8.367v-3.234h-10.359v-1.781h10.934c-0.484-0.977-1.051-1.961-1.699-2.953
		l1.805-0.844c0.672,0.984,1.289,1.992,1.852,3.023l-1.547,0.773h11.344v1.781h-10.453v3.234h8.508v8.766
		c0,1.969-0.93,2.953-2.789,2.953c-0.859,0-1.977-0.016-3.352-0.047c-0.078-0.516-0.188-1.141-0.328-1.875
		c1.297,0.078,2.336,0.117,3.117,0.117c1.016,0,1.523-0.516,1.523-1.547v-6.633h-6.68v12.82h-1.875v-12.82h-6.539V537.13z"/>
	<path fill="#FFFFFF" d="M532.871,520.349h2.367c0.578-1.422,1.055-2.719,1.43-3.891l1.969,0.563
		c-0.492,1.195-0.969,2.305-1.43,3.328h4.688v18.656h-1.875v-1.828h-5.273v1.992h-1.875V520.349z M540.02,522.106h-5.273v5.695
		h5.273V522.106z M534.746,535.419h5.273v-5.93h-5.273V535.419z M542.246,525.153c1.469-2.328,2.711-5.227,3.727-8.695l1.969,0.492
		c-0.398,1.18-0.805,2.289-1.219,3.328h7.547c-0.188,8.031-0.344,13.086-0.469,15.164c-0.109,2.453-1.398,3.68-3.867,3.68
		c-1.422,0-2.867-0.047-4.336-0.141c-0.094-0.781-0.219-1.477-0.375-2.086h0.07c1.563,0.219,2.992,0.328,4.289,0.328
		c1.422,0,2.188-0.75,2.297-2.25c0.172-2.328,0.297-6.641,0.375-12.938h-6.281c-0.68,1.508-1.383,2.836-2.109,3.984
		C543.441,525.724,542.902,525.435,542.246,525.153z M544.309,526.747l1.43-1.055c1.734,2.047,3.117,3.82,4.148,5.32l-1.734,1.219
		C547.043,530.419,545.762,528.591,544.309,526.747z"/>
	<path fill="#FFFFFF" d="M360.446,546.786l-0.469,0.586c2.625,3.438,6.109,6.023,10.453,7.758c-0.484,0.688-0.898,1.313-1.242,1.875
		c-4.125-2.031-7.586-4.758-10.383-8.18c-2.391,3.094-5.922,5.922-10.594,8.484c-0.313-0.531-0.703-1.117-1.172-1.758
		c4.828-2.422,8.477-5.344,10.945-8.766H360.446z M348.118,566.802h9.68v-4.078h-7.594v-1.711h7.594v-3.609h-6.727v-1.711h15.422
		v1.711h-6.75v3.609h7.617v1.711h-7.617v4.078h9.656v1.734h-21.281V566.802z"/>
	<path fill="#FFFFFF" d="M373.604,555.833h7.5c0.93-1.609,1.688-3.078,2.273-4.406l1.734,0.891c-0.68,1.188-1.402,2.359-2.168,3.516
		h4.09v1.57h-13.43V555.833z M374.12,549.646h5.859c-0.305-0.703-0.766-1.563-1.383-2.578l1.617-0.75
		c0.703,1.172,1.203,2.102,1.5,2.789l-1.148,0.539h6.047v1.57H374.12V549.646z M375.292,559.841h10.125v9.539h-1.734v-1.734h-6.656
		v1.758h-1.734V559.841z M375.69,552.435l1.43-0.867c0.781,1.109,1.492,2.219,2.133,3.328l-1.594,0.914
		C377.175,554.825,376.519,553.7,375.69,552.435z M383.683,561.411h-6.656v4.617h6.656V561.411z M396.714,561.739
		c0,2.688-1.055,4.141-3.164,4.359c-0.797,0.094-1.859,0.063-3.188-0.094c-0.078-0.563-0.18-1.25-0.305-2.063
		c1.141,0.188,2.117,0.281,2.93,0.281c1.375,0,2-0.945,1.875-2.836c-0.063-1.672-1.258-3.383-3.586-5.133
		c1.016-2.016,2.047-4.258,3.094-6.727h-4.781v19.992h-1.781v-21.727h8.438v1.922c-0.609,1.578-1.555,3.625-2.836,6.141
		C395.612,557.575,396.714,559.536,396.714,561.739z"/>
	<path fill="#FFFFFF" d="M399.91,567.552c6.813-3.938,10.414-10.844,10.805-20.719h2.063c-0.086,1.672-0.25,3.266-0.492,4.781
		c1.938,7.813,5.578,12.953,10.922,15.422c-0.656,0.719-1.234,1.398-1.734,2.039c-4.641-2.625-7.949-7.27-9.926-13.934
		c-1.711,6.438-5.098,11.168-10.16,14.191C400.965,568.755,400.473,568.161,399.91,567.552z"/>
	<path fill="#FFFFFF" d="M428.607,548.849h18.609v19.734h-2.016v-2.273h-14.578v2.273h-2.016V548.849z M445.201,564.552v-13.945
		h-14.578v13.945H445.201z"/>
</g>
<g>
	<g>
		<path fill="#F7CC48" d="M178.529,328.793l14.251,14.25l14.313-14.25l3.633,3.632l-14.251,14.313l14.251,14.22l-3.633,3.695
			L192.78,350.34l-14.251,14.313l-3.602-3.695l14.22-14.22l-14.22-14.313L178.529,328.793z"/>
		<path fill="#F7CC48" d="M235.781,365.677v-39.182h-9.408l2.856-5.837h13.289v45.019H235.781z"/>
		<path fill="#F7CC48" d="M264.717,354.811c1.056,1.946,2.411,3.436,4.067,4.471c1.656,1.036,3.498,1.553,5.526,1.553
			c3.001,0,5.433-0.958,7.296-2.872s2.794-4.435,2.794-7.56c0-3.001-0.978-5.443-2.934-7.327c-1.956-1.883-4.517-2.825-7.684-2.825
			c-1.905,0-3.669,0.326-5.293,0.978c-1.625,0.652-3.058,1.62-4.3,2.903l-1.832-0.404l5.65-23.068h21.485v5.992h-17.045
			l-2.67,10.028c1.242-0.517,2.442-0.9,3.601-1.148c1.159-0.249,2.318-0.373,3.478-0.373c4.326,0,7.844,1.387,10.556,4.16
			c2.711,2.774,4.067,6.386,4.067,10.835c0,5.092-1.583,9.154-4.75,12.187c-3.167,3.033-7.41,4.548-12.729,4.548
			c-3.146,0-5.878-0.543-8.196-1.63c-2.318-1.087-4.316-2.768-5.992-5.045L264.717,354.811z"/>
	</g>
</g>
<g>
	<g>
		<path fill="#FFFFFF" d="M346.865,332.766c1.727-2.406,3.02-5.172,3.879-8.297h-3.598v-1.57h3.633v-4.664h1.711v4.664h3.422v1.57
			h-3.422v4.078l0.938-0.961c1.078,1.047,2.07,2.055,2.979,3.023l-1.269,1.242c-0.856-1.016-1.742-2.004-2.646-2.965v12.199h-1.711
			v-12.199c-0.847,2.32-1.867,4.293-3.07,5.918C347.475,334.133,347.193,333.453,346.865,332.766z M356.779,319.711h12.328v21.422
			h-1.781v-1.594h-8.769v1.594h-1.778V319.711z M367.326,321.305h-8.769v4.5h8.769V321.305z M358.561,331.852h8.769v-4.5h-8.769
			V331.852z M358.561,337.945h8.769v-4.547h-8.769V337.945z"/>
		<path fill="#FFFFFF" d="M374.202,338.203h18.563v-4.031h-17.133v-1.664h17.133v-3.961h-17.883v-1.664h9.07v-8.695h1.945v8.695
			h8.813v14.391h-1.945v-1.406h-18.563V338.203z M375.632,320.508l1.313-1.172c1.688,1.578,3.258,3.227,4.711,4.945l-1.57,1.336
			C378.772,323.898,377.288,322.195,375.632,320.508z M394.382,320.602c-1.672,1.891-3.336,3.594-4.992,5.109l-1.403-1.266
			c1.594-1.438,3.192-3.148,4.805-5.133L394.382,320.602z"/>
		<path fill="#FFFFFF" d="M399.781,327.703h10.896v-6.047h-9.021v-1.852h19.406v1.852h-8.414v6.047h10.192v1.852h-10.192v8.039
			c0,1.063-0.195,1.828-0.586,2.297c-0.438,0.547-1.261,0.836-2.464,0.867c-0.7,0-2.021-0.008-3.961-0.023
			c-0.075-0.719-0.2-1.43-0.375-2.133c1.769,0.125,2.992,0.188,3.683,0.188c0.703,0,1.172-0.133,1.403-0.398
			c0.222-0.219,0.328-0.711,0.328-1.477v-7.359h-10.896V327.703z"/>
		<path fill="#FFFFFF" d="M438.334,338.051h-10.406v-1.98h4.066V322.29l-4.172,1.207v-2.109l6.457-1.875v16.559h4.055V338.051z"/>
		<path fill="#FFFFFF" d="M444.262,335.262c1.222,0.797,2.488,1.195,3.812,1.195c1.25,0,2.258-0.35,3.021-1.049
			c0.768-0.699,1.148-1.627,1.148-2.783c0-1.164-0.392-2.066-1.166-2.707c-0.777-0.641-1.904-0.961-3.381-0.961
			c-0.711,0-1.668,0.055-2.871,0.164v-9.223h8.93v2.027h-6.797v5.133c0.68-0.039,1.191-0.059,1.535-0.059
			c1.914,0,3.406,0.484,4.477,1.453c1.071,0.969,1.605,2.305,1.605,4.008c0,1.758-0.574,3.18-1.726,4.266
			c-1.146,1.086-2.731,1.629-4.758,1.629c-1.692,0-2.973-0.25-3.832-0.75L444.262,335.262L444.262,335.262z"/>
		<path fill="#FFFFFF" d="M472.162,318.633l-0.354,0.539c2.531,4.172,6.05,7.156,10.55,8.953c-0.484,0.766-0.898,1.469-1.242,2.109
			c-4.594-2.406-8.07-5.508-10.433-9.305c-2.313,3.609-5.817,6.82-10.521,9.633c-0.344-0.563-0.742-1.18-1.195-1.852
			c4.875-2.703,8.5-6.063,10.875-10.078L472.162,318.633L472.162,318.633z M469.584,326.695h2.133v14.508h-2.133V326.695z"/>
		<path fill="#FFFFFF" d="M358.021,348.891l1.567-0.867c0.422,0.594,0.906,1.344,1.453,2.25h9.023v1.5H350.59v7.594
			c0,4.844-0.813,8.75-2.438,11.719c-0.188-0.344-0.644-0.891-1.359-1.641c1.438-2.531,2.156-5.891,2.156-10.078v-9.094h9.938
			C358.639,349.852,358.35,349.391,358.021,348.891z M350.615,367.313v-1.406h8.555v-1.453h-7.383v-1.359h7.383v-1.477
			c-2.125,0.063-4.516,0.125-7.172,0.188l-0.281-1.43c6.531-0.094,11.648-0.328,15.354-0.703l0.586,1.477
			c-1.75,0.141-4.031,0.273-6.847,0.398v1.547h7.433v1.359h-7.433v1.453h9.023v1.406h-9.023v0.586c0,1.969-0.896,2.953-2.692,2.953
			c-0.922,0-1.82-0.016-2.695-0.047c-0.063-0.531-0.146-1.133-0.258-1.805c0.906,0.141,1.758,0.211,2.555,0.211
			c0.97,0,1.453-0.539,1.453-1.617v-0.281H350.615z M350.686,358.313c1.328-0.656,2.604-1.703,3.82-3.141h-3.231v-1.289h3.606
			v-1.758h1.479v1.758h2.602v1.289h-2.602v1.148l0.633-0.633c0.797,0.516,1.531,1.023,2.203,1.523l-0.938,0.891
			c-0.703-0.563-1.336-1.039-1.896-1.43v2.883h-1.479v-3.117c-0.938,1.203-2,2.234-3.188,3.094
			C351.412,359.141,351.076,358.734,350.686,358.313z M358.42,358.57c1.641-0.875,3.104-2.008,4.383-3.398h-2.813v-1.289h3.328
			v-1.758h1.477v1.758h4.172v1.289h-3.75c1.422,1.453,3.058,2.531,4.898,3.234c-0.453,0.422-0.828,0.852-1.125,1.289
			c-1.563-0.875-2.961-2.047-4.195-3.516v3.047h-1.477v-3.023c-1.144,1.375-2.438,2.531-3.894,3.469
			C359.225,359.375,358.889,359.008,358.42,358.57z"/>
		<path fill="#FFFFFF" d="M373.241,367.641c2.516-0.469,5.203-1.016,8.063-1.641c-0.047,0.625-0.067,1.211-0.067,1.758
			c-2.438,0.469-4.933,1.016-7.479,1.641L373.241,367.641z M376.265,362.18c1.531-0.219,3.188-0.484,4.972-0.797
			c-0.097,0.578-0.164,1.18-0.211,1.805c-1.406,0.203-3.711,0.57-6.914,1.102l-0.375-1.758c1.114-1.18,2.321-2.828,3.621-4.945
			c-1.117,0.063-2.324,0.148-3.621,0.258l-0.445-1.594c1.438-1.922,2.93-4.695,4.477-8.32l1.781,0.703
			c-1.688,3.313-3.07,5.805-4.146,7.477c1.055-0.023,2.012-0.047,2.87-0.07c0.529-0.922,1.072-1.914,1.63-2.977l1.731,0.867
			C379.851,356.898,378.063,359.648,376.265,362.18z M384.046,371.016h-1.781v-18.703h5.871c0.008-1.297,0.015-2.688,0.015-4.172
			h1.805c0,1.508-0.008,2.898-0.023,4.172h5.813v15.844c0,1.734-0.836,2.602-2.508,2.602h-3.472
			c-0.078-0.516-0.192-1.125-0.352-1.828c1.359,0.094,2.396,0.141,3.117,0.141c0.953,0,1.43-0.414,1.43-1.242v-4.008
			c-0.445,0.359-0.914,0.758-1.406,1.195c-1.231-1.773-2.453-3.398-3.653-4.875c-0.82,2.313-2.144,4.219-3.964,5.719
			c-0.266-0.352-0.563-0.73-0.891-1.137L384.046,371.016L384.046,371.016z M388.124,353.906h-4.078v10.172
			C386.694,361.898,388.054,358.508,388.124,353.906z M389.46,358.137c1.531,1.742,3.031,3.539,4.5,5.391v-9.621h-4.055
			C389.89,355.43,389.741,356.84,389.46,358.137z"/>
		<path fill="#FFFFFF" d="M399.805,359.32h23.086v1.547h-3.328v7.055c0,1.891-0.922,2.844-2.766,2.859
			c-1.063,0-2.289-0.008-3.68-0.023c-0.094-0.641-0.211-1.305-0.354-1.992c1.531,0.125,2.695,0.188,3.492,0.188
			c0.984,0,1.479-0.531,1.479-1.594v-6.492h-17.933L399.805,359.32L399.805,359.32z M400.203,349.313h22.406v1.547h-3.144v7.57
			h-1.828v-7.57H400.2L400.203,349.313L400.203,349.313z M402.547,362.625h11.039v5.25h-9.328v1.031h-1.711V362.625z M402.711,352.5
			h10.805v5.555h-1.711v-0.563h-7.383v0.563h-1.711V352.5z M411.875,366.422v-2.344h-7.617v2.344H411.875z M411.805,353.953h-7.383
			v2.086h7.383V353.953z"/>
		<path fill="#FFFFFF" d="M427.049,351.984h2.367c0.578-1.422,1.055-2.719,1.43-3.891l1.972,0.563
			c-0.492,1.195-0.972,2.305-1.433,3.328h4.688v18.656h-1.875v-1.828h-5.273v1.992h-1.875L427.049,351.984L427.049,351.984z
			 M434.197,353.742h-5.273v5.695h5.273V353.742z M428.924,367.055h5.273v-5.93h-5.273V367.055z M436.424,356.789
			c1.469-2.328,2.711-5.227,3.729-8.695l1.969,0.492c-0.398,1.18-0.805,2.289-1.219,3.328h7.547
			c-0.188,8.031-0.347,13.086-0.472,15.164c-0.106,2.453-1.396,3.68-3.864,3.68c-1.422,0-2.867-0.047-4.336-0.141
			c-0.097-0.781-0.222-1.477-0.375-2.086h0.067c1.563,0.219,2.992,0.328,4.289,0.328c1.422,0,2.188-0.75,2.297-2.25
			c0.172-2.328,0.297-6.641,0.375-12.938h-6.278c-0.683,1.508-1.386,2.836-2.109,3.984
			C437.619,357.359,437.08,357.07,436.424,356.789z M438.486,358.383l1.43-1.055c1.734,2.047,3.117,3.82,4.148,5.32l-1.734,1.219
			C441.221,362.055,439.939,360.227,438.486,358.383z"/>
		<path fill="#FFFFFF" d="M452.488,369.188c6.813-3.938,10.414-10.844,10.805-20.719h2.063c-0.089,1.672-0.25,3.266-0.492,4.781
			c1.938,7.813,5.578,12.953,10.922,15.422c-0.656,0.719-1.234,1.398-1.734,2.039c-4.641-2.625-7.949-7.27-9.926-13.934
			c-1.711,6.438-5.098,11.168-10.16,14.191C453.543,370.391,453.051,369.797,452.488,369.188z"/>
		<path fill="#FFFFFF" d="M479.076,361.688h3.563c0.347-0.594,0.683-1.203,1.008-1.828l1.688,0.539
			c-0.25,0.438-0.5,0.867-0.75,1.289h5.742v1.523c-0.594,1.531-1.492,2.875-2.695,4.031c0.859,0.406,1.734,0.813,2.625,1.219
			l-1.031,1.617c-0.969-0.547-1.977-1.094-3.021-1.641c-1.769,1.266-3.992,2.266-6.68,3c-0.25-0.5-0.519-1.047-0.8-1.641
			c2.281-0.516,4.211-1.258,5.789-2.227c-1.344-0.688-2.75-1.391-4.219-2.109c0.5-0.719,0.984-1.461,1.453-2.227h-2.672
			L479.076,361.688L479.076,361.688z M479.334,353.625h5.391v-5.25h1.734v5.25h4.5v1.547h-4.5v1.43l0.703-0.797
			c1.453,1.063,2.672,2,3.656,2.813l-1.125,1.313c-0.859-0.813-1.938-1.727-3.234-2.742v2.672h-1.734v-3.281
			c-1.422,1.484-3.075,2.789-4.969,3.914c-0.297-0.453-0.633-0.93-1.008-1.43c1.969-1.063,3.773-2.359,5.414-3.891h-4.828V353.625z
			 M479.943,349.992l1.336-0.914c0.703,0.859,1.43,1.781,2.18,2.766l-1.453,1.031C481.318,351.859,480.631,350.898,479.943,349.992z
			 M482.592,364.922c1.109,0.5,2.25,1.023,3.422,1.57c1.078-0.922,1.922-2.008,2.531-3.258h-4.875
			C483.311,363.813,482.951,364.375,482.592,364.922z M489.904,348.961l1.453,0.961c-0.859,1.125-1.722,2.164-2.578,3.117
			c-0.359-0.313-0.781-0.641-1.269-0.984C488.326,351.102,489.123,350.07,489.904,348.961z M494.17,348.164l1.875,0.281
			c-0.328,1.516-0.711,2.93-1.147,4.242h7.174v1.594h-1.479c-0.391,4.594-1.391,8.242-3,10.945c1.269,1.719,2.875,3.125,4.828,4.219
			c-0.5,0.688-0.922,1.305-1.266,1.852c-1.906-1.234-3.492-2.703-4.758-4.406c-1.438,1.781-3.148,3.328-5.136,4.641
			c-0.344-0.453-0.789-0.945-1.336-1.477c2.188-1.438,3.961-3.07,5.32-4.898c-1.266-2.188-2.104-4.711-2.508-7.57
			c-0.328,0.578-0.672,1.117-1.031,1.617c-0.313-0.453-0.703-0.953-1.172-1.5C492.35,355.094,493.561,351.914,494.17,348.164z
			 M498.717,354.281h-4.383c-0.078,0.203-0.164,0.398-0.258,0.586c0.281,3.313,1.063,6.148,2.344,8.508
			C497.67,361.094,498.436,358.063,498.717,354.281z"/>
	</g>
</g>
<g>
	<g>
		<path fill="#F7CC48" d="M200.78,525.319l14.252,14.25l14.313-14.25l3.633,3.632l-14.252,14.313l14.252,14.223l-3.633,3.691
			l-14.313-14.313l-14.252,14.313l-3.602-3.691l14.221-14.223l-14.221-14.313L200.78,525.319z"/>
		<path fill="#F7CC48" d="M258.032,562.203v-39.183h-9.407l2.856-5.84h13.289v45.021L258.032,562.203L258.032,562.203z"/>
	</g>
</g>
</svg>
