<?xml version="1.0" encoding="utf-8"?>
<!-- Generator: Adobe Illustrator 16.0.0, SVG Export Plug-In . SVG Version: 6.00 Build 0)  -->
<!DOCTYPE svg PUBLIC "-//W3C//DTD SVG 1.1//EN" "http://www.w3.org/Graphics/SVG/1.1/DTD/svg11.dtd">
<svg version="1.1" id="图层_1" xmlns="http://www.w3.org/2000/svg" xmlns:xlink="http://www.w3.org/1999/xlink" x="0px" y="0px"
	 width="640px" height="960px" viewBox="0 0 640 960" enable-background="new 0 0 640 960" xml:space="preserve">
<g>
	<g>
		<path fill="#FFFFFF" d="M346.395,323.191c1.727-2.406,3.02-5.172,3.879-8.297h-3.598v-1.57h3.633v-4.664h1.711v4.664h3.422v1.57
			h-3.422v4.078l0.938-0.961c1.078,1.047,2.07,2.055,2.977,3.023l-1.266,1.242c-0.859-1.016-1.742-2.004-2.648-2.965v12.199h-1.711
			v-12.199c-0.844,2.32-1.867,4.293-3.07,5.918C347.004,324.558,346.723,323.878,346.395,323.191z M356.309,310.136h12.328v21.422
			h-1.781v-1.594h-8.766v1.594h-1.781V310.136z M366.855,311.73h-8.766v4.5h8.766V311.73z M358.09,322.277h8.766v-4.5h-8.766
			V322.277z M358.09,328.371h8.766v-4.547h-8.766V328.371z"/>
		<path fill="#FFFFFF" d="M371.332,328.628h18.563v-4.031h-17.133v-1.664h17.133v-3.961h-17.883v-1.664h9.07v-8.695h1.945v8.695
			h8.813v14.391h-1.945v-1.406h-18.563V328.628z M372.762,310.933l1.313-1.172c1.688,1.578,3.258,3.227,4.711,4.945l-1.57,1.336
			C375.902,314.324,374.418,312.621,372.762,310.933z M391.512,311.027c-1.672,1.891-3.336,3.594-4.992,5.109l-1.406-1.266
			c1.594-1.438,3.195-3.148,4.805-5.133L391.512,311.027z"/>
		<path fill="#FFFFFF" d="M394.512,318.128h10.898v-6.047h-9.023v-1.852h19.406v1.852h-8.414v6.047h10.195v1.852h-10.195v8.039
			c0,1.063-0.195,1.828-0.586,2.297c-0.438,0.547-1.258,0.836-2.461,0.867c-0.703,0-2.023-0.008-3.961-0.023
			c-0.078-0.719-0.203-1.43-0.375-2.133c1.766,0.125,2.992,0.188,3.68,0.188c0.703,0,1.172-0.133,1.406-0.398
			c0.219-0.219,0.328-0.711,0.328-1.477v-7.359h-10.898V318.128z"/>
		<path fill="#FFFFFF" d="M418.418,315.269c2.313-1.969,4.125-4.266,5.438-6.891h2.109c-0.367,0.727-0.754,1.422-1.16,2.086h16.324
			v1.688h-17.426c-1.219,1.734-2.59,3.258-4.113,4.57C419.262,316.269,418.871,315.785,418.418,315.269z M418.512,320.214h3.445
			l1.055-5.859h15.492c-0.086,2.094-0.168,4.047-0.246,5.859h3.41v1.688h-3.48c-0.07,1.531-0.137,2.953-0.199,4.266h2.836v1.641
			h-2.965c-0.156,1.141-0.473,1.969-0.949,2.484c-0.609,0.672-1.672,1.008-3.188,1.008c-0.875,0-1.992-0.031-3.352-0.094
			c-0.078-0.531-0.195-1.164-0.352-1.898c1.609,0.141,2.766,0.211,3.469,0.211c0.984,0,1.633-0.188,1.945-0.563
			c0.211-0.219,0.371-0.602,0.48-1.148h-15.012v-1.758l0.75-4.148h-3.141V320.214z M436.289,321.902h-12.727l-0.738,4.266h13.266
			C436.168,324.777,436.234,323.355,436.289,321.902z M436.512,315.996h-11.906l-0.738,4.219h12.504
			C436.418,318.839,436.465,317.433,436.512,315.996z M427.676,323.261l1.102-1.219c1.188,0.922,2.234,1.773,3.141,2.555
			l-1.242,1.383C429.473,324.855,428.473,323.949,427.676,323.261z M427.863,317.308l1.102-1.219
			c1.188,0.922,2.234,1.773,3.141,2.555l-1.266,1.406C429.871,319.097,428.879,318.183,427.863,317.308z"/>
		<path fill="#FFFFFF" d="M442.488,323.683h3.773v-6.703h8.297v-4.172h-6.891c-1.055,1.898-2.234,3.648-3.539,5.25
			c-0.406-0.438-0.891-0.875-1.453-1.313c2.219-2.5,3.883-5.305,4.992-8.414l1.922,0.539c-0.328,0.773-0.672,1.523-1.031,2.25
			h16.125v1.688h-8.227v4.172h7.828v1.641h-7.828v5.063h9.281v1.688h-9.281v6.328h-1.898v-6.328h-12.07V323.683z M448.113,323.683
			h6.445v-5.063h-6.445V323.683z"/>
		<path fill="#FFFFFF" d="M469.254,322.582c0.063,0,1.68-0.125,4.852-0.375c-0.078,0.484-0.148,0.992-0.211,1.523
			c-2.609,0.234-4.836,0.453-6.68,0.656l-0.375-1.5c0.938-0.891,2.117-2.531,3.539-4.922c-0.984,0.063-2.164,0.148-3.539,0.258
			l-0.492-1.477c1.344-1.531,2.813-4.219,4.406-8.063l1.852,0.656c-1.531,2.953-2.938,5.375-4.219,7.266
			c0.938-0.016,1.867-0.031,2.789-0.047c0.563-0.969,1.148-2.039,1.758-3.211l1.758,0.75
			C472.504,317.722,470.691,320.55,469.254,322.582z M466.441,328.019c2.906-0.547,5.516-1.086,7.828-1.617
			c-0.016,0.578-0.008,1.133,0.023,1.664c-3.188,0.672-5.602,1.234-7.242,1.688L466.441,328.019z M482.824,308.683l-0.492,0.797
			c1.828,2.984,4.336,5.453,7.523,7.406c-0.453,0.469-0.906,0.977-1.359,1.523c-3.063-2.172-5.445-4.617-7.148-7.336
			c-1.703,2.875-3.914,5.422-6.633,7.641c-0.297-0.344-0.75-0.781-1.359-1.313c3.156-2.406,5.617-5.313,7.383-8.719H482.824z
			 M475.559,321.761h11.859v9.914h-1.781v-1.57h-8.297v1.594h-1.781V321.761z M476.355,317.378h10.266v1.617h-10.266V317.378z
			 M485.637,323.378h-8.297v5.109h8.297V323.378z"/>
		<path fill="#FFFFFF" d="M490.348,327.316c2.039-0.703,4.453-1.625,7.242-2.766v-7.383h-6.75v-1.734h6.75v-6.586h1.898v22.523
			h-1.898v-4.863c-1.5,0.609-3.664,1.496-6.492,2.66L490.348,327.316z M504.152,308.8h1.898v7.934
			c2.133-1.094,4.125-2.293,5.977-3.598l1.172,1.688c-1.688,1.063-4.07,2.363-7.148,3.902v8.613c0,1.063,0.586,1.594,1.758,1.594
			h1.641c1.125,0,1.758-0.531,1.898-1.594c0.141-0.984,0.266-2.266,0.375-3.844c0.688,0.281,1.352,0.531,1.992,0.75
			c-0.156,1.484-0.328,2.75-0.516,3.797c-0.297,1.781-1.398,2.672-3.305,2.672h-2.531c-2.141,0-3.211-1.055-3.211-3.164V308.8z"/>
		<path fill="#FFFFFF" d="M520.629,324.457l1.289,1.406c-2.094,1.578-4.195,3.023-6.305,4.336c-0.297-0.531-0.656-1.055-1.078-1.57
			C516.676,327.394,518.707,326.003,520.629,324.457z M514.605,311.777h10.828c-0.445-0.828-0.953-1.68-1.523-2.555l1.711-0.844
			c0.625,0.938,1.234,1.906,1.828,2.906l-0.938,0.492h11.016v1.641h-22.922V311.777z M517.652,315.503h16.758v7.922h-1.828v-0.938
			h-5.391v5.953c0,1.852-0.883,2.789-2.648,2.813c-1.125,0-2.148,0-3.07,0c-0.109-0.672-0.227-1.305-0.352-1.898
			c1.047,0.094,1.953,0.141,2.719,0.141c0.984,0.031,1.477-0.477,1.477-1.523v-5.484h-5.836v1.055h-1.828V315.503z M532.582,317.121
			H519.48v3.75h13.102V317.121z M529.723,326.027l1.102-1.406c2.141,1.266,4.195,2.547,6.164,3.844l-1.242,1.617
			C534.09,328.847,532.082,327.496,529.723,326.027z"/>
		<path fill="#FFFFFF" d="M346.418,352.339h23.297v2.063h-23.297V352.339z"/>
		<path fill="#FFFFFF" d="M383.543,343.058l-0.352,0.539c2.531,4.172,6.047,7.156,10.547,8.953
			c-0.484,0.766-0.898,1.469-1.242,2.109c-4.594-2.406-8.07-5.508-10.43-9.305c-2.313,3.609-5.82,6.82-10.523,9.633
			c-0.344-0.563-0.742-1.18-1.195-1.852c4.875-2.703,8.5-6.063,10.875-10.078H383.543z M380.965,351.121h2.133v14.508h-2.133
			V351.121z"/>
		<path fill="#FFFFFF" d="M394.277,356.394c2.211-0.625,4.383-1.383,6.516-2.273v-5.367h1.664v4.652
			c3.375-1.539,6.633-3.402,9.773-5.59l1.102,1.406c-3.273,2.195-6.715,4.117-10.324,5.766c0.328,0.313,0.809,0.469,1.441,0.469h4.5
			c0.938,0,1.5-0.266,1.688-0.797c0.203-0.516,0.359-1.352,0.469-2.508c0.516,0.219,1.109,0.445,1.781,0.68
			c-0.234,1.203-0.406,1.977-0.516,2.32c-0.328,1.281-1.32,1.922-2.977,1.922h-5.344c-1.352,0-2.281-0.441-2.789-1.324
			c-1.984,0.836-4.016,1.59-6.094,2.262C394.91,357.441,394.613,356.902,394.277,356.394z M395.285,344.957h10.043
			c-0.289-0.563-0.613-1.148-0.973-1.758l1.734-0.82c0.484,0.797,0.93,1.656,1.336,2.578h9.398v4.172h-1.898v-2.484h-17.742v2.484
			h-1.898V344.957z M398.027,349.222l1.641,0.633c-0.734,1.703-1.531,3.266-2.391,4.688c-0.5-0.25-1.07-0.5-1.711-0.75
			C396.426,352.558,397.246,351.035,398.027,349.222z M413.027,365.511v-0.914H397.23v-6.164h1.781v4.477h6.07v-5.391h1.875v5.391
			h6.07v-4.477h1.781v7.078H413.027z M403.746,348.05l1.219-1.055c1.047,0.828,1.977,1.641,2.789,2.438l-1.359,1.266
			C405.504,349.73,404.621,348.847,403.746,348.05z M413.074,351.027l1.359-1.008c1.219,1.328,2.266,2.578,3.141,3.75l-1.547,1.148
			C415.199,353.699,414.215,352.402,413.074,351.027z"/>
		<path fill="#FFFFFF" d="M433.723,355.41c2.313,2.578,4.609,5.313,6.891,8.203l-1.758,1.313c-0.563-0.773-1.125-1.527-1.688-2.262
			c-5.609,0.195-10.344,0.418-14.203,0.668c-0.672,0.078-1.305,0.203-1.898,0.375l-0.938-2.156c0.938-0.453,1.719-1.055,2.344-1.805
			c1.68-2.031,3.23-4.234,4.652-6.609h-8.449v-1.734h22.922v1.734h-11.93c-2.344,3.492-4.367,6.25-6.07,8.273
			c5.328-0.133,9.434-0.258,12.316-0.375c-1.242-1.586-2.488-3.117-3.738-4.594L433.723,355.41z M420.855,344.207h18.539v1.734
			h-18.539V344.207z"/>
		<path fill="#FFFFFF" d="M443.004,350.113v-1.781h8.086v1.711c-1.328,5.125-3.75,9.516-7.266,13.172
			c-0.531-0.609-1.008-1.086-1.43-1.43c3.531-3.719,5.805-7.609,6.82-11.672H443.004z M453.012,342.613h1.898v3.762
			c0.672,1.828,1.441,3.527,2.309,5.098c1.727-1.438,3.449-3.156,5.168-5.156l1.57,1.406c-1.828,1.914-3.758,3.699-5.789,5.355
			c2.063,3.266,4.586,5.918,7.57,7.957c-0.656,0.656-1.188,1.242-1.594,1.758c-4.109-3.234-7.188-7.238-9.234-12.012v10.957
			c0,2.328-1.117,3.492-3.352,3.492c-0.688,0-1.703-0.008-3.047-0.023c-0.078-0.578-0.203-1.281-0.375-2.109
			c1.25,0.125,2.266,0.188,3.047,0.188c1.219,0,1.828-0.586,1.828-1.758V342.613z"/>
		<path fill="#FFFFFF" d="M477.223,343.269l1.43-1.055c0.75,0.719,1.445,1.5,2.086,2.344l-0.996,0.727h9.691v1.688h-18.867v6.68
			c0.016,5.375-1.008,9.414-3.07,12.117c-0.391-0.5-0.836-1.031-1.336-1.594c1.703-2.234,2.547-5.633,2.531-10.195v-8.695h10.16
			C478.344,344.605,477.801,343.933,477.223,343.269z M471.059,359.558h8.883v-2.484h-7.148v-1.711
			c0.813-1.18,1.574-2.461,2.285-3.844h-3.41v-1.688h4.23c0.391-0.836,0.762-1.703,1.113-2.602l1.922,0.516
			c-0.32,0.719-0.645,1.414-0.973,2.086h10.254v1.688h-11.098c-0.719,1.391-1.449,2.68-2.191,3.867h5.016v-2.977h1.875v2.977h6.422
			v1.688h-6.422v2.484h7.57v1.688h-7.57v4.336h-1.875v-4.336h-8.883V359.558z"/>
		<path fill="#FFFFFF" d="M491.379,346.41h2.367c0.578-1.422,1.055-2.719,1.43-3.891l1.969,0.563
			c-0.492,1.195-0.969,2.305-1.43,3.328h4.688v18.656h-1.875v-1.828h-5.273v1.992h-1.875V346.41z M498.527,348.167h-5.273v5.695
			h5.273V348.167z M493.254,361.48h5.273v-5.93h-5.273V361.48z M500.754,351.214c1.469-2.328,2.711-5.227,3.727-8.695l1.969,0.492
			c-0.398,1.18-0.805,2.289-1.219,3.328h7.547c-0.188,8.031-0.344,13.086-0.469,15.164c-0.109,2.453-1.398,3.68-3.867,3.68
			c-1.422,0-2.867-0.047-4.336-0.141c-0.094-0.781-0.219-1.477-0.375-2.086h0.07c1.563,0.219,2.992,0.328,4.289,0.328
			c1.422,0,2.188-0.75,2.297-2.25c0.172-2.328,0.297-6.641,0.375-12.938h-6.281c-0.68,1.508-1.383,2.836-2.109,3.984
			C501.949,351.785,501.41,351.496,500.754,351.214z M502.816,352.808l1.43-1.055c1.734,2.047,3.117,3.82,4.148,5.32l-1.734,1.219
			C505.551,356.48,504.27,354.652,502.816,352.808z"/>
		<path fill="#FFFFFF" d="M515.004,350.113v-1.781h8.086v1.711c-1.328,5.125-3.75,9.516-7.266,13.172
			c-0.531-0.609-1.008-1.086-1.43-1.43c3.531-3.719,5.805-7.609,6.82-11.672H515.004z M525.012,342.613h1.898v3.762
			c0.672,1.828,1.441,3.527,2.309,5.098c1.727-1.438,3.449-3.156,5.168-5.156l1.57,1.406c-1.828,1.914-3.758,3.699-5.789,5.355
			c2.063,3.266,4.586,5.918,7.57,7.957c-0.656,0.656-1.188,1.242-1.594,1.758c-4.109-3.234-7.188-7.238-9.234-12.012v10.957
			c0,2.328-1.117,3.492-3.352,3.492c-0.688,0-1.703-0.008-3.047-0.023c-0.078-0.578-0.203-1.281-0.375-2.109
			c1.25,0.125,2.266,0.188,3.047,0.188c1.219,0,1.828-0.586,1.828-1.758V342.613z"/>
	</g>
</g>
<g>
	<g>
		<path fill="#FFFFFF" d="M346.394,728.568c1.727-2.406,3.02-5.172,3.879-8.297h-3.598v-1.57h3.633v-4.664h1.711v4.664h3.422v1.57
			h-3.422v4.078l0.938-0.961c1.078,1.047,2.07,2.055,2.977,3.023l-1.266,1.242c-0.859-1.016-1.742-2.004-2.648-2.965v12.199h-1.711
			v-12.199c-0.844,2.32-1.867,4.293-3.07,5.918C347.003,729.936,346.722,729.256,346.394,728.568z M356.308,715.514h12.328v21.422
			h-1.781v-1.594h-8.766v1.594h-1.781V715.514z M366.854,717.107h-8.766v4.5h8.766V717.107z M358.089,727.654h8.766v-4.5h-8.766
			V727.654z M358.089,733.748h8.766v-4.547h-8.766V733.748z"/>
		<path fill="#FFFFFF" d="M371.331,734.006h18.563v-4.031h-17.133v-1.664h17.133v-3.961h-17.883v-1.664h9.07v-8.695h1.945v8.695
			h8.813v14.391h-1.945v-1.406h-18.563V734.006z M372.761,716.311l1.313-1.172c1.688,1.578,3.258,3.227,4.711,4.945l-1.57,1.336
			C375.901,719.701,374.417,717.998,372.761,716.311z M391.511,716.404c-1.672,1.891-3.336,3.594-4.992,5.109l-1.406-1.266
			c1.594-1.438,3.195-3.148,4.805-5.133L391.511,716.404z"/>
		<path fill="#FFFFFF" d="M394.511,723.506h10.898v-6.047h-9.023v-1.852h19.406v1.852h-8.414v6.047h10.195v1.852h-10.195v8.039
			c0,1.063-0.195,1.828-0.586,2.297c-0.438,0.547-1.258,0.836-2.461,0.867c-0.703,0-2.023-0.008-3.961-0.023
			c-0.078-0.719-0.203-1.43-0.375-2.133c1.766,0.125,2.992,0.188,3.68,0.188c0.703,0,1.172-0.133,1.406-0.398
			c0.219-0.219,0.328-0.711,0.328-1.477v-7.359h-10.898V723.506z"/>
		<path fill="#FFFFFF" d="M418.417,720.646c2.313-1.969,4.125-4.266,5.438-6.891h2.109c-0.367,0.727-0.754,1.422-1.16,2.086h16.324
			v1.688h-17.426c-1.219,1.734-2.59,3.258-4.113,4.57C419.261,721.646,418.87,721.162,418.417,720.646z M418.511,725.592h3.445
			l1.055-5.859h15.492c-0.086,2.094-0.168,4.047-0.246,5.859h3.41v1.688h-3.48c-0.07,1.531-0.137,2.953-0.199,4.266h2.836v1.641
			h-2.965c-0.156,1.141-0.473,1.969-0.949,2.484c-0.609,0.672-1.672,1.008-3.188,1.008c-0.875,0-1.992-0.031-3.352-0.094
			c-0.078-0.531-0.195-1.164-0.352-1.898c1.609,0.141,2.766,0.211,3.469,0.211c0.984,0,1.633-0.188,1.945-0.563
			c0.211-0.219,0.371-0.602,0.48-1.148h-15.012v-1.758l0.75-4.148h-3.141V725.592z M436.288,727.279h-12.727l-0.738,4.266h13.266
			C436.167,730.154,436.233,728.732,436.288,727.279z M436.511,721.373h-11.906l-0.738,4.219h12.504
			C436.417,724.217,436.464,722.811,436.511,721.373z M427.675,728.639l1.102-1.219c1.188,0.922,2.234,1.773,3.141,2.555
			l-1.242,1.383C429.472,730.232,428.472,729.326,427.675,728.639z M427.862,722.686l1.102-1.219
			c1.188,0.922,2.234,1.773,3.141,2.555l-1.266,1.406C429.87,724.475,428.878,723.561,427.862,722.686z"/>
		<path fill="#FFFFFF" d="M455.542,714.436l-0.352,0.539c2.531,4.172,6.047,7.156,10.547,8.953
			c-0.484,0.766-0.898,1.469-1.242,2.109c-4.594-2.406-8.07-5.508-10.43-9.305c-2.313,3.609-5.82,6.82-10.523,9.633
			c-0.344-0.563-0.742-1.18-1.195-1.852c4.875-2.703,8.5-6.063,10.875-10.078H455.542z M452.964,722.498h2.133v14.508h-2.133
			V722.498z"/>
		<path fill="#FFFFFF" d="M466.347,732.693c2.039-0.703,4.453-1.625,7.242-2.766v-7.383h-6.75v-1.734h6.75v-6.586h1.898v22.523
			h-1.898v-4.863c-1.5,0.609-3.664,1.496-6.492,2.66L466.347,732.693z M480.151,714.178h1.898v7.934
			c2.133-1.094,4.125-2.293,5.977-3.598l1.172,1.688c-1.688,1.063-4.07,2.363-7.148,3.902v8.613c0,1.063,0.586,1.594,1.758,1.594
			h1.641c1.125,0,1.758-0.531,1.898-1.594c0.141-0.984,0.266-2.266,0.375-3.844c0.688,0.281,1.352,0.531,1.992,0.75
			c-0.156,1.484-0.328,2.75-0.516,3.797c-0.297,1.781-1.398,2.672-3.305,2.672h-2.531c-2.141,0-3.211-1.055-3.211-3.164V714.178z"/>
		<path fill="#FFFFFF" d="M496.628,729.834l1.289,1.406c-2.094,1.578-4.195,3.023-6.305,4.336c-0.297-0.531-0.656-1.055-1.078-1.57
			C492.675,732.771,494.706,731.381,496.628,729.834z M490.604,717.154h10.828c-0.445-0.828-0.953-1.68-1.523-2.555l1.711-0.844
			c0.625,0.938,1.234,1.906,1.828,2.906l-0.938,0.492h11.016v1.641h-22.922V717.154z M493.651,720.881h16.758v7.922h-1.828v-0.938
			h-5.391v5.953c0,1.852-0.883,2.789-2.648,2.813c-1.125,0-2.148,0-3.07,0c-0.109-0.672-0.227-1.305-0.352-1.898
			c1.047,0.094,1.953,0.141,2.719,0.141c0.984,0.031,1.477-0.477,1.477-1.523v-5.484h-5.836v1.055h-1.828V720.881z M508.581,722.498
			h-13.102v3.75h13.102V722.498z M505.722,731.404l1.102-1.406c2.141,1.266,4.195,2.547,6.164,3.844l-1.242,1.617
			C510.089,734.225,508.081,732.873,505.722,731.404z"/>
		<path fill="#FFFFFF" d="M514.417,734.99c6.813-3.938,10.414-10.844,10.805-20.719h2.063c-0.086,1.672-0.25,3.266-0.492,4.781
			c1.938,7.813,5.578,12.953,10.922,15.422c-0.656,0.719-1.234,1.398-1.734,2.039c-4.641-2.625-7.949-7.27-9.926-13.934
			c-1.711,6.438-5.098,11.168-10.16,14.191C515.472,736.193,514.979,735.6,514.417,734.99z"/>
		<path fill="#FFFFFF" d="M346.417,754.646c2.313-1.969,4.125-4.266,5.438-6.891h2.109c-0.367,0.727-0.754,1.422-1.16,2.086h16.324
			v1.688h-17.426c-1.219,1.734-2.59,3.258-4.113,4.57C347.261,755.646,346.87,755.162,346.417,754.646z M346.511,759.592h3.445
			l1.055-5.859h15.492c-0.086,2.094-0.168,4.047-0.246,5.859h3.41v1.688h-3.48c-0.07,1.531-0.137,2.953-0.199,4.266h2.836v1.641
			h-2.965c-0.156,1.141-0.473,1.969-0.949,2.484c-0.609,0.672-1.672,1.008-3.188,1.008c-0.875,0-1.992-0.031-3.352-0.094
			c-0.078-0.531-0.195-1.164-0.352-1.898c1.609,0.141,2.766,0.211,3.469,0.211c0.984,0,1.633-0.188,1.945-0.563
			c0.211-0.219,0.371-0.602,0.48-1.148h-15.012v-1.758l0.75-4.148h-3.141V759.592z M364.288,761.279h-12.727l-0.738,4.266h13.266
			C364.167,764.154,364.233,762.732,364.288,761.279z M364.511,755.373h-11.906l-0.738,4.219h12.504
			C364.417,758.217,364.464,756.811,364.511,755.373z M355.675,762.639l1.102-1.219c1.188,0.922,2.234,1.773,3.141,2.555
			l-1.242,1.383C357.472,764.232,356.472,763.326,355.675,762.639z M355.862,756.686l1.102-1.219
			c1.188,0.922,2.234,1.773,3.141,2.555l-1.266,1.406C357.87,758.475,356.878,757.561,355.862,756.686z"/>
		<path fill="#FFFFFF" d="M370.487,763.061h3.773v-6.703h8.297v-4.172h-6.891c-1.055,1.898-2.234,3.648-3.539,5.25
			c-0.406-0.438-0.891-0.875-1.453-1.313c2.219-2.5,3.883-5.305,4.992-8.414l1.922,0.539c-0.328,0.773-0.672,1.523-1.031,2.25
			h16.125v1.688h-8.227v4.172h7.828v1.641h-7.828v5.063h9.281v1.688h-9.281v6.328h-1.898v-6.328h-12.07V763.061z M376.112,763.061
			h6.445v-5.063h-6.445V763.061z"/>
		<path fill="#FFFFFF" d="M403.276,749.959c1.422,1.844,2.656,3.617,3.703,5.32c-0.594,0.406-1.133,0.766-1.617,1.078
			c-0.305-0.539-0.629-1.09-0.973-1.652c-3.82,0.281-6.879,0.535-9.176,0.762l-0.75-1.969c0.688-0.375,1.445-1.078,2.273-2.109
			c0.859-1.125,1.703-2.383,2.531-3.773l1.852,0.68c-1.297,1.875-2.664,3.648-4.102,5.32c2.344-0.148,4.473-0.301,6.387-0.457
			c-0.492-0.742-1.02-1.504-1.582-2.285L403.276,749.959z M397.604,770.701h-1.828v-13.828h9.516v11.086
			c0,1.688-0.781,2.531-2.344,2.531c-0.688,0.016-1.57,0.023-2.648,0.023c-0.078-0.484-0.195-1.078-0.352-1.781
			c0.984,0.078,1.773,0.117,2.367,0.117c0.766,0,1.148-0.398,1.148-1.195v-1.945h-5.859V770.701z M403.464,758.373h-5.859v2.25
			h5.859V758.373z M397.604,764.303h5.859v-2.273h-5.859V764.303z M407.565,759.404h1.828v3.867
			c2.219-0.828,4.539-1.914,6.961-3.258l1.055,1.617c-2.555,1.344-5.227,2.535-8.016,3.574v2.027c0,0.984,0.383,1.477,1.148,1.477
			h3.445c0.797,0,1.258-0.383,1.383-1.148c0.109-0.688,0.203-1.711,0.281-3.07c0.594,0.234,1.203,0.453,1.828,0.656
			c-0.125,1.375-0.258,2.414-0.398,3.117c-0.203,1.375-1.18,2.063-2.93,2.063h-3.914c-1.781,0-2.672-0.914-2.672-2.742V759.404z
			 M407.612,747.967h1.828v4.02c2.148-0.852,4.281-1.879,6.398-3.082l1.055,1.617c-2.438,1.234-4.922,2.363-7.453,3.387v1.348
			c0,1.047,0.414,1.57,1.242,1.57h2.977c0.984,0,1.539-0.406,1.664-1.219c0.109-0.672,0.203-1.648,0.281-2.93
			c0.594,0.234,1.203,0.461,1.828,0.68c-0.125,1.25-0.258,2.266-0.398,3.047c-0.234,1.359-1.289,2.039-3.164,2.039h-3.422
			c-1.891,0-2.836-0.938-2.836-2.813V747.967z"/>
		<path fill="#FFFFFF" d="M418.229,757.482c3.219-2.281,5.969-5.391,8.25-9.328l1.664,0.914c-2.375,4.156-5.227,7.492-8.555,10.008
			C419.261,758.592,418.808,758.061,418.229,757.482z M421.417,758.256h15.586c-0.078,2.656-0.195,5.25-0.352,7.781
			c-0.188,2.922-1.57,4.375-4.148,4.359c-1.266,0.016-2.602-0.023-4.008-0.117c-0.094-0.656-0.203-1.32-0.328-1.992
			c1.203,0.172,2.547,0.266,4.031,0.281c1.563,0.031,2.422-0.883,2.578-2.742c0.125-1.688,0.219-3.633,0.281-5.836h-7.207
			c-0.188,2.609-0.73,4.711-1.629,6.305c-1.188,2.094-3.18,3.711-5.977,4.852c-0.406-0.531-0.852-1.055-1.336-1.57
			c2.594-0.969,4.461-2.375,5.602-4.219c0.82-1.398,1.293-3.188,1.418-5.367h-4.512V758.256z M431.12,748.506l1.688-0.727
			c1.719,4.188,4.734,7.32,9.047,9.398c-0.703,0.734-1.211,1.328-1.523,1.781C436.034,756.475,432.964,752.99,431.12,748.506z"/>
		<path fill="#FFFFFF" d="M443.097,761.35h5.508v-2.906h1.875v2.906h5.367v1.734h-5.367v4.125c1.844-0.234,3.742-0.484,5.695-0.75
			c0,0.547,0.031,1.156,0.094,1.828c-4.422,0.547-8.867,1.148-13.336,1.805l-0.539-1.969c1.992-0.203,4.063-0.434,6.211-0.691
			v-4.348h-5.508V761.35z M452.753,752.396c1.25,1.844,2.422,3.766,3.516,5.766c-0.594,0.281-1.195,0.594-1.805,0.938
			c-0.273-0.578-0.555-1.148-0.844-1.711c-3.367,0.328-6.563,0.648-9.586,0.961l-0.844-1.945c0.906-0.484,1.688-1.258,2.344-2.32
			c0.602-0.906,1.191-1.922,1.77-3.047h-4.371v-1.734h13.453v1.734h-6.867c-1.164,1.977-2.344,3.773-3.539,5.391
			c2.227-0.164,4.492-0.367,6.797-0.609c-0.516-0.898-1.055-1.773-1.617-2.625L452.753,752.396z M457.651,750.428h1.898v14.93
			h-1.898V750.428z M462.737,747.896h1.945v19.828c0,1.953-0.945,2.93-2.836,2.93c-0.641,0-1.781-0.008-3.422-0.023
			c-0.094-0.641-0.211-1.344-0.352-2.109c1.375,0.125,2.438,0.188,3.188,0.188c0.984,0.016,1.477-0.492,1.477-1.523V747.896z"/>
		<path fill="#FFFFFF" d="M468.116,765.064c1.219,0.797,2.488,1.195,3.809,1.195c1.25,0,2.258-0.35,3.023-1.049
			s1.148-1.627,1.148-2.783c0-1.164-0.389-2.066-1.166-2.707s-1.904-0.961-3.381-0.961c-0.711,0-1.668,0.055-2.871,0.164v-9.223
			h8.93v2.027h-6.797v5.133c0.68-0.039,1.191-0.059,1.535-0.059c1.914,0,3.406,0.484,4.477,1.453s1.605,2.305,1.605,4.008
			c0,1.758-0.574,3.18-1.723,4.266s-2.734,1.629-4.758,1.629c-1.695,0-2.973-0.25-3.832-0.75V765.064z"/>
		<path fill="#FFFFFF" d="M481.183,759.135c0-3.203,0.531-5.627,1.594-7.271s2.602-2.467,4.617-2.467
			c3.844,0,5.766,3.102,5.766,9.305c0,3.063-0.541,5.404-1.623,7.025s-2.6,2.432-4.553,2.432c-1.844,0-3.271-0.77-4.283-2.309
			S481.183,762.072,481.183,759.135z M483.526,759.029c0,4.82,1.223,7.23,3.668,7.23c2.406,0,3.609-2.449,3.609-7.348
			c0-5.07-1.18-7.605-3.539-7.605C484.772,751.307,483.526,753.881,483.526,759.029z"/>
		<path fill="#FFFFFF" d="M495.257,759.135c0-3.203,0.531-5.627,1.594-7.271s2.602-2.467,4.617-2.467
			c3.844,0,5.766,3.102,5.766,9.305c0,3.063-0.541,5.404-1.623,7.025s-2.6,2.432-4.553,2.432c-1.844,0-3.271-0.77-4.283-2.309
			S495.257,762.072,495.257,759.135z M497.601,759.029c0,4.82,1.223,7.23,3.668,7.23c2.406,0,3.609-2.449,3.609-7.348
			c0-5.07-1.18-7.605-3.539-7.605C498.847,751.307,497.601,753.881,497.601,759.029z"/>
		<path fill="#FFFFFF" d="M509.952,750.475h6.07v16.055h-1.688v-1.242h-2.695v1.617h-1.688V750.475z M514.335,752.115h-2.695v11.531
			h2.695V752.115z M516.937,750.943h6.141v-2.953h1.734v2.953h6.469v1.688h-6.469v8.344h3.422v-6.352h1.688v8.953h-1.688v-0.961
			h-3.422v4.43c0,1.031,0.422,1.547,1.266,1.547h2.32c0.859,0,1.344-0.422,1.453-1.266c0.141-1.063,0.258-2.211,0.352-3.445
			c0.641,0.281,1.227,0.531,1.758,0.75c-0.156,1.297-0.313,2.414-0.469,3.352c-0.234,1.531-1.258,2.297-3.07,2.297h-2.742
			c-1.734,0-2.602-0.992-2.602-2.977v-4.688h-5.086v-7.969h1.688v6.328h3.398v-8.344h-6.141V750.943z"/>
		<path fill="#FFFFFF" d="M533.226,755.49v-1.781h8.086v1.711c-1.328,5.125-3.75,9.516-7.266,13.172
			c-0.531-0.609-1.008-1.086-1.43-1.43c3.531-3.719,5.805-7.609,6.82-11.672H533.226z M543.233,747.99h1.898v3.762
			c0.672,1.828,1.441,3.527,2.309,5.098c1.727-1.438,3.449-3.156,5.168-5.156l1.57,1.406c-1.828,1.914-3.758,3.699-5.789,5.355
			c2.063,3.266,4.586,5.918,7.57,7.957c-0.656,0.656-1.188,1.242-1.594,1.758c-4.109-3.234-7.188-7.238-9.234-12.012v10.957
			c0,2.328-1.117,3.492-3.352,3.492c-0.688,0-1.703-0.008-3.047-0.023c-0.078-0.578-0.203-1.281-0.375-2.109
			c1.25,0.125,2.266,0.188,3.047,0.188c1.219,0,1.828-0.586,1.828-1.758V747.99z"/>
	</g>
</g>
<g>
	<g>
		<path fill="#FFFFFF" d="M346.395,540.561c1.727-2.406,3.02-5.172,3.879-8.297h-3.598v-1.57h3.633v-4.664h1.711v4.664h3.422v1.57
			h-3.422v4.078l0.938-0.961c1.078,1.047,2.07,2.055,2.977,3.023l-1.266,1.242c-0.859-1.016-1.742-2.004-2.648-2.965v12.199h-1.711
			v-12.199c-0.844,2.32-1.867,4.293-3.07,5.918C347.004,541.928,346.723,541.248,346.395,540.561z M356.309,527.506h12.328v21.422
			h-1.781v-1.594h-8.766v1.594h-1.781V527.506z M366.855,529.1h-8.766v4.5h8.766V529.1z M358.09,539.646h8.766v-4.5h-8.766V539.646z
			 M358.09,545.74h8.766v-4.547h-8.766V545.74z"/>
		<path fill="#FFFFFF" d="M371.332,545.998h18.563v-4.031h-17.133v-1.664h17.133v-3.961h-17.883v-1.664h9.07v-8.695h1.945v8.695
			h8.813v14.391h-1.945v-1.406h-18.563V545.998z M372.762,528.303l1.313-1.172c1.688,1.578,3.258,3.227,4.711,4.945l-1.57,1.336
			C375.902,531.693,374.418,529.99,372.762,528.303z M391.512,528.396c-1.672,1.891-3.336,3.594-4.992,5.109l-1.406-1.266
			c1.594-1.438,3.195-3.148,4.805-5.133L391.512,528.396z"/>
		<path fill="#FFFFFF" d="M394.512,535.498h10.898v-6.047h-9.023V527.6h19.406v1.852h-8.414v6.047h10.195v1.852h-10.195v8.039
			c0,1.063-0.195,1.828-0.586,2.297c-0.438,0.547-1.258,0.836-2.461,0.867c-0.703,0-2.023-0.008-3.961-0.023
			c-0.078-0.719-0.203-1.43-0.375-2.133c1.766,0.125,2.992,0.188,3.68,0.188c0.703,0,1.172-0.133,1.406-0.398
			c0.219-0.219,0.328-0.711,0.328-1.477v-7.359h-10.898V535.498z"/>
		<path fill="#FFFFFF" d="M430.664,545.846h-10.406v-1.98h4.066v-13.781l-4.172,1.207v-2.109l6.457-1.875v16.559h4.055V545.846z"/>
		<path fill="#FFFFFF" d="M433.184,537.127c0-3.203,0.531-5.627,1.594-7.271s2.602-2.467,4.617-2.467
			c3.844,0,5.766,3.102,5.766,9.305c0,3.063-0.541,5.404-1.623,7.025s-2.6,2.432-4.553,2.432c-1.844,0-3.271-0.77-4.283-2.309
			S433.184,540.064,433.184,537.127z M435.527,537.021c0,4.82,1.223,7.23,3.668,7.23c2.406,0,3.609-2.449,3.609-7.348
			c0-5.07-1.18-7.605-3.539-7.605C436.773,529.299,435.527,531.873,435.527,537.021z"/>
		<path fill="#FFFFFF" d="M447.258,537.127c0-3.203,0.531-5.627,1.594-7.271s2.602-2.467,4.617-2.467
			c3.844,0,5.766,3.102,5.766,9.305c0,3.063-0.541,5.404-1.623,7.025s-2.6,2.432-4.553,2.432c-1.844,0-3.271-0.77-4.283-2.309
			S447.258,540.064,447.258,537.127z M449.602,537.021c0,4.82,1.223,7.23,3.668,7.23c2.406,0,3.609-2.449,3.609-7.348
			c0-5.07-1.18-7.605-3.539-7.605C450.848,529.299,449.602,531.873,449.602,537.021z"/>
		<path fill="#FFFFFF" d="M473.766,526.428l-0.352,0.539c2.531,4.172,6.047,7.156,10.547,8.953
			c-0.484,0.766-0.898,1.469-1.242,2.109c-4.594-2.406-8.07-5.508-10.43-9.305c-2.313,3.609-5.82,6.82-10.523,9.633
			c-0.344-0.563-0.742-1.18-1.195-1.852c4.875-2.703,8.5-6.063,10.875-10.078H473.766z M471.188,534.49h2.133v14.508h-2.133V534.49z
			"/>
		<path fill="#FFFFFF" d="M484.922,527.412h22.781v1.688h-7.57v3.469h6.633v16.453h-1.875v-1.453h-16.688v1.453h-1.875v-16.453
			h6.398c0.031-1.109,0.055-2.266,0.07-3.469h-7.875V527.412z M504.891,545.881v-4.078h-4.336c-1.516,0-2.273-0.859-2.273-2.578
			v-4.969h-3.75c-0.156,3.656-1.672,6.547-4.547,8.672c-0.391-0.484-0.859-0.984-1.406-1.5c2.531-1.656,3.891-4.047,4.078-7.172
			h-4.453v11.625H504.891z M494.602,532.568h3.68V529.1h-3.633C494.633,530.35,494.617,531.506,494.602,532.568z M501.258,540.115
			h3.633v-5.859h-4.758v4.688C500.133,539.725,500.508,540.115,501.258,540.115z"/>
		<path fill="#FFFFFF" d="M509.719,532.451c1.219,0.969,2.492,2.023,3.82,3.164c-0.594,0.625-1.055,1.117-1.383,1.477
			c-0.969-0.953-2.172-2.07-3.609-3.352L509.719,532.451z M511.688,539.201c0.734,0.391,1.352,0.68,1.852,0.867
			c-0.484,1.719-1.266,4.602-2.344,8.648l-1.922-0.891C510.258,545.123,511.063,542.248,511.688,539.201z M510.797,526.428
			c1.281,1.031,2.5,2.078,3.656,3.141c-0.516,0.484-0.977,0.945-1.383,1.383c-0.875-0.969-2.031-2.094-3.469-3.375L510.797,526.428z
			 M514.805,536.084h2.555v-3.844h-3.234v-1.594h3.234v-4.688h1.711v4.688h3.258v1.594h-3.258v3.844h2.414v8.203h-5.039v1.641
			h-1.641V536.084z M519.844,542.74v-5.109h-3.398v5.109H519.844z M523.406,527.084h6.844v19.172c0,1.469-0.758,2.203-2.273,2.203
			c-0.906,0-1.805-0.023-2.695-0.07c-0.047-0.453-0.141-1.047-0.281-1.781c1.188,0.109,2.039,0.164,2.555,0.164
			c0.688,0,1.031-0.344,1.031-1.031v-5.32h-3.703c-0.109,3.078-1.398,5.93-3.867,8.555c-0.422-0.422-0.914-0.852-1.477-1.289
			c1.594-1.469,2.641-3.016,3.141-4.641c0.484-1.469,0.727-3.977,0.727-7.523V527.084z M524.988,538.967h3.598v-4.453h-3.516
			C525.086,535.936,525.059,537.42,524.988,538.967z M528.586,528.607h-3.516v4.453h3.516V528.607z"/>
	</g>
</g>
<g>
	<g>
		<path fill="#F7CC48" d="M219.812,332.338l14.25,14.25l14.313-14.25l3.633,3.632l-14.25,14.313l14.25,14.219l-3.633,3.695
			l-14.313-14.313l-14.25,14.313l-3.602-3.695l14.219-14.219L216.21,335.97L219.812,332.338z"/>
		<path fill="#F7CC48" d="M277.063,369.222V330.04h-9.408l2.856-5.836H283.8v45.019H277.063z"/>
	</g>
</g>
<g>
	<g>
		<path fill="#F7CC48" d="M165.628,522.893l14.25,14.25l14.313-14.25l3.633,3.633l-14.25,14.313l14.25,14.219l-3.633,3.695
			l-14.313-14.313l-14.25,14.313l-3.602-3.695l14.219-14.219l-14.219-14.313L165.628,522.893z"/>
		<path fill="#F7CC48" d="M222.88,559.777v-39.184h-9.408l2.856-5.836h13.288v45.02H222.88z"/>
		<path fill="#F7CC48" d="M280.038,537.889c0,7.223-1.455,12.879-4.363,16.967s-6.907,6.133-11.999,6.133
			c-5.153,0-9.165-2.066-12.031-6.195s-4.3-9.93-4.3-17.402c0-7.408,1.449-13.184,4.347-17.324
			c2.897-4.139,6.923-6.209,12.077-6.209c5.217,0,9.231,2.076,12.047,6.225C278.63,524.232,280.038,530.168,280.038,537.889z
			 M263.552,554.623c3.021,0,5.293-1.443,6.814-4.332c1.521-2.887,2.282-7.207,2.282-12.961c0-5.59-0.751-9.848-2.251-12.777
			c-1.501-2.928-3.689-4.393-6.566-4.393c-3.002,0-5.268,1.459-6.8,4.377c-1.532,2.92-2.298,7.225-2.298,12.916
			c0,5.527,0.762,9.77,2.283,12.73C258.537,553.143,260.716,554.623,263.552,554.623z"/>
		<path fill="#F7CC48" d="M318.443,537.889c0,7.223-1.454,12.879-4.362,16.967s-6.908,6.133-12,6.133
			c-5.153,0-9.164-2.066-12.031-6.195c-2.866-4.129-4.299-9.93-4.299-17.402c0-7.408,1.448-13.184,4.346-17.324
			c2.898-4.139,6.924-6.209,12.078-6.209c5.216,0,9.23,2.076,12.047,6.225C317.036,524.232,318.443,530.168,318.443,537.889z
			 M301.957,554.623c3.022,0,5.294-1.443,6.815-4.332c1.521-2.887,2.281-7.207,2.281-12.961c0-5.59-0.75-9.848-2.25-12.777
			c-1.502-2.928-3.69-4.393-6.566-4.393c-3.002,0-5.269,1.459-6.801,4.377c-1.531,2.92-2.297,7.225-2.297,12.916
			c0,5.527,0.761,9.77,2.282,12.73C296.942,553.143,299.121,554.623,301.957,554.623z"/>
	</g>
</g>
<g>
	<g>
		<path fill="#F7CC48" d="M163.938,728.223l12.326,12.328l12.381-12.328l3.142,3.143l-12.327,12.381l12.327,12.299l-3.142,3.197
			l-12.381-12.381l-12.326,12.381l-3.115-3.197l12.299-12.299l-12.299-12.381L163.938,728.223z"/>
		<path fill="#F7CC48" d="M205.269,750.729c0.913,1.684,2.086,2.973,3.518,3.867c1.433,0.895,3.025,1.342,4.781,1.342
			c2.596,0,4.699-0.828,6.311-2.484c1.611-1.654,2.417-3.834,2.417-6.539c0-2.596-0.846-4.707-2.538-6.338
			c-1.691-1.629-3.907-2.443-6.646-2.443c-1.647,0-3.174,0.281-4.579,0.846s-2.646,1.402-3.72,2.512l-1.584-0.35l4.888-19.953
			h18.584v5.184h-14.743l-2.311,8.674c1.074-0.447,2.113-0.779,3.115-0.994c1.003-0.215,2.006-0.322,3.008-0.322
			c3.742,0,6.785,1.199,9.131,3.6c2.346,2.398,3.519,5.523,3.519,9.371c0,4.404-1.37,7.918-4.108,10.541
			c-2.74,2.623-6.41,3.936-11.012,3.936c-2.721,0-5.084-0.471-7.09-1.41c-2.005-0.941-3.732-2.395-5.183-4.365L205.269,750.729z"/>
		<path fill="#F7CC48" d="M262.9,741.195c0,6.248-1.258,11.141-3.773,14.676c-2.515,3.535-5.976,5.305-10.38,5.305
			c-4.457,0-7.926-1.787-10.406-5.359c-2.479-3.57-3.719-8.588-3.719-15.051c0-6.41,1.252-11.404,3.76-14.986
			c2.506-3.58,5.988-5.371,10.446-5.371c4.512,0,7.985,1.795,10.42,5.385S262.9,734.518,262.9,741.195z M248.64,755.67
			c2.614,0,4.579-1.25,5.896-3.746c1.315-2.498,1.974-6.234,1.974-11.213c0-4.834-0.648-8.518-1.947-11.051
			c-1.298-2.533-3.191-3.801-5.68-3.801c-2.596,0-4.557,1.264-5.881,3.787c-1.326,2.525-1.988,6.248-1.988,11.172
			c0,4.781,0.658,8.451,1.975,11.012C244.303,754.391,246.187,755.67,248.64,755.67z"/>
		<path fill="#F7CC48" d="M296.12,741.195c0,6.248-1.258,11.141-3.772,14.676c-2.516,3.535-5.976,5.305-10.38,5.305
			c-4.458,0-7.927-1.787-10.406-5.359c-2.48-3.57-3.72-8.588-3.72-15.051c0-6.41,1.253-11.404,3.76-14.986
			c2.507-3.58,5.989-5.371,10.446-5.371c4.512,0,7.985,1.795,10.42,5.385C294.903,729.383,296.12,734.518,296.12,741.195z
			 M281.86,755.67c2.613,0,4.579-1.25,5.895-3.746c1.316-2.498,1.975-6.234,1.975-11.213c0-4.834-0.649-8.518-1.947-11.051
			c-1.299-2.533-3.191-3.801-5.68-3.801c-2.597,0-4.557,1.264-5.882,3.787c-1.325,2.525-1.987,6.248-1.987,11.172
			c0,4.781,0.658,8.451,1.974,11.012C277.523,754.391,279.407,755.67,281.86,755.67z"/>
		<path fill="#F7CC48" d="M300.7,738.404h7.588v20.068h-2.109v-1.553h-3.369v2.021H300.7V738.404z M306.179,740.455h-3.369v14.414
			h3.369V740.455z M309.431,738.99h7.676v-3.691h2.168v3.691h8.086v2.109h-8.086v10.43h4.277v-7.939h2.109v11.191h-2.109v-1.201
			h-4.277v5.537c0,1.289,0.527,1.934,1.582,1.934h2.9c1.074,0,1.68-0.527,1.816-1.582c0.176-1.328,0.322-2.764,0.439-4.307
			c0.801,0.352,1.533,0.664,2.197,0.938c-0.195,1.621-0.391,3.018-0.586,4.189c-0.293,1.914-1.572,2.871-3.838,2.871h-3.428
			c-2.168,0-3.252-1.24-3.252-3.721v-5.859h-6.357v-9.961h2.109v7.91h4.248V741.1h-7.676V738.99z"/>
	</g>
</g>
</svg>
