<?xml version="1.0" encoding="utf-8"?>
<!-- Generator: Adobe Illustrator 16.0.0, SVG Export Plug-In . SVG Version: 6.00 Build 0)  -->
<!DOCTYPE svg PUBLIC "-//W3C//DTD SVG 1.1//EN" "http://www.w3.org/Graphics/SVG/1.1/DTD/svg11.dtd">
<svg version="1.1" id="图层_1" xmlns="http://www.w3.org/2000/svg" xmlns:xlink="http://www.w3.org/1999/xlink" x="0px" y="0px"
	 width="640px" height="960px" viewBox="0 0 640 960" enable-background="new 0 0 640 960" xml:space="preserve">
<g>
	<g>
		<path opacity="0.9" fill="none" stroke="#FFFFFF" stroke-miterlimit="10" d="M306.942,828.421c0,0-2.661,5.347-1.997,7.349
			c1.333,2.01,1.997,2.669,4.003,4.672c1.336,2.009,3.34,2.009,5.339,4.674c1.334,2.669,3.34,5.35,8.677,5.35
			c4.677,0,12.02,1.328,13.351-0.672c2.007-2.672,3.347-8.683,4.674-10.015c2.004-1.34,6.016-1.34,6.016-1.34l3.331-3.331
			c0,0,12.016-4.009,15.351-3.34c3.34,0,4.014,3.34,5.344,3.34c2.01,0.662,2.01-1.34,4.009-3.34
			c1.339-1.331,2.668-1.331,4.006-0.669c2.002,0.669,5.339,4.009,6.677,0.669c0.666-4.003,0-8.687,2.003-10.018
			c1.334-1.331,8.674-3.327,10.008-5.34c2.007-1.997,2.668-4,4.674-4.671c2.004-0.666,12.021,0,19.362-0.666
			c7.341-0.665,6.676-0.665,9.344-4.009c4.003-3.334,4.003-2.003,8.005-2.003c4.006,0.672,5.347,0,8.019,0
			c3.34,0.672,5.337,5.347,5.337,5.347s1.336,2.002,5.349,1.331c3.998-1.331,3.331-2.672,6-1.331
			c3.342,1.331,8.016,2.661,8.683,5.343c0,2.672,0.659,8.674,2.663,9.343c2.008,0.672,3.339,1.999,3.339,1.999
			s4.003,4.675,4.675,6.675c1.339,2.002-0.672,4.671-0.672,4.671s-5.334,2.003-1.331,3.34c3.342,2.003,8.674,4.016,8.674,0.672
			c0-2.672-1.329-3.34-1.329-3.34s8.006-6.677,9.34-8.012c2.013-1.334,6.016-8.018,6.016-10.68c0-3.341,0-7.35,0-7.35
			s3.337,2.682,4.012,4.672c0.659,2.678-2.672,10.023-3.354,12.023c0,2.003,0,7.343,0,7.343l-0.657,4.003c0,0-4.668,0-5.343,2.003
			c-0.673,2.002-2.007,2.681,1.34,2.681c4.003,0,9.346,0.655,10.019-2.013c0-2.003,0.655-8.674,0.655-8.674s1.331,0.662,2.675,3.331
			c0.671,2.672,0.671,8.011,0.671,8.011s0,2.004,2.671,1.335c2.668-0.663,3.34-0.663,3.34-0.663s-0.672,3.999,0,5.337
			c1.325,2.01,2.664,4.01,3.331,6.012c0,2.01,0,7.344,0,7.344s4.671,4.671,7.345,5.339c2.671,1.332,9.342,4.672,12.687,4.672
			c3.333,0,9.341,2.003,9.341,2.003s2.675,2.668,4.672,0c2.001-2.003,2.001-2.665,4.004-4.003c2.005-0.668,2.683,2,3.339-0.668
			c0-2.004-1.995,0,0-2.004c2.671-2.671,4.682-3.337,4.682-3.337s3.987,0,3.987,1.997c0,2.002,0,6.68,0,6.68
			s4.686,1.335,5.358,2.665c1.33,2.01,4.675,0,4.675,0s6.001,2.676,7.335,0c1.34-2.665,1.34-7.343,3.34-9.345
			c1.331-1.997,2.671-3.331,4.678-2.676c2.006,0.679,4.003,4.016,4.003,0.679c0-3.344,2.658-16.022,4.675-20.694
			c1.997-4.671,8.008-14.013,8.008-14.013l11.347-29.378c0,0,0.672-9.349,1.999-12.679c0.673-2.685,5.344-16.03,2.676-21.373
			c-2.003-6.002-2.676-8.67-2.676-13.345c0-4.672,1.332-11.354,1.332-13.354c0-2.003-3.331-12.68-6.673-14.017
			c-2.668-2.004-6.673-6.003-9.341-6.675c-3.331-0.668-4.014-2-4.014-6.009c-0.661-3.334-1.328-8.005-2.658-8.681
			c-1.345-1.334-3.341-4.677-4.003-9.342c0-4.671,0-12.026-1.344-14.686c-0.669-3.34-18.017-12.686-20.027-14.694
			c-2.001-2.662-4.004-6.006-4.676-9.344c-0.662-2.674,0.672-4.674-0.662-6.673c-1.333-2.01-3.352-2.672-3.352-6.006
			c-0.651-2.668-3.319-16.026-4.664-18.036c-1.334-2.665-4.005-4.664-5.339-4.664c-2.005,0-6.009,1.999-7.339,1.335
			c-1.329,0-1.329-2.672-1.329-7.347c0-4.009-1.344-10.015-2.685-10.683c-0.668-1.331-3.999-6.675-4.671-9.343
			c0-2.666,0-5.34,0-6.678c-0.665-1.334-3.331-2.668-3.331-2.668s-6.681,8.677-6.681,10.683c-0.663,1.331-1.33,3.335-0.663,4.675
			c0,2,1.336,2,0.663,3.999c-1.33,2.017-3.329,3.344-3.329,4.672c0,1.334-1.345,6.674,0,10.018
			c1.999,2.672,1.999,16.691,1.327,19.356c0,2.672-1.327,13.354-3.331,15.357c-1.34,2.002-4.014,4.671-7.344,2.672
			c-3.347-2-2.681-7.343-6.01-8.015c-3.336-0.659-3.336-0.659-5.344-0.659c-2.003,0-1.344-4.016-4.675-5.35
			c-4.014-1.993-8.674-1.334-10.687-1.334c-2.658-0.659-8.668-3.34-11.342-6.006c-2.668-3.34-4.671-8.012-4.012-10.021
			c0-1.33,0-2.002,2.011-3.329c1.344-2.004,4.003-2.672,2.001-4.013c-2.001-1.334-4.671,0-4.012-0.662
			c0.672-1.341,0.672-4.012,2.011-4.669c1.344-0.671,5.332-3.346,6.673-4.674c1.334-1.327,2.006-4.684,0-8.015
			c-1.341-3.333-2.67-4.671-4-4.003c-1.329,0.67-4.012,2.004-5.343,3.335c-1.333,1.34-3.344,1.999-6.015,1.999
			c-2.672,0-8.011-2.669-10.676-4.003c-2.668-1.331-6.01-3.337-8.681-4.671c-2.67-1.337-4.678-1.337-4.678-1.337
			s-1.997,1.337-0.659,2.009c1.331,0.662,2.667,1.331,4.01,2.668c0.652,0.67,1.999,1.331,2.67,3.335
			c0.661,1.999,1.328,3.34-0.671,3.34c-1.347,0-6.675-1.341-8.676-1.341c-2.011-0.659-5.352,0-7.339,0.669
			c-2.019,0.672-4.677,4.003-4.677,5.343c-0.675,1.334,0,2-0.675,4.016c-0.669,1.33-2.004,3.327-3.338,4.658
			c-1.334,2.003-2.001,3.344-2.001,4.681c0,1.999,0,4.003,0.667,5.343c0.669,1.331,2.007,1.331,0.669,1.993
			c-1.336,0.679-6.005,0-7.341,0.679c-1.333,0-2.008,0.659-3.34,1.327c-0.663,1.335-2.002,2.666-2.002,2.666
			s-0.669-4.672-2.003-6.002c-0.672-0.663-4.003-4.671-5.337-6.006c-2.006-1.337-2.678-2.013-4.014-1.337
			c-1.334,0.668-1.334,1.337-2.001,2.672c0,0.664-2.002-1.335-2.002-1.335s-3.342,0.672-4.676,1.335
			c-1.999,0.664-4.003,1.327-5.338,1.999c-0.667,0-4.004,2.672-4.004,4.002c0,1.338,1.337,3.341,0.665,4.672
			c-0.665,1.341-2.665,2.678-4.002,3.347c-1.338,0.662-2.004,1.997-2.004,2.665c0,1.341,2.666,6.016,0.666,6.684
			c-2.668,0.659-2.668,0-4.003-1.344c-1.339-1.996-2.002-3.327-3.34-2.668c-0.664,0.672-1.329,2.009-0.664,3.344
			c1.336,1.327,1.336,6.011,0.664,6.67c-0.664,0.669-2.008,1.332-3.344-0.659c-0.66-1.34-1.323-4.684-3.333-5.343
			c-1.33-0.668-2.669,1.331-3.336,2.672c-1.336,0.659-4.004,5.33-4.004,6.674c-0.667,1.33-0.667,3.999-0.667,4.668
			c0.667,1.335,1.332,2.671,1.332,3.344c0,0.662-1.332,4.671-3.335,6.002c-2.006,2-4.674,6.002-5.337,6.684
			c-0.672,1.331-2.68,2.662-4.014,3.327c-1.334,0.676-6.678,2.678-9.343,3.341c-2.006,0.662-6.012,0.662-8.015,2.665
			c-1.999,2.002-6.003,5.353-6.671,6.015c0,0.669-6.01,0.669-8.68,0.669c-2.006,0-6.673,4.005-8.012,5.337
			c-1.34,0.675-9.346,5.339-10.682,6.677c-0.672,1.344-3.339,4.675-5.341,4.003c-1.334-0.668-0.669-2-0.669-3.335
			c0-0.668,1.336-2.006,0-2.006c-2.006,0-2.666,0-3.334,3.341c-0.668,2.672,0,4.012-0.668,6.684c0,2,0,2-0.666,4.671
			c-0.668,2.672-3.337,10.012-2.001,12.674c1.333,2.012,1.333,5.347,2.667,6.674c1.336,1.341,2.668,4.012,4.002,5.344
			c1.336,0.668,2.671,2.015,2.008,2.671c0,0.669-1.339,2.013-2.673,1.341c-1.341-0.672-3.337-2.676-3.337-3.344s-2.004-2-2.004-2
			s-0.663,0.666-0.663,2c0,1.347,1.333,2.672,2.001,3.344c0.666,1.331,2.002,4.005,2.002,4.005s-4.67-3.333-5.339-4.005
			c-0.672-0.672-2.679-0.672-2.006,0.672c0.668,1.331,2.006,3.999,3.342,5.327c2.001,1.344,4.003,0.672,5.335,4.015
			c2.003,3.341,3.342,6.675,3.342,9.347c0,1.995,1.331,10.673,1.331,12.673c0.665,2.009,1.999,3.353,4.007,4.68
			c1.339,2,1.339,4,2.004,6.012c1.338,1.99,1.338,10.678,2.671,12.015c0.664,0.666,1.336,2.672,1.998,4.672
			c0.672,2.006,2.008,2.006,2.008,6.011c0,4.01,0,15.352,0,15.352s-0.675,1.334-1.336,0
			C308.276,829.096,306.942,828.421,306.942,828.421z"/>
		<path fill="none" stroke="#FFFFFF" stroke-miterlimit="10" d="M441.792,596.786c0,0-0.657,2-0.657,3.338
			c0,1.334,0,2.665,1.325,1.995c1.344,0,3.34-0.661,4.675-1.995c1.339-1.338,0.667-3.338,0.667-3.338l-2.667-0.672L441.792,596.786z
			"/>
		<path fill="none" stroke="#FFFFFF" stroke-miterlimit="10" d="M494.535,619.474c-1.338,2.003-3.344,4.681-3.344,4.681
			s-0.662,1.999,0.672,1.999s3.999,0,3.999-1.327c0.665-1.341,1.338-2.009,1.338-3.35c0-1.334-0.673-2.662-0.673-2.662
			L494.535,619.474z"/>
	</g>
</g>
<path opacity="0.9" fill="none" stroke="#F7F7F7" stroke-miterlimit="10" d="M564.622,911.622c-0.656,0.665-1.995,3.34-0.656,4.671
	c1.992,1.999,1.992,1.999,3.999,4.003c1.339,2.009,3.34,3.336,2.679,4.68c0,1.331-0.672,2.004-0.672,2.004s-0.668,1.995-0.668,2.671
	c0,1.328,2.664,3.331,4.671,4.674c1.991,0.657,4.675,1.325,5.337,2.659c1.337,1.344,1.337,4.009,2.669,4.009
	c2.011,0.666,9.359-1.34,10.687-4.009c1.995-2.659,1.995-7.333,2.663-8.681c0-1.996,2.011-1.996,2.676-3.327
	c0.671-0.668,2.677-7.343,2.002-8.683c-0.672-2.003,0-4.006-2.667-4.006c-2.011-0.665-5.342,0-7.344,1.334
	c-2.013,1.341-1.335,2.003-2.669,3.34c-1.334,2.003-5.348,0-8.017-0.668c-2.007-1.331-2.669-3.335-6.021-4.671
	c-2.647-0.67-5.998-1.332-5.998-1.332h-2.002L564.622,911.622z"/>
<g>
	<defs>
		<path id="SVGID_1_" d="M564.622,911.622c-0.656,0.665-1.995,3.34-0.656,4.671c1.992,1.999,1.992,1.999,3.999,4.003
			c1.339,2.009,3.34,3.336,2.679,4.68c0,1.331-0.672,2.004-0.672,2.004s-0.668,1.995-0.668,2.671c0,1.328,2.664,3.331,4.671,4.674
			c1.991,0.657,4.675,1.325,5.337,2.659c1.337,1.344,1.337,4.009,2.669,4.009c2.011,0.666,9.359-1.34,10.687-4.009
			c1.995-2.659,1.995-7.333,2.663-8.681c0-1.996,2.011-1.996,2.676-3.327c0.671-0.668,2.677-7.343,2.002-8.683
			c-0.672-2.003,0-4.006-2.667-4.006c-2.011-0.665-5.342,0-7.344,1.334c-2.013,1.341-1.335,2.003-2.669,3.34
			c-1.334,2.003-5.348,0-8.017-0.668c-2.007-1.331-2.669-3.335-6.021-4.671c-2.647-0.67-5.998-1.332-5.998-1.332h-2.002
			L564.622,911.622z"/>
	</defs>
	<clipPath id="SVGID_2_">
		<use xlink:href="#SVGID_1_"  overflow="visible"/>
	</clipPath>
	<g clip-path="url(#SVGID_2_)">
		<g>
			<g opacity="0.7">
				
					<line fill="none" stroke="#FFFFFF" stroke-width="2" stroke-miterlimit="10" x1="571.817" y1="901.123" x2="525.194" y2="947.745"/>
			</g>
			<g opacity="0.7">
				
					<line fill="none" stroke="#FFFFFF" stroke-width="2" stroke-miterlimit="10" x1="581.142" y1="901.123" x2="534.519" y2="947.745"/>
			</g>
			<g opacity="0.7">
				
					<line fill="none" stroke="#FFFFFF" stroke-width="2" stroke-miterlimit="10" x1="590.466" y1="901.123" x2="543.843" y2="947.745"/>
			</g>
			<g opacity="0.7">
				
					<line fill="none" stroke="#FFFFFF" stroke-width="2" stroke-miterlimit="10" x1="599.79" y1="901.123" x2="553.167" y2="947.745"/>
			</g>
			<g opacity="0.7">
				
					<line fill="none" stroke="#FFFFFF" stroke-width="2" stroke-miterlimit="10" x1="609.114" y1="901.123" x2="562.491" y2="947.745"/>
			</g>
			<g opacity="0.7">
				
					<line fill="none" stroke="#FFFFFF" stroke-width="2" stroke-miterlimit="10" x1="618.438" y1="901.123" x2="571.815" y2="947.745"/>
			</g>
			<g opacity="0.7">
				
					<line fill="none" stroke="#FFFFFF" stroke-width="2" stroke-miterlimit="10" x1="627.763" y1="901.123" x2="581.14" y2="947.745"/>
			</g>
		</g>
	</g>
</g>
<g>
	<defs>
		<path id="SVGID_3_" d="M631.384,769.679c-2.003-6.002-2.676-8.67-2.676-13.345c0-4.672,1.332-11.354,1.332-13.354
			c0-2.003-3.331-12.68-6.673-14.017c-2.668-2.004-6.673-6.003-9.341-6.675c-3.331-0.668-4.014-2-4.014-6.009
			c-0.661-3.334-1.328-8.005-2.658-8.681c-1.345-1.334-3.341-4.677-4.003-9.342c0-4.671,0-12.026-1.344-14.686
			c-0.669-3.34-18.017-12.686-20.027-14.694c-2.001-2.662-4.004-6.006-4.676-9.344c-0.662-2.674,0.672-4.674-0.662-6.673
			c-1.333-2.01-3.352-2.672-3.352-6.006c-0.651-2.668-3.319-16.026-4.664-18.036c-1.334-2.665-4.005-4.664-5.339-4.664
			c-2.005,0-6.009,1.999-7.339,1.335c-1.329,0-1.329-2.672-1.329-7.347c0-4.009-1.344-10.015-2.685-10.683
			c-0.668-1.331-3.999-6.675-4.671-9.343c0-2.666,0-5.34,0-6.678c-0.665-1.334-3.331-2.668-3.331-2.668s-6.681,8.677-6.681,10.683
			c-0.663,1.331-1.33,3.335-0.663,4.675c0,2,1.336,2,0.663,3.999c-1.33,2.017-3.329,3.344-3.329,4.672c0,1.334-1.345,6.674,0,10.018
			c1.999,2.672,1.999,16.691,1.327,19.356c0,2.672-1.327,13.354-3.331,15.357c-1.34,2.002-4.014,4.671-7.344,2.672
			c-3.347-2-2.681-7.343-6.01-8.015c-3.336-0.659-3.336-0.659-5.344-0.659c-2.003,0-1.344-4.016-4.675-5.35
			c-4.014-1.993-8.674-1.334-10.687-1.334c-2.658-0.659-8.668-3.34-11.342-6.006c-2.668-3.34-4.671-8.012-4.012-10.021
			c0-1.33,0-2.002,2.011-3.329c1.344-2.004,4.003-2.672,2.001-4.013c-2.001-1.334-4.671,0-4.012-0.662
			c0.672-1.341,0.672-4.012,2.011-4.669c1.344-0.671,5.332-3.346,6.673-4.674c1.334-1.327,2.006-4.684,0-8.015
			c-1.341-3.333-2.67-4.671-4-4.003c-1.329,0.67-4.012,2.004-5.343,3.335c-1.333,1.34-3.344,1.999-6.015,1.999
			c-2.672,0-8.011-2.669-10.676-4.003c-2.668-1.331-6.01-3.337-8.681-4.671c-2.67-1.337-4.678-1.337-4.678-1.337
			s-1.997,1.337-0.659,2.009c1.331,0.662,2.667,1.331,4.01,2.668c0.652,0.67,1.999,1.331,2.67,3.335
			c0.661,1.999,1.328,3.34-0.671,3.34c-1.347,0-6.675-1.341-8.676-1.341c-2.011-0.659-5.352,0-7.339,0.669
			c-2.019,0.672-4.677,4.003-4.677,5.343c-0.675,1.334,0,2-0.675,4.016c-0.669,1.33-2.004,3.327-3.338,4.658
			c-1.334,2.003-2.001,3.344-2.001,4.681c0,1.999,0,4.003,0.667,5.343c0.669,1.331,2.007,1.331,0.669,1.993
			c-1.336,0.679-6.005,0-7.341,0.679c-1.333,0-2.008,0.659-3.34,1.327c-0.663,1.335-2.002,2.666-2.002,2.666
			s-0.669-4.672-2.003-6.002c-0.672-0.663-4.003-4.671-5.337-6.006c-2.006-1.337-2.678-2.013-4.014-1.337
			c-1.334,0.668-1.334,1.337-2.001,2.672c0,0.664-2.002-1.335-2.002-1.335s-3.342,0.672-4.676,1.335
			c-1.999,0.664-4.003,1.327-5.338,1.999c-0.667,0-4.004,2.672-4.004,4.002c0,1.338,1.337,3.341,0.665,4.672
			c-0.665,1.341-2.665,2.678-4.002,3.347c-1.338,0.662-2.004,1.997-2.004,2.665c0,1.341,2.666,6.016,0.666,6.684
			c-2.668,0.659-2.668,0-4.003-1.344c-1.339-1.996-2.002-3.327-3.34-2.668c-0.664,0.672-1.329,2.009-0.664,3.344
			c1.336,1.327,1.336,6.011,0.664,6.67c-0.664,0.669-2.008,1.332-3.344-0.659c-0.66-1.34-1.323-4.684-3.333-5.343
			c-1.33-0.668-2.669,1.331-3.336,2.672c-1.336,0.659-4.004,5.33-4.004,6.674c-0.667,1.33-0.667,3.999-0.667,4.668
			c0.667,1.335,1.332,2.671,1.332,3.344c0,0.662-1.332,4.671-3.335,6.002c-2.006,2-4.674,6.002-5.337,6.684
			c-0.672,1.331-2.68,2.662-4.014,3.327c-1.334,0.676-6.678,2.678-9.343,3.341c-2.006,0.662-6.012,0.662-8.015,2.665
			c-1.999,2.002-6.003,5.353-6.671,6.015c0,0.669-6.01,0.669-8.68,0.669c-2.006,0-6.673,4.005-8.012,5.337
			c-1.34,0.675-9.346,5.339-10.682,6.677c-0.672,1.344-3.339,4.675-5.341,4.003c-1.334-0.668-0.669-2-0.669-3.335
			c0-0.668,1.336-2.006,0-2.006c-2.006,0-2.666,0-3.334,3.341c-0.668,2.672,0,4.012-0.668,6.684c0,2,0,2-0.666,4.671
			c-0.668,2.672-3.337,10.012-2.001,12.674c1.333,2.012,1.333,5.347,2.667,6.674c1.336,1.341,2.668,4.012,4.002,5.344
			c1.336,0.668,2.671,2.015,2.008,2.671c0,0.669-1.339,2.013-2.673,1.341c-1.341-0.672-3.337-2.676-3.337-3.344s-2.004-2-2.004-2
			s-0.663,0.666-0.663,2c0,1.347,1.333,2.672,2.001,3.344c0.666,1.331,2.002,4.005,2.002,4.005s-4.67-3.333-5.339-4.005
			c-0.672-0.672-2.679-0.672-2.006,0.672c0.668,1.331,2.006,3.999,3.342,5.327c2.001,1.344,4.003,0.672,5.335,4.015
			c2.003,3.341,3.342,6.675,3.342,9.347c0,1.995,1.331,10.673,1.331,12.673c0.665,2.009,1.999,3.353,4.007,4.68
			c1.339,2,1.339,4,2.004,6.012c1.338,1.99,1.338,10.678,2.671,12.015c0.664,0.666,1.336,2.672,1.998,4.672
			c0.672,2.006,2.008,2.006,2.008,6.011c0,4.01,0,15.352,0,15.352s-0.675,1.334-1.336,0c-0.672-0.669-2.006-1.344-2.006-1.344
			s-2.661,5.347-1.997,7.349c1.333,2.01,1.997,2.669,4.003,4.672c1.336,2.009,3.34,2.009,5.339,4.674
			c1.334,2.669,3.34,5.35,8.677,5.35c4.677,0,12.02,1.328,13.351-0.672c2.007-2.672,3.347-8.683,4.674-10.015
			c2.004-1.34,6.016-1.34,6.016-1.34l3.331-3.331c0,0,12.016-4.009,15.351-3.34c3.34,0,4.014,3.34,5.344,3.34
			c2.01,0.662,2.01-1.34,4.009-3.34c1.339-1.331,2.668-1.331,4.006-0.669c2.002,0.669,5.339,4.009,6.677,0.669
			c0.666-4.003,0-8.687,2.003-10.018c1.334-1.331,8.674-3.327,10.008-5.34c2.007-1.997,2.668-4,4.674-4.671
			c2.004-0.666,12.021,0,19.362-0.666c7.341-0.665,6.676-0.665,9.344-4.009c4.003-3.334,4.003-2.003,8.005-2.003
			c4.006,0.672,5.347,0,8.019,0c3.34,0.672,5.337,5.347,5.337,5.347s1.336,2.002,5.349,1.331c3.998-1.331,3.331-2.672,6-1.331
			c3.342,1.331,8.016,2.661,8.683,5.343c0,2.672,0.659,8.674,2.663,9.343c2.008,0.672,3.339,1.999,3.339,1.999
			s4.003,4.675,4.675,6.675c1.339,2.002-0.672,4.671-0.672,4.671s-5.334,2.003-1.331,3.34c3.342,2.003,8.674,4.016,8.674,0.672
			c0-2.672-1.329-3.34-1.329-3.34s8.006-6.677,9.34-8.012c2.013-1.334,6.016-8.018,6.016-10.68c0-3.341,0-7.35,0-7.35
			s3.337,2.682,4.012,4.672c0.659,2.678-2.672,10.023-3.354,12.023c0,2.003,0,7.343,0,7.343l-0.657,4.003c0,0-4.668,0-5.343,2.003
			c-0.673,2.002-2.007,2.681,1.34,2.681c4.003,0,9.346,0.655,10.019-2.013c0-2.003,0.655-8.674,0.655-8.674s1.331,0.662,2.675,3.331
			c0.671,2.672,0.671,8.011,0.671,8.011s0,2.004,2.671,1.335c2.668-0.663,3.34-0.663,3.34-0.663s-0.672,3.999,0,5.337
			c1.325,2.01,2.664,4.01,3.331,6.012c0,2.01,0,7.344,0,7.344s4.671,4.671,7.345,5.339c2.671,1.332,9.342,4.672,12.687,4.672
			c3.333,0,9.341,2.003,9.341,2.003s2.675,2.668,4.672,0c2.001-2.003,2.001-2.665,4.004-4.003c2.005-0.668,2.683,2,3.339-0.668
			c0-2.004-1.995,0,0-2.004c2.671-2.671,4.682-3.337,4.682-3.337s3.987,0,3.987,1.997c0,2.002,0,6.68,0,6.68
			s4.686,1.335,5.358,2.665c1.33,2.01,4.675,0,4.675,0s6.001,2.676,7.335,0c1.34-2.665,1.34-7.343,3.34-9.345
			c1.331-1.997,2.671-3.331,4.678-2.676c2.006,0.679,4.003,4.016,4.003,0.679c0-3.344,2.658-16.022,4.675-20.694
			c1.997-4.671,8.008-14.013,8.008-14.013l11.347-29.378c0,0,0.672-9.349,1.999-12.679
			C629.381,788.367,634.052,775.021,631.384,769.679z"/>
	</defs>
	<clipPath id="SVGID_4_">
		<use xlink:href="#SVGID_3_"  overflow="visible"/>
	</clipPath>
	<g clip-path="url(#SVGID_4_)">
		<g opacity="0.7">
			
				<line fill="none" stroke="#FFFFFF" stroke-width="2" stroke-miterlimit="10" x1="425.397" y1="580.459" x2="117.865" y2="887.99"/>
		</g>
		<g opacity="0.7">
			
				<line fill="none" stroke="#FFFFFF" stroke-width="2" stroke-miterlimit="10" x1="434.722" y1="580.459" x2="127.189" y2="887.99"/>
		</g>
		<g opacity="0.7">
			
				<line fill="none" stroke="#FFFFFF" stroke-width="2" stroke-miterlimit="10" x1="444.046" y1="580.459" x2="136.514" y2="887.99"/>
		</g>
		<g opacity="0.7">
			
				<line fill="none" stroke="#FFFFFF" stroke-width="2" stroke-miterlimit="10" x1="453.37" y1="580.459" x2="145.838" y2="887.99"/>
		</g>
		<g opacity="0.7">
			
				<line fill="none" stroke="#FFFFFF" stroke-width="2" stroke-miterlimit="10" x1="462.694" y1="580.459" x2="155.162" y2="887.99"/>
		</g>
		<g opacity="0.7">
			
				<line fill="none" stroke="#FFFFFF" stroke-width="2" stroke-miterlimit="10" x1="472.019" y1="580.459" x2="164.486" y2="887.99"/>
		</g>
		<g opacity="0.7">
			
				<line fill="none" stroke="#FFFFFF" stroke-width="2" stroke-miterlimit="10" x1="481.343" y1="580.459" x2="173.811" y2="887.99"/>
		</g>
		<g opacity="0.7">
			
				<line fill="none" stroke="#FFFFFF" stroke-width="2" stroke-miterlimit="10" x1="490.667" y1="580.459" x2="183.135" y2="887.99"/>
		</g>
		<g opacity="0.7">
			
				<line fill="none" stroke="#FFFFFF" stroke-width="2" stroke-miterlimit="10" x1="499.991" y1="580.459" x2="192.459" y2="887.99"/>
		</g>
		<g opacity="0.7">
			
				<line fill="none" stroke="#FFFFFF" stroke-width="2" stroke-miterlimit="10" x1="509.315" y1="580.459" x2="201.783" y2="887.99"/>
		</g>
		<g opacity="0.7">
			
				<line fill="none" stroke="#FFFFFF" stroke-width="2" stroke-miterlimit="10" x1="518.64" y1="580.459" x2="211.107" y2="887.99"/>
		</g>
		<g opacity="0.7">
			
				<line fill="none" stroke="#FFFFFF" stroke-width="2" stroke-miterlimit="10" x1="527.964" y1="580.459" x2="220.432" y2="887.99"/>
		</g>
		<g opacity="0.7">
			
				<line fill="none" stroke="#FFFFFF" stroke-width="2" stroke-miterlimit="10" x1="537.288" y1="580.459" x2="229.756" y2="887.99"/>
		</g>
		<g opacity="0.7">
			
				<line fill="none" stroke="#FFFFFF" stroke-width="2" stroke-miterlimit="10" x1="546.612" y1="580.459" x2="239.08" y2="887.99"/>
		</g>
		<g opacity="0.7">
			
				<line fill="none" stroke="#FFFFFF" stroke-width="2" stroke-miterlimit="10" x1="555.937" y1="580.459" x2="248.404" y2="887.99"/>
		</g>
		<g opacity="0.7">
			
				<line fill="none" stroke="#FFFFFF" stroke-width="2" stroke-miterlimit="10" x1="565.261" y1="580.459" x2="257.729" y2="887.99"/>
		</g>
		<g opacity="0.7">
			
				<line fill="none" stroke="#FFFFFF" stroke-width="2" stroke-miterlimit="10" x1="574.585" y1="580.459" x2="267.053" y2="887.99"/>
		</g>
		<g opacity="0.7">
			
				<line fill="none" stroke="#FFFFFF" stroke-width="2" stroke-miterlimit="10" x1="583.909" y1="580.459" x2="276.377" y2="887.99"/>
		</g>
		<g opacity="0.7">
			
				<line fill="none" stroke="#FFFFFF" stroke-width="2" stroke-miterlimit="10" x1="593.233" y1="580.459" x2="285.701" y2="887.99"/>
		</g>
		<g opacity="0.7">
			
				<line fill="none" stroke="#FFFFFF" stroke-width="2" stroke-miterlimit="10" x1="602.558" y1="580.459" x2="295.025" y2="887.99"/>
		</g>
		<g opacity="0.7">
			
				<line fill="none" stroke="#FFFFFF" stroke-width="2" stroke-miterlimit="10" x1="611.882" y1="580.459" x2="304.35" y2="887.99"/>
		</g>
		<g opacity="0.7">
			
				<line fill="none" stroke="#FFFFFF" stroke-width="2" stroke-miterlimit="10" x1="575.597" y1="626.067" x2="313.674" y2="887.99"/>
		</g>
		<g opacity="0.7">
			
				<line fill="none" stroke="#FFFFFF" stroke-width="2" stroke-miterlimit="10" x1="584.921" y1="626.067" x2="322.998" y2="887.99"/>
		</g>
		<g opacity="0.7">
			
				<line fill="none" stroke="#FFFFFF" stroke-width="2" stroke-miterlimit="10" x1="594.245" y1="626.067" x2="332.322" y2="887.99"/>
		</g>
		<g opacity="0.7">
			
				<line fill="none" stroke="#FFFFFF" stroke-width="2" stroke-miterlimit="10" x1="603.569" y1="626.067" x2="341.646" y2="887.99"/>
		</g>
		<g opacity="0.7">
			
				<line fill="none" stroke="#FFFFFF" stroke-width="2" stroke-miterlimit="10" x1="612.894" y1="626.067" x2="350.971" y2="887.99"/>
		</g>
		<g opacity="0.7">
			
				<line fill="none" stroke="#FFFFFF" stroke-width="2" stroke-miterlimit="10" x1="622.218" y1="626.067" x2="360.295" y2="887.99"/>
		</g>
		<g opacity="0.7">
			
				<line fill="none" stroke="#FFFFFF" stroke-width="2" stroke-miterlimit="10" x1="593.927" y1="663.683" x2="369.619" y2="887.99"/>
		</g>
		<g opacity="0.7">
			
				<line fill="none" stroke="#FFFFFF" stroke-width="2" stroke-miterlimit="10" x1="603.251" y1="663.683" x2="378.943" y2="887.99"/>
		</g>
		<g opacity="0.7">
			
				<line fill="none" stroke="#FFFFFF" stroke-width="2" stroke-miterlimit="10" x1="612.575" y1="663.683" x2="388.268" y2="887.99"/>
		</g>
		<g opacity="0.7">
			
				<line fill="none" stroke="#FFFFFF" stroke-width="2" stroke-miterlimit="10" x1="621.899" y1="663.683" x2="397.592" y2="887.99"/>
		</g>
		<g opacity="0.7">
			
				<line fill="none" stroke="#FFFFFF" stroke-width="2" stroke-miterlimit="10" x1="631.224" y1="663.683" x2="406.916" y2="887.99"/>
		</g>
		<g opacity="0.7">
			
				<line fill="none" stroke="#FFFFFF" stroke-width="2" stroke-miterlimit="10" x1="640.548" y1="663.683" x2="416.24" y2="887.99"/>
		</g>
		<g opacity="0.7">
			
				<line fill="none" stroke="#FFFFFF" stroke-width="2" stroke-miterlimit="10" x1="649.872" y1="663.683" x2="425.564" y2="887.99"/>
		</g>
		<g opacity="0.7">
			
				<line fill="none" stroke="#FFFFFF" stroke-width="2" stroke-miterlimit="10" x1="659.196" y1="663.683" x2="434.889" y2="887.99"/>
		</g>
		<g opacity="0.7">
			
				<line fill="none" stroke="#FFFFFF" stroke-width="2" stroke-miterlimit="10" x1="668.521" y1="663.683" x2="444.213" y2="887.99"/>
		</g>
		<g opacity="0.7">
			
				<line fill="none" stroke="#FFFFFF" stroke-width="2" stroke-miterlimit="10" x1="677.845" y1="663.683" x2="453.537" y2="887.99"/>
		</g>
		<g opacity="0.7">
			
				<line fill="none" stroke="#FFFFFF" stroke-width="2" stroke-miterlimit="10" x1="687.169" y1="663.683" x2="462.861" y2="887.99"/>
		</g>
		<g opacity="0.7">
			
				<line fill="none" stroke="#FFFFFF" stroke-width="2" stroke-miterlimit="10" x1="696.493" y1="663.683" x2="472.186" y2="887.99"/>
		</g>
		<g opacity="0.7">
			
				<line fill="none" stroke="#FFFFFF" stroke-width="2" stroke-miterlimit="10" x1="705.817" y1="663.683" x2="481.51" y2="887.99"/>
		</g>
		<g opacity="0.7">
			
				<line fill="none" stroke="#FFFFFF" stroke-width="2" stroke-miterlimit="10" x1="715.142" y1="663.683" x2="490.834" y2="887.99"/>
		</g>
		<g opacity="0.7">
			
				<line fill="none" stroke="#FFFFFF" stroke-width="2" stroke-miterlimit="10" x1="724.466" y1="663.683" x2="500.158" y2="887.99"/>
		</g>
		<g opacity="0.7">
			
				<line fill="none" stroke="#FFFFFF" stroke-width="2" stroke-miterlimit="10" x1="733.79" y1="663.683" x2="509.482" y2="887.99"/>
		</g>
		<g opacity="0.7">
			
				<line fill="none" stroke="#FFFFFF" stroke-width="2" stroke-miterlimit="10" x1="743.114" y1="663.683" x2="518.807" y2="887.99"/>
		</g>
		<g opacity="0.7">
			
				<line fill="none" stroke="#FFFFFF" stroke-width="2" stroke-miterlimit="10" x1="752.438" y1="663.683" x2="528.131" y2="887.99"/>
		</g>
		<g opacity="0.7">
			
				<line fill="none" stroke="#FFFFFF" stroke-width="2" stroke-miterlimit="10" x1="761.763" y1="663.683" x2="537.455" y2="887.99"/>
		</g>
		<g opacity="0.7">
			
				<line fill="none" stroke="#FFFFFF" stroke-width="2" stroke-miterlimit="10" x1="771.087" y1="663.683" x2="546.779" y2="887.99"/>
		</g>
		<g opacity="0.7">
			
				<line fill="none" stroke="#FFFFFF" stroke-width="2" stroke-miterlimit="10" x1="780.411" y1="663.683" x2="556.104" y2="887.99"/>
		</g>
		<g opacity="0.7">
			
				<line fill="none" stroke="#FFFFFF" stroke-width="2" stroke-miterlimit="10" x1="789.735" y1="663.683" x2="565.428" y2="887.99"/>
		</g>
		<g opacity="0.7">
			
				<line fill="none" stroke="#FFFFFF" stroke-width="2" stroke-miterlimit="10" x1="799.06" y1="663.683" x2="574.752" y2="887.99"/>
		</g>
		<g opacity="0.7">
			
				<line fill="none" stroke="#FFFFFF" stroke-width="2" stroke-miterlimit="10" x1="808.384" y1="663.683" x2="584.076" y2="887.99"/>
		</g>
	</g>
	<path clip-path="url(#SVGID_4_)" fill="none" d="M631.384,769.679c-2.003-6.002-2.676-8.67-2.676-13.345
		c0-4.672,1.332-11.354,1.332-13.354c0-2.003-3.331-12.68-6.673-14.017c-2.668-2.004-6.673-6.003-9.341-6.675
		c-3.331-0.668-4.014-2-4.014-6.009c-0.661-3.334-1.328-8.005-2.658-8.681c-1.345-1.334-3.341-4.677-4.003-9.342
		c0-4.671,0-12.026-1.344-14.686c-0.669-3.34-18.017-12.686-20.027-14.694c-2.001-2.662-4.004-6.006-4.676-9.344
		c-0.662-2.674,0.672-4.674-0.662-6.673c-1.333-2.01-3.352-2.672-3.352-6.006c-0.651-2.668-3.319-16.026-4.664-18.036
		c-1.334-2.665-4.005-4.664-5.339-4.664c-2.005,0-6.009,1.999-7.339,1.335c-1.329,0-1.329-2.672-1.329-7.347
		c0-4.009-1.344-10.015-2.685-10.683c-0.668-1.331-3.999-6.675-4.671-9.343c0-2.666,0-5.34,0-6.678
		c-0.665-1.334-3.331-2.668-3.331-2.668s-6.681,8.677-6.681,10.683c-0.663,1.331-1.33,3.335-0.663,4.675c0,2,1.336,2,0.663,3.999
		c-1.33,2.017-3.329,3.344-3.329,4.672c0,1.334-1.345,6.674,0,10.018c1.999,2.672,1.999,16.691,1.327,19.356
		c0,2.672-1.327,13.354-3.331,15.357c-1.34,2.002-4.014,4.671-7.344,2.672c-3.347-2-2.681-7.343-6.01-8.015
		c-3.336-0.659-3.336-0.659-5.344-0.659c-2.003,0-1.344-4.016-4.675-5.35c-4.014-1.993-8.674-1.334-10.687-1.334
		c-2.658-0.659-8.668-3.34-11.342-6.006c-2.668-3.34-4.671-8.012-4.012-10.021c0-1.33,0-2.002,2.011-3.329
		c1.344-2.004,4.003-2.672,2.001-4.013c-2.001-1.334-4.671,0-4.012-0.662c0.672-1.341,0.672-4.012,2.011-4.669
		c1.344-0.671,5.332-3.346,6.673-4.674c1.334-1.327,2.006-4.684,0-8.015c-1.341-3.333-2.67-4.671-4-4.003
		c-1.329,0.67-4.012,2.004-5.343,3.335c-1.333,1.34-3.344,1.999-6.015,1.999c-2.672,0-8.011-2.669-10.676-4.003
		c-2.668-1.331-6.01-3.337-8.681-4.671c-2.67-1.337-4.678-1.337-4.678-1.337s-1.997,1.337-0.659,2.009
		c1.331,0.662,2.667,1.331,4.01,2.668c0.652,0.67,1.999,1.331,2.67,3.335c0.661,1.999,1.328,3.34-0.671,3.34
		c-1.347,0-6.675-1.341-8.676-1.341c-2.011-0.659-5.352,0-7.339,0.669c-2.019,0.672-4.677,4.003-4.677,5.343
		c-0.675,1.334,0,2-0.675,4.016c-0.669,1.33-2.004,3.327-3.338,4.658c-1.334,2.003-2.001,3.344-2.001,4.681
		c0,1.999,0,4.003,0.667,5.343c0.669,1.331,2.007,1.331,0.669,1.993c-1.336,0.679-6.005,0-7.341,0.679
		c-1.333,0-2.008,0.659-3.34,1.327c-0.663,1.335-2.002,2.666-2.002,2.666s-0.669-4.672-2.003-6.002
		c-0.672-0.663-4.003-4.671-5.337-6.006c-2.006-1.337-2.678-2.013-4.014-1.337c-1.334,0.668-1.334,1.337-2.001,2.672
		c0,0.664-2.002-1.335-2.002-1.335s-3.342,0.672-4.676,1.335c-1.999,0.664-4.003,1.327-5.338,1.999
		c-0.667,0-4.004,2.672-4.004,4.002c0,1.338,1.337,3.341,0.665,4.672c-0.665,1.341-2.665,2.678-4.002,3.347
		c-1.338,0.662-2.004,1.997-2.004,2.665c0,1.341,2.666,6.016,0.666,6.684c-2.668,0.659-2.668,0-4.003-1.344
		c-1.339-1.996-2.002-3.327-3.34-2.668c-0.664,0.672-1.329,2.009-0.664,3.344c1.336,1.327,1.336,6.011,0.664,6.67
		c-0.664,0.669-2.008,1.332-3.344-0.659c-0.66-1.34-1.323-4.684-3.333-5.343c-1.33-0.668-2.669,1.331-3.336,2.672
		c-1.336,0.659-4.004,5.33-4.004,6.674c-0.667,1.33-0.667,3.999-0.667,4.668c0.667,1.335,1.332,2.671,1.332,3.344
		c0,0.662-1.332,4.671-3.335,6.002c-2.006,2-4.674,6.002-5.337,6.684c-0.672,1.331-2.68,2.662-4.014,3.327
		c-1.334,0.676-6.678,2.678-9.343,3.341c-2.006,0.662-6.012,0.662-8.015,2.665c-1.999,2.002-6.003,5.353-6.671,6.015
		c0,0.669-6.01,0.669-8.68,0.669c-2.006,0-6.673,4.005-8.012,5.337c-1.34,0.675-9.346,5.339-10.682,6.677
		c-0.672,1.344-3.339,4.675-5.341,4.003c-1.334-0.668-0.669-2-0.669-3.335c0-0.668,1.336-2.006,0-2.006
		c-2.006,0-2.666,0-3.334,3.341c-0.668,2.672,0,4.012-0.668,6.684c0,2,0,2-0.666,4.671c-0.668,2.672-3.337,10.012-2.001,12.674
		c1.333,2.012,1.333,5.347,2.667,6.674c1.336,1.341,2.668,4.012,4.002,5.344c1.336,0.668,2.671,2.015,2.008,2.671
		c0,0.669-1.339,2.013-2.673,1.341c-1.341-0.672-3.337-2.676-3.337-3.344s-2.004-2-2.004-2s-0.663,0.666-0.663,2
		c0,1.347,1.333,2.672,2.001,3.344c0.666,1.331,2.002,4.005,2.002,4.005s-4.67-3.333-5.339-4.005
		c-0.672-0.672-2.679-0.672-2.006,0.672c0.668,1.331,2.006,3.999,3.342,5.327c2.001,1.344,4.003,0.672,5.335,4.015
		c2.003,3.341,3.342,6.675,3.342,9.347c0,1.995,1.331,10.673,1.331,12.673c0.665,2.009,1.999,3.353,4.007,4.68
		c1.339,2,1.339,4,2.004,6.012c1.338,1.99,1.338,10.678,2.671,12.015c0.664,0.666,1.336,2.672,1.998,4.672
		c0.672,2.006,2.008,2.006,2.008,6.011c0,4.01,0,15.352,0,15.352s-0.675,1.334-1.336,0c-0.672-0.669-2.006-1.344-2.006-1.344
		s-2.661,5.347-1.997,7.349c1.333,2.01,1.997,2.669,4.003,4.672c1.336,2.009,3.34,2.009,5.339,4.674
		c1.334,2.669,3.34,5.35,8.677,5.35c4.677,0,12.02,1.328,13.351-0.672c2.007-2.672,3.347-8.683,4.674-10.015
		c2.004-1.34,6.016-1.34,6.016-1.34l3.331-3.331c0,0,12.016-4.009,15.351-3.34c3.34,0,4.014,3.34,5.344,3.34
		c2.01,0.662,2.01-1.34,4.009-3.34c1.339-1.331,2.668-1.331,4.006-0.669c2.002,0.669,5.339,4.009,6.677,0.669
		c0.666-4.003,0-8.687,2.003-10.018c1.334-1.331,8.674-3.327,10.008-5.34c2.007-1.997,2.668-4,4.674-4.671
		c2.004-0.666,12.021,0,19.362-0.666c7.341-0.665,6.676-0.665,9.344-4.009c4.003-3.334,4.003-2.003,8.005-2.003
		c4.006,0.672,5.347,0,8.019,0c3.34,0.672,5.337,5.347,5.337,5.347s1.336,2.002,5.349,1.331c3.998-1.331,3.331-2.672,6-1.331
		c3.342,1.331,8.016,2.661,8.683,5.343c0,2.672,0.659,8.674,2.663,9.343c2.008,0.672,3.339,1.999,3.339,1.999
		s4.003,4.675,4.675,6.675c1.339,2.002-0.672,4.671-0.672,4.671s-5.334,2.003-1.331,3.34c3.342,2.003,8.674,4.016,8.674,0.672
		c0-2.672-1.329-3.34-1.329-3.34s8.006-6.677,9.34-8.012c2.013-1.334,6.016-8.018,6.016-10.68c0-3.341,0-7.35,0-7.35
		s3.337,2.682,4.012,4.672c0.659,2.678-2.672,10.023-3.354,12.023c0,2.003,0,7.343,0,7.343l-0.657,4.003c0,0-4.668,0-5.343,2.003
		c-0.673,2.002-2.007,2.681,1.34,2.681c4.003,0,9.346,0.655,10.019-2.013c0-2.003,0.655-8.674,0.655-8.674s1.331,0.662,2.675,3.331
		c0.671,2.672,0.671,8.011,0.671,8.011s0,2.004,2.671,1.335c2.668-0.663,3.34-0.663,3.34-0.663s-0.672,3.999,0,5.337
		c1.325,2.01,2.664,4.01,3.331,6.012c0,2.01,0,7.344,0,7.344s4.671,4.671,7.345,5.339c2.671,1.332,9.342,4.672,12.687,4.672
		c3.333,0,9.341,2.003,9.341,2.003s2.675,2.668,4.672,0c2.001-2.003,2.001-2.665,4.004-4.003c2.005-0.668,2.683,2,3.339-0.668
		c0-2.004-1.995,0,0-2.004c2.671-2.671,4.682-3.337,4.682-3.337s3.987,0,3.987,1.997c0,2.002,0,6.68,0,6.68s4.686,1.335,5.358,2.665
		c1.33,2.01,4.675,0,4.675,0s6.001,2.676,7.335,0c1.34-2.665,1.34-7.343,3.34-9.345c1.331-1.997,2.671-3.331,4.678-2.676
		c2.006,0.679,4.003,4.016,4.003,0.679c0-3.344,2.658-16.022,4.675-20.694c1.997-4.671,8.008-14.013,8.008-14.013l11.347-29.378
		c0,0,0.672-9.349,1.999-12.679C629.381,788.367,634.052,775.021,631.384,769.679z"/>
</g>
<path fill="none" stroke="#FFFFFF" stroke-miterlimit="10" d="M495.203,853.124c-1.344,0.672-2.006,1.344,0,1.999
	c1.324,0.672,4.006,0,7.345,0c3.33,0,6-0.655,6-1.999c-0.659-1.331-2.67-2.659-4.014-3.331c-1.986-0.668-6.673,1.327-6.673,1.327
	L495.203,853.124z"/>
<path fill="none" stroke="#FFFFFF" stroke-miterlimit="10" d="M556.607,889.85l-0.658,4.003l2.664,3.34c0,0,0.667-2.009,0.667-3.34
	c0-2.012,0-3.343,0-3.343L556.607,889.85z"/>
</svg>
