<?xml version="1.0" encoding="utf-8"?>
<!-- Generator: Adobe Illustrator 16.0.0, SVG Export Plug-In . SVG Version: 6.00 Build 0)  -->
<!DOCTYPE svg PUBLIC "-//W3C//DTD SVG 1.1//EN" "http://www.w3.org/Graphics/SVG/1.1/DTD/svg11.dtd">
<svg version="1.1" id="图层_1" xmlns="http://www.w3.org/2000/svg" xmlns:xlink="http://www.w3.org/1999/xlink" x="0px" y="0px"
	 width="640px" height="130px" viewBox="0 0 640 130" enable-background="new 0 0 640 130" xml:space="preserve">
<rect x="-0.011" fill="#F7CC48" width="640" height="130"/>
<g>
	<path fill="#1B3467" d="M54.689,29.203V26.39H70.47v-3.438h4.219v3.438h15.938v2.813H74.689v3.906h14.063v20.938
		c0.103,3.228-1.563,4.79-5,4.688h-3.438v-2.656h2.031c1.665,0.103,2.446-0.573,2.344-2.031V35.765H60.626V58.89h-4.063V33.109
		H70.47v-3.906H54.689z M63.126,44.359v-2.656h3.438c-0.625-1.146-0.991-2.603-1.094-4.375h3.594
		c0.103,1.563,0.469,3.022,1.094,4.375h4.844c0.52-1.146,0.938-2.603,1.25-4.375h3.594c-0.105,1.563-0.522,3.022-1.25,4.375h3.594
		v2.656h-7.5v4.063h8.594v2.656H74.69v7.031h-4.063v-7.031h-8.438v-2.656h8.438v-4.063H63.126z"/>
	<path fill="#1B3467" d="M94.689,55.453v-2.5c5.625-5.415,8.75-11.875,9.375-19.375H95.47v-2.969h12.5v2.813
		C107.135,42.901,102.708,50.245,94.689,55.453z M105.47,58.421v-2.813h2.813c1.665,0.103,2.446-0.571,2.344-2.031V23.109h4.219
		v30.625c0.103,3.228-1.512,4.79-4.844,4.688L105.47,58.421L105.47,58.421z M130.626,55.453
		c-8.543-5.415-12.866-12.759-12.969-22.031v-2.813h4.531c2.707,0,5.156-0.469,7.344-1.406v3.125
		c-1.772,0.835-4.063,1.25-6.875,1.25h-1.25c0.103,7.604,3.176,14.011,9.219,19.219V55.453L130.626,55.453z"/>
	<path fill="#1B3467" d="M134.689,35.765v-2.813h10.469v-9.688h4.375v29.844c0.103,3.125-1.616,4.688-5.156,4.688h-9.688V55.14
		h7.813c1.875,0,2.759-0.833,2.656-2.5V35.765H134.689z M160.939,57.796c-3.438,0-5.21-1.563-5.313-4.688V23.265h4.531v9.688h10.469
		v2.813h-10.469v16.875c-0.105,1.667,0.781,2.5,2.656,2.5h7.813v2.656L160.939,57.796L160.939,57.796z"/>
	<path fill="#1B3467" d="M177.658,56.078V37.015h-3.125v-2.656h6.719v16.406c1.145-0.625,2.188-1.353,3.125-2.188v2.969
		C182.501,53.526,180.26,55.038,177.658,56.078z M178.908,31.39c-0.522-2.5-1.406-5.156-2.656-7.969h3.281
		c1.457,2.71,2.446,5.366,2.969,7.969H178.908z M183.751,59.046v-2.813c1.563-1.563,2.29-4.271,2.188-8.125V24.671h23.438v28.75
		c0.103,3.646-1.563,5.364-5,5.156h-2.344v-2.5h1.25c1.77,0.104,2.603-0.625,2.5-2.188V27.484h-16.094v19.219
		C190.001,52.432,188.021,56.546,183.751,59.046z M191.408,34.203v-2.5h4.531v-2.969h3.438v2.969h4.531v2.5h-4.531v3.75h5.156v2.5
		h-13.75v-2.5h5.156v-3.75H191.408z M192.033,54.203V43.265h11.094v6.25c0.103,3.229-1.355,4.792-4.375,4.688H192.033z
		 M195.001,51.703h3.125c1.457,0.104,2.134-0.571,2.031-2.031v-4.063h-5.156V51.703z"/>
	<path fill="#1B3467" d="M216.876,29.046v-2.969h31.406v2.969h-13.438v24.688h15.625v2.656h-35.625v-2.656h15.625V29.046H216.876z"
		/>
	<path fill="#1B3467" d="M255.158,27.796V25.14h6.719c1.77,0,3.801-0.313,6.094-0.938v2.813c-1.147,0.417-2.605,0.679-4.375,0.781
		v5.469h4.219v2.656h-3.906c0.832,3.335,2.188,6.304,4.063,8.906v3.594c-2.085-2.396-3.543-4.321-4.375-5.781v16.406h-3.75V43.578
		c-1.25,2.917-3.179,5.938-5.781,9.063v-3.906c2.29-3.75,4.113-8.021,5.469-12.813h-4.844v-2.656h5.156v-5.469L255.158,27.796
		L255.158,27.796z M268.595,42.015v-2.656h21.406v2.656h-8.75v4.844h7.813v2.656h-7.813v5.469h9.844v2.344H266.72v-2.344h10.469
		v-5.469h-7.969v-2.656h7.969v-4.844H268.595z M269.845,35.921V24.984h18.906v6.406c0.103,3.125-1.563,4.636-5,4.531H269.845z
		 M273.595,33.265h9.063c1.665,0.104,2.446-0.625,2.344-2.188v-3.438h-11.406L273.595,33.265L273.595,33.265z"/>
	<path fill="#1B3467" d="M54.533,91.891v-2.656h4.531v-9.375h27.344v9.375h4.531v2.656h-4.531v6.875h3.281v2.656h-3.281v0.313
		c0.103,3.438-1.668,5.104-5.313,5h-5.156v-2.5h3.906c1.665,0.104,2.446-0.68,2.344-2.344v-0.469H64.376
		c-3.647,0.104-5.418-1.666-5.313-5.314v-4.219L54.533,91.891L54.533,91.891z M54.845,80.641v-2.344
		c3.645-1.459,6.196-3.906,7.656-7.346h4.375c-0.21,0.523-0.522,1.148-0.938,1.875c-0.21,0.418-0.366,0.73-0.469,0.939h24.375v2.656
		H63.439C61.876,78.088,59.01,79.496,54.845,80.641z M63.283,95.641c-0.105,2.188,0.832,3.229,2.813,3.125H82.19v-6.875H63.283
		V95.641z M63.283,82.359v6.875h18.906v-6.875H63.283z M71.251,88.609c-0.105-1.771-0.625-3.541-1.563-5.313h3.75
		c0.938,1.563,1.613,3.334,2.031,5.313H71.251z M71.72,98.141c-0.313-2.084-0.887-3.906-1.719-5.469h3.906
		c1.04,1.771,1.665,3.594,1.875,5.469H71.72z"/>
	<path fill="#1B3467" d="M95.47,85.328v-2.656c3.853-2.813,6.353-6.664,7.5-11.563h4.063c-0.105,1.25-0.418,2.344-0.938,3.281
		h23.281v2.813h-11.875v6.406h11.094v2.813h-11.094v8.75h13.438v2.813h-13.438v9.064h-4.375v-9.064H94.689v-2.813h5.781V83.609
		h12.656v-6.406h-8.281C103.283,80.432,100.158,83.141,95.47,85.328z M104.533,86.422v8.75h8.594v-8.75H104.533z"/>
	<path fill="#1B3467" d="M150.001,83.297c-0.105-0.729-0.262-1.406-0.469-2.031c-2.813,0.521-7.71,0.781-14.688,0.781v-2.814
		c2.707-2.289,4.895-5.051,6.563-8.281h4.531c-2.085,3.543-4.429,6.305-7.031,8.281c3.75,0,6.978-0.156,9.688-0.469
		c-0.418-1.25-1.043-2.551-1.875-3.906h3.281c1.875,2.814,3.125,5.625,3.75,8.439H150.001L150.001,83.297z M136.251,106.734V84.859
		h15.469v17.344c0.103,3.021-1.512,4.479-4.844,4.375h-2.813v-2.656h1.875c1.457,0.104,2.134-0.469,2.031-1.719v-2.656H140v7.188
		H136.251L136.251,106.734z M140.001,87.359v3.75h7.969v-3.75H140.001z M140.001,93.453v3.75h7.969v-3.75H140.001z M159.533,87.047
		c-3.022,0.104-4.48-1.406-4.375-4.531V71.109h3.75v6.094c3.75-0.832,6.196-2.396,7.344-4.688h3.75
		c-1.563,4.063-5.262,6.459-11.094,7.188v2.5c0,1.461,0.728,2.188,2.188,2.188h4.219c1.457,0.105,2.134-0.625,2.031-2.188v-1.094
		h2.969v1.719c0.207,2.918-1.355,4.322-4.688,4.219H159.533L159.533,87.047z M159.533,106.266c-3.022,0.102-4.48-1.354-4.375-4.375
		V88.609h3.75v6.719c3.645-0.832,6.145-2.553,7.5-5.156h3.75c-1.668,4.271-5.418,6.824-11.25,7.656v3.75
		c-0.105,1.354,0.676,1.979,2.344,1.875h4.063c1.457,0.104,2.134-0.469,2.031-1.719v-1.25h2.969v1.719
		c0.103,2.813-1.406,4.164-4.531,4.063H159.533L159.533,106.266z"/>
	<path fill="#1B3467" d="M174.689,77.203v-2.5h3.281c0.207-1.146,0.363-2.344,0.469-3.594h3.438
		c-0.105,0.416-0.21,1.094-0.313,2.031c-0.21,0.729-0.313,1.25-0.313,1.563h5.781v2.5h-6.406c-0.625,3.438-1.719,6.875-3.281,10.313
		h3.125v-7.5h3.281v7.5h2.969v2.656h-2.969v5.313c0.938-0.207,1.978-0.469,3.125-0.779v2.5c-1.043,0.416-2.085,0.779-3.125,1.094
		v8.75h-3.281V99.08c-0.73,0.104-1.875,0.26-3.438,0.469c-1.147,0.104-2.031,0.209-2.656,0.313V96.58
		c2.395,0,4.426-0.156,6.094-0.469v-5.938h-5.625v-2.656c1.25-3.959,2.134-7.396,2.656-10.313L174.689,77.203L174.689,77.203z
		 M210.939,83.141c-2.5-1.041-4.585-2.084-6.25-3.125v2.188h-11.875v-2.188c-1.563,1.041-3.594,2.084-6.094,3.125v-2.5
		c4.895-2.916,8.176-6.197,9.844-9.844h4.531c1.665,3.75,4.946,7.029,9.844,9.844V83.141z M187.97,106.891V85.016h10.313v17.969
		c0.103,2.604-1.199,3.854-3.906,3.75h-1.406v-2.656h0.781c1.145,0.104,1.665-0.365,1.563-1.406v-3.281h-4.375v7.5H187.97
		L187.97,106.891z M190.939,87.516v3.594h4.375v-3.594H190.939z M190.939,93.453v3.594h4.375v-3.594H190.939z M198.751,74.547
		c-1.668,2.188-3.491,3.904-5.469,5.154h11.094C202.292,78.35,200.417,76.631,198.751,74.547z M200.783,101.578V85.797h2.813v15.779
		h-2.813V101.578z M202.658,106.578v-2.656h1.875c1.25,0.104,1.821-0.469,1.719-1.719V84.391h2.969v17.969
		c0.103,2.914-1.25,4.32-4.063,4.219H202.658z"/>
	<path fill="#1B3467" d="M214.845,106.734v-2.344c2.707-1.043,3.957-2.865,3.75-5.469V85.484h-3.906v-2.656h7.969v15
		c0.103,3.543,2.031,5.313,5.781,5.313h22.344v2.814h-22.5c-3.335,0-5.679-0.992-7.031-2.971
		C220.001,104.859,217.865,106.109,214.845,106.734z M219.533,79.703c-0.418-2.396-1.304-5-2.656-7.813h3.438
		c1.665,3.021,2.656,5.625,2.969,7.813H219.533z M226.095,78.922v-2.814h4.375c-0.522-1.039-0.938-2.656-1.25-4.844h3.906
		c0.313,2.086,0.728,3.699,1.25,4.844h6.25c0.625-1.25,0.988-2.863,1.094-4.844h4.063c-0.313,1.875-0.781,3.492-1.406,4.844h4.688
		v2.814h-9.531v6.719v0.625h10.781v2.656h-10.313c1.04,3.75,4.375,6.979,10,9.688v2.656c-5.625-1.771-9.793-4.584-12.5-8.439
		c-2.605,3.855-6.719,6.721-12.344,8.596v-2.814c5.52-2.602,8.801-5.832,9.844-9.688h-10v-2.656h10.469v-0.625V78.92L226.095,78.922
		L226.095,78.922z"/>
	<path fill="#1B3467" d="M254.689,83.766v-2.814h10.469v-9.688h4.375v29.844c0.103,3.125-1.616,4.689-5.156,4.689h-9.688v-2.656
		h7.813c1.875,0,2.759-0.834,2.656-2.5V83.766H254.689z M280.939,105.797c-3.438,0-5.21-1.564-5.313-4.689V71.266h4.531v9.688
		h10.469v2.813h-10.469v16.875c-0.105,1.668,0.781,2.5,2.656,2.5h7.813v2.656H280.939L280.939,105.797z"/>
	<path fill="#1B3467" d="M294.845,76.891v-2.814h15.469v-2.969h4.688v2.969h15.625v2.814H294.845z M295.001,105.016v-2.189
		c4.063-1.664,6.509-4.113,7.344-7.344h4.221C305.314,100.381,301.458,103.555,295.001,105.016z M299.064,92.828V80.484h27.344v7.5
		c0.102,3.334-1.617,4.947-5.156,4.844h-6.094v9.375c0.103,3.021-1.563,4.479-5,4.375h-3.75v-2.656h2.031
		c1.563,0.104,2.288-0.625,2.188-2.188v-8.906H299.064z M303.126,90.172h16.875c1.665,0.104,2.446-0.678,2.344-2.346v-4.688h-19.219
		V90.172z M330.158,105.016c-6.461-1.564-10.313-4.74-11.563-9.531h4.375c0.832,3.229,3.229,5.68,7.188,7.344V105.016z"/>
	<path fill="#1B3467" d="M337.346,96.422v-2.346c5.625-1.664,9.846-4.008,12.656-7.029c-4.063,1.146-8.961,2.188-14.688,3.125v-2.5
		c5.727-1.041,10.414-2.24,14.063-3.596c-2.711-1.25-5.469-2.133-8.281-2.654v-1.875c-1.563,0.625-3.336,1.094-5.313,1.404v-2.344
		c5.52-1.457,9.582-3.957,12.188-7.5h4.531c-0.625,0.939-1.305,1.773-2.031,2.5h17.188v2.656c-4.586,4.586-9.637,7.867-15.156,9.844
		h3.125c-0.729,0.939-1.512,1.824-2.344,2.656h15.938v2.656c-7.188,8.75-18.543,13.906-34.063,15.469v-2.5
		c7.188-1.146,12.758-2.656,16.719-4.531c-3.021-1.352-6.094-2.344-9.219-2.969v-1.875C341.096,95.432,339.322,95.9,337.346,96.422z
		 M362.033,76.422h-14.531c-1.355,1.041-2.969,1.928-4.844,2.654c3.438,0.418,6.613,1.305,9.531,2.656v1.094
		C355.314,81.371,358.596,79.234,362.033,76.422z M363.439,91.578h-13.438c-1.668,1.146-3.594,2.137-5.781,2.969
		c3.75,0.625,7.082,1.563,10,2.813v1.406C357.658,96.789,360.729,94.391,363.439,91.578z"/>
	<path fill="#1B3467" d="M374.689,91.578v-2.813c4.162-3.646,6.77-8.49,7.813-14.531h4.063
		C385.416,81.943,381.459,87.725,374.689,91.578z M410.627,91.266c-1.563-0.939-2.867-1.875-3.906-2.814
		c-5.729,9.586-16.305,15.781-31.719,18.596v-2.656c13.646-3.229,22.758-8.906,27.344-17.031h3.125
		c-3.438-2.916-5.68-7.291-6.719-13.125h4.063c0.938,5.729,3.537,10.469,7.813,14.219L410.627,91.266L410.627,91.266z
		 M390.471,93.297V71.109h4.375v22.188H390.471L390.471,93.297z"/>
	<path fill="#1B3467" d="M414.689,103.453v-2.5c5.625-5.414,8.75-11.875,9.375-19.375h-8.596v-2.969h12.5v2.813
		C427.135,90.9,422.709,98.246,414.689,103.453z M425.471,106.422v-2.814h2.813c1.664,0.104,2.443-0.57,2.344-2.031V71.109h4.219
		v30.625c0.104,3.229-1.512,4.789-4.844,4.688H425.471L425.471,106.422z M450.627,103.453c-8.543-5.414-12.867-12.76-12.969-22.031
		v-2.813h4.531c2.707,0,5.154-0.469,7.344-1.406v3.125c-1.773,0.836-4.063,1.25-6.875,1.25h-1.25
		c0.102,7.604,3.176,14.012,9.219,19.219V103.453z"/>
	<path fill="#1B3467" d="M460.783,96.578v-1.719c-0.105-2.916,1.301-5.363,4.219-7.344c3.02-2.189,4.426-4.428,4.219-6.719
		c-0.211-3.541-2.029-5.416-5.469-5.625c-3.543,0-5.887,2.24-7.031,6.719h-3.904c1.037-6.354,4.688-9.531,10.938-9.531
		c6.146,0.313,9.426,3.072,9.844,8.281c0.313,3.229-1.563,6.146-5.625,8.75c-2.188,1.563-3.229,3.49-3.125,5.781v1.404h-4.063v0.002
		H460.783z M460.471,105.172v-4.531h4.688v4.531H460.471z"/>
</g>
</svg>
