<?xml version="1.0" encoding="utf-8"?>
<!-- Generator: Adobe Illustrator 16.0.0, SVG Export Plug-In . SVG Version: 6.00 Build 0)  -->
<!DOCTYPE svg PUBLIC "-//W3C//DTD SVG 1.1//EN" "http://www.w3.org/Graphics/SVG/1.1/DTD/svg11.dtd">
<svg version="1.1" id="图层_1" xmlns="http://www.w3.org/2000/svg" xmlns:xlink="http://www.w3.org/1999/xlink" x="0px" y="0px"
	 width="640px" height="960px" viewBox="0 0 640 960" enable-background="new 0 0 640 960" xml:space="preserve">
<g>
	<g>
		<path fill="#FFFFFF" d="M156.208,835.368c1.727-2.406,3.02-5.172,3.879-8.297h-3.598v-1.57h3.633v-4.664h1.711v4.664h3.422v1.57
			h-3.422v4.078l0.938-0.961c1.078,1.047,2.07,2.055,2.977,3.023l-1.266,1.242c-0.859-1.016-1.742-2.004-2.648-2.965v12.199h-1.711
			v-12.199c-0.844,2.32-1.867,4.293-3.07,5.918C156.817,836.735,156.536,836.056,156.208,835.368z M166.122,822.313h12.328v21.422
			h-1.781v-1.594h-8.766v1.594h-1.781V822.313z M176.669,823.907h-8.766v4.5h8.766V823.907z M167.903,834.454h8.766v-4.5h-8.766
			V834.454z M167.903,840.548h8.766v-4.547h-8.766V840.548z"/>
		<path fill="#FFFFFF" d="M181.146,840.806h18.563v-4.031h-17.133v-1.664h17.133v-3.961h-17.883v-1.664h9.07v-8.695h1.945v8.695
			h8.813v14.391h-1.945v-1.406h-18.563V840.806z M182.575,823.11l1.313-1.172c1.688,1.578,3.258,3.227,4.711,4.945l-1.57,1.336
			C185.716,826.501,184.231,824.798,182.575,823.11z M201.325,823.204c-1.672,1.891-3.336,3.594-4.992,5.109l-1.406-1.266
			c1.594-1.438,3.195-3.148,4.805-5.133L201.325,823.204z"/>
		<path fill="#FFFFFF" d="M204.325,830.306h10.898v-6.047H206.2v-1.852h19.406v1.852h-8.414v6.047h10.195v1.852h-10.195v8.039
			c0,1.063-0.195,1.828-0.586,2.297c-0.438,0.547-1.258,0.836-2.461,0.867c-0.703,0-2.023-0.008-3.961-0.023
			c-0.078-0.719-0.203-1.43-0.375-2.133c1.766,0.125,2.992,0.188,3.68,0.188c0.703,0,1.172-0.133,1.406-0.398
			c0.219-0.219,0.328-0.711,0.328-1.477v-7.359h-10.898V830.306z"/>
		<path fill="#FFFFFF" d="M241.075,835.942h-2.32v4.711h-2.227v-4.711h-8.461v-1.488l8.027-11.953h2.66v11.625h2.32V835.942z
			 M236.528,834.126v-7.605c0-0.539,0.016-1.16,0.047-1.863h-0.047c-0.109,0.297-0.34,0.762-0.691,1.395l-5.402,8.074H236.528z"/>
		<path fill="#FFFFFF" d="M242.997,831.935c0-3.203,0.531-5.627,1.594-7.271s2.602-2.467,4.617-2.467
			c3.844,0,5.766,3.102,5.766,9.305c0,3.063-0.541,5.404-1.623,7.025s-2.6,2.432-4.553,2.432c-1.844,0-3.271-0.77-4.283-2.309
			S242.997,834.872,242.997,831.935z M245.341,831.829c0,4.82,1.223,7.23,3.668,7.23c2.406,0,3.609-2.449,3.609-7.348
			c0-5.07-1.18-7.605-3.539-7.605C246.587,824.106,245.341,826.681,245.341,831.829z"/>
		<path fill="#FFFFFF" d="M257.071,831.935c0-3.203,0.531-5.627,1.594-7.271s2.602-2.467,4.617-2.467
			c3.844,0,5.766,3.102,5.766,9.305c0,3.063-0.541,5.404-1.623,7.025s-2.6,2.432-4.553,2.432c-1.844,0-3.271-0.77-4.283-2.309
			S257.071,834.872,257.071,831.935z M259.415,831.829c0,4.82,1.223,7.23,3.668,7.23c2.406,0,3.609-2.449,3.609-7.348
			c0-5.07-1.18-7.605-3.539-7.605C260.661,824.106,259.415,826.681,259.415,831.829z"/>
		<path fill="#FFFFFF" d="M271.146,831.935c0-3.203,0.531-5.627,1.594-7.271s2.602-2.467,4.617-2.467
			c3.844,0,5.766,3.102,5.766,9.305c0,3.063-0.541,5.404-1.623,7.025s-2.6,2.432-4.553,2.432c-1.844,0-3.271-0.77-4.283-2.309
			S271.146,834.872,271.146,831.935z M273.489,831.829c0,4.82,1.223,7.23,3.668,7.23c2.406,0,3.609-2.449,3.609-7.348
			c0-5.07-1.18-7.605-3.539-7.605C274.735,824.106,273.489,826.681,273.489,831.829z"/>
		<path fill="#FFFFFF" d="M297.653,821.235l-0.352,0.539c2.531,4.172,6.047,7.156,10.547,8.953
			c-0.484,0.766-0.898,1.469-1.242,2.109c-4.594-2.406-8.07-5.508-10.43-9.305c-2.313,3.609-5.82,6.82-10.523,9.633
			c-0.344-0.563-0.742-1.18-1.195-1.852c4.875-2.703,8.5-6.063,10.875-10.078H297.653z M295.075,829.298h2.133v14.508h-2.133
			V829.298z"/>
		<path fill="#FFFFFF" d="M308.481,841.978c5.852-2.492,9.258-5.961,10.219-10.406h-9.914v-1.781h10.16
			c0.07-1.109,0.105-3.023,0.105-5.742h-8.977v-1.781h20.25v1.781h-9.211c-0.016,1.633-0.047,3.547-0.094,5.742h10.5v1.781h-10.184
			c1.492,4.953,4.996,8.266,10.512,9.938c-0.641,0.766-1.18,1.414-1.617,1.945c-5.094-2.055-8.445-5.449-10.055-10.184
			c-1.234,4.406-4.648,7.902-10.242,10.488C309.606,843.337,309.122,842.743,308.481,841.978z"/>
		<path fill="#FFFFFF" d="M333.372,841.86c3.922-0.602,7.125-1.602,9.609-3c-2.039-0.953-4.195-1.938-6.469-2.953
			c0.742-1.109,1.473-2.266,2.191-3.469h-6.152v-1.734h7.172c0.789-1.383,1.57-2.82,2.344-4.313l1.852,0.773
			c-0.688,1.211-1.363,2.391-2.027,3.539h13.91v1.734h-5.027c-0.781,2.367-2.129,4.391-4.043,6.07
			c2.461,1.109,4.914,2.234,7.359,3.375l-1.148,1.875c-2.383-1.25-5.02-2.559-7.91-3.926c-2.719,1.828-6.277,3.145-10.676,3.949
			C334.075,843.188,333.747,842.548,333.372,841.86z M333.7,824.165h10.559c-0.594-0.859-1.277-1.742-2.051-2.648l1.57-1.055
			c0.953,1.031,1.758,2.023,2.414,2.977l-1.078,0.727h9.586v4.453h-1.898v-2.719h-17.227v2.719H333.7V824.165z M339.208,835.204
			c1.875,0.805,3.742,1.621,5.602,2.449c1.867-1.422,3.176-3.16,3.926-5.215h-7.863C340.31,833.384,339.755,834.306,339.208,835.204
			z"/>
		<path fill="#FFFFFF" d="M358.31,825.454h1.875v18.188h-1.875V825.454z M359.364,821.798l1.336-1.195
			c1.047,0.984,2.148,2.078,3.305,3.281l-1.523,1.336C361.403,823.985,360.364,822.845,359.364,821.798z M365.388,824.142v-1.781
			h12.703v17.672c0,2.234-1.07,3.352-3.211,3.352c-0.969,0-2.211-0.016-3.727-0.047c-0.078-0.531-0.203-1.18-0.375-1.945
			c1.438,0.094,2.68,0.141,3.727,0.141c1.141,0,1.711-0.594,1.711-1.781v-15.609H365.388z"/>
		<path fill="#FFFFFF" d="M383.81,824.212h9.34c-0.438-0.75-1.02-1.641-1.746-2.672l1.711-0.984
			c0.766,0.984,1.445,1.945,2.039,2.883l-1.313,0.773h9.609v1.898h-17.555v5.813c0.016,4.906-1.258,8.813-3.82,11.719
			c-0.359-0.391-0.922-0.883-1.688-1.477c2.281-2.484,3.422-5.977,3.422-10.477V824.212z"/>
		<path fill="#FFFFFF" d="M404.505,838.017c1.133-0.461,2.273-0.941,3.422-1.441v-8.098h-3.141v-1.688h3.141v-5.859h1.734v5.859
			h2.859v1.688h-2.859v7.324c0.875-0.398,1.758-0.809,2.648-1.23c0.031,0.656,0.102,1.242,0.211,1.758
			c-2.281,1.031-4.711,2.195-7.289,3.492L404.505,838.017z M422.153,823.813h-9.141v-1.688h12.469v1.711l-9.234,5.836h10.641
			c-0.188,4.328-0.367,7.672-0.539,10.031c-0.203,2.391-1.305,3.586-3.305,3.586c-0.688,0-1.742-0.023-3.164-0.07
			c-0.109-0.781-0.242-1.461-0.398-2.039c1.078,0.172,2.172,0.258,3.281,0.258s1.719-0.664,1.828-1.992
			c0.156-1.953,0.313-4.648,0.469-8.086h-2.508c-0.695,5.258-3.125,9.422-7.289,12.492c-0.438-0.547-0.875-1.023-1.313-1.43
			c3.875-2.68,6.16-6.367,6.855-11.063h-3c-0.898,3.914-3.121,7.141-6.668,9.68c-0.375-0.453-0.781-0.906-1.219-1.359
			c3.234-2.211,5.281-4.984,6.141-8.32h-2.789v-1.781L422.153,823.813z"/>
		<path fill="#FFFFFF" d="M428.481,841.931c6.445-2.867,9.922-7.172,10.43-12.914h-10.008v-1.828h10.09
			c0.039-2.102,0.059-4.219,0.059-6.352h2.039c0,2.102-0.02,4.219-0.059,6.352h10.395v1.828h-10.43
			c1.109,6.242,4.75,10.359,10.922,12.352c-0.797,0.766-1.391,1.398-1.781,1.898c-5.086-2.047-8.41-5.691-9.973-10.934
			c-1.219,4.742-4.629,8.543-10.23,11.402C429.622,843.313,429.138,842.712,428.481,841.931z"/>
		<path fill="#FFFFFF" d="M457.825,826.11l1.922,0.68c-1.5,4.281-3.25,8.305-5.25,12.07c-0.531-0.328-1.172-0.68-1.922-1.055
			C454.372,834.774,456.122,830.876,457.825,826.11z M463.403,820.978h2.086v19.43c0,2.031-1.102,3.047-3.305,3.047
			c-0.875,0-2.039-0.023-3.492-0.07c-0.109-0.688-0.242-1.422-0.398-2.203c1.5,0.141,2.648,0.211,3.445,0.211
			c1.109,0,1.664-0.5,1.664-1.5V820.978z M468.278,827.001l1.758-0.844c1.984,3.609,3.922,7.406,5.813,11.391l-2.133,1.008
			C471.81,834.134,469.997,830.282,468.278,827.001z"/>
	</g>
</g>
<line fill="none" stroke="#FFFFFF" stroke-miterlimit="10" x1="155.856" y1="805.161" x2="481.203" y2="805.161"/>
<g>
	<g>
		<path fill="#F7CC48" d="M169.369,749.753l14.25,14.25l14.313-14.25l3.633,3.632l-14.25,14.313l14.25,14.219l-3.633,3.695
			L183.619,771.3l-14.25,14.313l-3.602-3.695l14.219-14.219l-14.219-14.313L169.369,749.753z"/>
		<path fill="#F7CC48" d="M232.457,786.637v-9.222h-21.795l26.453-36.697h2.08v31.544h5.525v5.153h-5.525v9.222H232.457z
			 M232.644,755.931l-11.581,16.331h11.395v-11.829c0-0.621,0.016-1.314,0.047-2.08S232.582,756.78,232.644,755.931z"/>
		<path fill="#F7CC48" d="M283.779,764.748c0,7.224-1.455,12.88-4.363,16.968s-6.907,6.132-11.999,6.132
			c-5.153,0-9.165-2.065-12.031-6.194s-4.3-9.93-4.3-17.402c0-7.409,1.449-13.184,4.347-17.324
			c2.897-4.139,6.923-6.209,12.077-6.209c5.217,0,9.231,2.075,12.047,6.225C282.371,751.093,283.779,757.028,283.779,764.748z
			 M267.293,781.483c3.021,0,5.293-1.444,6.814-4.332c1.521-2.887,2.282-7.207,2.282-12.962c0-5.589-0.751-9.847-2.251-12.776
			c-1.501-2.928-3.689-4.393-6.566-4.393c-3.002,0-5.268,1.459-6.8,4.377c-1.532,2.919-2.298,7.225-2.298,12.916
			c0,5.526,0.762,9.77,2.283,12.729C262.278,780.003,264.457,781.483,267.293,781.483z"/>
		<path fill="#F7CC48" d="M322.186,764.748c0,7.224-1.455,12.88-4.363,16.968s-6.908,6.132-12,6.132
			c-5.153,0-9.164-2.065-12.031-6.194c-2.866-4.129-4.299-9.93-4.299-17.402c0-7.409,1.448-13.184,4.346-17.324
			c2.898-4.139,6.924-6.209,12.078-6.209c5.216,0,9.23,2.075,12.047,6.225C320.777,751.093,322.186,757.028,322.186,764.748z
			 M305.698,781.483c3.022,0,5.294-1.444,6.815-4.332c1.521-2.887,2.281-7.207,2.281-12.962c0-5.589-0.75-9.847-2.25-12.776
			c-1.502-2.928-3.69-4.393-6.566-4.393c-3.002,0-5.269,1.459-6.801,4.377c-1.531,2.919-2.297,7.225-2.297,12.916
			c0,5.526,0.761,9.77,2.282,12.729C300.684,780.003,302.862,781.483,305.698,781.483z"/>
		<path fill="#F7CC48" d="M360.592,764.748c0,7.224-1.455,12.88-4.363,16.968s-6.908,6.132-12,6.132
			c-5.154,0-9.164-2.065-12.031-6.194s-4.299-9.93-4.299-17.402c0-7.409,1.447-13.184,4.346-17.324
			c2.898-4.139,6.924-6.209,12.078-6.209c5.215,0,9.23,2.075,12.047,6.225C359.184,751.093,360.592,757.028,360.592,764.748z
			 M344.105,781.483c3.021,0,5.293-1.444,6.814-4.332c1.521-2.887,2.281-7.207,2.281-12.962c0-5.589-0.75-9.847-2.25-12.776
			c-1.502-2.928-3.689-4.393-6.566-4.393c-3.002,0-5.268,1.459-6.801,4.377c-1.531,2.919-2.297,7.225-2.297,12.916
			c0,5.526,0.762,9.77,2.281,12.729C339.09,780.003,341.27,781.483,344.105,781.483z"/>
	</g>
</g>
</svg>
