<?xml version="1.0" encoding="utf-8"?>
<!-- Generator: Adobe Illustrator 16.0.0, SVG Export Plug-In . SVG Version: 6.00 Build 0)  -->
<!DOCTYPE svg PUBLIC "-//W3C//DTD SVG 1.1//EN" "http://www.w3.org/Graphics/SVG/1.1/DTD/svg11.dtd">
<svg version="1.1" id="图层_1" xmlns="http://www.w3.org/2000/svg" xmlns:xlink="http://www.w3.org/1999/xlink" x="0px" y="0px"
	 width="640px" height="960px" viewBox="0 0 640 960" enable-background="new 0 0 640 960" xml:space="preserve">
<g>
	<g>
		<path fill="#FFFFFF" d="M185.839,269.816h23.297v2.063h-23.297V269.816z"/>
		<path fill="#FFFFFF" d="M218.316,276.004l1.453,1.5c-2.594,1.891-5.297,3.641-8.109,5.25c-0.344-0.5-0.758-1.039-1.242-1.617
			C213.152,279.684,215.785,277.973,218.316,276.004z M210.465,273.027h6.047v-6.469h-5.109v-1.781h5.109v-4.5h1.922v4.5h7.102
			v-4.523h1.922v4.523h5.133v1.781h-5.133v6.469h6.07v1.781h-23.063V273.027z M218.434,273.027h7.102v-6.469h-7.102V273.027z
			 M224.035,277.621l1.195-1.477c2.688,1.594,5.273,3.242,7.758,4.945l-1.359,1.711C229.16,280.941,226.629,279.215,224.035,277.621
			z"/>
		<path fill="#FFFFFF" d="M234.716,276.73c1.578-2.25,2.836-4.859,3.773-7.828h-3.469v-1.664h3.703v-3.68
			c-1,0.078-2.07,0.156-3.211,0.234c-0.078-0.531-0.195-1.102-0.352-1.711c3.188-0.172,5.969-0.43,8.344-0.773l0.422,1.781
			c-0.969,0.109-2.125,0.219-3.469,0.328v3.82h3.258v1.664h-3.258v3l0.773-0.867c1.031,0.813,2.055,1.664,3.07,2.555l-1.242,1.383
			c-0.797-0.75-1.664-1.555-2.602-2.414v10.617h-1.734V272.84c-0.844,2.219-1.906,4.188-3.188,5.906
			C235.286,278.074,235.013,277.402,234.716,276.73z M242.942,277.316c2.5-1.828,4.539-4,6.117-6.516
			c-1.438,0.703-3.039,1.344-4.805,1.922c-0.25-0.484-0.539-1.008-0.867-1.57c2.313-0.672,4.375-1.516,6.188-2.531
			c-0.672-0.656-1.555-1.43-2.648-2.32l1.078-1.172c1.141,0.891,2.148,1.727,3.023,2.508c1.453-0.922,2.813-2.242,4.078-3.961
			h-7.008c-0.906,1.266-2.133,2.563-3.68,3.891c-0.328-0.422-0.711-0.859-1.148-1.313c2.25-1.828,3.977-3.953,5.18-6.375
			l1.664,0.633c-0.266,0.516-0.555,1.016-0.867,1.5h7.828v1.688c-1.344,2.609-3.719,4.828-7.125,6.656l1.242,0.422
			c-0.25,0.406-0.508,0.805-0.773,1.195h7.43v1.711c-2.078,4.766-6.813,8.008-14.203,9.727c-0.281-0.594-0.563-1.109-0.844-1.547
			c2.484-0.531,4.844-1.359,7.078-2.484c-0.672-0.734-1.477-1.539-2.414-2.414l1.125-1.125c1.016,0.906,1.945,1.781,2.789,2.625
			c1.984-1.406,3.5-3.016,4.547-4.828H249.2c-1.438,1.859-3.164,3.578-5.18,5.156C243.724,278.355,243.364,277.863,242.942,277.316z
			"/>
		<path fill="#FFFFFF" d="M261.78,260.98h18.773v8.555h-1.852v-1.031h-5.262c0.133,1.539,0.332,2.945,0.598,4.219h8.344v1.688
			h-7.922c0.797,2.734,1.984,4.742,3.563,6.023c0.781,0.641,1.391,0.516,1.828-0.375c0.375-0.766,0.656-2.094,0.844-3.984
			c0.719,0.313,1.32,0.539,1.805,0.68c-0.266,1.766-0.586,3.148-0.961,4.148c-0.516,1.328-1.289,1.992-2.32,1.992
			c-0.938,0-1.859-0.398-2.766-1.195c-1.719-1.469-3.016-3.898-3.891-7.289h-8.953v6.117c1.797-0.563,3.711-1.273,5.742-2.133
			c-0.063,0.719-0.07,1.406-0.023,2.063c-2.531,0.859-4.633,1.625-6.305,2.297c-0.188,0.094-0.477,0.242-0.867,0.445l-1.031-1.734
			c0.438-0.313,0.656-0.75,0.656-1.313V260.98z M278.702,262.668h-15.094v4.148h15.094V262.668z M271.565,268.504h-7.957v4.219
			h8.578C271.929,271.434,271.722,270.027,271.565,268.504z"/>
		<path fill="#FFFFFF" d="M294.983,268.738c2.672-1.641,5.156-3.32,7.453-5.039h-17.602v-1.945h20.836v2.32
			c-2.797,1.922-5.656,3.797-8.578,5.625v8.625c0,1.547-0.297,2.617-0.891,3.211c-0.578,0.625-1.648,0.945-3.211,0.961
			c-0.859,0-2.133-0.023-3.82-0.07c-0.094-0.781-0.219-1.539-0.375-2.273c1.563,0.172,2.906,0.266,4.031,0.281
			c1.438,0.016,2.156-0.695,2.156-2.133V268.738z"/>
		<path fill="#FFFFFF" d="M308.735,261.238h22.781v1.711h-7.172c0.008,1.125-0.004,2.172-0.035,3.141h5.777v13.852
			c0,1.797-0.898,2.695-2.695,2.695c-0.844,0-2.039-0.016-3.586-0.047c-0.078-0.547-0.188-1.156-0.328-1.828
			c1.484,0.109,2.609,0.164,3.375,0.164c0.984,0,1.477-0.477,1.477-1.43v-11.719h-4.09c-0.07,1.531-0.227,2.918-0.469,4.16
			c1.719,1.594,3.16,3.059,4.324,4.395l-1.219,1.313c-1.203-1.445-2.406-2.773-3.609-3.984c-0.758,2.109-1.992,4.023-3.703,5.742
			c-0.344-0.391-0.828-0.813-1.453-1.266c2.953-2.688,4.43-6.141,4.43-10.359h-4.898c-0.078,1.641-0.195,2.805-0.352,3.492
			c1.281,1.047,2.336,1.938,3.164,2.672l-1.031,1.547c-0.844-0.875-1.703-1.723-2.578-2.543c-0.703,2.109-1.883,4.027-3.539,5.754
			c-0.375-0.422-0.828-0.867-1.359-1.336c2.594-2.406,3.926-5.602,3.996-9.586h-4.066v14.977h-1.758V266.09h5.895
			c0.031-0.984,0.043-2.031,0.035-3.141h-7.313V261.238z M317.712,266.09h4.898c0.031-0.992,0.043-2.039,0.035-3.141h-4.887
			C317.759,264.074,317.743,265.121,317.712,266.09z"/>
		<path fill="#FFFFFF" d="M337.86,270.121c0.719,0.547,1.328,0.969,1.828,1.266c-2,3.563-3.625,6.641-4.875,9.234l-1.898-1.242
			C334.524,276.941,336.173,273.855,337.86,270.121z M335.071,261.52c1.266,1.266,2.688,2.82,4.266,4.664l-1.523,1.406
			c-1.516-2-2.883-3.617-4.102-4.852L335.071,261.52z M348.103,266.934c-0.016,0.781-0.051,1.551-0.105,2.309
			c1.047,5.32,3.832,9.246,8.355,11.777c-0.641,0.688-1.148,1.297-1.523,1.828c-3.922-2.758-6.438-6.152-7.547-10.184
			c-1.023,4.359-3.836,7.871-8.438,10.535c-0.313-0.484-0.742-1.039-1.289-1.664c4.797-2.531,7.57-6.094,8.32-10.688
			c0.219-1.125,0.336-2.43,0.352-3.914H348.103z M351.196,270.027c0.703-1.297,1.336-2.695,1.898-4.195h-9.223
			c-0.68,1.555-1.434,3.047-2.262,4.477c-0.563-0.406-1.125-0.742-1.688-1.008c1.828-2.984,3.156-6.07,3.984-9.258l1.898,0.539
			c-0.375,1.227-0.789,2.422-1.242,3.586h10.547v1.664c-0.641,1.734-1.344,3.359-2.109,4.875
			C352.47,270.441,351.868,270.215,351.196,270.027z"/>
		<path fill="#FFFFFF" d="M370.433,277.047l-1.98,6.246h-1.641l1.441-6.246H370.433z"/>
		<path fill="#FFFFFF" d="M396.746,259.902h2.016c-0.344,0.773-0.703,1.508-1.078,2.203h7.383v1.453h-5.906
			c0.68,0.664,1.32,1.352,1.922,2.063l-1.336,1.008h3.023v6.258h-1.805v-0.844h-6.375v2.344h9.422
			c-0.063,1.406-0.141,2.742-0.234,4.008c-0.109,1.969-1.109,2.953-3,2.953c-0.953,0-2.133-0.008-3.539-0.023
			c-0.109-0.578-0.242-1.195-0.398-1.852c1.531,0.078,2.727,0.117,3.586,0.117c0.922,0,1.422-0.461,1.5-1.383
			c0.078-0.734,0.133-1.477,0.164-2.227h-7.5v7.172h-1.875v-6.609c-2.18,2.641-5.461,4.656-9.844,6.047
			c-0.281-0.453-0.609-0.953-0.984-1.5c3.805-1.117,6.828-2.82,9.07-5.109h-7.125v-1.594l1.125-3.938h7.758v-2.227h-8.203v-1.594
			h4.605c-0.648-0.844-1.293-1.633-1.934-2.367l0.938-0.703h-1.723c-0.93,1.242-2.004,2.383-3.223,3.422
			c-0.313-0.375-0.703-0.797-1.172-1.266c1.984-1.609,3.508-3.547,4.57-5.813h2.016c-0.359,0.766-0.758,1.5-1.195,2.203h6.797v1.453
			h-5.625c0.625,0.633,1.258,1.313,1.898,2.039l-1.313,1.031h10.547c-0.633-0.852-1.258-1.633-1.875-2.344l0.996-0.727h-1.992
			c-0.609,0.969-1.262,1.844-1.957,2.625c-0.344-0.344-0.82-0.727-1.43-1.148C394.754,263.691,395.855,261.98,396.746,259.902z
			 M385.754,274.387h6.961v-2.344h-6.305L385.754,274.387z M400.965,268.223h-6.375v2.227h6.375V268.223z"/>
		<path fill="#FFFFFF" d="M406.63,269.816h23.297v2.063H406.63V269.816z"/>
		<path fill="#FFFFFF" d="M435.99,270.121c0.719,0.547,1.328,0.969,1.828,1.266c-2,3.563-3.625,6.641-4.875,9.234l-1.898-1.242
			C432.654,276.941,434.303,273.855,435.99,270.121z M433.201,261.52c1.266,1.266,2.688,2.82,4.266,4.664l-1.523,1.406
			c-1.516-2-2.883-3.617-4.102-4.852L433.201,261.52z M446.232,266.934c-0.016,0.781-0.051,1.551-0.105,2.309
			c1.047,5.32,3.832,9.246,8.355,11.777c-0.641,0.688-1.148,1.297-1.523,1.828c-3.922-2.758-6.438-6.152-7.547-10.184
			c-1.023,4.359-3.836,7.871-8.438,10.535c-0.313-0.484-0.742-1.039-1.289-1.664c4.797-2.531,7.57-6.094,8.32-10.688
			c0.219-1.125,0.336-2.43,0.352-3.914H446.232z M449.326,270.027c0.703-1.297,1.336-2.695,1.898-4.195h-9.223
			c-0.68,1.555-1.434,3.047-2.262,4.477c-0.563-0.406-1.125-0.742-1.688-1.008c1.828-2.984,3.156-6.07,3.984-9.258l1.898,0.539
			c-0.375,1.227-0.789,2.422-1.242,3.586h10.547v1.664c-0.641,1.734-1.344,3.359-2.109,4.875
			C450.6,270.441,449.998,270.215,449.326,270.027z"/>
		<path fill="#FFFFFF" d="M190.714,314.129l1.781,0.539c-0.25,0.82-0.535,1.598-0.855,2.332c1.188,1.922,2.957,3.074,5.309,3.457
			v-7.055h-10.688v-1.641h22.547v1.641h-9.984v2.344h8.344v1.594h-8.344v3.258c3,0.063,6.477,0.031,10.43-0.094
			c-0.25,0.672-0.469,1.289-0.656,1.852c-4.594,0.016-8.125-0.008-10.594-0.07c-3.305-0.039-5.691-1.266-7.16-3.68
			c-1.07,1.93-2.426,3.492-4.066,4.688c-0.313-0.469-0.695-0.977-1.148-1.523C188.144,320.082,189.839,317.535,190.714,314.129z
			 M189.542,300.91h15.938v9.773h-1.781v-0.938h-12.375v0.938h-1.781V300.91z M203.698,302.504h-12.375v2.039h12.375V302.504z
			 M191.323,308.152h12.375v-2.063h-12.375V308.152z"/>
		<path fill="#FFFFFF" d="M210.348,311.199h4.125v-10.266h15.305v10.266h3.867v1.781h-3.867v7.078c0,1.891-0.906,2.836-2.719,2.836
			c-1.016,0-2.25-0.031-3.703-0.094c-0.078-0.531-0.195-1.195-0.352-1.992c1.359,0.109,2.492,0.164,3.398,0.164
			c0.938,0,1.406-0.508,1.406-1.523v-6.469h-11.484c-0.359,4.555-1.578,8.008-3.656,10.359c-0.469-0.469-1.008-0.938-1.617-1.406
			c1.828-1.813,2.922-4.797,3.281-8.953h-3.984V311.199z M216.441,302.691v8.508h11.367v-8.508H216.441z M219.371,305.27
			l1.453-1.172c1.172,1.188,2.398,2.531,3.68,4.031l-1.617,1.313C221.918,308.129,220.746,306.738,219.371,305.27z"/>
		<path fill="#FFFFFF" d="M236.005,306.395c1.594,0.969,3.164,2.023,4.711,3.164l-1.313,1.711c-1.563-1.281-3.07-2.398-4.523-3.352
			L236.005,306.395z M238.911,313.191c0.625,0.406,1.266,0.773,1.922,1.102c-1.125,2.797-2.227,5.703-3.305,8.719l-1.992-1.125
			C236.771,319.293,237.896,316.395,238.911,313.191z M237.2,300.418c1.453,0.984,2.961,2.102,4.523,3.352l-1.266,1.594
			c-1.469-1.313-2.938-2.508-4.406-3.586L237.2,300.418z M241.208,319.59h7.5v-15.492h-6.094v-1.734h14.555v1.734h-6.492v15.492
			h7.523v1.734h-16.992V319.59z"/>
		<path fill="#FFFFFF" d="M261.733,302.387h18.609v19.734h-2.016v-2.273h-14.578v2.273h-2.016V302.387z M278.327,318.09v-13.945
			h-14.578v13.945H278.327z"/>
		<path fill="#FFFFFF" d="M284.554,307.59v-1.781h8.086v1.711c-1.328,5.125-3.75,9.516-7.266,13.172
			c-0.531-0.609-1.008-1.086-1.43-1.43c3.531-3.719,5.805-7.609,6.82-11.672H284.554z M294.562,300.09h1.898v3.762
			c0.672,1.828,1.441,3.527,2.309,5.098c1.727-1.438,3.449-3.156,5.168-5.156l1.57,1.406c-1.828,1.914-3.758,3.699-5.789,5.355
			c2.063,3.266,4.586,5.918,7.57,7.957c-0.656,0.656-1.188,1.242-1.594,1.758c-4.109-3.234-7.188-7.238-9.234-12.012v10.957
			c0,2.328-1.117,3.492-3.352,3.492c-0.688,0-1.703-0.008-3.047-0.023c-0.078-0.578-0.203-1.281-0.375-2.109
			c1.25,0.125,2.266,0.188,3.047,0.188c1.219,0,1.828-0.586,1.828-1.758V300.09z"/>
		<path fill="#FFFFFF" d="M308.407,317.176c2.094-2.281,3.859-5.102,5.297-8.461h-5.18v-1.711h5.625v-3.516
			c-1.609,0.156-3.203,0.305-4.781,0.445c-0.109-0.578-0.266-1.172-0.469-1.781c3.75-0.297,7.578-0.695,11.484-1.195l0.469,1.781
			c-1.656,0.203-3.297,0.391-4.922,0.563v3.703h5.32v1.711h-5.32v3.141l1.031-0.984c1.469,1.25,2.93,2.594,4.383,4.031l-1.43,1.453
			c-0.953-1.109-2.281-2.477-3.984-4.102v10.805h-1.781V311.34c-1.344,3.031-2.945,5.68-4.805,7.945
			C308.923,318.27,308.61,317.566,308.407,317.176z M322.985,302.809h1.781v14.813h-1.781V302.809z M328.54,300.465h1.852v19.523
			c0,1.984-1,2.969-3,2.953c-0.641,0-1.68-0.008-3.117-0.023c-0.094-0.641-0.211-1.344-0.352-2.109
			c1.266,0.141,2.227,0.211,2.883,0.211c1.156,0.016,1.734-0.57,1.734-1.758V300.465z"/>
		<path fill="#FFFFFF" d="M332.962,314.855c1.625-2.531,2.773-5.305,3.445-8.32h-3.281v-1.57h3.305v-4.711h1.641v4.711h3.023v1.57
			h-3.023v3.727l0.844-0.82c0.859,0.828,1.758,1.719,2.695,2.672l-1.242,1.289c-0.859-1-1.625-1.836-2.297-2.508v12.188h-1.641
			v-12.07c-0.766,2.438-1.672,4.406-2.719,5.906C333.509,316.246,333.259,315.559,332.962,314.855z M341.938,301.66h14.156v1.641
			H343.72v17.344h12.398v1.641h-14.18V301.66z M352.907,304.074l1.711,0.773c-1.094,2.313-2.313,4.602-3.656,6.867
			c1.313,2,2.68,4.117,4.102,6.352l-1.688,1.172c-1.234-2.063-2.391-3.977-3.469-5.742c-1.281,2.047-2.656,4.07-4.125,6.07
			c-0.469-0.406-0.977-0.789-1.523-1.148c1.703-2.281,3.227-4.5,4.57-6.656c-1.531-2.422-2.914-4.523-4.148-6.305l1.477-0.961
			c1.172,1.719,2.406,3.563,3.703,5.531C351.048,307.996,352.063,306.012,352.907,304.074z"/>
		<path fill="#FFFFFF" d="M357.472,319.262c2.547-0.422,5.344-0.961,8.391-1.617c-0.078,0.625-0.133,1.234-0.164,1.828
			c-2.625,0.469-5.227,1.016-7.805,1.641L357.472,319.262z M360.542,313.988c1.641-0.188,3.375-0.406,5.203-0.656
			c-0.109,0.578-0.18,1.141-0.211,1.688c-3,0.328-5.383,0.672-7.148,1.031l-0.375-1.711c1.32-1.469,2.617-3.16,3.891-5.074
			c-1.297,0.063-2.586,0.16-3.867,0.293l-0.445-1.594c1.453-1.922,2.914-4.609,4.383-8.063l1.781,0.703
			c-1.5,2.953-2.852,5.359-4.055,7.219c1.18-0.023,2.238-0.051,3.176-0.082c0.703-1.125,1.395-2.316,2.074-3.574l1.734,0.867
			C364.589,308.426,362.542,311.41,360.542,313.988z M364.386,320.316h3.82l0.68-8.391h-2.977v-1.641h3.117l0.586-7.266h-3.305
			v-1.641h12.82l-0.902,18.938h2.426v1.641h-16.266V320.316z M369.987,320.316h6.48l0.387-8.391h-6.188L369.987,320.316z
			 M377.276,303.02h-5.906l-0.574,7.266h6.141L377.276,303.02z"/>
		<path fill="#FFFFFF" d="M382.285,306.113v-1.688h7.758v1.734c-0.867,1.492-1.789,2.879-2.766,4.16v0.727
			c0.375,0.266,0.754,0.531,1.137,0.797c0.773-1.031,1.496-2.105,2.168-3.223l1.547,0.984c-0.672,0.969-1.465,2.035-2.379,3.199
			c0.781,0.57,1.566,1.152,2.355,1.746l-1.195,1.43c-1.195-0.984-2.406-1.957-3.633-2.918v9.879h-1.781v-10.477
			c-0.922,1.016-1.891,1.953-2.906,2.813c-0.172-0.609-0.383-1.281-0.633-2.016c2.25-1.766,4.25-4.148,6-7.148H382.285z
			 M384.512,300.699l1.641-0.82c0.578,0.922,1.188,1.992,1.828,3.211l-1.734,0.891C385.668,302.73,385.09,301.637,384.512,300.699z
			 M391.145,302.035h13.031c-0.234,8.172-0.414,13.508-0.539,16.008c-0.063,2.922-1.313,4.367-3.75,4.336
			c-0.797,0-1.945-0.023-3.445-0.07c-0.109-0.734-0.234-1.438-0.375-2.109c1.5,0.141,2.703,0.211,3.609,0.211
			c1.281,0.047,1.953-0.781,2.016-2.484c0.156-2.453,0.32-7.148,0.492-14.086h-5.32c-0.094,3.031-0.211,5.484-0.352,7.359
			c-0.344,4.828-2.461,8.781-6.352,11.859c-0.406-0.484-0.906-0.984-1.5-1.5c3.625-2.797,5.586-6.297,5.883-10.5
			c0.18-2.07,0.293-4.477,0.34-7.219h-3.738V302.035z"/>
		<path fill="#FFFFFF" d="M410.661,317.715l1.43,1.125c-1.578,1.703-3.016,3.133-4.313,4.289c-0.328-0.375-0.742-0.789-1.242-1.242
			C408.021,320.621,409.396,319.23,410.661,317.715z M406.724,315.676h2.203v-10.828h-1.922v-1.594h1.922v-2.859h1.734v2.859h4.875
			v-2.953h1.734v2.953h1.898v1.594h-1.898v10.828h1.875v1.594h-12.422V315.676z M410.661,307.449h4.875v-2.602h-4.875V307.449z
			 M410.661,311.551h4.875v-2.602h-4.875V311.551z M410.661,315.676h4.875v-2.625h-4.875V315.676z M413.731,318.816l1.125-1.148
			c1.094,0.813,2.125,1.633,3.094,2.461l-1.242,1.336C415.833,320.59,414.841,319.707,413.731,318.816z M420.388,300.957h8.297
			v19.008c0,1.844-0.875,2.766-2.625,2.766c-0.875,0-1.734-0.023-2.578-0.07c-0.063-0.516-0.156-1.117-0.281-1.805
			c1.141,0.109,1.961,0.164,2.461,0.164c0.859,0,1.289-0.43,1.289-1.289v-4.922h-5.016c-0.172,3.422-1.211,6.266-3.117,8.531
			c-0.422-0.438-0.891-0.875-1.406-1.313c1.266-1.453,2.07-2.961,2.414-4.523c0.375-1.5,0.563-4.109,0.563-7.828V300.957z
			 M422.04,313.262h4.91v-4.594h-4.828C422.138,310.684,422.11,312.215,422.04,313.262z M426.95,302.551h-4.828v4.57h4.828V302.551z
			"/>
		<path fill="#FFFFFF" d="M431.467,319.59h10.266v-15.633h-8.93v-1.875h19.969v1.875h-8.977v15.633h10.289v1.828h-22.617V319.59z"/>
		<path fill="#FFFFFF" d="M185.628,356.566c1.547-2.258,2.734-4.93,3.563-8.016h-3.281v-1.547h3.656v-3.668
			c-0.984,0.141-1.992,0.27-3.023,0.387c-0.125-0.531-0.289-1.07-0.492-1.617c2.656-0.219,5.336-0.641,8.039-1.266l0.516,1.641
			c-1.086,0.219-2.203,0.422-3.352,0.609v3.914h3.258v1.547h-3.258v3.094l0.914-0.797c0.625,0.641,1.539,1.664,2.742,3.07
			l-1.406,1.148c-0.906-1.156-1.656-2.09-2.25-2.801v10.84h-1.688v-11.227c-0.828,2.688-1.875,4.93-3.141,6.727
			C186.175,357.934,185.909,357.254,185.628,356.566z M193.901,360.27h6.703v-3.469h-5.32v-1.57h5.32v-3.188h-5.883v-1.57h13.664
			v1.57h-5.906v3.188h5.32v1.57h-5.32v3.469h6.703v1.57h-15.281V360.27z M195.776,341.098h11.625v8.039h-1.781v-0.961h-8.063v0.961
			h-1.781V341.098z M205.62,342.691h-8.063v3.891h8.063V342.691z"/>
		<path fill="#FFFFFF" d="M218.762,352.957c0.984,2.125,1.891,4.234,2.719,6.328c-0.688,0.297-1.273,0.555-1.758,0.773
			c-0.109-0.297-0.219-0.594-0.328-0.891c-2.977,0.281-5.688,0.563-8.133,0.844l-0.82-1.898c0.688-0.391,1.242-1.023,1.664-1.898
			c0.766-1.539,1.563-3.492,2.391-5.859h-3.961v-1.734h11.32v1.734h-5.391c-1.336,3.328-2.492,5.914-3.469,7.758
			c1.797-0.133,3.73-0.309,5.801-0.527c-0.523-1.328-1.074-2.629-1.652-3.902L218.762,352.957z M211.52,342.035h9.398v1.734h-9.398
			V342.035z M221.152,344.871h3.492c0.023-1.57,0.031-3.18,0.023-4.828h1.922c-0.008,1.633-0.027,3.242-0.059,4.828h6.316
			c-0.109,5.906-0.266,10.664-0.469,14.273c-0.172,2.203-1.195,3.32-3.07,3.352c-0.969,0-2.023-0.023-3.164-0.07
			c-0.109-0.656-0.234-1.344-0.375-2.063c1.078,0.141,2.063,0.219,2.953,0.234c1.156,0,1.758-0.648,1.805-1.945
			c0.234-3.875,0.375-7.875,0.422-12h-4.453c-0.016,0.672-0.031,1.336-0.047,1.992c-0.078,6.156-1.938,11.016-5.578,14.578
			c-0.438-0.531-0.906-1.063-1.406-1.594c3.266-2.906,4.969-7.25,5.109-13.031c0.016-0.641,0.031-1.289,0.047-1.945h-3.469V344.871z
			"/>
		<path fill="#FFFFFF" d="M245.251,360.516l5.543,0.082l7.406-0.234c-0.266,0.641-0.516,1.266-0.75,1.875l-7.219,0.023l-5.32-0.047
			c-2.797-0.07-4.813-0.977-6.047-2.719c-0.969,0.828-1.953,1.852-2.953,3.07l-1.008-1.992c1.148-0.992,2.188-1.883,3.117-2.672
			v-7.992h-3v-1.711h4.875v10.031C241.06,359.707,242.845,360.469,245.251,360.516z M237.505,340.16
			c0.984,1.172,2.18,2.68,3.586,4.523c-0.563,0.328-1.125,0.695-1.688,1.102c-1.344-1.984-2.453-3.516-3.328-4.594L237.505,340.16z
			 M241.724,349.184h7.219v-5.906c-1.992,0.117-4.008,0.234-6.047,0.352c-0.109-0.531-0.25-1.102-0.422-1.711
			c5.172-0.25,9.859-0.547,14.063-0.891l0.422,1.734c-2.008,0.133-4.039,0.266-6.094,0.398v6.023h7.078v1.781h-7.078v8.672h-1.922
			v-8.672h-7.219V349.184z"/>
		<path fill="#FFFFFF" d="M259.249,356.73c1.578-2.25,2.836-4.859,3.773-7.828h-3.469v-1.664h3.703v-3.68
			c-1,0.078-2.07,0.156-3.211,0.234c-0.078-0.531-0.195-1.102-0.352-1.711c3.188-0.172,5.969-0.43,8.344-0.773l0.422,1.781
			c-0.969,0.109-2.125,0.219-3.469,0.328v3.82h3.258v1.664h-3.258v3l0.773-0.867c1.031,0.813,2.055,1.664,3.07,2.555l-1.242,1.383
			c-0.797-0.75-1.664-1.555-2.602-2.414v10.617h-1.734V352.84c-0.844,2.219-1.906,4.188-3.188,5.906
			C259.819,358.074,259.546,357.402,259.249,356.73z M267.476,357.316c2.5-1.828,4.539-4,6.117-6.516
			c-1.438,0.703-3.039,1.344-4.805,1.922c-0.25-0.484-0.539-1.008-0.867-1.57c2.313-0.672,4.375-1.516,6.188-2.531
			c-0.672-0.656-1.555-1.43-2.648-2.32l1.078-1.172c1.141,0.891,2.148,1.727,3.023,2.508c1.453-0.922,2.813-2.242,4.078-3.961
			h-7.008c-0.906,1.266-2.133,2.563-3.68,3.891c-0.328-0.422-0.711-0.859-1.148-1.313c2.25-1.828,3.977-3.953,5.18-6.375
			l1.664,0.633c-0.266,0.516-0.555,1.016-0.867,1.5h7.828v1.688c-1.344,2.609-3.719,4.828-7.125,6.656l1.242,0.422
			c-0.25,0.406-0.508,0.805-0.773,1.195h7.43v1.711c-2.078,4.766-6.813,8.008-14.203,9.727c-0.281-0.594-0.563-1.109-0.844-1.547
			c2.484-0.531,4.844-1.359,7.078-2.484c-0.672-0.734-1.477-1.539-2.414-2.414l1.125-1.125c1.016,0.906,1.945,1.781,2.789,2.625
			c1.984-1.406,3.5-3.016,4.547-4.828h-6.727c-1.438,1.859-3.164,3.578-5.18,5.156C268.257,358.355,267.897,357.863,267.476,357.316
			z"/>
		<path fill="#FFFFFF" d="M286.312,340.98h18.773v8.555h-1.852v-1.031h-5.262c0.133,1.539,0.332,2.945,0.598,4.219h8.344v1.688
			h-7.922c0.797,2.734,1.984,4.742,3.563,6.023c0.781,0.641,1.391,0.516,1.828-0.375c0.375-0.766,0.656-2.094,0.844-3.984
			c0.719,0.313,1.32,0.539,1.805,0.68c-0.266,1.766-0.586,3.148-0.961,4.148c-0.516,1.328-1.289,1.992-2.32,1.992
			c-0.938,0-1.859-0.398-2.766-1.195c-1.719-1.469-3.016-3.898-3.891-7.289h-8.953v6.117c1.797-0.563,3.711-1.273,5.742-2.133
			c-0.063,0.719-0.07,1.406-0.023,2.063c-2.531,0.859-4.633,1.625-6.305,2.297c-0.188,0.094-0.477,0.242-0.867,0.445l-1.031-1.734
			c0.438-0.313,0.656-0.75,0.656-1.313V340.98z M303.233,342.668H288.14v4.148h15.094V342.668z M296.097,348.504h-7.957v4.219h8.578
			C296.46,351.434,296.253,350.027,296.097,348.504z"/>
		<path fill="#FFFFFF" d="M321.368,357.047l-1.98,6.246h-1.641l1.441-6.246H321.368z"/>
		<path fill="#FFFFFF" d="M347.681,339.902h2.016c-0.344,0.773-0.703,1.508-1.078,2.203h7.383v1.453h-5.906
			c0.68,0.664,1.32,1.352,1.922,2.063l-1.336,1.008h3.023v6.258h-1.805v-0.844h-6.375v2.344h9.422
			c-0.063,1.406-0.141,2.742-0.234,4.008c-0.109,1.969-1.109,2.953-3,2.953c-0.953,0-2.133-0.008-3.539-0.023
			c-0.109-0.578-0.242-1.195-0.398-1.852c1.531,0.078,2.727,0.117,3.586,0.117c0.922,0,1.422-0.461,1.5-1.383
			c0.078-0.734,0.133-1.477,0.164-2.227h-7.5v7.172h-1.875v-6.609c-2.18,2.641-5.461,4.656-9.844,6.047
			c-0.281-0.453-0.609-0.953-0.984-1.5c3.805-1.117,6.828-2.82,9.07-5.109h-7.125v-1.594l1.125-3.938h7.758v-2.227h-8.203v-1.594
			h4.605c-0.648-0.844-1.293-1.633-1.934-2.367l0.938-0.703h-1.723c-0.93,1.242-2.004,2.383-3.223,3.422
			c-0.313-0.375-0.703-0.797-1.172-1.266c1.984-1.609,3.508-3.547,4.57-5.813h2.016c-0.359,0.766-0.758,1.5-1.195,2.203h6.797v1.453
			h-5.625c0.625,0.633,1.258,1.313,1.898,2.039l-1.313,1.031h10.547c-0.633-0.852-1.258-1.633-1.875-2.344l0.996-0.727h-1.992
			c-0.609,0.969-1.262,1.844-1.957,2.625c-0.344-0.344-0.82-0.727-1.43-1.148C345.688,343.691,346.79,341.98,347.681,339.902z
			 M336.688,354.387h6.961v-2.344h-6.305L336.688,354.387z M351.899,348.223h-6.375v2.227h6.375V348.223z"/>
		<path fill="#FFFFFF" d="M357.894,358.371h22.523v1.969h-22.523V358.371z M359.628,343.02h19.125v2.016h-19.125V343.02z"/>
		<path fill="#FFFFFF" d="M386.926,350.121c0.719,0.547,1.328,0.969,1.828,1.266c-2,3.563-3.625,6.641-4.875,9.234l-1.898-1.242
			C383.59,356.941,385.238,353.855,386.926,350.121z M384.137,341.52c1.266,1.266,2.688,2.82,4.266,4.664l-1.523,1.406
			c-1.516-2-2.883-3.617-4.102-4.852L384.137,341.52z M397.168,346.934c-0.016,0.781-0.051,1.551-0.105,2.309
			c1.047,5.32,3.832,9.246,8.355,11.777c-0.641,0.688-1.148,1.297-1.523,1.828c-3.922-2.758-6.438-6.152-7.547-10.184
			c-1.023,4.359-3.836,7.871-8.438,10.535c-0.313-0.484-0.742-1.039-1.289-1.664c4.797-2.531,7.57-6.094,8.32-10.688
			c0.219-1.125,0.336-2.43,0.352-3.914H397.168z M400.262,350.027c0.703-1.297,1.336-2.695,1.898-4.195h-9.223
			c-0.68,1.555-1.434,3.047-2.262,4.477c-0.563-0.406-1.125-0.742-1.688-1.008c1.828-2.984,3.156-6.07,3.984-9.258l1.898,0.539
			c-0.375,1.227-0.789,2.422-1.242,3.586h10.547v1.664c-0.641,1.734-1.344,3.359-2.109,4.875
			C401.535,350.441,400.934,350.215,400.262,350.027z"/>
		<path fill="#FFFFFF" d="M411.505,354.129l1.781,0.539c-0.25,0.82-0.535,1.598-0.855,2.332c1.188,1.922,2.957,3.074,5.309,3.457
			v-7.055h-10.688v-1.641h22.547v1.641h-9.984v2.344h8.344v1.594h-8.344v3.258c3,0.063,6.477,0.031,10.43-0.094
			c-0.25,0.672-0.469,1.289-0.656,1.852c-4.594,0.016-8.125-0.008-10.594-0.07c-3.305-0.039-5.691-1.266-7.16-3.68
			c-1.07,1.93-2.426,3.492-4.066,4.688c-0.313-0.469-0.695-0.977-1.148-1.523C408.935,360.082,410.63,357.535,411.505,354.129z
			 M410.333,340.91h15.938v9.773h-1.781v-0.938h-12.375v0.938h-1.781V340.91z M424.489,342.504h-12.375v2.039h12.375V342.504z
			 M412.114,348.152h12.375v-2.063h-12.375V348.152z"/>
		<path fill="#FFFFFF" d="M431.139,351.199h4.125v-10.266h15.305v10.266h3.867v1.781h-3.867v7.078c0,1.891-0.906,2.836-2.719,2.836
			c-1.016,0-2.25-0.031-3.703-0.094c-0.078-0.531-0.195-1.195-0.352-1.992c1.359,0.109,2.492,0.164,3.398,0.164
			c0.938,0,1.406-0.508,1.406-1.523v-6.469h-11.484c-0.359,4.555-1.578,8.008-3.656,10.359c-0.469-0.469-1.008-0.938-1.617-1.406
			c1.828-1.813,2.922-4.797,3.281-8.953h-3.984V351.199z M437.232,342.691v8.508H448.6v-8.508H437.232z M440.162,345.27l1.453-1.172
			c1.172,1.188,2.398,2.531,3.68,4.031l-1.617,1.313C442.709,348.129,441.537,346.738,440.162,345.27z"/>
		<path fill="#FFFFFF" d="M186.94,386.395c1.594,0.969,3.164,2.023,4.711,3.164l-1.313,1.711c-1.563-1.281-3.07-2.398-4.523-3.352
			L186.94,386.395z M189.847,393.191c0.625,0.406,1.266,0.773,1.922,1.102c-1.125,2.797-2.227,5.703-3.305,8.719l-1.992-1.125
			C187.706,399.293,188.831,396.395,189.847,393.191z M188.136,380.418c1.453,0.984,2.961,2.102,4.523,3.352l-1.266,1.594
			c-1.469-1.313-2.938-2.508-4.406-3.586L188.136,380.418z M192.144,399.59h7.5v-15.492h-6.094v-1.734h14.555v1.734h-6.492v15.492
			h7.523v1.734h-16.992V399.59z"/>
		<path fill="#FFFFFF" d="M215.394,382.387h18.609v19.734h-2.016v-2.273h-14.578v2.273h-2.016V382.387z M231.987,398.09v-13.945
			h-14.578v13.945H231.987z"/>
		<path fill="#FFFFFF" d="M240.94,387.59v-1.781h8.086v1.711c-1.328,5.125-3.75,9.516-7.266,13.172
			c-0.531-0.609-1.008-1.086-1.43-1.43c3.531-3.719,5.805-7.609,6.82-11.672H240.94z M250.948,380.09h1.898v3.762
			c0.672,1.828,1.441,3.527,2.309,5.098c1.727-1.438,3.449-3.156,5.168-5.156l1.57,1.406c-1.828,1.914-3.758,3.699-5.789,5.355
			c2.063,3.266,4.586,5.918,7.57,7.957c-0.656,0.656-1.188,1.242-1.594,1.758c-4.109-3.234-7.188-7.238-9.234-12.012v10.957
			c0,2.328-1.117,3.492-3.352,3.492c-0.688,0-1.703-0.008-3.047-0.023c-0.078-0.578-0.203-1.281-0.375-2.109
			c1.25,0.125,2.266,0.188,3.047,0.188c1.219,0,1.828-0.586,1.828-1.758V380.09z"/>
		<path fill="#FFFFFF" d="M278.418,380.746l1.43-1.055c0.75,0.719,1.445,1.5,2.086,2.344l-0.996,0.727h9.691v1.688h-18.867v6.68
			c0.016,5.375-1.008,9.414-3.07,12.117c-0.391-0.5-0.836-1.031-1.336-1.594c1.703-2.234,2.547-5.633,2.531-10.195v-8.695h10.16
			C279.539,382.082,278.996,381.41,278.418,380.746z M272.254,397.035h8.883v-2.484h-7.148v-1.711
			c0.813-1.18,1.574-2.461,2.285-3.844h-3.41v-1.688h4.23c0.391-0.836,0.762-1.703,1.113-2.602l1.922,0.516
			c-0.32,0.719-0.645,1.414-0.973,2.086h10.254v1.688h-11.098c-0.719,1.391-1.449,2.68-2.191,3.867h5.016v-2.977h1.875v2.977h6.422
			v1.688h-6.422v2.484h7.57v1.688h-7.57v4.336h-1.875v-4.336h-8.883V397.035z"/>
		<path fill="#FFFFFF" d="M295.364,384.285h3.27c0.016-1.258,0.02-2.656,0.012-4.195h1.852c0,1.555-0.008,2.953-0.023,4.195h5.461
			c-0.078,6-0.18,10.711-0.305,14.133c-0.063,2.813-1.125,4.164-3.188,4.055c-0.609,0-1.508-0.023-2.695-0.07
			c-0.109-0.656-0.234-1.336-0.375-2.039c1.094,0.141,1.984,0.211,2.672,0.211c1.047,0.031,1.617-0.711,1.711-2.227
			c0.172-3.703,0.273-7.797,0.305-12.281h-3.609c-0.016,1.195-0.039,2.211-0.07,3.047c-0.063,6.109-1.531,10.813-4.406,14.109
			c-0.391-0.484-0.852-1.008-1.383-1.57c2.594-2.844,3.914-7.086,3.961-12.727c0.031-0.82,0.055-1.773,0.07-2.859h-3.258V384.285z
			 M308.231,383.137h8.906v19.313h-1.852v-2.367h-5.203v2.367h-1.852V383.137z M315.286,384.871h-5.203v13.523h5.203V384.871z"/>
		<path fill="#FFFFFF" d="M322.224,382.152h10.734c-0.344-0.664-0.672-1.25-0.984-1.758l1.758-0.703
			c0.445,0.773,0.879,1.594,1.301,2.461h10.254v1.547h-23.063V382.152z M325.388,402.895h-1.781v-10.992h20.484v7.969
			c0,1.922-0.906,2.883-2.719,2.883c-1.016,0-2.156-0.016-3.422-0.047c-0.094-0.531-0.219-1.148-0.375-1.852
			c1.438,0.109,2.539,0.164,3.305,0.164c0.953,0,1.43-0.477,1.43-1.43v-6.188h-16.922V402.895z M326.231,385.246h15.211v5.719
			h-1.781v-0.75h-11.648v0.727h-1.781V385.246z M339.661,386.699h-11.648v2.063h11.648V386.699z M328.552,394.949h10.594v4.898
			h-8.906v1.008h-1.688V394.949z M337.458,398.395v-1.992h-7.219v1.992H337.458z"/>
		<path fill="#FFFFFF" d="M353.935,388.738c0,4.297-0.219,7.195-0.656,8.695c-0.438,1.719-1.367,3.617-2.789,5.695
			c-0.359-0.531-0.789-1.078-1.289-1.641c1.109-1.578,1.859-3.164,2.25-4.758c0.391-1.531,0.586-3.781,0.586-6.75v-7.898
			c6.844-0.219,12.875-0.688,18.094-1.406l1.125,1.945c-6.469,0.656-12.242,1.078-17.32,1.266v3.094h18.563v1.758H353.935z
			 M356.091,392.512h14.25v10.547h-1.875v-1.594h-10.5v1.594h-1.875V392.512z M368.466,394.223h-10.5v5.578h10.5V394.223z"/>
		<path fill="#FFFFFF" d="M385.036,392.957c0.984,2.125,1.891,4.234,2.719,6.328c-0.688,0.297-1.273,0.555-1.758,0.773
			c-0.109-0.297-0.219-0.594-0.328-0.891c-2.977,0.281-5.688,0.563-8.133,0.844l-0.82-1.898c0.688-0.391,1.242-1.023,1.664-1.898
			c0.766-1.539,1.563-3.492,2.391-5.859h-3.961v-1.734h11.32v1.734h-5.391c-1.336,3.328-2.492,5.914-3.469,7.758
			c1.797-0.133,3.73-0.309,5.801-0.527c-0.523-1.328-1.074-2.629-1.652-3.902L385.036,392.957z M377.794,382.035h9.398v1.734h-9.398
			V382.035z M387.427,384.871h3.492c0.023-1.57,0.031-3.18,0.023-4.828h1.922c-0.008,1.633-0.027,3.242-0.059,4.828h6.317
			c-0.11,5.906-0.267,10.664-0.469,14.273c-0.173,2.203-1.195,3.32-3.071,3.352c-0.969,0-2.023-0.023-3.164-0.07
			c-0.109-0.656-0.234-1.344-0.375-2.063c1.078,0.141,2.063,0.219,2.953,0.234c1.156,0,1.759-0.648,1.806-1.945
			c0.234-3.875,0.375-7.875,0.422-12h-4.454c-0.016,0.672-0.031,1.336-0.047,1.992c-0.078,6.156-1.938,11.016-5.578,14.578
			c-0.438-0.531-0.906-1.063-1.406-1.594c3.266-2.906,4.969-7.25,5.109-13.031c0.016-0.641,0.031-1.289,0.047-1.945h-3.469V384.871z
			"/>
		<path fill="#FFFFFF" d="M414.252,400.516l5.543,0.082l7.406-0.234c-0.266,0.641-0.516,1.266-0.75,1.875l-7.219,0.023l-5.32-0.047
			c-2.797-0.07-4.813-0.977-6.047-2.719c-0.969,0.828-1.953,1.852-2.953,3.07l-1.008-1.992c1.148-0.992,2.188-1.883,3.117-2.672
			v-7.992h-3v-1.711h4.875v10.031C410.061,399.707,411.846,400.469,414.252,400.516z M406.506,380.16
			c0.984,1.172,2.18,2.68,3.586,4.523c-0.563,0.328-1.125,0.695-1.688,1.102c-1.344-1.984-2.453-3.516-3.328-4.594L406.506,380.16z
			 M410.725,389.184h7.219v-5.906c-1.992,0.117-4.008,0.234-6.047,0.352c-0.109-0.531-0.25-1.102-0.422-1.711
			c5.172-0.25,9.859-0.547,14.063-0.891l0.422,1.734c-2.008,0.133-4.039,0.266-6.094,0.398v6.023h7.078v1.781h-7.078v8.672h-1.922
			v-8.672h-7.219V389.184z"/>
		<path fill="#FFFFFF" d="M430.975,396.73c1.578-2.25,2.836-4.859,3.773-7.828h-3.469v-1.664h3.703v-3.68
			c-1,0.078-2.07,0.156-3.211,0.234c-0.078-0.531-0.195-1.102-0.352-1.711c3.188-0.172,5.969-0.43,8.344-0.773l0.422,1.781
			c-0.969,0.109-2.125,0.219-3.469,0.328v3.82h3.258v1.664h-3.258v3l0.773-0.867c1.031,0.813,2.055,1.664,3.07,2.555l-1.242,1.383
			c-0.797-0.75-1.664-1.555-2.602-2.414v10.617h-1.734V392.84c-0.844,2.219-1.906,4.188-3.188,5.906
			C431.545,398.074,431.271,397.402,430.975,396.73z M439.201,397.316c2.5-1.828,4.539-4,6.117-6.516
			c-1.438,0.703-3.039,1.344-4.805,1.922c-0.25-0.484-0.539-1.008-0.867-1.57c2.313-0.672,4.375-1.516,6.188-2.531
			c-0.672-0.656-1.555-1.43-2.648-2.32l1.078-1.172c1.141,0.891,2.148,1.727,3.023,2.508c1.453-0.922,2.813-2.242,4.078-3.961
			h-7.008c-0.906,1.266-2.133,2.563-3.68,3.891c-0.328-0.422-0.711-0.859-1.148-1.313c2.25-1.828,3.977-3.953,5.18-6.375
			l1.664,0.633c-0.266,0.516-0.555,1.016-0.867,1.5h7.828v1.688c-1.344,2.609-3.719,4.828-7.125,6.656l1.242,0.422
			c-0.25,0.406-0.508,0.805-0.773,1.195h7.43v1.711c-2.078,4.766-6.813,8.008-14.203,9.727c-0.281-0.594-0.563-1.109-0.844-1.547
			c2.484-0.531,4.844-1.359,7.078-2.484c-0.672-0.734-1.477-1.539-2.414-2.414l1.125-1.125c1.016,0.906,1.945,1.781,2.789,2.625
			c1.984-1.406,3.5-3.016,4.547-4.828h-6.727c-1.438,1.859-3.164,3.578-5.18,5.156C439.982,398.355,439.623,397.863,439.201,397.316
			z"/>
		<path fill="#FFFFFF" d="M188.183,420.98h18.773v8.555h-1.852v-1.031h-5.262c0.133,1.539,0.332,2.945,0.598,4.219h8.344v1.688
			h-7.922c0.797,2.734,1.984,4.742,3.563,6.023c0.781,0.641,1.391,0.516,1.828-0.375c0.375-0.766,0.656-2.094,0.844-3.984
			c0.719,0.313,1.32,0.539,1.805,0.68c-0.266,1.766-0.586,3.148-0.961,4.148c-0.516,1.328-1.289,1.992-2.32,1.992
			c-0.938,0-1.859-0.398-2.766-1.195c-1.719-1.469-3.016-3.898-3.891-7.289h-8.953v6.117c1.797-0.563,3.711-1.273,5.742-2.133
			c-0.063,0.719-0.07,1.406-0.023,2.063c-2.531,0.859-4.633,1.625-6.305,2.297c-0.188,0.094-0.477,0.242-0.867,0.445l-1.031-1.734
			c0.438-0.313,0.656-0.75,0.656-1.313V420.98z M205.104,422.668h-15.094v4.148h15.094V422.668z M197.968,428.504h-7.957v4.219
			h8.578C198.331,431.434,198.124,430.027,197.968,428.504z"/>
		<path fill="#FFFFFF" d="M222.706,437.047l-1.98,6.246h-1.641l1.441-6.246H222.706z"/>
		<path fill="#FFFFFF" d="M236.159,434.621l1.758,0.563c-0.641,1.953-1.453,3.961-2.438,6.023c-0.5-0.219-1.07-0.469-1.711-0.75
			C234.675,438.629,235.472,436.684,236.159,434.621z M236.839,424.004h10.242c0.977-1.422,1.852-2.797,2.625-4.125l1.805,0.938
			c-0.781,1.07-1.578,2.133-2.391,3.188h4.969v9.563h-1.875v-1.031h-13.5v1.031h-1.875V424.004z M252.214,425.691h-13.5v5.156h13.5
			V425.691z M239.44,420.793l1.43-0.914c0.938,0.984,1.781,2,2.531,3.047l-1.594,1.031
			C241.136,422.988,240.347,421.934,239.44,420.793z M239.815,434.785h1.828v4.102c0,1.219,0.547,1.828,1.641,1.828h4.711
			c0.922,0,1.5-0.469,1.734-1.406c0.141-0.484,0.281-1.359,0.422-2.625c0.453,0.203,1.055,0.438,1.805,0.703
			c-0.203,1.188-0.43,2.164-0.68,2.93c-0.484,1.359-1.547,2.039-3.188,2.039h-5.18c-2.063,0-3.094-1.047-3.094-3.141V434.785z
			 M243.448,433.988l1.43-0.938c1.109,1.172,2.133,2.422,3.07,3.75l-1.57,1.102C245.44,436.496,244.464,435.191,243.448,433.988z
			 M251.769,435.441l1.336-1.031c1.438,1.594,2.789,3.195,4.055,4.805l-1.57,1.242C254.479,438.895,253.206,437.223,251.769,435.441
			z"/>
		<path fill="#FFFFFF" d="M265.784,436.004l1.453,1.5c-2.594,1.891-5.297,3.641-8.109,5.25c-0.344-0.5-0.758-1.039-1.242-1.617
			C260.62,439.684,263.253,437.973,265.784,436.004z M257.933,433.027h6.047v-6.469h-5.109v-1.781h5.109v-4.5h1.922v4.5h7.102
			v-4.523h1.922v4.523h5.133v1.781h-5.133v6.469h6.07v1.781h-23.063V433.027z M265.901,433.027h7.102v-6.469h-7.102V433.027z
			 M271.503,437.621l1.195-1.477c2.688,1.594,5.273,3.242,7.758,4.945l-1.359,1.711
			C276.628,440.941,274.097,439.215,271.503,437.621z"/>
		<path fill="#FFFFFF" d="M281.651,436.73c1.578-2.25,2.836-4.859,3.773-7.828h-3.469v-1.664h3.703v-3.68
			c-1,0.078-2.07,0.156-3.211,0.234c-0.078-0.531-0.195-1.102-0.352-1.711c3.188-0.172,5.969-0.43,8.344-0.773l0.422,1.781
			c-0.969,0.109-2.125,0.219-3.469,0.328v3.82h3.258v1.664h-3.258v3l0.773-0.867c1.031,0.813,2.055,1.664,3.07,2.555l-1.242,1.383
			c-0.797-0.75-1.664-1.555-2.602-2.414v10.617h-1.734V432.84c-0.844,2.219-1.906,4.188-3.188,5.906
			C282.222,438.074,281.948,437.402,281.651,436.73z M289.878,437.316c2.5-1.828,4.539-4,6.117-6.516
			c-1.438,0.703-3.039,1.344-4.805,1.922c-0.25-0.484-0.539-1.008-0.867-1.57c2.313-0.672,4.375-1.516,6.188-2.531
			c-0.672-0.656-1.555-1.43-2.648-2.32l1.078-1.172c1.141,0.891,2.148,1.727,3.023,2.508c1.453-0.922,2.813-2.242,4.078-3.961
			h-7.008c-0.906,1.266-2.133,2.563-3.68,3.891c-0.328-0.422-0.711-0.859-1.148-1.313c2.25-1.828,3.977-3.953,5.18-6.375
			l1.664,0.633c-0.266,0.516-0.555,1.016-0.867,1.5h7.828v1.688c-1.344,2.609-3.719,4.828-7.125,6.656l1.242,0.422
			c-0.25,0.406-0.508,0.805-0.773,1.195h7.43v1.711c-2.078,4.766-6.813,8.008-14.203,9.727c-0.281-0.594-0.563-1.109-0.844-1.547
			c2.484-0.531,4.844-1.359,7.078-2.484c-0.672-0.734-1.477-1.539-2.414-2.414l1.125-1.125c1.016,0.906,1.945,1.781,2.789,2.625
			c1.984-1.406,3.5-3.016,4.547-4.828h-6.727c-1.438,1.859-3.164,3.578-5.18,5.156C290.659,438.355,290.3,437.863,289.878,437.316z"
			/>
		<path fill="#FFFFFF" d="M308.183,420.98h18.773v8.555h-1.852v-1.031h-5.262c0.133,1.539,0.332,2.945,0.598,4.219h8.344v1.688
			h-7.922c0.797,2.734,1.984,4.742,3.563,6.023c0.781,0.641,1.391,0.516,1.828-0.375c0.375-0.766,0.656-2.094,0.844-3.984
			c0.719,0.313,1.32,0.539,1.805,0.68c-0.266,1.766-0.586,3.148-0.961,4.148c-0.516,1.328-1.289,1.992-2.32,1.992
			c-0.938,0-1.859-0.398-2.766-1.195c-1.719-1.469-3.016-3.898-3.891-7.289h-8.953v6.117c1.797-0.563,3.711-1.273,5.742-2.133
			c-0.063,0.719-0.07,1.406-0.023,2.063c-2.531,0.859-4.633,1.625-6.305,2.297c-0.188,0.094-0.477,0.242-0.867,0.445l-1.031-1.734
			c0.438-0.313,0.656-0.75,0.656-1.313V420.98z M325.104,422.668h-15.094v4.148h15.094V422.668z M317.968,428.504h-7.957v4.219
			h8.578C318.331,431.434,318.124,430.027,317.968,428.504z"/>
	</g>
</g>
<g>
	<g>
		<path fill="#F7CC48" d="M227.18,571.892v-18.125h-42.84l51.994-72.131h4.089v62.002h10.862v10.129h-10.862v18.125H227.18z
			 M227.546,511.538l-22.763,32.1h22.396v-23.252c0-1.219,0.03-2.582,0.092-4.088C227.332,514.794,227.424,513.206,227.546,511.538z
			"/>
		<path fill="#F7CC48" d="M287.046,517.64c1.992-0.934,3.956-1.646,5.889-2.135c1.932-0.488,3.854-0.732,5.767-0.732
			c7.974,0,14.544,2.705,19.712,8.117c5.166,5.41,7.75,12.326,7.75,20.748c0,9.195-2.898,16.598-8.696,22.213
			s-13.437,8.422-22.915,8.422c-8.869,0-15.999-2.746-21.39-8.238s-8.086-12.713-8.086-21.664c0-9.561,6.509-23.496,19.528-41.803
			l1.587-2.137l15.622-22.152l11.107,5.615L287.046,517.64z M278.93,544.491c0,5.33,1.484,9.623,4.454,12.877
			c2.97,3.256,6.814,4.883,11.534,4.883c5.329,0,9.52-1.588,12.571-4.762c3.051-3.172,4.577-7.506,4.577-12.998
			c0-5.572-1.506-9.936-4.517-13.09c-3.011-3.152-7.181-4.729-12.51-4.729c-4.76,0-8.635,1.646-11.625,4.943
			C280.425,534.911,278.93,539.204,278.93,544.491z"/>
		<path fill="#F7CC48" d="M344.531,565.118c0-2.236,0.772-4.15,2.319-5.736c1.546-1.586,3.438-2.381,5.675-2.381
			s4.129,0.795,5.676,2.381c1.546,1.586,2.319,3.5,2.319,5.736c0,2.197-0.773,4.059-2.319,5.584
			c-1.547,1.525-3.438,2.289-5.676,2.289s-4.129-0.764-5.675-2.289C345.304,569.177,344.531,567.315,344.531,565.118z"/>
		<path fill="#F7CC48" d="M416.847,538.267c-1.872,0.938-3.774,1.629-5.706,2.076c-1.933,0.447-3.896,0.67-5.889,0.67
			c-8.016,0-14.606-2.684-19.772-8.055c-5.167-5.371-7.75-12.266-7.75-20.688c0-9.193,2.898-16.6,8.696-22.213
			c5.797-5.615,13.456-8.422,22.976-8.422c8.869,0,16.02,2.736,21.45,8.207c5.432,5.473,8.147,12.664,8.147,21.572
			c0,9.563-6.53,23.496-19.589,41.803l-1.526,2.197l-15.744,22.092l-10.984-5.615L416.847,538.267z M425.024,511.294
			c0-5.33-1.465-9.621-4.395-12.877c-2.929-3.254-6.773-4.881-11.533-4.881c-5.33,0-9.53,1.586-12.602,4.76
			c-3.072,3.174-4.607,7.506-4.607,12.998c0,5.615,1.504,10.02,4.516,13.213c3.01,3.193,7.16,4.789,12.449,4.789
			c4.76,0,8.645-1.678,11.655-5.033C423.519,520.905,425.024,516.583,425.024,511.294z"/>
		<path fill="#F7CC48" d="M448.253,536.489h44.409v3.547h-26.374c-0.123,3.424-0.284,6.635-0.483,9.629h21.375
			c-0.307,6.266-0.66,12.207-1.059,17.828c-0.277,3.408-1.06,5.865-2.35,7.371c-1.229,1.381-3.455,2.088-6.68,2.119
			c-1.689,0.061-4.546-0.063-8.569-0.369c-0.153-1.168-0.384-2.58-0.69-4.238c3.9,0.521,6.879,0.783,8.937,0.783
			c3.286,0.246,5.099-1.828,5.437-6.219c0.368-4.301,0.645-8.893,0.829-13.775h-17.506c-1.151,11.24-6.188,19.594-15.11,25.061
			c-0.706-0.951-1.612-2.041-2.718-3.27c8.63-5.252,13.252-13.084,13.866-23.494c0.292-3.363,0.484-7.172,0.576-11.426h-13.89
			V536.489z"/>
		<path fill="#F7CC48" d="M494.781,574.126c13.39-7.738,20.469-21.313,21.237-40.723h4.054c-0.169,3.285-0.492,6.418-0.968,9.396
			c3.809,15.357,10.964,25.461,21.468,30.313c-1.29,1.414-2.427,2.75-3.409,4.008c-9.121-5.158-15.625-14.287-19.51-27.387
			c-3.362,12.654-10.02,21.951-19.97,27.895C496.854,576.491,495.887,575.323,494.781,574.126z"/>
	</g>
</g>
</svg>
