<?xml version="1.0" encoding="utf-8"?>
<!-- Generator: Adobe Illustrator 16.0.0, SVG Export Plug-In . SVG Version: 6.00 Build 0)  -->
<!DOCTYPE svg PUBLIC "-//W3C//DTD SVG 1.1//EN" "http://www.w3.org/Graphics/SVG/1.1/DTD/svg11.dtd">
<svg version="1.1" id="图层_1" xmlns="http://www.w3.org/2000/svg" xmlns:xlink="http://www.w3.org/1999/xlink" x="0px" y="0px"
	 width="640px" height="960px" viewBox="0 0 640 960" enable-background="new 0 0 640 960" xml:space="preserve">
<path opacity="0.9" fill="#FFFFFF" d="M134.16,571.148c0-2.283,0-5.367,0-5.367s-0.33-1.526-1.392-1.59c0,0,0.199-1.987-1.059-2.119
	c0,0,0.331-2.322-3.117-3.053v-4.174h-1.127c0,0,7.426-5.764,7.022-14.247c-0.394-8.482-5.499-10.471-6.427-10.834
	c0,0-0.855-0.73,0.531-0.961c1.395-0.232,3.615-0.63,3.615-0.63s1.688-0.794-0.137-2.651c0,0-2.318-1.326-6.592-2.518
	c0,0-0.267-0.563,0.103-0.595c0.362-0.035,0.989-1.329,0.56-2.222c-0.428-0.895-2.188-2.42-2.188-2.42v-4.738
	c0,0,6.1-0.925,6.265-2.25v-1.957c0,0-1.16-0.861-4.31-1.092c0,0-1.029-1.129-3.148-1.328c0,0,2.253-2.551,2.253-4.604
	c0-2.057-1.755-3.612-3.747-4.408c0,0-0.459-0.232,0.273-1.028c0.726-0.797,1.053-1.688,0.929-3.479
	c-0.133-1.787-3.55-3.71-3.679-5.697c-0.135-1.986-0.296-5.768-0.296-5.768c-2.448-0.965-4.549,0-4.549,0s-0.165,3.781-0.292,5.768
	c-0.133,1.987-3.521,3.91-3.652,5.697c-0.133,1.791,0.197,2.683,0.924,3.479c0.732,0.796,0.268,1.028,0.268,1.028
	c-1.986,0.796-3.748,2.352-3.748,4.408c0,2.053,2.258,4.604,2.258,4.604c-2.121,0.199-3.152,1.328-3.152,1.328
	c-3.146,0.23-4.305,1.092-4.305,1.092v1.957c0.166,1.325,6.265,2.25,6.265,2.25v4.738c0,0-1.756,1.525-2.19,2.42
	c-0.43,0.893,0.197,2.187,0.566,2.222c0.365,0.031,0.098,0.595,0.098,0.595c-4.272,1.191-6.594,2.518-6.594,2.518
	c-1.822,1.857-0.134,2.651-0.134,2.651s2.225,0.397,3.612,0.63c1.398,0.23,0.529,0.961,0.529,0.961
	c-0.926,0.363-6.027,2.352-6.426,10.834c-0.398,8.483,7.022,14.247,7.022,14.247h-1.126v4.174c-3.441,0.73-3.117,3.053-3.117,3.053
	c-1.25,0.132-1.057,2.119-1.057,2.119c-1.061,0.063-1.387,1.59-1.387,1.59s0,3.529,0,5.367c-6.166,0.762-7.599,3.919-7.599,3.919
	h53.146C143.855,575.067,140.55,571.377,134.16,571.148z M118.919,514.391h1.591v2.782h-1.661L118.919,514.391z M114.447,515.087
	v2.353l-1.296-0.069l-0.063-2.252L114.447,515.087z M116.203,550.293c-3.761,0-6.812-3.05-6.812-6.81
	c0-3.764,3.051-6.813,6.812-6.813s6.812,3.049,6.812,6.813C123.015,547.243,119.964,550.293,116.203,550.293z"/>
<path opacity="0.9" fill="#FFFFFF" d="M195.861,314.851c0,0-1.365,2.047-1.934,3.297s-1.363,2.615-1.363,2.615
	s0.113,0.228-0.228,0.796c-0.341,0.567-0.341,0.567-0.341,0.567l0.568,0.683v0.796c0,0,0.795,0.455-0.455,0.683
	c-1.251,0.228-1.251,0.228-1.819,0.114c-0.568-0.114,0.114,0.227-0.568-0.114c-0.682-0.341-1.364-0.683-2.843-1.251
	c-1.478-0.568-1.705-1.592-1.705-1.592l-1.25-1.137c0,0-0.455-0.454-0.455,0.342c0,0.795,0,2.5-0.455,3.297
	c-0.455,0.795-1.25,2.16-1.363,1.363c-0.113-0.795,0.113-1.022-0.113-1.363c-0.229-0.342-0.342-0.114-0.342-1.138
	c0-1.022,0-1.022,0-1.022l0.795-1.023c0,0-1.363,0.341-1.932,0.796c-0.568,0.454-0.683,0.341-1.023,1.138
	c-0.342,0.795,0,0.568-0.568,1.363c-0.568,0.796,0.454,0.114-1.137,1.364c-1.593,1.251-0.568,1.819-1.593,1.251
	c-1.022-0.568-0.454-0.114-2.159-1.023c-1.706-0.91-2.047-1.25-2.615-1.705s-0.91-1.138-0.91-2.047s-0.227-1.25-0.682-1.25
	s-0.682,0.795-2.273,0.909s-2.273,0.796-2.501,1.138c-0.228,0.34,1.251,0.682,1.251,0.682s-0.455,0.113,1.022,0.795
	c1.478,0.683,1.022,0.683,2.274,1.137c1.25,0.455,1.478,1.934,1.932,2.615c0.455,0.683,0.568,0.342,0.796,1.365
	c0.228,1.022,1.138,0.908,1.138,1.25c0,0.341,0.568,0.796,0.34,1.479c-0.227,0.682,0.342,0.113-0.908,1.137
	c-1.251,1.022-0.455,0.795-2.274,1.705c-1.819,0.909-1.819,0.909-1.819,0.909s-0.795-1.478-1.137-1.478c-0.341,0-1.592,0-1.592,0
	s-0.34-0.229-1.137-0.342c-0.795-0.113-0.455-0.682-0.113-1.478c0.34-0.796,1.137-1.25,1.137-1.25s0.796,0.341,0.796-0.456
	c0-0.795,0.228-1.25,0-2.159s-1.023-1.479-1.023-1.479s0.228,0.683-0.909-0.114c-1.137-0.795-0.455-0.682-1.137-0.795
	c-0.683-0.113-0.797-0.113-1.137,0.682c-0.342,0.797-0.229,0.91-0.797,0.797s-0.34-1.479-0.113-2.729
	c0.228-1.252,0.113-1.138-0.227-2.161c-0.342-1.022,0.34-0.796-1.252-1.591c-1.592-0.797-2.045-1.365-2.045-1.365l0.227-0.908
	c0,0,0.455-0.456,0.455-0.797s0.113-1.479,0.113-1.479v-1.021c0,0-0.113,0.682-0.91,1.818c-0.795,1.137-0.795,1.137-0.795,1.137
	l-0.796,0.455c0,0-1.251-0.455-2.161-0.455c-0.909,0-2.387-0.228-2.387-0.228s-0.796-2.274-1.818-2.046
	c-1.023,0.227-1.138,0.455-1.82,0.455c-0.682,0-0.568-0.229-1.477-0.455c-0.91-0.229-1.705-0.342-3.297-0.229
	c-1.592,0.114-2.389,0.797-2.729,1.023c-0.341,0.229-1.592,1.251-1.592,1.251s2.047,0.228,0.796,0.569
	c-1.251,0.341-0.568,0.227-1.251,0.341c-0.682,0.112-1.136,0.796-1.25,0.227c-0.114-0.567-0.114-0.567-0.114-0.567l-1.023,0.113
	c0,0,0.342,0.568-0.34,0.682c-0.683,0.113,0.227,0.455-0.683,0.113c-0.909-0.341-1.023-1.364-1.023-1.364s-0.228-0.113-0.341,0.569
	c-0.113,0.682,0.228,0.113-0.113,0.682c-0.342,0.568-0.229,0.796-1.023,0.796c-0.797,0-1.364,0-1.364,0s0.796-1.138-0.796,0
	s-1.819,0.909-2.388,1.591c-0.568,0.683-1.933,1.82-2.16,2.502s0.114,1.137,0.341,1.818c0.229,0.683,0.568,1.479,0.113,1.82
	c-0.454,0.341-1.364-0.342-1.137,0.454c0.229,0.796,0.455,0.683,0.797,0.796c0.34,0.113,0.227-0.682,1.137,0.568
	c0.909,1.251,1.137,1.251,1.705,1.592c0.568,0.342,1.592,0.682,1.592,0.682s0.113,0.569-0.91,0.683
	c-1.023,0.114-1.592-0.228-1.592-0.228s0,0,0,0.796s-0.227,1.251-0.682,1.478c-0.455,0.229-0.795,0-0.795-0.795
	c0-0.796,0-0.796,0-0.796l-0.797,0.796c0,0-0.683,0.454-1.137-0.455c-0.455-0.909,0.454-1.137,0-1.364
	c-0.455-0.228-0.568,1.023-0.568,1.023s0.341,0.341,0.341,0.796s0.568,0.795,0.114,1.25c-0.455,0.455-0.455,0.342-1.252,0.91
	c-0.795,0.568-0.908,0.795-1.249,0.908c-0.342,0.115-0.342,0.342-0.342-0.908c0-1.251,0.114-1.137,0.114-1.819
	s0.455-0.683-0.342-1.705c-0.795-1.023-1.137-1.023-0.908-1.819c0.227-0.796,0.227-0.796,0.227-0.796s1.023-0.341,0.909-0.683
	c-0.113-0.34,0.569-0.909-0.568-0.454c-1.138,0.454-1.023,1.705-1.138,0.454c-0.113-1.25,0-0.909,0-1.705s-0.908-0.34,0-0.796
	c0.91-0.454,1.479-0.683,1.479-0.683l0.228,0.568l0.569-0.568l-0.114-0.682c0,0-0.113-1.023,0.228-1.25
	c0.341-0.228-0.341,0.113,0.341-0.228s1.364-0.796,1.364-0.796s0.568-0.342,0.682-0.909c0.114-0.569,0.114-0.569,0.114-0.569
	s-0.114-0.909-0.569-0.227c-0.453,0.682,0.456,0.568-0.453,0.682c-0.91,0.114-1.023,0-1.479,0.341s-0.342,0.569-0.796,0.796
	c-0.455,0.228-1.137,0.568-1.137,0.568l-0.796,0.568c0,0-0.114,0-0.455-0.113s-0.796-0.91-0.796-0.91h-0.796
	c0,0,0.341,0.456-0.455-0.34c-0.795-0.796-1.478-1.592-1.818-1.934c-0.342-0.341-0.682,0.568-1.023-0.795
	c-0.342-1.364-0.796-1.819-0.796-1.819l-0.568-0.568c0,0-0.228,0.909-0.228,1.25s-0.455,0.341-0.455,0.341s0.342-0.113-0.113-0.567
	c-0.455-0.455-0.796-1.023-0.909-0.683c-0.114,0.342-0.114,0.342-0.114,0.342s-0.113-0.115-0.795-0.569
	c-0.683-0.454-0.91-0.909-0.91-0.909s-0.228-0.455-0.228-0.797c0-0.34-0.567-0.908,0.341-1.25c0.91-0.341,1.365-0.568,1.365-0.568
	s0.113-0.455,0.341-0.795c0.228-0.342,0.683-1.023,0.683-1.023s0,0.113,0-0.796c0-0.91,0-0.91,0-0.91s0.908-0.113,0.908-1.251
	c0-1.137,0-1.022,0-1.591c0-0.569,0-0.569,0-0.569s0.114,0,0.114-0.795c0-0.796,1.137-0.228,0-0.796
	c-1.137-0.569-1.705-0.569-1.705-0.569s-0.569-0.34-1.592,0c-1.023,0.342-1.023,0.342-1.023,0.342s-0.909,0.796-1.364,0.228
	c-0.455-0.569-0.455-0.683-0.455-1.023s0.114-2.046,0.114-2.046l1.023-1.137l1.478-0.683l0.113-0.796c0,0,0.683,0,1.023,0
	c0.342,0,0.341,0,1.137,0c0.797,0,2.047-0.796,2.047-0.796l-1.137-0.455c0,0-0.114-0.341-0.229-0.682
	c-0.113-0.341-0.113-0.341-0.113-0.341s-1.022-1.706-1.137-2.16c-0.113-0.455-1.137-1.137-1.137-1.137s-0.227,0.567-0.455,1.137
	c-0.227,0.568-0.227,1.137-0.227,1.137s0.113,0.455,0.341,0.795c0.228,0.342,0.568,0.684,0.228,1.023
	c-0.342,0.342-0.342,0-1.023,0.342c-0.682,0.341-0.682,1.137-1.023,1.363c-0.341,0.229-0.455,0.569-0.795,0.797
	c-0.342,0.227,0.227-0.455-0.342,0.227c-0.568,0.683-0.91,0.229-1.137,1.023c-0.228,0.796-0.228,1.819-0.228,1.819
	s1.022,0.454,0,0.796c-1.023,0.341-1.023,0.341-1.023,0.341l-0.454-0.796c0,0-0.568-0.113-0.797,0.342
	c-0.227,0.454-0.227,0.682-0.227,1.25s-0.568,1.137-0.568,1.137s0.568,0-0.91,0.683c-1.478,0.682-1.932,1.591-2.273,1.705
	s-1.137,0-1.137,0c-0.683-0.341-0.797-0.228-1.023,0.114c-0.228,0.341,0.227,0.795-1.25,0.341c-1.479-0.455-2.161-1.364-2.161-1.364
	l-1.478-0.342c-0.682-0.227-1.25-0.227-1.592-0.227s-0.228-0.228-1.023,0c-0.795,0.227-0.568-0.342-1.592,0.227
	s-0.909,0.455-1.137,1.023c-0.227,0.568-0.113,0.568-1.022,0.797c-0.909,0.227-1.364,1.478-1.364,1.478s-0.342-0.341,1.023,0
	c1.363,0.341,0.908,0,2.16,0.454c1.25,0.455,0.454,0.342,1.25,0.455c0.795,0.113-0.455,0.113,0.795,0.113
	c1.252,0,0.91-0.113,1.934-0.113s1.25,0.113,1.705,0.341s1.934,0.796,2.388,0.796c0.455,0,0.796-0.568,0.796-0.568
	s0.113,0.568,0.228,1.023c0.113,0.454,0.909,0.796,0.909,0.796s0-0.228,0.91-0.569c0.909-0.341,0.909-0.341,1.592-0.568
	c0.682-0.227,1.477-0.909,1.818-1.022c0.341-0.114,0.568-0.228,1.479-0.909c0.908-0.683,1.363-0.91,1.363-0.91
	s0.455-0.455,0.796-0.568c0.341-0.114,2.388-1.705,2.388-1.705l0.796-0.568l0.796-0.683c0,0,0.568-0.114,0.91-0.114
	c0.34,0,0.568,0.91,0.568,0.91v1.479c0,0,0.113,0.454-0.568,0.908c-0.683,0.455-0.683,0.455-0.683,0.455s0.228,0-1.364,1.023
	s-1.705,1.023-2.047,1.592c-0.341,0.568-0.909,1.592-0.909,2.047s0.568,1.932,0.796,2.729c0.227,0.795,0.568,0.795,0.796,1.137
	c0.228,0.341,0.796,0.455,1.023,0.796s0.454,0.341,1.136,0.341c0.683,0,0,0,0.683,0s0.114,0,1.023,0.91
	c0.909,0.908,1.706,1.25,1.706,1.25s-0.342,0.455,0.454,0.568s1.478,0.113,1.478,0.113l0.114,0.797c0,0,0.683,0,0.341,0.567
	c-0.341,0.569-1.25,0.569-1.25,0.569s0,0.227-0.342,0.454c-0.341,0.228-1.25-0.796-1.25-0.796l-1.023-0.568l-0.455,1.137
	l-0.796-0.909c0,0-0.454-0.454-0.796-0.454c-0.341,0-0.227,0.34-0.341,0c-0.113-0.342-1.251-0.229-1.251-1.138
	s-0.34-1.933-0.34-1.933l-1.252-0.341c0,0,1.252,0-0.568,0.114c-1.818,0.113-1.818,0.113-1.818,0.113l-0.682,0.227l-0.684,0.796
	c0,0-0.795,0.569-1.363,0.569s-2.047-0.796-2.047-0.796s-1.022-0.456-1.364-0.456c-0.341,0-0.341,0-0.796,0
	c-0.454,0-1.592-0.113-1.592-0.113s-0.34-0.227-0.682-0.454s-1.592-0.796-1.592-0.796s0.797,1.25,1.25,1.934
	c0.456,0.682-0.453,0.795,1.023,0.795c1.479,0,0.683,0.113,1.706,0.455c1.023,0.341,1.933,0.341,2.501,0.341s0.342-0.114,1.023,0
	s-0.342,0.568,1.478,0.228c1.819-0.342,1.251-0.113,1.819-0.342c0.568-0.227,1.023-0.909,1.364-0.909s0.682-0.682,0.796,0
	c0.113,0.683,0.113,1.478,0.113,1.478c1.251,0.796,1.137,0.114,1.251,0.796c0.114,0.683-0.569,1.478-0.569,1.478l-1.591-0.227
	l2.501,0.91l0.113,0.909l-0.909,0.796l-0.454,0.227l-0.455,0.683c0,0,0,0.683-0.568,0.683s-1.479-0.91-1.479-0.91l-0.568-0.568
	l0.796,1.819l-1.022,0.454l-1.479,0.797c0,0-0.342-0.568-0.455,0.227c-0.113,0.796,0.342,0.91-0.682,0.91s-1.137-0.228-1.479-0.228
	c-0.341,0,1.023,0-0.341,0s-1.364,0-1.364,0s-1.819,0.228-2.614,0.228c-0.797,0-1.819,0.113-1.819,0.113l-1.137,0.455l-1.705,0.113
	c0,0-0.797,0.91-0.229,1.023s1.819,0.113,2.16,0.113s-0.682,0.227,1.592,0.455c2.273,0.228,2.502,0.228,2.843,0.228
	s0.909-0.114,1.478,0s2.273,0.114,2.273,0.114l1.023-0.114l0.796-0.228l0.341,0.682v0.797l-0.227,1.137l-0.229,0.454
	c0,0,0.91,0.568,1.479,0c0.568-0.567-0.341-0.683,0.796-1.137s1.137-0.454,1.137-0.454h1.364l-0.341,2.046l-0.228,1.023
	l-0.568,0.567c0,0,0.228,0.229-0.455,0.229c-0.682,0-0.227-0.569-1.022-0.682c-0.796-0.114-1.593-0.114-1.593-0.114
	s-0.227,0.112,0,0.567c0.229,0.455,0.569,0.342,0.684,0.797c0.113,0.454-0.114,0,0.113,0.454c0.227,0.455,0,1.251,0,1.593
	c0,0.34,0.455,0.682,0.227,1.137c-0.227,0.454-0.795,1.705-0.795,1.705s-0.114,0.455-0.455,0.568
	c-0.342,0.113-1.023,0.341-1.023,0.341v-2.16v-0.568c0,0-0.568-0.454-0.909-0.683c-0.341-0.227-0.228,0.455-0.341-0.227
	s-0.113-1.251-0.113-1.251s0.454-0.568-0.455-0.341c-0.91,0.227-1.364,0.227-1.364,0.227l-0.456,2.16l-0.795,0.342
	c0,0,0.113,0-0.341,0.795c-0.455,0.797-0.455,0.797-0.455,0.797s-0.228,0.682-0.796,0.568s-0.227,0.795-0.568-0.113
	c-0.342-0.91-0.342-1.706-0.342-1.706v-0.568c0,0-0.454-0.341-0.908-0.341c-0.455,0-0.91,0-0.91,0l-1.023,0.682
	c0,0-0.568-0.454-0.796,1.023c-0.228,1.479-0.796,1.818-0.796,1.818l-0.34,1.252l1.25,0.908l-0.114,1.138l1.479,0.114l1.251,0.909
	l0.113,0.454l0.91,0.568c0,0,1.477-0.113,1.591,0.228s-0.796,1.478-0.796,1.478s-0.227,0.114,0.682,0.684
	c0.91,0.568,1.819,0.908,1.819,0.908s0.456-0.113,0.683,0.228c0.227,0.342,1.137,0.683,1.479,0.683c0.34,0,1.932,0.568,1.932,0.568
	s0.113,0.455,0.455,0.455c0.341,0,1.137-0.342,1.137-0.342s-0.568,0.683,0.228,0.683s2.16-0.455,2.16-0.455s0.341-0.796,0.683-0.796
	c0.34,0,0.795,0,1.25,0s1.137-0.341,1.137-0.341s-0.454-0.568-0.909-0.455c-0.454,0.114-1.592-0.228-1.592-0.228l0.454-1.022
	l0.91-0.342c0,0-0.114-0.567-0.682-0.454c-0.568,0.113-0.568,0.113-0.568,0.113s-1.023,0.455-0.342-0.455
	c0.682-0.909,1.251-1.477,1.251-1.477l1.933,0.682c0.341-0.342,0.227-1.479,0.227-1.479l0.797-0.455l0.909-0.34
	c0.341-0.569,1.023-0.229,0.341-0.569c-0.682-0.341-1.592-0.454-1.592-0.454s-0.113-0.342-0.227-0.683
	c-0.114-0.341,0.113-1.137,0.113-1.137l0.682-0.342c0,0-0.113-0.228,0.114-0.567c0.228-0.342,0.454-0.228,0.454-0.796
	c0-0.569,0-0.569,0-0.569l0.229-0.682l1.023-1.251l0.682-0.796l0.796-0.454c0,0,0.796-0.569,0.796,0.228c0,0.795,0,1.592,0,1.592
	s0.227,0.568,0,0.908c-0.229,0.342-0.91,0.568-0.91,0.568s-0.568,0.797-0.113,0.797s0.909-0.341,0.909-0.341
	s0.454-0.342,0.682-0.683c0.228-0.342,0.228-0.342,0.228-0.342s0.455,0.115,0.455,0.683c0,0.569,0,1.251,0,1.251
	s0.341,0.227,0.341,0.568s0.796,1.023,0.796,1.023s0.568-0.91,0.229-1.138c-0.342-0.228-0.569-0.112-0.569-0.682
	c0-0.567-0.114,0,0-0.567c0.114-0.57,1.023-0.684,1.023-0.684v-0.795l-0.114-0.797c0,0-0.682-0.227,0-0.682
	c0.683-0.455,1.137-0.568,1.137-0.568l1.705-0.455l-0.567,1.592l-0.454,0.568l-0.342,0.682c0,0,0.455-0.113,0.796-0.34
	c0.341-0.228,0.341-0.228,0.341-0.228s0.227-1.251,0.91-0.796c0.682,0.455,1.137,1.137,1.137,1.137v0.795l-0.228,0.684l-0.909,0.227
	c0,0-0.113,0.114,0.568,0.568c0.682,0.455,1.137,0.228,1.137,0.91c0,0.682-0.455,1.479-0.455,1.479s-0.113,1.25-0.113,1.818
	s0.113,1.137-0.228,1.363c-0.341,0.229-0.341,0.229-0.341,0.229l2.159,0.341c0,0,0.909-1.478,0.909-0.341s0.114,1.363,0.114,1.933
	c0,0.568,0.342,0.567,0.114,1.364c-0.229,0.795,0.113,1.592,0.113,1.592s-1.023,0.227-1.251,0.682
	c-0.227,0.455-0.682,0.796-0.682,0.796l-0.114,0.796l0.229,0.568l-0.229,0.568l0.796,0.228c0,0,0.228-0.114,0.569-0.114
	c0.34,0,1.022-1.137,1.022-0.34c0,0.796,0,1.818,0,1.818l0.455,1.137c0,0,0.568,0.568,0.568,1.137s0.114,1.365,0,1.706
	s-0.114,0.568-0.228,0.909s-0.113,1.137-0.113,1.137h0.795c0,0,0.455,0.229,0.797,0.229c0.341,0,0.909-0.569,1.023-1.024
	c0.113-0.454-0.342-0.682,0.34-1.137c0.683-0.454,0.683-0.454,0.683-0.454l0.228-1.365c0,0-0.454-0.455,0.228-0.795
	c0.682-0.342,1.138-0.342,1.138-0.342c-0.684-1.137-0.684-1.137-0.684-1.137l-0.113-1.592l0.341-0.909l1.251-0.114l0.227,0.455
	l0.91-0.341c0,0,0.228-0.683-0.113-0.796c-0.342-0.113-0.568-0.341-0.568-0.682c0-0.342,0-0.91,0-0.91s0.568-0.341,0-0.455
	c-0.568-0.113-0.796,0.228-1.023-0.113c-0.227-0.342-0.227-0.795-0.227-1.137c0-0.341-0.114-1.023-0.114-1.023
	s-0.456,0.342-0.909,0.228c-0.455-0.114-0.455-0.683-0.796-1.138c-0.342-0.453,0.114-0.908-0.342-0.908
	c-0.454,0-0.909,0.567-1.137,0c-0.228-0.569-0.341-0.797-0.455-1.251c-0.114-0.455,0-0.909-0.341-1.023
	c-0.342-0.114-0.342-0.114-0.342-0.114l0.797-0.795c0,0,1.023-0.114,0.455-0.568c-0.569-0.455-0.91-0.113-1.137-0.797
	c-0.229-0.682-0.797-1.137-0.229-1.364s0.568-0.228,0.568-0.228s0.569-0.567,0.342-1.136c-0.229-0.569-0.229-0.569-0.229-0.569
	l-0.113-0.795c0,0-0.682-0.228-0.682-0.91c0-0.682,0.227-1.25,0.227-1.25l0.683-0.455l0.683-1.25c0,0-0.455-0.228,0.455-0.342
	c0.91-0.113-0.228-0.568,1.818-0.113c2.047,0.455,2.502-0.342,2.729,0c0.228,0.341,0.455,0.568,0.455,1.022
	c0,0.455-0.113,0.001,0,0.455c0.113,0.455,1.137,0.796,1.137,1.138c0,0.34-0.113,0.795-0.113,1.137c0,0.341,0.113,0.682,0,1.022
	c-0.114,0.341,0.113,0.796-0.568,0.796c-0.683,0-1.592-0.341-1.592-0.341h-0.682c0,0,0,0.113,0.682,0.796
	c0.682,0.682,1.705,1.022,1.137,1.364c-0.568,0.341-1.137,0.455-1.137,0.455c1.363,0.228,1.478,0.341,1.933,0.228
	c0.454-0.114-2.046-0.682,0.454-0.114c2.502,0.568,2.729-0.113,2.729-0.113s0.568-0.455,0.568-0.114c0,0.342-0.113,1.251,0,1.592
	c0.114,0.342,0.91,0.568,0.684,0.91c-0.229,0.34,0.682,0.682,0.908,1.022c0.229,0.341,0.342,0.455,0.455,0.909
	c0.113,0.455,0.342,1.023,0.342,1.365c0,0.34-0.91,0.568-1.479,0.909s-0.682,0.683-1.137,0.796s-0.342-0.342-0.455,0.113
	s0.228,0.91-0.113,1.364c-0.342,0.455-0.568,1.138-0.568,1.138s2.047-0.342,2.387-0.683c0.342-0.341,0.683,0.228,0.683,0.568
	s1.137,0.341,0.454,1.364c-0.682,1.023-0.682,0.568-0.682,1.023s-0.341,1.705-0.341,1.705l-0.796,0.341l-0.91,0.114
	c-0.34,0.455,0.229,1.25,0.229,1.25l0.34,0.91l1.365-0.455c0,0,0.34-1.592,0.568-0.568c0.227,1.023,0.227,1.023,0.227,1.023
	l2.047,0.455l0.568,0.795c0,0,1.25,1.251,1.25,1.592s-0.908,1.137-0.908,1.137s0.227,0.114-0.455,1.023
	c-0.682,0.91-0.682,0.455-0.682,0.91s0.567,0.113,0.682,0.908c0.113,0.797,1.592-1.022,1.933-1.022s0.569,0.228,0.569,0.683
	c0,0.454-0.115,1.932-0.115,1.932l-0.454,0.91l1.478,0.568c0,0,0.91-0.682,1.023-1.137c0.114-0.455,0.341-0.796,0.568-1.137
	c0.228-0.342,0.797-0.797,0.797-0.797s0.455,0.568,0.455,1.138c0,0.568,0,0.568,0,0.568s1.021,0.568,1.021,0.909
	c0,0.342-0.34,0.91-0.34,0.91s-0.342,0.34-0.342,0.682s0,1.023,0,1.363c0,0.342,0,0.342,0,0.342l-0.455,0.91
	c0,0-0.568,0.227-0.909,0.454s-1.364,0-1.364,0c0.228,1.251,1.137,0.683,1.364,1.251s0.569,1.137,0.569,1.137s0.341,0.227,0.908,0
	c0.568-0.227,0.91-1.25,1.706-0.909s0.567,1.364,0.567,1.364s-0.227,0,0.456,0c0.682,0,1.249-0.113,1.249-0.113
	s0.114,0.227,0.91-0.228c0.795-0.455-1.137,0.228,0.795-0.455c1.934-0.683,2.048-0.683,2.389-0.796
	c0.342-0.113,1.364,0.113,2.16-0.228s1.479-0.682,1.819-0.796c0.341-0.113,1.25,0,1.478-0.34c0.228-0.342,0.113,0.682,0.228-0.342
	s0.114-1.137,0.114-1.934c0-0.795,0.227-1.25,0-1.591c-0.229-0.341,1.137,0.796-0.229-0.341c-1.363-1.138-2.159-1.479-2.501-1.705
	c-0.341-0.228-0.567-1.479-0.567-1.479s0.454-1.365-0.229-1.365c-0.682,0-1.023,0.455-1.25,0.115
	c-0.227-0.342-0.341-0.682-0.227-1.251c0.113-0.569,0.227-0.683,0.453-1.024c0.229-0.34,0.797-0.453,0.91-0.795
	c0.113-0.341,0.796-0.682,0.796-0.682l0.341,0.909c0,0-0.455,0.455,0.683-0.568c1.137-1.022,0.909-1.022,2.046-1.251
	c1.137-0.227,2.502-0.227,2.842-0.227c0.342,0,2.388-0.797,2.729-0.91c0.342-0.113,0.91-0.113,1.479-0.113s1.023,0.113,1.705-0.114
	c0.683-0.228,0.683,0.114,1.479-0.228c0.796-0.34,1.023-0.113,1.592-0.34c0.568-0.229-0.113,0.113,0.568-0.229
	c0.682-0.341,0.682-0.341,1.363-0.682c0.684-0.342,1.479-0.797,1.479-0.797l0.227-0.795c0,0-1.022-0.342-1.364-0.342
	s-0.796,0.114-1.364,0.342c-0.568,0.227-0.796,0.455-1.137,0.455s-1.138,0-1.592,0s-0.683,0.227-1.364-0.342
	s-0.227-1.705-0.227-1.705l0.113-0.796c0,0,0.341-0.568,0.568-0.909c0.227-0.342,1.363-0.342,1.363-0.342s0.797,0,1.138,0
	s0.001,0.227,0.909,0c0.91-0.227,2.047-0.341,2.389-0.341c0.341,0,2.159-0.682,2.159-0.682l1.593-1.251h-1.82
	c0,0,0.229,0.113-1.25-0.227c-1.479-0.342-1.592-0.684-2.047-0.342s-0.455,0.342-0.455,0.342s-0.455,0.682-1.478,0.454
	c-1.023-0.228-0.909,0.341-1.023-0.228s-1.478-0.91,0-1.25c1.478-0.342,2.615-0.342,2.615-0.342l0.567-0.796
	c0,0,0.455-0.341,0.569-0.682s0.114-0.341,0.114-0.341l0.34-1.364l-0.113-1.706c0,0,0.797-0.341,0.91,0
	c0.113,0.342,0.113,0.342,0.341,0.91s1.364,0.568,1.364,0.568h0.795c0,0,0.114-0.113,0.57,0c0.453,0.113,1.477,0.113,1.477,0.113
	l-0.909-1.592c0,0-0.114-0.795-0.114-1.137s-1.136-0.228,0-0.342c1.138-0.113,1.479,0.342,1.479,0.342l1.023,0.113
	c-0.114-0.909-0.91-1.363-0.91-1.363s-0.113-0.455-0.113-0.797c0-0.341-0.113-1.137-0.113-1.137s0-0.227,0-0.568
	s-0.114-1.25,0.454-0.682s-0.341,0.455,0.568,0.568c0.91,0.113,1.251,0.113,1.592,0.113s2.501,1.25,2.501,1.25s0.114-0.908,0-1.25
	c-0.113-0.342-0.113-0.568-0.568-0.908c-0.455-0.342-0.795-0.115-1.25-0.455c-0.455-0.342-0.342-0.456-1.251-1.024
	c-0.909-0.567-1.364-0.796-1.706-0.796c-0.34,0-0.795-0.682-0.795-1.022s-0.568-1.022,0.455-1.138
	c1.022-0.113,1.25-0.113,1.592-0.113c0.341,0,1.363,0,1.363,0s-0.682-1.25-0.341-1.25s1.819,0.909,1.819,0.909l0.796,0.228
	l0.796,0.568c0,0,1.023,0.455,0.454-0.228c-0.567-0.683-1.364-1.137-1.364-1.137s-0.341,0.113-0.341-0.455s0.228-1.251,0.228-1.251
	s1.478,0.229,2.273-0.34c0.797-0.569,1.479-1.252,1.479-1.252l0.568-0.453c0,0,0-0.797,0.341-0.797s0.909,0,1.251,0
	c0.34,0,2.501,0.113,2.501,0.113s0.569,0,1.137-0.113c0.568-0.113,1.023-0.341,1.364-0.455c0.342-0.113,0.91-0.454,0.91-0.454
	l-0.91-1.023c-0.455-0.682-0.342-0.796-0.455-1.251s-0.341-1.023-0.341-1.363c0-0.342-0.114-1.365-0.114-1.365l1.252-1.25
	l0.682-1.479c0,0,0.342-0.113,1.137-0.341c0.796-0.228,1.705-0.568,1.705-0.568l0.91-0.796l-1.137-0.113c0,0-0.91,0-1.251,0.113
	s-0.796,0.113-0.796,0.113v-0.682v-0.797c0,0-0.682-0.34,0.114-0.682c0.795-0.341,2.272-0.795,2.272-0.795l1.024-0.91l-1.251,0.228
	h-0.682l-1.137-0.114l-0.455-1.022c0,0-0.228,0-0.683,0c-0.454,0-0.228,0.228-1.023,0s-1.023-0.342-1.023-0.683
	s-0.113-1.137-0.113-1.137l-0.682-0.113l-0.455,0.227c0,0,0-0.227,0-0.568c0-0.341,0-1.364,0-1.364S196.656,314.169,195.861,314.851
	z"/>
<path opacity="0.9" fill="#FFFFFF" d="M115.902,719.484l-13.443,16.154c-3.264,3.914-6.602,8.838-6.602,15.655
	c0,11.806,9.608,21.412,21.42,21.412c11.817,0,21.43-9.606,21.43-21.412c0-6.822-3.342-11.741-6.609-15.655l-13.447-16.154
	c-0.336-0.406-0.842-0.644-1.373-0.644C116.748,718.841,116.243,719.078,115.902,719.484z"/>
<g>
	
		<rect x="70.398" y="658.875" fill="none" stroke="#FFFFFF" stroke-width="2" stroke-miterlimit="10" stroke-dasharray="1,4" width="505" height="160.695"/>
	
		<rect x="70.398" y="456.441" fill="none" stroke="#FFFFFF" stroke-width="2" stroke-miterlimit="10" stroke-dasharray="1,4" width="505" height="160.695"/>
	
		<rect x="70.398" y="254.008" fill="none" stroke="#FFFFFF" stroke-width="2" stroke-miterlimit="10" stroke-dasharray="1,4" width="505" height="160.695"/>
</g>
</svg>
