<?xml version="1.0" encoding="utf-8"?>
<!-- Generator: Adobe Illustrator 16.0.0, SVG Export Plug-In . SVG Version: 6.00 Build 0)  -->
<!DOCTYPE svg PUBLIC "-//W3C//DTD SVG 1.1//EN" "http://www.w3.org/Graphics/SVG/1.1/DTD/svg11.dtd">
<svg version="1.1" id="图层_1" xmlns="http://www.w3.org/2000/svg" xmlns:xlink="http://www.w3.org/1999/xlink" x="0px" y="0px"
	 width="640px" height="960px" viewBox="0 0 640 960" enable-background="new 0 0 640 960" xml:space="preserve">
<g>
	<g>
		
			<circle fill="none" stroke="#FFFFFF" stroke-width="2" stroke-linecap="round" stroke-linejoin="round" stroke-miterlimit="10" cx="263.927" cy="779.926" r="7.599"/>
		<g>
			<path fill="none" stroke="#FFFFFF" stroke-width="2" stroke-linecap="round" stroke-linejoin="round" stroke-miterlimit="10" d="
				M244.52,833.553v-32.256c0-3.014,2.441-5.456,5.455-5.456h27.904c3.014,0,5.455,2.442,5.455,5.456v32.256"/>
			
				<line fill="none" stroke="#FFFFFF" stroke-width="2" stroke-linecap="round" stroke-linejoin="round" stroke-miterlimit="10" x1="253.418" y1="808.617" x2="253.418" y2="872.492"/>
			
				<line fill="none" stroke="#FFFFFF" stroke-width="2" stroke-linecap="round" stroke-linejoin="round" stroke-miterlimit="10" x1="263.926" y1="836.66" x2="263.926" y2="872.492"/>
			
				<line fill="none" stroke="#FFFFFF" stroke-width="2" stroke-linecap="round" stroke-linejoin="round" stroke-miterlimit="10" x1="274.434" y1="808.617" x2="274.434" y2="872.492"/>
		</g>
	</g>
	<g>
		
			<circle fill="none" stroke="#FFFFFF" stroke-width="2" stroke-linecap="round" stroke-linejoin="round" stroke-miterlimit="10" cx="206.714" cy="779.926" r="7.599"/>
		<g>
			<path fill="none" stroke="#FFFFFF" stroke-width="2" stroke-linecap="round" stroke-linejoin="round" stroke-miterlimit="10" d="
				M187.307,833.553v-32.256c0-3.014,2.441-5.456,5.455-5.456h27.906c3.014,0,5.455,2.442,5.455,5.456v32.256"/>
			
				<line fill="none" stroke="#FFFFFF" stroke-width="2" stroke-linecap="round" stroke-linejoin="round" stroke-miterlimit="10" x1="196.207" y1="808.617" x2="196.207" y2="872.492"/>
			
				<line fill="none" stroke="#FFFFFF" stroke-width="2" stroke-linecap="round" stroke-linejoin="round" stroke-miterlimit="10" x1="206.715" y1="836.66" x2="206.715" y2="872.492"/>
			
				<line fill="none" stroke="#FFFFFF" stroke-width="2" stroke-linecap="round" stroke-linejoin="round" stroke-miterlimit="10" x1="217.221" y1="808.617" x2="217.221" y2="872.492"/>
		</g>
	</g>
	<g>
		
			<circle fill="none" stroke="#FFFFFF" stroke-width="2" stroke-linecap="round" stroke-linejoin="round" stroke-miterlimit="10" cx="149.503" cy="779.926" r="7.599"/>
		<g>
			<path fill="none" stroke="#FFFFFF" stroke-width="2" stroke-linecap="round" stroke-linejoin="round" stroke-miterlimit="10" d="
				M130.096,833.553v-32.256c0-3.014,2.441-5.456,5.455-5.456h27.904c3.014,0,5.455,2.442,5.455,5.456v32.256"/>
			
				<line fill="none" stroke="#FFFFFF" stroke-width="2" stroke-linecap="round" stroke-linejoin="round" stroke-miterlimit="10" x1="138.994" y1="808.617" x2="138.994" y2="872.492"/>
			
				<line fill="none" stroke="#FFFFFF" stroke-width="2" stroke-linecap="round" stroke-linejoin="round" stroke-miterlimit="10" x1="149.502" y1="836.66" x2="149.502" y2="872.492"/>
			
				<line fill="none" stroke="#FFFFFF" stroke-width="2" stroke-linecap="round" stroke-linejoin="round" stroke-miterlimit="10" x1="160.01" y1="808.617" x2="160.01" y2="872.492"/>
		</g>
	</g>
	<g>
		
			<circle fill="none" stroke="#FFFFFF" stroke-width="2" stroke-linecap="round" stroke-linejoin="round" stroke-miterlimit="10" cx="92.29" cy="779.926" r="7.599"/>
		<g>
			<path fill="none" stroke="#FFFFFF" stroke-width="2" stroke-linecap="round" stroke-linejoin="round" stroke-miterlimit="10" d="
				M72.883,833.553v-32.256c0-3.014,2.441-5.456,5.455-5.456h27.906c3.014,0,5.455,2.442,5.455,5.456v32.256"/>
			
				<line fill="none" stroke="#FFFFFF" stroke-width="2" stroke-linecap="round" stroke-linejoin="round" stroke-miterlimit="10" x1="81.783" y1="808.617" x2="81.783" y2="872.492"/>
			
				<line fill="none" stroke="#FFFFFF" stroke-width="2" stroke-linecap="round" stroke-linejoin="round" stroke-miterlimit="10" x1="92.291" y1="836.66" x2="92.291" y2="872.492"/>
			
				<line fill="none" stroke="#FFFFFF" stroke-width="2" stroke-linecap="round" stroke-linejoin="round" stroke-miterlimit="10" x1="102.797" y1="808.617" x2="102.797" y2="872.492"/>
		</g>
	</g>
	<g>
		
			<circle fill="none" stroke="#FFFFFF" stroke-width="2" stroke-linecap="round" stroke-linejoin="round" stroke-miterlimit="10" cx="263.927" cy="667.403" r="7.599"/>
		<g>
			<path fill="none" stroke="#FFFFFF" stroke-width="2" stroke-linecap="round" stroke-linejoin="round" stroke-miterlimit="10" d="
				M244.52,721.03v-32.256c0-3.014,2.441-5.456,5.455-5.456h27.904c3.014,0,5.455,2.442,5.455,5.456v32.256"/>
			
				<line fill="none" stroke="#FFFFFF" stroke-width="2" stroke-linecap="round" stroke-linejoin="round" stroke-miterlimit="10" x1="253.418" y1="696.095" x2="253.418" y2="759.97"/>
			
				<line fill="none" stroke="#FFFFFF" stroke-width="2" stroke-linecap="round" stroke-linejoin="round" stroke-miterlimit="10" x1="263.926" y1="724.138" x2="263.926" y2="759.97"/>
			
				<line fill="none" stroke="#FFFFFF" stroke-width="2" stroke-linecap="round" stroke-linejoin="round" stroke-miterlimit="10" x1="274.434" y1="696.095" x2="274.434" y2="759.97"/>
		</g>
	</g>
	<g>
		
			<circle fill="none" stroke="#FFFFFF" stroke-width="2" stroke-linecap="round" stroke-linejoin="round" stroke-miterlimit="10" cx="206.714" cy="667.403" r="7.599"/>
		<g>
			<path fill="none" stroke="#FFFFFF" stroke-width="2" stroke-linecap="round" stroke-linejoin="round" stroke-miterlimit="10" d="
				M187.307,721.03v-32.256c0-3.014,2.441-5.456,5.455-5.456h27.906c3.014,0,5.455,2.442,5.455,5.456v32.256"/>
			
				<line fill="none" stroke="#FFFFFF" stroke-width="2" stroke-linecap="round" stroke-linejoin="round" stroke-miterlimit="10" x1="196.207" y1="696.095" x2="196.207" y2="759.97"/>
			
				<line fill="none" stroke="#FFFFFF" stroke-width="2" stroke-linecap="round" stroke-linejoin="round" stroke-miterlimit="10" x1="206.715" y1="724.138" x2="206.715" y2="759.97"/>
			
				<line fill="none" stroke="#FFFFFF" stroke-width="2" stroke-linecap="round" stroke-linejoin="round" stroke-miterlimit="10" x1="217.221" y1="696.095" x2="217.221" y2="759.97"/>
		</g>
	</g>
	<g>
		
			<circle fill="none" stroke="#FFFFFF" stroke-width="2" stroke-linecap="round" stroke-linejoin="round" stroke-miterlimit="10" cx="149.503" cy="667.403" r="7.599"/>
		<g>
			<path fill="none" stroke="#FFFFFF" stroke-width="2" stroke-linecap="round" stroke-linejoin="round" stroke-miterlimit="10" d="
				M130.096,721.03v-32.256c0-3.014,2.441-5.456,5.455-5.456h27.904c3.014,0,5.455,2.442,5.455,5.456v32.256"/>
			
				<line fill="none" stroke="#FFFFFF" stroke-width="2" stroke-linecap="round" stroke-linejoin="round" stroke-miterlimit="10" x1="138.994" y1="696.095" x2="138.994" y2="759.97"/>
			
				<line fill="none" stroke="#FFFFFF" stroke-width="2" stroke-linecap="round" stroke-linejoin="round" stroke-miterlimit="10" x1="149.502" y1="724.138" x2="149.502" y2="759.97"/>
			
				<line fill="none" stroke="#FFFFFF" stroke-width="2" stroke-linecap="round" stroke-linejoin="round" stroke-miterlimit="10" x1="160.01" y1="696.095" x2="160.01" y2="759.97"/>
		</g>
	</g>
	<g>
		
			<circle fill="none" stroke="#FFFFFF" stroke-width="2" stroke-linecap="round" stroke-linejoin="round" stroke-miterlimit="10" cx="92.29" cy="667.403" r="7.599"/>
		<g>
			<path fill="none" stroke="#FFFFFF" stroke-width="2" stroke-linecap="round" stroke-linejoin="round" stroke-miterlimit="10" d="
				M72.883,721.03v-32.256c0-3.014,2.441-5.456,5.455-5.456h27.906c3.014,0,5.455,2.442,5.455,5.456v32.256"/>
			
				<line fill="none" stroke="#FFFFFF" stroke-width="2" stroke-linecap="round" stroke-linejoin="round" stroke-miterlimit="10" x1="81.783" y1="696.095" x2="81.783" y2="759.97"/>
			
				<line fill="none" stroke="#FFFFFF" stroke-width="2" stroke-linecap="round" stroke-linejoin="round" stroke-miterlimit="10" x1="92.291" y1="724.138" x2="92.291" y2="759.97"/>
			
				<line fill="none" stroke="#FFFFFF" stroke-width="2" stroke-linecap="round" stroke-linejoin="round" stroke-miterlimit="10" x1="102.797" y1="696.095" x2="102.797" y2="759.97"/>
		</g>
	</g>
	<g>
		
			<circle fill="none" stroke="#FFFFFF" stroke-width="2" stroke-linecap="round" stroke-linejoin="round" stroke-miterlimit="10" cx="492.497" cy="779.926" r="7.599"/>
		<g>
			<path fill="none" stroke="#FFFFFF" stroke-width="2" stroke-linecap="round" stroke-linejoin="round" stroke-miterlimit="10" d="
				M473.09,833.553v-32.256c0-3.014,2.441-5.456,5.455-5.456h27.906c3.014,0,5.455,2.442,5.455,5.456v32.256"/>
			
				<line fill="none" stroke="#FFFFFF" stroke-width="2" stroke-linecap="round" stroke-linejoin="round" stroke-miterlimit="10" x1="481.99" y1="808.617" x2="481.99" y2="872.492"/>
			
				<line fill="none" stroke="#FFFFFF" stroke-width="2" stroke-linecap="round" stroke-linejoin="round" stroke-miterlimit="10" x1="492.498" y1="836.66" x2="492.498" y2="872.492"/>
			
				<line fill="none" stroke="#FFFFFF" stroke-width="2" stroke-linecap="round" stroke-linejoin="round" stroke-miterlimit="10" x1="503.004" y1="808.617" x2="503.004" y2="872.492"/>
		</g>
	</g>
	<g>
		
			<circle fill="none" stroke="#FFFFFF" stroke-width="2" stroke-linecap="round" stroke-linejoin="round" stroke-miterlimit="10" cx="435.286" cy="779.926" r="7.599"/>
		<g>
			<path fill="none" stroke="#FFFFFF" stroke-width="2" stroke-linecap="round" stroke-linejoin="round" stroke-miterlimit="10" d="
				M415.879,833.553v-32.256c0-3.014,2.441-5.456,5.455-5.456h27.904c3.014,0,5.455,2.442,5.455,5.456v32.256"/>
			
				<line fill="none" stroke="#FFFFFF" stroke-width="2" stroke-linecap="round" stroke-linejoin="round" stroke-miterlimit="10" x1="424.777" y1="808.617" x2="424.777" y2="872.492"/>
			
				<line fill="none" stroke="#FFFFFF" stroke-width="2" stroke-linecap="round" stroke-linejoin="round" stroke-miterlimit="10" x1="435.285" y1="836.66" x2="435.285" y2="872.492"/>
			
				<line fill="none" stroke="#FFFFFF" stroke-width="2" stroke-linecap="round" stroke-linejoin="round" stroke-miterlimit="10" x1="445.793" y1="808.617" x2="445.793" y2="872.492"/>
		</g>
	</g>
	<g>
		
			<circle fill="none" stroke="#FFFFFF" stroke-width="2" stroke-linecap="round" stroke-linejoin="round" stroke-miterlimit="10" cx="378.073" cy="779.926" r="7.599"/>
		<g>
			<path fill="none" stroke="#FFFFFF" stroke-width="2" stroke-linecap="round" stroke-linejoin="round" stroke-miterlimit="10" d="
				M358.666,833.553v-32.256c0-3.014,2.441-5.456,5.455-5.456h27.906c3.014,0,5.455,2.442,5.455,5.456v32.256"/>
			
				<line fill="none" stroke="#FFFFFF" stroke-width="2" stroke-linecap="round" stroke-linejoin="round" stroke-miterlimit="10" x1="367.566" y1="808.617" x2="367.566" y2="872.492"/>
			
				<line fill="none" stroke="#FFFFFF" stroke-width="2" stroke-linecap="round" stroke-linejoin="round" stroke-miterlimit="10" x1="378.074" y1="836.66" x2="378.074" y2="872.492"/>
			
				<line fill="none" stroke="#FFFFFF" stroke-width="2" stroke-linecap="round" stroke-linejoin="round" stroke-miterlimit="10" x1="388.58" y1="808.617" x2="388.58" y2="872.492"/>
		</g>
	</g>
	<g>
		
			<circle fill="none" stroke="#FFFFFF" stroke-width="2" stroke-linecap="round" stroke-linejoin="round" stroke-miterlimit="10" cx="320.862" cy="779.926" r="7.599"/>
		<g>
			<path fill="none" stroke="#FFFFFF" stroke-width="2" stroke-linecap="round" stroke-linejoin="round" stroke-miterlimit="10" d="
				M301.455,833.553v-32.256c0-3.014,2.441-5.456,5.455-5.456h27.904c3.014,0,5.455,2.442,5.455,5.456v32.256"/>
			
				<line fill="none" stroke="#FFFFFF" stroke-width="2" stroke-linecap="round" stroke-linejoin="round" stroke-miterlimit="10" x1="310.354" y1="808.617" x2="310.354" y2="872.492"/>
			
				<line fill="none" stroke="#FFFFFF" stroke-width="2" stroke-linecap="round" stroke-linejoin="round" stroke-miterlimit="10" x1="320.861" y1="836.66" x2="320.861" y2="872.492"/>
			
				<line fill="none" stroke="#FFFFFF" stroke-width="2" stroke-linecap="round" stroke-linejoin="round" stroke-miterlimit="10" x1="331.369" y1="808.617" x2="331.369" y2="872.492"/>
		</g>
	</g>
	<g>
		
			<circle fill="none" stroke="#FFFFFF" stroke-width="2" stroke-linecap="round" stroke-linejoin="round" stroke-miterlimit="10" cx="492.497" cy="667.403" r="7.599"/>
		<g>
			<path fill="none" stroke="#FFFFFF" stroke-width="2" stroke-linecap="round" stroke-linejoin="round" stroke-miterlimit="10" d="
				M473.09,721.03v-32.256c0-3.014,2.441-5.456,5.455-5.456h27.906c3.014,0,5.455,2.442,5.455,5.456v32.256"/>
			
				<line fill="none" stroke="#FFFFFF" stroke-width="2" stroke-linecap="round" stroke-linejoin="round" stroke-miterlimit="10" x1="481.99" y1="696.095" x2="481.99" y2="759.97"/>
			
				<line fill="none" stroke="#FFFFFF" stroke-width="2" stroke-linecap="round" stroke-linejoin="round" stroke-miterlimit="10" x1="492.498" y1="724.138" x2="492.498" y2="759.97"/>
			
				<line fill="none" stroke="#FFFFFF" stroke-width="2" stroke-linecap="round" stroke-linejoin="round" stroke-miterlimit="10" x1="503.004" y1="696.095" x2="503.004" y2="759.97"/>
		</g>
	</g>
	<g>
		
			<circle fill="none" stroke="#FFFFFF" stroke-width="2" stroke-linecap="round" stroke-linejoin="round" stroke-miterlimit="10" cx="435.286" cy="667.403" r="7.599"/>
		<g>
			<path fill="none" stroke="#FFFFFF" stroke-width="2" stroke-linecap="round" stroke-linejoin="round" stroke-miterlimit="10" d="
				M415.879,721.03v-32.256c0-3.014,2.441-5.456,5.455-5.456h27.904c3.014,0,5.455,2.442,5.455,5.456v32.256"/>
			
				<line fill="none" stroke="#FFFFFF" stroke-width="2" stroke-linecap="round" stroke-linejoin="round" stroke-miterlimit="10" x1="424.777" y1="696.095" x2="424.777" y2="759.97"/>
			
				<line fill="none" stroke="#FFFFFF" stroke-width="2" stroke-linecap="round" stroke-linejoin="round" stroke-miterlimit="10" x1="435.285" y1="724.138" x2="435.285" y2="759.97"/>
			
				<line fill="none" stroke="#FFFFFF" stroke-width="2" stroke-linecap="round" stroke-linejoin="round" stroke-miterlimit="10" x1="445.793" y1="696.095" x2="445.793" y2="759.97"/>
		</g>
	</g>
	<g>
		
			<circle fill="none" stroke="#FFFFFF" stroke-width="2" stroke-linecap="round" stroke-linejoin="round" stroke-miterlimit="10" cx="378.073" cy="667.403" r="7.599"/>
		<g>
			<path fill="none" stroke="#FFFFFF" stroke-width="2" stroke-linecap="round" stroke-linejoin="round" stroke-miterlimit="10" d="
				M358.666,721.03v-32.256c0-3.014,2.441-5.456,5.455-5.456h27.906c3.014,0,5.455,2.442,5.455,5.456v32.256"/>
			
				<line fill="none" stroke="#FFFFFF" stroke-width="2" stroke-linecap="round" stroke-linejoin="round" stroke-miterlimit="10" x1="367.566" y1="696.095" x2="367.566" y2="759.97"/>
			
				<line fill="none" stroke="#FFFFFF" stroke-width="2" stroke-linecap="round" stroke-linejoin="round" stroke-miterlimit="10" x1="378.074" y1="724.138" x2="378.074" y2="759.97"/>
			
				<line fill="none" stroke="#FFFFFF" stroke-width="2" stroke-linecap="round" stroke-linejoin="round" stroke-miterlimit="10" x1="388.58" y1="696.095" x2="388.58" y2="759.97"/>
		</g>
	</g>
	<g>
		
			<circle fill="none" stroke="#FFFFFF" stroke-width="2" stroke-linecap="round" stroke-linejoin="round" stroke-miterlimit="10" cx="320.862" cy="667.403" r="7.599"/>
		<g>
			<path fill="none" stroke="#FFFFFF" stroke-width="2" stroke-linecap="round" stroke-linejoin="round" stroke-miterlimit="10" d="
				M301.455,721.03v-32.256c0-3.014,2.441-5.456,5.455-5.456h27.904c3.014,0,5.455,2.442,5.455,5.456v32.256"/>
			
				<line fill="none" stroke="#FFFFFF" stroke-width="2" stroke-linecap="round" stroke-linejoin="round" stroke-miterlimit="10" x1="310.354" y1="696.095" x2="310.354" y2="759.97"/>
			
				<line fill="none" stroke="#FFFFFF" stroke-width="2" stroke-linecap="round" stroke-linejoin="round" stroke-miterlimit="10" x1="320.861" y1="724.138" x2="320.861" y2="759.97"/>
			
				<line fill="none" stroke="#FFFFFF" stroke-width="2" stroke-linecap="round" stroke-linejoin="round" stroke-miterlimit="10" x1="331.369" y1="696.095" x2="331.369" y2="759.97"/>
		</g>
	</g>
	<g>
		
			<circle fill="none" stroke="#FFFFFF" stroke-width="2" stroke-linecap="round" stroke-linejoin="round" stroke-miterlimit="10" cx="549.433" cy="779.926" r="7.599"/>
		<g>
			<path fill="none" stroke="#FFFFFF" stroke-width="2" stroke-linecap="round" stroke-linejoin="round" stroke-miterlimit="10" d="
				M530.025,833.553v-32.256c0-3.014,2.441-5.456,5.455-5.456h27.906c3.014,0,5.455,2.442,5.455,5.456v32.256"/>
			
				<line fill="none" stroke="#FFFFFF" stroke-width="2" stroke-linecap="round" stroke-linejoin="round" stroke-miterlimit="10" x1="538.926" y1="808.617" x2="538.926" y2="872.492"/>
			
				<line fill="none" stroke="#FFFFFF" stroke-width="2" stroke-linecap="round" stroke-linejoin="round" stroke-miterlimit="10" x1="549.434" y1="836.66" x2="549.434" y2="872.492"/>
			
				<line fill="none" stroke="#FFFFFF" stroke-width="2" stroke-linecap="round" stroke-linejoin="round" stroke-miterlimit="10" x1="559.939" y1="808.617" x2="559.939" y2="872.492"/>
		</g>
	</g>
	<g>
		
			<circle fill="none" stroke="#FFFFFF" stroke-width="2" stroke-linecap="round" stroke-linejoin="round" stroke-miterlimit="10" cx="549.433" cy="667.403" r="7.599"/>
		<g>
			<path fill="none" stroke="#FFFFFF" stroke-width="2" stroke-linecap="round" stroke-linejoin="round" stroke-miterlimit="10" d="
				M530.025,721.03v-32.256c0-3.014,2.441-5.456,5.455-5.456h27.906c3.014,0,5.455,2.442,5.455,5.456v32.256"/>
			
				<line fill="none" stroke="#FFFFFF" stroke-width="2" stroke-linecap="round" stroke-linejoin="round" stroke-miterlimit="10" x1="538.926" y1="696.095" x2="538.926" y2="759.97"/>
			
				<line fill="none" stroke="#FFFFFF" stroke-width="2" stroke-linecap="round" stroke-linejoin="round" stroke-miterlimit="10" x1="549.434" y1="724.138" x2="549.434" y2="759.97"/>
			
				<line fill="none" stroke="#FFFFFF" stroke-width="2" stroke-linecap="round" stroke-linejoin="round" stroke-miterlimit="10" x1="559.939" y1="696.095" x2="559.939" y2="759.97"/>
		</g>
	</g>
</g>
</svg>
