<?xml version="1.0" encoding="utf-8"?>
<!-- Generator: Adobe Illustrator 16.0.0, SVG Export Plug-In . SVG Version: 6.00 Build 0)  -->
<!DOCTYPE svg PUBLIC "-//W3C//DTD SVG 1.1//EN" "http://www.w3.org/Graphics/SVG/1.1/DTD/svg11.dtd">
<svg version="1.1" id="图层_1" xmlns="http://www.w3.org/2000/svg" xmlns:xlink="http://www.w3.org/1999/xlink" x="0px" y="0px"
	 width="640px" height="960px" viewBox="0 0 640 960" enable-background="new 0 0 640 960" xml:space="preserve">
<g>
	<g>
		<g>
			<rect x="448.882" fill="#F7CC48" width="132.887" height="132.888"/>
		</g>
		<g>
			<polygon fill="#F7CC48" points="473.299,140 467.781,134.2 478.816,134.2 			"/>
		</g>
	</g>
</g>
<g>
	<g>
		<path fill="#1B3467" d="M478.36,86.755v-5.332h-12.604l15.297-21.222h1.203v18.241h3.195v2.98h-3.195v5.332H478.36z
			 M478.468,68.999l-6.697,9.443h6.59v-6.841c0-0.358,0.009-0.76,0.026-1.202C478.404,69.956,478.432,69.489,478.468,68.999z"/>
		<path fill="#1B3467" d="M508.038,74.097c0,4.178-0.842,7.449-2.522,9.813c-1.683,2.364-3.995,3.546-6.939,3.546
			c-2.98,0-5.3-1.194-6.957-3.582c-1.658-2.388-2.487-5.741-2.487-10.063c0-4.284,0.838-7.623,2.514-10.018s4.004-3.591,6.984-3.591
			c3.017,0,5.338,1.2,6.966,3.6S508.038,69.633,508.038,74.097z M498.504,83.774c1.748,0,3.062-0.835,3.941-2.504
			c0.88-1.67,1.319-4.168,1.319-7.496c0-3.232-0.434-5.694-1.302-7.389c-0.868-1.693-2.134-2.54-3.797-2.54
			c-1.736,0-3.047,0.844-3.933,2.532c-0.886,1.688-1.328,4.177-1.328,7.469c0,3.195,0.439,5.648,1.319,7.36
			S496.864,83.774,498.504,83.774z"/>
		<path fill="#1B3467" d="M488.99,116.11c-0.531,0.625-0.953,1.188-1.266,1.688c-4.094-2.203-7.234-5.355-9.422-9.457v11.496h-1.875
			v-11.496c-1.906,4.055-5.109,7.387-9.609,9.996c-0.313-0.453-0.727-0.984-1.242-1.594c4.375-2.492,7.465-5.414,9.27-8.766h-8.941
			v-1.781h10.523v-9.094h1.875v9.094h10.359v1.781h-8.754C482.018,111.509,485.045,114.22,488.99,116.11z M467.873,99.517
			l1.336-1.102c1.688,1.906,3.25,3.695,4.688,5.367l-1.57,1.313C470.92,103.204,469.436,101.345,467.873,99.517z M480.811,103.876
			c1.641-1.766,3.086-3.57,4.336-5.414l1.688,1.219c-1.969,2.453-3.508,4.266-4.617,5.438L480.811,103.876z"/>
	</g>
</g>
</svg>
