<?xml version="1.0" encoding="utf-8"?>
<!-- Generator: Adobe Illustrator 16.0.0, SVG Export Plug-In . SVG Version: 6.00 Build 0)  -->
<!DOCTYPE svg PUBLIC "-//W3C//DTD SVG 1.1//EN" "http://www.w3.org/Graphics/SVG/1.1/DTD/svg11.dtd">
<svg version="1.1" id="图层_1" xmlns="http://www.w3.org/2000/svg" xmlns:xlink="http://www.w3.org/1999/xlink" x="0px" y="0px"
	 width="640px" height="960px" viewBox="0 0 640 960" enable-background="new 0 0 640 960" xml:space="preserve">
<line fill="none" stroke="#FFFFFF" stroke-width="2" stroke-miterlimit="10" x1="506.012" y1="900.641" x2="368.615" y2="900.641"/>
<line fill="none" stroke="#FFFFFF" stroke-width="2" stroke-miterlimit="10" x1="578.435" y1="890.854" x2="340.528" y2="890.854"/>
<line fill="none" stroke="#FFFFFF" stroke-width="2" stroke-miterlimit="10" x1="395.729" y1="880.249" x2="194.741" y2="880.249"/>
<line fill="none" stroke="#FFFFFF" stroke-width="2" stroke-miterlimit="10" x1="156.588" y1="808.712" x2="327.031" y2="808.712"/>
<line fill="none" stroke="#FFFFFF" stroke-width="2" stroke-miterlimit="10" x1="271.83" y1="798.106" x2="409.227" y2="798.106"/>
<path fill-rule="evenodd" clip-rule="evenodd" fill="none" stroke="#FFFFFF" stroke-width="2" stroke-miterlimit="10" d="
	M136.846,808.933c8.895-6.395,18.273-12.057,29.281-13.699c4.451-0.663,9.031-0.473,13.731-0.68
	c-16.878-7.867-32.849-5.895-48.38,4.38c10.356-22.984,36.947-37.027,58.98-31.95c-23.533-13.452-39.104,2.123-55.541,15.512
	c14.861-22.635,30.389-44.64,51.043-62.625c-5.966,0.734-17.319,8.93-27.469,20.801c-7.695,8.999-14.684,18.601-22.705,28.854
	c6.234-21.15,14.828-41.47,3.642-62.585c3.181,22.128-2.424,42.636-11.349,62.715c-2.584-23.653-10.709-43.908-32.61-56.306
	c15.753,18.157,22.527,39.16,20.336,63.294c-8.255-18.02-21.446-30.229-41.789-35.867c2.505-10.708,4.976-21.264,7.557-32.298
	c-12.728,20.103-15.958,42.232-17.809,64.985c-1.004-5.915-1.78-11.881-3.076-17.73c-1.341-6.053-3.187-11.995-5.323-17.837
	c1.524,12.198,3.047,24.398,4.572,36.599c-0.365,0.086-0.732,0.173-1.098,0.259c-3.149-3.95-5.987-8.212-9.535-11.763
	c-3.559-3.562-7.824-6.414-12.725-8.886c17.516,14.836,23.786,33.044,18.04,55.946c6.646,0,12.921,0,19.66,0
	c2.065-17.09,6.427-33.814,18.395-47.353c-8.041,2.833-11.881,7.877-21.139,26.216c0.701-15.287,1.403-30.574,2.159-47.042
	c14.109,7.185,23.389,16.763,29.43,29.256c5.201,10.759,14.286,25.509,13.103,37.804H136.846z"/>
<path fill-rule="evenodd" clip-rule="evenodd" fill="none" stroke="#FFFFFF" stroke-width="2" stroke-miterlimit="10" d="
	M530.519,805.701c2.428,10.646,4.856,21.291,7.029,30.819c0.11-2.371,0.281-6.038,0.525-11.303
	c2.302,14.938,4.362,28.311,6.422,41.683c0.67-0.12,1.341-0.238,2.011-0.358c5.011-25.242,4.848-49.496-14.031-70.244
	c20.693,15.465,21.903,38.249,22.881,61.18c3.315-22.416,4.195-44.423-10.531-64.101c11.523,3.546,17.595,22.638,16.771,51.075
	c6.997-21.148,8.257-42.698,4.053-64.631c0.534-0.178,1.067-0.354,1.601-0.529c1.815,5.367,4.205,10.624,5.284,16.137
	c1.113,5.678,1.268,11.607,1.255,17.426c-0.015,5.908-0.745,11.814-1.262,19.125c5.01-7.741,9.203-14.22,13.94-21.539
	c-4.276,13.072-8.202,25.072-12.128,37.074c0.522,0.277,1.046,0.557,1.568,0.834c6.921-14.896,15.857-27.342,34.106-28.595
	c-12.804,6.527-21.946,16.315-27.306,29.62c-5.323,13.213-5.713,27.03-4.971,41.48c-48.316,0-96.287,0-144.39,0
	c-1.921-10.176-3.67-20.241-16.039-25.376c12.636-0.517,17.521,6.862,21.395,15.845c7.213-20.918,0.89-42.105-16.964-57.809
	c16.703,3.307,26.062,18.614,32.158,53.742c4.072-28.235,9.262-54.843,3.592-82.025c10.437,22.596,12.778,46.393,10.255,70.935
	c0.552,0.026,1.104,0.053,1.656,0.079c2.898-22.774,5.796-45.549,8.886-69.824c1.077,10.718,2.019,20.084,2.749,27.362
	c3.332-11.856,7.118-25.497,11.058-39.093c0.404-1.4,1.728-2.535,3.094-3.658c-7.728,30.592-12.678,61.158-3.907,92.165
	c0.805,0.082,1.61,0.164,2.415,0.245c3.524-25.9,7.049-51.803,10.369-76.203c0.676,5.12,1.834,12.014,2.435,18.955
	c0.641,7.412,1.03,14.868,1.02,22.304c-0.011,7.146-0.675,14.291-0.646,21.471c5.387-21.642,10.299-43.327,8.657-65.943
	c9.51,23.54,11.118,47.823,6.429,72.721c5.583-9.814,11.996-39.202,6.636-60.717C529.234,805.921,529.877,805.812,530.519,805.701z"
	/>
</svg>
