<?xml version="1.0" encoding="utf-8"?>
<!-- Generator: Adobe Illustrator 16.0.0, SVG Export Plug-In . SVG Version: 6.00 Build 0)  -->
<!DOCTYPE svg PUBLIC "-//W3C//DTD SVG 1.1//EN" "http://www.w3.org/Graphics/SVG/1.1/DTD/svg11.dtd">
<svg version="1.1" id="图层_1" xmlns="http://www.w3.org/2000/svg" xmlns:xlink="http://www.w3.org/1999/xlink" x="0px" y="0px"
	 width="640px" height="960px" viewBox="0 0 640 960" enable-background="new 0 0 640 960" xml:space="preserve">
<g>
	<g>
		<path fill="#FFFFFF" d="M261.844,513.473c1.727-2.405,3.02-5.171,3.879-8.296h-3.598v-1.569h3.633v-4.664h1.711v4.664h3.422v1.569
			h-3.422v4.078l0.938-0.961c1.078,1.047,2.07,2.055,2.977,3.023l-1.266,1.241c-0.859-1.016-1.742-2.004-2.648-2.964v12.199h-1.711
			v-12.199c-0.844,2.32-1.867,4.292-3.07,5.917C262.453,514.84,262.172,514.16,261.844,513.473z M271.758,500.418h12.328v21.421
			h-1.781v-1.594h-8.766v1.594h-1.781V500.418z M282.305,502.012h-8.766v4.5h8.766V502.012z M273.539,512.559h8.766v-4.5h-8.766
			V512.559z M273.539,518.652h8.766v-4.547h-8.766V518.652z"/>
		<path fill="#FFFFFF" d="M286.781,518.91h18.563v-4.031h-17.133v-1.664h17.133v-3.96h-17.883v-1.664h9.07v-8.695h1.944v8.695h8.813
			v14.391h-1.945v-1.406h-18.563V518.91z M288.211,501.215l1.313-1.172c1.688,1.578,3.258,3.227,4.711,4.945l-1.57,1.336
			C291.352,504.606,289.867,502.903,288.211,501.215z M306.961,501.309c-1.672,1.892-3.336,3.595-4.992,5.109l-1.406-1.266
			c1.595-1.438,3.195-3.148,4.806-5.134L306.961,501.309z"/>
		<path fill="#FFFFFF" d="M309.961,508.411h10.898v-6.047h-9.023v-1.853h19.406v1.853h-8.414v6.047h10.195v1.852h-10.195v8.039
			c0,1.063-0.195,1.828-0.586,2.297c-0.438,0.547-1.258,0.836-2.46,0.867c-0.704,0-2.024-0.008-3.961-0.022
			c-0.078-0.72-0.203-1.431-0.375-2.134c1.766,0.125,2.992,0.188,3.68,0.188c0.704,0,1.172-0.133,1.406-0.398
			c0.219-0.219,0.328-0.711,0.328-1.477v-7.359h-10.898L309.961,508.411L309.961,508.411z"/>
		<path fill="#FFFFFF" d="M333.797,510.215c1.938-3.438,3.383-7.233,4.336-11.391l1.734,0.328c-0.478,1.828-1,3.543-1.57,5.145
			v17.542h-1.664v-13.464c-0.647,1.391-1.344,2.667-2.086,3.832C334.344,511.582,334.094,510.918,333.797,510.215z M340.148,516.777
			v-14.203h1.616v14.203H340.148z M342.352,505.434c1.923-2.016,3.384-4.219,4.384-6.608l1.688,0.516
			c-0.305,0.648-0.625,1.273-0.961,1.875h7.734v1.478c-1.086,1.577-2.396,2.965-3.927,4.159c1.563,0.813,3.527,1.427,5.896,1.841
			c-0.25,0.405-0.523,0.983-0.82,1.733c-2.836-0.711-5.03-1.551-6.586-2.52c-1.711,1.086-3.897,2.098-6.563,3.035
			c-0.297-0.5-0.625-1.008-0.984-1.523c2.422-0.641,4.484-1.473,6.188-2.496c-1.056-0.852-1.966-1.801-2.73-2.848
			c-0.625,0.875-1.293,1.694-2.004,2.461C343.32,506.192,342.883,505.825,342.352,505.434z M355.055,514.621l1.056,1.289
			c-3.734,2.922-8.048,4.977-12.938,6.164c-0.313-0.578-0.625-1.086-0.938-1.523C347.125,519.395,351.398,517.418,355.055,514.621z
			 M350.672,509.442l1.125,1.194c-2.391,1.609-4.938,2.892-7.641,3.845c-0.25-0.47-0.603-0.938-1.056-1.406
			C345.805,512.309,348.328,511.098,350.672,509.442z M352.945,511.832l1.102,1.266c-2.688,2.017-5.897,3.72-9.633,5.109
			c-0.375-0.578-0.727-1.063-1.055-1.453C347.266,515.488,350.461,513.848,352.945,511.832z M353.063,502.668h-6.456
			c-0.009,0.016-0.017,0.031-0.023,0.047c0.93,1.336,2.012,2.418,3.246,3.246C351.219,504.922,352.297,503.825,353.063,502.668z"/>
		<path fill="#FFFFFF" d="M359.742,511.012c0.469,1.906,1.125,3.474,1.969,4.699c0.836-1.719,1.359-3.699,1.57-5.941h-4.688v-1.711
			l4.313-5.319h-4.781v-1.595h6.938v1.595l-4.405,5.438h4.383v1.383c-0.289,2.898-0.996,5.41-2.121,7.535
			c1.703,1.478,4.348,2.224,7.934,2.238c2.97,0.063,6.414,0.023,10.337-0.117c-0.267,0.642-0.523,1.258-0.773,1.853
			c-3.578-0.017-7.039-0.031-10.383-0.048c-3.484,0-6.156-0.813-8.017-2.438c-0.883,1.281-1.952,2.398-3.211,3.352
			c-0.25-0.452-0.569-0.961-0.961-1.522c1.172-0.892,2.156-1.93,2.953-3.117c-1.047-1.328-1.914-3.227-2.602-5.695L359.742,511.012z
			 M365.273,514.973h6v-2.039h-5.203v-1.405h5.203v-2.039h-4.875v-1.406h4.875v-2.039h-6.095v-1.453h6.095v-2.039h-4.875v-1.406
			h4.875v-2.297h1.733v2.297h5.438v3.445h2.461v1.453h-2.461v4.078h-1.688v-0.633h-3.75v2.039h5.906v1.405h-5.906v2.039h6.984v1.406
			h-6.984v2.414h-1.733v-2.414h-6V514.973z M376.758,502.551h-3.75v2.039h3.75V502.551z M373.008,508.083h3.75v-2.039h-3.75V508.083
			z"/>
		<path fill="#FFFFFF" d="M382.559,510.04c0-3.203,0.531-5.627,1.595-7.271c1.063-1.644,2.602-2.467,4.616-2.467
			c3.845,0,5.767,3.103,5.767,9.306c0,3.062-0.541,5.403-1.623,7.024s-2.601,2.433-4.553,2.433c-1.845,0-3.271-0.771-4.283-2.31
			S382.559,512.977,382.559,510.04z M384.902,509.934c0,4.82,1.223,7.23,3.668,7.23c2.405,0,3.608-2.449,3.608-7.347
			c0-5.07-1.18-7.605-3.539-7.605C386.148,502.211,384.902,504.786,384.902,509.934z"/>
		<path fill="#FFFFFF" d="M396.961,517.551c0-0.422,0.146-0.776,0.434-1.065c0.289-0.289,0.648-0.435,1.078-0.435
			c0.438,0,0.802,0.146,1.09,0.439c0.289,0.293,0.435,0.646,0.435,1.061c0,0.406-0.146,0.756-0.435,1.049
			c-0.288,0.293-0.655,0.439-1.102,0.439c-0.43,0-0.787-0.146-1.072-0.439S396.961,517.957,396.961,517.551z"/>
		<path fill="#FFFFFF" d="M406.477,509.208c-2.164-1.008-3.245-2.469-3.245-4.383c0-1.336,0.508-2.424,1.522-3.265
			c1.015-0.84,2.313-1.26,3.891-1.26c1.445,0,2.638,0.396,3.574,1.185c0.938,0.789,1.406,1.809,1.406,3.059
			c0,2.016-1.129,3.566-3.387,4.652v0.047c2.647,0.953,3.973,2.578,3.973,4.875c0,1.508-0.545,2.709-1.635,3.604
			c-1.09,0.896-2.611,1.343-4.564,1.343c-1.602,0-2.905-0.441-3.914-1.324c-1.008-0.883-1.512-2.027-1.512-3.435
			c0-2.313,1.297-3.996,3.891-5.05V509.208z M408.258,510.297c-2.242,0.906-3.363,2.203-3.363,3.89c0,0.875,0.328,1.595,0.984,2.156
			c0.656,0.563,1.512,0.844,2.566,0.844c1.022,0,1.854-0.278,2.496-0.838c0.641-0.559,0.961-1.256,0.961-2.092
			C411.902,512.5,410.688,511.18,408.258,510.297z M411.305,504.813c0-0.813-0.254-1.453-0.762-1.923
			c-0.508-0.469-1.195-0.702-2.063-0.702c-0.813,0-1.505,0.243-2.074,0.731c-0.57,0.488-0.855,1.111-0.855,1.869
			c0,1.516,0.949,2.668,2.849,3.457C410.336,507.442,411.305,506.297,411.305,504.813z"/>
		<path fill="#FFFFFF" d="M417.492,515.969c1.219,0.797,2.488,1.195,3.809,1.195c1.25,0,2.258-0.35,3.023-1.049
			c0.765-0.699,1.147-1.627,1.147-2.783c0-1.164-0.389-2.066-1.166-2.707c-0.776-0.64-1.903-0.96-3.381-0.96
			c-0.711,0-1.668,0.055-2.871,0.164v-9.223h8.931v2.026h-6.797v5.133c0.68-0.039,1.19-0.059,1.534-0.059
			c1.914,0,3.406,0.484,4.478,1.453c1.07,0.969,1.604,2.304,1.604,4.007c0,1.758-0.573,3.18-1.723,4.266s-2.734,1.629-4.758,1.629
			c-1.695,0-2.974-0.25-3.832-0.75L417.492,515.969L417.492,515.969z"/>
		<path fill="#FFFFFF" d="M442.992,499.34l-0.353,0.539c2.531,4.172,6.048,7.156,10.548,8.953c-0.484,0.766-0.898,1.469-1.242,2.109
			c-4.595-2.406-8.07-5.508-10.431-9.305c-2.313,3.609-5.819,6.82-10.522,9.632c-0.344-0.563-0.742-1.179-1.195-1.851
			c4.875-2.703,8.5-6.063,10.875-10.078H442.992z M440.414,507.403h2.133v14.507h-2.133V507.403z"/>
		<path fill="#FFFFFF" d="M454.195,518.137h22.641v1.97h-22.641V518.137z M455.648,501.168h19.641v2.016h-19.641V501.168z
			 M456.703,509.208h17.531v1.992h-17.531V509.208z"/>
		<path fill="#FFFFFF" d="M484.945,518.629v-1.031l-6.211,0.259v-14.438h1.641v12.867l1.453-0.06v-17.284h1.664v17.214l1.453-0.07
			v-12.667h1.641v15.21H484.945L484.945,518.629z M487.336,511.129h5.426c0.181-1.39,0.277-3.796,0.293-7.218h-5.108v-1.594h5.121
			c0.016-1.009,0.026-2.134,0.034-3.375h1.711c-0.008,1.211-0.02,2.336-0.034,3.375h5.262v1.594h-5.285
			c0.023,2.891-0.051,5.297-0.223,7.218h6.211v1.594H495c1.133,3.313,3.219,5.642,6.258,6.984c-0.25,0.281-0.688,0.883-1.313,1.805
			c-3.017-1.852-5.047-4.397-6.095-7.641c-1.077,3.383-3.319,6.063-6.727,8.039c-0.313-0.453-0.734-0.992-1.266-1.617
			c3.641-1.938,5.84-4.461,6.598-7.57h-5.121L487.336,511.129L487.336,511.129z M487.875,506.208l1.359-0.867
			c0.813,1.047,1.594,2.172,2.344,3.375l-1.523,1.031C489.383,508.512,488.656,507.333,487.875,506.208z M500.016,506.208
			c-0.813,1.281-1.633,2.477-2.461,3.586l-1.43-0.938c0.703-0.97,1.484-2.156,2.344-3.563L500.016,506.208z"/>
		<path fill="#FFFFFF" d="M502.172,518.395h10.266v-15.632h-8.93v-1.875h19.969v1.875H514.5v15.632h10.289v1.828h-22.617V518.395z"
			/>
		<path fill="#FFFFFF" d="M525.656,515.371c1.547-2.258,2.733-4.929,3.563-8.015h-3.281v-1.548h3.656v-3.668
			c-0.983,0.142-1.992,0.271-3.022,0.388c-0.125-0.531-0.289-1.07-0.492-1.617c2.656-0.219,5.336-0.642,8.039-1.267l0.516,1.642
			c-1.086,0.219-2.203,0.422-3.352,0.608v3.914h3.258v1.548h-3.258v3.094l0.914-0.797c0.625,0.641,1.539,1.664,2.741,3.069
			l-1.405,1.148c-0.906-1.156-1.656-2.09-2.25-2.801v10.84h-1.688v-11.228c-0.828,2.688-1.875,4.931-3.141,6.728
			C526.203,516.738,525.938,516.059,525.656,515.371z M533.93,519.074h6.703v-3.469h-5.32v-1.57h5.32v-3.188h-5.883v-1.569h13.664
			v1.569h-5.906v3.188h5.32v1.57h-5.32v3.469h6.703v1.569H533.93V519.074z M535.805,499.903h11.625v8.039h-1.78v-0.961h-8.063v0.961
			h-1.781V499.903z M545.648,501.497h-8.063v3.891h8.063V501.497z"/>
	</g>
</g>
<g>
	<g>
		<path fill="#F7CC48" d="M374.559,434.612l14.252,14.25l14.313-14.25l3.633,3.632l-14.25,14.313l14.25,14.221l-3.633,3.694
			l-14.313-14.313l-14.252,14.313l-3.602-3.694l14.221-14.221l-14.221-14.313L374.559,434.612z"/>
		<path fill="#F7CC48" d="M450.564,449.607c0,7.224-1.455,12.88-4.363,16.968s-6.908,6.132-12,6.132
			c-5.154,0-9.164-2.065-12.031-6.194s-4.299-9.93-4.299-17.402c0-7.41,1.447-13.185,4.346-17.325
			c2.898-4.139,6.924-6.209,12.078-6.209c5.215,0,9.23,2.076,12.047,6.225C449.156,435.952,450.564,441.887,450.564,449.607z
			 M434.078,466.342c3.021,0,5.293-1.443,6.813-4.331c1.521-2.888,2.281-7.208,2.281-12.962c0-5.589-0.75-9.847-2.25-12.776
			c-1.502-2.928-3.688-4.393-6.565-4.393c-3.002,0-5.269,1.459-6.802,4.378c-1.53,2.918-2.297,7.224-2.297,12.916
			c0,5.526,0.763,9.771,2.281,12.729C429.063,464.863,431.242,466.342,434.078,466.342z"/>
		<path fill="#F7CC48" d="M458.947,468.05c0-1.138,0.393-2.11,1.18-2.918c0.785-0.807,1.748-1.211,2.887-1.211
			c1.14,0,2.103,0.404,2.89,1.211c0.784,0.808,1.18,1.78,1.18,2.918c0,1.118-0.396,2.064-1.18,2.841
			c-0.787,0.776-1.75,1.165-2.89,1.165c-1.139,0-2.102-0.388-2.887-1.165C459.34,470.114,458.947,469.167,458.947,468.05z"/>
		<path fill="#F7CC48" d="M484.25,447.465c-2.256-0.973-3.912-2.246-4.967-3.819c-1.058-1.573-1.584-3.54-1.584-5.899
			c0-3.643,1.283-6.582,3.85-8.817c2.566-2.236,5.961-3.354,10.185-3.354c4.325,0,7.762,1.133,10.309,3.4
			c2.545,2.267,3.818,5.293,3.818,9.082c0,2.235-0.554,4.155-1.66,5.759c-1.107,1.604-2.738,2.82-4.892,3.648
			c2.525,0.828,4.502,2.292,5.931,4.394c1.43,2.101,2.143,4.58,2.143,7.436c0,4.181-1.381,7.462-4.145,9.842
			c-2.765,2.38-6.599,3.57-11.504,3.57c-4.822,0-8.621-1.19-11.396-3.57c-2.772-2.38-4.16-5.62-4.16-9.718
			c0-2.979,0.703-5.511,2.111-7.591S481.684,448.293,484.25,447.465z M491.732,466.653c2.67,0,4.762-0.699,6.271-2.097
			c1.512-1.396,2.269-3.326,2.269-5.791c0-2.483-0.757-4.429-2.269-5.837c-1.51-1.406-3.602-2.111-6.271-2.111
			c-2.607,0-4.668,0.714-6.179,2.143c-1.512,1.428-2.266,3.364-2.266,5.806c0,2.464,0.744,4.394,2.234,5.791
			C487.014,465.954,489.084,466.653,491.732,466.653z M491.889,431.569c-2.151,0-3.85,0.564-5.092,1.692
			c-1.242,1.128-1.863,2.665-1.863,4.61c0,1.905,0.605,3.395,1.816,4.471c1.211,1.077,2.871,1.615,4.982,1.615
			c2.174,0,3.864-0.533,5.075-1.599s1.816-2.562,1.816-4.486c0-1.966-0.6-3.508-1.801-4.626
			C495.625,432.128,493.979,431.569,491.889,431.569z"/>
		<path fill="#F7CC48" d="M518.342,460.629c1.055,1.946,2.41,3.437,4.066,4.471c1.656,1.036,3.498,1.554,5.526,1.554
			c3,0,5.435-0.958,7.295-2.872c1.863-1.914,2.796-4.436,2.796-7.561c0-3.001-0.979-5.443-2.935-7.327
			c-1.957-1.883-4.518-2.825-7.684-2.825c-1.906,0-3.67,0.326-5.295,0.978c-1.625,0.652-3.06,1.62-4.3,2.903l-1.832-0.404
			l5.65-23.068h21.484v5.992H526.07l-2.67,10.028c1.241-0.517,2.44-0.9,3.602-1.148c1.158-0.249,2.318-0.373,3.477-0.373
			c4.326,0,7.847,1.387,10.558,4.16c2.711,2.774,4.065,6.386,4.065,10.834c0,5.093-1.582,9.154-4.75,12.188
			c-3.166,3.032-7.409,4.548-12.729,4.548c-3.146,0-5.879-0.543-8.197-1.63s-4.313-2.769-5.992-5.045L518.342,460.629z"/>
	</g>
</g>
<line fill="none" stroke="#FFFFFF" stroke-miterlimit="10" x1="154.345" y1="486.691" x2="555.594" y2="486.691"/>
</svg>
