<?xml version="1.0" encoding="utf-8"?>
<!-- Generator: Adobe Illustrator 16.0.0, SVG Export Plug-In . SVG Version: 6.00 Build 0)  -->
<!DOCTYPE svg PUBLIC "-//W3C//DTD SVG 1.1//EN" "http://www.w3.org/Graphics/SVG/1.1/DTD/svg11.dtd">
<svg version="1.1" id="图层_1" xmlns="http://www.w3.org/2000/svg" xmlns:xlink="http://www.w3.org/1999/xlink" x="0px" y="0px"
	 width="640px" height="960px" viewBox="0 0 640 960" enable-background="new 0 0 640 960" xml:space="preserve">
<g>
	<g>
		<g>
			<rect x="447.816" fill="#F7CC48" width="132.887" height="132.888"/>
		</g>
		<g>
			<polygon fill="#F7CC48" points="472.233,140 466.716,134.2 477.751,134.2 			"/>
		</g>
	</g>
</g>
<g>
	<g>
		<path fill="#1B3467" d="M474.091,86.755v-5.333h-12.604L476.783,60.2h1.203v18.242h3.195v2.979h-3.195v5.333H474.091z
			 M474.198,68.998l-6.697,9.444h6.59v-6.842c0-0.358,0.009-0.76,0.026-1.202S474.162,69.489,474.198,68.998z"/>
		<path fill="#1B3467" d="M491.703,70.794c0.586-0.275,1.164-0.485,1.732-0.629s1.134-0.215,1.696-0.215
			c2.347,0,4.279,0.795,5.8,2.387c1.52,1.592,2.28,3.627,2.28,6.105c0,2.705-0.854,4.883-2.559,6.535
			c-1.706,1.651-3.953,2.477-6.742,2.477c-2.609,0-4.707-0.808-6.293-2.424c-1.586-1.615-2.379-3.74-2.379-6.373
			c0-2.813,1.915-6.912,5.746-12.299l0.467-0.628l4.596-6.518l3.268,1.651L491.703,70.794z M489.315,78.692
			c0,1.568,0.437,2.832,1.311,3.789c0.873,0.957,2.005,1.436,3.394,1.436c1.567,0,2.801-0.467,3.698-1.4s1.347-2.207,1.347-3.824
			c0-1.639-0.443-2.923-1.329-3.851c-0.886-0.927-2.112-1.392-3.681-1.392c-1.4,0-2.54,0.485-3.42,1.455
			C489.755,75.874,489.315,77.138,489.315,78.692z"/>
		<path fill="#1B3467" d="M508.615,84.762c0-0.658,0.228-1.222,0.683-1.688s1.012-0.699,1.67-0.699s1.215,0.232,1.67,0.699
			c0.454,0.467,0.682,1.03,0.682,1.688c0,0.646-0.228,1.194-0.682,1.643c-0.455,0.448-1.012,0.673-1.67,0.673
			s-1.215-0.225-1.67-0.673S508.615,85.407,508.615,84.762z"/>
		<path fill="#1B3467" d="M529.892,76.862c-0.551,0.275-1.11,0.479-1.679,0.609c-0.569,0.133-1.146,0.198-1.732,0.198
			c-2.358,0-4.298-0.79-5.817-2.37c-1.521-1.58-2.28-3.609-2.28-6.086c0-2.705,0.853-4.884,2.559-6.535
			c1.705-1.652,3.959-2.479,6.76-2.479c2.609,0,4.713,0.806,6.311,2.415c1.598,1.61,2.396,3.726,2.396,6.347
			c0,2.813-1.921,6.912-5.763,12.299l-0.449,0.646l-4.632,6.499l-3.231-1.651L529.892,76.862z M532.297,68.927
			c0-1.568-0.431-2.831-1.292-3.789c-0.862-0.957-1.993-1.436-3.394-1.436c-1.568,0-2.804,0.467-3.708,1.4
			c-0.903,0.934-1.355,2.208-1.355,3.824c0,1.651,0.443,2.947,1.329,3.887s2.106,1.409,3.662,1.409c1.4,0,2.544-0.493,3.43-1.481
			C531.854,71.754,532.297,70.482,532.297,68.927z"/>
		<path fill="#1B3467" d="M461.705,98.743h22.594v1.805h-13.418c-0.063,1.742-0.145,3.375-0.246,4.898h10.875
			c-0.156,3.188-0.336,6.211-0.539,9.07c-0.141,1.734-0.539,2.984-1.195,3.75c-0.625,0.703-1.758,1.063-3.398,1.078
			c-0.859,0.031-2.313-0.031-4.359-0.188c-0.078-0.594-0.195-1.313-0.352-2.156c1.984,0.266,3.5,0.398,4.547,0.398
			c1.672,0.125,2.594-0.93,2.766-3.164c0.188-2.188,0.328-4.523,0.422-7.008h-8.906c-0.586,5.719-3.148,9.969-7.688,12.75
			c-0.359-0.484-0.82-1.039-1.383-1.664c4.391-2.672,6.742-6.656,7.055-11.953c0.148-1.711,0.246-3.648,0.293-5.813h-7.066V98.743z"
			/>
		<path fill="#1B3467" d="M485.377,117.892c6.813-3.938,10.414-10.844,10.805-20.719h2.063c-0.086,1.672-0.25,3.266-0.492,4.781
			c1.938,7.813,5.578,12.953,10.922,15.422c-0.656,0.719-1.234,1.398-1.734,2.039c-4.641-2.625-7.949-7.27-9.926-13.934
			c-1.711,6.438-5.098,11.168-10.16,14.191C486.432,119.095,485.939,118.501,485.377,117.892z"/>
	</g>
</g>
</svg>
