<?xml version="1.0" encoding="utf-8"?>
<!-- Generator: Adobe Illustrator 16.0.0, SVG Export Plug-In . SVG Version: 6.00 Build 0)  -->
<!DOCTYPE svg PUBLIC "-//W3C//DTD SVG 1.1//EN" "http://www.w3.org/Graphics/SVG/1.1/DTD/svg11.dtd">
<svg version="1.1" id="图层_1" xmlns="http://www.w3.org/2000/svg" xmlns:xlink="http://www.w3.org/1999/xlink" x="0px" y="0px"
	 width="640px" height="960px" viewBox="0 0 640 960" enable-background="new 0 0 640 960" xml:space="preserve">
<g>
	<g>
		<path fill="#FFFFFF" d="M194.023,365.576h4.125v-10.266h15.305v10.266h3.867v1.781h-3.867v7.078c0,1.891-0.906,2.836-2.719,2.836
			c-1.016,0-2.25-0.031-3.703-0.094c-0.078-0.531-0.195-1.195-0.352-1.992c1.359,0.109,2.492,0.164,3.398,0.164
			c0.938,0,1.406-0.508,1.406-1.523v-6.469H200c-0.359,4.555-1.578,8.008-3.656,10.359c-0.469-0.469-1.008-0.938-1.617-1.406
			c1.828-1.813,2.922-4.797,3.281-8.953h-3.984V365.576z M200.117,357.068v8.508h11.367v-8.508H200.117z M203.047,359.646
			l1.453-1.172c1.172,1.188,2.398,2.531,3.68,4.031l-1.617,1.313C205.594,362.506,204.422,361.115,203.047,359.646z"/>
		<path fill="#FFFFFF" d="M221.548,360.771c1.594,0.969,3.164,2.023,4.711,3.164l-1.313,1.711c-1.563-1.281-3.07-2.398-4.523-3.352
			L221.548,360.771z M224.454,367.568c0.625,0.406,1.266,0.773,1.922,1.102c-1.125,2.797-2.227,5.703-3.305,8.719l-1.992-1.125
			C222.313,373.67,223.438,370.771,224.454,367.568z M222.743,354.795c1.453,0.984,2.961,2.102,4.523,3.352l-1.266,1.594
			c-1.469-1.313-2.938-2.508-4.406-3.586L222.743,354.795z M226.751,373.967h7.5v-15.492h-6.094v-1.734h14.555v1.734h-6.492v15.492
			h7.523v1.734h-16.992V373.967z"/>
		<path fill="#FFFFFF" d="M249.144,356.764h18.609v19.734h-2.016v-2.273h-14.578v2.273h-2.016V356.764z M265.737,372.467v-13.945
			h-14.578v13.945H265.737z"/>
		<path fill="#FFFFFF" d="M273.833,361.967v-1.781h8.086v1.711c-1.328,5.125-3.75,9.516-7.266,13.172
			c-0.531-0.609-1.008-1.086-1.43-1.43c3.531-3.719,5.805-7.609,6.82-11.672H273.833z M283.841,354.467h1.898v3.762
			c0.672,1.828,1.441,3.527,2.309,5.098c1.727-1.438,3.449-3.156,5.168-5.156l1.57,1.406c-1.828,1.914-3.758,3.699-5.789,5.355
			c2.063,3.266,4.586,5.918,7.57,7.957c-0.656,0.656-1.188,1.242-1.594,1.758c-4.109-3.234-7.188-7.238-9.234-12.012v10.957
			c0,2.328-1.117,3.492-3.352,3.492c-0.688,0-1.703-0.008-3.047-0.023c-0.078-0.578-0.203-1.281-0.375-2.109
			c1.25,0.125,2.266,0.188,3.047,0.188c1.219,0,1.828-0.586,1.828-1.758V354.467z"/>
		<path fill="#FFFFFF" d="M310.452,355.123l1.43-1.055c0.75,0.719,1.445,1.5,2.086,2.344l-0.996,0.727h9.691v1.688h-18.867v6.68
			c0.016,5.375-1.008,9.414-3.07,12.117c-0.391-0.5-0.836-1.031-1.336-1.594c1.703-2.234,2.547-5.633,2.531-10.195v-8.695h10.16
			C311.573,356.459,311.03,355.787,310.452,355.123z M304.288,371.412h8.883v-2.484h-7.148v-1.711
			c0.813-1.18,1.574-2.461,2.285-3.844h-3.41v-1.688h4.23c0.391-0.836,0.762-1.703,1.113-2.602l1.922,0.516
			c-0.32,0.719-0.645,1.414-0.973,2.086h10.254v1.688h-11.098c-0.719,1.391-1.449,2.68-2.191,3.867h5.016v-2.977h1.875v2.977h6.422
			v1.688h-6.422v2.484h7.57v1.688h-7.57v4.336h-1.875V373.1h-8.883V371.412z"/>
		<path fill="#FFFFFF" d="M327.008,358.264h2.367c0.578-1.422,1.055-2.719,1.43-3.891l1.969,0.563
			c-0.492,1.195-0.969,2.305-1.43,3.328h4.688v18.656h-1.875v-1.828h-5.273v1.992h-1.875V358.264z M334.156,360.021h-5.273v5.695
			h5.273V360.021z M328.883,373.334h5.273v-5.93h-5.273V373.334z M336.383,363.068c1.469-2.328,2.711-5.227,3.727-8.695l1.969,0.492
			c-0.398,1.18-0.805,2.289-1.219,3.328h7.547c-0.188,8.031-0.344,13.086-0.469,15.164c-0.109,2.453-1.398,3.68-3.867,3.68
			c-1.422,0-2.867-0.047-4.336-0.141c-0.094-0.781-0.219-1.477-0.375-2.086h0.07c1.563,0.219,2.992,0.328,4.289,0.328
			c1.422,0,2.188-0.75,2.297-2.25c0.172-2.328,0.297-6.641,0.375-12.938h-6.281c-0.68,1.508-1.383,2.836-2.109,3.984
			C337.578,363.639,337.039,363.35,336.383,363.068z M338.445,364.662l1.43-1.055c1.734,2.047,3.117,3.82,4.148,5.32l-1.734,1.219
			C341.18,368.334,339.898,366.506,338.445,364.662z"/>
		<path fill="#FFFFFF" d="M194,404.084h3.82v-12.563h2.016v12.563h5.953V388.17h-10.711v-1.828h21.328v1.828h-8.602v6.141h7.805
			v1.805h-7.805v7.969h9.539v1.828H194V404.084z"/>
		<path fill="#FFFFFF" d="M221.407,388.521h5.52c-1.047-0.891-2.137-1.75-3.27-2.578l1.078-1.219
			c1.172,0.781,2.352,1.602,3.539,2.461l-1.254,1.336h4.137v-4.102h1.875v4.102h3.867l-0.938-1.172
			c1.281-0.844,2.5-1.742,3.656-2.695l1.359,1.383c-1.117,0.828-2.297,1.656-3.539,2.484h5.344v4.148h-1.828v-2.555h-17.719v2.555
			h-1.828V388.521z M224.618,405.725h-1.828v-6.68h8.391v-2.203h-4.594v0.844h-1.781v-5.977h14.672v5.977h-1.781v-0.844h-4.641
			v2.203h8.602v4.008c0,1.797-0.945,2.695-2.836,2.695c-0.797,0-1.711-0.008-2.742-0.023c-0.094-0.547-0.211-1.148-0.352-1.805
			c0.953,0.094,1.836,0.141,2.648,0.141c0.969,0,1.453-0.422,1.453-1.266v-2.203h-6.773v6.938h-1.875v-6.938h-6.563V405.725z
			 M237.696,393.209h-11.109v2.133h11.109V393.209z"/>
		<path fill="#FFFFFF" d="M247.034,385.99h6.422v-1.594h1.688v1.594h6.703v-1.594h1.688v1.594h6.469v1.406h-6.469v1.406h-1.688
			v-1.406h-6.703v1.406h-1.688v-1.406h-6.422V385.99z M264.519,393.701c1.625,1.188,3.234,2.453,4.828,3.797l-1.219,1.125
			c-0.563-0.5-1.105-0.977-1.629-1.43c-5.594,0.141-10.488,0.297-14.684,0.469c-0.641,0.031-1.477,0.102-2.508,0.211l-0.609-1.617
			c1-0.078,1.977-0.234,2.93-0.469c2.352-0.68,4.504-1.348,6.457-2.004c-2.367,0.102-4.473,0.215-6.316,0.34
			c-0.531,0.031-1.133,0.102-1.805,0.211l-0.586-1.383c0.906-0.125,1.695-0.313,2.367-0.563c1.359-0.477,2.648-0.977,3.867-1.5
			h-8.18v-1.359h10.488c-0.305-0.484-0.598-0.914-0.879-1.289l1.453-0.609c0.453,0.68,0.84,1.313,1.16,1.898h9.926v1.359h-10.863
			c-1.836,0.711-3.746,1.406-5.73,2.086c2.711-0.07,5.395-0.152,8.051-0.246c1.273-0.477,2.441-0.949,3.504-1.418l1.406,1.078
			c-3.156,1.219-7.328,2.555-12.516,4.008c3.813-0.109,7.688-0.238,11.625-0.387c-0.586-0.477-1.156-0.918-1.711-1.324
			L264.519,393.701z M267.214,398.904v8.602h-1.594v-0.938h-14.297v0.938h-1.594v-8.602H267.214z M251.323,402.068h6.352v-1.805
			h-6.352V402.068z M251.323,405.209h6.352v-1.828h-6.352V405.209z M265.62,400.264h-6.352v1.805h6.352V400.264z M259.269,405.209
			h6.352v-1.828h-6.352V405.209z"/>
		<path fill="#FFFFFF" d="M273.833,391.967v-1.781h8.086v1.711c-1.328,5.125-3.75,9.516-7.266,13.172
			c-0.531-0.609-1.008-1.086-1.43-1.43c3.531-3.719,5.805-7.609,6.82-11.672H273.833z M283.841,384.467h1.898v3.762
			c0.672,1.828,1.441,3.527,2.309,5.098c1.727-1.438,3.449-3.156,5.168-5.156l1.57,1.406c-1.828,1.914-3.758,3.699-5.789,5.355
			c2.063,3.266,4.586,5.918,7.57,7.957c-0.656,0.656-1.188,1.242-1.594,1.758c-4.109-3.234-7.188-7.238-9.234-12.012v10.957
			c0,2.328-1.117,3.492-3.352,3.492c-0.688,0-1.703-0.008-3.047-0.023c-0.078-0.578-0.203-1.281-0.375-2.109
			c1.25,0.125,2.266,0.188,3.047,0.188c1.219,0,1.828-0.586,1.828-1.758V384.467z"/>
		<path fill="#FFFFFF" d="M299.577,395.74c2.234-3.375,3.922-7.164,5.063-11.367l1.992,0.492c-0.648,1.984-1.344,3.836-2.086,5.555
			v17.109h-1.758v-13.441c-0.734,1.375-1.508,2.645-2.32,3.809C300.249,397.303,299.952,396.584,299.577,395.74z M305.976,404.553
			h9.152c1.125-3.008,2.426-7.297,3.902-12.867l2.109,0.633c-0.945,2.898-2.289,6.977-4.031,12.234h5.859v1.734h-16.992V404.553z
			 M306.468,388.615h8.262c-0.695-1.172-1.465-2.258-2.309-3.258l1.594-1.102c0.688,0.797,1.539,1.867,2.555,3.211l-1.734,1.148
			h7.711v1.734h-16.078V388.615z M309.655,391.92c1.031,2.813,2.156,6.219,3.375,10.219l-1.945,0.563
			c-1.063-3.828-2.133-7.219-3.211-10.172L309.655,391.92z"/>
		<path fill="#FFFFFF" d="M327.008,390.514h8.801c0.227-1.914,0.34-3.984,0.34-6.211h2.016c0,2.32-0.109,4.391-0.328,6.211h9.961
			c-0.094,4.828-0.234,8.813-0.422,11.953c-0.156,2.922-1.703,4.383-4.641,4.383c-1.219,0-2.664-0.039-4.336-0.117
			c-0.063-0.609-0.18-1.336-0.352-2.18c1.469,0.203,2.914,0.305,4.336,0.305c1.875,0,2.859-0.922,2.953-2.766
			c0.219-3.063,0.359-6.313,0.422-9.75h-8.18c-1.148,6.891-4.359,12.016-9.633,15.375c-0.438-0.547-0.914-1.125-1.43-1.734
			c4.859-2.867,7.863-7.414,9.012-13.641h-8.52V390.514z M328.672,385.873l1.266-1.172c1.297,1.125,2.547,2.281,3.75,3.469
			l-1.43,1.336C331.102,388.24,329.906,387.029,328.672,385.873z M338.141,396.561l1.289-1.148c1.5,1.391,2.859,2.758,4.078,4.102
			l-1.453,1.313C340.852,399.404,339.547,397.982,338.141,396.561z"/>
	</g>
</g>
<g>
	<g>
		<path fill="#F7CC48" d="M214.486,530.763v-77.014h-18.49l5.614-11.473h26.118v88.487H214.486z"/>
		<path fill="#F7CC48" d="M270.935,528.871l36.493-75.123h-41.314v-11.473h61.575l-44.976,91.843L270.935,528.871z"/>
		<path fill="#F7CC48" d="M402.322,487.739c0,14.199-2.858,25.316-8.574,33.352s-13.578,12.052-23.586,12.052
			c-10.131,0-18.013-4.058-23.647-12.175c-5.636-8.116-8.452-19.518-8.452-34.205c0-14.563,2.848-25.914,8.544-34.051
			c5.695-8.137,13.608-12.205,23.738-12.205c10.253,0,18.145,4.079,23.678,12.235C399.556,460.899,402.322,472.565,402.322,487.739z
			 M369.918,520.632c5.939,0,10.404-2.837,13.395-8.512c2.99-5.676,4.485-14.168,4.485-25.479c0-10.984-1.475-19.355-4.424-25.112
			c-2.95-5.756-7.253-8.635-12.907-8.635c-5.899,0-10.354,2.868-13.364,8.604c-3.012,5.736-4.516,14.199-4.516,25.387
			c0,10.862,1.495,19.203,4.485,25.02C360.063,517.724,364.344,520.632,369.918,520.632z"/>
		<path fill="#F7CC48" d="M454.557,529.495c-1.044,1.229-1.873,2.334-2.487,3.317c-8.047-4.33-14.22-10.526-18.52-18.588v22.597
			h-3.686v-22.597c-3.746,7.97-10.042,14.519-18.888,19.647c-0.614-0.891-1.428-1.935-2.441-3.133
			c8.6-4.898,14.673-10.641,18.22-17.229h-17.574v-3.502h20.684v-17.873h3.686v17.873h20.362v3.502h-17.206
			C440.852,520.452,446.802,525.78,454.557,529.495z M413.05,496.88l2.626-2.165c3.317,3.747,6.388,7.264,9.214,10.55l-3.087,2.58
			C419.039,504.128,416.121,500.474,413.05,496.88z M438.479,505.448c3.225-3.47,6.065-7.018,8.522-10.641l3.316,2.395
			c-3.869,4.822-6.895,8.385-9.075,10.688L438.479,505.448z"/>
	</g>
</g>
</svg>
