<?xml version="1.0" encoding="utf-8"?>
<!-- Generator: Adobe Illustrator 16.0.0, SVG Export Plug-In . SVG Version: 6.00 Build 0)  -->
<!DOCTYPE svg PUBLIC "-//W3C//DTD SVG 1.1//EN" "http://www.w3.org/Graphics/SVG/1.1/DTD/svg11.dtd">
<svg version="1.1" id="图层_1" xmlns="http://www.w3.org/2000/svg" xmlns:xlink="http://www.w3.org/1999/xlink" x="0px" y="0px"
	 width="640px" height="960px" viewBox="0 0 640 960" enable-background="new 0 0 640 960" xml:space="preserve">
<g>
	<g>
		<path fill="#FFFFFF" d="M130.467,428.488l2.422,0.565c-0.266,1.141-0.572,2.256-0.918,3.351v15.264h-2.422v-9.209
			c-0.391,0.788-0.801,1.56-1.23,2.314c-0.129-0.82-0.352-1.967-0.664-3.438C128.904,434.667,129.842,431.718,130.467,428.488z
			 M138.611,440.109h-2.891v1.327h3.359v2.306h-3.359v3.944h-2.422v-18.555h6.074v7.031h-3.652v1.641h2.891V440.109L138.611,440.109
			z M137.303,433.859v-2.423h-1.582v2.423H137.303z M138.963,437.199h7.227v1.719c-0.273,1.94-0.918,3.62-1.934,5.039
			c0.762,0.645,1.68,1.191,2.754,1.641c-0.441,0.664-0.977,1.367-1.602,2.109c-1.047-0.586-1.959-1.26-2.734-2.021
			c-0.918,0.813-2.012,1.508-3.281,2.08c-0.363-0.508-0.91-1.087-1.641-1.737c1.375-0.625,2.51-1.349,3.408-2.168
			c-0.846-1.303-1.402-2.793-1.67-4.474h-0.527V437.199z M139.979,429.289h6.055v6.699h-6.055v-2.306h3.594v-2.09h-3.594V429.289z
			 M143.631,439.387h-1.992c0.184,0.996,0.518,1.896,1.006,2.695C143.152,441.262,143.482,440.363,143.631,439.387z"/>
		<path fill="#FFFFFF" d="M147.596,431.926h2.285c0.17-1.112,0.332-2.298,0.488-3.555l2.715,0.254l-0.547,3.301h4.238
			c0,4.778-0.689,8.216-2.07,10.313c0.996,0.788,1.934,1.55,2.813,2.285l-1.953,2.129c-0.82-0.788-1.627-1.546-2.422-2.275
			c-1.027,1.179-2.291,2.308-3.789,3.389c-0.494-0.689-1.08-1.405-1.758-2.147c1.406-0.95,2.586-1.97,3.535-3.058
			c-0.996-0.886-1.973-1.729-2.93-2.528c0.457-1.53,0.883-3.418,1.279-5.664h-1.885L147.596,431.926L147.596,431.926z
			 M150.994,439.367l1.572,1.201c0.893-1.642,1.396-3.708,1.514-6.201h-1.992C151.75,436.099,151.385,437.766,150.994,439.367z
			 M157.752,447.219v-16.875h8.262v16.875h-2.617v-1.367h-3.027v1.367H157.752z M163.396,432.941h-3.027v10.313h3.027V432.941z"/>
		<path fill="#FFFFFF" d="M167.811,432.844h2.051v-3.516h2.734v3.516h2.578v-4.219h2.695v4.219h3.828v-4.258h2.695v4.258h2.383v2.5
			h-2.383v6.699h-9.219v-6.699h-2.578v9.199h13.828v2.5H169.86v-11.699h-2.051v-2.5H167.811z M177.869,439.543h3.828v-4.199h-3.828
			V439.543z"/>
		<path fill="#FFFFFF" d="M199.275,441.066h0.85c-1.178-0.729-2.125-1.53-2.842-2.402c-0.748,0.827-1.76,1.621-3.037,2.383h1.064
			c0.059,2.083-0.252,3.547-0.932,4.39c-0.682,0.844-1.809,1.613-3.385,2.311c-0.664-0.859-1.25-1.53-1.758-2.012
			c1.641-0.735,2.635-1.346,2.984-1.826c0.348-0.481,0.541-1.172,0.58-2.07c-1.119,0.561-2.393,1.104-3.818,1.631
			c-0.377-0.769-0.84-1.563-1.387-2.383c2.695-0.689,4.838-1.522,6.426-2.5h-4.629v-9.297h15.859v9.297h-4.805
			c1.719,1.094,3.92,1.875,6.602,2.344c-0.43,0.717-0.891,1.563-1.387,2.539c-1.387-0.43-2.629-0.904-3.73-1.426v5.625h-2.656
			L199.275,441.066L199.275,441.066z M192.01,432.883h3.984v-1.483h-3.984V432.883z M192.01,436.477h3.984v-1.483h-3.984V436.477z
			 M202.635,431.398h-3.984v1.483h3.984V431.398z M202.635,436.477v-1.483h-3.984v1.483H202.635z"/>
		<path fill="#FFFFFF" d="M207.85,443.957h7.246v-15.371h3.164v5.41h7.227v2.793h-7.227v7.168h8.496v2.754H207.85V443.957z"/>
		<path fill="#FFFFFF" d="M127.654,465.018h2.344l0.439-3.114c-0.52,0.572-1.057,1.104-1.611,1.592
			c-0.352-0.859-0.748-1.758-1.191-2.695c1.576-1.354,2.885-3.04,3.926-5.059h2.949c-0.215,0.43-0.432,0.847-0.654,1.25H146.6v2.147
			h-14.033c-0.26,0.392-0.527,0.77-0.801,1.134h13.291l-0.205,4.745h2.197v2.148h-2.295l-0.137,2.676h1.807v2.109H144.5
			c-0.117,1.133-0.5,1.898-1.146,2.3c-0.648,0.4-1.365,0.625-2.154,0.674c-0.787,0.049-2.242,0.073-4.365,0.073
			c-0.221-0.781-0.461-1.536-0.723-2.266c1.445,0.039,2.637,0.059,3.574,0.059c1.127,0,1.797-0.28,2.012-0.84h-12.656l0.664-4.785
			h-2.051L127.654,465.018L127.654,465.018z M134.686,468.24l1.123-1.074h-3.457l-0.381,2.676h4.746
			C136.105,469.314,135.428,468.78,134.686,468.24z M135.193,463.436l1.064-1.055h-3.213l-0.381,2.637h4.531
			C136.559,464.478,135.891,463.95,135.193,463.436z M139.275,468.787l-1.113,1.055h3.799c0.047-0.689,0.096-1.582,0.146-2.676
			h-5.088C137.73,467.647,138.482,468.188,139.275,468.787z M139.744,463.943l-1.074,1.073h3.535l0.117-2.637h-4.736
			C138.361,462.889,139.08,463.409,139.744,463.943z"/>
		<path fill="#FFFFFF" d="M155.818,455.916h2.852c0.008,1.413-0.055,2.78-0.186,4.102c0.977,6.081,3.807,10.078,8.486,11.992
			c-1.027,1.211-1.777,2.155-2.246,2.832c-3.502-1.776-5.977-4.805-7.422-9.082c-1.373,3.821-3.965,6.914-7.773,9.277
			c-0.402-0.716-1.061-1.647-1.973-2.793c2.924-1.667,5.037-3.686,6.344-6.055C155.205,463.819,155.846,460.396,155.818,455.916z"/>
		<path fill="#FFFFFF" d="M167.674,459.49h1.934v-3.478h2.422v3.478h1.445v2.5h-1.445v2.344l1.523-0.488
			c-0.064,1.106-0.09,1.992-0.078,2.656l-1.445,0.479v5.811c0,0.599-0.117,1.067-0.352,1.406c-0.235,0.339-0.563,0.549-0.986,0.63
			c-0.422,0.081-1.266,0.139-2.529,0.171c-0.129-0.755-0.332-1.621-0.605-2.598c0.391,0.052,0.848,0.078,1.367,0.078
			c0.457,0,0.684-0.273,0.684-0.82v-3.867l-1.914,0.645l-0.156-2.813c0.566-0.137,1.258-0.322,2.07-0.557v-3.076h-1.934
			L167.674,459.49L167.674,459.49z M186.189,472.01c0,0.833-0.158,1.478-0.473,1.93c-0.316,0.451-0.83,0.72-1.543,0.801
			s-1.48,0.114-2.301,0.103c-0.148-0.703-0.363-1.592-0.645-2.666v2.472h-2.5v-5.509h-2.373c-0.148,2.617-0.666,4.629-1.553,6.035
			c-0.65-0.534-1.418-1.081-2.305-1.641c0.938-1.523,1.406-3.633,1.406-6.328v-10.488h12.285v15.292H186.189z M176.404,461.736
			h2.324v-2.56h-2.324V461.736z M176.404,466.717h2.324v-2.559h-2.324V466.717z M183.689,459.178h-2.461v2.56h2.461V459.178z
			 M181.229,466.717h2.461v-2.559h-2.461V466.717z M183.689,469.139h-2.461v2.9c0.541,0.071,1.029,0.106,1.465,0.106
			c0.664,0,0.996-0.378,0.996-1.133V469.139z"/>
		<path fill="#FFFFFF" d="M193.826,475.018h-2.813v-8.604c-0.865,0.892-1.789,1.729-2.773,2.51c-0.207-1.055-0.43-2.069-0.664-3.047
			c1.934-1.66,3.506-3.516,4.717-5.566h-4.541v-2.44h5.781c0.293-0.696,0.555-1.413,0.781-2.148l3.086,0.47
			c-0.215,0.572-0.441,1.133-0.684,1.68h10.117v2.44h-11.328c-0.26,0.488-0.537,0.965-0.83,1.427h10.303v10.586
			c0,0.813-0.195,1.439-0.586,1.88c-0.391,0.439-0.934,0.69-1.631,0.757c-0.695,0.065-2.053,0.098-4.072,0.098
			c-0.182-0.886-0.436-1.776-0.762-2.676c1.121,0.065,2.162,0.099,3.125,0.099c0.742,0,1.113-0.364,1.113-1.095v-0.332h-8.34
			L193.826,475.018L193.826,475.018z M202.166,464.021h-8.34v1.427h8.34V464.021z M193.826,468.963h8.34v-1.426h-8.34V468.963z"/>
		<path fill="#FFFFFF" d="M207.869,463.982h18.867v2.891h-18.867V463.982z"/>
		<path fill="#FFFFFF" d="M243.533,463.357c1.289,1.966,2.514,4.011,3.672,6.133l-2.227,1.522c-1.178-2.323-2.311-4.427-3.398-6.309
			v10.332h-2.773v-8.828c-1.08,1.843-2.285,3.509-3.613,5c-0.715-0.716-1.412-1.328-2.09-1.836c2.754-2.977,4.74-6.186,5.957-9.629
			h-3.965v2.188h-2.441v1.172c0.703,0.41,1.563,0.926,2.578,1.543l-1.27,2.207c-0.461-0.339-0.898-0.646-1.309-0.928v9.072h-2.559
			v-7.178c-0.461,1.081-1.016,2.118-1.66,3.114c-0.207-0.858-0.508-2.012-0.898-3.457c1.094-1.744,1.885-3.594,2.373-5.547h-2.197
			v-2.598h2.383v-3.496h2.559v3.496h1.777v-2.188h12.227v2.599h-4.834c-0.396,1.094-0.826,2.142-1.289,3.145h1.045v1.689
			L243.533,463.357z"/>
		<path fill="#FFFFFF" d="M255.057,460.037v2.363c-0.924,4.53-2.994,8.177-6.211,10.938c-0.48-1.12-0.938-2.038-1.367-2.754
			c2.371-2.019,4.037-4.675,5-7.969h-4.336v-2.578H255.057z M266.58,460.271c-1.471,1.473-3.154,2.963-5.049,4.474
			c1.484,2.227,3.305,4.056,5.459,5.488c-0.508,0.716-1.055,1.641-1.641,2.772c-2.676-1.934-4.855-4.739-6.543-8.418v7.012
			c0,0.905-0.197,1.618-0.59,2.14c-0.395,0.521-0.947,0.842-1.66,0.962c-0.713,0.12-1.98,0.181-3.805,0.181
			c-0.195-1.094-0.43-2.108-0.703-3.047c0.938,0.104,1.869,0.156,2.793,0.156c0.834,0,1.25-0.508,1.25-1.523v-14.551h2.715v3.271
			c0.404,1.152,0.867,2.239,1.387,3.263c1.596-1.419,2.982-2.79,4.16-4.111L266.58,460.271z"/>
	</g>
</g>
<polyline fill="none" stroke="#FFFFFF" stroke-width="2" stroke-miterlimit="10" points="64.684,282.923 147.875,839.548 
	252.062,839.548 336,282.923 "/>
<path fill="none" stroke="#FFFFFF" stroke-width="2" stroke-miterlimit="10" d="M142.599,807.362
	c15.538-1.129,37.137,0.195,61.381,10.014c20.343,8.238,37.459,8.631,50.476,6.311"/>
<path fill="none" stroke="#FFFFFF" stroke-width="2" stroke-miterlimit="10" d="M117.584,636.876c0,0,37.908-14.333,86.396,5.302
	c48.488,19.636,78.645-5.302,78.645-5.302l-30.563,202.672H147.875L117.584,636.876z"/>
<path fill="none" stroke="#FFFFFF" stroke-width="2" stroke-miterlimit="10" d="M71.091,326.178c0,0,59.267-22.408,135.072,8.289
	c75.805,30.697,122.954-8.289,122.954-8.289"/>
</svg>
