<?xml version="1.0" encoding="utf-8"?>
<!-- Generator: Adobe Illustrator 16.0.0, SVG Export Plug-In . SVG Version: 6.00 Build 0)  -->
<!DOCTYPE svg PUBLIC "-//W3C//DTD SVG 1.1//EN" "http://www.w3.org/Graphics/SVG/1.1/DTD/svg11.dtd">
<svg version="1.1" id="图层_1" xmlns="http://www.w3.org/2000/svg" xmlns:xlink="http://www.w3.org/1999/xlink" x="0px" y="0px"
	 width="640px" height="960px" viewBox="0 0 640 960" enable-background="new 0 0 640 960" xml:space="preserve">
<g>
	<defs>
		<rect id="SVGID_1_" y="160.315" width="164.25" height="387.233"/>
	</defs>
	<clipPath id="SVGID_2_">
		<use xlink:href="#SVGID_1_"  overflow="visible"/>
	</clipPath>
	<g opacity="0.9" clip-path="url(#SVGID_2_)">
		<g>
			<g opacity="0.9">
				<path fill="none" stroke="#FFFFFF" stroke-width="1.7" stroke-miterlimit="10" d="M155.585,250.577h-0.363v-50.52
					c0-14.672-12.015-26.677-26.699-26.677H4.267c-14.681,0-26.697,12.005-26.697,26.677v19.38h-0.406
					c-0.491,0-0.893,0.397-0.893,0.887v12.957c0,0.49,0.401,0.891,0.893,0.891h0.406v16.685h-0.406
					c-0.491,0-0.893,0.401-0.893,0.891v25.391c0,0.487,0.401,0.891,0.893,0.891h0.406v6.291h-0.406c-0.491,0-0.893,0.4-0.893,0.89
					v25.278c0,0.487,0.401,0.892,0.893,0.892h0.406v201.25c0,14.675,12.017,26.681,26.697,26.681h124.256
					c14.685,0,26.699-12.006,26.699-26.681V277.807h0.363c0.49,0,0.895-0.403,0.895-0.892v-25.446
					C156.479,250.982,156.075,250.577,155.585,250.577z M145.851,495.396c0,0.738-0.605,1.342-1.339,1.342H-11.717
					c-0.741,0-1.344-0.604-1.344-1.342V217.468c0-0.737,0.603-1.338,1.344-1.338h156.229c0.733,0,1.339,0.601,1.339,1.338V495.396z"
					/>
				<path fill="none" stroke="#FFFFFF" stroke-width="1.7" stroke-miterlimit="10" d="M128.522,176.049H4.267
					c-13.214,0-24.029,10.805-24.029,24.009v312.573c0,13.211,10.815,24.012,24.029,24.012h124.256
					c13.215,0,24.031-10.801,24.031-24.012V200.058C152.554,186.854,141.737,176.049,128.522,176.049z M145.851,495.396
					c0,0.738-0.605,1.342-1.339,1.342H-11.717c-0.741,0-1.344-0.604-1.344-1.342V217.468c0-0.737,0.603-1.338,1.344-1.338h156.229
					c0.733,0,1.339,0.601,1.339,1.338V495.396z"/>
				<path fill="none" stroke="#FFFFFF" stroke-width="1.7" stroke-miterlimit="10" d="M80.239,515.088
					c0,7.813-6.332,14.143-14.147,14.143s-14.149-6.33-14.149-14.143c0-7.805,6.334-14.139,14.149-14.139
					S80.239,507.283,80.239,515.088z"/>
				<path fill="none" stroke="#FFFFFF" stroke-width="1.7" stroke-miterlimit="10" d="M78.802,515.088
					c0,7.014-5.691,12.699-12.71,12.699c-7.018,0-12.707-5.686-12.707-12.699c0-7.01,5.689-12.695,12.707-12.695
					C73.11,502.393,78.802,508.078,78.802,515.088z"/>
				<path fill="none" stroke="#FFFFFF" stroke-width="1.7" stroke-miterlimit="10" d="M79.649,197.202H53.648
					c-0.583,0-1.057-0.474-1.057-1.055v-0.212c0-0.584,0.474-1.054,1.057-1.054h26.001c0.58,0,1.054,0.469,1.054,1.054v0.212
					C80.703,196.729,80.229,197.202,79.649,197.202L79.649,197.202z"/>
				<circle fill="none" stroke="#FFFFFF" stroke-width="1.7" stroke-miterlimit="10" cx="37.82" cy="196.067" r="1.644"/>
			</g>
			<g opacity="0.3">
				<g>
					<g>
						<path fill="none" stroke="#FFFFFF" stroke-width="1.7" stroke-miterlimit="10" d="M94.817,340.837"/>
					</g>
				</g>
			</g>
		</g>
		<g opacity="0.5">
			<path fill="none" stroke="#FFFFFF" stroke-width="1.7" stroke-miterlimit="10" d="M84.395,320.211
				c-0.986,2.183-1.457,3.158-2.725,5.087c-1.77,2.693-4.263,6.048-7.354,6.076c-2.746,0.026-3.452-1.787-7.177-1.767
				c-3.729,0.021-4.506,1.799-7.253,1.773c-3.089-0.028-5.454-3.058-7.222-5.751c-4.948-7.532-5.466-16.372-2.415-21.071
				c2.17-3.339,5.591-5.294,8.809-5.294c3.274,0,5.334,1.796,8.042,1.796c2.627,0,4.227-1.799,8.014-1.799
				c2.861,0,5.895,1.559,8.055,4.254C76.089,307.396,77.24,317.508,84.395,320.211z"/>
			<g>
				<path fill="none" stroke="#FFFFFF" stroke-width="1.7" stroke-miterlimit="10" d="M72.241,296.252
					c1.376-1.766,2.42-4.26,2.041-6.809c-2.246,0.155-4.876,1.585-6.41,3.449c-1.395,1.692-2.545,4.203-2.096,6.642
					C68.229,299.609,70.769,298.145,72.241,296.252z"/>
			</g>
		</g>
	</g>
</g>
</svg>
