<?xml version="1.0" encoding="utf-8"?>
<!-- Generator: Adobe Illustrator 16.0.0, SVG Export Plug-In . SVG Version: 6.00 Build 0)  -->
<!DOCTYPE svg PUBLIC "-//W3C//DTD SVG 1.1//EN" "http://www.w3.org/Graphics/SVG/1.1/DTD/svg11.dtd">
<svg version="1.1" id="图层_1" xmlns="http://www.w3.org/2000/svg" xmlns:xlink="http://www.w3.org/1999/xlink" x="0px" y="0px"
	 width="640px" height="960px" viewBox="0 0 640 960" enable-background="new 0 0 640 960" xml:space="preserve">
<g>
	<g>
		<path fill="#FFFFFF" d="M314.708,466.305c1.727-2.406,3.02-5.172,3.879-8.297h-3.598v-1.57h3.633v-4.664h1.711v4.664h3.422v1.57
			h-3.422v4.078l0.938-0.961c1.078,1.047,2.07,2.055,2.977,3.023l-1.266,1.242c-0.859-1.016-1.742-2.004-2.648-2.965v12.199h-1.711
			v-12.199c-0.844,2.32-1.867,4.293-3.07,5.918C315.317,467.672,315.036,466.992,314.708,466.305z M324.622,453.25h12.328v21.422
			h-1.781v-1.594h-8.766v1.594h-1.781V453.25z M335.169,454.844h-8.766v4.5h8.766V454.844z M326.403,465.391h8.766v-4.5h-8.766
			V465.391z M326.403,471.484h8.766v-4.547h-8.766V471.484z"/>
		<path fill="#FFFFFF" d="M339.646,471.742h18.563v-4.031h-17.133v-1.664h17.133v-3.961h-17.883v-1.664h9.07v-8.695h1.945v8.695
			h8.813v14.391h-1.945v-1.406h-18.563V471.742z M341.075,454.047l1.313-1.172c1.688,1.578,3.258,3.227,4.711,4.945l-1.57,1.336
			C344.216,457.438,342.731,455.734,341.075,454.047z M359.825,454.141c-1.672,1.891-3.336,3.594-4.992,5.109l-1.406-1.266
			c1.594-1.438,3.195-3.148,4.805-5.133L359.825,454.141z"/>
		<path fill="#FFFFFF" d="M362.825,461.242h10.898v-6.047H364.7v-1.852h19.406v1.852h-8.414v6.047h10.195v1.852h-10.195v8.039
			c0,1.063-0.195,1.828-0.586,2.297c-0.438,0.547-1.258,0.836-2.461,0.867c-0.703,0-2.023-0.008-3.961-0.023
			c-0.078-0.719-0.203-1.43-0.375-2.133c1.766,0.125,2.992,0.188,3.68,0.188c0.703,0,1.172-0.133,1.406-0.398
			c0.219-0.219,0.328-0.711,0.328-1.477v-7.359h-10.898V461.242z"/>
		<path fill="#FFFFFF" d="M398.638,471.59h-11.039v-1.992l5.273-5.262c1.453-1.453,2.426-2.604,2.918-3.451s0.738-1.725,0.738-2.631
			c0-1.031-0.289-1.822-0.867-2.373s-1.414-0.826-2.508-0.826c-1.617,0-3.16,0.688-4.629,2.063v-2.332
			c1.43-1.102,3.094-1.652,4.992-1.652c1.633,0,2.922,0.441,3.867,1.324s1.418,2.07,1.418,3.563c0,1.125-0.303,2.229-0.908,3.311
			s-1.752,2.459-3.439,4.131l-4.137,4.043v0.047h8.32V471.59z"/>
		<path fill="#FFFFFF" d="M405.563,462.039c-2.164-1.008-3.246-2.469-3.246-4.383c0-1.336,0.508-2.424,1.523-3.264
			s2.313-1.26,3.891-1.26c1.445,0,2.637,0.395,3.574,1.184s1.406,1.809,1.406,3.059c0,2.016-1.129,3.566-3.387,4.652v0.047
			c2.648,0.953,3.973,2.578,3.973,4.875c0,1.508-0.545,2.709-1.635,3.604s-2.611,1.342-4.564,1.342
			c-1.602,0-2.906-0.441-3.914-1.324s-1.512-2.027-1.512-3.434c0-2.313,1.297-3.996,3.891-5.051V462.039z M407.345,463.129
			c-2.242,0.906-3.363,2.203-3.363,3.891c0,0.875,0.328,1.594,0.984,2.156s1.512,0.844,2.566,0.844c1.023,0,1.855-0.279,2.496-0.838
			s0.961-1.256,0.961-2.092C410.989,465.332,409.774,464.012,407.345,463.129z M410.392,457.645c0-0.813-0.254-1.453-0.762-1.922
			s-1.195-0.703-2.063-0.703c-0.813,0-1.504,0.244-2.074,0.732s-0.855,1.111-0.855,1.869c0,1.516,0.949,2.668,2.848,3.457
			C409.423,460.273,410.392,459.129,410.392,457.645z"/>
		<path fill="#FFFFFF" d="M415.208,453.578h22.594v1.805h-13.418c-0.063,1.742-0.145,3.375-0.246,4.898h10.875
			c-0.156,3.188-0.336,6.211-0.539,9.07c-0.141,1.734-0.539,2.984-1.195,3.75c-0.625,0.703-1.758,1.063-3.398,1.078
			c-0.859,0.031-2.313-0.031-4.359-0.188c-0.078-0.594-0.195-1.313-0.352-2.156c1.984,0.266,3.5,0.398,4.547,0.398
			c1.672,0.125,2.594-0.93,2.766-3.164c0.188-2.188,0.328-4.523,0.422-7.008h-8.906c-0.586,5.719-3.148,9.969-7.688,12.75
			c-0.359-0.484-0.82-1.039-1.383-1.664c4.391-2.672,6.742-6.656,7.055-11.953c0.148-1.711,0.246-3.648,0.293-5.813h-7.066V453.578z
			"/>
		<path fill="#FFFFFF" d="M452.005,452.172l-0.352,0.539c2.531,4.172,6.047,7.156,10.547,8.953
			c-0.484,0.766-0.898,1.469-1.242,2.109c-4.594-2.406-8.07-5.508-10.43-9.305c-2.313,3.609-5.82,6.82-10.523,9.633
			c-0.344-0.563-0.742-1.18-1.195-1.852c4.875-2.703,8.5-6.063,10.875-10.078H452.005z M449.427,460.234h2.133v14.508h-2.133
			V460.234z"/>
		<path fill="#FFFFFF" d="M462.622,473.031c2.625-2.219,4.133-5.5,4.523-9.844l1.992,0.305c-0.188,1.5-0.484,2.898-0.891,4.195
			c1.273,2.445,3.172,3.871,5.695,4.277v-10.957h-6.188v1.008h-1.898v-9.398h17.414v9.398h-1.898v-1.008h-5.484v4.43h8.789v1.711
			h-8.789v4.957c2.984,0.078,6.43,0.043,10.336-0.105c-0.25,0.625-0.477,1.273-0.68,1.945c-4.016,0.031-7.398,0.016-10.148-0.047
			c-3.633-0.047-6.266-1.445-7.898-4.195c-0.891,2.023-2.102,3.742-3.633,5.156C463.505,474.25,463.091,473.641,462.622,473.031z
			 M481.372,454.328h-13.617v4.969h13.617V454.328z"/>
		<path fill="#FFFFFF" d="M486.856,470.242c1.055-0.109,2.164-0.238,3.328-0.387v-7.09h-2.883v-1.688h2.883v-5.508h-3.188v-1.688
			h8.016v1.688h-3.117v5.508h2.719v1.688h-2.719v6.867c0.938-0.133,1.906-0.273,2.906-0.422c-0.063,0.625-0.102,1.227-0.117,1.805
			c-2.922,0.375-5.453,0.727-7.594,1.055L486.856,470.242z M494.919,468.719c2.039-1.242,4.172-2.625,6.398-4.148v-6.82h-6v-1.688h6
			v-4.172h1.781v4.172h6.656v1.688h-6.656v2.086c0.391,1.281,0.848,2.469,1.371,3.563c1.352-1.313,2.48-2.523,3.387-3.633
			l1.523,1.289c-1.289,1.273-2.66,2.563-4.113,3.867c1.359,2.352,3.051,4.172,5.074,5.461c-0.094,0.141-0.297,0.383-0.609,0.727
			c-0.344,0.359-0.586,0.641-0.727,0.844c-2.563-1.852-4.531-4.516-5.906-7.992v7.57c0,1.859-0.969,2.789-2.906,2.789
			c-0.766,0-1.586-0.008-2.461-0.023c-0.094-0.594-0.219-1.234-0.375-1.922c0.922,0.109,1.758,0.164,2.508,0.164
			c0.969,0,1.453-0.477,1.453-1.43v-4.465c-1.617,1.125-3.359,2.379-5.227,3.762L494.919,468.719z M495.435,460.258l1.43-0.867
			c1.016,1.328,2.023,2.797,3.023,4.406l-1.5,1.031C497.31,463,496.325,461.477,495.435,460.258z M504.364,453.273l1.031-1.172
			c1.109,0.734,2.125,1.492,3.047,2.273l-1.125,1.289C506.396,454.805,505.411,454.008,504.364,453.273z"/>
		<path fill="#FFFFFF" d="M510.856,468.953c1.133-0.461,2.273-0.941,3.422-1.441v-8.098h-3.141v-1.688h3.141v-5.859h1.734v5.859
			h2.859v1.688h-2.859v7.324c0.875-0.398,1.758-0.809,2.648-1.23c0.031,0.656,0.102,1.242,0.211,1.758
			c-2.281,1.031-4.711,2.195-7.289,3.492L510.856,468.953z M528.505,454.75h-9.141v-1.688h12.469v1.711l-9.234,5.836h10.641
			c-0.188,4.328-0.367,7.672-0.539,10.031c-0.203,2.391-1.305,3.586-3.305,3.586c-0.688,0-1.742-0.023-3.164-0.07
			c-0.109-0.781-0.242-1.461-0.398-2.039c1.078,0.172,2.172,0.258,3.281,0.258s1.719-0.664,1.828-1.992
			c0.156-1.953,0.313-4.648,0.469-8.086h-2.508c-0.695,5.258-3.125,9.422-7.289,12.492c-0.438-0.547-0.875-1.023-1.313-1.43
			c3.875-2.68,6.16-6.367,6.855-11.063h-3c-0.898,3.914-3.121,7.141-6.668,9.68c-0.375-0.453-0.781-0.906-1.219-1.359
			c3.234-2.211,5.281-4.984,6.141-8.32h-2.789v-1.781L528.505,454.75z"/>
	</g>
</g>
<g>
	<g>
		<path fill="#F7CC48" d="M329.469,385.337l14.25,14.251l14.313-14.251l3.633,3.633l-14.25,14.313l14.25,14.221l-3.633,3.694
			l-14.313-14.313l-14.25,14.313l-3.602-3.694l14.219-14.221l-14.219-14.313L329.469,385.337z"/>
		<path fill="#F7CC48" d="M401.716,416.323v5.898h-30.458l16.983-20.336c2.111-2.546,3.653-4.781,4.626-6.707
			c0.973-1.924,1.459-3.674,1.459-5.246c0-2.256-0.667-4.031-2.002-5.325c-1.335-1.293-3.162-1.94-5.48-1.94
			c-2.069,0-3.777,0.647-5.123,1.94c-1.346,1.294-2.101,2.996-2.266,5.107h-7.109c0-4.077,1.365-7.332,4.098-9.765
			c2.732-2.432,6.406-3.648,11.021-3.648c4.389,0,7.85,1.129,10.386,3.385c2.535,2.256,3.804,5.33,3.804,9.221
			c0,2.774-0.73,5.574-2.189,8.398c-1.459,2.826-4.549,6.93-9.268,12.311l-5.775,6.707H401.716z"/>
		<path fill="#F7CC48" d="M419.973,398.19c-2.257-0.973-3.912-2.245-4.969-3.818c-1.055-1.572-1.583-3.539-1.583-5.898
			c0-3.644,1.283-6.582,3.851-8.818c2.565-2.235,5.961-3.354,10.184-3.354c4.325,0,7.762,1.134,10.307,3.4
			c2.547,2.267,3.819,5.293,3.819,9.082c0,2.234-0.554,4.154-1.661,5.759s-2.737,2.82-4.891,3.647
			c2.525,0.828,4.502,2.293,5.931,4.394s2.143,4.579,2.143,7.437c0,4.181-1.382,7.461-4.146,9.842
			c-2.763,2.38-6.598,3.57-11.502,3.57c-4.824,0-8.621-1.19-11.395-3.57c-2.774-2.381-4.161-5.619-4.161-9.719
			c0-2.98,0.704-5.51,2.111-7.59C415.418,400.473,417.405,399.019,419.973,398.19z M427.455,417.378c2.67,0,4.76-0.698,6.271-2.096
			c1.51-1.396,2.266-3.326,2.266-5.79c0-2.483-0.756-4.429-2.266-5.837c-1.512-1.407-3.602-2.111-6.271-2.111
			c-2.609,0-4.668,0.715-6.18,2.143c-1.511,1.428-2.266,3.363-2.266,5.806c0,2.464,0.744,4.394,2.234,5.79
			C422.735,416.68,424.805,417.378,427.455,417.378z M427.609,382.294c-2.152,0-3.85,0.564-5.092,1.693
			c-1.242,1.128-1.863,2.664-1.863,4.609c0,1.905,0.605,3.396,1.816,4.471c1.211,1.077,2.873,1.615,4.984,1.615
			c2.173,0,3.865-0.533,5.076-1.6c1.211-1.065,1.816-2.561,1.816-4.486c0-1.966-0.602-3.508-1.801-4.625
			C431.346,382.854,429.7,382.294,427.609,382.294z"/>
		<path fill="#F7CC48" d="M482.285,400.333c0,7.225-1.455,12.88-4.363,16.968s-6.908,6.132-12,6.132
			c-5.153,0-9.164-2.064-12.031-6.193c-2.866-4.13-4.299-9.931-4.299-17.402c0-7.41,1.448-13.186,4.346-17.325
			c2.898-4.14,6.924-6.21,12.078-6.21c5.216,0,9.23,2.076,12.047,6.226C480.877,386.678,482.285,392.612,482.285,400.333z
			 M465.798,417.067c3.022,0,5.294-1.443,6.815-4.33c1.521-2.889,2.281-7.209,2.281-12.963c0-5.589-0.75-9.848-2.25-12.776
			c-1.502-2.929-3.69-4.394-6.566-4.394c-3.002,0-5.269,1.46-6.801,4.379c-1.531,2.918-2.297,7.223-2.297,12.915
			c0,5.526,0.761,9.771,2.282,12.729C460.783,415.589,462.962,417.067,465.798,417.067z"/>
		<path fill="#F7CC48" d="M520.691,400.333c0,7.225-1.455,12.88-4.363,16.968s-6.908,6.132-12,6.132
			c-5.154,0-9.164-2.064-12.031-6.193c-2.867-4.13-4.299-9.931-4.299-17.402c0-7.41,1.447-13.186,4.346-17.325
			s6.924-6.21,12.078-6.21c5.215,0,9.23,2.076,12.047,6.226C519.283,386.678,520.691,392.612,520.691,400.333z M504.205,417.067
			c3.021,0,5.293-1.443,6.814-4.33c1.521-2.889,2.281-7.209,2.281-12.963c0-5.589-0.75-9.848-2.25-12.776
			c-1.502-2.929-3.689-4.394-6.566-4.394c-3.002,0-5.268,1.46-6.801,4.379c-1.531,2.918-2.297,7.223-2.297,12.915
			c0,5.526,0.76,9.771,2.281,12.729C499.189,415.589,501.369,417.067,504.205,417.067z"/>
		<path fill="#F7CC48" d="M559.098,400.333c0,7.225-1.455,12.88-4.363,16.968s-6.908,6.132-12,6.132
			c-5.154,0-9.164-2.064-12.031-6.193c-2.867-4.13-4.299-9.931-4.299-17.402c0-7.41,1.447-13.186,4.346-17.325
			s6.924-6.21,12.078-6.21c5.215,0,9.23,2.076,12.047,6.226C557.689,386.678,559.098,392.612,559.098,400.333z M542.611,417.067
			c3.021,0,5.293-1.443,6.814-4.33c1.521-2.889,2.281-7.209,2.281-12.963c0-5.589-0.75-9.848-2.25-12.776
			c-1.502-2.929-3.689-4.394-6.566-4.394c-3.002,0-5.268,1.46-6.801,4.379c-1.531,2.918-2.297,7.223-2.297,12.915
			c0,5.526,0.76,9.771,2.281,12.729C537.596,415.589,539.775,417.067,542.611,417.067z"/>
		<path fill="#F7CC48" d="M597.504,400.333c0,7.225-1.455,12.88-4.363,16.968s-6.908,6.132-12,6.132
			c-5.154,0-9.164-2.064-12.031-6.193c-2.867-4.13-4.299-9.931-4.299-17.402c0-7.41,1.447-13.186,4.346-17.325
			s6.924-6.21,12.078-6.21c5.215,0,9.23,2.076,12.047,6.226C596.096,386.678,597.504,392.612,597.504,400.333z M581.018,417.067
			c3.021,0,5.293-1.443,6.814-4.33c1.521-2.889,2.281-7.209,2.281-12.963c0-5.589-0.75-9.848-2.25-12.776
			c-1.502-2.929-3.689-4.394-6.566-4.394c-3.002,0-5.268,1.46-6.801,4.379c-1.531,2.918-2.297,7.223-2.297,12.915
			c0,5.526,0.76,9.771,2.281,12.729C576.002,415.589,578.182,417.067,581.018,417.067z"/>
	</g>
</g>
<line fill="none" stroke="#FFFFFF" stroke-miterlimit="10" x1="314.358" y1="437.332" x2="609.777" y2="437.332"/>
</svg>
