<?xml version="1.0" encoding="utf-8"?>
<!-- Generator: Adobe Illustrator 16.0.0, SVG Export Plug-In . SVG Version: 6.00 Build 0)  -->
<!DOCTYPE svg PUBLIC "-//W3C//DTD SVG 1.1//EN" "http://www.w3.org/Graphics/SVG/1.1/DTD/svg11.dtd">
<svg version="1.1" id="图层_1" xmlns="http://www.w3.org/2000/svg" xmlns:xlink="http://www.w3.org/1999/xlink" x="0px" y="0px"
	 width="640px" height="960px" viewBox="0 0 640 960" enable-background="new 0 0 640 960" xml:space="preserve">
<g>
	<g>
		<path fill="#FFFFFF" d="M311.103,533.536c2.313-1.969,4.125-4.266,5.438-6.891h2.109c-0.367,0.727-0.754,1.422-1.16,2.086h16.324
			v1.688h-17.426c-1.219,1.734-2.59,3.258-4.113,4.57C311.946,534.536,311.556,534.052,311.103,533.536z M311.196,538.481h3.445
			l1.055-5.859h15.492c-0.086,2.094-0.168,4.047-0.246,5.859h3.41v1.688h-3.48c-0.07,1.531-0.137,2.953-0.199,4.266h2.836v1.641
			h-2.965c-0.156,1.141-0.473,1.969-0.949,2.484c-0.609,0.672-1.672,1.008-3.188,1.008c-0.875,0-1.992-0.031-3.352-0.094
			c-0.078-0.531-0.195-1.164-0.352-1.898c1.609,0.141,2.766,0.211,3.469,0.211c0.984,0,1.633-0.188,1.945-0.563
			c0.211-0.219,0.371-0.602,0.48-1.148h-15.012v-1.758l0.75-4.148h-3.141V538.481z M328.974,540.169h-12.727l-0.738,4.266h13.266
			C328.853,543.044,328.919,541.622,328.974,540.169z M329.196,534.263H317.29l-0.738,4.219h12.504
			C329.103,537.106,329.149,535.7,329.196,534.263z M320.36,541.528l1.102-1.219c1.188,0.922,2.234,1.773,3.141,2.555l-1.242,1.383
			C322.157,543.122,321.157,542.216,320.36,541.528z M320.548,535.575l1.102-1.219c1.188,0.922,2.234,1.773,3.141,2.555
			l-1.266,1.406C322.556,537.364,321.563,536.45,320.548,535.575z"/>
		<path fill="#FFFFFF" d="M335.173,541.95h3.773v-6.703h8.297v-4.172h-6.891c-1.055,1.898-2.234,3.648-3.539,5.25
			c-0.406-0.438-0.891-0.875-1.453-1.313c2.219-2.5,3.883-5.305,4.992-8.414l1.922,0.539c-0.328,0.773-0.672,1.523-1.031,2.25
			h16.125v1.688h-8.227v4.172h7.828v1.641h-7.828v5.063h9.281v1.688h-9.281v6.328h-1.898v-6.328h-12.07V541.95z M340.798,541.95
			h6.445v-5.063h-6.445V541.95z"/>
		<path fill="#FFFFFF" d="M367.962,528.849c1.422,1.844,2.656,3.617,3.703,5.32c-0.594,0.406-1.133,0.766-1.617,1.078
			c-0.305-0.539-0.629-1.09-0.973-1.652c-3.82,0.281-6.879,0.535-9.176,0.762l-0.75-1.969c0.688-0.375,1.445-1.078,2.273-2.109
			c0.859-1.125,1.703-2.383,2.531-3.773l1.852,0.68c-1.297,1.875-2.664,3.648-4.102,5.32c2.344-0.148,4.473-0.301,6.387-0.457
			c-0.492-0.742-1.02-1.504-1.582-2.285L367.962,528.849z M362.29,549.591h-1.828v-13.828h9.516v11.086
			c0,1.688-0.781,2.531-2.344,2.531c-0.688,0.016-1.57,0.023-2.648,0.023c-0.078-0.484-0.195-1.078-0.352-1.781
			c0.984,0.078,1.773,0.117,2.367,0.117c0.766,0,1.148-0.398,1.148-1.195v-1.945h-5.859V549.591z M368.149,537.263h-5.859v2.25
			h5.859V537.263z M362.29,543.192h5.859v-2.273h-5.859V543.192z M372.251,538.294h1.828v3.867c2.219-0.828,4.539-1.914,6.961-3.258
			l1.055,1.617c-2.555,1.344-5.227,2.535-8.016,3.574v2.027c0,0.984,0.383,1.477,1.148,1.477h3.445c0.797,0,1.258-0.383,1.383-1.148
			c0.109-0.688,0.203-1.711,0.281-3.07c0.594,0.234,1.203,0.453,1.828,0.656c-0.125,1.375-0.258,2.414-0.398,3.117
			c-0.203,1.375-1.18,2.063-2.93,2.063h-3.914c-1.781,0-2.672-0.914-2.672-2.742V538.294z M372.298,526.856h1.828v4.02
			c2.148-0.852,4.281-1.879,6.398-3.082l1.055,1.617c-2.438,1.234-4.922,2.363-7.453,3.387v1.348c0,1.047,0.414,1.57,1.242,1.57
			h2.977c0.984,0,1.539-0.406,1.664-1.219c0.109-0.672,0.203-1.648,0.281-2.93c0.594,0.234,1.203,0.461,1.828,0.68
			c-0.125,1.25-0.258,2.266-0.398,3.047c-0.234,1.359-1.289,2.039-3.164,2.039h-3.422c-1.891,0-2.836-0.938-2.836-2.813V526.856z"/>
		<path fill="#FFFFFF" d="M385.938,540.849c0.063,0,1.68-0.125,4.852-0.375c-0.078,0.484-0.148,0.992-0.211,1.523
			c-2.609,0.234-4.836,0.453-6.68,0.656l-0.375-1.5c0.938-0.891,2.117-2.531,3.539-4.922c-0.984,0.063-2.164,0.148-3.539,0.258
			l-0.492-1.477c1.344-1.531,2.813-4.219,4.406-8.063l1.852,0.656c-1.531,2.953-2.938,5.375-4.219,7.266
			c0.938-0.016,1.867-0.031,2.789-0.047c0.563-0.969,1.148-2.039,1.758-3.211l1.758,0.75
			C389.188,535.989,387.376,538.817,385.938,540.849z M383.126,546.286c2.906-0.547,5.516-1.086,7.828-1.617
			c-0.016,0.578-0.008,1.133,0.023,1.664c-3.188,0.672-5.602,1.234-7.242,1.688L383.126,546.286z M399.509,526.95l-0.492,0.797
			c1.828,2.984,4.336,5.453,7.523,7.406c-0.453,0.469-0.906,0.977-1.359,1.523c-3.063-2.172-5.445-4.617-7.148-7.336
			c-1.703,2.875-3.914,5.422-6.633,7.641c-0.297-0.344-0.75-0.781-1.359-1.313c3.156-2.406,5.617-5.313,7.383-8.719H399.509z
			 M392.243,540.028h11.859v9.914h-1.781v-1.57h-8.297v1.594h-1.781V540.028z M393.04,535.646h10.266v1.617H393.04V535.646z
			 M402.321,541.646h-8.297v5.109h8.297V541.646z"/>
		<path fill="#FFFFFF" d="M407.032,545.583c2.039-0.703,4.453-1.625,7.242-2.766v-7.383h-6.75V533.7h6.75v-6.586h1.898v22.523
			h-1.898v-4.863c-1.5,0.609-3.664,1.496-6.492,2.66L407.032,545.583z M420.837,527.067h1.898v7.934
			c2.133-1.094,4.125-2.293,5.977-3.598l1.172,1.688c-1.688,1.063-4.07,2.363-7.148,3.902v8.613c0,1.063,0.586,1.594,1.758,1.594
			h1.641c1.125,0,1.758-0.531,1.898-1.594c0.141-0.984,0.266-2.266,0.375-3.844c0.688,0.281,1.352,0.531,1.992,0.75
			c-0.156,1.484-0.328,2.75-0.516,3.797c-0.297,1.781-1.398,2.672-3.305,2.672h-2.531c-2.141,0-3.211-1.055-3.211-3.164V527.067z"/>
		<path fill="#FFFFFF" d="M437.313,542.724l1.289,1.406c-2.094,1.578-4.195,3.023-6.305,4.336c-0.297-0.531-0.656-1.055-1.078-1.57
			C433.36,545.661,435.392,544.271,437.313,542.724z M431.29,530.044h10.828c-0.445-0.828-0.953-1.68-1.523-2.555l1.711-0.844
			c0.625,0.938,1.234,1.906,1.828,2.906l-0.938,0.492h11.016v1.641H431.29V530.044z M434.337,533.771h16.758v7.922h-1.828v-0.938
			h-5.391v5.953c0,1.852-0.883,2.789-2.648,2.813c-1.125,0-2.148,0-3.07,0c-0.109-0.672-0.227-1.305-0.352-1.898
			c1.047,0.094,1.953,0.141,2.719,0.141c0.984,0.031,1.477-0.477,1.477-1.523v-5.484h-5.836v1.055h-1.828V533.771z M449.267,535.388
			h-13.102v3.75h13.102V535.388z M446.407,544.294l1.102-1.406c2.141,1.266,4.195,2.547,6.164,3.844l-1.242,1.617
			C450.774,547.114,448.767,545.763,446.407,544.294z"/>
		<path fill="#FFFFFF" d="M457.071,538.435h2.109v-4.266h1.547v4.266h2.25v1.547h-2.25v3.211c0.828-0.109,1.672-0.234,2.531-0.375
			c-0.078,0.594-0.133,1.133-0.164,1.617c-0.797,0.109-1.586,0.219-2.367,0.328v5.227h-1.547v-4.992
			c-1.266,0.188-2.539,0.383-3.82,0.586l-0.258-1.711c1.344-0.141,2.703-0.297,4.078-0.469v-3.422h-3.75v-1.617
			c0.594-1.672,1.211-3.797,1.852-6.375h-2.063v-1.5h2.438c0.266-1.125,0.539-2.328,0.82-3.609l1.688,0.375
			c-0.297,1.141-0.578,2.219-0.844,3.234h4.242v1.5h-4.641C458.235,534.521,457.618,536.669,457.071,538.435z M472.048,527.044
			l-0.398,0.516c1.828,2.75,4.117,4.719,6.867,5.906c-0.531,0.625-0.938,1.164-1.219,1.617c-1.063-0.594-2.047-1.266-2.953-2.016
			v1.172h-8.133v-1.031c-0.922,0.766-1.883,1.469-2.883,2.109c-0.469-0.609-0.883-1.086-1.242-1.43
			c3.109-1.813,5.617-4.094,7.523-6.844H472.048z M465.274,549.942h-1.5v-13.805h6.234v11.531c0,1.375-0.633,2.063-1.898,2.063
			c-0.484,0-1.094-0.008-1.828-0.023c-0.078-0.344-0.188-0.828-0.328-1.453c0.625,0.047,1.195,0.07,1.711,0.07
			c0.563,0,0.844-0.313,0.844-0.938v-2.719h-3.234V549.942z M468.509,537.567h-3.234v2.227h3.234V537.567z M465.274,543.356h3.234
			v-2.25h-3.234V543.356z M470.501,528.778c-1.172,1.469-2.438,2.797-3.797,3.984h7.266
			C472.642,531.606,471.485,530.278,470.501,528.778z M475.54,535.716h1.594v11.414c0,1.734-0.734,2.609-2.203,2.625
			c-0.797,0.016-1.711,0-2.742-0.047c-0.078-0.578-0.188-1.164-0.328-1.758c0.984,0.125,1.828,0.188,2.531,0.188
			c0.766,0,1.148-0.406,1.148-1.219V535.716z M471.954,536.841h1.5v8.531h-1.5V536.841z"/>
		<path fill="#FFFFFF" d="M479.688,534.38v-1.781h8.086v1.711c-1.328,5.125-3.75,9.516-7.266,13.172
			c-0.531-0.609-1.008-1.086-1.43-1.43c3.531-3.719,5.805-7.609,6.82-11.672H479.688z M489.696,526.88h1.898v3.762
			c0.672,1.828,1.441,3.527,2.309,5.098c1.727-1.438,3.449-3.156,5.168-5.156l1.57,1.406c-1.828,1.914-3.758,3.699-5.789,5.355
			c2.063,3.266,4.586,5.918,7.57,7.957c-0.656,0.656-1.188,1.242-1.594,1.758c-4.109-3.234-7.188-7.238-9.234-12.012v10.957
			c0,2.328-1.117,3.492-3.352,3.492c-0.688,0-1.703-0.008-3.047-0.023c-0.078-0.578-0.203-1.281-0.375-2.109
			c1.25,0.125,2.266,0.188,3.047,0.188c1.219,0,1.828-0.586,1.828-1.758V526.88z"/>
	</g>
</g>
<g>
	<g>
		<path fill="#F7CC48" d="M329.753,657.131v-77.014h-18.49l5.614-11.473h26.118v88.486H329.753z"/>
		<path fill="#F7CC48" d="M442.101,614.108c0,14.198-2.858,25.315-8.574,33.35c-5.716,8.036-13.578,12.053-23.586,12.053
			c-10.131,0-18.013-4.058-23.647-12.175c-5.636-8.116-8.452-19.518-8.452-34.204c0-14.564,2.848-25.915,8.544-34.053
			c5.695-8.136,13.608-12.205,23.738-12.205c10.253,0,18.145,4.079,23.678,12.236S442.101,598.934,442.101,614.108z
			 M409.696,647.001c5.939,0,10.404-2.838,13.395-8.514c2.99-5.675,4.485-14.167,4.485-25.478c0-10.984-1.475-19.354-4.424-25.112
			c-2.95-5.756-7.253-8.635-12.907-8.635c-5.899,0-10.354,2.868-13.364,8.604c-3.012,5.736-4.516,14.199-4.516,25.387
			c0,10.862,1.495,19.203,4.485,25.021C399.841,644.093,404.122,647.001,409.696,647.001z"/>
		<path fill="#F7CC48" d="M458.577,650.357c0-2.237,0.772-4.15,2.319-5.736c1.546-1.587,3.438-2.381,5.675-2.381
			s4.129,0.794,5.676,2.381c1.546,1.586,2.319,3.499,2.319,5.736c0,2.196-0.773,4.058-2.319,5.583
			c-1.547,1.526-3.438,2.289-5.676,2.289s-4.129-0.763-5.675-2.289C459.35,654.415,458.577,652.554,458.577,650.357z"/>
		<path fill="#F7CC48" d="M499.831,635.772c2.074,3.824,4.738,6.753,7.994,8.787c3.254,2.035,6.875,3.052,10.862,3.052
			c5.898,0,10.68-1.882,14.341-5.646c3.662-3.763,5.492-8.716,5.492-14.859c0-5.898-1.922-10.699-5.767-14.402
			c-3.845-3.701-8.879-5.553-15.104-5.553c-3.744,0-7.212,0.641-10.405,1.922c-3.194,1.281-6.011,3.184-8.452,5.706l-3.601-0.793
			l11.107-45.342h42.229v11.777h-33.503l-5.248,19.711c2.44-1.017,4.8-1.77,7.078-2.258s4.557-0.732,6.835-0.732
			c8.503,0,15.419,2.727,20.749,8.178c5.329,5.452,7.994,12.551,7.994,21.298c0,10.008-3.112,17.993-9.337,23.952
			c-6.225,5.961-14.565,8.94-25.021,8.94c-6.185,0-11.555-1.067-16.11-3.204c-4.557-2.136-8.482-5.44-11.778-9.916L499.831,635.772z
			"/>
	</g>
</g>
<g>
	<g>
		<path fill="#F7CC48" d="M307.979,713.197c4.484-6.203,8.031-13.805,10.642-22.803l3.778,1.105
			c-1.26,3.762-2.626,7.294-4.101,10.596v33.261h-3.593v-26.074c-1.612,2.887-3.333,5.543-5.16,7.97
			C309.116,715.9,308.594,714.549,307.979,713.197z M350.04,717.298c0.768,0.368,2.057,0.829,3.869,1.382
			c-0.276,3.409-0.63,6.373-1.06,8.891c-0.676,3.9-3.394,5.866-8.154,5.896c-4.883,0.185-9.521,0.185-13.912,0
			c-4.085-0.215-6.557-1.52-7.417-3.915c-0.799-2.457,0.169-5.59,2.902-9.398c2.672-3.654,8.938-11.179,18.796-22.572h-20.408v-3.64
			h25.199v4.284c-7.433,8.107-13.897,15.633-19.395,22.573c-2.58,3.471-3.717,5.835-3.409,7.095c0.123,1.289,1.827,1.98,5.113,2.072
			c3.747,0.153,7.479,0.139,11.194-0.046c2.181-0.092,3.624-0.399,4.331-0.921c0.798-0.522,1.32-1.598,1.566-3.225
			C349.563,724.085,349.824,721.26,350.04,717.298z"/>
		<path fill="#F7CC48" d="M355.844,729.229h23.932c3.563-6.926,6.902-15.172,10.021-24.738l4.191,1.52
			c-3.163,8.631-6.403,16.37-9.72,23.219h16.123v3.547h-44.547V729.229z M356.995,699.009h42.29v3.547h-42.29V699.009z
			 M362.478,706.472l3.64-1.475c2.825,6.48,5.513,13.053,8.062,19.718l-4.1,1.704C367.591,719.141,365.058,712.491,362.478,706.472z
			 M373.119,691.592l3.363-1.889c1.474,2.058,3.009,4.392,4.606,7.002l-3.64,2.119C376.221,696.521,374.777,694.11,373.119,691.592z
			"/>
		<path fill="#F7CC48" d="M403.108,698.226h22.112c-1.551-2.948-2.764-5.098-3.639-6.449l3.593-1.705
			c0.86,1.321,2.15,3.471,3.87,6.45l-3.363,1.704h21.836v3.501h-27.939c-0.107,2.795-0.223,5.175-0.346,7.141h22.251
			c-0.369,6.665-0.769,12.454-1.198,17.367c-0.338,5.559-3.04,8.339-8.107,8.339c-2.335,0-5.452-0.123-9.353-0.369
			c-0.153-1.167-0.384-2.579-0.69-4.238c3.9,0.522,7.063,0.783,9.49,0.783c2.825,0,4.406-1.673,4.744-5.021
			c0.369-3.654,0.691-8.123,0.968-13.405h-18.357c-0.86,10.135-5.552,17.997-14.074,23.587c-0.829-0.983-1.766-2.027-2.81-3.133
			c8.107-5.344,12.453-12.5,13.037-21.468c0.215-2.426,0.392-5.62,0.529-9.582h-12.554V698.226z"/>
		<path fill="#F7CC48" d="M495.474,728.216c-1.044,1.229-1.873,2.334-2.487,3.316c-8.047-4.33-14.22-10.526-18.52-18.588v22.596
			h-3.686v-22.596c-3.746,7.97-10.042,14.519-18.888,19.647c-0.614-0.891-1.428-1.935-2.441-3.133
			c8.6-4.897,14.673-10.642,18.22-17.229h-17.574v-3.502h20.684v-17.874h3.686v17.874h20.362v3.502h-17.206
			C481.769,719.171,487.719,724.5,495.474,728.216z M453.967,695.6l2.626-2.165c3.317,3.747,6.388,7.264,9.214,10.55l-3.087,2.579
			C459.956,702.848,457.038,699.193,453.967,695.6z M479.396,704.168c3.225-3.47,6.065-7.017,8.522-10.642l3.316,2.396
			c-3.869,4.822-6.895,8.385-9.075,10.688L479.396,704.168z"/>
	</g>
</g>
</svg>
