<?xml version="1.0" encoding="utf-8"?>
<!-- Generator: Adobe Illustrator 16.0.0, SVG Export Plug-In . SVG Version: 6.00 Build 0)  -->
<!DOCTYPE svg PUBLIC "-//W3C//DTD SVG 1.1//EN" "http://www.w3.org/Graphics/SVG/1.1/DTD/svg11.dtd">
<svg version="1.1" id="图层_1" xmlns="http://www.w3.org/2000/svg" xmlns:xlink="http://www.w3.org/1999/xlink" x="0px" y="0px"
	 width="640px" height="130px" viewBox="0 0 640 130" enable-background="new 0 0 640 130" xml:space="preserve">
<rect fill="#F7CC48" width="640" height="130"/>
<g>
	<path fill="#1B3467" d="M54.7,61.636v-2.813h10.469v-9.688h4.375v29.844c0.103,3.125-1.616,4.688-5.156,4.688H54.7v-2.656h7.813
		c1.875,0,2.759-0.832,2.656-2.5V61.636H54.7z M80.95,83.667c-3.438,0-5.21-1.563-5.313-4.688V49.136h4.531v9.688h10.469v2.813
		H80.169v16.875c-0.105,1.668,0.781,2.5,2.656,2.5h7.813v2.656L80.95,83.667L80.95,83.667z"/>
	<path fill="#1B3467" d="M94.856,54.761v-2.813h15.469v-2.969h4.688v2.969h15.625v2.813H94.856z M95.013,82.886v-2.188
		c4.063-1.664,6.509-4.113,7.344-7.344h4.219C105.325,78.253,101.47,81.427,95.013,82.886z M99.075,70.698V58.354h27.344v7.5
		c0.103,3.336-1.616,4.949-5.156,4.844h-6.094v9.375c0.103,3.021-1.563,4.479-5,4.375h-3.75v-2.656h2.031
		c1.563,0.104,2.29-0.625,2.188-2.188v-8.906H99.075z M103.138,68.042h16.875c1.665,0.105,2.446-0.676,2.344-2.344V61.01h-19.219
		V68.042z M130.169,82.886c-6.46-1.563-10.313-4.738-11.563-9.531h4.375c0.832,3.23,3.228,5.68,7.188,7.344V82.886z"/>
	<path fill="#1B3467" d="M135.481,55.698v-2.969h11.406c0.415-1.25,0.938-2.551,1.563-3.906h4.531
		c-0.625,1.355-1.147,2.656-1.563,3.906h19.063v2.969h-20.469c-0.835,1.563-1.719,3.074-2.656,4.531h19.219v19.219
		c0.103,3.333-1.512,4.947-4.844,4.844h-3.438v-2.656h2.031c1.563,0.104,2.29-0.573,2.188-2.031v-2.813h-17.031v7.969h-4.063V66.636
		c-1.875,1.563-4.063,3.125-6.563,4.688v-2.969c5-3.957,8.54-8.176,10.625-12.656L135.481,55.698L135.481,55.698z M145.481,63.042
		v4.063h17.031v-4.063H145.481z M145.481,69.917v4.219h17.031v-4.219H145.481z"/>
	<path fill="#1B3467" d="M177.356,74.292v-2.344c5.625-1.664,9.844-4.008,12.656-7.031c-4.063,1.148-8.96,2.188-14.688,3.125v-2.5
		c5.728-1.039,10.415-2.238,14.063-3.594c-2.71-1.25-5.469-2.133-8.281-2.656v-1.875c-1.563,0.625-3.335,1.094-5.313,1.406v-2.344
		c5.52-1.457,9.582-3.957,12.188-7.5h4.531c-0.625,0.938-1.304,1.773-2.031,2.5h17.188v2.656c-4.585,4.586-9.637,7.867-15.156,9.844
		h3.125c-0.73,0.938-1.512,1.824-2.344,2.656h15.938v2.656c-7.188,8.75-18.543,13.906-34.063,15.469v-2.5
		c7.188-1.146,12.759-2.656,16.719-4.531c-3.022-1.352-6.094-2.344-9.219-2.969v-1.875
		C181.106,73.304,179.334,73.772,177.356,74.292z M202.044,54.292h-14.531c-1.355,1.043-2.969,1.93-4.844,2.656
		c3.438,0.418,6.613,1.305,9.531,2.656v1.094C195.325,59.241,198.606,57.104,202.044,54.292z M203.45,69.448h-13.438
		c-1.668,1.148-3.594,2.137-5.781,2.969c3.75,0.625,7.082,1.563,10,2.813v1.406C197.669,74.659,200.74,72.261,203.45,69.448z"/>
	<path fill="#1B3467" d="M214.544,64.917v-2.813h7.188V54.76h-1.875c-1.147,1.875-2.969,3.336-5.469,4.375v-2.344
		c2.082-1.664,3.384-4.27,3.906-7.813h3.438c-0.105,1.148-0.313,2.188-0.625,3.125h9.688v2.656h-5.781v7.344h6.719v2.813h-6.719
		v15.156h0.938c1.25,0.105,1.821-0.52,1.719-1.875V67.729h2.969v10.625c0.103,2.916-1.355,4.322-4.375,4.219h-10.469V67.729h2.969
		v12.344h2.969V64.917H214.544z M231.888,69.761v-2.656h5.625c0-0.313,0-0.57,0-0.781v-9.375h-5v-2.656h5V48.98h3.594v5.313h7.344
		v12.813h2.5v2.656h-9.531c1.04,4.898,3.957,8.961,8.75,12.188v2.813c-5.105-2.396-8.594-5.727-10.469-10
		c-1.46,4.063-4.531,7.396-9.219,10V81.95c3.957-3.125,6.196-7.188,6.719-12.188h-5.313V69.761z M241.106,66.323v0.781h4.063V56.948
		h-4.063V66.323z"/>
	<path fill="#1B3467" d="M254.7,81.323v-2.5c5.625-5.414,8.75-11.875,9.375-19.375h-8.594v-2.969h12.5v2.813
		C267.146,68.772,262.72,76.116,254.7,81.323z M265.481,84.292v-2.813h2.813c1.665,0.104,2.446-0.57,2.344-2.031V48.979h4.219
		v30.625c0.103,3.229-1.512,4.791-4.844,4.688H265.481z M290.638,81.323c-8.543-5.414-12.866-12.758-12.969-22.031v-2.813h4.531
		c2.707,0,5.156-0.469,7.344-1.406v3.125c-1.772,0.836-4.063,1.25-6.875,1.25h-1.25c0.103,7.605,3.176,14.012,9.219,19.219V81.323z"
		/>
	<path fill="#1B3467" d="M300.794,74.448v-1.719c-0.104-2.914,1.301-5.363,4.219-7.344c3.021-2.188,4.427-4.426,4.22-6.719
		c-0.21-3.539-2.031-5.414-5.47-5.625c-3.543,0-5.887,2.242-7.031,6.719h-3.906c1.04-6.352,4.688-9.531,10.938-9.531
		c6.146,0.313,9.427,3.074,9.845,8.281c0.313,3.23-1.563,6.148-5.625,8.75c-2.188,1.563-3.23,3.492-3.125,5.781v1.406h-4.064V74.448
		z M300.481,83.042v-4.531h4.688v4.531H300.481z"/>
</g>
</svg>
