<?xml version="1.0" encoding="utf-8"?>
<!-- Generator: Adobe Illustrator 16.0.0, SVG Export Plug-In . SVG Version: 6.00 Build 0)  -->
<!DOCTYPE svg PUBLIC "-//W3C//DTD SVG 1.1//EN" "http://www.w3.org/Graphics/SVG/1.1/DTD/svg11.dtd">
<svg version="1.1" id="图层_1" xmlns="http://www.w3.org/2000/svg" xmlns:xlink="http://www.w3.org/1999/xlink" x="0px" y="0px"
	 width="640px" height="960px" viewBox="0 0 640 960" enable-background="new 0 0 640 960" xml:space="preserve">
<g>
	<g>
		<g>
			<rect x="449.279" fill="#F7CC48" width="132.887" height="132.888"/>
		</g>
		<g>
			<polygon fill="#F7CC48" points="473.696,140 468.179,134.2 479.214,134.2 			"/>
		</g>
	</g>
</g>
<g>
	<g>
		<path fill="#1B3467" d="M472.178,86.755V64.097h-5.439l1.651-3.375h7.685v26.033H472.178z"/>
		<path fill="#1B3467" d="M505.231,74.097c0,4.178-0.842,7.448-2.522,9.813c-1.683,2.363-3.995,3.545-6.939,3.545
			c-2.98,0-5.3-1.193-6.957-3.582c-1.658-2.387-2.487-5.741-2.487-10.063c0-4.285,0.838-7.624,2.514-10.018
			c1.676-2.395,4.004-3.592,6.984-3.592c3.017,0,5.338,1.201,6.966,3.6C504.417,66.2,505.231,69.632,505.231,74.097z
			 M495.697,83.774c1.748,0,3.062-0.836,3.941-2.505c0.88-1.67,1.319-4.168,1.319-7.495c0-3.232-0.434-5.695-1.302-7.389
			s-2.134-2.541-3.797-2.541c-1.736,0-3.047,0.844-3.933,2.532c-0.886,1.688-1.328,4.177-1.328,7.469
			c0,3.196,0.439,5.649,1.319,7.36C492.798,82.919,494.058,83.774,495.697,83.774z"/>
		<path fill="#1B3467" d="M510.078,84.762c0-0.658,0.228-1.222,0.683-1.688s1.012-0.699,1.67-0.699s1.215,0.232,1.67,0.699
			c0.454,0.467,0.682,1.03,0.682,1.688c0,0.646-0.228,1.194-0.682,1.643c-0.455,0.448-1.012,0.673-1.67,0.673
			s-1.215-0.225-1.67-0.673S510.078,85.407,510.078,84.762z"/>
		<path fill="#1B3467" d="M522.216,80.471c0.61,1.125,1.395,1.987,2.352,2.585c0.958,0.6,2.022,0.898,3.196,0.898
			c1.735,0,3.142-0.555,4.219-1.661s1.616-2.564,1.616-4.372c0-1.735-0.565-3.147-1.697-4.236c-1.131-1.09-2.612-1.635-4.443-1.635
			c-1.102,0-2.121,0.189-3.061,0.566c-0.94,0.377-1.769,0.936-2.487,1.678l-1.059-0.232l3.268-13.34h12.424v3.465h-9.856
			l-1.544,5.799c0.718-0.299,1.412-0.521,2.082-0.664s1.341-0.215,2.011-0.215c2.502,0,4.536,0.801,6.104,2.405
			s2.352,3.692,2.352,6.266c0,2.944-0.915,5.294-2.746,7.047c-1.832,1.754-4.285,2.63-7.361,2.63c-1.819,0-3.399-0.313-4.74-0.941
			c-1.341-0.629-2.495-1.602-3.465-2.918L522.216,80.471z"/>
		<path fill="#1B3467" d="M462.793,108.47c2.281-3.156,4.086-7.023,5.414-11.602l1.922,0.563c-0.641,1.914-1.336,3.711-2.086,5.391
			v16.922h-1.828v-13.266c-0.82,1.469-1.695,2.82-2.625,4.055C463.371,109.845,463.105,109.157,462.793,108.47z M484.191,110.556
			c0.391,0.188,1.047,0.422,1.969,0.703c-0.141,1.734-0.32,3.242-0.539,4.523c-0.344,1.984-1.727,2.984-4.148,3
			c-2.484,0.094-4.844,0.094-7.078,0c-2.078-0.109-3.336-0.773-3.773-1.992c-0.406-1.25,0.086-2.844,1.477-4.781
			c1.359-1.859,4.547-5.688,9.563-11.484h-10.383v-1.852h12.82v2.18c-3.781,4.125-7.07,7.953-9.867,11.484
			c-1.313,1.766-1.891,2.969-1.734,3.609c0.063,0.656,0.93,1.008,2.602,1.055c1.906,0.078,3.805,0.07,5.695-0.023
			c1.109-0.047,1.844-0.203,2.203-0.469c0.406-0.266,0.672-0.813,0.797-1.641C483.949,114.009,484.082,112.571,484.191,110.556z"/>
		<path fill="#1B3467" d="M487.145,116.626h12.176c1.813-3.523,3.512-7.719,5.098-12.586l2.133,0.773
			c-1.609,4.391-3.258,8.328-4.945,11.813h8.203v1.805h-22.664V116.626z M487.73,101.251h21.516v1.805H487.73V101.251z
			 M490.52,105.048l1.852-0.75c1.438,3.297,2.805,6.641,4.102,10.031l-2.086,0.867C493.121,111.493,491.832,108.11,490.52,105.048z
			 M495.934,97.478l1.711-0.961c0.75,1.047,1.531,2.234,2.344,3.563l-1.852,1.078C497.512,99.985,496.777,98.759,495.934,97.478z"/>
		<path fill="#1B3467" d="M511.191,100.853h11.25c-0.789-1.5-1.406-2.594-1.852-3.281l1.828-0.867
			c0.438,0.672,1.094,1.766,1.969,3.281l-1.711,0.867h11.109v1.781H519.57c-0.055,1.422-0.113,2.633-0.176,3.633h11.32
			c-0.188,3.391-0.391,6.336-0.609,8.836c-0.172,2.828-1.547,4.242-4.125,4.242c-1.188,0-2.773-0.063-4.758-0.188
			c-0.078-0.594-0.195-1.313-0.352-2.156c1.984,0.266,3.594,0.398,4.828,0.398c1.438,0,2.242-0.852,2.414-2.555
			c0.188-1.859,0.352-4.133,0.492-6.82h-9.34c-0.438,5.156-2.824,9.156-7.16,12c-0.422-0.5-0.898-1.031-1.43-1.594
			c4.125-2.719,6.336-6.359,6.633-10.922c0.109-1.234,0.199-2.859,0.27-4.875h-6.387V100.853z"/>
		<path fill="#1B3467" d="M558.184,116.11c-0.531,0.625-0.953,1.188-1.266,1.688c-4.094-2.203-7.234-5.355-9.422-9.457v11.496
			h-1.875v-11.496c-1.906,4.055-5.109,7.387-9.609,9.996c-0.313-0.453-0.727-0.984-1.242-1.594c4.375-2.492,7.465-5.414,9.27-8.766
			h-8.941v-1.781h10.523v-9.094h1.875v9.094h10.359v1.781h-8.754C551.211,111.509,554.238,114.22,558.184,116.11z M537.066,99.517
			l1.336-1.102c1.688,1.906,3.25,3.695,4.688,5.367l-1.57,1.313C540.113,103.204,538.629,101.345,537.066,99.517z M550.004,103.876
			c1.641-1.766,3.086-3.57,4.336-5.414l1.688,1.219c-1.969,2.453-3.508,4.266-4.617,5.438L550.004,103.876z"/>
	</g>
</g>
</svg>
