<?xml version="1.0" encoding="utf-8"?>
<!-- Generator: Adobe Illustrator 16.0.0, SVG Export Plug-In . SVG Version: 6.00 Build 0)  -->
<!DOCTYPE svg PUBLIC "-//W3C//DTD SVG 1.1//EN" "http://www.w3.org/Graphics/SVG/1.1/DTD/svg11.dtd">
<svg version="1.1" id="图层_1" xmlns="http://www.w3.org/2000/svg" xmlns:xlink="http://www.w3.org/1999/xlink" x="0px" y="0px"
	 width="640px" height="960px" viewBox="0 0 640 960" enable-background="new 0 0 640 960" xml:space="preserve">
<g>
	<g>
		<defs>
			<rect id="SVGID_1_" y="181.995" width="641.746" height="298.013"/>
		</defs>
		<clipPath id="SVGID_2_">
			<use xlink:href="#SVGID_1_"  overflow="visible"/>
		</clipPath>
		<g clip-path="url(#SVGID_2_)">
			<g opacity="0.9">
				<g>
					<g>
						<g>
							<polygon fill="none" stroke="#FFFFFF" points="620.889,281.158 620.123,275.878 585.639,271.78 584.844,266.232 
								558.99,262.334 558.34,257.812 529.686,252.267 529.131,248.389 499.934,243.679 511.102,235.635 537.832,240.295 
								538.717,244.769 566.66,249.545 567.623,254.394 594.672,257.826 595.664,262.837 629.203,266.617 630.262,271.97 
								662.104,276.881 653.818,288.301 							"/>
							<path fill="none" stroke="#FFFFFF" d="M510.627,235.859l26.99,4.672l0.813,4.117l0.068,0.346l0.35,0.058l27.595,4.719
								l0.893,4.494l0.072,0.363l0.363,0.047l26.684,3.382l0.922,4.646l0.068,0.369l0.377,0.042l33.166,3.741l0.985,4.989
								l0.072,0.351l0.355,0.056l31.246,4.821l-7.939,10.943l-32.594-7.071l-0.709-4.909l-0.058-0.39l-0.391-0.046l-34.092-4.05
								l-0.742-5.164l-0.053-0.379l-0.381-0.058l-25.474-3.84l-0.6-4.152l-0.051-0.362l-0.359-0.069l-28.293-5.477l-0.506-3.508
								l-0.053-0.374l-0.373-0.06l-28.457-4.589l9.965-7.452 M510.453,235.438l-11.117,8.405l29.568,4.771l0.555,3.869l28.652,5.545
								l0.651,4.53l25.854,3.898l0.797,5.555l34.486,4.098l0.756,5.262l33.271,7.218l8.633-11.899l-32.08-4.951l-1.061-5.354
								l-33.543-3.785l-0.988-5.005l-27.049-3.432l-0.959-4.843l-27.942-4.777l-0.89-4.484L510.453,235.438z"/>
						</g>
					</g>
					<g>
						<g>
							<polygon fill="none" stroke="#FFFFFF" points="511.057,237.477 503.773,242.507 528.949,246.599 534.389,241.512 							"/>
						</g>
					</g>
					<g>
						<g>
							<g>
								<g>
									<g>
										<polygon fill="none" stroke="#FFFFFF" points="506.646,239.309 505.873,240.242 532.027,244.763 533.08,243.664 
																					"/>
									</g>
								</g>
							</g>
						</g>
					</g>
					<g>
						<g>
							<g>
								<g>
									<g>
										<polygon fill="none" stroke="#FFFFFF" points="595.248,264.658 589.332,270.643 617.832,273.661 623.057,268.104 
																					"/>
									</g>
								</g>
							</g>
						</g>
					</g>
					<g>
						<g>
							<g>
								<g>
									<g>
										<polygon fill="none" stroke="#FFFFFF" points="630.57,273.362 624.217,280.327 653.154,286.176 659.277,277.903 
																					"/>
									</g>
								</g>
							</g>
						</g>
					</g>
					<g>
						<g>
							<g>
								<g>
									<g>
										<polygon fill="none" stroke="#FFFFFF" points="627.254,275.777 626.277,277.057 656.961,282.887 657.863,281.429 
																					"/>
									</g>
								</g>
							</g>
						</g>
					</g>
					<g>
						<g>
							<g>
								<g>
									<g>
										<polygon fill="none" stroke="#FFFFFF" points="591.811,266.457 590.832,267.739 620.803,271.39 621.949,270.214 
																					"/>
									</g>
								</g>
							</g>
						</g>
					</g>
					<g>
						<g>
							<g>
								<g>
									<g>
										<polygon fill="none" stroke="#FFFFFF" points="567.484,256.482 562.74,261.196 582.764,263.937 588.492,259.046 
																					"/>
									</g>
								</g>
							</g>
						</g>
					</g>
					<g>
						<g>
							<g>
								<g>
									<g>
										<polygon fill="none" stroke="#FFFFFF" points="538.076,246.273 532.656,251.251 556.107,256.012 561.734,250.615 
																					"/>
									</g>
								</g>
							</g>
						</g>
					</g>
					<line fill="none" stroke="#FFFFFF" x1="528.904" y1="248.614" x2="538.049" y2="240.062"/>
					<line fill="none" stroke="#FFFFFF" x1="558.111" y1="258.028" x2="566.881" y2="249.323"/>
					<line fill="none" stroke="#FFFFFF" x1="594.889" y1="257.597" x2="584.617" y2="266.457"/>
					<line fill="none" stroke="#FFFFFF" x1="619.9" y1="276.11" x2="629.449" y2="266.539"/>
					<g>
						<g>
							<polygon fill="none" stroke="#FFFFFF" points="654.43,288.314 661.645,278.387 662.461,284.053 655.609,294.367 							"/>
							<path fill="none" stroke="#FFFFFF" d="M661.48,279.051l0.715,4.943l-6.451,9.71l-1.039-5.33L661.48,279.051 M661.811,277.725
								l-7.655,10.528l1.321,6.777l7.255-10.917L661.811,277.725L661.811,277.725z"/>
						</g>
					</g>
					<polygon fill="none" stroke="#FFFFFF" points="657.451,284.525 658.221,289.856 658.971,288.576 658.244,283.524 					"/>
					<g>
						<g>
							<g>
								<g>
									<g>
										<polygon fill="none" stroke="#FFFFFF" points="564.838,257.941 564.057,258.876 586.863,262.298 587.66,261.171 
																					"/>
									</g>
								</g>
							</g>
						</g>
					</g>
					<g>
						<g>
							<g>
								<g>
									<g>
										<polygon fill="none" stroke="#FFFFFF" points="535.252,247.841 534.477,248.777 560.061,253.951 560.859,252.821 
																					"/>
									</g>
								</g>
							</g>
						</g>
					</g>
				</g>
				<polygon fill="none" stroke="#FFFFFF" points="336.471,283.352 496.115,225.262 508.617,239.333 339.348,300.252 				"/>
				<g>
					<path fill="none" stroke="#FFFFFF" d="M495.635,227.344c-0.465-0.199-0.896-0.444-1.295-0.748
						c-1.781-0.494-3.272-1.796-3.994-3.512l-558.21,175.097l14.118,12.813l552.373-181.98
						C497.479,228.754,496.447,228.162,495.635,227.344z"/>
					<path fill="none" stroke="#FFFFFF" d="M498.42,228.968L-53.683,410.703l-13.677-12.412l557.883-174.784
						c-0.078-0.151-0.136-0.315-0.199-0.476L-68.368,398.069l14.56,13.217l553.307-182.133
						C499.129,229.126,498.771,229.06,498.42,228.968z"/>
				</g>
				<polygon fill="none" stroke="#FFFFFF" points="181.994,310.402 191.627,308.377 196.865,309.367 186.854,311.914 				"/>
				<polygon fill="none" stroke="#FFFFFF" points="359.789,289.072 352.551,291.702 350.148,284.359 357.445,281.901 				"/>
				<polygon fill="none" stroke="#FFFFFF" points="370.002,285.036 363.232,287.48 360.914,280.388 367.734,278.095 				"/>
				<polygon fill="none" stroke="#FFFFFF" points="379.199,281.712 372.84,284.009 370.592,277.134 377,274.983 				"/>
				<polygon fill="none" stroke="#FFFFFF" points="388.572,278.113 382.611,280.265 380.439,273.618 386.441,271.604 				"/>
				<polygon fill="none" stroke="#FFFFFF" points="396.689,275.19 391.07,277.214 388.959,270.758 394.623,268.861 				"/>
				<polygon fill="none" stroke="#FFFFFF" points="404.361,272.424 399.053,274.336 396.998,268.065 402.348,266.271 				"/>
				<polygon fill="none" stroke="#FFFFFF" points="411.838,269.589 406.824,271.394 404.83,265.299 409.883,263.609 				"/>
				<g>
					<polygon fill="none" stroke="#FFFFFF" points="430.537,262.615 426.002,264.236 424.201,258.726 428.77,257.198 					"/>
					<polygon fill="none" stroke="#FFFFFF" points="424.098,265.199 419.332,266.907 417.484,261.257 422.283,259.646 					"/>
					<polygon fill="none" stroke="#FFFFFF" points="436.77,260.379 432.451,261.93 430.691,256.55 435.039,255.094 					"/>
					<polygon fill="none" stroke="#FFFFFF" points="442.707,258.253 438.59,259.729 436.875,254.477 441.021,253.086 					"/>
					<polygon fill="none" stroke="#FFFFFF" points="448.381,256.223 444.449,257.629 442.771,252.501 446.729,251.177 					"/>
					<polygon fill="none" stroke="#FFFFFF" points="453.797,254.283 450.043,255.625 448.4,250.616 452.182,249.346 					"/>
					<polygon fill="none" stroke="#FFFFFF" points="458.686,252.511 455.082,253.8 453.479,248.893 457.102,247.677 					"/>
				</g>
				<g>
					
						<rect x="366.506" y="314.246" transform="matrix(-0.9264 0.3764 -0.3764 -0.9264 828.0167 472.7213)" fill="none" stroke="#FFFFFF" width="2.633" height="6.029"/>
					
						<rect x="380.18" y="308.699" transform="matrix(-0.927 0.3751 -0.3751 -0.927 852.0677 457.5516)" fill="none" stroke="#FFFFFF" width="2.636" height="6.026"/>
					
						<rect x="393.825" y="303.216" transform="matrix(-0.9273 0.3744 -0.3744 -0.9273 876.197 442.2495)" fill="none" stroke="#FFFFFF" width="2.637" height="6.026"/>
					
						<rect x="407.486" y="297.67" transform="matrix(-0.9268 0.3755 -0.3755 -0.9268 900.602 425.8554)" fill="none" stroke="#FFFFFF" width="2.638" height="6.027"/>
					
						<rect x="421.151" y="292.153" transform="matrix(-0.9271 0.3748 -0.3748 -0.9271 924.7653 410.4889)" fill="none" stroke="#FFFFFF" width="2.634" height="6.027"/>
					
						<rect x="434.808" y="286.605" transform="matrix(-0.9268 0.3756 -0.3756 -0.9268 949.1056 394.2036)" fill="none" stroke="#FFFFFF" width="2.637" height="6.027"/>
					
						<rect x="448.28" y="280.635" transform="matrix(-0.9272 0.3746 -0.3746 -0.9272 972.7085 378.2304)" fill="none" stroke="#FFFFFF" width="2.633" height="6.025"/>
				</g>
				<g>
					<polygon fill="none" stroke="#FFFFFF" points="61.502,348.811 70.263,347.104 73.43,347.858 65.003,349.823 					"/>
					<g>
						<path fill="none" stroke="#FFFFFF" d="M70.22,347.294l2.419,0.565l-7.632,1.78l-2.745-0.795L70.22,347.294 M70.228,346.93
							l-9.482,1.848l4.251,1.23l9.211-2.146L70.228,346.93L70.228,346.93z"/>
					</g>
				</g>
				<g>
					<polygon fill="none" stroke="#FFFFFF" points="61.669,362.892 61.199,349.114 64.844,350.145 65.549,363.425 					"/>
					<g>
						<path fill="none" stroke="#FFFFFF" d="M61.47,349.458l3.129,0.884l0.679,12.787l-3.359-0.463L61.47,349.458 M60.933,348.772
							l0.487,14.345l4.402,0.605l-0.729-13.774L60.933,348.772L60.933,348.772z"/>
					</g>
				</g>
				<g>
					<polygon fill="none" stroke="#FFFFFF" points="87.563,341.909 94.787,340.501 97.33,341.108 90.39,342.726 					"/>
					<g>
						<path fill="none" stroke="#FFFFFF" d="M94.748,340.683l1.822,0.426l-6.177,1.44l-2.104-0.608L94.748,340.683 M94.752,340.333
							l-7.918,1.543l3.551,1.027l7.69-1.794L94.752,340.333L94.752,340.333z"/>
					</g>
				</g>
				<g>
					<polygon fill="none" stroke="#FFFFFF" points="87.444,354.113 87.041,342.225 90.138,343.1 90.746,354.567 					"/>
					<g>
						<path fill="none" stroke="#FFFFFF" d="M87.31,342.567l2.584,0.729l0.579,10.974l-2.778-0.381L87.31,342.567 M86.772,341.882
							l0.422,12.457l3.823,0.526l-0.633-11.961L86.772,341.882L86.772,341.882z"/>
					</g>
				</g>
				<g>
					<polygon fill="none" stroke="#FFFFFF" points="90.653,343.105 97.927,341.409 102.286,351.195 91.258,354.524 					"/>
					<path fill="none" stroke="#FFFFFF" d="M97.778,341.707l4.155,9.327l-10.436,3.148l-0.576-10.877L97.778,341.707
						 M98.075,341.109l-7.69,1.794l0.633,11.961l11.619-3.506L98.075,341.109L98.075,341.109z"/>
				</g>
				<g>
					<polygon fill="none" stroke="#FFFFFF" points="218.586,298.666 226.503,297.122 229.825,297.899 222.133,299.691 					"/>
				</g>
				<g>
					<polygon fill="none" stroke="#FFFFFF" points="219.195,310.901 218.79,299.013 221.888,299.889 222.496,311.355 					"/>
					<g>
						<path fill="none" stroke="#FFFFFF" d="M219.061,299.357l2.582,0.728l0.578,10.974l-2.777-0.382L219.061,299.357
							 M218.523,298.669l0.424,12.458l3.82,0.525l-0.635-11.962L218.523,298.669L218.523,298.669z"/>
					</g>
				</g>
				<path fill="none" stroke="#FFFFFF" d="M252.914,406.962"/>
				<polygon fill="none" stroke="#FFFFFF" points="224.986,373.005 225.033,373.049 225.898,372.635 				"/>
				<g>
					<polygon fill="none" stroke="#FFFFFF" points="65.114,350.35 73.494,348.496 77.857,359.291 65.791,363.334 					"/>
					<path fill="none" stroke="#FFFFFF" d="M73.334,348.795l4.182,10.338l-11.484,3.851l-0.65-12.43L73.334,348.795 M73.648,348.2
						l-8.805,1.945l0.707,13.54l12.646-4.237L73.648,348.2L73.648,348.2z"/>
				</g>
				<g>
					<polygon fill="none" stroke="#FFFFFF" points="361.463,256.763 368.213,255.449 370.654,256.03 364.158,257.543 					"/>
					<g>
						<path fill="none" stroke="#FFFFFF" d="M368.182,255.594l1.865,0.437l-5.885,1.372l-2.117-0.613L368.182,255.594
							 M368.188,255.314l-7.307,1.423l3.275,0.947l7.096-1.654L368.188,255.314L368.188,255.314z"/>
					</g>
				</g>
				<g>
					<polygon fill="none" stroke="#FFFFFF" points="361.592,267.616 361.229,256.997 364.039,257.793 364.582,268.025 					"/>
					<g>
						<path fill="none" stroke="#FFFFFF" d="M361.438,257.263l2.412,0.68l0.521,9.854l-2.588-0.354L361.438,257.263
							 M361.021,256.734l0.379,11.056l3.389,0.466l-0.559-10.615L361.021,256.734L361.021,256.734z"/>
					</g>
				</g>
				<g>
					<polygon fill="none" stroke="#FFFFFF" points="391.721,247.519 397.543,246.383 399.594,246.872 394,248.177 					"/>
					<g>
						<path fill="none" stroke="#FFFFFF" d="M397.512,246.531l1.472,0.345l-4.98,1.158l-1.693-0.49L397.512,246.531
							 M397.516,246.249l-6.383,1.242l2.863,0.829l6.199-1.445L397.516,246.249L397.516,246.249z"/>
					</g>
				</g>
				<g>
					<polygon fill="none" stroke="#FFFFFF" points="391.625,257.357 391.301,247.773 393.797,248.479 394.285,257.724 					"/>
					<g>
						<path fill="none" stroke="#FFFFFF" d="M391.518,248.048l2.082,0.588l0.466,8.849l-2.24-0.31L391.518,248.048 M391.082,247.496
							l0.34,10.042l3.088,0.424l-0.514-9.643L391.082,247.496L391.082,247.496z"/>
					</g>
				</g>
				<g>
					<polygon fill="none" stroke="#FFFFFF" points="394.211,248.482 400.078,247.114 403.59,255.003 394.697,257.688 					"/>
					<path fill="none" stroke="#FFFFFF" d="M399.955,247.356l3.352,7.517l-8.414,2.541l-0.467-8.77L399.955,247.356
						 M400.195,246.875l-6.199,1.445l0.514,9.643l9.365-2.827L400.195,246.875L400.195,246.875z"/>
				</g>
				<g>
					<polygon fill="none" stroke="#FFFFFF" points="364.307,257.996 370.666,256.59 373.99,264.805 364.82,267.876 					"/>
					<path fill="none" stroke="#FFFFFF" d="M370.512,256.888l3.138,7.76l-8.589,2.878l-0.485-9.325L370.512,256.888
						 M370.822,256.293l-6.783,1.5l0.543,10.435l9.748-3.268L370.822,256.293L370.822,256.293z"/>
				</g>
				<polygon fill="none" stroke="#FFFFFF" points="187.136,312.279 197.201,309.723 202.447,366.668 192.095,366.138 				"/>
				<g>
					<polygon fill="none" stroke="#FFFFFF" points="222.301,300.589 229.773,298.624 233.745,307.985 223.004,311.312 					"/>
					<path fill="none" stroke="#FFFFFF" d="M229.627,298.929l3.77,8.895l-10.157,3.148l-0.667-10.187L229.627,298.929
						 M229.926,298.321l-7.894,2.075l0.735,11.257l11.324-3.506L229.926,298.321L229.926,298.321z"/>
				</g>
				<g>
					<polygon fill="none" stroke="#FFFFFF" points="268.844,284.551 276.764,283.008 280.086,283.786 272.395,285.579 					"/>
				</g>
				<g>
					<polygon fill="none" stroke="#FFFFFF" points="269.453,296.79 269.051,284.9 272.146,285.775 272.754,297.242 					"/>
					<g>
						<path fill="none" stroke="#FFFFFF" d="M269.321,285.244l2.583,0.729l0.578,10.974l-2.777-0.384L269.321,285.244
							 M268.785,284.557l0.42,12.458l3.822,0.525l-0.633-11.961L268.785,284.557L268.785,284.557z"/>
					</g>
				</g>
				<g>
					<polygon fill="none" stroke="#FFFFFF" points="272.563,286.476 280.036,284.514 284.004,293.873 273.263,297.199 					"/>
					<path fill="none" stroke="#FFFFFF" d="M279.888,284.815l3.771,8.896l-10.16,3.146l-0.665-10.188L279.888,284.815
						 M280.186,284.206l-7.892,2.076l0.733,11.258l11.325-3.507L280.186,284.206L280.186,284.206z"/>
				</g>
				<g>
					<polygon fill="none" stroke="#FFFFFF" points="186.126,357.186 181.817,310.967 186.799,312.393 191.098,359.071 					"/>
					<path fill="none" stroke="#FFFFFF" d="M182.106,311.315l4.453,1.274l4.244,46.096l-4.438-1.682L182.106,311.315
						 M181.527,310.617l4.357,46.752l5.508,2.088l-4.354-47.265L181.527,310.617L181.527,310.617z"/>
				</g>
				<polygon fill="none" stroke="#FFFFFF" points="325.217,263.651 334.848,261.627 340.09,262.617 330.076,265.164 				"/>
				<polygon fill="none" stroke="#FFFFFF" points="330.359,265.529 340.424,262.973 344.871,311.249 335.32,319.388 				"/>
				<g>
					<polygon fill="none" stroke="#FFFFFF" points="329.346,310.436 325.041,264.215 330.021,265.641 334.322,312.321 					"/>
					<path fill="none" stroke="#FFFFFF" d="M325.332,264.566l4.451,1.272l4.246,46.097l-4.441-1.683L325.332,264.566
						 M324.75,263.866l4.357,46.753l5.506,2.086l-4.353-47.263L324.75,263.866L324.75,263.866z"/>
				</g>
				<polygon fill="none" stroke="#FFFFFF" points="-53.035,411.033 183.756,333.27 185.414,351.284 191.452,359.169 
					-49.475,449.707 				"/>
				<g>
					<polygon fill="none" stroke="#FFFFFF" points="60.404,401.04 50.964,404.509 47.443,394.924 56.949,391.638 					"/>
					<polygon fill="none" stroke="#FFFFFF" points="73.347,396.292 64.383,399.58 60.953,390.252 69.979,387.123 					"/>
					<polygon fill="none" stroke="#FFFFFF" points="85.646,391.777 77.124,394.906 73.778,385.809 82.36,382.835 					"/>
					<polygon fill="none" stroke="#FFFFFF" points="97.352,387.481 89.242,390.457 85.979,381.582 94.141,378.759 					"/>
					<polygon fill="none" stroke="#FFFFFF" points="108.505,383.383 100.775,386.222 97.594,377.563 105.371,374.87 					"/>
					<polygon fill="none" stroke="#FFFFFF" points="119.141,379.482 111.768,382.189 108.663,373.731 116.081,371.162 					"/>
					<polygon fill="none" stroke="#FFFFFF" points="146.577,369.079 139.983,371.498 137.041,363.504 143.684,361.205 					"/>
					<polygon fill="none" stroke="#FFFFFF" points="137.669,372.701 131.074,375.118 128.135,367.126 134.775,364.826 					"/>
					<polygon fill="none" stroke="#FFFFFF" points="155.679,365.735 149.369,368.055 146.493,360.235 152.847,358.034 					"/>
					<polygon fill="none" stroke="#FFFFFF" points="164.407,362.534 158.354,364.758 155.542,357.103 161.629,354.992 					"/>
					<polygon fill="none" stroke="#FFFFFF" points="172.771,359.463 166.965,361.597 164.211,354.097 170.053,352.077 					"/>
					<polygon fill="none" stroke="#FFFFFF" points="180.799,356.517 175.23,358.56 172.531,351.22 178.138,349.276 					"/>
				</g>
				<g>
					<polygon fill="none" stroke="#FFFFFF" points="295.222,429.005 296.852,427.407 297.391,433.109 295.773,434.998 					"/>
					<path fill="none" stroke="#FFFFFF" d="M296.645,427.968l0.481,5.057l-1.153,1.343l-0.483-5.263L296.645,427.968
						 M297.055,426.847l-2.101,2.062l0.619,6.716l2.085-2.432L297.055,426.847L297.055,426.847z"/>
				</g>
				<g>
					<polygon fill="none" stroke="#FFFFFF" points="425.43,361.438 427.395,359.755 427.939,365.489 425.986,367.473 					"/>
					<path fill="none" stroke="#FFFFFF" d="M427.186,360.273l0.486,5.121l-1.484,1.503l-0.489-5.351L427.186,360.273
						 M427.604,359.239l-2.44,2.092l0.619,6.716l2.422-2.463L427.604,359.239L427.604,359.239z"/>
				</g>
				<polygon fill="none" stroke="#FFFFFF" points="294.555,429.083 295.053,434.506 248.445,411.67 199.356,361.838 
					199.568,357.614 250.739,408.358 				"/>
				<polyline fill="none" stroke="#FFFFFF" points="294.797,428.922 250.804,407.849 199.967,357.283 201.892,355.742 
					251.305,404.971 296.248,427.264 				"/>
				<g>
					<polygon fill="none" stroke="#FFFFFF" points="30.832,418.182 191.383,359.087 199.329,362.39 210.031,372.99 47.906,435.697 
											"/>
					<path fill="none" stroke="#FFFFFF" d="M191.377,359.363l7.76,3.225l10.432,10.303L47.972,435.396l-16.681-17.108
						L191.377,359.363 M191.388,358.811L30.371,418.077l17.469,17.921l162.653-62.912l-11.064-10.934L191.388,358.811
						L191.388,358.811z"/>
				</g>
				<polygon fill="none" stroke="#FFFFFF" points="210.493,373.086 47.84,435.998 60.177,448.654 219.084,382.18 				"/>
				<g>
					<polygon fill="none" stroke="#FFFFFF" points="78.655,450.367 74.736,451.954 71.53,431.957 75.449,430.373 					"/>
					<polygon fill="none" stroke="#FFFFFF" points="88.604,446.523 84.688,448.109 81.48,428.111 85.4,426.527 					"/>
					<polygon fill="none" stroke="#FFFFFF" points="98.555,442.678 94.638,444.266 91.431,424.267 95.351,422.682 					"/>
					<polygon fill="none" stroke="#FFFFFF" points="108.505,438.834 104.587,440.42 101.38,420.422 105.299,418.837 					"/>
					<polygon fill="none" stroke="#FFFFFF" points="118.422,434.648 114.505,436.233 111.299,416.237 115.218,414.651 					"/>
					<polygon fill="none" stroke="#FFFFFF" points="128.342,430.463 124.423,432.049 121.218,412.051 125.138,410.467 					"/>
					<polygon fill="none" stroke="#FFFFFF" points="138.292,426.619 134.373,428.205 131.167,408.207 135.088,406.622 					"/>
					<polygon fill="none" stroke="#FFFFFF" points="148.242,422.774 144.322,424.36 141.117,404.362 145.037,402.778 					"/>
					<polygon fill="none" stroke="#FFFFFF" points="158.159,418.589 154.242,420.173 151.035,400.177 154.955,398.591 					"/>
					<polygon fill="none" stroke="#FFFFFF" points="168.109,414.745 164.192,416.33 160.986,396.331 164.906,394.748 					"/>
					<polygon fill="none" stroke="#FFFFFF" points="178.029,410.558 174.111,412.145 170.902,392.146 174.822,390.562 					"/>
					<polygon fill="none" stroke="#FFFFFF" points="187.979,406.714 184.062,408.3 180.854,388.301 184.773,386.717 					"/>
					<polygon fill="none" stroke="#FFFFFF" points="197.898,402.528 193.979,404.114 190.774,384.117 194.692,382.531 					"/>
					<polygon fill="none" stroke="#FFFFFF" points="207.816,398.342 203.898,399.928 200.692,379.931 204.611,378.346 					"/>
				</g>
				<g>
					<polygon fill="none" stroke="#FFFFFF" points="73.892,406.056 81.359,404.488 84.074,405.096 76.896,406.878 					"/>
					<g>
						<path fill="none" stroke="#FFFFFF" d="M81.322,404.651l2.076,0.454l-6.502,1.615l-2.356-0.644L81.322,404.651 M81.328,404.339
							l-8.082,1.697l3.648,0.999l7.842-1.949L81.328,404.339L81.328,404.339z"/>
					</g>
				</g>
				<g>
					<polygon fill="none" stroke="#FFFFFF" points="74.209,418.089 73.64,406.32 76.768,407.155 77.533,418.498 					"/>
					<g>
						<path fill="none" stroke="#FFFFFF" d="M73.875,406.608l2.685,0.719l0.737,10.918l-2.878-0.354L73.875,406.608 M73.406,406.028
							L74,418.283l3.77,0.463l-0.794-11.76L73.406,406.028L73.406,406.028z"/>
					</g>
				</g>
				<g>
					<g>
						<polygon fill="none" stroke="#FFFFFF" points="77.039,407.355 84.111,405.681 87.95,414.788 77.772,418.363 						"/>
						<path fill="none" stroke="#FFFFFF" d="M83.961,405.981l3.647,8.654l-9.604,3.372l-0.694-10.453L83.961,405.981 M84.266,405.38
							l-7.498,1.775l0.77,11.563l10.754-3.78L84.266,405.38L84.266,405.38z"/>
					</g>
				</g>
				<g>
					<g>
						<polygon fill="none" stroke="#FFFFFF" points="114.855,391.08 121.427,389.701 123.817,390.233 117.5,391.805 						"/>
						<g>
							<path fill="none" stroke="#FFFFFF" d="M121.396,389.844l1.826,0.397l-5.723,1.423l-2.072-0.567L121.396,389.844
								 M121.4,389.57l-7.112,1.494l3.209,0.878l6.901-1.717L121.4,389.57L121.4,389.57z"/>
						</g>
					</g>
					<g>
						<polygon fill="none" stroke="#FFFFFF" points="115.135,401.67 114.633,391.312 117.383,392.05 118.061,402.029 						"/>
						<g>
							<path fill="none" stroke="#FFFFFF" d="M114.838,391.566l2.362,0.632l0.652,9.612l-2.534-0.31L114.838,391.566
								 M114.425,391.056l0.526,10.789l3.317,0.406l-0.699-10.353L114.425,391.056L114.425,391.056z"/>
						</g>
					</g>
					<g>
						<g>
							<polygon fill="none" stroke="#FFFFFF" points="117.656,392.249 123.831,390.787 127.19,398.748 118.298,401.872 							"/>
							<path fill="none" stroke="#FFFFFF" d="M123.68,391.086l3.166,7.509l-8.315,2.92l-0.604-9.066L123.68,391.086
								 M123.985,390.486l-6.603,1.564l0.683,10.175l9.465-3.326L123.985,390.486L123.985,390.486z"/>
						</g>
					</g>
				</g>
				<g>
					<g>
						<polygon fill="none" stroke="#FFFFFF" points="150.975,378.549 156.713,377.346 158.8,377.813 153.286,379.183 						"/>
						<g>
							<path fill="none" stroke="#FFFFFF" d="M156.689,377.472l1.59,0.348l-4.993,1.24l-1.809-0.496L156.689,377.472
								 M156.689,377.232l-6.208,1.304l2.802,0.765l6.025-1.496L156.689,377.232L156.689,377.232z"/>
						</g>
					</g>
					<g>
						<polygon fill="none" stroke="#FFFFFF" points="151.222,387.793 150.782,378.754 153.187,379.397 153.774,388.108 						"/>
						<g>
							<path fill="none" stroke="#FFFFFF" d="M150.962,378.977l2.064,0.552l0.567,8.387l-2.213-0.273L150.962,378.977
								 M150.6,378.531l0.459,9.413l2.896,0.357l-0.611-9.037L150.6,378.531L150.6,378.531z"/>
						</g>
					</g>
					<g>
						<g>
							<polygon fill="none" stroke="#FFFFFF" points="153.457,379.597 158.795,378.334 161.698,385.223 154.012,387.923 							"/>
							<path fill="none" stroke="#FFFFFF" d="M158.643,378.634l2.713,6.436l-7.11,2.498l-0.519-7.772L158.643,378.634
								 M158.947,378.035l-5.761,1.362l0.593,8.88l8.26-2.901L158.947,378.035L158.947,378.035z"/>
						</g>
					</g>
				</g>
				<g>
					<polygon fill="none" stroke="#FFFFFF" points="201.998,354.835 199.557,328.323 327.08,286.448 328.738,304.436 
						346.529,323.381 221.64,375.048 					"/>
					<path fill="none" stroke="#FFFFFF" d="M326.854,286.795l1.621,17.576l0.019,0.175l0.119,0.128l17.475,18.613L221.7,374.745
						l-19.456-20.023l-2.412-26.218L326.854,286.795 M327.307,286.105l-128.024,42.039l2.468,26.806l19.827,20.403l125.393-51.875
						l-17.979-19.153L327.307,286.105L327.307,286.105z"/>
				</g>
				<polygon fill="none" stroke="#FFFFFF" points="225.898,372.635 227.2,372.012 206.59,325.843 202.264,327.151 223.277,373.889 
					225.033,373.049 224.986,373.005 				"/>
				<polygon fill="none" stroke="#FFFFFF" points="237.737,367.453 217.859,321.891 213.239,323.299 233.207,369.184 				"/>
				<polygon fill="none" stroke="#FFFFFF" points="229.131,318.457 224.508,319.866 243.629,365.466 248.46,363.514 				"/>
				<polygon fill="none" stroke="#FFFFFF" points="240.114,314.667 235.771,316.434 254.433,361.099 258.922,359.285 				"/>
				<polygon fill="none" stroke="#FFFFFF" points="251.43,311.301 246.771,312.335 265.705,356.543 270.186,354.731 				"/>
				<polygon fill="none" stroke="#FFFFFF" points="262.479,307.249 258.199,309.058 276.802,352.056 281.367,350.21 				"/>
				<polygon fill="none" stroke="#FFFFFF" points="284.976,300.152 280.354,301.561 299.698,342.799 303.942,341.083 				"/>
				<polygon fill="none" stroke="#FFFFFF" points="273.767,303.582 269.146,304.992 288.443,347.35 292.945,345.53 				"/>
				<polygon fill="none" stroke="#FFFFFF" points="295.852,296.393 291.222,297.729 310.898,338.272 315.33,336.482 				"/>
				<polygon fill="none" stroke="#FFFFFF" points="307.813,292.49 303.189,293.899 322.063,333.758 326.5,331.962 				"/>
				<polygon fill="none" stroke="#FFFFFF" points="318.7,288.755 314.212,290.23 333.729,329.043 338.18,327.243 				"/>
				<line fill="none" stroke="#FFFFFF" x1="476.986" y1="227.54" x2="496.119" y2="232.249"/>
				<g>
					<polyline fill="none" stroke="#FFFFFF" points="505.621,230.038 509.381,270.632 651.855,307.747 656.244,319.17 
						659.797,315.81 655.424,304.529 515.41,267.61 511.869,228.691 					"/>
					<polyline fill="none" stroke="#FFFFFF" points="507.172,237.012 510.289,270.857 494.436,267.502 489.994,225.85 
						506.242,230.254 					"/>
					<g>
						<polygon fill="none" stroke="#FFFFFF" points="502.172,261.239 508.662,258.754 508.975,262.158 502.484,264.647 						"/>
						<path fill="none" stroke="#FFFFFF" d="M508.51,258.994l0.279,3.053l-6.156,2.358l-0.281-3.052L508.51,258.994
							 M508.809,258.512l-6.819,2.613l0.348,3.761l6.82-2.613L508.809,258.512L508.809,258.512z"/>
					</g>
					<g>
						<polygon fill="none" stroke="#FFFFFF" points="500.668,256.939 508.447,258.8 502.344,261.137 						"/>
					</g>
					<polygon fill="none" stroke="#FFFFFF" points="472.16,229.743 493.662,237.811 497.344,277.805 475.969,269.83 					"/>
					<line fill="none" stroke="#FFFFFF" x1="480.307" y1="229.537" x2="499.436" y2="234.245"/>
					<polyline fill="none" stroke="#FFFFFF" points="500.064,241.065 502.943,274.057 645.904,312.366 650.553,321.825 
						646.65,325.521 643.16,317.471 497.344,277.805 493.662,237.811 					"/>
					<line fill="none" stroke="#FFFFFF" x1="499.93" y1="241.078" x2="507.361" y2="237.201"/>
					<g>
						<polygon fill="none" stroke="#FFFFFF" points="472.619,229.418 492.217,222.768 511.201,228.726 493.396,237.604 						"/>
						<path fill="none" stroke="#FFFFFF" d="M492.217,223.038l18.297,5.744l-17.127,8.541l-20.022-7.884L492.217,223.038
							 M492.213,222.499l-20.34,6.903l21.537,8.482l18.477-9.213L492.213,222.499L492.213,222.499z"/>
					</g>
				</g>
				<g>
					<polygon fill="none" stroke="#FFFFFF" points="218.154,370.902 487.541,264.617 488.23,272.106 226.123,379.207 					"/>
					<path fill="none" stroke="#FFFFFF" d="M487.318,264.984l0.641,6.958l-261.771,106.96l-7.582-7.9L487.318,264.984
						 M487.768,264.253l-270.064,106.55l8.356,8.706l262.445-107.237L487.768,264.253L487.768,264.253z"/>
				</g>
				<polygon fill="none" stroke="#FFFFFF" points="344.871,311.249 343.756,299.148 474.029,251.165 487.768,264.253 
					351.436,318.457 				"/>
				<g>
					<g>
						<polygon fill="none" stroke="#FFFFFF" points="182.237,366.944 187.414,365.861 189.294,366.28 184.321,367.515 						"/>
						<g>
							<path fill="none" stroke="#FFFFFF" d="M187.391,365.973l1.437,0.312l-4.506,1.122l-1.634-0.448L187.391,365.973
								 M187.391,365.757l-5.601,1.174l2.529,0.692l5.435-1.349L187.391,365.757L187.391,365.757z"/>
						</g>
					</g>
					<g>
						<polygon fill="none" stroke="#FFFFFF" points="182.458,375.283 182.062,367.127 184.23,367.708 184.763,375.566 						"/>
						<g>
							<path fill="none" stroke="#FFFFFF" d="M182.223,367.329l1.863,0.498l0.513,7.567l-1.993-0.246L182.223,367.329
								 M181.9,366.926l0.413,8.494l2.613,0.32l-0.55-8.151L181.9,366.926L181.9,366.926z"/>
						</g>
					</g>
					<g>
						<g>
							<polygon fill="none" stroke="#FFFFFF" points="184.502,367.91 189.277,366.778 191.877,372.951 185,375.366 							"/>
							<path fill="none" stroke="#FFFFFF" d="M189.124,367.079l2.41,5.719l-6.3,2.215l-0.461-6.903L189.124,367.079 M189.43,366.479
								l-5.199,1.23l0.535,8.013l7.453-2.62L189.43,366.479L189.43,366.479z"/>
						</g>
					</g>
				</g>
				<g>
					<g>
						<polygon fill="none" stroke="#FFFFFF" points="363.893,298.239 368.605,297.251 370.316,297.633 365.785,298.758 						"/>
						<g>
							<path fill="none" stroke="#FFFFFF" d="M368.582,297.354l1.313,0.284l-4.104,1.021l-1.488-0.406L368.582,297.354
								 M368.582,297.157l-5.1,1.071l2.303,0.628l4.953-1.226L368.582,297.157L368.582,297.157z"/>
						</g>
					</g>
					<g>
						<polygon fill="none" stroke="#FFFFFF" points="364.092,305.834 363.73,298.407 365.705,298.936 366.191,306.088 						"/>
						<g>
							<path fill="none" stroke="#FFFFFF" d="M363.881,298.59l1.693,0.452l0.467,6.893l-1.816-0.224L363.881,298.59
								 M363.586,298.222l0.375,7.737l2.377,0.291l-0.5-7.421L363.586,298.222L363.586,298.222z"/>
						</g>
					</g>
					<g>
						<g>
							<polygon fill="none" stroke="#FFFFFF" points="365.977,299.137 370.283,298.115 372.639,303.696 366.43,305.877 							"/>
							<path fill="none" stroke="#FFFFFF" d="M370.135,298.414l2.16,5.128l-5.635,1.981l-0.414-6.19L370.135,298.414
								 M370.438,297.815l-4.731,1.121l0.488,7.296l6.789-2.385L370.438,297.815L370.438,297.815z"/>
						</g>
					</g>
				</g>
				<g>
					<g>
						<polygon fill="none" stroke="#FFFFFF" points="424.738,276.384 428.842,275.525 430.334,275.857 426.387,276.838 						"/>
						<g>
							<path fill="none" stroke="#FFFFFF" d="M428.818,275.612l1.145,0.249l-3.57,0.888l-1.299-0.352L428.818,275.612
								 M428.822,275.441l-4.441,0.934l2.006,0.548l4.31-1.07L428.822,275.441L428.822,275.441z"/>
						</g>
					</g>
					<g>
						<polygon fill="none" stroke="#FFFFFF" points="424.914,282.998 424.598,276.53 426.314,276.992 426.74,283.217 						"/>
						<g>
							<path fill="none" stroke="#FFFFFF" d="M424.727,276.69l1.476,0.393l0.404,6l-1.576-0.194L424.727,276.69 M424.471,276.369
								l0.324,6.735l2.074,0.255l-0.438-6.461L424.471,276.369L424.471,276.369z"/>
						</g>
					</g>
					<g>
						<g>
							<polygon fill="none" stroke="#FFFFFF" points="426.59,277.192 430.283,276.314 432.309,281.115 426.975,282.985 							"/>
							<path fill="none" stroke="#FFFFFF" d="M430.131,276.615l1.834,4.346l-4.756,1.672l-0.352-5.244L430.131,276.615
								 M430.438,276.014l-4.122,0.979l0.428,6.351l5.908-2.077L430.438,276.014L430.438,276.014z"/>
						</g>
					</g>
				</g>
				<g>
					<g>
						<polygon fill="none" stroke="#FFFFFF" points="433.852,273.363 437.65,272.568 439.031,272.875 435.379,273.782 						"/>
						<g>
							<path fill="none" stroke="#FFFFFF" d="M437.633,272.65l1.055,0.229l-3.307,0.821l-1.201-0.325L437.633,272.65
								 M437.633,272.492l-4.113,0.862l1.859,0.508l3.988-0.989L437.633,272.492L437.633,272.492z"/>
						</g>
					</g>
					<g>
						<polygon fill="none" stroke="#FFFFFF" points="434.014,279.485 433.723,273.498 435.314,273.924 435.705,279.688 						"/>
						<g>
							<path fill="none" stroke="#FFFFFF" d="M433.84,273.646l1.367,0.363l0.375,5.555l-1.459-0.18L433.84,273.646 M433.604,273.349
								l0.302,6.234l1.922,0.238l-0.406-5.981L433.604,273.349L433.604,273.349z"/>
						</g>
					</g>
					<g>
						<g>
							<polygon fill="none" stroke="#FFFFFF" points="435.582,274.124 438.975,273.32 440.834,277.731 435.939,279.45 							"/>
							<path fill="none" stroke="#FFFFFF" d="M438.82,273.62l1.67,3.958l-4.316,1.518l-0.317-4.772L438.82,273.62 M439.127,273.02
								l-3.813,0.904l0.391,5.879l5.471-1.921L439.127,273.02L439.127,273.02z"/>
						</g>
					</g>
				</g>
				<g>
					<g>
						<polygon fill="none" stroke="#FFFFFF" points="452.502,266.379 455.979,265.651 457.242,265.933 453.9,266.762 						"/>
						<g>
							<path fill="none" stroke="#FFFFFF" d="M455.963,265.726l0.965,0.211l-3.024,0.752l-1.099-0.297L455.963,265.726
								 M455.963,265.581l-3.762,0.792l1.699,0.46l3.649-0.904L455.963,265.581L455.963,265.581z"/>
						</g>
					</g>
					<g>
						<polygon fill="none" stroke="#FFFFFF" points="452.65,271.98 452.385,266.501 453.84,266.892 454.199,272.166 						"/>
						<g>
							<path fill="none" stroke="#FFFFFF" d="M452.494,266.637l1.248,0.334l0.344,5.082l-1.338-0.166L452.494,266.637
								 M452.277,266.365l0.274,5.706l1.756,0.215l-0.37-5.473L452.277,266.365L452.277,266.365z"/>
						</g>
					</g>
					<g>
						<g>
							<polygon fill="none" stroke="#FFFFFF" points="454.111,267.093 457.178,266.364 458.863,270.362 454.436,271.917 							"/>
							<path fill="none" stroke="#FFFFFF" d="M457.025,266.666l1.493,3.544l-3.854,1.354l-0.285-4.272L457.025,266.666
								 M457.33,266.064l-3.49,0.827l0.361,5.379l5.004-1.757L457.33,266.064L457.33,266.064z"/>
						</g>
					</g>
				</g>
				<g>
					<polygon fill="none" stroke="#FFFFFF" points="367.244,333.578 364.51,334.687 361.467,318.734 364.205,317.628 					"/>
					<polygon fill="none" stroke="#FFFFFF" points="374.203,330.91 371.465,332.018 368.426,316.066 371.162,314.959 					"/>
					<polygon fill="none" stroke="#FFFFFF" points="381.162,328.24 378.426,329.348 375.383,313.396 378.119,312.289 					"/>
					<polygon fill="none" stroke="#FFFFFF" points="388.119,325.571 385.381,326.679 382.34,310.728 385.076,309.621 					"/>
					<polygon fill="none" stroke="#FFFFFF" points="395.041,322.632 392.305,323.739 389.262,307.787 392.002,306.681 					"/>
					<polygon fill="none" stroke="#FFFFFF" points="401.963,319.692 399.225,320.8 396.184,304.848 398.92,303.74 					"/>
					<polygon fill="none" stroke="#FFFFFF" points="408.918,317.024 406.182,318.132 403.139,302.177 405.875,301.07 					"/>
					<polygon fill="none" stroke="#FFFFFF" points="415.875,314.356 413.137,315.462 410.096,299.509 412.836,298.401 					"/>
					<polygon fill="none" stroke="#FFFFFF" points="422.797,311.416 420.061,312.521 417.018,296.569 419.758,295.464 					"/>
					<polygon fill="none" stroke="#FFFFFF" points="429.756,308.746 427.018,309.853 423.975,293.901 426.715,292.794 					"/>
					<polygon fill="none" stroke="#FFFFFF" points="436.678,305.806 433.938,306.913 430.896,290.961 433.637,289.854 					"/>
					<polygon fill="none" stroke="#FFFFFF" points="443.633,303.135 440.896,304.245 437.855,288.292 440.592,287.184 					"/>
					<polygon fill="none" stroke="#FFFFFF" points="450.557,300.197 447.816,301.304 444.775,285.355 447.514,284.246 					"/>
					<polygon fill="none" stroke="#FFFFFF" points="456.854,297.297 454.117,298.405 451.074,282.452 453.811,281.347 					"/>
					<polygon fill="none" stroke="#FFFFFF" points="463.197,294.688 460.459,295.796 457.418,279.845 460.156,278.737 					"/>
					<polygon fill="none" stroke="#FFFFFF" points="470.119,291.75 467.383,292.856 464.34,276.908 467.078,275.798 					"/>
					<polygon fill="none" stroke="#FFFFFF" points="476.729,288.832 473.992,289.938 470.949,273.986 473.688,272.879 					"/>
					<polygon fill="none" stroke="#FFFFFF" points="482.689,286.651 479.953,287.756 476.91,271.806 479.65,270.698 					"/>
					<polygon fill="none" stroke="#FFFFFF" points="488.619,283.792 485.883,284.9 482.838,268.947 485.578,267.842 					"/>
				</g>
				<g>
					<polyline fill="none" stroke="#FFFFFF" points="332.084,303.458 377.555,348.2 425.506,361.638 426.006,367.062 
						375.26,351.511 331.502,307.374 					"/>
					<polygon fill="none" stroke="#FFFFFF" points="334.035,301.274 378.119,344.812 426.824,359.51 425.377,361.167 
						377.615,347.69 332.113,302.818 					"/>
				</g>
			</g>
			<path opacity="0.9" fill="none" stroke="#FFFFFF" enable-background="new    " d="M441.729,329.394l50.484-15.918l19.674,6.172
				l0.455,7.1l25.275,4.761l1.32,4.015l27.506,5.225l1.396,4.395l25.697,3.764c0,0,1.322,0.496,1.488,1.984
				c0.164,1.488,0.852,2.688,0.852,2.688l33.111,4.251l1.492,4.886l2.247,0.743l27.947,4.63l2.056,7.001l-7.121,10.253l-1.455-6.114
				l-33.498-6.881l-0.697-5.773l-34.545-3.587l-0.289-5.627l-26.361-3.826l-0.284-3.968l-1.158-0.992l-27.861-5.116l-0.475-4.376
				l-15.816-2.415l2.242,21.917l140.014,36.919l4.373,11.281l-3.553,3.36l-4.389-11.423L502.584,360.15l0.359,4.882l142.961,38.309
				l4.647,9.459l-3.901,3.696l-4-8.06l-145.308-39.657l-10.965-4.166l2.24,10.152l-2.736,1.108l-2.646-10.764l-2.314,0.992
				l-0.496,1.157l2.265,10.366l-2.736,1.105l-2.174-11.306l-3.144,1.488l2.093,10.893l-2.736,1.105l-2.166-11.502l-5.291,1.819
				l-1.654-6.78l-9.922-15.875l-3.307-12.568l-14.719-5.126L441.729,329.394z"/>
			<g>
				<g>
					
						<line fill="none" stroke="#FFFFFF" stroke-width="3" stroke-linejoin="bevel" x1="417.695" y1="323" x2="418.632" y2="323.352"/>
					
						<line fill="none" stroke="#FFFFFF" stroke-width="3" stroke-linejoin="bevel" stroke-dasharray="2.0577,2.0577" x1="420.558" y1="324.076" x2="450.413" y2="335.295"/>
					<polyline fill="none" stroke="#FFFFFF" stroke-width="3" stroke-linejoin="bevel" points="451.376,335.657 452.313,336.009 
						452.519,336.987 					"/>
					<polyline fill="none" stroke="#FFFFFF" stroke-width="3" stroke-linejoin="bevel" stroke-dasharray="2.0099,2.0099" points="
						452.933,338.954 454.959,348.577 464.881,364.452 471.136,398.641 					"/>
					
						<line fill="none" stroke="#FFFFFF" stroke-width="3" stroke-linejoin="bevel" x1="471.316" y1="399.629" x2="471.496" y2="400.613"/>
				</g>
			</g>
		</g>
	</g>
</g>
</svg>
