<?xml version="1.0" encoding="utf-8"?>
<!-- Generator: Adobe Illustrator 16.0.0, SVG Export Plug-In . SVG Version: 6.00 Build 0)  -->
<!DOCTYPE svg PUBLIC "-//W3C//DTD SVG 1.1//EN" "http://www.w3.org/Graphics/SVG/1.1/DTD/svg11.dtd">
<svg version="1.1" id="图层_1" xmlns="http://www.w3.org/2000/svg" xmlns:xlink="http://www.w3.org/1999/xlink" x="0px" y="0px"
	 width="640px" height="130px" viewBox="0 0 640 130" enable-background="new 0 0 640 130" xml:space="preserve">
<rect fill="#F7CC48" width="640" height="130"/>
<g>
	<path fill="#1B3467" d="M54.7,33.471v-2.813h15.781V27.22H74.7v3.438h15.938v2.813H74.7v3.906h14.063v20.938
		c0.103,3.228-1.563,4.79-5,4.688h-3.438v-2.656h2.031c1.665,0.103,2.446-0.573,2.344-2.031V40.033H60.638v23.125h-4.063V37.377
		h13.906v-3.906H54.7z M63.138,48.627v-2.656h3.438c-0.625-1.146-0.991-2.603-1.094-4.375h3.594
		c0.103,1.563,0.469,3.022,1.094,4.375h4.844c0.52-1.146,0.938-2.603,1.25-4.375h3.594c-0.105,1.563-0.522,3.022-1.25,4.375H82.2
		v2.656h-7.5v4.063h8.594v2.656H74.7v7.031h-4.063v-7.031H62.2V52.69h8.438v-4.063H63.138z"/>
	<path fill="#1B3467" d="M94.7,59.721v-2.5c5.625-5.415,8.75-11.875,9.375-19.375h-8.594v-2.969h12.5v2.813
		C107.146,47.169,102.72,54.513,94.7,59.721z M105.481,62.689v-2.813h2.813c1.665,0.103,2.446-0.571,2.344-2.031V27.377h4.219
		v30.625c0.103,3.228-1.512,4.79-4.844,4.688L105.481,62.689L105.481,62.689z M130.638,59.721
		c-8.543-5.415-12.866-12.759-12.969-22.031v-2.813h4.531c2.707,0,5.156-0.469,7.344-1.406v3.125
		c-1.772,0.835-4.063,1.25-6.875,1.25h-1.25c0.103,7.604,3.176,14.011,9.219,19.219V59.721L130.638,59.721z"/>
	<path fill="#1B3467" d="M134.7,40.033V37.22h10.469v-9.688h4.375v29.844c0.103,3.125-1.616,4.688-5.156,4.688H134.7v-2.656h7.813
		c1.875,0,2.759-0.833,2.656-2.5V40.033H134.7z M160.95,62.064c-3.438,0-5.21-1.563-5.313-4.688V27.533h4.531v9.688h10.469v2.813
		h-10.469v16.875c-0.105,1.667,0.781,2.5,2.656,2.5h7.813v2.656L160.95,62.064L160.95,62.064z"/>
	<path fill="#1B3467" d="M177.669,60.346V41.283h-3.125v-2.656h6.719v16.406c1.145-0.625,2.188-1.353,3.125-2.188v2.969
		C182.513,57.794,180.271,59.306,177.669,60.346z M178.919,35.658c-0.522-2.5-1.406-5.156-2.656-7.969h3.281
		c1.457,2.71,2.446,5.366,2.969,7.969H178.919z M183.763,63.314v-2.813c1.563-1.563,2.29-4.271,2.188-8.125V28.939h23.438v28.75
		c0.103,3.646-1.563,5.364-5,5.156h-2.344v-2.5h1.25c1.77,0.104,2.603-0.625,2.5-2.188V31.752H189.7v19.219
		C190.013,56.7,188.032,60.814,183.763,63.314z M191.419,38.471v-2.5h4.531v-2.969h3.438v2.969h4.531v2.5h-4.531v3.75h5.156v2.5
		h-13.75v-2.5h5.156v-3.75H191.419z M192.044,58.471V47.533h11.094v6.25c0.103,3.229-1.355,4.792-4.375,4.688H192.044z
		 M195.013,55.971h3.125c1.457,0.104,2.134-0.571,2.031-2.031v-4.063h-5.156V55.971z"/>
	<path fill="#1B3467" d="M216.575,52.689V33.783h13.906V27.22h4.375v6.563h13.906v13.281c0.103,3.854-1.616,5.729-5.156,5.625h-8.75
		V63.47h-4.375V52.689H216.575z M220.638,49.877h9.844V36.596h-9.844V49.877z M244.7,36.596h-9.844v13.281h7.5
		c1.563,0,2.344-0.884,2.344-2.656V36.596z"/>
	<path fill="#1B3467" d="M255.325,52.377v-3.125c2.813-3.125,4.688-5.521,5.625-7.188c-0.313,0-0.835,0-1.563,0
		c-1.668,0.104-3.281,0.104-4.844,0v-2.813c2.813-3.438,4.79-7.396,5.938-11.875h4.063c-1.563,4.585-3.75,8.542-6.563,11.875
		c1.457,0.104,2.863,0.054,4.219-0.156c-0.105,0,0,0,0.313,0c0.415-0.728,0.988-2.031,1.719-3.906
		c0.103-0.208,0.156-0.364,0.156-0.469h3.906c-2.188,6.147-5.262,10.991-9.219,14.531c3.438-0.208,6.196-0.415,8.281-0.625v2.656
		C263.709,52.013,259.7,52.377,255.325,52.377z M254.856,59.877v-2.813c4.582,0.104,8.853-0.313,12.813-1.25v2.656
		C263.709,59.408,259.438,59.877,254.856,59.877z M268.606,35.189v-2.813h4.531c-0.105-1.563-0.156-3.228-0.156-5h4.063
		c0,1.772,0,3.438,0,5h5.313v-4.219h3.438v4.219h3.75v2.813H277.2c0,1.875,0.103,3.698,0.313,5.469h12.969v2.813h-12.656
		c0.103,1.147,0.313,2.761,0.625,4.844c0.103,0.938,0.207,1.616,0.313,2.031c0.103,0.313,0.207,0.729,0.313,1.25
		c0.207,0.625,0.363,1.147,0.469,1.563c1.978-1.665,3.906-4.009,5.781-7.031h4.219c-2.71,4.585-5.679,7.969-8.906,10.156
		c1.353,2.5,2.863,3.75,4.531,3.75c1.875,0.208,2.759-0.781,2.656-2.969h2.813c0.103,4.063-1.668,6.04-5.313,5.938
		c-3.23,0-5.835-1.667-7.813-5c-1.355,0.729-3.804,1.665-7.344,2.813c-0.938,0.313-1.616,0.571-2.031,0.781v-2.344
		c3.228-1.25,5.938-2.552,8.125-3.906c-0.522-1.25-0.938-2.759-1.25-4.531c-0.522-2.188-0.938-4.634-1.25-7.344h-5.938v-2.813h5.781
		c-0.105-1.771-0.262-3.594-0.469-5.469L268.606,35.189L268.606,35.189z"/>
	<path fill="#1B3467" d="M296.888,33.314v-2.969h31.406v2.969h-13.438v24.688h15.625v2.656h-35.625v-2.656h15.625V33.314H296.888z"
		/>
	<path fill="#1B3467" d="M335.169,32.064v-2.656h6.719c1.771,0,3.802-0.313,6.095-0.938v2.813c-1.147,0.417-2.605,0.679-4.375,0.781
		v5.469h4.219v2.656h-3.906c0.832,3.335,2.188,6.304,4.063,8.906v3.594c-2.085-2.396-3.543-4.321-4.375-5.781v16.406h-3.75V47.846
		c-1.25,2.917-3.18,5.938-5.781,9.063v-3.906c2.29-3.75,4.113-8.021,5.469-12.813H334.7v-2.656h5.156v-5.469L335.169,32.064
		L335.169,32.064z M348.606,46.283v-2.656h21.405v2.656h-8.75v4.844h7.813v2.656h-7.813v5.469h9.845v2.344h-24.375v-2.344H357.2
		v-5.469h-7.969v-2.656h7.969v-4.844H348.606z M349.856,40.189V29.252h18.905v6.406c0.104,3.125-1.563,4.636-5,4.531H349.856z
		 M353.606,37.533h9.063c1.665,0.104,2.446-0.625,2.344-2.188v-3.438h-11.405L353.606,37.533L353.606,37.533z"/>
	<path fill="#1B3467" d="M374.231,45.033v-2.969h36.875v2.969H374.231z"/>
	<path fill="#1B3467" d="M415.794,35.971v-2.813h7.188v-5.781h4.219v5.781h10.781v-5.781h4.219v5.781h7.344v2.813H442.2v11.094
		h8.594v2.813h-36.406v-2.813h8.595V35.971H415.794z M415.169,63.158v-2.5c4.79-1.353,7.863-4.114,9.219-8.281h4.531
		C427.044,58.106,422.459,61.698,415.169,63.158z M427.2,35.971v11.094h10.781V35.971H427.2z M450.169,63.158
		c-7.293-1.46-11.875-5.052-13.75-10.781h4.531c1.353,4.272,4.426,7.031,9.219,8.281V63.158z"/>
	<path fill="#1B3467" d="M454.856,35.971v-2.656h2.655v-5.938h3.595v5.938h2.344v2.656h-2.344v8.438l2.03-0.625v2.5
		c-0.104,0.104-0.313,0.21-0.625,0.313c-0.313,0.104-0.78,0.261-1.405,0.469v11.719c0.103,2.813-1.25,4.165-4.063,4.063h-2.5v-2.656
		h1.094c1.25,0,1.875-0.573,1.875-1.719V48.158c-0.938,0.104-1.929,0.313-2.969,0.625v-3.281c0.104,0,0.259,0,0.469,0
		c0.729-0.208,1.563-0.313,2.5-0.313V35.97h-2.655V35.971z M463.763,45.971v-2.5h1.25V30.346h2.97
		c0.313-0.728,0.625-1.719,0.938-2.969h3.438c0,0.21-0.055,0.417-0.156,0.625c-0.21,1.147-0.469,1.929-0.781,2.344h4.063v28.438
		c0,2.708-1.305,4.009-3.906,3.906h-2.344v-2.656h1.405c1.354,0.103,1.979-0.417,1.875-1.563v-12.5h-4.53v3.906
		c0.207,6.25-1.513,10.728-5.156,13.438v-2.813c1.563-1.978,2.29-5.259,2.188-9.844V45.97h-1.253V45.971z M467.981,33.002v10.469
		h4.53V33.002H467.981z M469.7,41.283c-0.313-1.978-0.73-3.906-1.25-5.781h2.031c0.728,1.563,1.195,3.491,1.405,5.781H469.7z
		 M469.7,54.721c-0.105-1.665-0.522-3.75-1.25-6.25h2.188c0.729,2.292,1.146,4.375,1.25,6.25H469.7z M490.794,63.158
		c-3.125-1.354-5.625-2.866-7.5-4.531c-1.875,1.458-4.271,3.021-7.188,4.688v-2.813c2.188-1.146,3.957-2.446,5.313-3.906
		c-1.979-2.5-3.491-5.781-4.531-9.844h3.281c1.04,3.542,2.031,5.991,2.969,7.344c1.354-1.875,2.446-4.688,3.281-8.438h-9.844v-2.656
		h13.281v2.5c-1.043,4.792-2.605,8.491-4.688,11.094c1.457,1.46,3.332,2.761,5.625,3.906L490.794,63.158L490.794,63.158z
		 M488.294,40.814c-2.293,0.104-3.387-1.146-3.281-3.75v-5.469h-3.594v2.5c0.207,3.75-1.46,6.25-5,7.5v-2.344
		c1.457-1.04,2.134-2.759,2.031-5.156v-5h9.531v7.344c-0.105,1.354,0.415,1.979,1.563,1.875h1.406v2.5H488.294z"/>
	<path fill="#1B3467" d="M494.7,62.846v-2.344c2.707-1.042,4.009-2.915,3.906-5.625V41.752H494.7v-2.656h7.969v14.688
		c0.104,3.647,2.031,5.522,5.781,5.625h22.188v2.656h-22.5c-3.438,0-5.78-1.042-7.03-3.125
		C499.959,60.71,497.825,62.011,494.7,62.846z M499.856,35.814c-0.419-2.396-1.305-5-2.656-7.813h3.438
		c1.354,2.397,2.396,5,3.125,7.813H499.856z M506.888,32.377v-2.813h15.156c1.875,0,4.219-0.313,7.031-0.938v2.969
		c-2.813,0.522-5.054,0.781-6.719,0.781h-1.875v8.906h10v2.656h-10v13.438h-4.22V43.939h-10.78v-2.656h10.78v-8.906H506.888z"/>
	<path fill="#1B3467" d="M545.325,62.533v-2.969h3.125c2.082,0.103,3.071-0.781,2.969-2.656V39.877
		c3.957-1.771,7.551-4.219,10.781-7.344h-26.406v-2.969h33.125v2.969c-4.063,3.647-8.387,6.46-12.969,8.438v15.781
		c0.103,3.958-1.929,5.884-6.094,5.781H545.325z"/>
	<path fill="#1B3467" d="M57.356,100.689v-2.344c5.625-1.665,9.844-4.009,12.656-7.031c-4.063,1.147-8.96,2.188-14.688,3.125v-2.5
		c5.728-1.04,10.415-2.239,14.063-3.594c-2.71-1.25-5.469-2.134-8.281-2.656v-1.875c-1.563,0.625-3.335,1.094-5.313,1.406v-2.344
		c5.52-1.458,9.582-3.958,12.188-7.5h4.531c-0.625,0.938-1.304,1.772-2.031,2.5h17.188v2.656c-4.585,4.585-9.637,7.866-15.156,9.844
		h3.125c-0.73,0.938-1.512,1.823-2.344,2.656h15.938v2.656c-7.188,8.75-18.543,13.906-34.063,15.469v-2.5
		c7.188-1.147,12.759-2.656,16.719-4.531c-3.022-1.353-6.094-2.344-9.219-2.969v-1.875C61.106,99.7,59.334,100.169,57.356,100.689z
		 M82.044,80.689H67.513c-1.355,1.042-2.969,1.929-4.844,2.656c3.438,0.417,6.613,1.304,9.531,2.656v1.094
		C75.325,85.638,78.606,83.502,82.044,80.689z M83.45,95.846H70.013c-1.668,1.147-3.594,2.136-5.781,2.969
		c3.75,0.625,7.082,1.563,10,2.813v1.406C77.669,101.056,80.74,98.658,83.45,95.846z"/>
	<path fill="#1B3467" d="M94.7,95.846v-2.813c4.165-3.646,6.77-8.489,7.813-14.531h4.063C105.428,86.212,101.47,91.993,94.7,95.846z
		 M130.638,95.533c-1.563-0.938-2.866-1.875-3.906-2.813c-5.73,9.585-16.304,15.781-31.719,18.594v-2.656
		c13.645-3.228,22.759-8.906,27.344-17.031h3.125c-3.438-2.915-5.679-7.29-6.719-13.125h4.063c0.938,5.729,3.54,10.469,7.813,14.219
		L130.638,95.533L130.638,95.533z M110.481,97.564V75.377h4.375v22.188L110.481,97.564L110.481,97.564z"/>
	<path fill="#1B3467" d="M170.638,111.158c-9.793-6.04-15.781-13.071-17.969-21.094c-2.293,7.917-8.281,14.948-17.969,21.094v-2.969
		c10.52-8.125,15.728-17.915,15.625-29.375v-3.125h4.531v3.125c-0.105,11.563,5.156,21.354,15.781,29.375L170.638,111.158
		L170.638,111.158z"/>
	<path fill="#1B3467" d="M180.794,100.846v-1.719c-0.105-2.915,1.301-5.364,4.219-7.344c3.02-2.188,4.426-4.427,4.219-6.719
		c-0.21-3.54-2.031-5.415-5.469-5.625c-3.543,0-5.887,2.241-7.031,6.719h-3.906c1.04-6.353,4.688-9.531,10.938-9.531
		c6.145,0.313,9.426,3.073,9.844,8.281c0.313,3.229-1.563,6.147-5.625,8.75c-2.188,1.563-3.23,3.491-3.125,5.781v1.406h-4.064
		V100.846z M180.481,109.439v-4.531h4.688v4.531H180.481z"/>
</g>
</svg>
