<?xml version="1.0" encoding="utf-8"?>
<!-- Generator: Adobe Illustrator 16.0.0, SVG Export Plug-In . SVG Version: 6.00 Build 0)  -->
<!DOCTYPE svg PUBLIC "-//W3C//DTD SVG 1.1//EN" "http://www.w3.org/Graphics/SVG/1.1/DTD/svg11.dtd">
<svg version="1.1" id="图层_1" xmlns="http://www.w3.org/2000/svg" xmlns:xlink="http://www.w3.org/1999/xlink" x="0px" y="0px"
	 width="640px" height="960px" viewBox="0 0 640 960" enable-background="new 0 0 640 960" xml:space="preserve">
<g>
	<g>
		<path fill="#FFFFFF" d="M121.643,317.924c3.438-0.453,6.633-0.938,9.586-1.453c-0.063,0.625-0.109,1.234-0.141,1.828
			c-2.531,0.313-5.539,0.797-9.023,1.453L121.643,317.924z M124.9,312.534c2.391-0.328,4.359-0.617,5.906-0.867
			c-0.109,0.625-0.18,1.219-0.211,1.781c-2.547,0.344-5.156,0.734-7.828,1.172l-0.422-1.734c1.18-1.203,2.441-2.859,3.785-4.969
			c-1.781,0.109-3.113,0.203-3.996,0.281l-0.445-1.594c1.719-2.281,3.305-5.07,4.758-8.367l1.781,0.703
			c-1.484,2.859-2.961,5.367-4.43,7.523c1.156-0.023,2.254-0.055,3.293-0.094c0.617-1.031,1.254-2.156,1.91-3.375l1.734,0.867
			C128.721,307.206,126.775,310.096,124.9,312.534z M129.729,307.471c1.969-2.906,3.461-5.977,4.477-9.211l1.945,0.539
			c-0.469,1.164-0.93,2.258-1.383,3.281h9.164c-0.219,7.125-0.398,12.133-0.539,15.023c-0.141,2.484-1.469,3.727-3.984,3.727
			c-1.469,0-3.031-0.047-4.688-0.141c-0.109-0.609-0.25-1.313-0.422-2.109c1.781,0.219,3.414,0.328,4.898,0.328
			c1.438,0,2.188-0.758,2.25-2.273c0.172-2.203,0.328-6.469,0.469-12.797h-7.969c-0.852,1.75-1.695,3.266-2.531,4.547
			C130.916,308.088,130.354,307.784,129.729,307.471z M133.01,308.596l1.5-0.984c1.5,1.922,2.82,3.727,3.961,5.414l-1.758,1.125
			C135.666,312.432,134.432,310.581,133.01,308.596z"/>
		<path fill="#FFFFFF" d="M145.572,313.002c1.727-2.406,3.02-5.172,3.879-8.297h-3.598v-1.57h3.633v-4.664h1.711v4.664h3.422v1.57
			h-3.422v4.078l0.938-0.961c1.078,1.047,2.07,2.055,2.977,3.023l-1.266,1.242c-0.859-1.016-1.742-2.004-2.648-2.965v12.199h-1.711
			v-12.199c-0.844,2.32-1.867,4.293-3.07,5.918C146.182,314.37,145.9,313.69,145.572,313.002z M155.486,299.948h12.328v21.422
			h-1.781v-1.594h-8.766v1.594h-1.781V299.948z M166.033,301.542h-8.766v4.5h8.766V301.542z M157.268,312.088h8.766v-4.5h-8.766
			V312.088z M157.268,318.182h8.766v-4.547h-8.766V318.182z"/>
		<path fill="#FFFFFF" d="M170.51,318.44h18.563v-4.031h-17.133v-1.664h17.133v-3.961h-17.883v-1.664h9.07v-8.695h1.945v8.695h8.813
			v14.391h-1.945v-1.406H170.51V318.44z M171.939,300.745l1.313-1.172c1.688,1.578,3.258,3.227,4.711,4.945l-1.57,1.336
			C175.08,304.135,173.596,302.432,171.939,300.745z M190.689,300.838c-1.672,1.891-3.336,3.594-4.992,5.109l-1.406-1.266
			c1.594-1.438,3.195-3.148,4.805-5.133L190.689,300.838z"/>
		<path fill="#FFFFFF" d="M193.689,307.94h10.898v-6.047h-9.023v-1.852h19.406v1.852h-8.414v6.047h10.195v1.852h-10.195v8.039
			c0,1.063-0.195,1.828-0.586,2.297c-0.438,0.547-1.258,0.836-2.461,0.867c-0.703,0-2.023-0.008-3.961-0.023
			c-0.078-0.719-0.203-1.43-0.375-2.133c1.766,0.125,2.992,0.188,3.68,0.188c0.703,0,1.172-0.133,1.406-0.398
			c0.219-0.219,0.328-0.711,0.328-1.477v-7.359h-10.898V307.94z"/>
		<path fill="#FFFFFF" d="M223.291,312.627l1.57,1.195c-1.781,2.094-3.813,4.25-6.094,6.469c-0.406-0.438-0.852-0.875-1.336-1.313
			C219.51,317.01,221.463,314.893,223.291,312.627z M219.869,311.221v-1.781l2.684-6.234h-4.605v-1.781h5.367l1.383-3.211
			l2.016,0.422l-1.219,2.789h15v1.781h-15.773l-2.719,6.234h7.055v-5.133h1.969v5.133h8.367v1.781h-8.367v6.914
			c0,1.953-1.016,2.93-3.047,2.93c-1.031,0-2.203-0.008-3.516-0.023c-0.094-0.609-0.211-1.313-0.352-2.109
			c1.031,0.133,2.141,0.203,3.328,0.211c1.078,0.008,1.617-0.547,1.617-1.664v-6.258H219.869z M233.299,314.198l1.313-1.289
			c2.156,1.781,4.313,3.648,6.469,5.602l-1.453,1.477C237.486,317.877,235.377,315.948,233.299,314.198z"/>
		<path fill="#FFFFFF" d="M241.947,302.385h11.25c-0.789-1.5-1.406-2.594-1.852-3.281l1.828-0.867
			c0.438,0.672,1.094,1.766,1.969,3.281l-1.711,0.867h11.109v1.781h-14.215c-0.055,1.422-0.113,2.633-0.176,3.633h11.32
			c-0.188,3.391-0.391,6.336-0.609,8.836c-0.172,2.828-1.547,4.242-4.125,4.242c-1.188,0-2.773-0.063-4.758-0.188
			c-0.078-0.594-0.195-1.313-0.352-2.156c1.984,0.266,3.594,0.398,4.828,0.398c1.438,0,2.242-0.852,2.414-2.555
			c0.188-1.859,0.352-4.133,0.492-6.82h-9.34c-0.438,5.156-2.824,9.156-7.16,12c-0.422-0.5-0.898-1.031-1.43-1.594
			c4.125-2.719,6.336-6.359,6.633-10.922c0.109-1.234,0.199-2.859,0.27-4.875h-6.387V302.385z"/>
		<path fill="#FFFFFF" d="M267.002,300.229h7.336v15.938h-5.578v1.711h-1.758V300.229z M272.58,301.94h-3.82v5.344h3.82V301.94z
			 M272.58,314.456v-5.508h-3.82v5.508H272.58z M274.033,321.557c-0.406-0.453-0.914-0.93-1.523-1.43
			c1.906-1.719,3.164-3.398,3.773-5.039c0.594-1.547,0.891-4,0.891-7.359v-8.25h10.289v18.984c0,1.859-0.898,2.789-2.695,2.789
			c-1.109,0-2.438-0.023-3.984-0.07c-0.094-0.625-0.211-1.266-0.352-1.922c1.547,0.094,2.797,0.141,3.75,0.141
			s1.43-0.461,1.43-1.383v-4.547h-6.984C278.189,316.393,276.658,319.088,274.033,321.557z M278.85,311.784h6.762v-4.453h-6.586
			C279.041,308.94,278.982,310.424,278.85,311.784z M285.611,301.237h-6.586v4.406h6.586V301.237z"/>
		<path fill="#FFFFFF" d="M289.525,316.471c1.094-0.344,2.164-0.691,3.211-1.043v-6.34h-2.742v-1.641h2.742v-5.016h-3.07v-1.641
			h7.711v1.641h-2.953v5.016h2.672v1.641h-2.672v5.754c1.023-0.359,2.023-0.723,3-1.09c0.031,0.703,0.07,1.313,0.117,1.828
			c-2.359,0.813-4.82,1.719-7.383,2.719L289.525,316.471z M297.986,308.643h5.93v-4.313h-3.363c-0.352,1.133-0.723,2.18-1.113,3.141
			c-0.5-0.219-1.07-0.422-1.711-0.609c0.969-2.125,1.734-4.531,2.297-7.219l1.688,0.352c-0.219,0.945-0.445,1.844-0.68,2.695h2.883
			v-4.336h1.734v4.336h5.531v1.641h-5.531v4.313h6.328v1.641h-5.59c1.594,3.219,3.84,5.797,6.738,7.734
			c-0.563,0.438-1.086,0.93-1.57,1.477c-2.539-2.219-4.508-4.922-5.906-8.109v9.867h-1.734v-9.738
			c-1.523,3.203-3.742,5.957-6.656,8.262c-0.422-0.516-0.891-0.992-1.406-1.43c3.102-2.133,5.531-4.82,7.289-8.063h-5.156V308.643z"
			/>
		<path fill="#FFFFFF" d="M313.689,300.487h10.734c-0.344-0.664-0.672-1.25-0.984-1.758l1.758-0.703
			c0.445,0.773,0.879,1.594,1.301,2.461h10.254v1.547h-23.063V300.487z M316.854,321.229h-1.781v-10.992h20.484v7.969
			c0,1.922-0.906,2.883-2.719,2.883c-1.016,0-2.156-0.016-3.422-0.047c-0.094-0.531-0.219-1.148-0.375-1.852
			c1.438,0.109,2.539,0.164,3.305,0.164c0.953,0,1.43-0.477,1.43-1.43v-6.188h-16.922V321.229z M317.697,303.581h15.211v5.719
			h-1.781v-0.75h-11.648v0.727h-1.781V303.581z M331.127,305.034h-11.648v2.063h11.648V305.034z M320.018,313.284h10.594v4.898
			h-8.906v1.008h-1.688V313.284z M328.924,316.729v-1.992h-7.219v1.992H328.924z"/>
		<path fill="#FFFFFF" d="M348.564,298.893l1.711-0.82c0.531,0.836,1.066,1.781,1.605,2.836h8.637v1.641h-18.703v7.055
			c0,5.344-1.039,9.328-3.117,11.953c-0.391-0.516-0.836-1.047-1.336-1.594c1.719-2.109,2.594-5.602,2.625-10.477v-8.578h9.727
			C349.354,300.221,348.971,299.549,348.564,298.893z M343.033,313.729v-1.547h14.695v1.523c-1.414,1.523-3.066,2.848-4.957,3.973
			c2.258,0.906,4.902,1.496,7.934,1.77l-0.914,1.828c-3.484-0.484-6.453-1.344-8.906-2.578c-2.609,1.273-5.602,2.219-8.977,2.836
			c-0.25-0.5-0.57-1.063-0.961-1.688c3.094-0.484,5.809-1.211,8.145-2.18c-1.672-1.086-3.047-2.398-4.125-3.938H343.033z
			 M342.33,305.01h3.492v-1.969h1.781v1.969h6.633v-1.992h1.781v1.992h4.266v1.547h-4.266v4.5h-1.781v-0.82h-6.633v0.844h-1.781
			v-4.523h-3.492V305.01z M355.291,313.729h-8.367c1.109,1.219,2.445,2.25,4.008,3.094
			C352.627,315.948,354.08,314.917,355.291,313.729z M347.604,308.737h6.633v-2.18h-6.633V308.737z"/>
		<path fill="#FFFFFF" d="M362.557,302.221h2.367c0.578-1.422,1.055-2.719,1.43-3.891l1.969,0.563
			c-0.492,1.195-0.969,2.305-1.43,3.328h4.688v18.656h-1.875v-1.828h-5.273v1.992h-1.875V302.221z M369.705,303.979h-5.273v5.695
			h5.273V303.979z M364.432,317.292h5.273v-5.93h-5.273V317.292z M371.932,307.026c1.469-2.328,2.711-5.227,3.727-8.695l1.969,0.492
			c-0.398,1.18-0.805,2.289-1.219,3.328h7.547c-0.188,8.031-0.344,13.086-0.469,15.164c-0.109,2.453-1.398,3.68-3.867,3.68
			c-1.422,0-2.867-0.047-4.336-0.141c-0.094-0.781-0.219-1.477-0.375-2.086h0.07c1.563,0.219,2.992,0.328,4.289,0.328
			c1.422,0,2.188-0.75,2.297-2.25c0.172-2.328,0.297-6.641,0.375-12.938h-6.281c-0.68,1.508-1.383,2.836-2.109,3.984
			C373.127,307.596,372.588,307.307,371.932,307.026z M373.994,308.62l1.43-1.055c1.734,2.047,3.117,3.82,4.148,5.32l-1.734,1.219
			C376.729,312.292,375.447,310.463,373.994,308.62z"/>
	</g>
</g>
<g>
	<g>
		<path fill="#F7CC48" d="M137.817,386.625v-39.182h-9.407l2.856-5.836h13.288v45.018H137.817z"/>
		<path fill="#F7CC48" d="M181.688,340.146h5.278l-22.261,52.379h-5.278L181.688,340.146z"/>
		<path fill="#F7CC48" d="M189.885,374.486h7.078v0.373c0,2.09,0.714,3.756,2.143,4.998c1.428,1.242,3.363,1.863,5.806,1.863
			c2.753,0,4.88-0.688,6.381-2.063c1.5-1.377,2.251-3.359,2.251-5.947c0-2.711-0.771-4.754-2.313-6.131s-3.845-2.064-6.908-2.064
			c-0.145,0-0.372,0.01-0.683,0.031c-0.311,0.02-0.549,0.031-0.715,0.031v-5.963c0.145,0,0.367,0.012,0.668,0.031
			c0.3,0.021,0.522,0.031,0.668,0.031c2.69,0,4.719-0.563,6.085-1.691c1.366-1.128,2.049-2.789,2.049-4.982
			c0-1.945-0.616-3.494-1.847-4.643c-1.232-1.148-2.883-1.723-4.952-1.723c-2.216,0-3.949,0.533-5.201,1.598
			c-1.252,1.066-1.909,2.563-1.972,4.486h-6.675c0.207-3.869,1.521-6.84,3.943-8.91c2.422-2.068,5.785-3.104,10.09-3.104
			c4.161,0,7.457,1.086,9.889,3.26c2.433,2.172,3.648,5.111,3.648,8.816c0,2.795-0.688,5.088-2.064,6.877
			c-1.377,1.791-3.286,2.873-5.729,3.244c2.877,0.518,5.065,1.781,6.566,3.789c1.501,2.008,2.251,4.668,2.251,7.979
			c0,4.037-1.412,7.24-4.238,9.609c-2.825,2.369-6.649,3.555-11.472,3.555c-4.367,0-7.886-1.205-10.556-3.617
			C191.405,381.808,190.009,378.564,189.885,374.486z"/>
	</g>
</g>
<g>
	<g>
		<path fill="#F7CC48" d="M128.348,659.619c1.056,1.945,2.411,3.436,4.067,4.471c1.655,1.035,3.498,1.553,5.526,1.553
			c3.001,0,5.434-0.956,7.296-2.87c1.863-1.916,2.795-4.437,2.795-7.562c0-3.002-0.979-5.442-2.935-7.328
			c-1.956-1.883-4.518-2.823-7.684-2.823c-1.905,0-3.669,0.325-5.294,0.977c-1.625,0.652-3.059,1.621-4.3,2.904l-1.832-0.404
			l5.65-23.068h21.485v5.992h-17.046l-2.67,10.029c1.242-0.519,2.442-0.9,3.602-1.15c1.159-0.248,2.318-0.371,3.478-0.371
			c4.326,0,7.845,1.388,10.557,4.16c2.711,2.773,4.066,6.385,4.066,10.836c0,5.092-1.583,9.154-4.75,12.187
			s-7.41,4.549-12.729,4.549c-3.146,0-5.879-0.543-8.196-1.631c-2.318-1.086-4.315-2.769-5.992-5.045L128.348,659.619z"/>
		<path fill="#F7CC48" d="M166.754,659.619c1.056,1.945,2.411,3.436,4.067,4.471c1.655,1.035,3.498,1.553,5.526,1.553
			c3.001,0,5.434-0.956,7.296-2.87c1.863-1.916,2.795-4.437,2.795-7.562c0-3.002-0.979-5.442-2.935-7.328
			c-1.956-1.883-4.518-2.823-7.684-2.823c-1.905,0-3.669,0.325-5.294,0.977c-1.625,0.652-3.059,1.621-4.3,2.904l-1.832-0.404
			l5.65-23.068h21.485v5.992h-17.046l-2.67,10.029c1.242-0.519,2.442-0.9,3.602-1.15c1.159-0.248,2.318-0.371,3.478-0.371
			c4.326,0,7.845,1.388,10.557,4.16c2.711,2.773,4.066,6.385,4.066,10.836c0,5.092-1.583,9.154-4.75,12.187
			s-7.41,4.549-12.729,4.549c-3.146,0-5.879-0.543-8.196-1.631c-2.318-1.086-4.315-2.769-5.992-5.045L166.754,659.619z"/>
		<path fill="#F7CC48" d="M218.497,673.662c-0.453-0.609-0.883-1.156-1.289-1.642c1.938-2.719,2.906-6.616,2.906-11.694v-8.672
			h19.266v7.383h-1.781v-0.867h-15.703v2.531C221.896,665.982,220.763,670.303,218.497,673.662z M221.896,653.295v3.234h15.703
			v-3.234H221.896z M233.122,668.389l1.266-1.102c2.313,2,4.148,3.727,5.508,5.18l-1.453,1.289c-0.477-0.539-0.957-1.063-1.441-1.57
			c-4.758,0.023-8.645,0.148-11.66,0.375c-0.438,0.031-0.992,0.134-1.664,0.306l-0.797-1.734c0.938-0.359,1.664-0.758,2.18-1.195
			c0.891-0.875,1.844-1.983,2.859-3.327h-5.742v-1.642H240.6v1.642h-10.266c-1.32,1.616-2.547,2.991-3.68,4.125
			c2.93-0.017,5.871-0.056,8.824-0.117C234.704,669.85,233.919,669.107,233.122,668.389z M223.841,660.725h14.672v1.642h-14.672
			V660.725z"/>
	</g>
</g>
<g>
	<g>
		<path fill="#FFFFFF" d="M121.372,597.701c1.727-2.406,3.02-5.172,3.879-8.297h-3.598v-1.57h3.633v-4.664h1.711v4.664h3.422v1.57
			h-3.422v4.078l0.938-0.962c1.078,1.048,2.07,2.056,2.977,3.023l-1.266,1.242c-0.859-1.016-1.742-2.004-2.648-2.965v12.198h-1.711
			v-12.198c-0.844,2.319-1.867,4.293-3.07,5.918C121.981,599.068,121.7,598.389,121.372,597.701z M131.286,584.646h12.328v21.423
			h-1.781v-1.595h-8.766v1.595h-1.781V584.646L131.286,584.646z M141.833,586.24h-8.766v4.5h8.766V586.24z M133.067,596.787h8.766
			v-4.5h-8.766V596.787z M133.067,602.881h8.766v-4.547h-8.766V602.881z"/>
		<path fill="#FFFFFF" d="M146.31,603.139h18.563v-4.03H147.74v-1.664h17.133v-3.961H146.99v-1.664h9.07v-8.695h1.945v8.695h8.813
			v14.391h-1.945v-1.406H146.31V603.139z M147.739,585.443l1.313-1.173c1.688,1.578,3.258,3.228,4.711,4.945l-1.57,1.336
			C150.88,588.834,149.396,587.131,147.739,585.443z M166.489,585.537c-1.672,1.891-3.336,3.594-4.992,5.108l-1.406-1.266
			c1.594-1.438,3.195-3.147,4.805-5.133L166.489,585.537z"/>
		<path fill="#FFFFFF" d="M169.489,592.639h10.898v-6.047h-9.023v-1.852h19.406v1.852h-8.414v6.047h10.195v1.853h-10.195v8.039
			c0,1.063-0.195,1.828-0.586,2.297c-0.438,0.547-1.258,0.836-2.461,0.867c-0.703,0-2.023-0.009-3.961-0.023
			c-0.078-0.719-0.203-1.43-0.375-2.133c1.766,0.125,2.992,0.188,3.68,0.188c0.703,0,1.172-0.133,1.406-0.397
			c0.219-0.219,0.328-0.711,0.328-1.478v-7.358h-10.898V592.639z"/>
		<path fill="#FFFFFF" d="M195.095,600.197c1.219,0.797,2.488,1.194,3.809,1.194c1.25,0,2.258-0.35,3.023-1.049
			c0.765-0.699,1.148-1.627,1.148-2.783c0-1.164-0.389-2.065-1.166-2.707c-0.777-0.641-1.904-0.961-3.381-0.961
			c-0.711,0-1.668,0.056-2.871,0.164v-9.223h8.93v2.027h-6.797v5.133c0.68-0.039,1.191-0.06,1.535-0.06
			c1.914,0,3.406,0.484,4.477,1.453c1.071,0.97,1.605,2.306,1.605,4.008c0,1.759-0.574,3.181-1.723,4.267s-2.734,1.629-4.758,1.629
			c-1.695,0-2.973-0.25-3.832-0.75L195.095,600.197L195.095,600.197z"/>
		<path fill="#FFFFFF" d="M209.169,600.197c1.219,0.797,2.488,1.194,3.809,1.194c1.25,0,2.258-0.35,3.023-1.049
			s1.148-1.627,1.148-2.783c0-1.164-0.389-2.065-1.166-2.707c-0.777-0.641-1.904-0.961-3.381-0.961
			c-0.711,0-1.668,0.056-2.871,0.164v-9.223h8.93v2.027h-6.797v5.133c0.68-0.039,1.191-0.06,1.535-0.06
			c1.914,0,3.406,0.484,4.477,1.453c1.071,0.97,1.605,2.306,1.605,4.008c0,1.759-0.574,3.181-1.723,4.267
			c-1.149,1.086-2.734,1.629-4.758,1.629c-1.695,0-2.973-0.25-3.832-0.75L209.169,600.197L209.169,600.197z"/>
		<path fill="#FFFFFF" d="M222.646,606.162c-0.453-0.609-0.883-1.156-1.289-1.642c1.938-2.719,2.906-6.616,2.906-11.694v-8.672
			h19.266v7.383h-1.781v-0.867h-15.703v2.531C226.044,598.482,224.911,602.803,222.646,606.162z M226.044,585.795v3.234h15.703
			v-3.234H226.044z M237.271,600.889l1.266-1.102c2.313,2,4.148,3.727,5.508,5.18l-1.453,1.289c-0.477-0.539-0.957-1.063-1.441-1.57
			c-4.758,0.023-8.645,0.148-11.66,0.375c-0.438,0.031-0.992,0.134-1.664,0.306l-0.797-1.734c0.938-0.359,1.664-0.758,2.18-1.195
			c0.891-0.875,1.844-1.983,2.859-3.327h-5.742v-1.642h18.422v1.642h-10.266c-1.32,1.616-2.547,2.991-3.68,4.125
			c2.93-0.017,5.871-0.056,8.824-0.117C238.853,602.35,238.067,601.607,237.271,600.889z M227.989,593.225h14.672v1.642h-14.672
			V593.225z"/>
		<path fill="#FFFFFF" d="M245.497,597.818c1.563-2.595,2.664-5.353,3.305-8.273h-2.977v-1.641h3.211v-4.781h1.688v4.781h2.648
			v1.641h-2.648v2.18l0.656-0.655c1.078,0.983,1.945,1.844,2.602,2.578l-1.219,1.147c-0.547-0.703-1.227-1.484-2.039-2.344v13.781
			h-1.688v-13.031c-0.781,2.781-1.719,5.008-2.813,6.68C246.021,599.209,245.778,598.521,245.497,597.818z M252.388,604.545
			c3.016-0.359,5.383-1.008,7.102-1.945c-1.5-0.655-2.977-1.28-4.43-1.875c0.625-0.78,1.227-1.594,1.805-2.438h-3.938v-1.5h4.922
			c0.359-0.563,0.719-1.148,1.078-1.758l1.641,0.68c-0.25,0.359-0.5,0.719-0.75,1.078h8.789v1.5h-3.398
			c-0.719,1.625-1.547,2.938-2.484,3.938c1.875,0.767,3.758,1.57,5.648,2.414l-0.914,1.57c-2.078-1-4.117-1.945-6.117-2.836
			c-1.813,1.328-4.5,2.281-8.063,2.859C253.013,605.639,252.716,605.076,252.388,604.545z M254.216,588.678h5.883v-5.647h1.641
			v5.647h6.398v1.5h-5.367c1.672,1.813,3.664,3.156,5.977,4.031c-0.406,0.438-0.813,0.961-1.219,1.57
			c-2.375-1.297-4.305-3-5.789-5.109v4.57h-1.641v-4.595c-1.625,2.203-3.477,4.009-5.555,5.414
			c-0.297-0.422-0.672-0.875-1.125-1.358c2.25-1.375,4.094-2.883,5.531-4.523h-4.734V588.678z M254.708,585.092l1.102-1.031
			c1.141,1,2.133,1.978,2.977,2.931l-1.266,1.147C256.755,587.186,255.817,586.17,254.708,585.092z M257.427,600.115
			c1.188,0.469,2.383,0.944,3.586,1.43c0.953-0.828,1.758-1.914,2.414-3.258h-4.664C258.325,598.896,257.88,599.506,257.427,600.115
			z M267.247,585.068c-0.922,1.108-1.93,2.188-3.023,3.233l-1.195-1.031c1.078-1.047,2.016-2.108,2.813-3.188L267.247,585.068z"/>
		<path fill="#FFFFFF" d="M269.638,585.186h10.734c-0.344-0.663-0.672-1.25-0.984-1.758l1.758-0.703
			c0.445,0.773,0.879,1.595,1.301,2.461H292.7v1.548h-23.063L269.638,585.186L269.638,585.186z M272.802,605.928h-1.781v-10.992
			h20.484v7.97c0,1.922-0.906,2.883-2.719,2.883c-1.016,0-2.156-0.016-3.422-0.047c-0.094-0.531-0.219-1.148-0.375-1.853
			c1.438,0.109,2.539,0.164,3.305,0.164c0.953,0,1.43-0.477,1.43-1.43v-6.188h-16.922V605.928z M273.646,588.279h15.211v5.719
			h-1.781v-0.75h-11.648v0.727h-1.781L273.646,588.279L273.646,588.279z M287.075,589.732h-11.648v2.063h11.648V589.732z
			 M275.966,597.982h10.594v4.897h-8.906v1.008h-1.688V597.982z M284.872,601.428v-1.992h-7.219v1.992H284.872z"/>
	</g>
</g>
<line fill="none" stroke="#F7CC48" stroke-width="2" stroke-miterlimit="10" x1="1.242" y1="731.928" x2="363.065" y2="731.928"/>
<line fill="none" stroke="#F7CC48" stroke-width="2" stroke-miterlimit="10" x1="460.271" y1="731.928" x2="641.242" y2="731.928"/>
</svg>
