<?xml version="1.0" encoding="utf-8"?>
<!-- Generator: Adobe Illustrator 16.0.0, SVG Export Plug-In . SVG Version: 6.00 Build 0)  -->
<!DOCTYPE svg PUBLIC "-//W3C//DTD SVG 1.1//EN" "http://www.w3.org/Graphics/SVG/1.1/DTD/svg11.dtd">
<svg version="1.1" id="图层_1" xmlns="http://www.w3.org/2000/svg" xmlns:xlink="http://www.w3.org/1999/xlink" x="0px" y="0px"
	 width="640px" height="960px" viewBox="0 0 640 960" enable-background="new 0 0 640 960" xml:space="preserve">
<g>
	<g>
		<path fill="#6DA5D8" d="M170.651,434.018c2.039-0.701,4.453-1.625,7.242-2.766v-7.383h-6.75v-1.734h6.75v-6.586h1.898v22.523
			h-1.898v-4.863c-1.5,0.609-3.664,1.496-6.492,2.66L170.651,434.018z M184.456,415.502h1.898v7.934
			c2.133-1.094,4.125-2.293,5.977-3.598l1.172,1.688c-1.688,1.063-4.07,2.361-7.148,3.9v8.613c0,1.063,0.586,1.594,1.758,1.594
			h1.641c1.125,0,1.758-0.529,1.898-1.594c0.141-0.984,0.266-2.266,0.375-3.844c0.688,0.279,1.352,0.529,1.992,0.75
			c-0.156,1.482-0.328,2.75-0.516,3.797c-0.297,1.781-1.398,2.672-3.305,2.672h-2.531c-2.141,0-3.211-1.055-3.211-3.164V415.502z"/>
		<path fill="#6DA5D8" d="M200.932,431.159l1.289,1.406c-2.094,1.576-4.195,3.021-6.305,4.336c-0.297-0.531-0.656-1.057-1.078-1.57
			C196.979,434.096,199.01,432.706,200.932,431.159z M194.909,418.479h10.828c-0.445-0.828-0.953-1.68-1.523-2.555l1.711-0.844
			c0.625,0.938,1.234,1.906,1.828,2.906l-0.938,0.492h11.016v1.641h-22.922V418.479L194.909,418.479z M197.956,422.206h16.758v7.922
			h-1.828v-0.938h-5.391v5.951c0,1.854-0.883,2.789-2.648,2.813c-1.125,0-2.148,0-3.07,0c-0.109-0.672-0.227-1.305-0.352-1.898
			c1.047,0.096,1.953,0.143,2.719,0.143c0.984,0.029,1.477-0.479,1.477-1.523v-5.482h-5.836v1.055h-1.828L197.956,422.206
			L197.956,422.206z M212.885,423.823h-13.102v3.75h13.102V423.823z M210.026,432.729l1.102-1.406
			c2.141,1.266,4.195,2.547,6.164,3.844l-1.242,1.617C214.393,435.549,212.385,434.198,210.026,432.729z"/>
		<path fill="#6DA5D8" d="M230.627,435.178h-11.039v-1.992l5.273-5.262c1.453-1.453,2.426-2.604,2.918-3.451
			c0.492-0.847,0.738-1.725,0.738-2.631c0-1.031-0.289-1.822-0.867-2.373c-0.578-0.551-1.414-0.826-2.508-0.826
			c-1.617,0-3.16,0.688-4.629,2.063v-2.332c1.43-1.102,3.094-1.652,4.992-1.652c1.633,0,2.922,0.441,3.867,1.324
			c0.945,0.883,1.418,2.07,1.418,3.563c0,1.125-0.303,2.229-0.908,3.311s-1.752,2.459-3.439,4.131l-4.137,4.043v0.047h8.32
			L230.627,435.178L230.627,435.178z"/>
		<path fill="#6DA5D8" d="M242.885,417.026l-8.707,21.166h-2.145l8.707-21.166H242.885z"/>
		<path fill="#6DA5D8" d="M244.35,432.143c1.242,0.963,2.645,1.441,4.207,1.441c1.25,0,2.24-0.307,2.971-0.92
			s1.096-1.438,1.096-2.467c0-2.297-1.645-3.445-4.934-3.445h-1.512v-1.898h1.441c2.914,0,4.371-1.076,4.371-3.232
			c0-1.992-1.113-2.988-3.34-2.988c-1.273,0-2.473,0.43-3.598,1.289v-2.168c1.188-0.688,2.574-1.031,4.16-1.031
			c1.547,0,2.789,0.404,3.727,1.213s1.406,1.857,1.406,3.146c0,2.375-1.211,3.902-3.633,4.582v0.047
			c1.313,0.141,2.35,0.604,3.111,1.389c0.761,0.785,1.143,1.766,1.143,2.938c0,1.633-0.588,2.949-1.764,3.949
			c-1.176,1-2.74,1.5-4.693,1.5c-1.719,0-3.105-0.32-4.16-0.961L244.35,432.143L244.35,432.143z"/>
		<path fill="#6DA5D8" d="M258.084,419.112h2.367c0.578-1.422,1.055-2.719,1.43-3.891l1.969,0.563
			c-0.492,1.195-0.969,2.305-1.43,3.328h4.688v18.656h-1.875v-1.826h-5.273v1.99h-1.875L258.084,419.112L258.084,419.112z
			 M265.233,420.87h-5.273v5.695h5.273V420.87z M259.959,434.182h5.273v-5.93h-5.273V434.182z M267.459,423.917
			c1.469-2.328,2.711-5.227,3.727-8.695l1.969,0.492c-0.398,1.18-0.805,2.289-1.219,3.328h7.547
			c-0.188,8.031-0.344,13.086-0.469,15.164c-0.109,2.453-1.398,3.68-3.867,3.68c-1.422,0-2.867-0.047-4.336-0.141
			c-0.094-0.781-0.219-1.479-0.375-2.086h0.07c1.563,0.219,2.992,0.328,4.289,0.328c1.422,0,2.188-0.75,2.297-2.25
			c0.172-2.328,0.297-6.643,0.375-12.938h-6.281c-0.68,1.508-1.383,2.836-2.109,3.984
			C268.655,424.487,268.116,424.198,267.459,423.917z M269.522,425.51l1.43-1.055c1.734,2.047,3.117,3.82,4.148,5.32l-1.734,1.219
			C272.256,429.182,270.975,427.354,269.522,425.51z"/>
		<path fill="#6DA5D8" d="M292.327,437.932v-7.451h-6.82c-0.266,3.25-1.211,5.943-2.836,8.086c-0.406-0.518-0.867-1.057-1.383-1.617
			c1.016-1.438,1.703-3.031,2.063-4.781c0.344-1.688,0.516-4.078,0.516-7.172v-8.367h19.102v18.633c0,1.859-0.883,2.789-2.646,2.789
			c-1.078,0-2.289-0.021-3.633-0.069c-0.078-0.517-0.195-1.163-0.352-1.944c1.359,0.094,2.461,0.141,3.305,0.141
			c0.971,0,1.453-0.461,1.453-1.383v-4.313h-6.891v7.452L292.327,437.932L292.327,437.932z M285.635,428.792h6.691v-4.383h-6.586
			C285.788,425.924,285.752,427.385,285.635,428.792z M285.741,418.362v4.359h6.586v-4.359H285.741z M301.092,418.362h-6.891v4.359
			h6.891V418.362z M294.202,428.792h6.891v-4.383h-6.891V428.792z"/>
		<path fill="#6DA5D8" d="M305.709,422.815v-1.781h8.086v1.711c-1.328,5.125-3.75,9.516-7.266,13.172
			c-0.531-0.609-1.008-1.086-1.432-1.43c3.531-3.721,5.807-7.609,6.82-11.672H305.709z M315.717,415.315h1.898v3.762
			c0.672,1.828,1.439,3.527,2.309,5.098c1.728-1.438,3.449-3.156,5.167-5.156l1.57,1.406c-1.828,1.914-3.758,3.699-5.789,5.355
			c2.062,3.266,4.585,5.918,7.57,7.957c-0.656,0.654-1.188,1.242-1.596,1.758c-4.107-3.234-7.187-7.238-9.232-12.012v10.957
			c0,2.326-1.117,3.49-3.354,3.49c-0.688,0-1.703-0.008-3.047-0.021c-0.078-0.578-0.203-1.281-0.375-2.109
			c1.25,0.125,2.268,0.188,3.047,0.188c1.221,0,1.828-0.586,1.828-1.76v-18.915L315.717,415.315L315.717,415.315z"/>
		<path fill="#6DA5D8" d="M337.35,438.284v-2.156h-8.039v-1.406h8.039V433.2h-6.865v-1.359h6.865v-1.477h-7.357v-1.406h7.357v-1.125
			h1.734v10.453L337.35,438.284L337.35,438.284z M329.357,420.049h10.5v-1.641h-5.953c-0.518,0.508-1.047,0.992-1.596,1.453
			c-0.451-0.422-0.922-0.766-1.404-1.031c1.482-1.063,2.719-2.273,3.703-3.633l1.641,0.633c-0.344,0.422-0.691,0.828-1.043,1.219
			h4.652v-1.828h1.779v1.828h8.51v1.359h-8.51v1.641h10.5v1.406h-22.779V420.049z M332.686,422.909h16.125v4.969h-1.688v-0.492
			h-12.75v0.492h-1.688L332.686,422.909L332.686,422.909z M347.123,424.268h-12.75v1.76h12.75V424.268z M342.436,438.284v-10.453
			h1.734v1.125h7.406v1.406h-7.406v1.477h6.891v1.289h-6.891v1.523h8.109v1.547h-8.109v2.086H342.436z"/>
		<path fill="#6DA5D8" d="M353.053,427.713c1.07-0.305,2.104-0.604,3.096-0.902v-5.262h-2.838v-1.617h2.838v-4.523h1.779v4.523
			h2.721v1.617h-2.721v4.725c0.906-0.281,1.773-0.561,2.604-0.832c-0.031,0.438-0.047,1.039-0.047,1.805
			c-0.885,0.281-1.734,0.559-2.557,0.832v7.348c0,1.688-0.766,2.547-2.297,2.578c-0.563,0.016-1.258,0.016-2.086,0
			c-0.078-0.734-0.18-1.383-0.305-1.945c0.656,0.096,1.313,0.143,1.969,0.143c0.625,0,0.938-0.345,0.938-1.031v-6.492
			c-0.992,0.336-1.938,0.664-2.838,0.984L353.053,427.713z M367.326,415.385h1.688v4.57h6.047v18.094h-1.688v-1.146h-10.406v1.146
			h-1.688v-18.094h6.047V415.385z M362.967,421.526v5.836h4.359v-5.836H362.967z M362.967,435.331h4.359v-6.445h-4.359V435.331z
			 M373.373,421.526h-4.359v5.836h4.359V421.526z M369.014,435.331h4.359v-6.445h-4.359V435.331z"/>
		<path fill="#6DA5D8" d="M377.076,432.776c0.688-0.086,1.391-0.178,2.107-0.271V418.01h-1.758v-1.641h11.484v0.82h10.242v1.477
			c-0.906,5.766-2.242,10.012-4.01,12.738c1.479,2.086,3.25,3.707,5.32,4.861c-0.438,0.453-0.914,1.031-1.43,1.734
			c-1.672-1.219-3.32-2.922-4.945-5.109c-1.578,2.07-3.453,3.867-5.625,5.393c-0.445-0.586-0.844-1.078-1.195-1.479v1.453h-1.758
			v-5.074c-2.852,0.445-5.578,0.889-8.18,1.324L377.076,432.776z M380.943,421.596h4.568v-3.586h-4.568V421.596z M380.943,426.682
			h4.568v-3.586h-4.568V426.682z M385.514,431.604v-3.424h-4.568v4.092C382.404,432.061,383.928,431.838,385.514,431.604z
			 M388.725,418.784v-0.773h-1.451v13.324c0.875-0.141,1.766-0.285,2.672-0.434c-0.047,0.641-0.07,1.18-0.07,1.615
			c-0.883,0.135-1.75,0.268-2.602,0.398v3.773c2.188-1.281,4.115-3.043,5.787-5.285c-1.805-2.875-2.965-7.082-3.479-12.621
			L388.725,418.784L388.725,418.784z M397.396,418.784h-6.117c0.367,4.57,1.318,8.25,2.857,11.039
			C395.498,427.534,396.584,423.854,397.396,418.784z"/>
		<path fill="#6DA5D8" d="M400.912,434.042c1.117-0.359,2.242-0.727,3.375-1.102v-9.354h-3.023v-1.641h3.023v-6.539h1.734v6.539
			h2.719v1.641h-2.719v8.768c0.99-0.346,1.99-0.695,3-1.057c0.029,0.656,0.086,1.234,0.162,1.734
			c-2.563,0.922-5.102,1.857-7.615,2.813L400.912,434.042z M415.654,415.292h1.828v6.059l5.693-1.723
			c-0.094,3.078-0.188,5.594-0.279,7.547c-0.096,2.109-0.938,3.172-2.531,3.188c-0.719,0.016-1.422,0.016-2.109,0
			c-0.094-0.578-0.211-1.229-0.352-1.945c0.75,0.094,1.396,0.141,1.943,0.141c0.813,0.018,1.234-0.576,1.268-1.779
			c0.094-1.422,0.146-3.039,0.164-4.854l-3.797,1.186v10.158h-1.828v-9.598l-3.539,1.104v9.082c0,1.219,0.664,1.826,1.992,1.826
			h5.74c1.438,0,2.234-0.576,2.393-1.732c0.188-1,0.344-2.164,0.469-3.492c0.625,0.25,1.273,0.477,1.945,0.68
			c-0.221,1.5-0.432,2.72-0.633,3.656c-0.375,1.781-1.604,2.672-3.682,2.672h-6.68c-2.25,0-3.375-1.102-3.375-3.305v-8.813
			l-1.758,0.539l-0.307-1.732l2.063-0.621v-5.473h1.828v4.922l3.539-1.066L415.654,415.292L415.654,415.292z"/>
		<path fill="#6DA5D8" d="M425.357,417.167h22.779v1.922h-11.391v5.109l1.078-1.5c3.578,2.107,6.578,4.008,9,5.693l-1.383,1.898
			c-2.424-1.859-5.32-3.82-8.695-5.883v13.758h-2.133v-19.078h-9.258L425.357,417.167L425.357,417.167z"/>
		<path fill="#6DA5D8" d="M449.709,422.815v-1.781h8.086v1.711c-1.328,5.125-3.75,9.516-7.266,13.172
			c-0.531-0.609-1.008-1.086-1.432-1.43c3.531-3.721,5.807-7.609,6.82-11.672H449.709z M459.717,415.315h1.898v3.762
			c0.672,1.828,1.439,3.527,2.309,5.098c1.729-1.438,3.449-3.156,5.168-5.156l1.57,1.406c-1.828,1.914-3.758,3.699-5.789,5.355
			c2.063,3.266,4.586,5.918,7.57,7.957c-0.656,0.654-1.188,1.242-1.596,1.758c-4.107-3.234-7.188-7.238-9.232-12.012v10.957
			c0,2.326-1.117,3.49-3.354,3.49c-0.688,0-1.703-0.008-3.047-0.021c-0.078-0.578-0.203-1.281-0.375-2.109
			c1.25,0.125,2.268,0.188,3.047,0.188c1.221,0,1.828-0.586,1.828-1.76L459.717,415.315L459.717,415.315z"/>
		<path fill="#6DA5D8" d="M477.318,431.944c0.766,0,1.43,0.297,1.99,0.891c0.563,0.594,0.846,1.285,0.846,2.074
			c0,0.891-0.285,1.615-0.855,2.174s-1.258,0.838-2.063,0.838c-0.807,0-1.498-0.285-2.08-0.854c-0.582-0.57-0.873-1.281-0.873-2.135
			c0-0.865,0.309-1.582,0.926-2.145C475.826,432.225,476.529,431.944,477.318,431.944z M477.283,436.209
			c0.297,0,0.574-0.113,0.832-0.34c0.258-0.229,0.387-0.521,0.387-0.879c0-0.398-0.125-0.717-0.375-0.955s-0.555-0.357-0.914-0.357
			c-0.336,0-0.625,0.119-0.867,0.357s-0.361,0.553-0.361,0.941c0,0.385,0.143,0.686,0.428,0.902S476.986,436.209,477.283,436.209z"
			/>
		<path fill="#6DA5D8" d="M171.284,458.104h6.891c0.383-0.945,0.727-1.914,1.031-2.906l1.945,0.492
			c-0.273,0.818-0.566,1.625-0.879,2.414h13.605v1.732h-14.344c-0.93,2.086-2.016,4.051-3.258,5.896v12.408h-1.828v-9.912
			c-0.844,1.055-1.742,2.063-2.695,3.021c-0.328-0.547-0.703-1.109-1.125-1.688c2.875-2.984,5.137-6.229,6.785-9.729h-6.129
			L171.284,458.104L171.284,458.104z M177.096,474.768h7.336v-7.008h-6.094v-1.688h6.094v-4.711h1.922v4.711h6.188v1.688h-6.188
			v7.008h7.523v1.643h-16.781V474.768L177.096,474.768z"/>
		<path fill="#6DA5D8" d="M204.588,475.729l6.305,0.115l7.125-0.232c-0.266,0.625-0.516,1.242-0.75,1.852l-6.867,0.094l-6-0.141
			c-2.688-0.031-4.664-0.922-5.93-2.672c-0.438,0.344-1.344,1.328-2.719,2.953l-0.984-1.969c1.211-1.109,2.172-1.967,2.883-2.566
			v-8.051h-2.719v-1.688h4.523v10.16C200.604,474.975,202.315,475.69,204.588,475.729z M197.182,455.385
			c1.031,1.188,2.156,2.643,3.375,4.359c-0.625,0.375-1.18,0.75-1.664,1.125c-1.078-1.672-2.117-3.164-3.117-4.479L197.182,455.385z
			 M201.706,459.768h10.055v-4.477h1.898v4.477h4.031v1.713h-4.031v9.727c0,2.016-0.969,3.023-2.906,3.023
			c-1.016,0-2.203-0.01-3.563-0.023c-0.078-0.609-0.195-1.313-0.352-2.109c1.25,0.125,2.414,0.188,3.492,0.188
			c0.969,0,1.445-0.547,1.43-1.643v-9.164h-10.055L201.706,459.768L201.706,459.768z M202.643,464.268l1.43-1.055
			c1.703,2.172,3.008,3.883,3.914,5.133l-1.617,1.195C205.088,467.588,203.846,465.831,202.643,464.268z"/>
		<path fill="#6DA5D8" d="M218.956,466.284h10.406v-5.297h-8.484v-1.781h8.484v-4.102h2.039v4.102h8.648v1.781h-8.648v5.297h10.5
			v1.781h-11.602c-1.703,2.383-3.617,4.789-5.742,7.219c1.773-0.047,5.707-0.168,11.801-0.363c-1.039-1.391-2.137-2.809-3.293-4.254
			l1.477-1.031c2.109,2.484,4.141,5.023,6.094,7.617l-1.734,1.172c-0.453-0.646-0.922-1.305-1.406-1.969
			c-5.242,0.172-9.781,0.406-13.617,0.703c-0.453,0.047-1.125,0.172-2.016,0.375l-1.008-1.945c0.781-0.266,1.43-0.656,1.945-1.172
			c1.68-1.789,3.328-3.906,4.945-6.352h-8.789V466.284z"/>
		<path fill="#6DA5D8" d="M243.682,459.112h2.367c0.578-1.422,1.055-2.721,1.43-3.893l1.969,0.563
			c-0.492,1.194-0.969,2.305-1.43,3.328h4.688v18.654h-1.875v-1.826h-5.273v1.99h-1.875L243.682,459.112L243.682,459.112z
			 M250.831,460.87h-5.273v5.695h5.273V460.87z M245.557,474.182h5.273v-5.93h-5.273V474.182z M253.057,463.917
			c1.469-2.328,2.711-5.227,3.727-8.695l1.969,0.492c-0.398,1.18-0.805,2.289-1.219,3.328h7.547
			c-0.188,8.031-0.344,13.086-0.469,15.164c-0.109,2.453-1.398,3.68-3.867,3.68c-1.422,0-2.867-0.047-4.336-0.141
			c-0.094-0.781-0.219-1.479-0.375-2.086h0.07c1.563,0.219,2.992,0.328,4.289,0.328c1.422,0,2.188-0.75,2.297-2.25
			c0.172-2.328,0.297-6.643,0.375-12.938h-6.281c-0.68,1.508-1.383,2.836-2.109,3.984
			C254.252,464.487,253.713,464.198,253.057,463.917z M255.12,465.51l1.43-1.055c1.734,2.047,3.117,3.82,4.148,5.32l-1.734,1.219
			C257.854,469.182,256.573,467.354,255.12,465.51z"/>
		<path fill="#6DA5D8" d="M271.877,456.581h11.578v17.367c0,1.016,0.445,1.521,1.336,1.521h1.313c0.875,0,1.375-0.477,1.5-1.43
			c0.156-1,0.297-2.227,0.422-3.68c0.609,0.266,1.289,0.516,2.039,0.75c-0.203,1.547-0.383,2.74-0.539,3.586
			c-0.281,1.766-1.313,2.646-3.094,2.646h-2.063c-1.953,0-2.93-1.063-2.93-3.188v-15.773h-7.547v5.932
			c0,3.719-0.383,6.422-1.148,8.107c-0.844,1.922-2.414,3.758-4.711,5.508c-0.375-0.5-0.836-1.068-1.383-1.711
			c2.109-1.563,3.508-3.154,4.195-4.779c0.688-1.453,1.031-3.828,1.031-7.125L271.877,456.581L271.877,456.581z"/>
		<path fill="#6DA5D8" d="M290.932,464.01h10.334v-8.646h2.156v8.646h10.359v1.898h-10.359v12.375h-2.156v-12.375h-10.334V464.01z"
			/>
		<path fill="#6DA5D8" d="M314.792,470.385h3.773v-6.703h8.296v-4.172h-6.892c-1.055,1.898-2.232,3.648-3.539,5.25
			c-0.404-0.438-0.891-0.875-1.453-1.313c2.221-2.5,3.885-5.307,4.992-8.414l1.921,0.539c-0.326,0.771-0.672,1.521-1.029,2.25
			h16.125v1.688h-8.229v4.172h7.828v1.643h-7.828v5.063h9.281v1.688h-9.281v6.328h-1.896v-6.328h-12.07L314.792,470.385
			L314.792,470.385z M320.417,470.385h6.445v-5.063h-6.445V470.385z"/>
		<path fill="#6DA5D8" d="M340.314,460.284h9.021v-5.109h2.016v5.109h9.117v10.688h-1.922v-1.266h-7.195v8.719h-2.016v-8.719h-7.102
			v1.266h-1.922L340.314,460.284L340.314,460.284z M342.236,467.971h7.102v-5.953h-7.102V467.971z M358.549,462.018h-7.195v5.953
			h7.195V462.018z"/>
		<path fill="#6DA5D8" d="M375.588,472.272l-1.979,6.244h-1.643l1.441-6.244H375.588z"/>
		<path fill="#6DA5D8" d="M170.651,514.018c2.039-0.701,4.453-1.625,7.242-2.766v-7.383h-6.75v-1.734h6.75v-6.586h1.898v22.523
			h-1.898v-4.863c-1.5,0.609-3.664,1.496-6.492,2.66L170.651,514.018z M184.456,495.502h1.898v7.934
			c2.133-1.094,4.125-2.293,5.977-3.598l1.172,1.688c-1.688,1.063-4.07,2.361-7.148,3.9v8.613c0,1.063,0.586,1.594,1.758,1.594
			h1.641c1.125,0,1.758-0.53,1.898-1.594c0.141-0.984,0.266-2.266,0.375-3.844c0.688,0.279,1.352,0.529,1.992,0.75
			c-0.156,1.482-0.328,2.75-0.516,3.797c-0.297,1.781-1.398,2.672-3.305,2.672h-2.531c-2.141,0-3.211-1.055-3.211-3.164V495.502z"/>
		<path fill="#6DA5D8" d="M200.932,511.158l1.289,1.405c-2.094,1.577-4.195,3.022-6.305,4.337c-0.297-0.531-0.656-1.057-1.078-1.57
			C196.979,514.096,199.01,512.705,200.932,511.158z M194.909,498.479h10.828c-0.445-0.828-0.953-1.682-1.523-2.557l1.711-0.844
			c0.625,0.938,1.234,1.906,1.828,2.906l-0.938,0.49h11.016v1.643h-22.922V498.479L194.909,498.479z M197.956,502.205h16.758v7.922
			h-1.828v-0.938h-5.391v5.951c0,1.854-0.883,2.789-2.648,2.813c-1.125,0-2.148,0-3.07,0c-0.109-0.672-0.227-1.305-0.352-1.898
			c1.047,0.096,1.953,0.143,2.719,0.143c0.984,0.029,1.477-0.479,1.477-1.523v-5.483h-5.836v1.056h-1.828L197.956,502.205
			L197.956,502.205z M212.885,503.822h-13.102v3.75h13.102V503.822z M210.026,512.729l1.102-1.406
			c2.141,1.266,4.195,2.547,6.164,3.844l-1.242,1.617C214.393,515.549,212.385,514.197,210.026,512.729z"/>
		<path fill="#6DA5D8" d="M219.682,499.111h2.367c0.578-1.422,1.055-2.721,1.43-3.893l1.969,0.563
			c-0.492,1.193-0.969,2.305-1.43,3.328h4.688v18.654h-1.875v-1.828h-5.273v1.992h-1.875L219.682,499.111L219.682,499.111z
			 M226.831,500.869h-5.273v5.695h5.273V500.869z M221.557,514.182h5.273v-5.93h-5.273V514.182z M229.057,503.916
			c1.469-2.328,2.711-5.227,3.727-8.695l1.969,0.492c-0.398,1.18-0.805,2.289-1.219,3.328h7.547
			c-0.188,8.031-0.344,13.086-0.469,15.164c-0.109,2.453-1.398,3.68-3.867,3.68c-1.422,0-2.867-0.047-4.336-0.141
			c-0.094-0.781-0.219-1.479-0.375-2.086h0.07c1.563,0.219,2.992,0.328,4.289,0.328c1.422,0,2.188-0.75,2.297-2.25
			c0.172-2.328,0.297-6.643,0.375-12.938h-6.281c-0.68,1.508-1.383,2.836-2.109,3.984
			C230.252,504.486,229.713,504.197,229.057,503.916z M231.12,505.51l1.43-1.055c1.734,2.047,3.117,3.82,4.148,5.32l-1.734,1.219
			C233.854,509.182,232.573,507.354,231.12,505.51z"/>
		<path fill="#6DA5D8" d="M242.51,514.041c1.117-0.359,2.242-0.727,3.375-1.102v-9.354h-3.023v-1.641h3.023v-6.539h1.734v6.539
			h2.719v1.641h-2.719v8.767c0.992-0.345,1.992-0.694,3-1.056c0.031,0.656,0.086,1.234,0.164,1.734
			c-2.563,0.922-5.102,1.857-7.617,2.813L242.51,514.041z M257.252,495.291h1.828v6.059l5.695-1.723
			c-0.094,3.078-0.188,5.594-0.281,7.547c-0.094,2.109-0.938,3.172-2.531,3.188c-0.719,0.016-1.422,0.016-2.109,0
			c-0.094-0.578-0.211-1.229-0.352-1.945c0.75,0.094,1.398,0.141,1.945,0.141c0.813,0.018,1.234-0.578,1.266-1.779
			c0.094-1.424,0.148-3.039,0.164-4.854l-3.797,1.186v10.158h-1.828v-9.598l-3.539,1.103v9.081c0,1.221,0.664,1.828,1.992,1.828
			h5.742c1.438,0,2.234-0.578,2.391-1.732c0.188-1,0.344-2.164,0.469-3.492c0.625,0.25,1.273,0.477,1.945,0.68
			c-0.219,1.5-0.43,2.72-0.633,3.656c-0.375,1.781-1.602,2.672-3.68,2.672h-6.68c-2.25,0-3.375-1.102-3.375-3.305v-8.813
			l-1.758,0.539l-0.305-1.732l2.063-0.621v-5.475h1.828v4.923l3.539-1.065L257.252,495.291L257.252,495.291z"/>
		<path fill="#6DA5D8" d="M266.956,497.166h22.781v1.922h-11.391v5.109l1.078-1.5c3.578,2.107,6.578,4.008,9,5.693l-1.383,1.898
			c-2.422-1.859-5.32-3.82-8.695-5.883v13.758h-2.133v-19.078h-9.258L266.956,497.166L266.956,497.166z"/>
		<path fill="#6DA5D8" d="M291.307,502.814v-1.781h8.084v1.711c-1.326,5.125-3.75,9.516-7.266,13.172
			c-0.531-0.609-1.008-1.086-1.43-1.43c3.531-3.721,5.805-7.609,6.82-11.672H291.307L291.307,502.814z M301.315,495.314h1.896v3.762
			c0.672,1.828,1.441,3.525,2.311,5.098c1.727-1.438,3.447-3.156,5.168-5.156l1.568,1.406c-1.828,1.914-3.758,3.699-5.789,5.355
			c2.063,3.266,4.586,5.918,7.57,7.957c-0.656,0.654-1.188,1.24-1.594,1.758c-4.109-3.234-7.188-7.238-9.234-12.012v10.956
			c0,2.327-1.117,3.491-3.352,3.491c-0.688,0-1.703-0.008-3.047-0.021c-0.078-0.578-0.203-1.281-0.375-2.109
			c1.25,0.125,2.266,0.188,3.047,0.188c1.219,0,1.828-0.586,1.828-1.76L301.315,495.314L301.315,495.314z"/>
		<path fill="#6DA5D8" d="M314.651,506.588c2.232-3.375,3.922-7.164,5.063-11.367l1.992,0.492c-0.648,1.984-1.343,3.836-2.085,5.555
			v17.109h-1.758v-13.441c-0.734,1.375-1.508,2.646-2.32,3.811C315.323,508.15,315.026,507.432,314.651,506.588z M321.049,515.4
			h9.152c1.125-3.01,2.426-7.299,3.902-12.867l2.107,0.633c-0.945,2.898-2.289,6.977-4.031,12.234h5.859v1.732h-16.992
			L321.049,515.4L321.049,515.4z M321.541,499.463h8.262c-0.693-1.172-1.465-2.258-2.309-3.258l1.594-1.104
			c0.688,0.799,1.539,1.867,2.555,3.213l-1.732,1.146h7.711v1.734h-16.078L321.541,499.463L321.541,499.463z M324.729,502.768
			c1.031,2.813,2.156,6.221,3.375,10.221l-1.943,0.563c-1.063-3.828-2.133-7.219-3.211-10.172L324.729,502.768z"/>
		<path fill="#6DA5D8" d="M338.955,497.166h22.781v1.922h-11.393v5.109l1.078-1.5c3.578,2.107,6.578,4.008,9,5.693l-1.383,1.898
			c-2.422-1.859-5.32-3.82-8.695-5.883v13.758h-2.133v-19.078h-9.258L338.955,497.166L338.955,497.166z"/>
		<path fill="#6DA5D8" d="M370.525,508.885c0.404,2.922-0.336,4.604-2.229,5.039c-0.5,0.109-1.18,0.117-2.039,0.023
			c-0.172-0.672-0.344-1.307-0.516-1.898c0.766,0.203,1.406,0.268,1.922,0.188c1.063-0.188,1.422-1.307,1.078-3.354
			c-0.281-1.563-0.906-2.969-1.875-4.219c0.688-2.25,1.289-4.336,1.805-6.258h-3.07v19.922h-1.758v-21.563h6.75v1.643
			c-0.982,3.125-1.607,5.107-1.875,5.953C369.705,505.783,370.307,507.291,370.525,508.885z M370.83,501.619
			c1.844-1.768,3.383-3.883,4.617-6.354l1.594,0.703c-0.289,0.508-0.578,1-0.867,1.479h7.875v1.594
			c-0.961,1.555-2.305,2.918-4.031,4.09c1.393,0.604,3.406,1.113,6.049,1.535c-0.078,0.188-0.328,0.75-0.75,1.688
			c-3.063-0.602-5.41-1.326-7.045-2.18c-1.912,1.023-4.197,1.867-6.854,2.531c-0.25-0.578-0.531-1.094-0.844-1.547
			c2.318-0.479,4.361-1.146,6.129-2.004c-0.979-0.781-1.816-1.715-2.521-2.803c-0.693,0.906-1.404,1.729-2.133,2.463
			C371.689,502.393,371.283,501.994,370.83,501.619z M373.314,512.986h4.5v-3.773h-6.096v-1.594h6.096v-2.18h1.758v2.18h5.602v1.594
			h-5.602v3.773h5.789v1.594h-5.789v3.771h-1.758v-3.771h-6.26v-1.711l0.914-3.023h1.758L373.314,512.986z M382.01,499.041h-6.832
			c0.961,1.375,2.021,2.441,3.176,3.199C379.807,501.334,381.025,500.268,382.01,499.041z"/>
		<path fill="#6DA5D8" d="M397.736,503.963c2.672-1.641,5.154-3.32,7.453-5.039h-17.604v-1.943h20.836v2.318
			c-2.797,1.922-5.656,3.797-8.578,5.625v8.625c0,1.547-0.297,2.617-0.891,3.211c-0.578,0.625-1.648,0.945-3.211,0.961
			c-0.859,0-2.133-0.021-3.82-0.068c-0.094-0.781-0.219-1.539-0.375-2.273c1.563,0.172,2.906,0.267,4.031,0.281
			c1.438,0.016,2.156-0.695,2.156-2.133L397.736,503.963L397.736,503.963z"/>
	</g>
</g>
<g>
	<g>
		<path fill="#F7CC48" d="M212.987,650.744v-18.125h-42.84l51.994-72.132h4.089v62.002h10.862v10.13H226.23v18.125H212.987z
			 M213.354,590.39l-22.763,32.102h22.396V599.24c0-1.222,0.03-2.583,0.092-4.088C213.14,593.646,213.231,592.059,213.354,590.39z"
			/>
		<path fill="#F7CC48" d="M313.862,607.722c0,14.198-2.858,25.315-8.574,33.352s-13.578,12.053-23.586,12.053
			c-10.131,0-18.013-4.058-23.647-12.175c-5.636-8.116-8.452-19.52-8.452-34.204c0-14.564,2.848-25.915,8.544-34.053
			c5.695-8.138,13.608-12.205,23.738-12.205c10.253,0,18.146,4.079,23.68,12.234C311.096,580.881,313.862,592.547,313.862,607.722z
			 M281.458,640.614c5.939,0,10.404-2.838,13.395-8.516c2.99-5.675,4.485-14.167,4.485-25.478c0-10.984-1.475-19.354-4.424-25.112
			c-2.95-5.756-7.253-8.635-12.907-8.635c-5.899,0-10.354,2.868-13.364,8.604c-3.012,5.735-4.516,14.198-4.516,25.388
			c0,10.86,1.495,19.203,4.485,25.021C271.603,637.706,275.884,640.614,281.458,640.614z"/>
		<path fill="#F7CC48" d="M366.097,649.478c-1.044,1.229-1.873,2.334-2.485,3.316c-8.049-4.33-14.222-10.526-18.521-18.588v22.596
			h-3.686v-22.596c-3.746,7.97-10.042,14.519-18.89,19.646c-0.612-0.891-1.428-1.935-2.439-3.133
			c8.6-4.896,14.673-10.642,18.22-17.229h-17.574v-3.502h20.686v-17.874h3.686v17.874h20.362v3.502h-17.206
			C352.392,640.433,358.342,645.762,366.097,649.478z M324.59,616.861l2.626-2.165c3.317,3.747,6.388,7.264,9.214,10.55
			l-3.087,2.579C330.579,624.109,327.661,620.455,324.59,616.861z M350.02,625.43c3.227-3.47,6.065-7.017,8.522-10.642l3.316,2.396
			c-3.869,4.822-6.896,8.387-9.075,10.688L350.02,625.43z"/>
	</g>
</g>
</svg>
