<?xml version="1.0" encoding="utf-8"?>
<!-- Generator: Adobe Illustrator 16.0.0, SVG Export Plug-In . SVG Version: 6.00 Build 0)  -->
<!DOCTYPE svg PUBLIC "-//W3C//DTD SVG 1.1//EN" "http://www.w3.org/Graphics/SVG/1.1/DTD/svg11.dtd">
<svg version="1.1" id="图层_1" xmlns="http://www.w3.org/2000/svg" xmlns:xlink="http://www.w3.org/1999/xlink" x="0px" y="0px"
	 width="640px" height="960px" viewBox="0 0 640 960" enable-background="new 0 0 640 960" xml:space="preserve">
<g>
	<g>
		<path fill="#FFFFFF" d="M79.433,796.24c1.727-2.406,3.02-5.172,3.879-8.297h-3.598v-1.57h3.633v-4.664h1.711v4.664h3.422v1.57
			h-3.422v4.078l0.938-0.961c1.078,1.047,2.07,2.055,2.977,3.023l-1.266,1.242c-0.859-1.016-1.742-2.004-2.648-2.965v12.199h-1.711
			v-12.199c-0.844,2.32-1.867,4.293-3.07,5.918C80.042,797.607,79.761,796.928,79.433,796.24z M89.347,783.186h12.328v21.422h-1.781
			v-1.594h-8.766v1.594h-1.781V783.186z M99.894,784.779h-8.766v4.5h8.766V784.779z M91.128,795.326h8.766v-4.5h-8.766V795.326z
			 M91.128,801.42h8.766v-4.547h-8.766V801.42z"/>
		<path fill="#FFFFFF" d="M104.37,801.678h18.563v-4.031H105.8v-1.664h17.133v-3.961H105.05v-1.664h9.07v-8.695h1.945v8.695h8.813
			v14.391h-1.945v-1.406H104.37V801.678z M105.8,783.982l1.313-1.172c1.688,1.578,3.258,3.227,4.711,4.945l-1.57,1.336
			C108.94,787.373,107.456,785.67,105.8,783.982z M124.55,784.076c-1.672,1.891-3.336,3.594-4.992,5.109l-1.406-1.266
			c1.594-1.438,3.195-3.148,4.805-5.133L124.55,784.076z"/>
		<path fill="#FFFFFF" d="M127.55,791.178h10.898v-6.047h-9.023v-1.852h19.406v1.852h-8.414v6.047h10.195v1.852h-10.195v8.039
			c0,1.063-0.195,1.828-0.586,2.297c-0.438,0.547-1.258,0.836-2.461,0.867c-0.703,0-2.023-0.008-3.961-0.023
			c-0.078-0.719-0.203-1.43-0.375-2.133c1.766,0.125,2.992,0.188,3.68,0.188c0.703,0,1.172-0.133,1.406-0.398
			c0.219-0.219,0.328-0.711,0.328-1.477v-7.359H127.55V791.178z"/>
		<path fill="#FFFFFF" d="M151.386,792.982c1.938-3.438,3.383-7.234,4.336-11.391l1.734,0.328c-0.477,1.828-1,3.543-1.57,5.145
			v17.543h-1.664v-13.465c-0.648,1.391-1.344,2.668-2.086,3.832C151.933,794.35,151.683,793.686,151.386,792.982z M157.737,799.545
			v-14.203h1.617v14.203H157.737z M159.94,788.201c1.922-2.016,3.383-4.219,4.383-6.609l1.688,0.516
			c-0.305,0.648-0.625,1.273-0.961,1.875h7.734v1.477c-1.086,1.578-2.395,2.965-3.926,4.16c1.563,0.813,3.527,1.426,5.895,1.84
			c-0.25,0.406-0.523,0.984-0.82,1.734c-2.836-0.711-5.031-1.551-6.586-2.52c-1.711,1.086-3.898,2.098-6.563,3.035
			c-0.297-0.5-0.625-1.008-0.984-1.523c2.422-0.641,4.484-1.473,6.188-2.496c-1.055-0.852-1.965-1.801-2.73-2.848
			c-0.625,0.875-1.293,1.695-2.004,2.461C160.909,788.959,160.472,788.592,159.94,788.201z M172.644,797.389l1.055,1.289
			c-3.734,2.922-8.047,4.977-12.938,6.164c-0.313-0.578-0.625-1.086-0.938-1.523C164.714,802.162,168.987,800.186,172.644,797.389z
			 M168.261,792.209l1.125,1.195c-2.391,1.609-4.938,2.891-7.641,3.844c-0.25-0.469-0.602-0.938-1.055-1.406
			C163.394,795.076,165.917,793.865,168.261,792.209z M170.534,794.6l1.102,1.266c-2.688,2.016-5.898,3.719-9.633,5.109
			c-0.375-0.578-0.727-1.063-1.055-1.453C164.854,798.256,168.05,796.615,170.534,794.6z M170.651,785.436h-6.457
			c-0.008,0.016-0.016,0.031-0.023,0.047c0.93,1.336,2.012,2.418,3.246,3.246C168.808,787.689,169.886,786.592,170.651,785.436z"/>
		<path fill="#FFFFFF" d="M177.331,793.779c0.469,1.906,1.125,3.473,1.969,4.699c0.836-1.719,1.359-3.699,1.57-5.941h-4.688v-1.711
			l4.313-5.32h-4.781v-1.594h6.938v1.594l-4.406,5.438h4.383v1.383c-0.289,2.898-0.996,5.41-2.121,7.535
			c1.703,1.477,4.348,2.223,7.934,2.238c2.969,0.063,6.414,0.023,10.336-0.117c-0.266,0.641-0.523,1.258-0.773,1.852
			c-3.578-0.016-7.039-0.031-10.383-0.047c-3.484,0-6.156-0.813-8.016-2.438c-0.883,1.281-1.953,2.398-3.211,3.352
			c-0.25-0.453-0.57-0.961-0.961-1.523c1.172-0.891,2.156-1.93,2.953-3.117c-1.047-1.328-1.914-3.227-2.602-5.695L177.331,793.779z
			 M182.862,797.74h6v-2.039h-5.203v-1.406h5.203v-2.039h-4.875v-1.406h4.875v-2.039h-6.094v-1.453h6.094v-2.039h-4.875v-1.406
			h4.875v-2.297h1.734v2.297h5.438v3.445h2.461v1.453h-2.461v4.078h-1.688v-0.633h-3.75v2.039h5.906v1.406h-5.906v2.039h6.984v1.406
			h-6.984v2.414h-1.734v-2.414h-6V797.74z M194.347,785.318h-3.75v2.039h3.75V785.318z M190.597,790.85h3.75v-2.039h-3.75V790.85z"
			/>
		<path fill="#FFFFFF" d="M211.983,784.17l-7.102,17.355h-2.379l6.75-16.125h-9.07v-2.027h11.801V784.17z"/>
		<path fill="#FFFFFF" d="M218.288,791.975c-2.164-1.008-3.246-2.469-3.246-4.383c0-1.336,0.508-2.424,1.523-3.264
			s2.313-1.26,3.891-1.26c1.445,0,2.637,0.395,3.574,1.184s1.406,1.809,1.406,3.059c0,2.016-1.129,3.566-3.387,4.652v0.047
			c2.648,0.953,3.973,2.578,3.973,4.875c0,1.508-0.545,2.709-1.635,3.604s-2.611,1.342-4.564,1.342
			c-1.602,0-2.906-0.441-3.914-1.324s-1.512-2.027-1.512-3.434c0-2.313,1.297-3.996,3.891-5.051V791.975z M220.069,793.064
			c-2.242,0.906-3.363,2.203-3.363,3.891c0,0.875,0.328,1.594,0.984,2.156s1.512,0.844,2.566,0.844c1.023,0,1.855-0.279,2.496-0.838
			s0.961-1.256,0.961-2.092C223.714,795.268,222.499,793.947,220.069,793.064z M223.116,787.58c0-0.813-0.254-1.453-0.762-1.922
			s-1.195-0.703-2.063-0.703c-0.813,0-1.504,0.244-2.074,0.732s-0.855,1.111-0.855,1.869c0,1.516,0.949,2.668,2.848,3.457
			C222.147,790.209,223.116,789.064,223.116,787.58z"/>
		<path fill="#FFFFFF" d="M240.729,782.107l-0.352,0.539c2.531,4.172,6.047,7.156,10.547,8.953
			c-0.484,0.766-0.898,1.469-1.242,2.109c-4.594-2.406-8.07-5.508-10.43-9.305c-2.313,3.609-5.82,6.82-10.523,9.633
			c-0.344-0.563-0.742-1.18-1.195-1.852c4.875-2.703,8.5-6.063,10.875-10.078H240.729z M238.151,790.17h2.133v14.508h-2.133V790.17z
			"/>
		<path fill="#FFFFFF" d="M251.675,798.092h17.32v1.641h-17.32V798.092z M271.011,784.076c-0.094,2.125-0.195,3.68-0.305,4.664
			c-0.172,1.594-0.563,2.664-1.172,3.211c-0.547,0.547-1.586,0.82-3.117,0.82c-0.859,0-1.984-0.023-3.375-0.07
			c-0.125-0.688-0.297-1.336-0.516-1.945c1.5,0.156,2.805,0.234,3.914,0.234c0.813,0,1.391-0.156,1.734-0.469
			c0.344-0.359,0.57-1,0.68-1.922c0.109-1.063,0.172-2.023,0.188-2.883h-12.188v8.391h16.477c-0.078,2.094-0.195,4.023-0.352,5.789
			c-0.156,1.688-0.57,2.828-1.242,3.422c-0.641,0.609-1.805,0.914-3.492,0.914c-1.156,0-2.57-0.031-4.242-0.094
			c-0.109-0.688-0.273-1.406-0.492-2.156c1.719,0.188,3.266,0.281,4.641,0.281c1.031,0,1.742-0.172,2.133-0.516
			c0.406-0.313,0.664-0.969,0.773-1.969c0.141-1.484,0.227-2.828,0.258-4.031h-16.359v-11.672h5.238
			c0.391-0.938,0.707-1.836,0.949-2.695l1.969,0.492c-0.258,0.625-0.59,1.359-0.996,2.203H271.011z M261.261,786.373
			c1.281,0.875,2.406,1.711,3.375,2.508l-1.266,1.453c-1.266-1.125-2.352-2.023-3.258-2.695L261.261,786.373z"/>
		<path fill="#FFFFFF" d="M298.878,802.521c-0.188,0.203-0.617,0.773-1.289,1.711c-4.203-1.203-7.375-2.922-9.516-5.156v5.742
			h-1.711v-5.625c-2.438,2.141-5.57,3.852-9.398,5.133c-0.484-0.672-0.906-1.211-1.266-1.617c3.828-0.969,6.758-2.227,8.789-3.773
			h-8.32v-1.453h10.195v-1.875h-6.352v0.633h-1.688v-8.484h17.836v8.484h-1.688v-0.633h-6.398v1.875h10.219v1.453h-8.484
			C292.073,800.607,295.097,801.803,298.878,802.521z M281.464,781.568l1.523,0.984c-0.969,0.656-2.031,1.367-3.188,2.133
			c1.031,0.484,2.078,1.055,3.141,1.711l-1.406,1.219c-1.313-1-2.758-1.984-4.336-2.953
			C278.729,783.709,280.151,782.678,281.464,781.568z M280.011,790.99h6.352v-1.828h-6.352V790.99z M280.011,794.201h6.352v-1.805
			h-6.352V794.201z M287.839,781.615l1.477,1.008c-0.969,0.719-1.977,1.43-3.023,2.133c1.313,0.578,2.414,1.148,3.305,1.711
			l-1.148,1.266c-1.219-0.844-2.773-1.813-4.664-2.906C285.05,783.936,286.401,782.865,287.839,781.615z M294.472,789.162h-6.398
			v1.828h6.398V789.162z M288.073,794.201h6.398v-1.805h-6.398V794.201z M295.269,781.475l1.453,0.984
			c-1.141,0.813-2.18,1.523-3.117,2.133c1.234,0.547,2.438,1.18,3.609,1.898l-1.336,1.195c-1.453-1.016-3.055-2.031-4.805-3.047
			C292.589,783.623,293.987,782.568,295.269,781.475z"/>
	</g>
</g>
<g>
	<g>
		<path fill="#F7CC48" d="M94.78,718.166l14.251,14.251l14.313-14.251l3.632,3.633l-14.25,14.313l14.25,14.221l-3.632,3.694
			l-14.313-14.313L94.78,754.026l-3.602-3.694l14.221-14.221l-14.221-14.313L94.78,718.166z"/>
		<path fill="#F7CC48" d="M142.346,754.088l18.566-38.219h-21.02v-5.838h31.327l-22.882,46.727L142.346,754.088z"/>
		<path fill="#F7CC48" d="M185.284,731.02c-2.256-0.973-3.912-2.245-4.968-3.818c-1.056-1.572-1.583-3.539-1.583-5.898
			c0-3.644,1.283-6.582,3.85-8.818c2.566-2.235,5.961-3.354,10.184-3.354c4.326,0,7.762,1.134,10.308,3.4s3.819,5.293,3.819,9.082
			c0,2.234-0.554,4.154-1.661,5.759s-2.737,2.82-4.89,3.647c2.524,0.828,4.502,2.293,5.93,4.394
			c1.429,2.101,2.143,4.579,2.143,7.437c0,4.181-1.382,7.461-4.146,9.842c-2.763,2.38-6.597,3.57-11.503,3.57
			c-4.823,0-8.621-1.19-11.395-3.57c-2.773-2.381-4.16-5.619-4.16-9.719c0-2.98,0.703-5.51,2.111-7.59
			C180.73,733.302,182.718,731.848,185.284,731.02z M192.767,750.207c2.67,0,4.761-0.698,6.271-2.096
			c1.511-1.396,2.267-3.326,2.267-5.79c0-2.483-0.756-4.429-2.267-5.837c-1.511-1.407-3.602-2.111-6.271-2.111
			c-2.607,0-4.668,0.715-6.178,2.143c-1.512,1.428-2.267,3.363-2.267,5.806c0,2.464,0.745,4.394,2.235,5.79
			C188.048,749.509,190.117,750.207,192.767,750.207z M192.922,715.123c-2.152,0-3.85,0.564-5.092,1.693
			c-1.241,1.128-1.862,2.664-1.862,4.609c0,1.905,0.605,3.396,1.816,4.471c1.21,1.077,2.871,1.615,4.982,1.615
			c2.174,0,3.865-0.533,5.076-1.6c1.211-1.065,1.816-2.561,1.816-4.486c0-1.966-0.601-3.508-1.801-4.625
			C196.658,715.683,195.013,715.123,192.922,715.123z"/>
	</g>
</g>
<line fill="none" stroke="#FFFFFF" stroke-miterlimit="10" x1="80.322" y1="769.798" x2="481.572" y2="769.798"/>
</svg>
