<?xml version="1.0" encoding="utf-8"?>
<!-- Generator: Adobe Illustrator 16.0.0, SVG Export Plug-In . SVG Version: 6.00 Build 0)  -->
<!DOCTYPE svg PUBLIC "-//W3C//DTD SVG 1.1//EN" "http://www.w3.org/Graphics/SVG/1.1/DTD/svg11.dtd">
<svg version="1.1" id="图层_1" xmlns="http://www.w3.org/2000/svg" xmlns:xlink="http://www.w3.org/1999/xlink" x="0px" y="0px"
	 width="640px" height="960px" viewBox="0 0 640 960" enable-background="new 0 0 640 960" xml:space="preserve">
<g>
	<line fill="none" stroke="#6DA5D8" stroke-width="2" stroke-miterlimit="10" x1="118.893" y1="144.382" x2="118.893" y2="543.67"/>
	
		<line fill="none" stroke="#6DA5D8" stroke-width="2" stroke-miterlimit="10" x1="118.893" y1="155.341" x2="126.955" y2="155.341"/>
	
		<line fill="none" stroke="#6DA5D8" stroke-width="2" stroke-miterlimit="10" x1="118.893" y1="168.735" x2="126.955" y2="168.735"/>
	
		<line fill="none" stroke="#6DA5D8" stroke-width="2" stroke-miterlimit="10" x1="118.893" y1="182.128" x2="126.955" y2="182.128"/>
	
		<line fill="none" stroke="#6DA5D8" stroke-width="2" stroke-miterlimit="10" x1="118.893" y1="195.522" x2="126.955" y2="195.522"/>
	
		<line fill="none" stroke="#6DA5D8" stroke-width="2" stroke-miterlimit="10" x1="118.893" y1="208.916" x2="135.922" y2="208.916"/>
	
		<line fill="none" stroke="#6DA5D8" stroke-width="2" stroke-miterlimit="10" x1="118.893" y1="222.309" x2="126.955" y2="222.309"/>
	
		<line fill="none" stroke="#6DA5D8" stroke-width="2" stroke-miterlimit="10" x1="118.893" y1="235.703" x2="126.955" y2="235.703"/>
	
		<line fill="none" stroke="#6DA5D8" stroke-width="2" stroke-miterlimit="10" x1="118.893" y1="249.096" x2="126.955" y2="249.096"/>
	<line fill="none" stroke="#6DA5D8" stroke-width="2" stroke-miterlimit="10" x1="118.893" y1="262.49" x2="126.955" y2="262.49"/>
	
		<line fill="none" stroke="#6DA5D8" stroke-width="2" stroke-miterlimit="10" x1="118.893" y1="275.883" x2="135.922" y2="275.883"/>
	
		<line fill="none" stroke="#6DA5D8" stroke-width="2" stroke-miterlimit="10" x1="118.893" y1="289.277" x2="126.955" y2="289.277"/>
	<line fill="none" stroke="#6DA5D8" stroke-width="2" stroke-miterlimit="10" x1="118.893" y1="302.67" x2="126.955" y2="302.67"/>
	
		<line fill="none" stroke="#6DA5D8" stroke-width="2" stroke-miterlimit="10" x1="118.893" y1="316.064" x2="126.955" y2="316.064"/>
	
		<line fill="none" stroke="#6DA5D8" stroke-width="2" stroke-miterlimit="10" x1="118.893" y1="329.458" x2="126.955" y2="329.458"/>
	
		<line fill="none" stroke="#6DA5D8" stroke-width="2" stroke-miterlimit="10" x1="118.893" y1="342.851" x2="135.922" y2="342.851"/>
	
		<line fill="none" stroke="#6DA5D8" stroke-width="2" stroke-miterlimit="10" x1="118.893" y1="356.245" x2="126.955" y2="356.245"/>
	
		<line fill="none" stroke="#6DA5D8" stroke-width="2" stroke-miterlimit="10" x1="118.893" y1="369.638" x2="126.955" y2="369.638"/>
	
		<line fill="none" stroke="#6DA5D8" stroke-width="2" stroke-miterlimit="10" x1="118.893" y1="383.032" x2="126.955" y2="383.032"/>
	
		<line fill="none" stroke="#6DA5D8" stroke-width="2" stroke-miterlimit="10" x1="118.893" y1="396.425" x2="126.955" y2="396.425"/>
	
		<line fill="none" stroke="#6DA5D8" stroke-width="2" stroke-miterlimit="10" x1="118.893" y1="409.819" x2="135.922" y2="409.819"/>
	
		<line fill="none" stroke="#6DA5D8" stroke-width="2" stroke-miterlimit="10" x1="118.893" y1="423.212" x2="126.955" y2="423.212"/>
	
		<line fill="none" stroke="#6DA5D8" stroke-width="2" stroke-miterlimit="10" x1="118.893" y1="436.606" x2="126.955" y2="436.606"/>
	<line fill="none" stroke="#6DA5D8" stroke-width="2" stroke-miterlimit="10" x1="118.893" y1="450" x2="126.955" y2="450"/>
	
		<line fill="none" stroke="#6DA5D8" stroke-width="2" stroke-miterlimit="10" x1="118.893" y1="463.393" x2="126.955" y2="463.393"/>
	
		<line fill="none" stroke="#6DA5D8" stroke-width="2" stroke-miterlimit="10" x1="118.893" y1="476.787" x2="135.922" y2="476.787"/>
	<path fill="none" stroke="#6DA5D8" stroke-width="2" stroke-miterlimit="10" d="M126.955,490.18"/>
	<path fill="none" stroke="#6DA5D8" stroke-width="2" stroke-miterlimit="10" d="M118.893,490.18"/>
	
		<line fill="none" stroke="#6DA5D8" stroke-width="2" stroke-miterlimit="10" x1="118.893" y1="503.574" x2="126.955" y2="503.574"/>
	<line fill="none" stroke="#6DA5D8" stroke-width="2" stroke-miterlimit="10" x1="118.893" y1="490.18" x2="126.955" y2="490.18"/>
	
		<line fill="none" stroke="#6DA5D8" stroke-width="2" stroke-miterlimit="10" x1="118.893" y1="516.967" x2="126.955" y2="516.967"/>
	
		<line fill="none" stroke="#6DA5D8" stroke-width="2" stroke-miterlimit="10" x1="118.893" y1="530.361" x2="126.955" y2="530.361"/>
	
		<line fill="none" stroke="#FFFFFF" stroke-width="2" stroke-miterlimit="10" x1="118.919" y1="541.01" x2="118.919" y2="1186.246"/>
	
		<line fill="none" stroke="#FFFFFF" stroke-width="2" stroke-miterlimit="10" x1="118.919" y1="553.428" x2="126.982" y2="553.428"/>
	<line fill="none" stroke="#FFFFFF" stroke-width="2" stroke-miterlimit="10" x1="118.919" y1="566.82" x2="126.982" y2="566.82"/>
	
		<line fill="none" stroke="#FFFFFF" stroke-width="2" stroke-miterlimit="10" x1="118.919" y1="580.215" x2="126.982" y2="580.215"/>
	
		<line fill="none" stroke="#FFFFFF" stroke-width="2" stroke-miterlimit="10" x1="118.919" y1="593.607" x2="126.982" y2="593.607"/>
	
		<line fill="none" stroke="#FFFFFF" stroke-width="2" stroke-miterlimit="10" x1="118.919" y1="607.002" x2="135.949" y2="607.002"/>
	
		<line fill="none" stroke="#FFFFFF" stroke-width="2" stroke-miterlimit="10" x1="118.919" y1="620.395" x2="126.982" y2="620.395"/>
	
		<line fill="none" stroke="#FFFFFF" stroke-width="2" stroke-miterlimit="10" x1="118.919" y1="633.789" x2="126.982" y2="633.789"/>
	
		<line fill="none" stroke="#FFFFFF" stroke-width="2" stroke-miterlimit="10" x1="118.919" y1="647.182" x2="126.982" y2="647.182"/>
	
		<line fill="none" stroke="#FFFFFF" stroke-width="2" stroke-miterlimit="10" x1="118.919" y1="660.576" x2="126.982" y2="660.576"/>
	
		<line fill="none" stroke="#FFFFFF" stroke-width="2" stroke-miterlimit="10" x1="118.919" y1="673.969" x2="135.949" y2="673.969"/>
	
		<line fill="none" stroke="#FFFFFF" stroke-width="2" stroke-miterlimit="10" x1="118.919" y1="687.674" x2="126.982" y2="687.674"/>
	
		<line fill="none" stroke="#FFFFFF" stroke-width="2" stroke-miterlimit="10" x1="118.919" y1="701.068" x2="126.982" y2="701.068"/>
	
		<line fill="none" stroke="#FFFFFF" stroke-width="2" stroke-miterlimit="10" x1="118.919" y1="714.461" x2="126.982" y2="714.461"/>
	
		<line fill="none" stroke="#FFFFFF" stroke-width="2" stroke-miterlimit="10" x1="118.919" y1="727.855" x2="126.982" y2="727.855"/>
	
		<line fill="none" stroke="#FFFFFF" stroke-width="2" stroke-miterlimit="10" x1="118.919" y1="741.248" x2="135.949" y2="741.248"/>
	
		<line fill="none" stroke="#FFFFFF" stroke-width="2" stroke-miterlimit="10" x1="118.919" y1="755.637" x2="126.982" y2="755.637"/>
	
		<line fill="none" stroke="#FFFFFF" stroke-width="2" stroke-miterlimit="10" x1="118.919" y1="769.029" x2="126.982" y2="769.029"/>
	
		<line fill="none" stroke="#FFFFFF" stroke-width="2" stroke-miterlimit="10" x1="118.919" y1="782.424" x2="126.982" y2="782.424"/>
	
		<line fill="none" stroke="#FFFFFF" stroke-width="2" stroke-miterlimit="10" x1="118.919" y1="795.816" x2="126.982" y2="795.816"/>
	
		<line fill="none" stroke="#FFFFFF" stroke-width="2" stroke-miterlimit="10" x1="118.919" y1="809.211" x2="135.949" y2="809.211"/>
	
		<line fill="none" stroke="#FFFFFF" stroke-width="2" stroke-miterlimit="10" x1="118.919" y1="823.113" x2="126.982" y2="823.113"/>
	
		<line fill="none" stroke="#FFFFFF" stroke-width="2" stroke-miterlimit="10" x1="118.919" y1="836.508" x2="126.982" y2="836.508"/>
	<line fill="none" stroke="#FFFFFF" stroke-width="2" stroke-miterlimit="10" x1="118.919" y1="849.9" x2="126.982" y2="849.9"/>
	
		<line fill="none" stroke="#FFFFFF" stroke-width="2" stroke-miterlimit="10" x1="118.919" y1="863.295" x2="126.982" y2="863.295"/>
	
		<line fill="none" stroke="#FFFFFF" stroke-width="2" stroke-miterlimit="10" x1="118.919" y1="876.688" x2="135.949" y2="876.688"/>
	
		<line fill="none" stroke="#FFFFFF" stroke-width="2" stroke-miterlimit="10" x1="118.919" y1="890.592" x2="126.982" y2="890.592"/>
	
		<line fill="none" stroke="#FFFFFF" stroke-width="2" stroke-miterlimit="10" x1="118.919" y1="903.984" x2="126.982" y2="903.984"/>
	
		<line fill="none" stroke="#FFFFFF" stroke-width="2" stroke-miterlimit="10" x1="118.919" y1="917.379" x2="126.982" y2="917.379"/>
	
		<line fill="none" stroke="#FFFFFF" stroke-width="2" stroke-miterlimit="10" x1="118.919" y1="930.771" x2="126.982" y2="930.771"/>
	
		<line fill="none" stroke="#FFFFFF" stroke-width="2" stroke-miterlimit="10" x1="118.919" y1="944.166" x2="135.949" y2="944.166"/>
	
		<line fill="none" stroke="#FFFFFF" stroke-width="2" stroke-miterlimit="10" x1="118.919" y1="958.068" x2="126.982" y2="958.068"/>
	
		<line fill="none" stroke="#FFFFFF" stroke-width="2" stroke-miterlimit="10" x1="118.919" y1="971.463" x2="126.982" y2="971.463"/>
	
		<line fill="none" stroke="#FFFFFF" stroke-width="2" stroke-miterlimit="10" x1="118.919" y1="984.855" x2="126.982" y2="984.855"/>
	<line fill="none" stroke="#FFFFFF" stroke-width="2" stroke-miterlimit="10" x1="118.919" y1="998.25" x2="126.982" y2="998.25"/>
	
		<line fill="none" stroke="#FFFFFF" stroke-width="2" stroke-miterlimit="10" x1="118.919" y1="1011.643" x2="135.949" y2="1011.643"/>
	
		<line fill="none" stroke="#FFFFFF" stroke-width="2" stroke-miterlimit="10" x1="118.919" y1="1026.896" x2="126.982" y2="1026.896"/>
	
		<line fill="none" stroke="#FFFFFF" stroke-width="2" stroke-miterlimit="10" x1="118.919" y1="1040.291" x2="126.982" y2="1040.291"/>
	
		<line fill="none" stroke="#FFFFFF" stroke-width="2" stroke-miterlimit="10" x1="118.919" y1="1053.684" x2="126.982" y2="1053.684"/>
	
		<line fill="none" stroke="#FFFFFF" stroke-width="2" stroke-miterlimit="10" x1="118.919" y1="1067.078" x2="126.982" y2="1067.078"/>
	
		<line fill="none" stroke="#FFFFFF" stroke-width="2" stroke-miterlimit="10" x1="118.919" y1="1080.471" x2="135.949" y2="1080.471"/>
	
		<line fill="none" stroke="#FFFFFF" stroke-width="2" stroke-miterlimit="10" x1="118.919" y1="1095.742" x2="126.982" y2="1095.742"/>
	
		<line fill="none" stroke="#FFFFFF" stroke-width="2" stroke-miterlimit="10" x1="118.919" y1="1109.135" x2="126.982" y2="1109.135"/>
	
		<line fill="none" stroke="#FFFFFF" stroke-width="2" stroke-miterlimit="10" x1="118.919" y1="1122.529" x2="126.982" y2="1122.529"/>
	
		<line fill="none" stroke="#FFFFFF" stroke-width="2" stroke-miterlimit="10" x1="118.919" y1="1135.922" x2="126.982" y2="1135.922"/>
	
		<line fill="none" stroke="#FFFFFF" stroke-width="2" stroke-miterlimit="10" x1="118.919" y1="1149.316" x2="135.949" y2="1149.316"/>
</g>
</svg>
