<?xml version="1.0" encoding="utf-8"?>
<!-- Generator: Adobe Illustrator 16.0.0, SVG Export Plug-In . SVG Version: 6.00 Build 0)  -->
<!DOCTYPE svg PUBLIC "-//W3C//DTD SVG 1.1//EN" "http://www.w3.org/Graphics/SVG/1.1/DTD/svg11.dtd">
<svg version="1.1" id="图层_1" xmlns="http://www.w3.org/2000/svg" xmlns:xlink="http://www.w3.org/1999/xlink" x="0px" y="0px"
	 width="640px" height="130px" viewBox="0 0 640 130" enable-background="new 0 0 640 130" xml:space="preserve">
<rect fill="#F7CC48" width="640" height="130"/>
<g>
	<path fill="#1B3467" d="M52.281,29.38v-2.813h15.781V23.13h4.219v3.438h15.938v2.813H72.281v3.906h14.063v20.938
		c0.103,3.228-1.563,4.79-5,4.688h-3.438v-2.656h2.031c1.665,0.103,2.446-0.574,2.344-2.031V35.942H58.219v23.125h-4.063V33.286
		h13.906V29.38H52.281z M60.719,44.536V41.88h3.438c-0.625-1.145-0.991-2.603-1.094-4.375h3.594
		c0.103,1.563,0.469,3.022,1.094,4.375h4.844c0.52-1.145,0.938-2.603,1.25-4.375h3.594c-0.105,1.563-0.522,3.022-1.25,4.375h3.594
		v2.656h-7.5v4.063h8.594v2.656h-8.594v7.031h-4.063v-7.031h-8.438v-2.656h8.438v-4.063H60.719z"/>
	<path fill="#1B3467" d="M92.281,55.63v-2.5c5.625-5.415,8.75-11.875,9.375-19.375h-8.594v-2.969h12.5v2.813
		C104.728,43.079,100.301,50.422,92.281,55.63z M103.063,58.599v-2.813h2.813c1.665,0.103,2.446-0.571,2.344-2.031V23.286h4.219
		v30.625c0.103,3.228-1.512,4.79-4.844,4.688H103.063z M128.219,55.63c-8.543-5.415-12.866-12.759-12.969-22.031v-2.813h4.531
		c2.707,0,5.156-0.469,7.344-1.406v3.125c-1.772,0.835-4.063,1.25-6.875,1.25H119c0.103,7.605,3.176,14.011,9.219,19.219V55.63z"/>
	<path fill="#1B3467" d="M132.281,35.942V33.13h10.469v-9.688h4.375v29.844c0.103,3.125-1.616,4.688-5.156,4.688h-9.688v-2.656
		h7.813c1.875,0,2.759-0.833,2.656-2.5V35.942H132.281z M158.531,57.974c-3.438,0-5.21-1.563-5.313-4.688V23.442h4.531v9.688h10.469
		v2.813H157.75v16.875c-0.105,1.667,0.781,2.5,2.656,2.5h7.813v2.656H158.531z"/>
	<path fill="#1B3467" d="M175.25,56.255V37.192h-3.125v-2.656h6.719v16.406c1.145-0.625,2.188-1.353,3.125-2.188v2.969
		C180.094,53.704,177.853,55.215,175.25,56.255z M176.5,31.567c-0.522-2.5-1.406-5.156-2.656-7.969h3.281
		c1.457,2.71,2.446,5.366,2.969,7.969H176.5z M181.344,59.224v-2.813c1.563-1.563,2.29-4.27,2.188-8.125V24.849h23.438v28.75
		c0.103,3.645-1.563,5.364-5,5.156h-2.344v-2.5h1.25c1.77,0.103,2.603-0.625,2.5-2.188V27.661h-16.094V46.88
		C187.594,52.61,185.613,56.724,181.344,59.224z M189,34.38v-2.5h4.531v-2.969h3.438v2.969h4.531v2.5h-4.531v3.75h5.156v2.5h-13.75
		v-2.5h5.156v-3.75H189z M189.625,54.38V43.442h11.094v6.25c0.103,3.23-1.355,4.792-4.375,4.688H189.625z M192.594,51.88h3.125
		c1.457,0.105,2.134-0.571,2.031-2.031v-4.063h-5.156V51.88z"/>
	<path fill="#1B3467" d="M214.156,48.599V29.692h13.906V23.13h4.375v6.563h13.906v13.281c0.103,3.855-1.616,5.73-5.156,5.625h-8.75
		V59.38h-4.375V48.599H214.156z M218.219,45.786h9.844V32.505h-9.844V45.786z M242.281,32.505h-9.844v13.281h7.5
		c1.563,0,2.344-0.884,2.344-2.656V32.505z"/>
	<path fill="#1B3467" d="M252.906,48.286v-3.125c2.813-3.125,4.688-5.52,5.625-7.188c-0.313,0-0.835,0-1.563,0
		c-1.668,0.105-3.281,0.105-4.844,0v-2.813c2.813-3.438,4.79-7.395,5.938-11.875h4.063c-1.563,4.585-3.75,8.542-6.563,11.875
		c1.457,0.105,2.863,0.054,4.219-0.156c-0.105,0,0,0,0.313,0c0.415-0.728,0.988-2.031,1.719-3.906
		c0.103-0.208,0.156-0.364,0.156-0.469h3.906c-2.188,6.147-5.262,10.991-9.219,14.531c3.438-0.208,6.196-0.415,8.281-0.625v2.656
		C261.29,47.922,257.281,48.286,252.906,48.286z M252.438,55.786v-2.813c4.582,0.105,8.853-0.313,12.813-1.25v2.656
		C261.29,55.317,257.02,55.786,252.438,55.786z M266.188,31.099v-2.813h4.531c-0.105-1.563-0.156-3.228-0.156-5h4.063
		c0,1.772,0,3.438,0,5h5.313v-4.219h3.438v4.219h3.75v2.813h-12.344c0,1.875,0.103,3.699,0.313,5.469h12.969v2.813h-12.656
		c0.103,1.147,0.313,2.761,0.625,4.844c0.103,0.938,0.207,1.616,0.313,2.031c0.103,0.313,0.207,0.73,0.313,1.25
		c0.207,0.625,0.363,1.147,0.469,1.563c1.978-1.665,3.906-4.009,5.781-7.031h4.219c-2.71,4.585-5.679,7.969-8.906,10.156
		c1.353,2.5,2.863,3.75,4.531,3.75c1.875,0.208,2.759-0.781,2.656-2.969h2.813c0.103,4.063-1.668,6.04-5.313,5.938
		c-3.23,0-5.835-1.667-7.813-5c-1.355,0.73-3.804,1.665-7.344,2.813c-0.938,0.313-1.616,0.571-2.031,0.781v-2.344
		c3.228-1.25,5.938-2.551,8.125-3.906c-0.522-1.25-0.938-2.759-1.25-4.531c-0.522-2.188-0.938-4.634-1.25-7.344h-5.938v-2.813h5.781
		c-0.105-1.77-0.262-3.594-0.469-5.469H266.188z"/>
	<path fill="#1B3467" d="M294.469,29.224v-2.969h31.406v2.969h-13.438v24.688h15.625v2.656h-35.625v-2.656h15.625V29.224H294.469z"
		/>
	<path fill="#1B3467" d="M332.75,27.974v-2.656h6.719c1.77,0,3.801-0.313,6.094-0.938v2.813c-1.147,0.417-2.605,0.679-4.375,0.781
		v5.469h4.219v2.656H341.5c0.832,3.335,2.188,6.304,4.063,8.906v3.594c-2.085-2.395-3.543-4.321-4.375-5.781v16.406h-3.75V43.755
		c-1.25,2.917-3.179,5.938-5.781,9.063v-3.906c2.29-3.75,4.113-8.02,5.469-12.813h-4.844v-2.656h5.156v-5.469H332.75z
		 M346.188,42.192v-2.656h21.406v2.656h-8.75v4.844h7.813v2.656h-7.813v5.469h9.844v2.344h-24.375v-2.344h10.469v-5.469h-7.969
		v-2.656h7.969v-4.844H346.188z M347.438,36.099V25.161h18.906v6.406c0.103,3.125-1.563,4.636-5,4.531H347.438z M351.188,33.442
		h9.063c1.665,0.105,2.446-0.625,2.344-2.188v-3.438h-11.406V33.442z"/>
	<path fill="#1B3467" d="M51.656,106.442c1.875-5.313,3.125-11.614,3.75-18.906h2.969c-0.418,7.085-1.46,13.386-3.125,18.906H51.656
		z M54.938,82.692c-0.418-3.228-1.199-6.458-2.344-9.688h2.969c1.353,3.542,2.29,6.772,2.813,9.688H54.938z M73.688,106.755v-3.125
		c1.875-1.771,3.488-3.646,4.844-5.625c-0.313-0.938-0.522-2.031-0.625-3.281c-0.73-4.688-1.147-9.739-1.25-15.156H64.625v13.438
		c0.313,6.667-1.875,11.406-6.563,14.219v-2.813c2.188-2.188,3.176-5.728,2.969-10.625V76.911h15.625
		c-0.105-1.875-0.156-3.802-0.156-5.781h3.75c0,0.417,0,1.094,0,2.031c-0.105,1.667-0.105,2.917,0,3.75h2.969v-5h2.813v5h2.344
		v2.656H80.25c0,5,0.259,9.636,0.781,13.906c1.25-2.5,2.344-6.094,3.281-10.781h3.281c-1.355,6.667-3.281,11.875-5.781,15.625
		c0.832,3.854,1.926,5.728,3.281,5.625c1.145,0.103,1.665-0.833,1.563-2.813H89c0.103,3.853-1.199,5.728-3.906,5.625
		c-2.5,0.103-4.375-1.667-5.625-5.313C77.906,103.215,75.978,104.982,73.688,106.755z M66.188,85.661v-2.5h9.219v2.5H66.188z
		 M66.344,102.224V89.255h9.063v8.75c0.103,2.917-1.25,4.323-4.063,4.219H66.344z M69.156,99.88h1.719
		c1.145,0.104,1.665-0.469,1.563-1.719v-6.406h-3.281V99.88z"/>
	<path fill="#1B3467" d="M92.281,91.755v-2.813c4.165-3.646,6.77-8.489,7.813-14.531h4.063
		C103.009,82.121,99.051,87.902,92.281,91.755z M128.219,91.442c-1.563-0.938-2.866-1.875-3.906-2.813
		c-5.73,9.585-16.304,15.781-31.719,18.594v-2.656c13.645-3.228,22.759-8.906,27.344-17.031h3.125
		c-3.438-2.915-5.679-7.29-6.719-13.125h4.063c0.938,5.729,3.54,10.469,7.813,14.219V91.442z M108.063,93.474V71.286h4.375v22.188
		H108.063z"/>
	<path fill="#1B3467" d="M142.906,106.442v-2.969h3.125c2.082,0.103,3.071-0.781,2.969-2.656V83.786
		c3.957-1.771,7.551-4.219,10.781-7.344h-26.406v-2.969H166.5v2.969c-4.063,3.647-8.387,6.46-12.969,8.438v15.781
		c0.103,3.958-1.929,5.884-6.094,5.781H142.906z"/>
	<path fill="#1B3467" d="M174.938,96.599v-2.344c5.625-1.665,9.844-4.009,12.656-7.031c-4.063,1.147-8.96,2.188-14.688,3.125v-2.5
		c5.728-1.04,10.415-2.239,14.063-3.594c-2.71-1.25-5.469-2.134-8.281-2.656v-1.875c-1.563,0.625-3.335,1.094-5.313,1.406v-2.344
		c5.52-1.458,9.582-3.958,12.188-7.5h4.531c-0.625,0.938-1.304,1.772-2.031,2.5h17.188v2.656c-4.585,4.585-9.637,7.866-15.156,9.844
		h3.125c-0.73,0.938-1.512,1.823-2.344,2.656h15.938v2.656c-7.188,8.75-18.543,13.906-34.063,15.469v-2.5
		c7.188-1.147,12.759-2.656,16.719-4.531c-3.022-1.353-6.094-2.344-9.219-2.969v-1.875
		C178.688,95.609,176.915,96.078,174.938,96.599z M199.625,76.599h-14.531c-1.355,1.042-2.969,1.929-4.844,2.656
		c3.438,0.417,6.613,1.304,9.531,2.656v1.094C192.906,81.547,196.188,79.411,199.625,76.599z M201.031,91.755h-13.438
		c-1.668,1.147-3.594,2.136-5.781,2.969c3.75,0.625,7.082,1.563,10,2.813v1.406C195.25,96.965,198.321,94.567,201.031,91.755z"/>
	<path fill="#1B3467" d="M212.281,91.755v-2.813c4.165-3.646,6.77-8.489,7.813-14.531h4.063
		C223.009,82.121,219.051,87.902,212.281,91.755z M248.219,91.442c-1.563-0.938-2.866-1.875-3.906-2.813
		c-5.73,9.585-16.304,15.781-31.719,18.594v-2.656c13.645-3.228,22.759-8.906,27.344-17.031h3.125
		c-3.438-2.915-5.679-7.29-6.719-13.125h4.063c0.938,5.729,3.54,10.469,7.813,14.219V91.442z M228.063,93.474V71.286h4.375v22.188
		H228.063z"/>
	<path fill="#1B3467" d="M252.75,77.067v-2.5h5.156V71.13h3.75v3.438h4.844v2.5h-4.844v3.594h4.375v2.5h-4.375v3.906h5.156v2.344
		h-4.531c0.728,3.438,2.344,6.46,4.844,9.063v3.281c-2.605-2.188-4.429-4.478-5.469-6.875v12.344h-3.75v-11.25
		c-1.043,2.71-3.074,5.469-6.094,8.281v-3.125c2.813-3.75,4.634-7.656,5.469-11.719h-5.156v-2.344h5.781v-3.906h-4.531v-2.5h4.531
		v-3.594H252.75z M268.063,79.255v-2.813h3.281V71.13h3.75v5.313h5.469V71.13h3.906v5.313h3.438v2.813h-3.438V89.88h4.063v2.656
		h-4.063v14.375h-3.906V92.536h-5.469v2.031c0.313,6.147-2.5,10.415-8.438,12.813v-2.5c3.332-1.978,4.895-5.208,4.688-9.688v-2.656
		h-3.75V89.88h3.75V79.255H268.063z M275.094,79.255V89.88h5.469V79.255H275.094z"/>
	<path fill="#1B3467" d="M292.438,81.755v-2.813h3.594v-7.656h3.594v7.656h2.969v2.813h-2.969v16.563
		c0.313-0.103,0.781-0.259,1.406-0.469c1.04-0.313,1.875-0.625,2.5-0.938v2.656c-3.438,1.667-7.241,2.917-11.406,3.75V99.88
		c1.353-0.103,2.656-0.313,3.906-0.625v-17.5H292.438z M311.188,105.974c-3.96,0.103-5.887-1.719-5.781-5.469V80.036h-2.344V77.38
		h2.344v-3.906h3.906v3.906H314v-6.25h3.75v6.25h8.75v12.344c0.207,3.854-1.46,5.679-5,5.469h-2.031v-2.656h1.094
		c1.665,0.104,2.446-0.728,2.344-2.5v-10h-5.156v19.375H314V80.036h-4.688v20.469c-0.105,1.979,0.938,2.915,3.125,2.813h9.844
		c1.875,0.103,2.759-0.728,2.656-2.5v-1.563h2.969v2.031c0.207,3.228-1.512,4.79-5.156,4.688H311.188z"/>
	<path fill="#1B3467" d="M338.375,96.755v-1.719c-0.105-2.915,1.301-5.364,4.219-7.344c3.02-2.188,4.426-4.427,4.219-6.719
		c-0.21-3.54-2.031-5.415-5.469-5.625c-3.543,0-5.887,2.241-7.031,6.719h-3.906c1.04-6.353,4.688-9.531,10.938-9.531
		c6.145,0.313,9.426,3.073,9.844,8.281c0.313,3.229-1.563,6.147-5.625,8.75c-2.188,1.563-3.23,3.491-3.125,5.781v1.406H338.375z
		 M338.063,105.349v-4.531h4.688v4.531H338.063z"/>
</g>
</svg>
