<?xml version="1.0" encoding="utf-8"?>
<!-- Generator: Adobe Illustrator 16.0.0, SVG Export Plug-In . SVG Version: 6.00 Build 0)  -->
<!DOCTYPE svg PUBLIC "-//W3C//DTD SVG 1.1//EN" "http://www.w3.org/Graphics/SVG/1.1/DTD/svg11.dtd">
<svg version="1.1" id="图层_1" xmlns="http://www.w3.org/2000/svg" xmlns:xlink="http://www.w3.org/1999/xlink" x="0px" y="0px"
	 width="640px" height="960px" viewBox="0 0 640 960" enable-background="new 0 0 640 960" xml:space="preserve">
<g>
	<defs>
		<rect id="SVGID_1_" y="768.401" width="640" height="191.599"/>
	</defs>
	<clipPath id="SVGID_2_">
		<use xlink:href="#SVGID_1_"  overflow="visible"/>
	</clipPath>
	<g clip-path="url(#SVGID_2_)">
		<path fill="none" stroke="#FFFFFF" stroke-miterlimit="10" d="M615.31,965.732l14.523-87.453c0,0,6.021-30.697,3.542-34.979
			c-1.772-6.427-4.606-17.493-20.192-27.486c-15.584-9.282-34.355-13.921-68.716-15.704c-26.919-0.357-49.944-1.073-56.672,3.924
			c-8.149-2.856-27.63,1.072-38.256,1.072c-11.336,0.357-28.692,4.281-28.692,4.281s-37.191,4.642-55.963,12.496
			c-9.211-2.855-17.713-2.498-51.363,7.851c-6.375-1.781,0-5.71-46.755,8.926c-7.085-0.357-15.939,3.926-15.939,3.926l-28.338,5.712
			l-106.616,25.7c0,0-74.738,19.988-93.511,21.416c-18.774,1.428-18.774,17.133-16.294,32.48
			c4.604,16.064,14.875,56.756,14.875,56.756L615.31,965.732z"/>
		<polygon fill="none" stroke="#FFFFFF" stroke-miterlimit="10" points="607.871,897.339 600.609,934.175 599.546,961.981 
			609.108,919.655 		"/>
		<polygon fill="none" stroke="#FFFFFF" stroke-miterlimit="10" points="610.702,894.681 611.944,907.079 615.133,891.494 		"/>
		<polygon fill="none" stroke="#FFFFFF" stroke-miterlimit="10" points="606.455,879.627 601.14,893.442 601.496,896.983 
			606.984,892.734 		"/>
		<polygon fill="none" stroke="#FFFFFF" stroke-miterlimit="10" points="608.047,873.783 609.108,881.93 613.538,859.439 		"/>
		<polygon fill="none" stroke="#FFFFFF" stroke-miterlimit="10" points="602.382,854.301 601.849,885.296 606.455,874.492 		"/>
		<polygon fill="none" stroke="#FFFFFF" stroke-miterlimit="10" points="605.745,835.526 602.026,842.967 604.329,853.061 
			614.954,844.916 609.288,835.352 		"/>
		<polygon fill="none" stroke="#FFFFFF" stroke-miterlimit="10" points="596.536,839.424 596.006,850.582 599.902,843.322 
			599.726,838.184 		"/>
		<polygon fill="none" stroke="#FFFFFF" stroke-miterlimit="10" points="587.505,842.083 585.378,871.836 593.171,856.248 
			594.233,840.312 		"/>
		<polygon fill="none" stroke="#FFFFFF" stroke-miterlimit="10" points="577.94,845.444 573.157,854.123 572.805,870.596 
			581.481,880.336 585.025,842.967 		"/>
		<polygon fill="none" stroke="#FFFFFF" stroke-miterlimit="10" points="575.285,879.45 577.23,887.599 580.243,883.524 		"/>
		<polygon fill="none" stroke="#FFFFFF" stroke-miterlimit="10" points="584.315,887.065 582.367,908.674 590.692,904.245 
			591.224,893.617 		"/>
		<polygon fill="none" stroke="#FFFFFF" stroke-miterlimit="10" points="584.491,879.274 584.491,882.636 591.931,889.723 
			592.993,863.688 		"/>
		<polygon fill="none" stroke="#FFFFFF" stroke-miterlimit="10" points="581.659,885.648 578.648,891.317 580.95,900.88 		"/>
		<polygon fill="none" stroke="#FFFFFF" stroke-miterlimit="10" points="576.347,895.39 570.678,906.371 578.294,925.852 
			580.243,907.965 		"/>
		<polygon fill="none" stroke="#FFFFFF" stroke-miterlimit="10" points="581.481,916.289 579.71,931.164 582.899,935.414 
			584.491,931.164 		"/>
		<polygon fill="none" stroke="#FFFFFF" stroke-miterlimit="10" points="583.784,911.684 586.442,927.445 589.984,919.297 
			590.161,907.965 		"/>
		<polygon fill="none" stroke="#FFFFFF" stroke-miterlimit="10" points="593.171,896.453 592.64,902.297 596.714,900.35 		"/>
		<polygon fill="none" stroke="#FFFFFF" stroke-miterlimit="10" points="591.754,907.079 591.4,913.278 595.473,905.84 		"/>
		<polygon fill="none" stroke="#FFFFFF" stroke-miterlimit="10" points="597.599,904.421 590.869,920.538 591.045,927.268 
			598.661,935.238 599.546,903.893 		"/>
		<polygon fill="none" stroke="#FFFFFF" stroke-miterlimit="10" points="601.849,901.588 605.038,905.131 606.276,897.869 		"/>
		<polygon fill="none" stroke="#FFFFFF" stroke-miterlimit="10" points="618.498,891.849 612.653,920.538 613.716,938.071 		"/>
		<polygon fill="none" stroke="#FFFFFF" stroke-miterlimit="10" points="611.06,923.727 602.911,961.627 608.224,956.488 		"/>
		<polygon fill="none" stroke="#FFFFFF" stroke-miterlimit="10" points="611.589,933.645 610.35,953.125 612.653,950.647 		"/>
		<polygon fill="none" stroke="#FFFFFF" stroke-miterlimit="10" points="618.675,850.582 618.498,860.497 620.444,853.771 		"/>
		<polygon fill="none" stroke="#FFFFFF" stroke-miterlimit="10" points="621.685,856.604 619.384,867.407 619.736,882.993 
			622.217,863.863 		"/>
		<polygon fill="none" stroke="#FFFFFF" stroke-miterlimit="10" points="629.655,835.526 626.467,863.511 628.062,872.012 
			631.07,841.372 		"/>
		<path fill="none" stroke="#FFFFFF" stroke-miterlimit="10" d="M610.35,821.36c0,0,0.178,6.552-1.417,8.146
			c0,1.239,1.063,1.239,1.063,1.239l3.896-1.063C613.892,829.682,612.475,823.308,610.35,821.36z"/>
		<path fill="none" stroke="#FFFFFF" stroke-miterlimit="10" d="M611.766,833.757c0,0,3.896,5.313,3.367,4.607
			c-0.531-0.71-0.71-4.255-0.71-4.255L611.766,833.757z"/>
		<path fill="none" stroke="#FFFFFF" stroke-miterlimit="10" d="M588.033,816.931c0,0,0.179,13.993-0.176,20.369
			c6.729-1.948,6.729-1.948,6.729-1.948l0.355-12.399C594.942,822.952,589.806,816.755,588.033,816.931z"/>
		<path fill="none" stroke="#FFFFFF" stroke-miterlimit="10" d="M568.375,809.315c0,0,7.618,7.439,6.199,19.661
			c-0.176,8.678-0.53,12.927-0.53,12.927h2.303c0,0,12.928-21.43,7.615-27.275C573.157,810.204,568.375,809.315,568.375,809.315z"/>
		<path fill="none" stroke="#FFFFFF" stroke-miterlimit="10" d="M564.48,807.901l0.353,1.945c0,0,8.502,9.564,1.595,29.935
			c-0.886,2.477-0.709,3.719-0.709,3.719l5.669-0.357c0,0,2.479-22.493-1.418-28.336C566.605,808.962,564.48,807.901,564.48,807.901
			z"/>
		<path fill="none" stroke="#FFFFFF" stroke-miterlimit="10" d="M562.709,811.618l-5.313,7.968c0,0,6.731,14.879,6.552,19.307
			C567.137,826.317,568.729,819.233,562.709,811.618z"/>
		<polygon fill="none" stroke="#FFFFFF" stroke-miterlimit="10" points="554.916,824.193 556.332,847.571 562.888,845.27 
			556.332,823.485 		"/>
		<polygon fill="none" stroke="#FFFFFF" stroke-miterlimit="10" points="552.082,828.265 538.446,846.508 544.112,850.938 
			553.677,848.457 		"/>
		<polygon fill="none" stroke="#FFFFFF" stroke-miterlimit="10" points="549.249,854.123 554.208,857.667 554.03,852.707 		"/>
		<polygon fill="none" stroke="#FFFFFF" stroke-miterlimit="10" points="556.688,851.468 556.509,859.439 559.521,861.562 
			562.354,850.051 		"/>
		<polygon fill="none" stroke="#FFFFFF" stroke-miterlimit="10" points="567.313,847.925 568.907,855.365 570.856,852.885 
			571.388,847.749 		"/>
		<polygon fill="none" stroke="#FFFFFF" stroke-miterlimit="10" points="564.48,850.582 562.354,862.802 564.127,865.104 
			568.021,859.439 		"/>
		<polygon fill="none" stroke="#FFFFFF" stroke-miterlimit="10" points="568.554,864.042 566.96,867.055 570.149,869.179 		"/>
		<polygon fill="none" stroke="#FFFFFF" stroke-miterlimit="10" points="586.797,824.371 579.534,840.312 585.732,838.717 		"/>
		<polygon fill="none" stroke="#FFFFFF" stroke-miterlimit="10" points="597.246,822.6 600.255,833.049 600.964,825.079 		"/>
		<polygon fill="none" stroke="#FFFFFF" stroke-miterlimit="10" points="602.558,827.201 602.558,832.871 605.923,830.745 		"/>
		<polygon fill="none" stroke="#FFFFFF" stroke-miterlimit="10" points="615.133,847.217 604.859,856.248 607.517,869.71 		"/>
		<polygon fill="none" stroke="#FFFFFF" stroke-miterlimit="10" points="590.516,930.812 589.806,941.969 595.825,935.592 		"/>
		<polygon fill="none" stroke="#FFFFFF" stroke-miterlimit="10" points="596.89,945.688 592.287,965.522 595.825,964.992 		"/>
		<polygon fill="none" stroke="#FFFFFF" stroke-miterlimit="10" points="594.767,942.323 589.274,947.104 590.869,958.263 		"/>
		<path fill="none" stroke="#FFFFFF" stroke-miterlimit="10" d="M585.378,935.414l-3.365,5.49c0,0,5.845,9.918,5.313,9.21
			C586.797,949.405,585.378,935.414,585.378,935.414z"/>
		<polygon fill="none" stroke="#FFFFFF" stroke-miterlimit="10" points="578.648,936.652 577.23,947.281 580.418,940.371 		"/>
		<polygon fill="none" stroke="#FFFFFF" stroke-miterlimit="10" points="569.438,913.634 566.428,957.553 569.971,960.802 
			574.222,952.771 576.464,931.989 		"/>
		<polygon fill="none" stroke="#FFFFFF" stroke-miterlimit="10" points="572.096,877.091 570.445,901.766 576.11,891.849 		"/>
		<polygon fill="none" stroke="#FFFFFF" stroke-miterlimit="10" points="564.775,870.596 558.163,882.641 567.847,902.595 
			569.971,874.492 		"/>
		<polygon fill="none" stroke="#FFFFFF" stroke-miterlimit="10" points="543.523,855.954 554.978,877.207 554.622,862.565 		"/>
		<polygon fill="none" stroke="#FFFFFF" stroke-miterlimit="10" points="556.981,865.045 557.337,872.721 559.11,865.99 		"/>
		<polygon fill="none" stroke="#FFFFFF" stroke-miterlimit="10" points="560.76,867.997 559.817,873.547 563.359,869.179 		"/>
		<polygon fill="none" stroke="#FFFFFF" stroke-miterlimit="10" points="540.218,857.608 528.41,861.504 528.529,880.396 
			542.105,908.495 555.21,883.938 		"/>
		<polygon fill="none" stroke="#FFFFFF" stroke-miterlimit="10" points="528.999,887.832 528.999,931.636 540.1,912.393 		"/>
		<polygon fill="none" stroke="#FFFFFF" stroke-miterlimit="10" points="553.44,892.556 543.286,912.273 548.01,922.544 		"/>
		<polygon fill="none" stroke="#FFFFFF" stroke-miterlimit="10" points="555.567,894.565 549.19,925.852 552.615,933.645 
			557.456,925.97 556.273,892.911 		"/>
		<polygon fill="none" stroke="#FFFFFF" stroke-miterlimit="10" points="558.163,889.96 560.054,920.538 567.492,907.434 		"/>
		<polygon fill="none" stroke="#FFFFFF" stroke-miterlimit="10" points="567.02,913.455 559.582,926.443 560.054,953.246 
			564.54,956.432 		"/>
		<polygon fill="none" stroke="#FFFFFF" stroke-miterlimit="10" points="557.456,930.93 553.323,937.066 557.81,948.167 		"/>
		<polygon fill="none" stroke="#FFFFFF" stroke-miterlimit="10" points="552.261,940.848 548.836,945.215 555.095,949.349 		"/>
		<polygon fill="none" stroke="#FFFFFF" stroke-miterlimit="10" points="547.655,948.52 543.169,956.076 541.752,965.642 
			558.872,966.35 558.872,956.903 		"/>
		<polygon fill="none" stroke="#FFFFFF" stroke-miterlimit="10" points="581.659,943.207 576.229,955.368 576.7,964.284 
			586.972,964.459 587.209,955.015 		"/>
		<polygon fill="none" stroke="#FFFFFF" stroke-miterlimit="10" points="564.537,960.563 563.654,962.867 568.375,962.867 		"/>
		<polygon fill="none" stroke="#FFFFFF" stroke-miterlimit="10" points="529.474,936.949 538.325,957.611 545.058,946.397 		"/>
		<polygon fill="none" stroke="#FFFFFF" stroke-miterlimit="10" points="541.517,915.936 531.717,932.58 544.114,941.554 
			546.946,927.86 		"/>
		<polygon fill="none" stroke="#FFFFFF" stroke-miterlimit="10" points="548.363,932.109 546.593,942.498 551.08,937.423 		"/>
		<polygon fill="none" stroke="#FFFFFF" stroke-miterlimit="10" points="529.12,945.922 529.944,965.876 536.677,961.155 		"/>
		<polygon fill="none" stroke="#FFFFFF" stroke-miterlimit="10" points="525.28,945.806 512.942,967.295 526.226,966.408 		"/>
		<polygon fill="none" stroke="#FFFFFF" stroke-miterlimit="10" points="510.581,925.852 505.503,963.987 509.044,967.769 
			525.931,938.842 522.625,931.994 		"/>
		<polygon fill="none" stroke="#FFFFFF" stroke-miterlimit="10" points="512.47,913.103 511.054,921.602 518.846,925.024 		"/>
		<polygon fill="none" stroke="#FFFFFF" stroke-miterlimit="10" points="487.44,913.455 485.55,934.826 502.789,959.148 
			507.865,923.845 		"/>
		<polygon fill="none" stroke="#FFFFFF" stroke-miterlimit="10" points="501.489,894.328 489.093,908.259 508.22,919.24 
			509.637,907.787 		"/>
		<path fill="none" stroke="#FFFFFF" stroke-miterlimit="10" d="M513.415,878.626c-0.354,0.234-9.683,11.924-9.683,11.924
			l6.967,11.924L513.415,878.626z"/>
		<polygon fill="none" stroke="#FFFFFF" stroke-miterlimit="10" points="520.146,870.124 517.429,873.547 512.825,907.434 
			525.931,930.221 525.694,880.75 		"/>
		<polygon fill="none" stroke="#FFFFFF" stroke-miterlimit="10" points="525.223,863.511 522.271,866.819 525.223,872.841 		"/>
		<polygon fill="none" stroke="#FFFFFF" stroke-miterlimit="10" points="535.613,849.814 530.77,855.836 538.208,853.122 		"/>
		<path fill="none" stroke="#FFFFFF" stroke-miterlimit="10" d="M521.681,803.059c0,0,8.028,8.147,5.903,26.685
			c7.793,13.342,8.501,13.813,8.501,13.813l15.82-20.309C551.905,823.248,554.978,810.261,521.681,803.059z"/>
		<polygon fill="none" stroke="#FFFFFF" stroke-miterlimit="10" points="523.804,802.822 545.058,809.078 534.195,802.23 		"/>
		<path fill="none" stroke="#FFFFFF" stroke-miterlimit="10" d="M537.739,802.23c0,0,15.701,9.093,17,14.76
			c4.369-8.028,6.256-8.975,0.471-12.161C548.716,803.176,537.739,802.23,537.739,802.23z"/>
		<path fill="none" stroke="#FFFFFF" stroke-miterlimit="10" d="M591.458,809.434c0,0,8.268,6.611,8.501,11.927
			c5.434,4.957,6.968,6.611,6.968,6.611s1.652-6.493,0.828-9.446C605.393,815.692,598.544,810.376,591.458,809.434z"/>
		<path fill="none" stroke="#FFFFFF" stroke-miterlimit="10" d="M607.634,814.51c0,0,3.308,3.662,2.6,5.902
			c4.131,4.607,4.487,9.213,4.487,9.213l3.895-1.182C618.615,828.443,618.498,819.586,607.634,814.51z"/>
		<path fill="none" stroke="#FFFFFF" stroke-miterlimit="10" d="M506.804,803.768c0,0-6.613,0.472-16.648,2.125
			c10.745,2.243,28.1,11.1,28.455,12.988C517.075,812.148,512.352,806.601,506.804,803.768z"/>
		<path fill="none" stroke="#FFFFFF" stroke-miterlimit="10" d="M485.195,806.956c0,0,5.196,4.25,4.84,9.208
			c6.377,5.784,11.69,10.862,11.69,10.862l16.412,8.739l0.708-11.101C518.846,824.665,506.804,811.087,485.195,806.956z"/>
		<path fill="none" stroke="#FFFFFF" stroke-miterlimit="10" d="M478.112,805.421l-9.801,0.588c0,0,14.289,2.364,17.713,7.324
			C483.188,807.072,478.112,805.421,478.112,805.421z"/>
		<path fill="none" stroke="#FFFFFF" stroke-miterlimit="10" d="M452.964,807.901l9.798,5.663c0,0,21.49,5.432,24.797,6.848
			C487.559,818.053,476.694,804.357,452.964,807.901z"/>
		<polygon fill="none" stroke="#FFFFFF" stroke-miterlimit="10" points="492.634,826.671 490.745,868.823 514.95,861.149 
			498.538,829.388 		"/>
		<polygon fill="none" stroke="#FFFFFF" stroke-miterlimit="10" points="504.089,832.695 516.483,855.954 518.138,839.781 		"/>
		<polygon fill="none" stroke="#FFFFFF" stroke-miterlimit="10" points="520.854,841.669 518.493,859.852 525.576,858.079 
			525.223,844.029 		"/>
		<polygon fill="none" stroke="#FFFFFF" stroke-miterlimit="10" points="527.819,845.682 527.938,854.185 532.78,848.163 		"/>
		<polygon fill="none" stroke="#FFFFFF" stroke-miterlimit="10" points="527.819,836.355 527.704,841.195 532.424,843.203 		"/>
		<polygon fill="none" stroke="#FFFFFF" stroke-miterlimit="10" points="522.271,828.798 521.442,837.062 524.749,839.069 
			524.867,831.396 		"/>
		<path fill="none" stroke="#FFFFFF" stroke-miterlimit="10" d="M514.36,803.413c0,0,7.91,5.193,7.91,19.599
			c2.362,2.008,2.362,2.008,2.362,2.008s1.061-11.927-6.968-22.078C516.366,803.059,514.36,803.413,514.36,803.413z"/>
		<polygon fill="none" stroke="#FFFFFF" stroke-miterlimit="10" points="493.344,872.367 501.726,887.361 514.95,872.367 
			514.833,865.282 		"/>
		<polygon fill="none" stroke="#FFFFFF" stroke-miterlimit="10" points="489.564,874.137 487.795,904.48 499.838,889.96 		"/>
		<polygon fill="none" stroke="#FFFFFF" stroke-miterlimit="10" points="483.426,915.814 477.523,923.489 483.071,930.575 		"/>
		<polygon fill="none" stroke="#FFFFFF" stroke-miterlimit="10" points="474.925,926.559 463.001,940.729 467.487,966.587 
			480.236,966.587 482.363,936.478 		"/>
		<polygon fill="none" stroke="#FFFFFF" stroke-miterlimit="10" points="485.315,941.082 483.188,966.939 503.912,966.408 		"/>
		<polygon fill="none" stroke="#FFFFFF" stroke-miterlimit="10" points="460.166,944.271 450.365,955.605 463.707,965.17 		"/>
		<path fill="none" stroke="#FFFFFF" stroke-miterlimit="10" d="M447.887,958.203c-0.354,0.234-1.889,8.617-1.889,8.617
			l14.403,0.119L447.887,958.203z"/>
		<polygon fill="none" stroke="#FFFFFF" stroke-miterlimit="10" points="438.913,952.064 438.678,963.751 444.935,956.313 		"/>
		<polygon fill="none" stroke="#FFFFFF" stroke-miterlimit="10" points="457.095,904.954 449.186,951.119 472.327,923.373 		"/>
		<polygon fill="none" stroke="#FFFFFF" stroke-miterlimit="10" points="460.048,900.82 474.335,919.948 483.071,911.094 		"/>
		<polygon fill="none" stroke="#FFFFFF" stroke-miterlimit="10" points="460.993,882.757 459.221,893.383 484.015,906.604 
			486.493,874.964 		"/>
		<polygon fill="none" stroke="#FFFFFF" stroke-miterlimit="10" points="465.361,855.836 461.228,878.15 468.431,875.436 
			466.306,855.128 		"/>
		<path fill="none" stroke="#FFFFFF" stroke-miterlimit="10" d="M468.075,839.188l-1.298,10.152c0,0,3.308,3.781,4.604,24.914
			c13.934-4.015,15.822-4.604,15.822-4.604S473.39,842.851,468.075,839.188z"/>
		<path fill="none" stroke="#FFFFFF" stroke-miterlimit="10" d="M466.07,817.58c0,0,3.778,6.14,2.831,15.115
			c7.793,12.396,18.656,29.752,18.656,29.752l1.416-37.428L466.07,817.58z"/>
		<polygon fill="none" stroke="#FFFFFF" stroke-miterlimit="10" points="599.546,848.811 594.767,859.084 592.993,891.14 
			597.954,897.161 600.255,890.608 600.609,847.396 		"/>
		<path fill="none" stroke="#FFFFFF" stroke-miterlimit="10" d="M616.548,855.009l-6.198,33.12l-0.53,3.541l6.906-5.136
			C616.726,886.534,619.205,859.792,616.548,855.009z"/>
		<polygon fill="none" stroke="#FFFFFF" stroke-miterlimit="10" points="620.623,839.069 618.321,845.803 620.444,848.457 		"/>
		<path fill="none" stroke="#FFFFFF" stroke-miterlimit="10" d="M622.925,831.102c0,0,0.354,19.836-0.177,21.783
			c0.531,2.302,0.531,2.302,0.531,2.302s2.124-17.532,1.063-24.972C623.102,830.037,622.925,831.102,622.925,831.102z"/>
		<polygon fill="none" stroke="#FFFFFF" stroke-miterlimit="10" points="623.81,863.511 620.978,882.993 624.872,881.044 
			625.582,866.876 		"/>
		<polygon fill="none" stroke="#FFFFFF" stroke-miterlimit="10" points="622.569,885.115 620.444,887.065 620.623,905.84 		"/>
		<polygon fill="none" stroke="#FFFFFF" stroke-miterlimit="10" points="624.696,882.993 621.153,911.152 625.403,889.368 
			626.644,880.336 		"/>
		<polygon fill="none" stroke="#FFFFFF" stroke-miterlimit="10" points="618.145,908.674 615.133,938.78 619.561,915.578 
			618.851,903.357 		"/>
		<polygon fill="none" stroke="#FFFFFF" stroke-miterlimit="10" points="625.403,897.161 621.153,913.634 620.623,922.311 		"/>
		<polygon fill="none" stroke="#FFFFFF" stroke-miterlimit="10" points="619.027,927.092 617.257,934.883 616.726,943.385 
			619.027,931.164 		"/>
		<path fill="none" stroke="#FFFFFF" stroke-miterlimit="10" d="M618.145,945.864c-0.533,0.354-4.253,6.905-4.253,6.905
			s0,8.501-0.529,8.682c-0.532,0.176,0.883,2.833,0.883,2.833L618.145,945.864z"/>
		<path fill="none" stroke="#FFFFFF" stroke-miterlimit="10" d="M612.298,956.668l-2.479,8.324c0,0,2.479,0,2.479-0.533
			C612.298,963.928,612.298,956.668,612.298,956.668z"/>
		<polygon fill="none" stroke="#FFFFFF" stroke-miterlimit="10" points="607.517,960.74 603.264,964.814 606.63,964.814 		"/>
		<polygon fill="none" stroke="#FFFFFF" stroke-miterlimit="10" points="632.488,847.571 633.197,850.582 630.188,872.543 
			629.833,869.71 		"/>
		<path fill="none" stroke="#FFFFFF" stroke-miterlimit="10" d="M626.997,873.429c0,1.595-0.354,4.25-0.354,4.25l2.479-2.123
			L626.997,873.429z"/>
		<polygon fill="none" stroke="#FFFFFF" stroke-miterlimit="10" points="601.849,906.548 601.317,918.943 603.798,907.965 		"/>
		<path fill="none" stroke="#FFFFFF" stroke-miterlimit="10" d="M432.892,810.023c0,0,12.929-7.082,24.262,2.657
			C446.352,811.087,432.892,810.023,432.892,810.023z"/>
		<path fill="none" stroke="#FFFFFF" stroke-miterlimit="10" d="M433.953,813.745c0,0,18.065,3.363,30.816,14.345
			c-0.71-7.085-4.073-11.865-4.073-11.865s-5.138-2.127-28.515-4.43C433.244,813.39,433.953,813.745,433.953,813.745z"/>
		<path fill="none" stroke="#FFFFFF" stroke-miterlimit="10" d="M435.194,817.108c0,0,3.186,6.199,3.542,22.494
			c-0.177,15.229-0.533,34.89-0.533,34.89l6.908,8.501l11.865-3.896c0,0,6.493-28.81,7.793-45.163
			C455.382,825.257,453.79,822.6,435.194,817.108z"/>
		<polygon fill="none" stroke="#FFFFFF" stroke-miterlimit="10" points="448.478,886.713 454.676,894.15 457.153,884.41 		"/>
		<polygon fill="none" stroke="#FFFFFF" stroke-miterlimit="10" points="438.736,881.93 439.09,885.296 441.392,883.701 		"/>
		<polygon fill="none" stroke="#FFFFFF" stroke-miterlimit="10" points="442.633,888.482 445.465,888.837 445.465,887.774 		"/>
		<polygon fill="none" stroke="#FFFFFF" stroke-miterlimit="10" points="439.09,891.67 438.56,946.75 445.288,951.353 
			454.319,900.527 450.956,896.809 		"/>
		<polygon fill="none" stroke="#FFFFFF" stroke-miterlimit="10" points="434.661,890.963 420.847,895.39 424.921,937.716 
			435.018,943.915 		"/>
		<polygon fill="none" stroke="#FFFFFF" stroke-miterlimit="10" points="426.161,943.737 428.108,968.889 434.661,967.825 
			434.839,949.405 		"/>
		<polygon fill="none" stroke="#FFFFFF" stroke-miterlimit="10" points="407.742,931.342 408.097,969.419 424.567,968.709 
			421.732,940.552 		"/>
		<polygon fill="none" stroke="#FFFFFF" stroke-miterlimit="10" points="407.563,900.88 407.563,926.206 420.847,935.061 
			416.95,896.983 		"/>
		<polygon fill="none" stroke="#FFFFFF" stroke-miterlimit="10" points="407.034,880.336 407.563,894.858 416.065,891.849 
			415.534,882.993 		"/>
		<polygon fill="none" stroke="#FFFFFF" stroke-miterlimit="10" points="420.316,885.296 421.202,891.14 429.525,888.482 		"/>
		<polygon fill="none" stroke="#FFFFFF" stroke-miterlimit="10" points="417.305,856.779 419.607,879.98 434.839,885.296 
			434.484,876.438 		"/>
		<path fill="none" stroke="#FFFFFF" stroke-miterlimit="10" d="M415.181,817.108c0,0-1.063,12.573,0.531,31.349
			c15.052,17.004,19.127,22.316,19.127,22.316s2.123-46.759-4.781-54.729c-10.095-2.122-14.7-2.122-14.7-2.122L415.181,817.108z"/>
		<path fill="none" stroke="#FFFFFF" stroke-miterlimit="10" d="M401.897,817.286c0,0,4.073,11.157,3.542,20.368
			c6.022,4.957,6.022,4.957,6.022,4.957s-2.302-20.898-1.419-28.336C401.897,815.517,402.605,816.578,401.897,817.286z"/>
		<polygon fill="none" stroke="#FFFFFF" stroke-miterlimit="10" points="406.325,844.561 406.855,875.198 415.181,878.389 
			412.521,850.405 		"/>
		<path fill="none" stroke="#FFFFFF" stroke-miterlimit="10" d="M366.533,823.72c0,0,19.839-6.375,28.573-6.375
			c4.489,8.028,5.67,17.477,5.67,17.477S382.829,825.373,366.533,823.72z"/>
		<path fill="none" stroke="#FFFFFF" stroke-miterlimit="10" d="M367.48,825.846c0,0,4.96,7.087,5.668,13.697
			c11.806,10.625,14.404,12.751,17.71,29.752c11.334,4.015,11.334,4.015,11.334,4.015l-0.236-33.295
			C401.956,840.015,391.804,832.222,367.48,825.846z"/>
		<path fill="none" stroke="#FFFFFF" stroke-miterlimit="10" d="M373.62,844.738c0,0-0.945,17.948-1.654,18.891
			c-0.708,0.945,14.642,4.25,14.642,4.25S384.009,852.058,373.62,844.738z"/>
		<path fill="none" stroke="#FFFFFF" stroke-miterlimit="10" d="M390.62,874.727c0,0-1.651,6.614-8.262,27.393
			c18.418-6.611,20.07-7.32,20.07-7.32v-16.058L390.62,874.727z"/>
		<polygon fill="none" stroke="#FFFFFF" stroke-miterlimit="10" points="401.956,902.83 383.772,910.62 391.804,915.578 
			401.483,915.814 		"/>
		<polygon fill="none" stroke="#FFFFFF" stroke-miterlimit="10" points="377.868,920.064 374.329,931.164 402.899,929.511 
			388.495,920.064 		"/>
		<polygon fill="none" stroke="#FFFFFF" stroke-miterlimit="10" points="373.384,934.942 366.3,957.377 389.206,970.362 
			403.315,969.595 402.429,934.234 		"/>
		<polygon fill="none" stroke="#FFFFFF" stroke-miterlimit="10" points="365.118,935.65 363.229,951.71 368.661,935.885 		"/>
		<polygon fill="none" stroke="#FFFFFF" stroke-miterlimit="10" points="366.3,916.994 365.59,930.456 370.313,930.692 
			375.272,914.162 		"/>
		<path fill="none" stroke="#FFFFFF" stroke-miterlimit="10" d="M371.966,868.587l-3.541,33.061l7.792,4.957
			c0,0,8.029-21.016,8.973-32.821C375.981,869.532,371.966,868.587,371.966,868.587z"/>
		<path fill="none" stroke="#FFFFFF" stroke-miterlimit="10" d="M358.742,824.43c0,0-0.473,6.85-1.181,6.85
			c8.972,4.013,8.972,4.013,8.972,4.013S364.171,829.15,358.742,824.43z"/>
		<polygon fill="none" stroke="#FFFFFF" stroke-miterlimit="10" points="356.146,834.35 342.92,855.839 367.952,862.687 
			369.132,841.434 		"/>
		<polygon fill="none" stroke="#FFFFFF" stroke-miterlimit="10" points="341.269,859.852 330.17,879.213 363.938,899.052 
			367.243,867.645 		"/>
		<polygon fill="none" stroke="#FFFFFF" stroke-miterlimit="10" points="328.045,883.701 319.07,898.58 317.653,926.206 
			321.433,929.984 362.048,910.148 363.229,903.771 		"/>
		<polygon fill="none" stroke="#FFFFFF" stroke-miterlimit="10" points="361.339,919.83 329.462,932.58 360.158,931.401 		"/>
		<polygon fill="none" stroke="#FFFFFF" stroke-miterlimit="10" points="328.989,937.54 341.505,948.639 357.561,958.559 
			359.451,935.416 		"/>
		<polygon fill="none" stroke="#FFFFFF" stroke-miterlimit="10" points="320.959,937.066 315.529,937.066 314.348,942.027 
			337.018,952.653 		"/>
		<polygon fill="none" stroke="#FFFFFF" stroke-miterlimit="10" points="314.348,949.584 312.991,971.722 359.569,970.658 
			348.767,959.324 		"/>
		<polygon fill="none" stroke="#FFFFFF" stroke-miterlimit="10" points="360.632,962.806 365.59,970.6 382.592,969.419 		"/>
		<polygon fill="none" stroke="#FFFFFF" stroke-miterlimit="10" points="294.512,943.207 286.957,954.069 291.56,973.492 
			307.854,973.316 309.86,947.222 		"/>
		<polygon fill="none" stroke="#FFFFFF" stroke-miterlimit="10" points="306.085,922.191 295.93,938.721 310.57,943.681 
			311.278,925.97 		"/>
		<polygon fill="none" stroke="#FFFFFF" stroke-miterlimit="10" points="312.93,909.678 308.681,917.705 311.987,920.301 		"/>
		<polygon fill="none" stroke="#FFFFFF" stroke-miterlimit="10" points="320.252,878.507 319.543,889.368 323.793,881.341 		"/>
		<polygon fill="none" stroke="#FFFFFF" stroke-miterlimit="10" points="322.376,854.42 320.488,873.783 326.155,876.854 
			336.31,858.908 		"/>
		<path fill="none" stroke="#FFFFFF" stroke-miterlimit="10" d="M275.62,842.377c0,0-1.888,3.541-2.597,7.083
			c28.809,13.461,43.923,22.199,43.923,22.199l0.473-19.13C317.419,852.529,289.317,844.029,275.62,842.377z"/>
		<path fill="none" stroke="#FFFFFF" stroke-miterlimit="10" d="M253.659,847.809c0,0-3.306,5.431-4.015,14.878
			c10.864,8.737,20.544,18.654,20.544,18.654s-5.666-19.837-2.597-28.812C256.021,847.809,253.659,847.809,253.659,847.809z"/>
		<path fill="none" stroke="#FFFFFF" stroke-miterlimit="10" d="M272.315,854.185c0,0-1.652,14.876,3.777,32.116
			c12.988,12.514,28.573,27.861,28.573,27.861l9.682-16.765l1.417-21.015L272.315,854.185z"/>
		<path fill="none" stroke="#FFFFFF" stroke-miterlimit="10" d="M283.176,900.704c0,0,9.446,20.779,13.935,26.919
			c5.43-9.446,5.902-8.738,5.902-8.738l-19.837-18.889V900.704z"/>
		<path fill="none" stroke="#FFFFFF" stroke-miterlimit="10" d="M277.038,894.328c0,0,4.723,27.392,8.5,40.852
			c6.613,1.653,8.501-2.6,8.501-2.6L277.038,894.328z"/>
		<path fill="none" stroke="#FFFFFF" stroke-miterlimit="10" d="M314.584,831.633c0,0,6.553,4.781,7.616,17.355
			c15.764,4.605,15.764,4.605,15.764,4.605s10.625-17.356,15.938-29.579C339.909,823.308,329.107,826.671,314.584,831.633z"/>
		<path fill="none" stroke="#FFFFFF" stroke-miterlimit="10" d="M300.593,833.757c0,0-17.002,4.074-22.846,6.198
			c23.554,3.897,40.024,7.97,40.024,7.97S315.47,830.392,300.593,833.757z"/>
		<polygon fill="none" stroke="#FFFFFF" stroke-miterlimit="10" points="268.182,841.195 257.556,845.444 267.828,848.457 
			271.548,841.726 		"/>
		<polygon fill="none" stroke="#FFFFFF" stroke-miterlimit="10" points="248.347,849.341 235.95,854.123 244.98,859.792 		"/>
		<polygon fill="none" stroke="#FFFFFF" stroke-miterlimit="10" points="250.295,869.002 260.566,926.913 279.518,933.645 
			271.018,888.66 		"/>
		<polygon fill="none" stroke="#FFFFFF" stroke-miterlimit="10" points="262.161,933.292 268.005,964.106 274.204,936.833 		"/>
		<polygon fill="none" stroke="#FFFFFF" stroke-miterlimit="10" points="277.747,938.071 269.422,972.428 270.484,975.616 
			283.591,952.95 280.402,938.957 		"/>
		<polygon fill="none" stroke="#FFFFFF" stroke-miterlimit="10" points="249.056,937.895 250.118,961.094 261.808,955.072 
			257.733,937.01 		"/>
		<polygon fill="none" stroke="#FFFFFF" stroke-miterlimit="10" points="248.699,928.685 248.17,933.82 257.024,933.467 
			257.024,931.164 		"/>
		<polygon fill="none" stroke="#FFFFFF" stroke-miterlimit="10" points="238.429,937.54 245.867,953.833 245.514,937.895 		"/>
		<polygon fill="none" stroke="#FFFFFF" stroke-miterlimit="10" points="230.46,923.373 236.304,932.58 245.514,932.934 
			245.335,927.623 		"/>
		<polygon fill="none" stroke="#FFFFFF" stroke-miterlimit="10" points="250.649,964.459 255.962,975.44 266.234,974.732 
			261.808,960.21 		"/>
		<path fill="none" stroke="#FFFFFF" stroke-miterlimit="10" d="M234.71,858.197c0,0-1.771,39.319-0.709,60.394
			c13.992,4.782,22.316,7.968,22.316,7.968s-10.804-55.08-10.804-61.454C237.012,859.261,234.71,858.197,234.71,858.197z"/>
		<path fill="none" stroke="#FFFFFF" stroke-miterlimit="10" d="M230.991,862.447c0,0-6.554,9.389-9.563,38.788
			c4.604,10.448,7.26,16.114,7.26,16.114S228.688,871.479,230.991,862.447z"/>
		<polygon fill="none" stroke="#FFFFFF" stroke-miterlimit="10" points="220.01,920.008 223.729,933.467 230.282,933.111 
			224.438,920.894 		"/>
		<polygon fill="none" stroke="#FFFFFF" stroke-miterlimit="10" points="216.823,924.079 214.695,933.82 219.479,933.111 		"/>
		<polygon fill="none" stroke="#FFFFFF" stroke-miterlimit="10" points="214.875,938.604 212.571,953.655 225.5,953.478 
			220.542,938.424 		"/>
		<path fill="none" stroke="#FFFFFF" stroke-miterlimit="10" d="M224.791,937.54c0,0,3.542,11.688,3.542,11.157
			c0-0.53,1.063-10.981,1.063-10.981L224.791,937.54z"/>
		<path fill="none" stroke="#FFFFFF" stroke-miterlimit="10" d="M233.292,939.843c-0.529,0.176,0,25.502,0,25.502l10.805-3.01
			L233.292,939.843z"/>
		<polygon fill="none" stroke="#FFFFFF" stroke-miterlimit="10" points="208.853,939.313 206.372,959.854 187.069,947.281 
			183.88,941.082 		"/>
		<polygon fill="none" stroke="#FFFFFF" stroke-miterlimit="10" points="211.51,922.841 210.27,934.175 181.401,937.54 
			175.733,926.559 		"/>
		<polygon fill="none" stroke="#FFFFFF" stroke-miterlimit="10" points="212.394,917.881 173.432,922.311 170.597,918.767 
			170.775,905.485 		"/>
		<path fill="none" stroke="#FFFFFF" stroke-miterlimit="10" d="M201.944,870.948c0,0,6.73,17.003,13.461,30.287
			c-1.416,9.74-1.771,12.043-1.771,12.043l-44.101-13.462l8.856-16.645C178.391,883.172,189.194,876.438,201.944,870.948z"/>
		<path fill="none" stroke="#FFFFFF" stroke-miterlimit="10" d="M206.194,868.823l10.805,25.505c0,0,2.656-26.388,9.563-35.244
			C217.884,861.916,206.194,868.823,206.194,868.823z"/>
		<polygon fill="none" stroke="#FFFFFF" stroke-miterlimit="10" points="198.756,860.322 184.235,875.556 201.237,867.229 		"/>
		<path fill="none" stroke="#FFFFFF" stroke-miterlimit="10" d="M214.343,851.468c0,0-5.136,2.126-10.804,6.021
			c1.417,6.374,1.771,7.263,1.771,7.263s12.399-5.668,22.139-10.272C220.364,850.582,214.343,851.468,214.343,851.468z"/>
		<polygon fill="none" stroke="#FFFFFF" stroke-miterlimit="10" points="240.73,845.622 235.065,852.177 247.816,846.508 		"/>
		<polygon fill="none" stroke="#FFFFFF" stroke-miterlimit="10" points="260.39,840.664 257.201,843.853 264.64,840.664 		"/>
		<path fill="none" stroke="#FFFFFF" stroke-miterlimit="10" d="M197.518,856.779c0,0-17.003,2.305-26.921,10.45
			c0.179,13.459-0.178,15.586-0.178,15.586l5.847-3.188C176.266,879.627,184.056,868.646,197.518,856.779z"/>
		<polygon fill="none" stroke="#FFFFFF" stroke-miterlimit="10" points="165.46,890.432 157.492,896.63 166.17,899.108 		"/>
		<polygon fill="none" stroke="#FFFFFF" stroke-miterlimit="10" points="165.284,869.71 150.761,882.636 155.544,891.67 
			165.64,885.474 		"/>
		<polygon fill="none" stroke="#FFFFFF" stroke-miterlimit="10" points="147.22,885.648 140.666,892.201 148.814,895.214 
			152.179,893.797 		"/>
		<path fill="none" stroke="#FFFFFF" stroke-miterlimit="10" d="M141.021,873.959c0,0-7.794,12.401-4.428,16.828
			c8.679-8.504,9.387-8.857,9.387-8.857L141.021,873.959z"/>
		<polygon fill="none" stroke="#FFFFFF" stroke-miterlimit="10" points="137.479,895.92 136.239,897.691 137.302,901.235 
			143.855,898.225 		"/>
		<path fill="none" stroke="#FFFFFF" stroke-miterlimit="10" d="M138.542,905.307c0,0.533,3.541,15.587,3.541,15.587l18.597-10.448
			l-4.429-8.857l-6.905-2.124L138.542,905.307z"/>
		<polygon fill="none" stroke="#FFFFFF" stroke-miterlimit="10" points="156.606,917.175 145.802,922.663 152.179,926.382 		"/>
		<polygon fill="none" stroke="#FFFFFF" stroke-miterlimit="10" points="162.628,915.048 156.251,929.393 166.701,936.3 
			166.701,920.894 		"/>
		<polygon fill="none" stroke="#FFFFFF" stroke-miterlimit="10" points="171.306,929.925 171.482,938.424 178.212,943.207 		"/>
		<polygon fill="none" stroke="#FFFFFF" stroke-miterlimit="10" points="171.482,944.271 171.482,956.313 187.245,959.501 
			182.465,950.291 		"/>
		<polygon fill="none" stroke="#FFFFFF" stroke-miterlimit="10" points="190.078,955.43 192.735,960.563 202.123,962.689 		"/>
		<polygon fill="none" stroke="#FFFFFF" stroke-miterlimit="10" points="172.546,960.918 172.722,977.388 196.987,976.682 
			190.788,964.814 		"/>
		<polygon fill="none" stroke="#FFFFFF" stroke-miterlimit="10" points="151.647,954.365 160.325,980.224 167.939,979.867 
			168.296,959.324 		"/>
		<path fill="none" stroke="#FFFFFF" stroke-miterlimit="10" d="M154.658,933.467l-6.554,12.221l1.241,5.135
			c0,0,17.888,5.136,17.532,4.607c-0.354-0.533,0.532-13.637,0.532-13.637L154.658,933.467z"/>
		<polygon fill="none" stroke="#FFFFFF" stroke-miterlimit="10" points="142.793,926.382 146.688,939.843 150.053,930.989 		"/>
		<polygon fill="none" stroke="#FFFFFF" stroke-miterlimit="10" points="123.311,914.339 103.652,939.313 142.97,948.697 
			144.031,945.156 138.187,923.193 		"/>
		<path fill="none" stroke="#FFFFFF" stroke-miterlimit="10" d="M106.132,880.336c0,0-4.605,4.25-8.68,10.981
			c21.961,13.813,25.506,16.116,25.506,16.116l9.209-10.625l-0.178-3.366L106.132,880.336z"/>
		<polygon fill="none" stroke="#FFFFFF" stroke-miterlimit="10" points="134.467,908.141 127.915,911.861 137.302,917.35 		"/>
		<polygon fill="none" stroke="#FFFFFF" stroke-miterlimit="10" points="107.901,944.626 117.82,961.271 117.288,946.75 		"/>
		<polygon fill="none" stroke="#FFFFFF" stroke-miterlimit="10" points="120.83,948.167 122.069,972.607 125.79,980.754 
			129.864,981.107 140.843,954.011 		"/>
		<polygon fill="none" stroke="#FFFFFF" stroke-miterlimit="10" points="144.917,954.188 139.074,968.531 149.876,968.709 
			145.98,954.365 		"/>
		<path fill="none" stroke="#FFFFFF" stroke-miterlimit="10" d="M136.239,974.732c0,0,4.604,3.365,4.074,3.72
			c-0.532,0.354,14.345,0.177,14.345,0.177l-2.479-3.896H136.239z"/>
		<polygon fill="none" stroke="#FFFFFF" stroke-miterlimit="10" points="101.35,943.385 107.017,980.4 119.061,980.754 
			117.288,970.836 103.121,943.385 		"/>
		<polygon fill="none" stroke="#FFFFFF" stroke-miterlimit="10" points="84.878,938.424 78.325,944.271 83.463,964.284 
			97.452,942.323 		"/>
		<polygon fill="none" stroke="#FFFFFF" stroke-miterlimit="10" points="97.985,947.812 84.171,969.419 87.005,979.867 
			103.652,979.69 		"/>
		<polygon fill="none" stroke="#FFFFFF" stroke-miterlimit="10" points="113.215,920.008 99.047,929.037 102.058,935.769 		"/>
		<path fill="none" stroke="#FFFFFF" stroke-miterlimit="10" d="M119.413,911.331c0,0-21.252-13.814-23.199-15.765
			c-0.355,9.74,1.238,29.752,1.238,29.752L119.413,911.331z"/>
		<path fill="none" stroke="#FFFFFF" stroke-miterlimit="10" d="M86.649,887.243c0,0-4.958,11.334,6.729,30.99
			c-3.009-16.82,0.178-23.905,0.178-23.905L86.649,887.243z"/>
		<path fill="none" stroke="#FFFFFF" stroke-miterlimit="10" d="M82.577,888.66c0,0-14.525,8.679-10.451,27.981
			c3.188,15.231,3.721,15.231,3.721,15.231l5.489,1.238l3.896,0.886l9.387-7.615C94.619,926.382,77.263,903.357,82.577,888.66z"/>
		<path fill="none" stroke="#FFFFFF" stroke-miterlimit="10" d="M77.617,889.015c0,0-14.877,1.948-14.345,17.356
			c0.531,16.113,1.771,23.376,1.771,23.376l7.438,1.595c0,0-12.752-32.233,1.416-37.725L77.617,889.015z"/>
		<polygon fill="none" stroke="#FFFFFF" stroke-miterlimit="10" points="66.104,933.467 70.71,944.979 74.429,941.436 
			73.543,934.708 		"/>
		<polygon fill="none" stroke="#FFFFFF" stroke-miterlimit="10" points="95.151,931.342 89.661,935.061 96.037,936.833 		"/>
		<polygon fill="none" stroke="#FFFFFF" stroke-miterlimit="10" points="75.138,946.218 72.126,948.52 80.45,967.647 		"/>
		<polygon fill="none" stroke="#FFFFFF" stroke-miterlimit="10" points="70.179,951 67.699,953.478 72.481,981.107 78.856,970.836 
					"/>
		<polygon fill="none" stroke="#FFFFFF" stroke-miterlimit="10" points="79.741,975.088 76.2,981.284 84.347,980.929 		"/>
		<polygon fill="none" stroke="#FFFFFF" stroke-miterlimit="10" points="65.575,954.188 58.489,961.627 60.083,974.378 
			67.521,964.284 		"/>
		<polygon fill="none" stroke="#FFFFFF" stroke-miterlimit="10" points="67.345,968.178 64.333,972.785 68.407,972.252 		"/>
		<polygon fill="none" stroke="#FFFFFF" stroke-miterlimit="10" points="51.761,928.685 49.988,937.01 57.073,958.263 
			65.396,949.762 62.74,931.52 		"/>
		<polygon fill="none" stroke="#FFFFFF" stroke-miterlimit="10" points="54.948,911.861 52.114,924.787 61.324,927.799 		"/>
		<polygon fill="none" stroke="#FFFFFF" stroke-miterlimit="10" points="60.614,900.702 56.365,908.318 62.033,923.193 		"/>
		<polygon fill="none" stroke="#FFFFFF" stroke-miterlimit="10" points="65.044,890.432 54.416,898.047 55.479,904.776 		"/>
		<polygon fill="none" stroke="#FFFFFF" stroke-miterlimit="10" points="51.405,900.527 44.499,908.674 52.999,913.101 
			53.53,909.028 		"/>
		<polygon fill="none" stroke="#FFFFFF" stroke-miterlimit="10" points="45.385,912.215 49.636,924.079 51.938,914.695 		"/>
		<path fill="none" stroke="#FFFFFF" stroke-miterlimit="10" d="M42.195,911.861c0,0-2.124,3.187-4.25,9.207
			c5.846,1.772,6.377,2.482,6.377,2.482S41.312,913.986,42.195,911.861z"/>
		<path fill="none" stroke="#FFFFFF" stroke-miterlimit="10" d="M37.237,924.435l-2.656,8.857c0,0,11.865,19.658,11.51,19.125
			c-0.353-0.531,1.772-17.709,1.772-17.709l-2.302-8.326L37.237,924.435z"/>
		<polygon fill="none" stroke="#FFFFFF" stroke-miterlimit="10" points="48.394,927.623 48.572,930.812 49.988,927.799 		"/>
		<path fill="none" stroke="#FFFFFF" stroke-miterlimit="10" d="M49.279,941.612l-2.655,14.346l4.781,7.44l3.011-4.428
			C54.416,958.971,51.582,944.626,49.279,941.612z"/>
		<path fill="none" stroke="#FFFFFF" stroke-miterlimit="10" d="M56.011,963.045l-2.834,4.25l3.896,4.603
			C57.073,971.897,56.897,965.17,56.011,963.045z"/>
		<polygon fill="none" stroke="#FFFFFF" stroke-miterlimit="10" points="51.229,968.356 44.146,975.44 43.614,981.993 57.78,981.64 
					"/>
		<polygon fill="none" stroke="#FFFFFF" stroke-miterlimit="10" points="46.624,960.032 45.915,969.419 49.636,964.637 		"/>
		<polygon fill="none" stroke="#FFFFFF" stroke-miterlimit="10" points="39.362,958.085 42.905,972.961 44.322,957.729 		"/>
		<polygon fill="none" stroke="#FFFFFF" stroke-miterlimit="10" points="34.404,937.54 38.831,954.188 44.146,954.188 		"/>
		<polygon fill="none" stroke="#FFFFFF" stroke-miterlimit="10" points="32.986,940.019 30.152,956.136 37.06,954.896 		"/>
		<path fill="none" stroke="#FFFFFF" stroke-miterlimit="10" d="M25.726,920.36c0,0-2.834,5.313-5.313,19.836
			c5.49,14.345,6.552,18.419,6.552,18.419s2.48-15.408,5.313-25.148C28.206,925.318,25.726,920.36,25.726,920.36z"/>
		<path fill="none" stroke="#FFFFFF" stroke-miterlimit="10" d="M51.582,893.442c0,0-17.178,9.209-24.263,21.958
			c5.136,2.833,8.679,4.784,8.679,4.784S40.956,906.371,51.582,893.442z"/>
		<path fill="none" stroke="#FFFFFF" stroke-miterlimit="10" d="M50.874,896.453c0,0-3.719,5.49-3.188,5.135
			c0.531-0.353,3.719-3.363,3.719-3.363L50.874,896.453z"/>
		<path fill="none" stroke="#FFFFFF" stroke-miterlimit="10" d="M35.112,897.869c0,0-11.158,1.595-8.501,13.992
			C29.268,904.776,28.559,901.943,35.112,897.869z"/>
		<path fill="none" stroke="#FFFFFF" stroke-miterlimit="10" d="M25.547,902.83c0,0-4.604,2.832-7.792,7.084
			c3.72,3.008,6.554,3.894,6.554,3.894L25.547,902.83z"/>
		<path fill="none" stroke="#FFFFFF" stroke-miterlimit="10" d="M15.984,913.101c0,0,0.709,12.043,4.605,16.292
			c1.416-6.552,3.188-11.335,3.188-11.335L15.984,913.101z"/>
		<path fill="none" stroke="#FFFFFF" stroke-miterlimit="10" d="M13.859,915.756c0,0-2.126,6.021-1.949,9.388
			c2.835,2.832,7.086,7.437,7.086,7.437S14.745,924.612,13.859,915.756z"/>
		<polygon fill="none" stroke="#FFFFFF" stroke-miterlimit="10" points="10.672,926.913 10.316,934.53 16.87,954.896 
			19.173,935.238 		"/>
		<path fill="none" stroke="#FFFFFF" stroke-miterlimit="10" d="M13.859,905.307c0,0-6.906,5.846-6.906,10.982
			c0.175,5.135,2.48,4.957,2.48,4.957L13.859,905.307z"/>
		<path fill="none" stroke="#FFFFFF" stroke-miterlimit="10" d="M6.953,920.894l2.655,4.071l-1.063,6.555
			C8.546,931.52,7.128,924.435,6.953,920.894z"/>
		<path fill="none" stroke="#FFFFFF" stroke-miterlimit="10" d="M10.142,938.249l3.718,11.865
			C13.859,950.114,10.142,940.904,10.142,938.249z"/>
		<polygon fill="none" stroke="#FFFFFF" stroke-miterlimit="10" points="19.703,944.626 19.349,955.072 23.068,953.125 		"/>
		<polygon fill="none" stroke="#FFFFFF" stroke-miterlimit="10" points="19.349,957.377 18.817,967.295 21.297,964.992 		"/>
		<polygon fill="none" stroke="#FFFFFF" stroke-miterlimit="10" points="22.361,956.313 26.256,964.637 25.194,982.7 
			22.361,983.589 		"/>
		<polygon fill="none" stroke="#FFFFFF" stroke-miterlimit="10" points="31.038,958.791 37.945,957.907 41.134,978.629 
			36.529,981.817 29.622,964.814 		"/>
		<polygon fill="none" stroke="#FFFFFF" stroke-miterlimit="10" points="28.381,968.356 27.851,982.7 33.694,981.993 		"/>
		<polygon fill="none" stroke="#FFFFFF" stroke-miterlimit="10" points="59.554,976.147 60.438,981.64 69.823,980.754 
			69.293,975.088 		"/>
		<polygon fill="none" stroke="#FFFFFF" stroke-miterlimit="10" points="212.1,958.322 209.503,967.058 230.755,966.113 
			226.741,957.14 		"/>
		<polygon fill="none" stroke="#FFFFFF" stroke-miterlimit="10" points="199.347,971.544 202.656,977.921 203.833,972.019 		"/>
		<polygon fill="none" stroke="#FFFFFF" stroke-miterlimit="10" points="209.503,972.019 208.32,976.504 251.358,975.44 
			247.993,971.073 		"/>
		<path fill="none" stroke="#FFFFFF" stroke-miterlimit="10" d="M284.948,958.144c-0.708,0-9.682,16.764-9.682,16.764l12.752-0.353
			L284.948,958.144z"/>
		<path fill="none" stroke="#FFFFFF" stroke-miterlimit="10" d="M166.525,864.812c0,0-12.279,0.945-21.961,7.791
			c4.25,5.431,4.722,6.61,4.722,6.61L166.525,864.812z"/>
		<path fill="none" stroke="#FFFFFF" stroke-miterlimit="10" d="M138.896,871.894c0,0-23.85,3.778-27.392,7.319
			c12.043,6.14,20.545,8.502,20.545,8.502L138.896,871.894z"/>
		<path fill="none" stroke="#FFFFFF" stroke-miterlimit="10" d="M102.769,879.924c0,0-15.352,2.833-12.519,4.486
			c3.544,3.305,4.96,4.724,4.96,4.724S101.35,879.924,102.769,879.924z"/>
		<path fill="none" stroke="#FFFFFF" stroke-miterlimit="10" d="M28.146,899.522l-9.209,6.611
			C18.937,906.134,22.718,899.759,28.146,899.522z"/>
		<path fill="none" stroke="#FFFFFF" stroke-miterlimit="10" d="M63.567,889.842c0,0-8.029,0.234-7.792,5.194
			C59.082,893.148,63.567,889.842,63.567,889.842z"/>
		<polygon fill="none" stroke="#FFFFFF" stroke-miterlimit="10" points="28.206,921.068 32.986,929.925 33.341,924.079 		"/>
		<path fill="none" stroke="#FFFFFF" stroke-miterlimit="10" d="M43.614,895.036c-0.533,0-9.388,4.072-13.284,12.219
			C38.123,899.996,43.614,895.036,43.614,895.036z"/>
		<path fill="none" stroke="#FFFFFF" stroke-miterlimit="10" d="M18.287,897.869c0,0-9.387,2.833-10.804,10.096
			C11.558,902.83,18.287,897.869,18.287,897.869z"/>
		<path fill="none" stroke="#FFFFFF" stroke-miterlimit="10" d="M21.297,898.577c0,0-7.084,2.478-6.728,10.804
			C15.276,911.331,21.297,898.577,21.297,898.577z"/>
		<path fill="none" stroke="#FFFFFF" stroke-miterlimit="10" d="M563.947,804.357c0,0,15.587-0.354,26.568,6.377
			c6.374,7.084,5.31,9.563,5.31,9.563S590.869,812.506,563.947,804.357z"/>
	</g>
</g>
</svg>
