<?xml version="1.0" encoding="utf-8"?>
<!-- Generator: Adobe Illustrator 16.0.0, SVG Export Plug-In . SVG Version: 6.00 Build 0)  -->
<!DOCTYPE svg PUBLIC "-//W3C//DTD SVG 1.1//EN" "http://www.w3.org/Graphics/SVG/1.1/DTD/svg11.dtd">
<svg version="1.1" id="图层_1" xmlns="http://www.w3.org/2000/svg" xmlns:xlink="http://www.w3.org/1999/xlink" x="0px" y="0px"
	 width="640px" height="960px" viewBox="0 0 640 960" enable-background="new 0 0 640 960" xml:space="preserve">
<g>
	<g>
		<path fill="#F7CC48" d="M246.871,558.114v11.594h-59.866l33.381-39.971c4.149-5.004,7.18-9.398,9.093-13.182
			c1.912-3.783,2.868-7.221,2.868-10.314c0-4.434-1.312-7.922-3.936-10.465c-2.625-2.543-6.216-3.814-10.771-3.814
			c-4.068,0-7.425,1.271-10.069,3.814s-4.13,5.889-4.455,10.039h-13.975c0-8.016,2.686-14.412,8.056-19.193
			c5.37-4.779,12.591-7.17,21.664-7.17c8.624,0,15.429,2.217,20.413,6.652c4.982,4.434,7.476,10.475,7.476,18.123
			c0,5.453-1.435,10.955-4.303,16.508s-8.94,13.619-18.216,24.197l-11.351,13.182H246.871z"/>
		<path fill="#F7CC48" d="M282.754,522.476c-4.436-1.912-7.689-4.414-9.765-7.508c-2.074-3.09-3.112-6.955-3.112-11.594
			c0-7.16,2.522-12.938,7.567-17.332c5.044-4.393,11.717-6.59,20.017-6.59c8.502,0,15.256,2.227,20.261,6.682
			c5.004,4.455,7.506,10.404,7.506,17.85c0,4.395-1.089,8.168-3.265,11.32c-2.178,3.154-5.381,5.545-9.612,7.172
			c4.964,1.627,8.849,4.506,11.656,8.635s4.211,9,4.211,14.615c0,8.219-2.716,14.668-8.147,19.346
			c-5.431,4.678-12.968,7.018-22.609,7.018c-9.48,0-16.945-2.34-22.396-7.018c-5.452-4.678-8.178-11.047-8.178-19.102
			c0-5.859,1.383-10.832,4.15-14.92C273.803,526.96,277.709,524.103,282.754,522.476z M297.461,560.188
			c5.248,0,9.356-1.373,12.327-4.119c2.969-2.746,4.455-6.539,4.455-11.381c0-4.883-1.486-8.705-4.455-11.473
			c-2.971-2.768-7.079-4.15-12.327-4.15c-5.126,0-9.175,1.404-12.145,4.211s-4.454,6.611-4.454,11.412
			c0,4.842,1.464,8.635,4.394,11.381C288.185,558.815,292.253,560.188,297.461,560.188z M297.766,491.229
			c-4.231,0-7.566,1.109-10.008,3.326c-2.441,2.219-3.661,5.238-3.661,9.063c0,3.744,1.189,6.672,3.569,8.787
			c2.38,2.117,5.646,3.174,9.795,3.174c4.271,0,7.598-1.047,9.978-3.143s3.57-5.035,3.57-8.818c0-3.865-1.181-6.896-3.54-9.094
			C305.109,492.329,301.875,491.229,297.766,491.229z"/>
		<path fill="#F7CC48" d="M349.76,548.351c2.074,3.824,4.738,6.752,7.994,8.787c3.254,2.035,6.875,3.051,10.862,3.051
			c5.898,0,10.68-1.881,14.341-5.645c3.662-3.764,5.492-8.717,5.492-14.859c0-5.898-1.922-10.699-5.767-14.402
			c-3.845-3.701-8.879-5.553-15.104-5.553c-3.744,0-7.212,0.641-10.405,1.922c-3.194,1.281-6.011,3.184-8.452,5.705l-3.601-0.793
			l11.107-45.342h42.229v11.777h-33.503l-5.248,19.711c2.44-1.016,4.8-1.77,7.078-2.258s4.557-0.732,6.835-0.732
			c8.503,0,15.419,2.727,20.749,8.178c5.329,5.453,7.994,12.551,7.994,21.299c0,10.008-3.112,17.992-9.337,23.951
			c-6.225,5.961-14.565,8.941-25.021,8.941c-6.185,0-11.555-1.068-16.11-3.205c-4.557-2.135-8.482-5.439-11.778-9.916
			L349.76,548.351z"/>
		<path fill="#F7CC48" d="M412.228,534.306h44.409v3.547h-26.374c-0.123,3.424-0.284,6.635-0.483,9.629h21.376
			c-0.308,6.266-0.661,12.207-1.06,17.828c-0.277,3.408-1.06,5.865-2.35,7.371c-1.229,1.381-3.455,2.088-6.68,2.119
			c-1.689,0.061-4.546-0.063-8.569-0.369c-0.153-1.168-0.384-2.58-0.69-4.238c3.9,0.521,6.879,0.783,8.937,0.783
			c3.286,0.246,5.099-1.828,5.437-6.219c0.368-4.301,0.645-8.893,0.829-13.775h-17.506c-1.151,11.24-6.188,19.594-15.11,25.061
			c-0.706-0.951-1.612-2.041-2.718-3.27c8.63-5.252,13.252-13.084,13.866-23.494c0.292-3.363,0.484-7.172,0.576-11.426h-13.89
			V534.306z"/>
		<path fill="#F7CC48" d="M459.723,537.069h22.159c-0.952-1.627-2.027-3.285-3.225-4.975l3.225-1.75
			c1.29,1.75,2.41,3.408,3.362,4.975l-2.948,1.75h21.422v3.225h-43.995V537.069z M463.316,545.407h36.531v29.898h-3.501v-3.178
			h-29.529v3.178h-3.501V545.407z M466.817,557.2h13.037v-8.568h-13.037V557.2z M466.817,568.901h13.037v-8.568h-13.037V568.901z
			 M496.347,548.632h-12.991v8.568h12.991V548.632z M483.355,568.901h12.991v-8.568h-12.991V568.901z"/>
	</g>
</g>
<g>
	<g>
		<path fill="#FFFFFF" d="M187.762,262.991h10.523v-2.648h1.922v2.648h10.266v1.664h-10.266v2.391h8.977v13.289
			c0,1.828-0.906,2.75-2.719,2.766c-1.031,0.016-2.32-0.008-3.867-0.07c-0.094-0.578-0.211-1.219-0.352-1.922
			c1.547,0.094,2.727,0.141,3.539,0.141c1.031,0,1.547-0.453,1.547-1.359v-11.203h-16.219v14.508h-1.852v-16.148h9.023v-2.391
			h-10.523V262.991z M192.027,276.655h6.281v-2.555h-5.531v-1.547h7.359c0.75-1.125,1.508-2.359,2.273-3.703l1.734,0.961
			c-0.766,1.047-1.461,1.961-2.086,2.742h3.609v1.547h-5.531v2.555h6.281v1.547h-6.281v4.5h-1.828v-4.5h-6.281V276.655z
			 M194.324,269.788l1.383-0.938c0.797,0.922,1.523,1.82,2.18,2.695l-1.547,0.961C195.715,271.601,195.043,270.694,194.324,269.788z
			"/>
		<path fill="#FFFFFF" d="M212.646,267.702v-1.781h8.086v1.711c-1.328,5.125-3.75,9.516-7.266,13.172
			c-0.531-0.609-1.008-1.086-1.43-1.43c3.531-3.719,5.805-7.609,6.82-11.672H212.646z M222.653,260.202h1.898v3.762
			c0.672,1.828,1.441,3.527,2.309,5.098c1.727-1.438,3.449-3.156,5.168-5.156l1.57,1.406c-1.828,1.914-3.758,3.699-5.789,5.355
			c2.063,3.266,4.586,5.918,7.57,7.957c-0.656,0.656-1.188,1.242-1.594,1.758c-4.109-3.234-7.188-7.238-9.234-12.012v10.957
			c0,2.328-1.117,3.492-3.352,3.492c-0.688,0-1.703-0.008-3.047-0.023c-0.078-0.578-0.203-1.281-0.375-2.109
			c1.25,0.125,2.266,0.188,3.047,0.188c1.219,0,1.828-0.586,1.828-1.758V260.202z"/>
		<path fill="#FFFFFF" d="M236.521,278.905c2.039-0.703,4.453-1.625,7.242-2.766v-7.383h-6.75v-1.734h6.75v-6.586h1.898v22.523
			h-1.898v-4.863c-1.5,0.609-3.664,1.496-6.492,2.66L236.521,278.905z M250.326,260.39h1.898v7.934
			c2.133-1.094,4.125-2.293,5.977-3.598l1.172,1.688c-1.688,1.063-4.07,2.363-7.148,3.902v8.613c0,1.063,0.586,1.594,1.758,1.594
			h1.641c1.125,0,1.758-0.531,1.898-1.594c0.141-0.984,0.266-2.266,0.375-3.844c0.688,0.281,1.352,0.531,1.992,0.75
			c-0.156,1.484-0.328,2.75-0.516,3.797c-0.297,1.781-1.398,2.672-3.305,2.672h-2.531c-2.141,0-3.211-1.055-3.211-3.164V260.39z"/>
		<path fill="#FFFFFF" d="M268.039,274.569c0.031,0.703,0.086,1.383,0.164,2.039c-1.625,1.188-3.031,2.305-4.219,3.352l-1.078-1.523
			c0.516-0.563,0.773-1.266,0.773-2.109v-7.148h-2.555v-1.641h4.266v9.117C266.219,276.046,267.102,275.351,268.039,274.569z
			 M263.984,260.577c1.047,1.031,2.219,2.258,3.516,3.68l-1.547,1.313c-1.219-1.547-2.32-2.836-3.305-3.867L263.984,260.577z
			 M270.5,263.155v9.633c0,4.578-1.242,8.055-3.727,10.43c-0.391-0.563-0.797-1.063-1.219-1.5c2.156-2.063,3.234-4.977,3.234-8.742
			v-11.414h14.438v18.75c0,1.734-0.797,2.602-2.391,2.602c-0.922,0-2.156-0.023-3.703-0.07c-0.078-0.578-0.195-1.18-0.352-1.805
			c1.656,0.109,2.844,0.164,3.563,0.164c0.781,0,1.172-0.414,1.172-1.242v-16.805H270.5z M271.227,269.601h3.938v-2.156h-3.281v-1.5
			h3.281v-2.227h1.688v2.227h3.234v1.5h-3.234v2.156h3.938v1.5h-9.563V269.601z M272.305,272.999h7.172v5.977h-5.531v1.078h-1.641
			V272.999z M277.836,274.499h-3.891v2.977h3.891V274.499z"/>
		<path fill="#FFFFFF" d="M287.25,265.171h9.023v-5.109h2.016v5.109h9.117v10.688h-1.922v-1.266h-7.195v8.719h-2.016v-8.719h-7.102
			v1.266h-1.922V265.171z M289.172,272.858h7.102v-5.953h-7.102V272.858z M305.484,266.905h-7.195v5.953h7.195V266.905z"/>
		<path fill="#FFFFFF" d="M313.189,274.288c1.391-0.203,3.031-0.469,4.922-0.797c-0.094,0.578-0.164,1.18-0.211,1.805
			c-2.609,0.406-4.898,0.773-6.867,1.102l-0.375-1.758c1.086-1.164,2.277-2.824,3.574-4.98c-1.266,0.07-2.457,0.16-3.574,0.27
			l-0.445-1.594c1.453-1.984,2.945-4.766,4.477-8.344l1.781,0.703c-1.609,3.172-2.992,5.672-4.148,7.5
			c0.93-0.031,1.871-0.066,2.824-0.105c0.539-0.961,1.098-2.004,1.676-3.129l1.734,0.867
			C316.65,269.124,314.861,271.944,313.189,274.288z M310.213,279.702c2.75-0.594,5.531-1.242,8.344-1.945
			c-0.047,0.625-0.07,1.219-0.07,1.781c-2.609,0.609-5.195,1.258-7.758,1.945L310.213,279.702z M317.197,281.366
			c2.938-1.055,5.48-2.277,7.629-3.668c-0.555-1.414-0.992-3.09-1.313-5.027l-5.004,0.703l-0.281-1.688l5.051-0.703
			c-0.133-1.094-0.23-2.262-0.293-3.504l-4.242,0.48l-0.281-1.688l4.43-0.492c-0.086-1.625-0.164-3.492-0.234-5.602h1.922
			c0.039,2.016,0.09,3.813,0.152,5.391l7.84-0.891l0.211,1.664l-7.98,0.926c0.055,1.234,0.145,2.391,0.27,3.469l8.086-1.137
			l0.211,1.664l-8.074,1.148c0.266,1.617,0.625,3.023,1.078,4.219c1.656-1.25,3.035-2.617,4.137-4.102l1.523,1.148
			c-1.406,1.695-3.039,3.23-4.898,4.605c0.602,1.078,1.32,1.902,2.156,2.473c1.031,0.609,1.695,0.297,1.992-0.938
			c0.203-1,0.367-2.109,0.492-3.328c0.719,0.313,1.32,0.539,1.805,0.68c-0.266,1.688-0.531,2.961-0.797,3.82
			c-0.453,1.328-1.227,1.992-2.32,1.992c-1.141,0-2.195-0.469-3.164-1.406c-0.633-0.602-1.199-1.348-1.699-2.238
			c-2.148,1.391-4.559,2.598-7.23,3.621C318.088,282.522,317.697,281.991,317.197,281.366z M326.549,261.421l1.008-1.172
			c1.109,0.703,2.297,1.547,3.563,2.531l-1.125,1.359C328.697,263.03,327.549,262.124,326.549,261.421z"/>
		<path fill="#FFFFFF" d="M335.025,279.702h10.266v-15.633h-8.93v-1.875h19.969v1.875h-8.977v15.633h10.289v1.828h-22.617V279.702z"
			/>
		<path fill="#FFFFFF" d="M359.043,276.679c1.547-2.258,2.734-4.93,3.563-8.016h-3.281v-1.547h3.656v-3.668
			c-0.984,0.141-1.992,0.27-3.023,0.387c-0.125-0.531-0.289-1.07-0.492-1.617c2.656-0.219,5.336-0.641,8.039-1.266l0.516,1.641
			c-1.086,0.219-2.203,0.422-3.352,0.609v3.914h3.258v1.547h-3.258v3.094l0.914-0.797c0.625,0.641,1.539,1.664,2.742,3.07
			l-1.406,1.148c-0.906-1.156-1.656-2.09-2.25-2.801v10.84h-1.688v-11.227c-0.828,2.688-1.875,4.93-3.141,6.727
			C359.59,278.046,359.324,277.366,359.043,276.679z M367.316,280.382h6.703v-3.469h-5.32v-1.57h5.32v-3.188h-5.883v-1.57h13.664
			v1.57h-5.906v3.188h5.32v1.57h-5.32v3.469h6.703v1.57h-15.281V280.382z M369.191,261.21h11.625v8.039h-1.781v-0.961h-8.063v0.961
			h-1.781V261.21z M379.035,262.804h-8.063v3.891h8.063V262.804z"/>
		<path fill="#FFFFFF" d="M387.442,272.272h9.703c-0.219,3.125-0.422,5.414-0.609,6.867c-0.219,2.406-1.547,3.609-3.984,3.609
			c-1.438,0-3.055-0.039-4.852-0.117c-0.109-0.688-0.273-1.406-0.492-2.156c1.688,0.172,3.352,0.258,4.992,0.258
			c1.547,0,2.375-0.773,2.484-2.32c0.125-0.953,0.258-2.414,0.398-4.383h-9.938l1.383-7.172h8.438v-3.914h-9.82v-1.734h11.742v8.273
			h-1.922v-0.891h-6.844L387.442,272.272z M402.817,260.226h1.969v22.945h-1.969V260.226z"/>
		<path fill="#FFFFFF" d="M411.482,265.405h4.957c0.383-1.633,0.707-3.414,0.973-5.344l1.992,0.258
			c-0.266,1.773-0.59,3.469-0.973,5.086h12.949v1.734h-13.395c-0.281,1.031-0.59,2.023-0.926,2.977h11.625v1.617
			c-1.031,2.555-2.637,4.762-4.816,6.621c2.195,1.328,4.754,2.262,7.676,2.801c-0.703,0.781-1.25,1.438-1.641,1.969
			c-2.5-0.828-5.016-2.039-7.547-3.633c-2.031,1.336-4.938,2.602-8.719,3.797c-0.438-0.625-0.906-1.203-1.406-1.734
			c3.844-1,6.715-2.059,8.613-3.176c-2.055-1.758-3.52-3.973-4.395-6.645c-1.711,4.281-4.039,7.797-6.984,10.547
			c-0.422-0.594-0.836-1.125-1.242-1.594c3.523-3.18,6.113-7.695,7.77-13.547h-6.504v-1.758c0.641-1.484,1.227-2.977,1.758-4.477
			l1.898,0.516C412.6,262.796,412.045,264.124,411.482,265.405z M426.623,271.733h-8.473c0.703,2.164,2.098,4.027,4.184,5.59
			C424.357,275.651,425.787,273.788,426.623,271.733z M423.014,261.679l1.031-1.313c1.531,0.969,3,1.977,4.406,3.023l-1.266,1.523
			C425.826,263.757,424.436,262.679,423.014,261.679z"/>
		<path fill="#FFFFFF" d="M433.812,263.999h2.367c0.578-1.422,1.055-2.719,1.43-3.891l1.969,0.563
			c-0.492,1.195-0.969,2.305-1.43,3.328h4.688v18.656h-1.875v-1.828h-5.273v1.992h-1.875V263.999z M440.96,265.757h-5.273v5.695
			h5.273V265.757z M435.687,279.069h5.273v-5.93h-5.273V279.069z M443.187,268.804c1.469-2.328,2.711-5.227,3.727-8.695l1.969,0.492
			c-0.398,1.18-0.805,2.289-1.219,3.328h7.547c-0.188,8.031-0.344,13.086-0.469,15.164c-0.109,2.453-1.398,3.68-3.867,3.68
			c-1.422,0-2.867-0.047-4.336-0.141c-0.094-0.781-0.219-1.477-0.375-2.086h0.07c1.563,0.219,2.992,0.328,4.289,0.328
			c1.422,0,2.188-0.75,2.297-2.25c0.172-2.328,0.297-6.641,0.375-12.938h-6.281c-0.68,1.508-1.383,2.836-2.109,3.984
			C444.382,269.374,443.843,269.085,443.187,268.804z M445.249,270.397l1.43-1.055c1.734,2.047,3.117,3.82,4.148,5.32l-1.734,1.219
			C447.983,274.069,446.702,272.241,445.249,270.397z"/>
		<path fill="#FFFFFF" d="M205.75,301.597l-1.371,5.648h-2.074l1.852-5.648H205.75z M209.758,301.597l-1.371,5.648h-2.074
			l1.852-5.648H209.758z"/>
		<path fill="#FFFFFF" d="M212.294,301.351h22.781v1.711h-7.172c0.008,1.125-0.004,2.172-0.035,3.141h5.777v13.852
			c0,1.797-0.898,2.695-2.695,2.695c-0.844,0-2.039-0.016-3.586-0.047c-0.078-0.547-0.188-1.156-0.328-1.828
			c1.484,0.109,2.609,0.164,3.375,0.164c0.984,0,1.477-0.477,1.477-1.43V307.89h-4.09c-0.07,1.531-0.227,2.918-0.469,4.16
			c1.719,1.594,3.16,3.059,4.324,4.395l-1.219,1.313c-1.203-1.445-2.406-2.773-3.609-3.984c-0.758,2.109-1.992,4.023-3.703,5.742
			c-0.344-0.391-0.828-0.813-1.453-1.266c2.953-2.688,4.43-6.141,4.43-10.359H221.2c-0.078,1.641-0.195,2.805-0.352,3.492
			c1.281,1.047,2.336,1.938,3.164,2.672l-1.031,1.547c-0.844-0.875-1.703-1.723-2.578-2.543c-0.703,2.109-1.883,4.027-3.539,5.754
			c-0.375-0.422-0.828-0.867-1.359-1.336c2.594-2.406,3.926-5.602,3.996-9.586h-4.066v14.977h-1.758v-16.664h5.895
			c0.031-0.984,0.043-2.031,0.035-3.141h-7.313V301.351z M221.271,306.202h4.898c0.031-0.992,0.043-2.039,0.035-3.141h-4.887
			C221.317,304.187,221.302,305.233,221.271,306.202z"/>
		<path fill="#FFFFFF" d="M236.545,307.866l1.125-1.359c1.297,0.922,2.656,1.93,4.078,3.023l-1.336,1.523
			C239.146,309.929,237.857,308.866,236.545,307.866z M237.342,322.515c0.859-2.563,1.664-5.602,2.414-9.117
			c0.609,0.266,1.234,0.508,1.875,0.727c-0.891,3.359-1.641,6.367-2.25,9.023L237.342,322.515z M237.459,301.749l1.148-1.266
			c1.313,1.016,2.578,2.039,3.797,3.07l-1.336,1.406C239.881,303.835,238.678,302.765,237.459,301.749z M241.795,309.601
			c2.484-1.469,4.359-3.086,5.625-4.852h-3.984v-1.617h4.969c0.453-0.859,0.883-1.836,1.289-2.93l1.828,0.422
			c-0.375,0.906-0.766,1.742-1.172,2.508h8.555v1.617h-5.063c1.688,2,3.719,3.383,6.094,4.148c-0.422,0.547-0.805,1.117-1.148,1.711
			c-0.578-0.266-1.133-0.563-1.664-0.891v8.414h-5.695v1.664c0,0.891,0.461,1.336,1.383,1.336h3c1.219,0,1.906-0.422,2.063-1.266
			c0.188-0.969,0.32-1.914,0.398-2.836c0.563,0.219,1.156,0.422,1.781,0.609c-0.172,1.125-0.367,2.148-0.586,3.07
			c-0.313,1.375-1.477,2.063-3.492,2.063h-3.563c-1.813,0-2.719-0.844-2.719-2.531v-2.109h-3.914v0.891h-1.688v-8.766
			c-0.391,0.25-0.789,0.5-1.195,0.75C242.365,310.257,241.998,309.788,241.795,309.601z M249.693,306.952h1.734v2.602h5.414
			c-1.938-1.234-3.547-2.836-4.828-4.805h-2.555c-1.078,1.781-2.555,3.383-4.43,4.805h4.664V306.952z M245.779,313.116h3.914v-2.086
			h-3.914V313.116z M245.779,316.655h3.914v-2.109h-3.914V316.655z M255.436,311.03h-4.008v2.086h4.008V311.03z M255.436,316.655
			v-2.109h-4.008v2.109H255.436z"/>
		<path fill="#FFFFFF" d="M267.992,321.612l-1.406,1.418c-1.32-1.438-2.77-2.809-4.348-4.113l1.242-1.289
			C265.426,319.198,266.93,320.526,267.992,321.612z"/>
		<path fill="#FFFFFF" d="M285.891,301.351h22.781v1.711H301.5c0.008,1.125-0.004,2.172-0.035,3.141h5.777v13.852
			c0,1.797-0.898,2.695-2.695,2.695c-0.844,0-2.039-0.016-3.586-0.047c-0.078-0.547-0.188-1.156-0.328-1.828
			c1.484,0.109,2.609,0.164,3.375,0.164c0.984,0,1.477-0.477,1.477-1.43V307.89h-4.09c-0.07,1.531-0.227,2.918-0.469,4.16
			c1.719,1.594,3.16,3.059,4.324,4.395l-1.219,1.313c-1.203-1.445-2.406-2.773-3.609-3.984c-0.758,2.109-1.992,4.023-3.703,5.742
			c-0.344-0.391-0.828-0.813-1.453-1.266c2.953-2.688,4.43-6.141,4.43-10.359h-4.898c-0.078,1.641-0.195,2.805-0.352,3.492
			c1.281,1.047,2.336,1.938,3.164,2.672l-1.031,1.547c-0.844-0.875-1.703-1.723-2.578-2.543c-0.703,2.109-1.883,4.027-3.539,5.754
			c-0.375-0.422-0.828-0.867-1.359-1.336c2.594-2.406,3.926-5.602,3.996-9.586h-4.066v14.977h-1.758v-16.664h5.895
			c0.031-0.984,0.043-2.031,0.035-3.141h-7.313V301.351z M294.867,306.202h4.898c0.031-0.992,0.043-2.039,0.035-3.141h-4.887
			C294.914,304.187,294.898,305.233,294.867,306.202z"/>
		<path fill="#FFFFFF" d="M319.729,320.897c4.438,0.063,9.008,0.031,13.711-0.094c-0.172,0.516-0.391,1.133-0.656,1.852
			c-4.547,0.031-8.992,0-13.336-0.094c-2.625-0.047-4.484-0.961-5.578-2.742c-0.641,0.594-1.578,1.641-2.813,3.141l-0.961-1.945
			c1.375-1.328,2.375-2.281,3-2.859v-7.898h-2.789v-1.734h4.594v10.008C315.869,320.046,317.479,320.835,319.729,320.897z
			 M313.025,300.647c0.797,0.969,1.891,2.445,3.281,4.43l-1.664,1.172c-1.266-1.984-2.305-3.516-3.117-4.594L313.025,300.647z
			 M325.166,315.507c0.016,0.641,0.055,1.258,0.117,1.852c-1.484,0.563-2.984,1.211-4.5,1.945c-0.438,0.234-0.875,0.508-1.313,0.82
			l-1.336-1.758c0.453-0.438,0.68-0.969,0.68-1.594V301.21h11.789v10.688h-1.758v-0.609h-8.25v6.117
			C321.846,316.921,323.369,316.288,325.166,315.507z M328.846,302.804h-8.25v2.672h8.25V302.804z M328.846,309.694v-2.672h-8.25
			v2.672H328.846z M331.541,311.78l1.195,1.617c-1.516,0.609-2.992,1.211-4.43,1.805c1.688,1.047,3.094,1.938,4.219,2.672
			l-1.172,1.641c-2.563-1.859-5.594-3.898-9.094-6.117l0.961-1.289c1.266,0.766,2.438,1.477,3.516,2.133
			C328.299,313.491,329.9,312.671,331.541,311.78z"/>
		<path fill="#FFFFFF" d="M339.186,301.597l-1.852,5.648h-1.594l1.371-5.648H339.186z M343.217,301.597l-1.852,5.648h-1.594
			l1.371-5.648H343.217z"/>
		<path fill="#FFFFFF" d="M372.707,324.19c-2.789-3.047-4.184-6.734-4.184-11.063c0-4.383,1.395-8.117,4.184-11.203h2.016
			c-2.773,3.164-4.16,6.891-4.16,11.18c0,4.227,1.379,7.922,4.137,11.086H372.707z"/>
		<path fill="#FFFFFF" d="M384.021,301.351h22.781v1.711h-7.172c0.008,1.125-0.004,2.172-0.035,3.141h5.777v13.852
			c0,1.797-0.898,2.695-2.695,2.695c-0.844,0-2.039-0.016-3.586-0.047c-0.078-0.547-0.188-1.156-0.328-1.828
			c1.484,0.109,2.609,0.164,3.375,0.164c0.984,0,1.477-0.477,1.477-1.43V307.89h-4.09c-0.07,1.531-0.227,2.918-0.469,4.16
			c1.719,1.594,3.16,3.059,4.324,4.395l-1.219,1.313c-1.203-1.445-2.406-2.773-3.609-3.984c-0.758,2.109-1.992,4.023-3.703,5.742
			c-0.344-0.391-0.828-0.813-1.453-1.266c2.953-2.688,4.43-6.141,4.43-10.359h-4.898c-0.078,1.641-0.195,2.805-0.352,3.492
			c1.281,1.047,2.336,1.938,3.164,2.672l-1.031,1.547c-0.844-0.875-1.703-1.723-2.578-2.543c-0.703,2.109-1.883,4.027-3.539,5.754
			c-0.375-0.422-0.828-0.867-1.359-1.336c2.594-2.406,3.926-5.602,3.996-9.586h-4.066v14.977h-1.758v-16.664h5.895
			c0.031-0.984,0.043-2.031,0.035-3.141h-7.313V301.351z M392.997,306.202h4.898c0.031-0.992,0.043-2.039,0.035-3.141h-4.887
			C393.044,304.187,393.028,305.233,392.997,306.202z"/>
		<path fill="#FFFFFF" d="M413.146,310.233c0.719,0.547,1.328,0.969,1.828,1.266c-2,3.563-3.625,6.641-4.875,9.234l-1.898-1.242
			C409.811,317.054,411.459,313.968,413.146,310.233z M410.357,301.632c1.266,1.266,2.688,2.82,4.266,4.664l-1.523,1.406
			c-1.516-2-2.883-3.617-4.102-4.852L410.357,301.632z M423.389,307.046c-0.016,0.781-0.051,1.551-0.105,2.309
			c1.047,5.32,3.832,9.246,8.355,11.777c-0.641,0.688-1.148,1.297-1.523,1.828c-3.922-2.758-6.438-6.152-7.547-10.184
			c-1.023,4.359-3.836,7.871-8.438,10.535c-0.313-0.484-0.742-1.039-1.289-1.664c4.797-2.531,7.57-6.094,8.32-10.688
			c0.219-1.125,0.336-2.43,0.352-3.914H423.389z M426.482,310.14c0.703-1.297,1.336-2.695,1.898-4.195h-9.223
			c-0.68,1.555-1.434,3.047-2.262,4.477c-0.563-0.406-1.125-0.742-1.688-1.008c1.828-2.984,3.156-6.07,3.984-9.258l1.898,0.539
			c-0.375,1.227-0.789,2.422-1.242,3.586h10.547v1.664c-0.641,1.734-1.344,3.359-2.109,4.875
			C427.756,310.554,427.154,310.327,426.482,310.14z"/>
		<path fill="#FFFFFF" d="M432.804,307.866l1.125-1.359c1.297,0.922,2.656,1.93,4.078,3.023l-1.336,1.523
			C435.405,309.929,434.116,308.866,432.804,307.866z M433.601,322.515c0.859-2.563,1.664-5.602,2.414-9.117
			c0.609,0.266,1.234,0.508,1.875,0.727c-0.891,3.359-1.641,6.367-2.25,9.023L433.601,322.515z M433.718,301.749l1.148-1.266
			c1.313,1.016,2.578,2.039,3.797,3.07l-1.336,1.406C436.14,303.835,434.937,302.765,433.718,301.749z M438.054,309.601
			c2.484-1.469,4.359-3.086,5.625-4.852h-3.984v-1.617h4.969c0.453-0.859,0.883-1.836,1.289-2.93l1.828,0.422
			c-0.375,0.906-0.766,1.742-1.172,2.508h8.555v1.617h-5.063c1.688,2,3.719,3.383,6.094,4.148c-0.422,0.547-0.805,1.117-1.148,1.711
			c-0.578-0.266-1.133-0.563-1.664-0.891v8.414h-5.695v1.664c0,0.891,0.461,1.336,1.383,1.336h3c1.219,0,1.906-0.422,2.063-1.266
			c0.188-0.969,0.32-1.914,0.398-2.836c0.563,0.219,1.156,0.422,1.781,0.609c-0.172,1.125-0.367,2.148-0.586,3.07
			c-0.313,1.375-1.477,2.063-3.492,2.063h-3.563c-1.813,0-2.719-0.844-2.719-2.531v-2.109h-3.914v0.891h-1.688v-8.766
			c-0.391,0.25-0.789,0.5-1.195,0.75C438.624,310.257,438.257,309.788,438.054,309.601z M445.952,306.952h1.734v2.602h5.414
			c-1.938-1.234-3.547-2.836-4.828-4.805h-2.555c-1.078,1.781-2.555,3.383-4.43,4.805h4.664V306.952z M442.038,313.116h3.914v-2.086
			h-3.914V313.116z M442.038,316.655h3.914v-2.109h-3.914V316.655z M451.694,311.03h-4.008v2.086h4.008V311.03z M451.694,316.655
			v-2.109h-4.008v2.109H451.694z"/>
		<path fill="#FFFFFF" d="M188.652,346.483c1.125,0.781,2.516,1.852,4.172,3.211c-0.516,0.578-0.961,1.094-1.336,1.547
			c-1.797-1.594-3.133-2.727-4.008-3.398L188.652,346.483z M190.902,353.116c0.656,0.297,1.281,0.563,1.875,0.797
			c-1.188,3.531-2.156,6.57-2.906,9.117l-2.039-0.703C188.816,359.718,189.84,356.647,190.902,353.116z M189.59,340.483
			c1.469,1.156,2.828,2.273,4.078,3.352c-0.531,0.547-0.992,1.031-1.383,1.453c-1.328-1.25-2.625-2.422-3.891-3.516L189.59,340.483z
			 M195.238,352.132v-1.617h13.055v1.547c-0.961,2.516-2.52,4.676-4.676,6.48c1.969,1.25,4.379,2.152,7.23,2.707
			c-0.547,0.688-1.023,1.313-1.43,1.875c-2.906-0.813-5.359-1.945-7.359-3.398c-2.188,1.484-4.859,2.688-8.016,3.609
			c-0.406-0.578-0.813-1.141-1.219-1.688c3.078-0.805,5.656-1.855,7.734-3.152c-1.891-1.75-3.258-3.871-4.102-6.363H195.238z
			 M205.34,342.991h-6.141v0.984c0,2.594-1.32,4.625-3.961,6.094c-0.438-0.516-0.898-1-1.383-1.453
			c2.344-1.156,3.516-2.75,3.516-4.781v-2.578h9.797v4.734c0,0.703,0.344,1.055,1.031,1.055h2.648
			c-0.078,0.641-0.141,1.219-0.188,1.734h-3c-1.547,0-2.32-0.813-2.32-2.438V342.991z M206.184,352.132h-7.934
			c0.859,2.109,2.141,3.875,3.844,5.297C204,355.937,205.363,354.171,206.184,352.132z"/>
		<path fill="#FFFFFF" d="M212.013,359.327c1.766-2.156,3.07-4.438,3.914-6.844h-3.68v-1.5h4.031v-2.344h-3.445v-1.406h3.445v-2.25
			h-3.75v-1.5h3.75v-3.281h1.641v3.281h3.445v1.5h-3.445v2.25h3.117v1.406h-3.117v2.344h3.773v1.5h-3.773v2.508l0.703-0.703
			c1.031,0.766,2.086,1.57,3.164,2.414l-1.055,1.219c-1.188-1.016-2.125-1.797-2.813-2.344v7.617h-1.641v-8.063
			c-0.938,2.359-2.117,4.367-3.539,6.023C212.521,360.452,212.278,359.843,212.013,359.327z M221.833,352.53h2.602
			c0.047-0.969,0.07-2.875,0.07-5.719h-2.438v-1.688h2.438v-4.875h1.781v4.875h4.219v-4.875h1.781v4.875h2.531v1.688h-2.531v5.719
			h2.953v1.688h-2.953v8.859h-1.781v-8.859h-4.43c-0.344,3.625-1.836,6.656-4.477,9.094c-0.484-0.484-0.984-0.914-1.5-1.289
			c2.484-2.25,3.875-4.852,4.172-7.805h-2.438V352.53z M226.216,352.53h4.289v-5.719h-4.219
			C226.286,348.702,226.263,350.608,226.216,352.53z"/>
		<path fill="#FFFFFF" d="M237.975,341.421h20.508v21.867h-1.758v-1.148h-16.992v1.172h-1.758V341.421z M256.725,343.062h-16.992
			v17.438h16.992V343.062z M240.787,349.976h14.836v1.594h-4.57v4.383c0,0.766,0.352,1.148,1.055,1.148h0.75
			c0.734,0,1.164-0.398,1.289-1.195c0.109-0.641,0.203-1.531,0.281-2.672c0.547,0.25,1.109,0.477,1.688,0.68
			c-0.125,0.984-0.266,1.844-0.422,2.578c-0.266,1.469-1.125,2.203-2.578,2.203h-1.383c-1.609,0-2.414-0.859-2.414-2.578v-4.547h-3
			c-0.063,2.047-0.344,3.555-0.844,4.523c-0.641,1.297-1.789,2.453-3.445,3.469c-0.344-0.516-0.742-1.023-1.195-1.523
			c1.531-0.859,2.547-1.789,3.047-2.789c0.406-0.75,0.633-1.977,0.68-3.68h-3.773V349.976z M241.936,345.616h12.586v1.594h-12.586
			V345.616z"/>
		<path fill="#FFFFFF" d="M260.914,358.929c1.117-0.359,2.242-0.727,3.375-1.102v-9.352h-3.023v-1.641h3.023v-6.539h1.734v6.539
			h2.719v1.641h-2.719v8.766c0.992-0.344,1.992-0.695,3-1.055c0.031,0.656,0.086,1.234,0.164,1.734
			c-2.563,0.922-5.102,1.859-7.617,2.813L260.914,358.929z M275.656,340.179h1.828v6.059l5.695-1.723
			c-0.094,3.078-0.188,5.594-0.281,7.547c-0.094,2.109-0.938,3.172-2.531,3.188c-0.719,0.016-1.422,0.016-2.109,0
			c-0.094-0.578-0.211-1.227-0.352-1.945c0.75,0.094,1.398,0.141,1.945,0.141c0.813,0.016,1.234-0.578,1.266-1.781
			c0.094-1.422,0.148-3.039,0.164-4.852l-3.797,1.184v10.16h-1.828v-9.598l-3.539,1.102v9.082c0,1.219,0.664,1.828,1.992,1.828
			h5.742c1.438,0,2.234-0.578,2.391-1.734c0.188-1,0.344-2.164,0.469-3.492c0.625,0.25,1.273,0.477,1.945,0.68
			c-0.219,1.5-0.43,2.719-0.633,3.656c-0.375,1.781-1.602,2.672-3.68,2.672h-6.68c-2.25,0-3.375-1.102-3.375-3.305v-8.813
			l-1.758,0.539l-0.305-1.734l2.063-0.621v-5.473h1.828v4.922l3.539-1.066V340.179z"/>
		<path fill="#FFFFFF" d="M292.523,361.612l-1.406,1.418c-1.32-1.438-2.77-2.809-4.348-4.113l1.242-1.289
			C289.957,359.198,291.461,360.526,292.523,361.612z"/>
		<path fill="#FFFFFF" d="M319.729,360.897c4.438,0.063,9.008,0.031,13.711-0.094c-0.172,0.516-0.391,1.133-0.656,1.852
			c-4.547,0.031-8.992,0-13.336-0.094c-2.625-0.047-4.484-0.961-5.578-2.742c-0.641,0.594-1.578,1.641-2.813,3.141l-0.961-1.945
			c1.375-1.328,2.375-2.281,3-2.859v-7.898h-2.789v-1.734h4.594v10.008C315.869,360.046,317.479,360.835,319.729,360.897z
			 M313.025,340.647c0.797,0.969,1.891,2.445,3.281,4.43l-1.664,1.172c-1.266-1.984-2.305-3.516-3.117-4.594L313.025,340.647z
			 M325.166,355.507c0.016,0.641,0.055,1.258,0.117,1.852c-1.484,0.563-2.984,1.211-4.5,1.945c-0.438,0.234-0.875,0.508-1.313,0.82
			l-1.336-1.758c0.453-0.438,0.68-0.969,0.68-1.594V341.21h11.789v10.688h-1.758v-0.609h-8.25v6.117
			C321.846,356.921,323.369,356.288,325.166,355.507z M328.846,342.804h-8.25v2.672h8.25V342.804z M328.846,349.694v-2.672h-8.25
			v2.672H328.846z M331.541,351.78l1.195,1.617c-1.516,0.609-2.992,1.211-4.43,1.805c1.688,1.047,3.094,1.938,4.219,2.672
			l-1.172,1.641c-2.563-1.859-5.594-3.898-9.094-6.117l0.961-1.289c1.266,0.766,2.438,1.477,3.516,2.133
			C328.299,353.491,329.9,352.671,331.541,351.78z"/>
		<path fill="#FFFFFF" d="M334.674,359.327c1.766-2.156,3.07-4.438,3.914-6.844h-3.68v-1.5h4.031v-2.344h-3.445v-1.406h3.445v-2.25
			h-3.75v-1.5h3.75v-3.281h1.641v3.281h3.445v1.5h-3.445v2.25h3.117v1.406h-3.117v2.344h3.773v1.5h-3.773v2.508l0.703-0.703
			c1.031,0.766,2.086,1.57,3.164,2.414l-1.055,1.219c-1.188-1.016-2.125-1.797-2.813-2.344v7.617h-1.641v-8.063
			c-0.938,2.359-2.117,4.367-3.539,6.023C335.182,360.452,334.939,359.843,334.674,359.327z M344.494,352.53h2.602
			c0.047-0.969,0.07-2.875,0.07-5.719h-2.438v-1.688h2.438v-4.875h1.781v4.875h4.219v-4.875h1.781v4.875h2.531v1.688h-2.531v5.719
			h2.953v1.688h-2.953v8.859h-1.781v-8.859h-4.43c-0.344,3.625-1.836,6.656-4.477,9.094c-0.484-0.484-0.984-0.914-1.5-1.289
			c2.484-2.25,3.875-4.852,4.172-7.805h-2.438V352.53z M348.877,352.53h4.289v-5.719h-4.219
			C348.947,348.702,348.924,350.608,348.877,352.53z"/>
		<path fill="#FFFFFF" d="M368.887,360.874c4.484,0.094,9.023,0.063,13.617-0.094c-0.172,0.516-0.391,1.133-0.656,1.852
			c-4.688,0.047-9.141,0.016-13.359-0.094c-2.594-0.031-4.445-0.938-5.555-2.719c-0.656,0.641-1.594,1.688-2.813,3.141l-0.961-1.945
			c1.172-1.141,2.172-2.094,3-2.859v-7.898h-2.789v-1.734h4.594v9.984C364.949,360.038,366.59,360.827,368.887,360.874z
			 M362.09,340.647c1.094,1.391,2.188,2.867,3.281,4.43l-1.664,1.172c-1.063-1.688-2.102-3.219-3.117-4.594L362.09,340.647z
			 M366.191,342.054h15.844v1.734h-6.398c-0.344,0.906-0.719,1.789-1.125,2.648v2.555l0.844-0.984
			c2.563,1.953,4.883,3.82,6.961,5.602l-1.336,1.594c-2.141-1.969-4.297-3.805-6.469-5.508v9.984h-1.875v-10.078
			c-1.766,2.547-3.992,4.742-6.68,6.586c-0.375-0.453-0.805-0.922-1.289-1.406c4.359-2.969,7.32-6.633,8.883-10.992h-7.359V342.054z
			"/>
		<path fill="#FFFFFF" d="M383.739,355.507c1.734-2.75,3.047-5.703,3.938-8.859h-3.609v-1.641h3.773v-4.664h1.781v4.664h3.352v1.641
			h-3.352v2.813l0.727-0.68c1.484,1.469,2.734,2.797,3.75,3.984l-1.336,1.195c-0.766-0.984-1.813-2.211-3.141-3.68v12.891h-1.781
			V350.28c-0.875,2.906-1.953,5.391-3.234,7.453C384.419,357.171,384.13,356.429,383.739,355.507z M394.028,345.077h4.523v-4.734
			h1.805v4.734h5.859v1.664h-5.625c1.516,4.484,3.734,8.148,6.656,10.992c-0.578,0.531-1.102,1.086-1.57,1.664
			c-2.125-2.563-3.898-5.906-5.32-10.031v13.805h-1.805v-13.828c-1.578,4.172-3.469,7.563-5.672,10.172
			c-0.469-0.438-0.984-0.883-1.547-1.336c2.906-3.063,5.219-6.875,6.938-11.438h-4.242V345.077z"/>
		<path fill="#FFFFFF" d="M415.186,361.612l-1.406,1.418c-1.32-1.438-2.77-2.809-4.348-4.113l1.242-1.289
			C412.619,359.198,414.123,360.526,415.186,361.612z"/>
		<path fill="#FFFFFF" d="M442.39,360.897c4.438,0.063,9.008,0.031,13.711-0.094c-0.172,0.516-0.391,1.133-0.656,1.852
			c-4.547,0.031-8.992,0-13.336-0.094c-2.625-0.047-4.484-0.961-5.578-2.742c-0.641,0.594-1.578,1.641-2.813,3.141l-0.961-1.945
			c1.375-1.328,2.375-2.281,3-2.859v-7.898h-2.789v-1.734h4.594v10.008C438.53,360.046,440.14,360.835,442.39,360.897z
			 M435.687,340.647c0.797,0.969,1.891,2.445,3.281,4.43l-1.664,1.172c-1.266-1.984-2.305-3.516-3.117-4.594L435.687,340.647z
			 M447.827,355.507c0.016,0.641,0.055,1.258,0.117,1.852c-1.484,0.563-2.984,1.211-4.5,1.945c-0.438,0.234-0.875,0.508-1.313,0.82
			l-1.336-1.758c0.453-0.438,0.68-0.969,0.68-1.594V341.21h11.789v10.688h-1.758v-0.609h-8.25v6.117
			C444.507,356.921,446.03,356.288,447.827,355.507z M451.507,342.804h-8.25v2.672h8.25V342.804z M451.507,349.694v-2.672h-8.25
			v2.672H451.507z M454.202,351.78l1.195,1.617c-1.516,0.609-2.992,1.211-4.43,1.805c1.688,1.047,3.094,1.938,4.219,2.672
			l-1.172,1.641c-2.563-1.859-5.594-3.898-9.094-6.117l0.961-1.289c1.266,0.766,2.438,1.477,3.516,2.133
			C450.96,353.491,452.562,352.671,454.202,351.78z"/>
		<path fill="#FFFFFF" d="M187.48,396.772c1.453-2.031,2.672-4.648,3.656-7.852h-3.539v-1.664h3.75v-3.82
			c-0.953,0.078-1.984,0.156-3.094,0.234c-0.078-0.531-0.195-1.102-0.352-1.711c3.188-0.172,5.969-0.43,8.344-0.773l0.422,1.781
			c-0.992,0.102-2.188,0.211-3.586,0.328v3.961h3.352v1.664h-3.352v3.047l1.008-0.82c0.844,0.875,1.789,1.953,2.836,3.234
			l-1.43,1.172c-0.844-1.164-1.648-2.191-2.414-3.082v10.699h-1.734v-10.207c-0.82,2.305-1.836,4.246-3.047,5.824
			C188.051,398.132,187.777,397.46,187.48,396.772z M197.277,384.819h5.297v-4.688h1.781v4.688h5.32v11.297h-1.688v-1.125h-3.633
			v8.227h-1.781v-8.227h-3.609v1.125h-1.688V384.819z M198.965,393.374h3.609v-6.938h-3.609V393.374z M207.988,386.437h-3.633v6.938
			h3.633V386.437z"/>
		<path fill="#FFFFFF" d="M213.185,386.483c1.172,0.828,2.547,1.891,4.125,3.188c-0.578,0.656-1.031,1.164-1.359,1.523
			c-1.766-1.578-3.078-2.695-3.938-3.352L213.185,386.483z M214.849,393.257c0.641,0.25,1.281,0.484,1.922,0.703
			c-0.766,3.109-1.484,6.125-2.156,9.047l-2.063-0.609C213.396,399.616,214.161,396.569,214.849,393.257z M214.075,380.413
			c1.188,0.938,2.531,2.078,4.031,3.422c-0.531,0.547-0.992,1.031-1.383,1.453c-1.688-1.641-2.969-2.836-3.844-3.586
			L214.075,380.413z M218.927,381.796l1.359-1.078c0.719,0.656,1.914,1.93,3.586,3.82l-1.594,1.219
			C220.747,383.835,219.63,382.515,218.927,381.796z M221.106,403.077h-1.852v-16.383h6.422v-6.633h1.945v6.633h6.281v13.547
			c0,1.828-0.875,2.742-2.625,2.742c-1.016,0-2.367-0.023-4.055-0.07c-0.094-0.578-0.211-1.219-0.352-1.922
			c1.547,0.094,2.773,0.141,3.68,0.141c1,0,1.5-0.43,1.5-1.289v-2.227h-10.945V403.077z M232.052,388.452h-10.945v2.883h10.945
			V388.452z M221.106,395.929h10.945v-2.906h-10.945V395.929z M229.497,384.702c1.188-1.203,2.305-2.531,3.352-3.984l1.688,1.289
			c-0.984,1.156-2.203,2.461-3.656,3.914L229.497,384.702z"/>
		<path fill="#FFFFFF" d="M236.381,390.843l1.055-1.383c1.313,0.766,2.602,1.586,3.867,2.461c-0.438,0.547-0.836,1.063-1.195,1.547
			C238.951,392.562,237.709,391.687,236.381,390.843z M236.732,382.476h6.469v-2.391h1.781v2.391h6.516v-2.391h1.781v2.391h6.422
			v1.594h-6.422v1.711h-1.781v-1.711h-6.516v1.805h-1.781v-1.805h-6.469V382.476z M236.896,402.397
			c1.094-2.25,2.156-4.875,3.188-7.875c0.531,0.297,1.117,0.586,1.758,0.867c-0.953,2.313-1.953,4.914-3,7.805L236.896,402.397z
			 M237.998,386.413l1.055-1.313c1.484,0.938,2.711,1.781,3.68,2.531c-0.422,0.516-0.797,1-1.125,1.453
			C240.404,388.116,239.201,387.226,237.998,386.413z M242.451,390.89c2.094-1.813,3.664-3.82,4.711-6.023l1.758,0.375
			c-0.273,0.523-0.563,1.031-0.867,1.523h9.141v1.5c-1.039,1.469-2.473,2.75-4.301,3.844c2.023,0.773,4.395,1.234,7.113,1.383
			c-0.313,0.656-0.57,1.258-0.773,1.805c-3.219-0.438-5.93-1.18-8.133-2.227c-2.266,1.07-5,1.914-8.203,2.531
			c-0.219-0.484-0.484-1.016-0.797-1.594c2.766-0.391,5.195-1.016,7.289-1.875c-1.258-0.797-2.297-1.723-3.117-2.777
			c-0.781,1-1.633,1.934-2.555,2.801C243.357,391.749,242.936,391.327,242.451,390.89z M244.795,395.554h12.117v7.594h-1.734v-1.242
			h-8.648v1.242h-1.734V395.554z M255.178,397.101h-8.648v3.258h8.648V397.101z M255.225,388.265h-7.863
			c1.023,1.227,2.285,2.242,3.785,3.047C252.748,390.46,254.107,389.444,255.225,388.265z"/>
		<path fill="#FFFFFF" d="M260.914,398.929c1.117-0.359,2.242-0.727,3.375-1.102v-9.352h-3.023v-1.641h3.023v-6.539h1.734v6.539
			h2.719v1.641h-2.719v8.766c0.992-0.344,1.992-0.695,3-1.055c0.031,0.656,0.086,1.234,0.164,1.734
			c-2.563,0.922-5.102,1.859-7.617,2.813L260.914,398.929z M275.656,380.179h1.828v6.059l5.695-1.723
			c-0.094,3.078-0.188,5.594-0.281,7.547c-0.094,2.109-0.938,3.172-2.531,3.188c-0.719,0.016-1.422,0.016-2.109,0
			c-0.094-0.578-0.211-1.227-0.352-1.945c0.75,0.094,1.398,0.141,1.945,0.141c0.813,0.016,1.234-0.578,1.266-1.781
			c0.094-1.422,0.148-3.039,0.164-4.852l-3.797,1.184v10.16h-1.828v-9.598l-3.539,1.102v9.082c0,1.219,0.664,1.828,1.992,1.828
			h5.742c1.438,0,2.234-0.578,2.391-1.734c0.188-1,0.344-2.164,0.469-3.492c0.625,0.25,1.273,0.477,1.945,0.68
			c-0.219,1.5-0.43,2.719-0.633,3.656c-0.375,1.781-1.602,2.672-3.68,2.672h-6.68c-2.25,0-3.375-1.102-3.375-3.305v-8.813
			l-1.758,0.539l-0.305-1.734l2.063-0.621v-5.473h1.828v4.922l3.539-1.066V380.179z"/>
		<path fill="#FFFFFF" d="M295.453,404.19h-2.016c2.773-3.156,4.16-6.891,4.16-11.203c0-4.234-1.379-7.922-4.137-11.063h1.992
			c2.773,3.023,4.16,6.711,4.16,11.063C299.613,397.386,298.227,401.12,295.453,404.19z"/>
		<path fill="#FFFFFF" d="M323.057,397.159l-1.98,6.246h-1.641l1.441-6.246H323.057z"/>
		<path fill="#FFFFFF" d="M338.822,380.343h1.828v23.016h-1.828v-9.047c-1.047,1.156-2.102,2.375-3.164,3.656l-1.219-1.711
			c1.328-1.234,2.789-2.758,4.383-4.57V380.343z M334.65,384.679l1.523-0.867c0.656,1.125,1.414,2.531,2.273,4.219l-1.711,0.961
			C335.893,387.085,335.197,385.647,334.65,384.679z M341.33,386.062c2.578-1.703,4.734-3.719,6.469-6.047l1.641,0.844
			c-0.594,0.719-1.203,1.406-1.828,2.063h9.258v1.617c-2.188,3.203-6.93,5.75-14.227,7.641c-0.234-0.516-0.5-1.063-0.797-1.641
			c2.141-0.453,4.078-1.023,5.813-1.711c-0.609-0.563-1.391-1.195-2.344-1.898l1.172-1.125c1.141,0.891,2.078,1.664,2.813,2.32
			c2.156-1.016,3.938-2.219,5.344-3.609h-8.648c-1.031,0.953-2.211,1.914-3.539,2.883
			C342.127,386.976,341.752,386.53,341.33,386.062z M341.752,392.882h10.992v-2.93h1.875v2.93h3.422v1.641h-3.422v5.461
			c0,1.953-0.938,2.93-2.813,2.93c-0.75,0-1.852-0.008-3.305-0.023c-0.094-0.578-0.219-1.242-0.375-1.992
			c1.297,0.125,2.352,0.188,3.164,0.188c0.969,0,1.453-0.531,1.453-1.594v-4.969h-10.992V392.882z M344.377,396.022l1.313-1.055
			c1.172,1.203,2.234,2.359,3.188,3.469l-1.477,1.195C346.4,398.366,345.393,397.163,344.377,396.022z"/>
		<path fill="#FFFFFF" d="M368.863,400.804l5.836,0.094l7.805-0.188c-0.172,0.516-0.391,1.133-0.656,1.852l-7.758,0.047
			l-5.578-0.141c-2.656-0.031-4.516-0.945-5.578-2.742c-0.641,0.594-1.578,1.641-2.813,3.141l-0.961-1.945
			c1.383-1.336,2.383-2.293,3-2.871v-7.887h-2.789v-1.734h4.594v10.02C364.926,400.003,366.559,400.788,368.863,400.804z
			 M362.09,380.554c0.797,0.969,1.891,2.445,3.281,4.43l-1.664,1.172c-1.266-1.984-2.305-3.516-3.117-4.594L362.09,380.554z
			 M365.91,388.241h7.43v-3.188h-3.984c-0.422,1-0.875,1.914-1.359,2.742c-0.406-0.266-0.945-0.547-1.617-0.844
			c1.141-1.844,1.992-3.898,2.555-6.164l1.781,0.398c-0.234,0.797-0.48,1.555-0.738,2.273h3.363v-3.328h1.828v3.328h6v1.594h-6
			v3.188h7.148v1.594H365.91V388.241z M367.973,391.851h11.93v7.523h-1.805v-0.961h-8.32v0.961h-1.805V391.851z M378.098,393.444
			h-8.32v3.375h8.32V393.444z"/>
		<path fill="#FFFFFF" d="M393.724,401.366c1.805-1.211,3.414-2.621,4.828-4.23c-0.906-2.305-1.441-6.027-1.605-11.168h-8.848v3.563
			h6.75c-0.094,2.984-0.219,5.492-0.375,7.523c-0.188,2.156-1.234,3.234-3.141,3.234c-0.641,0-1.492-0.031-2.555-0.094
			c-0.094-0.578-0.219-1.227-0.375-1.945c1.094,0.156,2.008,0.234,2.742,0.234c0.906,0,1.414-0.625,1.523-1.875
			c0.125-1.438,0.219-3.219,0.281-5.344h-4.863c-0.125,5.43-1.223,9.445-3.293,12.047c-0.391-0.531-0.797-1.07-1.219-1.617
			c1.766-2.344,2.648-6.047,2.648-11.109v-6.352h10.652c-0.055-1.234-0.105-2.57-0.152-4.008h1.945
			c-0.008,1.102,0.012,2.438,0.059,4.008h8.074v1.734h-8.016c0.156,4.203,0.543,7.344,1.16,9.422
			c1.516-2.055,2.762-4.383,3.738-6.984l1.852,0.773c-1.344,3.18-2.957,5.945-4.84,8.297c1.148,2.336,2.27,3.504,3.363,3.504
			c0.398,0,0.703-0.363,0.914-1.09c0.219-1.141,0.391-2.313,0.516-3.516c0.672,0.266,1.266,0.484,1.781,0.656
			c-0.234,1.672-0.492,3.039-0.773,4.102c-0.297,1.141-0.953,1.758-1.969,1.852c-0.953,0.063-1.867-0.258-2.742-0.961
			c-0.945-0.727-1.75-1.727-2.414-3c-1.32,1.422-2.758,2.672-4.313,3.75C394.653,402.304,394.208,401.835,393.724,401.366z
			 M400.45,381.374l0.984-1.219c1.313,0.75,2.539,1.531,3.68,2.344l-1.125,1.406C402.864,383.015,401.685,382.171,400.45,381.374z"
			/>
		<path fill="#FFFFFF" d="M408.529,388.897h10.336v-8.648h2.156v8.648h10.359v1.898h-10.359v12.375h-2.156v-12.375h-10.336V388.897z
			"/>
		<path fill="#FFFFFF" d="M432.78,397.968c0.953-0.266,1.938-0.555,2.953-0.867v-8.906h-2.742v-1.641h2.742v-6.164h1.734v6.164
			h2.789v1.641h-2.789v8.367c0.953-0.297,1.93-0.617,2.93-0.961c-0.016,0.719-0.008,1.297,0.023,1.734
			c-2.359,0.766-4.766,1.57-7.219,2.414L432.78,397.968z M440.913,381.374h14.906v1.594h-13.219v17.766h13.336v1.641h-15.023
			V381.374z M443.093,398.647c2.234-0.266,4.023-0.688,5.367-1.266c-1.203-0.484-2.438-0.969-3.703-1.453
			c0.375-0.422,0.789-0.945,1.242-1.57h-2.672v-1.359h3.656c0.328-0.484,0.672-1.008,1.031-1.57l1.617,0.516
			c-0.266,0.359-0.523,0.711-0.773,1.055h6.938v1.359h-2.109c-0.547,1.094-1.211,2.016-1.992,2.766
			c1.203,0.469,2.438,0.969,3.703,1.5l-0.82,1.5c-1.375-0.672-2.805-1.32-4.289-1.945c-1.5,0.922-3.641,1.594-6.422,2.016
			C443.616,399.585,443.358,399.069,443.093,398.647z M444.358,384.21h9.984v7.547h-1.641v-0.656h-6.703v0.656h-1.641V384.21z
			 M452.702,385.522h-6.703v1.477h6.703V385.522z M445.999,389.788h6.703v-1.477h-6.703V389.788z M447.007,395.39
			c1,0.344,2.016,0.711,3.047,1.102c0.75-0.547,1.398-1.258,1.945-2.133h-4.172C447.546,394.718,447.272,395.062,447.007,395.39z"/>
		<path fill="#FFFFFF" d="M191.676,440.78h-1.828v-12.117h8.367v-3.234h-10.359v-1.781h10.934c-0.484-0.977-1.051-1.961-1.699-2.953
			l1.805-0.844c0.672,0.984,1.289,1.992,1.852,3.023l-1.547,0.773h11.344v1.781H200.09v3.234h8.508v8.766
			c0,1.969-0.93,2.953-2.789,2.953c-0.859,0-1.977-0.016-3.352-0.047c-0.078-0.516-0.188-1.141-0.328-1.875
			c1.297,0.078,2.336,0.117,3.117,0.117c1.016,0,1.523-0.516,1.523-1.547v-6.633h-6.68v12.82h-1.875v-12.82h-6.539V440.78z"/>
		<path fill="#FFFFFF" d="M211.48,439.327c1.766-2.156,3.07-4.438,3.914-6.844h-3.68v-1.5h4.031v-2.344h-3.445v-1.406h3.445v-2.25
			h-3.75v-1.5h3.75v-3.281h1.641v3.281h3.445v1.5h-3.445v2.25h3.117v1.406h-3.117v2.344h3.773v1.5h-3.773v2.508l0.703-0.703
			c1.031,0.766,2.086,1.57,3.164,2.414l-1.055,1.219c-1.188-1.016-2.125-1.797-2.813-2.344v7.617h-1.641v-8.063
			c-0.938,2.359-2.117,4.367-3.539,6.023C211.988,440.452,211.746,439.843,211.48,439.327z M221.301,432.53h2.602
			c0.047-0.969,0.07-2.875,0.07-5.719h-2.438v-1.688h2.438v-4.875h1.781v4.875h4.219v-4.875h1.781v4.875h2.531v1.688h-2.531v5.719
			h2.953v1.688h-2.953v8.859h-1.781v-8.859h-4.43c-0.344,3.625-1.836,6.656-4.477,9.094c-0.484-0.484-0.984-0.914-1.5-1.289
			c2.484-2.25,3.875-4.852,4.172-7.805h-2.438V432.53z M225.684,432.53h4.289v-5.719h-4.219
			C225.754,428.702,225.73,430.608,225.684,432.53z"/>
		<path fill="#FFFFFF" d="M235.316,438.929c1.117-0.359,2.242-0.727,3.375-1.102v-9.352h-3.023v-1.641h3.023v-6.539h1.734v6.539
			h2.719v1.641h-2.719v8.766c0.992-0.344,1.992-0.695,3-1.055c0.031,0.656,0.086,1.234,0.164,1.734
			c-2.563,0.922-5.102,1.859-7.617,2.813L235.316,438.929z M250.059,420.179h1.828v6.059l5.695-1.723
			c-0.094,3.078-0.188,5.594-0.281,7.547c-0.094,2.109-0.938,3.172-2.531,3.188c-0.719,0.016-1.422,0.016-2.109,0
			c-0.094-0.578-0.211-1.227-0.352-1.945c0.75,0.094,1.398,0.141,1.945,0.141c0.813,0.016,1.234-0.578,1.266-1.781
			c0.094-1.422,0.148-3.039,0.164-4.852l-3.797,1.184v10.16h-1.828v-9.598l-3.539,1.102v9.082c0,1.219,0.664,1.828,1.992,1.828
			h5.742c1.438,0,2.234-0.578,2.391-1.734c0.188-1,0.344-2.164,0.469-3.492c0.625,0.25,1.273,0.477,1.945,0.68
			c-0.219,1.5-0.43,2.719-0.633,3.656c-0.375,1.781-1.602,2.672-3.68,2.672h-6.68c-2.25,0-3.375-1.102-3.375-3.305v-8.813
			l-1.758,0.539l-0.305-1.734l2.063-0.621v-5.473h1.828v4.922l3.539-1.066V420.179z"/>
		<path fill="#FFFFFF" d="M259.645,440.007c0.969-2.609,1.961-5.852,2.977-9.727c0.594,0.281,1.172,0.531,1.734,0.75
			c-0.703,2.516-1.641,5.719-2.813,9.609L259.645,440.007z M260.066,423.038l1.453-1.008c1.094,1.266,2.188,2.617,3.281,4.055
			l-1.617,1.172C261.902,425.413,260.863,424.007,260.066,423.038z M271.926,441.882c1.742-1.422,3.27-3.125,4.582-5.109
			c-0.617-2.469-0.969-6.211-1.055-11.227h-7.793v5.977c0,4.781-1.109,8.641-3.328,11.578c-0.578-0.609-1.055-1.039-1.43-1.289
			c2.078-2.625,3.117-6.086,3.117-10.383v-7.477h9.398c-0.016-1.258-0.023-2.484-0.023-3.68h1.711c0,1.188,0.004,2.414,0.012,3.68
			h5.66v1.594h-5.648c0.031,3.773,0.254,6.797,0.668,9.07c1.078-2.008,1.973-4.258,2.684-6.75l1.688,0.586
			c-1.055,3.258-2.324,6.113-3.809,8.566c0.398,1.406,0.855,2.48,1.371,3.223c0.5,0.609,0.844,0.484,1.031-0.375
			c0.172-0.922,0.32-2.047,0.445-3.375c0.734,0.266,1.313,0.461,1.734,0.586c-0.219,1.656-0.461,3.023-0.727,4.102
			c-0.344,1.234-0.906,1.844-1.688,1.828c-0.672,0.016-1.305-0.367-1.898-1.148c-0.586-0.875-1.082-1.867-1.488-2.977
			c-1.125,1.57-2.355,2.945-3.691,4.125C272.965,442.585,272.457,442.21,271.926,441.882z M268.691,427.632h5.789v1.5h-5.789
			V427.632z M269.113,431.265h5.297v6.891h-3.75v1.453h-1.547V431.265z M272.863,436.702v-3.984h-2.203v3.984H272.863z
			 M278.09,421.163l1.195-0.938c0.781,0.781,1.523,1.563,2.227,2.344l-1.336,1.055C279.535,422.812,278.84,421.991,278.09,421.163z"
			/>
		<path fill="#FFFFFF" d="M301.855,431.007l1.711,1.125c-4.531,5.828-10.82,9.547-18.867,11.156
			c-0.344-0.625-0.734-1.25-1.172-1.875C291.652,439.835,297.762,436.366,301.855,431.007z M289.27,423.46l1.922,0.75
			c-1.703,3.766-3.547,7.195-5.531,10.289c-0.484-0.313-1.07-0.664-1.758-1.055C285.887,430.569,287.676,427.241,289.27,423.46z
			 M294.121,420.249h2.016v14.719h-2.016V420.249z M298.668,424.069l1.477-1.125c2.5,2.688,4.75,5.234,6.75,7.641l-1.688,1.359
			C303.02,429.163,300.84,426.538,298.668,424.069z"/>
	</g>
</g>
</svg>
