<?xml version="1.0" encoding="utf-8"?>
<!-- Generator: Adobe Illustrator 16.0.0, SVG Export Plug-In . SVG Version: 6.00 Build 0)  -->
<!DOCTYPE svg PUBLIC "-//W3C//DTD SVG 1.1//EN" "http://www.w3.org/Graphics/SVG/1.1/DTD/svg11.dtd">
<svg version="1.1" id="图层_1" xmlns="http://www.w3.org/2000/svg" xmlns:xlink="http://www.w3.org/1999/xlink" x="0px" y="0px"
	 width="640px" height="960px" viewBox="0 0 640 960" enable-background="new 0 0 640 960" xml:space="preserve">
<g>
	<g>
		<path fill="#FFFFFF" d="M197.874,429.631c1.727-2.406,3.02-5.172,3.879-8.297h-3.598v-1.57h3.633V415.1h1.711v4.664h3.422v1.57
			h-3.422v4.078l0.938-0.961c1.078,1.047,2.07,2.055,2.977,3.023l-1.266,1.242c-0.859-1.016-1.742-2.004-2.648-2.965v12.199h-1.711
			v-12.199c-0.844,2.32-1.867,4.293-3.07,5.918C198.483,430.999,198.202,430.319,197.874,429.631z M207.788,416.577h12.328v21.422
			h-1.781v-1.594h-8.766v1.594h-1.781V416.577z M218.335,418.17h-8.766v4.5h8.766V418.17z M209.569,428.717h8.766v-4.5h-8.766
			V428.717z M209.569,434.811h8.766v-4.547h-8.766V434.811z"/>
		<path fill="#FFFFFF" d="M222.812,435.069h18.563v-4.031h-17.133v-1.664h17.133v-3.961h-17.883v-1.664h9.07v-8.695h1.945v8.695
			h8.813v14.391h-1.945v-1.406h-18.563V435.069z M224.241,417.374l1.313-1.172c1.688,1.578,3.258,3.227,4.711,4.945l-1.57,1.336
			C227.382,420.764,225.897,419.061,224.241,417.374z M242.991,417.467c-1.672,1.891-3.336,3.594-4.992,5.109l-1.406-1.266
			c1.594-1.438,3.195-3.148,4.805-5.133L242.991,417.467z"/>
		<path fill="#FFFFFF" d="M245.991,424.569h10.898v-6.047h-9.023v-1.852h19.406v1.852h-8.414v6.047h10.195v1.852h-10.195v8.039
			c0,1.063-0.195,1.828-0.586,2.297c-0.438,0.547-1.258,0.836-2.461,0.867c-0.703,0-2.023-0.008-3.961-0.023
			c-0.078-0.719-0.203-1.43-0.375-2.133c1.766,0.125,2.992,0.188,3.68,0.188c0.703,0,1.172-0.133,1.406-0.398
			c0.219-0.219,0.328-0.711,0.328-1.477v-7.359h-10.898V424.569z"/>
		<path fill="#FFFFFF" d="M271.198,431.881c1.242,0.961,2.645,1.441,4.207,1.441c1.25,0,2.24-0.307,2.971-0.92
			s1.096-1.436,1.096-2.467c0-2.297-1.645-3.445-4.934-3.445h-1.512v-1.898h1.441c2.914,0,4.371-1.078,4.371-3.234
			c0-1.992-1.113-2.988-3.34-2.988c-1.273,0-2.473,0.43-3.598,1.289v-2.168c1.188-0.688,2.574-1.031,4.16-1.031
			c1.547,0,2.789,0.404,3.727,1.213s1.406,1.857,1.406,3.146c0,2.375-1.211,3.902-3.633,4.582v0.047
			c1.313,0.141,2.35,0.604,3.111,1.389s1.143,1.764,1.143,2.936c0,1.633-0.588,2.949-1.764,3.949s-2.74,1.5-4.693,1.5
			c-1.719,0-3.105-0.32-4.16-0.961V431.881z"/>
		<path fill="#FFFFFF" d="M284.663,426.198c0-3.203,0.531-5.627,1.594-7.271s2.602-2.467,4.617-2.467
			c3.844,0,5.766,3.102,5.766,9.305c0,3.063-0.541,5.404-1.623,7.025s-2.6,2.432-4.553,2.432c-1.844,0-3.271-0.77-4.283-2.309
			S284.663,429.135,284.663,426.198z M287.007,426.092c0,4.82,1.223,7.23,3.668,7.23c2.406,0,3.609-2.449,3.609-7.348
			c0-5.07-1.18-7.605-3.539-7.605C288.253,418.37,287.007,420.944,287.007,426.092z"/>
		<path fill="#FFFFFF" d="M298.737,426.198c0-3.203,0.531-5.627,1.594-7.271s2.602-2.467,4.617-2.467
			c3.844,0,5.766,3.102,5.766,9.305c0,3.063-0.541,5.404-1.623,7.025s-2.6,2.432-4.553,2.432c-1.844,0-3.271-0.77-4.283-2.309
			S298.737,429.135,298.737,426.198z M301.081,426.092c0,4.82,1.223,7.23,3.668,7.23c2.406,0,3.609-2.449,3.609-7.348
			c0-5.07-1.18-7.605-3.539-7.605C302.327,418.37,301.081,420.944,301.081,426.092z"/>
		<path fill="#FFFFFF" d="M312.812,426.198c0-3.203,0.531-5.627,1.594-7.271s2.602-2.467,4.617-2.467
			c3.844,0,5.766,3.102,5.766,9.305c0,3.063-0.541,5.404-1.623,7.025s-2.6,2.432-4.553,2.432c-1.844,0-3.271-0.77-4.283-2.309
			S312.812,429.135,312.812,426.198z M315.155,426.092c0,4.82,1.223,7.23,3.668,7.23c2.406,0,3.609-2.449,3.609-7.348
			c0-5.07-1.18-7.605-3.539-7.605C316.401,418.37,315.155,420.944,315.155,426.092z"/>
		<path fill="#FFFFFF" d="M326.522,416.905h22.594v1.805h-13.418c-0.063,1.742-0.145,3.375-0.246,4.898h10.875
			c-0.156,3.188-0.336,6.211-0.539,9.07c-0.141,1.734-0.539,2.984-1.195,3.75c-0.625,0.703-1.758,1.063-3.398,1.078
			c-0.859,0.031-2.313-0.031-4.359-0.188c-0.078-0.594-0.195-1.313-0.352-2.156c1.984,0.266,3.5,0.398,4.547,0.398
			c1.672,0.125,2.594-0.93,2.766-3.164c0.188-2.188,0.328-4.523,0.422-7.008h-8.906c-0.586,5.719-3.148,9.969-7.688,12.75
			c-0.359-0.484-0.82-1.039-1.383-1.664c4.391-2.672,6.742-6.656,7.055-11.953c0.148-1.711,0.246-3.648,0.293-5.813h-7.066V416.905z
			"/>
		<path fill="#FFFFFF" d="M366.741,418.03c2.453,2.281,4.773,4.617,6.961,7.008l-1.664,1.383c-0.625-0.734-1.258-1.457-1.898-2.168
			c-7.016,0.297-12.375,0.551-16.078,0.762c-0.859,0.063-1.688,0.188-2.484,0.375l-0.773-2.016c0.719-0.266,1.367-0.633,1.945-1.102
			c2.672-2.188,5.117-4.711,7.336-7.57l1.758,1.078c-2.344,2.75-4.789,5.195-7.336,7.336c4.789-0.148,9.5-0.32,14.133-0.516
			c-1.07-1.164-2.156-2.297-3.258-3.398L366.741,418.03z M370.187,427.334v10.641h-1.922v-1.547h-12.891v1.547h-1.922v-10.641
			H370.187z M368.265,429.069h-12.891v5.672h12.891V429.069z"/>
		<path fill="#FFFFFF" d="M375.589,417.385c0-0.406,0.139-0.748,0.416-1.025s0.619-0.416,1.025-0.416
			c0.414,0,0.764,0.137,1.049,0.41s0.428,0.617,0.428,1.031c0,0.406-0.143,0.744-0.428,1.014s-0.635,0.404-1.049,0.404
			s-0.758-0.135-1.031-0.404S375.589,417.792,375.589,417.385z M375.858,434.917v-12.961h2.297v12.961H375.858z"/>
		<path fill="#FFFFFF" d="M384.894,428.131v6.785h-2.344v-18.152h5.156c1.961,0,3.482,0.473,4.564,1.418s1.623,2.297,1.623,4.055
			c0,1.781-0.633,3.225-1.898,4.33s-2.848,1.627-4.746,1.564H384.894z M384.894,418.827v7.242h2.168c1.43,0,2.516-0.322,3.258-0.967
			s1.113-1.568,1.113-2.771c0-2.336-1.383-3.504-4.148-3.504H384.894z"/>
		<path fill="#FFFFFF" d="M407.886,434.917h-2.285v-7.453c0-2.609-0.969-3.914-2.906-3.914c-0.992,0-1.816,0.381-2.473,1.143
			s-0.984,1.721-0.984,2.877v7.348h-2.297v-19.184h2.297v8.355h0.047c0.992-1.625,2.402-2.438,4.23-2.438
			c2.914,0,4.371,1.762,4.371,5.285V434.917z"/>
		<path fill="#FFFFFF" d="M410.851,428.577c0-2.141,0.598-3.83,1.793-5.068s2.816-1.857,4.863-1.857
			c1.945,0,3.471,0.596,4.576,1.787s1.658,2.838,1.658,4.939c0,2.047-0.59,3.699-1.77,4.957s-2.762,1.887-4.746,1.887
			c-1.938,0-3.484-0.609-4.641-1.828S410.851,430.569,410.851,428.577z M413.194,428.506c0,1.492,0.377,2.668,1.131,3.527
			s1.768,1.289,3.041,1.289c1.313,0,2.313-0.42,3-1.26s1.031-2.045,1.031-3.615c0-1.578-0.344-2.789-1.031-3.633
			s-1.688-1.266-3-1.266c-1.289,0-2.307,0.441-3.053,1.324S413.194,426.967,413.194,428.506z"/>
		<path fill="#FFFFFF" d="M437.933,434.917h-2.285v-7.371c0-2.664-0.973-3.996-2.918-3.996c-1.008,0-1.836,0.375-2.484,1.125
			s-0.973,1.699-0.973,2.848v7.395h-2.297v-12.961h2.297v2.145h0.047c0.977-1.633,2.395-2.449,4.254-2.449
			c1.422,0,2.504,0.455,3.246,1.365s1.113,2.236,1.113,3.979V434.917z"/>
		<path fill="#FFFFFF" d="M452.323,429.022h-9.07c0.039,1.383,0.418,2.451,1.137,3.205s1.723,1.131,3.012,1.131
			c1.453,0,2.785-0.465,3.996-1.395v2.051c-1.141,0.805-2.652,1.207-4.535,1.207c-1.875,0-3.338-0.594-4.389-1.781
			s-1.576-2.836-1.576-4.945c0-1.984,0.576-3.621,1.729-4.91s2.584-1.934,4.295-1.934c1.695,0,3.02,0.545,3.973,1.635
			s1.43,2.615,1.43,4.576V429.022z M450.026,427.182c-0.008-1.172-0.285-2.078-0.832-2.719s-1.316-0.961-2.309-0.961
			c-0.914,0-1.705,0.34-2.373,1.02s-1.088,1.566-1.26,2.66H450.026z"/>
		<path fill="#FFFFFF" d="M465.261,419.096c-0.945-0.484-1.934-0.727-2.965-0.727c-1.57,0-2.832,0.684-3.785,2.051
			s-1.438,3.234-1.453,5.602h0.059c0.859-1.664,2.23-2.496,4.113-2.496c1.57,0,2.824,0.512,3.762,1.535s1.406,2.383,1.406,4.078
			c0,1.773-0.541,3.23-1.623,4.371s-2.463,1.711-4.143,1.711c-1.844,0-3.291-0.721-4.342-2.162s-1.576-3.486-1.576-6.135
			c0-3.203,0.689-5.748,2.068-7.635s3.193-2.83,5.443-2.83c1.289,0,2.301,0.176,3.035,0.527V419.096z M457.198,428.975
			c0,1.195,0.318,2.219,0.955,3.07s1.482,1.277,2.537,1.277c1,0,1.813-0.367,2.438-1.102s0.938-1.68,0.938-2.836
			c0-1.25-0.295-2.223-0.885-2.918s-1.428-1.043-2.514-1.043c-1.031,0-1.867,0.352-2.508,1.055S457.198,428.014,457.198,428.975z"/>
		<path fill="#FFFFFF" d="M479.194,428.131v6.785h-2.344v-18.152h5.156c1.961,0,3.482,0.473,4.564,1.418s1.623,2.297,1.623,4.055
			c0,1.781-0.633,3.225-1.898,4.33s-2.848,1.627-4.746,1.564H479.194z M479.194,418.827v7.242h2.168c1.43,0,2.516-0.322,3.258-0.967
			s1.113-1.568,1.113-2.771c0-2.336-1.383-3.504-4.148-3.504H479.194z"/>
		<path fill="#FFFFFF" d="M491.229,434.917v-19.184h2.297v19.184H491.229z"/>
		<path fill="#FFFFFF" d="M508.327,434.917h-2.309v-2.039h-0.047c-0.867,1.563-2.199,2.344-3.996,2.344
			c-3.07,0-4.605-1.836-4.605-5.508v-7.758h2.273v7.418c0,2.633,1.008,3.949,3.023,3.949c1,0,1.809-0.369,2.426-1.107
			s0.926-1.67,0.926-2.795v-7.465h2.309V434.917z"/>
		<path fill="#FFFFFF" d="M511.69,432.116c1.156,0.836,2.402,1.254,3.738,1.254c1.789,0,2.684-0.586,2.684-1.758
			c0-0.5-0.195-0.912-0.586-1.236s-1.184-0.709-2.379-1.154c-1.438-0.578-2.371-1.15-2.801-1.717s-0.645-1.252-0.645-2.057
			c0-1.148,0.486-2.068,1.459-2.76s2.17-1.037,3.592-1.037c1.102,0,2.125,0.191,3.07,0.574v2.215
			c-0.969-0.625-2.066-0.938-3.293-0.938c-0.734,0-1.332,0.16-1.793,0.48s-0.691,0.742-0.691,1.266c0,0.516,0.166,0.918,0.498,1.207
			s1.068,0.66,2.209,1.113c1.445,0.539,2.422,1.098,2.93,1.676s0.762,1.293,0.762,2.145c0,1.188-0.486,2.123-1.459,2.807
			s-2.232,1.025-3.779,1.025c-1.344,0-2.516-0.254-3.516-0.762V432.116z"/>
		<path fill="#FFFFFF" d="M198.858,458.85h2.367c0.578-1.422,1.055-2.719,1.43-3.891l1.969,0.563
			c-0.492,1.195-0.969,2.305-1.43,3.328h4.688v18.656h-1.875v-1.828h-5.273v1.992h-1.875V458.85z M206.007,460.608h-5.273v5.695
			h5.273V460.608z M200.733,473.92h5.273v-5.93h-5.273V473.92z M208.233,463.655c1.469-2.328,2.711-5.227,3.727-8.695l1.969,0.492
			c-0.398,1.18-0.805,2.289-1.219,3.328h7.547c-0.188,8.031-0.344,13.086-0.469,15.164c-0.109,2.453-1.398,3.68-3.867,3.68
			c-1.422,0-2.867-0.047-4.336-0.141c-0.094-0.781-0.219-1.477-0.375-2.086h0.07c1.563,0.219,2.992,0.328,4.289,0.328
			c1.422,0,2.188-0.75,2.297-2.25c0.172-2.328,0.297-6.641,0.375-12.938h-6.281c-0.68,1.508-1.383,2.836-2.109,3.984
			C209.429,464.225,208.89,463.936,208.233,463.655z M210.296,465.249l1.43-1.055c1.734,2.047,3.117,3.82,4.148,5.32l-1.734,1.219
			C213.03,468.92,211.749,467.092,210.296,465.249z"/>
		<path fill="#FFFFFF" d="M224.218,469.584l1.758,0.563c-0.641,1.953-1.453,3.961-2.438,6.023c-0.5-0.219-1.07-0.469-1.711-0.75
			C222.733,473.592,223.53,471.647,224.218,469.584z M224.897,458.967h10.242c0.977-1.422,1.852-2.797,2.625-4.125l1.805,0.938
			c-0.781,1.07-1.578,2.133-2.391,3.188h4.969v9.563h-1.875v-1.031h-13.5v1.031h-1.875V458.967z M240.272,460.655h-13.5v5.156h13.5
			V460.655z M227.499,455.756l1.43-0.914c0.938,0.984,1.781,2,2.531,3.047l-1.594,1.031
			C229.194,457.952,228.405,456.897,227.499,455.756z M227.874,469.749h1.828v4.102c0,1.219,0.547,1.828,1.641,1.828h4.711
			c0.922,0,1.5-0.469,1.734-1.406c0.141-0.484,0.281-1.359,0.422-2.625c0.453,0.203,1.055,0.438,1.805,0.703
			c-0.203,1.188-0.43,2.164-0.68,2.93c-0.484,1.359-1.547,2.039-3.188,2.039h-5.18c-2.063,0-3.094-1.047-3.094-3.141V469.749z
			 M231.507,468.952l1.43-0.938c1.109,1.172,2.133,2.422,3.07,3.75l-1.57,1.102C233.499,471.459,232.522,470.155,231.507,468.952z
			 M239.827,470.405l1.336-1.031c1.438,1.594,2.789,3.195,4.055,4.805l-1.57,1.242C242.538,473.858,241.265,472.186,239.827,470.405
			z"/>
		<path fill="#FFFFFF" d="M245.78,466.795c2.109-3.297,3.758-7.164,4.945-11.602l1.828,0.563c-0.563,1.797-1.156,3.477-1.781,5.039
			v17.32h-1.758v-13.406c-0.781,1.531-1.594,2.906-2.438,4.125C246.28,467.991,246.015,467.311,245.78,466.795z M261.718,455.147
			l-0.328,0.586c1.938,3.422,4.547,5.891,7.828,7.406c-0.406,0.469-0.836,1.016-1.289,1.641c-3.172-1.828-5.672-4.328-7.5-7.5
			c-1.75,3.016-4.219,5.641-7.406,7.875c-0.375-0.547-0.781-1.039-1.219-1.477c3.531-2.219,6.133-5.063,7.805-8.531H261.718z
			 M257.944,464.311v3.328c0,4.516-1.297,8.055-3.891,10.617c-0.453-0.453-0.977-0.891-1.57-1.313
			c2.422-2.219,3.633-5.266,3.633-9.141v-3.492H257.944z M262.89,464.311h1.828v13.711h-1.828V464.311z"/>
	</g>
</g>
<g>
	<g>
		<path fill="#F7CC48" d="M206.842,357.458l10.615,10.615l10.66-10.615l2.706,2.706l-10.614,10.661l10.614,10.591l-2.706,2.752
			l-10.66-10.661l-10.615,10.661l-2.683-2.752l10.592-10.591l-10.592-10.661L206.842,357.458z"/>
		<path fill="#F7CC48" d="M239.148,375.889h5.272v0.277c0,1.558,0.532,2.798,1.596,3.723c1.063,0.925,2.505,1.388,4.324,1.388
			c2.051,0,3.635-0.512,4.753-1.538c1.117-1.025,1.677-2.501,1.677-4.428c0-2.02-0.575-3.542-1.724-4.567s-2.863-1.538-5.146-1.538
			c-0.107,0-0.277,0.008-0.509,0.023c-0.23,0.016-0.408,0.023-0.531,0.023v-4.44c0.107,0,0.273,0.008,0.497,0.023
			c0.224,0.016,0.389,0.023,0.497,0.023c2.004,0,3.516-0.419,4.533-1.26c1.017-0.84,1.525-2.077,1.525-3.711
			c0-1.449-0.458-2.602-1.376-3.458c-0.917-0.855-2.146-1.283-3.688-1.283c-1.649,0-2.94,0.397-3.873,1.191
			s-1.422,1.908-1.469,3.342h-4.972c0.153-2.883,1.133-5.095,2.937-6.637c1.804-1.542,4.31-2.313,7.516-2.313
			c3.1,0,5.555,0.809,7.366,2.428c1.812,1.619,2.717,3.808,2.717,6.567c0,2.082-0.513,3.789-1.538,5.123s-2.447,2.139-4.267,2.417
			c2.144,0.386,3.773,1.326,4.892,2.821c1.117,1.496,1.677,3.477,1.677,5.943c0,3.006-1.053,5.392-3.157,7.157
			s-4.952,2.648-8.545,2.648c-3.253,0-5.874-0.898-7.862-2.694C240.281,381.343,239.241,378.926,239.148,375.889z"/>
		<path fill="#F7CC48" d="M292.06,368.627c0,5.381-1.083,9.594-3.249,12.638c-2.166,3.045-5.146,4.567-8.938,4.567
			c-3.839,0-6.826-1.538-8.962-4.613c-2.135-3.076-3.202-7.396-3.202-12.962c0-5.52,1.078-9.821,3.237-12.904
			c2.158-3.083,5.157-4.625,8.996-4.625c3.885,0,6.876,1.546,8.973,4.637C291.012,358.456,292.06,362.877,292.06,368.627z
			 M279.78,381.092c2.251,0,3.942-1.075,5.076-3.226c1.133-2.15,1.699-5.369,1.699-9.655c0-4.163-0.559-7.334-1.677-9.516
			c-1.117-2.182-2.748-3.272-4.891-3.272c-2.235,0-3.924,1.087-5.064,3.261c-1.142,2.174-1.711,5.381-1.711,9.62
			c0,4.117,0.566,7.277,1.699,9.481C276.045,379.99,277.668,381.092,279.78,381.092z"/>
		<path fill="#F7CC48" d="M301.333,379.195l4.51,1.665l-6.013,12.396l-2.983-1.179L301.333,379.195z"/>
		<path fill="#F7CC48" d="M334.958,368.627c0,5.381-1.083,9.594-3.249,12.638c-2.166,3.045-5.146,4.567-8.938,4.567
			c-3.839,0-6.826-1.538-8.962-4.613c-2.135-3.076-3.202-7.396-3.202-12.962c0-5.52,1.078-9.821,3.237-12.904
			c2.158-3.083,5.157-4.625,8.996-4.625c3.885,0,6.876,1.546,8.973,4.637C333.91,358.456,334.958,362.877,334.958,368.627z
			 M322.679,381.092c2.251,0,3.942-1.075,5.076-3.226c1.133-2.15,1.699-5.369,1.699-9.655c0-4.163-0.559-7.334-1.677-9.516
			c-1.117-2.182-2.748-3.272-4.891-3.272c-2.235,0-3.924,1.087-5.064,3.261c-1.142,2.174-1.711,5.381-1.711,9.62
			c0,4.117,0.566,7.277,1.699,9.481C318.943,379.99,320.566,381.092,322.679,381.092z"/>
		<path fill="#F7CC48" d="M363.564,368.627c0,5.381-1.083,9.594-3.249,12.638c-2.166,3.045-5.146,4.567-8.938,4.567
			c-3.839,0-6.826-1.538-8.962-4.613c-2.135-3.076-3.202-7.396-3.202-12.962c0-5.52,1.078-9.821,3.237-12.904
			c2.158-3.083,5.157-4.625,8.996-4.625c3.885,0,6.876,1.546,8.973,4.637C362.517,358.456,363.564,362.877,363.564,368.627z
			 M351.285,381.092c2.251,0,3.942-1.075,5.076-3.226c1.133-2.15,1.699-5.369,1.699-9.655c0-4.163-0.559-7.334-1.677-9.516
			c-1.117-2.182-2.748-3.272-4.891-3.272c-2.235,0-3.924,1.087-5.064,3.261c-1.142,2.174-1.711,5.381-1.711,9.62
			c0,4.117,0.566,7.277,1.699,9.481C347.55,379.99,349.173,381.092,351.285,381.092z"/>
		<path fill="#F7CC48" d="M392.171,368.627c0,5.381-1.083,9.594-3.249,12.638c-2.166,3.045-5.146,4.567-8.938,4.567
			c-3.839,0-6.826-1.538-8.962-4.613c-2.135-3.076-3.202-7.396-3.202-12.962c0-5.52,1.078-9.821,3.237-12.904
			c2.158-3.083,5.157-4.625,8.996-4.625c3.885,0,6.876,1.546,8.973,4.637C391.123,358.456,392.171,362.877,392.171,368.627z
			 M379.892,381.092c2.251,0,3.942-1.075,5.076-3.226c1.133-2.15,1.699-5.369,1.699-9.655c0-4.163-0.559-7.334-1.677-9.516
			c-1.117-2.182-2.748-3.272-4.891-3.272c-2.235,0-3.924,1.087-5.064,3.261c-1.142,2.174-1.711,5.381-1.711,9.62
			c0,4.117,0.566,7.277,1.699,9.481C376.156,379.99,377.779,381.092,379.892,381.092z"/>
		<path fill="#F7CC48" d="M401.444,379.195l4.51,1.665l-6.013,12.396l-2.983-1.179L401.444,379.195z"/>
		<path fill="#F7CC48" d="M435.069,368.627c0,5.381-1.083,9.594-3.249,12.638c-2.166,3.045-5.146,4.567-8.938,4.567
			c-3.839,0-6.826-1.538-8.962-4.613c-2.135-3.076-3.202-7.396-3.202-12.962c0-5.52,1.078-9.821,3.237-12.904
			c2.158-3.083,5.157-4.625,8.996-4.625c3.885,0,6.876,1.546,8.973,4.637C434.021,358.456,435.069,362.877,435.069,368.627z
			 M422.79,381.092c2.251,0,3.942-1.075,5.076-3.226c1.133-2.15,1.699-5.369,1.699-9.655c0-4.163-0.559-7.334-1.677-9.516
			c-1.117-2.182-2.748-3.272-4.891-3.272c-2.235,0-3.924,1.087-5.064,3.261c-1.142,2.174-1.711,5.381-1.711,9.62
			c0,4.117,0.566,7.277,1.699,9.481C419.055,379.99,420.678,381.092,422.79,381.092z"/>
		<path fill="#F7CC48" d="M463.676,368.627c0,5.381-1.083,9.594-3.249,12.638c-2.166,3.045-5.146,4.567-8.938,4.567
			c-3.839,0-6.826-1.538-8.962-4.613c-2.135-3.076-3.202-7.396-3.202-12.962c0-5.52,1.078-9.821,3.237-12.904
			c2.158-3.083,5.157-4.625,8.996-4.625c3.885,0,6.876,1.546,8.973,4.637C462.628,358.456,463.676,362.877,463.676,368.627z
			 M451.396,381.092c2.251,0,3.942-1.075,5.076-3.226c1.133-2.15,1.699-5.369,1.699-9.655c0-4.163-0.559-7.334-1.677-9.516
			c-1.117-2.182-2.748-3.272-4.891-3.272c-2.235,0-3.924,1.087-5.064,3.261c-1.142,2.174-1.711,5.381-1.711,9.62
			c0,4.117,0.566,7.277,1.699,9.481C447.661,379.99,449.284,381.092,451.396,381.092z"/>
		<path fill="#F7CC48" d="M492.282,368.627c0,5.381-1.083,9.594-3.249,12.638c-2.166,3.045-5.146,4.567-8.938,4.567
			c-3.839,0-6.826-1.538-8.962-4.613c-2.135-3.076-3.202-7.396-3.202-12.962c0-5.52,1.078-9.821,3.237-12.904
			c2.158-3.083,5.157-4.625,8.996-4.625c3.885,0,6.876,1.546,8.973,4.637C491.234,358.456,492.282,362.877,492.282,368.627z
			 M480.003,381.092c2.251,0,3.942-1.075,5.076-3.226c1.133-2.15,1.699-5.369,1.699-9.655c0-4.163-0.559-7.334-1.677-9.516
			c-1.117-2.182-2.748-3.272-4.891-3.272c-2.235,0-3.924,1.087-5.064,3.261c-1.142,2.174-1.711,5.381-1.711,9.62
			c0,4.117,0.566,7.277,1.699,9.481C476.268,379.99,477.891,381.092,480.003,381.092z"/>
	</g>
</g>
<line fill="none" stroke="#FFFFFF" stroke-miterlimit="10" x1="197.522" y1="400.114" x2="581.769" y2="400.114"/>
</svg>
