<?xml version="1.0" encoding="utf-8"?>
<!-- Generator: Adobe Illustrator 16.0.0, SVG Export Plug-In . SVG Version: 6.00 Build 0)  -->
<!DOCTYPE svg PUBLIC "-//W3C//DTD SVG 1.1//EN" "http://www.w3.org/Graphics/SVG/1.1/DTD/svg11.dtd">
<svg version="1.1" id="图层_1" xmlns="http://www.w3.org/2000/svg" xmlns:xlink="http://www.w3.org/1999/xlink" x="0px" y="0px"
	 width="640px" height="130px" viewBox="0 0 640 130" enable-background="new 0 0 640 130" xml:space="preserve">
<rect fill="#F7CC48" width="640" height="130"/>
<g>
	<g>
		<path fill="#1B3467" d="M50.476,29.853V27.04h15.781v-3.438h4.219v3.438h15.938v2.813H70.476v3.906h14.063v20.938
			c0.103,3.228-1.563,4.79-5,4.688h-3.438v-2.656h2.031c1.665,0.103,2.446-0.574,2.344-2.031V36.416H56.413v23.125H52.35V33.759
			h13.906v-3.906H50.476z M58.913,45.009v-2.656h3.438c-0.625-1.145-0.991-2.603-1.094-4.375h3.594
			c0.103,1.563,0.469,3.022,1.094,4.375h4.844c0.52-1.145,0.938-2.603,1.25-4.375h3.594c-0.105,1.563-0.522,3.022-1.25,4.375h3.594
			v2.656h-7.5v4.063h8.594v2.656h-8.594v7.031h-4.063v-7.031h-8.438v-2.656h8.438v-4.063H58.913z"/>
		<path fill="#1B3467" d="M90.476,56.103v-2.5c5.625-5.415,8.75-11.875,9.375-19.375h-8.594v-2.969h12.5v2.813
			C102.922,43.552,98.495,50.896,90.476,56.103z M101.257,59.072v-2.813h2.813c1.665,0.103,2.446-0.571,2.344-2.031V23.759h4.219
			v30.625c0.103,3.228-1.512,4.79-4.844,4.688H101.257z M126.413,56.103c-8.543-5.415-12.866-12.759-12.969-22.031v-2.813h4.531
			c2.707,0,5.156-0.469,7.344-1.406v3.125c-1.772,0.835-4.063,1.25-6.875,1.25h-1.25c0.103,7.605,3.176,14.011,9.219,19.219V56.103z
			"/>
		<path fill="#1B3467" d="M130.476,36.416v-2.813h10.469v-9.688h4.375v29.844c0.103,3.125-1.616,4.688-5.156,4.688h-9.688v-2.656
			h7.813c1.875,0,2.759-0.833,2.656-2.5V36.416H130.476z M156.726,58.447c-3.438,0-5.21-1.563-5.313-4.688V23.916h4.531v9.688
			h10.469v2.813h-10.469v16.875c-0.105,1.667,0.781,2.5,2.656,2.5h7.813v2.656L156.726,58.447L156.726,58.447z"/>
		<path fill="#1B3467" d="M173.444,56.728V37.666h-3.125V35.01h6.719v16.406c1.145-0.625,2.188-1.353,3.125-2.188v2.969
			C178.288,54.177,176.047,55.688,173.444,56.728z M174.694,32.041c-0.522-2.5-1.406-5.156-2.656-7.969h3.281
			c1.457,2.71,2.446,5.366,2.969,7.969H174.694z M179.538,59.697v-2.813c1.563-1.563,2.29-4.27,2.188-8.125V25.322h23.438v28.75
			c0.103,3.645-1.563,5.364-5,5.156h-2.344v-2.5h1.25c1.77,0.103,2.603-0.625,2.5-2.188V28.134h-16.094v19.219
			C185.788,53.083,183.808,57.197,179.538,59.697z M187.194,34.853v-2.5h4.531v-2.969h3.438v2.969h4.531v2.5h-4.531v3.75h5.156v2.5
			h-13.75v-2.5h5.156v-3.75H187.194z M187.819,54.853V43.916h11.094v6.25c0.103,3.23-1.355,4.792-4.375,4.688L187.819,54.853
			L187.819,54.853z M190.788,52.353h3.125c1.457,0.105,2.134-0.571,2.031-2.031v-4.063h-5.156V52.353z"/>
		<path fill="#1B3467" d="M212.351,49.072V30.166h13.906v-6.563h4.375v6.563h13.906v13.281c0.103,3.854-1.616,5.729-5.156,5.625
			h-8.75v10.781h-4.375V49.072H212.351z M216.413,46.259h9.844V32.978h-9.844V46.259z M240.476,32.978h-9.844v13.281h7.5
			c1.563,0,2.344-0.884,2.344-2.656V32.978z"/>
		<path fill="#1B3467" d="M251.101,48.759v-3.125c2.813-3.125,4.688-5.52,5.625-7.188c-0.313,0-0.835,0-1.563,0
			c-1.668,0.105-3.281,0.105-4.844,0v-2.813c2.813-3.438,4.79-7.395,5.938-11.875h4.063c-1.563,4.585-3.75,8.542-6.563,11.875
			c1.457,0.105,2.863,0.054,4.219-0.156c-0.105,0,0,0,0.313,0c0.415-0.728,0.989-2.031,1.719-3.906
			c0.103-0.208,0.156-0.364,0.156-0.469h3.906c-2.188,6.147-5.261,10.991-9.219,14.531c3.438-0.208,6.196-0.415,8.281-0.625v2.656
			C259.484,48.396,255.476,48.759,251.101,48.759z M250.632,56.259v-2.813c4.582,0.105,8.853-0.313,12.813-1.25v2.656
			C259.484,55.791,255.214,56.259,250.632,56.259z M264.382,31.572v-2.813h4.531c-0.104-1.563-0.156-3.228-0.156-5h4.063
			c0,1.772,0,3.438,0,5h5.313V24.54h3.438v4.219h3.75v2.813h-12.344c0,1.875,0.103,3.699,0.313,5.469h12.969v2.813h-12.656
			c0.103,1.147,0.313,2.761,0.625,4.844c0.103,0.938,0.208,1.616,0.313,2.031c0.103,0.313,0.208,0.73,0.313,1.25
			c0.208,0.625,0.364,1.147,0.469,1.563c1.978-1.665,3.906-4.009,5.781-7.031h4.219c-2.71,4.585-5.679,7.969-8.906,10.156
			c1.353,2.5,2.864,3.75,4.531,3.75c1.875,0.208,2.759-0.781,2.656-2.969h2.813c0.103,4.063-1.667,6.04-5.313,5.938
			c-3.229,0-5.835-1.667-7.813-5c-1.354,0.73-3.804,1.665-7.344,2.813c-0.938,0.313-1.616,0.571-2.031,0.781v-2.344
			c3.228-1.25,5.938-2.551,8.125-3.906c-0.522-1.25-0.938-2.759-1.25-4.531c-0.522-2.188-0.938-4.634-1.25-7.344h-5.938v-2.813
			h5.781c-0.104-1.77-0.261-3.594-0.469-5.469L264.382,31.572L264.382,31.572z"/>
		<path fill="#1B3467" d="M292.663,29.697v-2.969h31.406v2.969h-13.438v24.688h15.625v2.656h-35.625v-2.656h15.625V29.697H292.663z"
			/>
		<path fill="#1B3467" d="M330.944,28.447v-2.656h6.719c1.771,0,3.802-0.313,6.094-0.938v2.813
			c-1.146,0.417-2.604,0.679-4.375,0.781v5.469h4.219v2.656h-3.904c0.833,3.335,2.188,6.304,4.063,8.906v3.594
			c-2.085-2.396-3.542-4.321-4.375-5.781v16.406h-3.75V44.228c-1.25,2.917-3.179,5.938-5.781,9.063v-3.906
			c2.29-3.75,4.114-8.02,5.471-12.813h-4.846v-2.656h5.156v-5.469H330.944z M344.382,42.666V40.01h21.406v2.656h-8.75v4.844h7.813
			v2.656h-7.813v5.469h9.844v2.344h-24.375v-2.344h10.469v-5.469h-7.969V47.51h7.969v-4.844H344.382z M345.632,36.572V25.634h18.906
			v6.406c0.103,3.125-1.563,4.636-5,4.531L345.632,36.572L345.632,36.572z M349.382,33.916h9.063
			c1.665,0.105,2.444-0.625,2.344-2.188V28.29h-11.406L349.382,33.916L349.382,33.916z"/>
		<path fill="#1B3467" d="M371.726,57.822V28.603h4.531c0.415-1.25,0.781-2.813,1.094-4.688h3.906
			c-0.21,1.563-0.625,3.125-1.25,4.688h6.563v24.375c0.103,3.333-1.46,4.946-4.688,4.844H371.726z M375.476,31.259v10h7.346v-10
			H375.476L375.476,31.259z M375.476,55.478h5.156c1.563,0.105,2.29-0.728,2.188-2.5v-8.906h-7.346L375.476,55.478L375.476,55.478z
			 M395.632,58.759v-2.656h3.281c1.771,0.103,2.603-0.676,2.5-2.344V30.634h-7.5c-1.147,2.292-3.229,4.219-6.25,5.781v-2.5
			c2.603-2.188,4.063-5.571,4.375-10.156h3.906c-0.104,1.563-0.417,2.917-0.938,4.063h10.469v25.781c0.208,3.645-1.46,5.364-5,5.156
			H395.632L395.632,58.759z M392.976,47.978c-0.417-3.645-1.304-7.239-2.654-10.781h3.125c1.665,3.854,2.759,7.449,3.279,10.781
			H392.976z"/>
		<path fill="#1B3467" d="M410.788,28.134v-2.656h17.5v2.656h-1.719v20.781c0.938-0.208,1.875-0.469,2.813-0.781v2.656l-2.813,0.938
			v7.969h-3.596v-7.031c-3.646,0.73-7.917,1.406-12.813,2.031v-3.438l2.813-0.156V28.134H410.788z M416.569,28.134v5.469h6.404
			v-5.469H416.569z M416.569,36.103v5.625h6.404v-5.625H416.569z M416.569,50.634c2.188-0.208,4.319-0.52,6.404-0.938v-5.313h-6.404
			V50.634z M446.569,59.853c-4.167-2.71-7.241-5.259-9.221-7.656c-1.667,2.292-4.636,4.844-8.904,7.656v-2.969
			c2.813-2.395,5.103-4.895,6.875-7.5c-2.604-4.27-4.323-10.103-5.156-17.5h3.75c0.625,5.73,1.771,10.417,3.438,14.063
			c2.188-4.375,3.54-9.896,4.063-16.563h-11.875v-2.656h15.781v2.656c-0.835,8.75-2.813,15.417-5.938,20
			c1.875,2.5,4.271,4.897,7.188,7.188L446.569,59.853L446.569,59.853z"/>
		<path fill="#1B3467" d="M450.476,56.103v-2.5c5.625-5.415,8.75-11.875,9.375-19.375h-8.594v-2.969h12.5v2.813
			C462.922,43.552,458.496,50.896,450.476,56.103z M461.257,59.072v-2.813h2.813c1.665,0.103,2.444-0.571,2.344-2.031V23.759h4.219
			v30.625c0.104,3.228-1.511,4.79-4.844,4.688H461.257z M486.413,56.103c-8.542-5.415-12.866-12.759-12.969-22.031v-2.813h4.529
			c2.708,0,5.156-0.469,7.346-1.406v3.125c-1.772,0.835-4.063,1.25-6.875,1.25h-1.25c0.103,7.605,3.177,14.011,9.219,19.219V56.103z
			"/>
		<path fill="#1B3467" d="M493.444,57.353V27.041H523.6v24.531c0.104,3.96-1.821,5.884-5.779,5.781H493.444z M497.819,54.697h18.904
			c1.665,0,2.5-0.884,2.5-2.656V29.853h-21.404V54.697z"/>
		<path fill="#1B3467" d="M50.319,92.072v-2.813h5.938V73.166h25.156V89.26h5.156v2.813h-5.156v9.844
			c0.207,3.54-1.563,5.208-5.313,5h-3.594v-2.813h2.344c1.665,0.103,2.446-0.625,2.344-2.188v-9.844H60.632
			c0.103,7.604-2.5,12.813-7.813,15.625v-2.813c2.5-2.708,3.645-6.978,3.438-12.813L50.319,92.072L50.319,92.072z M60.632,76.134
			v13.125h16.563V76.134H60.632z M68.132,86.603c-0.522-2.395-1.46-4.946-2.813-7.656h3.75c1.353,1.979,2.446,4.531,3.281,7.656
			H68.132z"/>
		<path fill="#1B3467" d="M90.944,106.916c2.395-4.583,3.957-9.634,4.688-15.156h3.594c-0.625,5.835-1.929,10.886-3.906,15.156
			H90.944z M94.851,80.197c-0.73-2.708-1.824-5.313-3.281-7.813h3.906c1.353,2.085,2.446,4.688,3.281,7.813H94.851z M95.163,89.884
			c-0.522-1.875-1.616-4.531-3.281-7.969h3.906c1.563,2.917,2.656,5.574,3.281,7.969H95.163z M102.351,77.853v-2.969h22.969v2.969
			h-9.375v24.688h10.938v2.5h-26.406v-2.5h10.938V77.853H102.351z"/>
		<path fill="#1B3467" d="M133.444,105.353V75.041H163.6v24.531c0.103,3.96-1.824,5.884-5.781,5.781H133.444z M137.819,102.697
			h18.906c1.665,0,2.5-0.884,2.5-2.656V77.853h-21.406V102.697z"/>
		<path fill="#1B3467" d="M170.476,104.103v-2.5c5.625-5.415,8.75-11.875,9.375-19.375h-8.594v-2.969h12.5v2.813
			C182.922,91.552,178.495,98.896,170.476,104.103z M181.257,107.072v-2.813h2.813c1.665,0.103,2.446-0.571,2.344-2.031V71.759
			h4.219v30.625c0.103,3.228-1.512,4.79-4.844,4.688L181.257,107.072L181.257,107.072z M206.413,104.103
			c-8.543-5.415-12.866-12.759-12.969-22.031v-2.813h4.531c2.707,0,5.156-0.469,7.344-1.406v3.125
			c-1.772,0.835-4.063,1.25-6.875,1.25h-1.25c0.103,7.605,3.176,14.011,9.219,19.219V104.103z"/>
		<path fill="#1B3467" d="M210.476,107.697v-3.125c2.188-2.915,3.176-7.5,2.969-13.75V74.416h14.531V71.76h4.688v2.656h13.75v2.813
			h-28.906v12.5c0,4.897-0.469,8.594-1.406,11.094C215.163,103.114,213.288,105.404,210.476,107.697z M219.538,84.572v-2.656h7.188
			l1.25-2.969h4.688c-0.625,1.042-1.147,2.031-1.563,2.969h14.219v2.656h-15.625c-1.355,2.396-3.179,4.792-5.469,7.188h6.875v-5
			h4.219v5h9.219v2.656h-9.219v4.219h11.094v2.813H235.32v6.094h-4.219v-6.094h-12.813v-2.813h12.813v-4.219h-10.625V91.76
			c2.082-2.603,3.696-5,4.844-7.188H219.538z"/>
		<path fill="#1B3467" d="M251.726,76.447v-2.813h33.594v2.813h-13.75v9.844h12.969v2.813H271.57v14.219h15v2.5h-36.25v-2.5h4.531
			V84.728h4.063v18.594h8.281V76.447H251.726z"/>
		<path fill="#1B3467" d="M291.257,82.228V76.29h5.625c-0.522-0.833-0.938-2.083-1.25-3.75h3.906
			c0.313,1.355,0.677,2.605,1.094,3.75h5.625v-4.688h4.375v4.688h5.625c0.208-0.625,0.469-1.563,0.781-2.813
			c0.103-0.415,0.156-0.728,0.156-0.938h4.063c-0.21,1.147-0.625,2.397-1.25,3.75h5.625v5.938h-4.063v-3.281h-26.25v3.281
			L291.257,82.228L291.257,82.228z M296.413,91.603v-9.219h24.063v4.531c0.104,3.23-1.511,4.792-4.844,4.688h-5.156v3.125h13.281
			v5.781c0.104,3.333-1.46,4.946-4.688,4.844h-3.125v-2.344h1.719c1.563,0.105,2.29-0.625,2.188-2.188v-3.438h-9.375v10.469h-4.063
			V97.384h-9.219v7.813h-3.906V94.728h13.125v-3.125H296.413z M300.319,89.259h14.063c1.563,0,2.29-0.728,2.188-2.188v-2.344h-16.25
			L300.319,89.259L300.319,89.259z"/>
		<path fill="#1B3467" d="M330.319,76.134v-2.656h9.219v-1.875h3.906v1.875h9.844v-1.875h4.063v1.875h9.221v2.656h-9.221v2.031
			h-4.063v-2.031h-9.844v2.031h-3.906v-2.031H330.319z M330.944,81.759v-2.188h15.313v-2.188h4.375v2.188h15.313v2.188h-17.813
			c-2.5,1.25-4.896,2.241-7.188,2.969c3.853,0,7.396-0.051,10.625-0.156c1.25-0.521,2.5-1.094,3.75-1.719h6.25
			c-6.354,3.335-12.971,5.835-19.846,7.5c6.979,0,12.813-0.208,17.5-0.625c-0.625-0.833-1.25-1.719-1.875-2.656h3.438
			c1.771,2.085,3.071,4.271,3.906,6.563h-3.906c-0.104-0.625-0.313-1.196-0.625-1.719c-3.542,0.313-7.241,0.522-11.094,0.625
			c-3.647,0.105-9.013,0.156-16.096,0.156v-2.344c4.375-0.938,8.646-2.134,12.813-3.594c-2.188,0.105-5.991,0.156-11.406,0.156
			v-2.188c2.813-0.728,5.415-1.719,7.813-2.969L330.944,81.759L330.944,81.759z M334.226,106.916V94.259h28.596v8.438
			c0.103,2.915-1.513,4.321-4.846,4.219H334.226z M338.132,96.447v3.281h8.281v-3.281H338.132z M338.132,104.728h8.281v-2.969
			h-8.281V104.728z M358.757,96.447h-8.281v3.281h8.281V96.447z M356.882,104.728c1.354,0.103,1.979-0.469,1.875-1.719v-1.25h-8.281
			v2.969H356.882z"/>
		<path fill="#1B3467" d="M370.476,104.103v-2.5c5.625-5.415,8.75-11.875,9.375-19.375h-8.594v-2.969h12.5v2.813
			C382.922,91.552,378.496,98.896,370.476,104.103z M381.257,107.072v-2.813h2.813c1.665,0.103,2.444-0.571,2.344-2.031V71.759
			h4.219v30.625c0.104,3.228-1.511,4.79-4.844,4.688L381.257,107.072L381.257,107.072z M406.413,104.103
			c-8.542-5.415-12.866-12.759-12.969-22.031v-2.813h4.529c2.708,0,5.156-0.469,7.346-1.406v3.125
			c-1.772,0.835-4.063,1.25-6.875,1.25h-1.25c0.103,7.605,3.177,14.011,9.219,19.219V104.103z"/>
		<path fill="#1B3467" d="M415.007,107.697V84.572c-1.25,0.938-2.813,1.667-4.688,2.188v-2.344
			c3.958-2.603,6.509-6.821,7.654-12.656h3.906c-0.729,3.125-1.667,5.835-2.813,8.125v27.813L415.007,107.697L415.007,107.697z
			 M420.632,106.134v-2.656h7.813c-2.188-5.938-3.542-12.969-4.063-21.094h4.063c0.415,8.23,1.563,15.261,3.438,21.094h3.438
			c1.875-6.353,3.021-13.384,3.438-21.094h4.063c-0.625,8.125-1.979,15.156-4.063,21.094h8.125v2.656H420.632z M421.569,79.259
			v-2.813h10v-4.375h4.688v4.375h9.688v2.813H421.569z"/>
		<path fill="#1B3467" d="M453.132,97.072v-2.344c5.625-1.665,9.844-4.009,12.656-7.031c-4.063,1.146-8.96,2.188-14.688,3.125v-2.5
			c5.729-1.04,10.415-2.239,14.063-3.594c-2.71-1.25-5.469-2.134-8.281-2.656v-1.875c-1.563,0.625-3.335,1.094-5.313,1.406v-2.344
			c5.521-1.458,9.583-3.958,12.188-7.5h4.531c-0.625,0.938-1.304,1.772-2.031,2.5h17.188v2.656
			c-4.585,4.585-9.638,7.866-15.156,9.844h3.125c-0.729,0.938-1.511,1.824-2.344,2.656h15.938v2.656
			c-7.188,8.75-18.542,13.906-34.063,15.469v-2.5c7.188-1.147,12.759-2.656,16.719-4.531c-3.022-1.353-6.094-2.344-9.219-2.969
			v-1.875C456.882,96.083,455.109,96.552,453.132,97.072z M477.819,77.072h-14.531c-1.354,1.042-2.969,1.929-4.844,2.656
			c3.438,0.417,6.612,1.304,9.529,2.656v1.094C471.101,82.021,474.382,79.884,477.819,77.072z M479.226,92.228h-13.438
			c-1.667,1.147-3.594,2.136-5.781,2.969c3.75,0.625,7.083,1.563,10,2.813v1.406C473.444,97.438,476.516,95.041,479.226,92.228z"/>
		<path fill="#1B3467" d="M490.319,76.916v-2.5h15.779V71.76h4.688v2.656h15.781v2.5H490.319z M492.038,107.541v-17.5h32.813v12.188
			c0.208,3.54-1.511,5.208-5.154,5h-3.596v-2.5h2.188c1.771,0.103,2.603-0.679,2.5-2.344v-9.688h-24.688v14.844H492.038z
			 M495.944,87.541v-7.969h25v3.594c0.103,3.022-1.25,4.48-4.063,4.375H495.944z M499.851,85.197h15.471
			c1.25,0.104,1.819-0.521,1.719-1.875v-1.563h-17.188L499.851,85.197L499.851,85.197z M500.163,103.322v-8.125h16.563v4.219
			c0.104,2.71-1.304,4.011-4.219,3.906H500.163z M503.757,101.134h7.5c1.25,0.105,1.821-0.469,1.719-1.719V97.54h-9.219V101.134
			L503.757,101.134z"/>
		<path fill="#1B3467" d="M536.569,97.228v-1.719c-0.104-2.915,1.302-5.364,4.219-7.344c3.021-2.188,4.427-4.426,4.219-6.719
			c-0.21-3.54-2.031-5.415-5.469-5.625c-3.542,0-5.886,2.241-7.031,6.719h-3.906c1.04-6.353,4.688-9.531,10.938-9.531
			c6.146,0.313,9.427,3.074,9.844,8.281c0.313,3.23-1.563,6.147-5.625,8.75c-2.188,1.563-3.229,3.491-3.125,5.781v1.406
			L536.569,97.228L536.569,97.228z M536.257,105.822v-4.531h4.688v4.531H536.257z"/>
	</g>
</g>
</svg>
