<?xml version="1.0" encoding="utf-8"?>
<!-- Generator: Adobe Illustrator 16.0.0, SVG Export Plug-In . SVG Version: 6.00 Build 0)  -->
<!DOCTYPE svg PUBLIC "-//W3C//DTD SVG 1.1//EN" "http://www.w3.org/Graphics/SVG/1.1/DTD/svg11.dtd">
<svg version="1.1" id="图层_1" xmlns="http://www.w3.org/2000/svg" xmlns:xlink="http://www.w3.org/1999/xlink" x="0px" y="0px"
	 width="640px" height="960px" viewBox="0 0 640 960" enable-background="new 0 0 640 960" xml:space="preserve">
<g>
	<g>
		<g>
			<rect x="448.882" y="-1.131" fill="#F7CC48" width="132.887" height="132.888"/>
		</g>
		<g>
			<polygon fill="#F7CC48" points="473.299,138.869 467.781,133.07 478.816,133.07 			"/>
		</g>
	</g>
</g>
<g>
	<g>
		<path fill="#1B3467" d="M471.452,82.212v3.411H453.84l9.82-11.76c1.221-1.472,2.112-2.765,2.675-3.878
			c0.563-1.113,0.844-2.125,0.844-3.034c0-1.305-0.386-2.331-1.157-3.079c-0.772-0.748-1.829-1.122-3.169-1.122
			c-1.197,0-2.185,0.374-2.963,1.122s-1.215,1.732-1.311,2.953h-4.111c0-2.358,0.79-4.24,2.37-5.646
			c1.58-1.406,3.704-2.109,6.373-2.109c2.538,0,4.54,0.652,6.006,1.957s2.199,3.082,2.199,5.332c0,1.604-0.422,3.223-1.266,4.856
			s-2.63,4.007-5.359,7.119l-3.339,3.878H471.452z"/>
		<path fill="#1B3467" d="M481.313,85.624V62.966h-5.439l1.651-3.375h7.685v26.033H481.313z"/>
		<path fill="#1B3467" d="M510.689,72.966c0,4.178-0.842,7.448-2.522,9.812c-1.683,2.364-3.995,3.546-6.939,3.546
			c-2.98,0-5.3-1.194-6.957-3.582c-1.658-2.388-2.487-5.742-2.487-10.063c0-4.285,0.838-7.624,2.514-10.018s4.004-3.591,6.984-3.591
			c3.017,0,5.338,1.2,6.966,3.6C509.875,65.069,510.689,68.501,510.689,72.966z M501.155,82.643c1.748,0,3.062-0.835,3.941-2.504
			c0.88-1.67,1.319-4.168,1.319-7.496c0-3.232-0.434-5.694-1.302-7.388c-0.868-1.693-2.134-2.541-3.797-2.541
			c-1.736,0-3.047,0.844-3.933,2.532c-0.886,1.688-1.328,4.177-1.328,7.469c0,3.196,0.439,5.649,1.319,7.361
			C498.256,81.788,499.516,82.643,501.155,82.643z"/>
		<path fill="#1B3467" d="M518.376,85.624V62.966h-5.439l1.651-3.375h7.685v26.033H518.376z"/>
		<path fill="#1B3467" d="M530.391,83.631c0-0.658,0.228-1.221,0.683-1.688s1.012-0.7,1.67-0.7s1.215,0.233,1.67,0.7
			c0.454,0.467,0.682,1.03,0.682,1.688c0,0.646-0.228,1.194-0.682,1.643c-0.455,0.449-1.012,0.673-1.67,0.673
			s-1.215-0.225-1.67-0.673S530.391,84.277,530.391,83.631z"/>
		<path fill="#1B3467" d="M541.347,71.727c-1.305-0.563-2.262-1.298-2.872-2.208s-0.916-2.047-0.916-3.412
			c0-2.106,0.742-3.806,2.227-5.099c1.483-1.292,3.447-1.939,5.889-1.939c2.502,0,4.488,0.655,5.961,1.966
			c1.472,1.311,2.208,3.061,2.208,5.251c0,1.293-0.32,2.403-0.96,3.331c-0.641,0.928-1.584,1.631-2.828,2.109
			c1.46,0.479,2.604,1.326,3.429,2.541c0.826,1.215,1.239,2.648,1.239,4.3c0,2.417-0.799,4.315-2.396,5.691
			c-1.599,1.376-3.815,2.064-6.652,2.064c-2.789,0-4.985-0.688-6.589-2.064c-1.604-1.376-2.406-3.25-2.406-5.62
			c0-1.724,0.407-3.187,1.221-4.39C538.714,73.047,539.862,72.206,541.347,71.727z M545.674,82.823c1.544,0,2.753-0.404,3.627-1.212
			c0.873-0.808,1.311-1.924,1.311-3.349c0-1.436-0.438-2.561-1.311-3.375c-0.874-0.814-2.083-1.221-3.627-1.221
			c-1.508,0-2.699,0.413-3.573,1.239c-0.873,0.826-1.311,1.945-1.311,3.357c0,1.425,0.432,2.541,1.293,3.349
			C542.945,82.419,544.142,82.823,545.674,82.823z M545.764,62.535c-1.245,0-2.227,0.327-2.944,0.979
			c-0.719,0.653-1.077,1.542-1.077,2.667c0,1.101,0.35,1.963,1.05,2.585c0.7,0.623,1.661,0.934,2.882,0.934
			c1.257,0,2.235-0.308,2.936-0.924c0.7-0.616,1.05-1.481,1.05-2.594c0-1.137-0.347-2.029-1.041-2.675
			S546.973,62.535,545.764,62.535z"/>
		<path fill="#1B3467" d="M453.396,107.338c2.281-3.156,4.086-7.023,5.414-11.602l1.922,0.563c-0.641,1.914-1.336,3.711-2.086,5.391
			v16.922h-1.828v-13.266c-0.82,1.469-1.695,2.82-2.625,4.055C453.974,108.713,453.708,108.026,453.396,107.338z M474.794,109.424
			c0.391,0.188,1.047,0.422,1.969,0.703c-0.141,1.734-0.32,3.242-0.539,4.523c-0.344,1.984-1.727,2.984-4.148,3
			c-2.484,0.094-4.844,0.094-7.078,0c-2.078-0.109-3.336-0.773-3.773-1.992c-0.406-1.25,0.086-2.844,1.477-4.781
			c1.359-1.859,4.547-5.688,9.563-11.484H461.88v-1.852h12.82v2.18c-3.781,4.125-7.07,7.953-9.867,11.484
			c-1.313,1.766-1.891,2.969-1.734,3.609c0.063,0.656,0.93,1.008,2.602,1.055c1.906,0.078,3.805,0.07,5.695-0.023
			c1.109-0.047,1.844-0.203,2.203-0.469c0.406-0.266,0.672-0.813,0.797-1.641C474.552,112.877,474.685,111.44,474.794,109.424z"/>
		<path fill="#1B3467" d="M477.771,104.057h22.641v1.781h-7.406v9.141c0,0.922,0.469,1.383,1.406,1.383h2.016
			c1.125,0,1.766-0.516,1.922-1.547c0.141-0.875,0.258-1.984,0.352-3.328c0.625,0.219,1.305,0.414,2.039,0.586
			c-0.156,1.344-0.32,2.469-0.492,3.375c-0.313,1.719-1.445,2.578-3.398,2.578h-2.859c-1.969,0-2.953-0.961-2.953-2.883v-9.305
			h-4.781v0.75c0,3.313-0.5,5.766-1.5,7.359c-1,1.734-2.977,3.352-5.93,4.852c-0.563-0.688-1.023-1.211-1.383-1.57
			c2.703-1.328,4.523-2.727,5.461-4.195c0.922-1.406,1.383-3.523,1.383-6.352v-0.844h-6.516V104.057z M480.021,97.237h18.188v1.781
			h-18.188V97.237z"/>
	</g>
</g>
</svg>
