<?xml version="1.0" encoding="utf-8"?>
<!-- Generator: Adobe Illustrator 16.0.0, SVG Export Plug-In . SVG Version: 6.00 Build 0)  -->
<!DOCTYPE svg PUBLIC "-//W3C//DTD SVG 1.1//EN" "http://www.w3.org/Graphics/SVG/1.1/DTD/svg11.dtd">
<svg version="1.1" id="图层_1" xmlns="http://www.w3.org/2000/svg" xmlns:xlink="http://www.w3.org/1999/xlink" x="0px" y="0px"
	 width="640px" height="960px" viewBox="0 0 640 960" enable-background="new 0 0 640 960" xml:space="preserve">
<polygon opacity="0.3" fill="#FFFFFF" points="495.649,733.445 494.854,734.521 494.854,734.521 "/>
<polygon opacity="0.3" fill="#FFFFFF" points="523.992,695.029 523.673,695.465 523.673,695.465 "/>
<rect x="569.691" y="632.107" opacity="0.3" fill="#FFFFFF" width="0" height="1.973"/>
<rect x="552.376" y="655.092" opacity="0.3" fill="#FFFFFF" width="0" height="2.932"/>
<polygon opacity="0.3" fill="#FFFFFF" points="465.271,774.617 464.328,775.9 464.328,775.9 "/>
<rect x="436.664" y="812.343" opacity="0.3" fill="#FFFFFF" width="0" height="2.101"/>
<path opacity="0.9" fill="#FFFFFF" d="M652.774,967.26H333.449l240.412-327.573l0.557-0.396l29.304-39.717l-2.757-5.855h-14.519
	v-8.17h58.784l0.096,0.377c2.587,10.182,1.636,20.452,0.629,31.324c-0.522,5.646-1.063,11.482-1.063,17.309
	c0,1.58-0.022,3.232-0.068,5.035h6.281l0.003,0.497L652.774,967.26z M335.424,966.26h316.345l-1.657-325.666h-6.314l0.014-0.514
	c0.056-1.996,0.082-3.802,0.082-5.521c0-5.872,0.543-11.732,1.067-17.4c0.985-10.649,1.918-20.716-0.509-30.609h-57.005v6.17H601.6
	l3.28,6.969l-0.177,0.24l-29.576,40.086l-0.62,0.441L335.424,966.26z"/>
<rect x="-0.61" y="554.197" fill="none" width="640" height="411.422"/>
<g>
	<g>
		<defs>
			<polygon id="SVGID_1_" points="-2.273,640.094 569.104,640.094 329.39,966.76 -0.61,966.76 			"/>
		</defs>
		<clipPath id="SVGID_2_">
			<use xlink:href="#SVGID_1_"  overflow="visible"/>
		</clipPath>
		<g clip-path="url(#SVGID_2_)">
			<g>
				<path fill="none" stroke="#FFFFFF" stroke-miterlimit="10" d="M534.268,666.041c0-4.391,3.561-7.951,7.953-7.951h0.354
					c4.392,0,7.952,3.561,7.952,7.951 M518.008,666.041c0-4.391,3.561-7.951,7.953-7.951h0.354c4.393,0,7.953,3.561,7.953,7.951
					 M501.751,666.041c0-4.391,3.561-7.951,7.952-7.951h0.353c4.392,0,7.952,3.561,7.952,7.951 M485.492,666.041
					c0-4.391,3.56-7.951,7.952-7.951h0.354c4.393,0,7.953,3.561,7.953,7.951 M469.232,666.041c0-4.391,3.561-7.951,7.953-7.951
					h0.354c4.393,0,7.953,3.561,7.953,7.951 M452.974,666.041c0-4.391,3.56-7.951,7.952-7.951h0.354
					c4.393,0,7.953,3.561,7.953,7.951 M436.714,666.041c0-4.391,3.561-7.951,7.953-7.951h0.354c4.393,0,7.953,3.561,7.953,7.951
					 M420.457,666.041c0-4.391,3.561-7.951,7.952-7.951h0.353c4.392,0,7.952,3.561,7.952,7.951 M404.197,666.041
					c0-4.391,3.561-7.951,7.953-7.951h0.354c4.393,0,7.953,3.561,7.953,7.951 M387.938,666.041c0-4.391,3.561-7.951,7.952-7.951
					h0.354c4.392,0,7.952,3.561,7.952,7.951 M371.68,666.041c0-4.391,3.56-7.951,7.952-7.951h0.354c4.393,0,7.953,3.561,7.953,7.951
					 M355.42,666.041c0-4.391,3.561-7.951,7.953-7.951h0.354c4.393,0,7.953,3.561,7.953,7.951 M339.162,666.041
					c0-4.391,3.561-7.951,7.953-7.951h0.352c4.393,0,7.953,3.561,7.953,7.951 M322.903,666.041c0-4.391,3.561-7.951,7.952-7.951
					h0.354c4.392,0,7.952,3.561,7.952,7.951 M306.645,666.041c0-4.391,3.561-7.951,7.952-7.951h0.354
					c4.392,0,7.952,3.561,7.952,7.951 M290.385,666.041c0-4.391,3.561-7.951,7.953-7.951h0.354c4.393,0,7.953,3.561,7.953,7.951
					 M274.126,666.041c0-4.391,3.561-7.951,7.952-7.951h0.354c4.392,0,7.952,3.561,7.952,7.951 M257.867,666.041
					c0-4.391,3.56-7.951,7.952-7.951h0.354c4.393,0,7.953,3.561,7.953,7.951 M241.609,666.041c0-4.391,3.561-7.951,7.952-7.951
					h0.353c4.393,0,7.953,3.561,7.953,7.951 M225.35,666.041c0-4.391,3.561-7.951,7.953-7.951h0.354
					c4.393,0,7.953,3.561,7.953,7.951 M209.091,666.041c0-4.391,3.561-7.951,7.952-7.951h0.354c4.392,0,7.952,3.561,7.952,7.951
					 M192.832,666.041c0-4.391,3.561-7.951,7.952-7.951h0.354c4.392,0,7.952,3.561,7.952,7.951 M176.572,666.041
					c0-4.391,3.561-7.951,7.953-7.951h0.354c4.393,0,7.953,3.561,7.953,7.951 M160.314,666.041c0-4.391,3.561-7.951,7.953-7.951
					h0.353c4.392,0,7.952,3.561,7.952,7.951 M144.056,666.041c0-4.391,3.561-7.951,7.953-7.951h0.354
					c4.393,0,7.952,3.561,7.952,7.951 M127.797,666.041c0-4.391,3.561-7.951,7.953-7.951h0.354c4.392,0,7.952,3.561,7.952,7.951
					 M111.537,666.041c0-4.391,3.561-7.951,7.953-7.951h0.354c4.393,0,7.953,3.561,7.953,7.951 M95.278,666.041
					c0-4.391,3.561-7.951,7.952-7.951h0.354c4.392,0,7.952,3.561,7.952,7.951 M79.021,666.041c0-4.391,3.56-7.951,7.952-7.951h0.353
					c4.392,0,7.952,3.561,7.952,7.951 M62.762,666.041c0-4.391,3.561-7.951,7.953-7.951h0.354c4.393,0,7.953,3.561,7.953,7.951
					 M46.503,666.041c0-4.391,3.56-7.951,7.952-7.951h0.354c4.393,0,7.953,3.561,7.953,7.951 M30.243,666.041
					c0-4.391,3.561-7.951,7.953-7.951h0.354c4.393,0,7.953,3.561,7.953,7.951 M13.984,666.041c0-4.391,3.561-7.951,7.953-7.951
					h0.354c4.393,0,7.952,3.561,7.952,7.951 M-2.273,666.041c0-4.391,3.561-7.951,7.953-7.951h0.352
					c4.393,0,7.953,3.561,7.953,7.951"/>
			</g>
			<g>
				<g>
					<path fill="none" stroke="#FFFFFF" stroke-miterlimit="10" d="M534.268,682.783c0-4.393,3.561-7.953,7.953-7.953h0.354
						c4.392,0,7.952,3.561,7.952,7.953 M518.008,682.783c0-4.393,3.561-7.953,7.953-7.953h0.354c4.393,0,7.953,3.561,7.953,7.953
						 M501.751,682.783c0-4.393,3.561-7.953,7.952-7.953h0.353c4.392,0,7.952,3.561,7.952,7.953 M485.492,682.783
						c0-4.393,3.56-7.953,7.952-7.953h0.354c4.393,0,7.953,3.561,7.953,7.953 M469.232,682.783c0-4.393,3.561-7.953,7.953-7.953
						h0.354c4.393,0,7.953,3.561,7.953,7.953 M452.974,682.783c0-4.393,3.56-7.953,7.952-7.953h0.354
						c4.393,0,7.953,3.561,7.953,7.953 M436.714,682.783c0-4.393,3.561-7.953,7.953-7.953h0.354c4.393,0,7.953,3.561,7.953,7.953
						 M420.457,682.783c0-4.393,3.561-7.953,7.952-7.953h0.353c4.392,0,7.952,3.561,7.952,7.953 M404.197,682.783
						c0-4.393,3.561-7.953,7.953-7.953h0.354c4.393,0,7.953,3.561,7.953,7.953 M387.938,682.783c0-4.393,3.561-7.953,7.952-7.953
						h0.354c4.392,0,7.952,3.561,7.952,7.953 M371.68,682.783c0-4.393,3.56-7.953,7.952-7.953h0.354
						c4.393,0,7.953,3.561,7.953,7.953 M355.42,682.783c0-4.393,3.561-7.953,7.953-7.953h0.354c4.393,0,7.953,3.561,7.953,7.953
						 M339.162,682.783c0-4.393,3.561-7.953,7.953-7.953h0.352c4.393,0,7.953,3.561,7.953,7.953 M322.903,682.783
						c0-4.393,3.561-7.953,7.952-7.953h0.354c4.392,0,7.952,3.561,7.952,7.953 M306.645,682.783c0-4.393,3.561-7.953,7.952-7.953
						h0.354c4.392,0,7.952,3.561,7.952,7.953 M290.385,682.783c0-4.393,3.561-7.953,7.953-7.953h0.354
						c4.393,0,7.953,3.561,7.953,7.953 M274.126,682.783c0-4.393,3.561-7.953,7.952-7.953h0.354c4.392,0,7.952,3.561,7.952,7.953
						 M257.867,682.783c0-4.393,3.56-7.953,7.952-7.953h0.354c4.393,0,7.953,3.561,7.953,7.953 M241.609,682.783
						c0-4.393,3.561-7.953,7.952-7.953h0.353c4.393,0,7.953,3.561,7.953,7.953 M225.35,682.783c0-4.393,3.561-7.953,7.953-7.953
						h0.354c4.393,0,7.953,3.561,7.953,7.953 M209.091,682.783c0-4.393,3.561-7.953,7.952-7.953h0.354
						c4.392,0,7.952,3.561,7.952,7.953 M192.832,682.783c0-4.393,3.561-7.953,7.952-7.953h0.354c4.392,0,7.952,3.561,7.952,7.953
						 M176.572,682.783c0-4.393,3.561-7.953,7.953-7.953h0.354c4.393,0,7.953,3.561,7.953,7.953 M160.314,682.783
						c0-4.393,3.561-7.953,7.953-7.953h0.353c4.392,0,7.952,3.561,7.952,7.953 M144.056,682.783c0-4.393,3.561-7.953,7.953-7.953
						h0.354c4.393,0,7.952,3.561,7.952,7.953 M127.797,682.783c0-4.393,3.561-7.953,7.953-7.953h0.354
						c4.392,0,7.952,3.561,7.952,7.953 M111.537,682.783c0-4.393,3.561-7.953,7.953-7.953h0.354c4.393,0,7.953,3.561,7.953,7.953
						 M95.278,682.783c0-4.393,3.561-7.953,7.952-7.953h0.354c4.392,0,7.952,3.561,7.952,7.953 M79.021,682.783
						c0-4.393,3.56-7.953,7.952-7.953h0.353c4.392,0,7.952,3.561,7.952,7.953 M62.762,682.783c0-4.393,3.561-7.953,7.953-7.953
						h0.354c4.393,0,7.953,3.561,7.953,7.953 M46.503,682.783c0-4.393,3.56-7.953,7.952-7.953h0.354
						c4.393,0,7.953,3.561,7.953,7.953 M30.243,682.783c0-4.393,3.561-7.953,7.953-7.953h0.354c4.393,0,7.953,3.561,7.953,7.953
						 M13.984,682.783c0-4.393,3.561-7.953,7.953-7.953h0.354c4.393,0,7.952,3.561,7.952,7.953 M-2.273,682.783
						c0-4.393,3.561-7.953,7.953-7.953h0.352c4.393,0,7.953,3.561,7.953,7.953"/>
				</g>
			</g>
			<g>
				<path fill="none" stroke="#FFFFFF" stroke-miterlimit="10" d="M534.268,699.523c0-4.391,3.561-7.951,7.953-7.951h0.354
					c4.392,0,7.952,3.561,7.952,7.951 M518.008,699.523c0-4.391,3.561-7.951,7.953-7.951h0.354c4.393,0,7.953,3.561,7.953,7.951
					 M501.751,699.523c0-4.391,3.561-7.951,7.952-7.951h0.353c4.392,0,7.952,3.561,7.952,7.951 M485.492,699.523
					c0-4.391,3.56-7.951,7.952-7.951h0.354c4.393,0,7.953,3.561,7.953,7.951 M469.232,699.523c0-4.391,3.561-7.951,7.953-7.951
					h0.354c4.393,0,7.953,3.561,7.953,7.951 M452.974,699.523c0-4.391,3.56-7.951,7.952-7.951h0.354
					c4.393,0,7.953,3.561,7.953,7.951 M436.714,699.523c0-4.391,3.561-7.951,7.953-7.951h0.354c4.393,0,7.953,3.561,7.953,7.951
					 M420.457,699.523c0-4.391,3.561-7.951,7.952-7.951h0.353c4.392,0,7.952,3.561,7.952,7.951 M404.197,699.523
					c0-4.391,3.561-7.951,7.953-7.951h0.354c4.393,0,7.953,3.561,7.953,7.951 M387.938,699.523c0-4.391,3.561-7.951,7.952-7.951
					h0.354c4.392,0,7.952,3.561,7.952,7.951 M371.68,699.523c0-4.391,3.56-7.951,7.952-7.951h0.354c4.393,0,7.953,3.561,7.953,7.951
					 M355.42,699.523c0-4.391,3.561-7.951,7.953-7.951h0.354c4.393,0,7.953,3.561,7.953,7.951 M339.162,699.523
					c0-4.391,3.561-7.951,7.953-7.951h0.352c4.393,0,7.953,3.561,7.953,7.951 M322.903,699.523c0-4.391,3.561-7.951,7.952-7.951
					h0.354c4.392,0,7.952,3.561,7.952,7.951 M306.645,699.523c0-4.391,3.561-7.951,7.952-7.951h0.354
					c4.392,0,7.952,3.561,7.952,7.951 M290.385,699.523c0-4.391,3.561-7.951,7.953-7.951h0.354c4.393,0,7.953,3.561,7.953,7.951
					 M274.126,699.523c0-4.391,3.561-7.951,7.952-7.951h0.354c4.392,0,7.952,3.561,7.952,7.951 M257.867,699.523
					c0-4.391,3.56-7.951,7.952-7.951h0.354c4.393,0,7.953,3.561,7.953,7.951 M241.609,699.523c0-4.391,3.561-7.951,7.952-7.951
					h0.353c4.393,0,7.953,3.561,7.953,7.951 M225.35,699.523c0-4.391,3.561-7.951,7.953-7.951h0.354
					c4.393,0,7.953,3.561,7.953,7.951 M209.091,699.523c0-4.391,3.561-7.951,7.952-7.951h0.354c4.392,0,7.952,3.561,7.952,7.951
					 M192.832,699.523c0-4.391,3.561-7.951,7.952-7.951h0.354c4.392,0,7.952,3.561,7.952,7.951 M176.572,699.523
					c0-4.391,3.561-7.951,7.953-7.951h0.354c4.393,0,7.953,3.561,7.953,7.951 M160.314,699.523c0-4.391,3.561-7.951,7.953-7.951
					h0.353c4.392,0,7.952,3.561,7.952,7.951 M144.056,699.523c0-4.391,3.561-7.951,7.953-7.951h0.354
					c4.393,0,7.952,3.561,7.952,7.951 M127.797,699.523c0-4.391,3.561-7.951,7.953-7.951h0.354c4.392,0,7.952,3.561,7.952,7.951
					 M111.537,699.523c0-4.391,3.561-7.951,7.953-7.951h0.354c4.393,0,7.953,3.561,7.953,7.951 M95.278,699.523
					c0-4.391,3.561-7.951,7.952-7.951h0.354c4.392,0,7.952,3.561,7.952,7.951 M79.021,699.523c0-4.391,3.56-7.951,7.952-7.951h0.353
					c4.392,0,7.952,3.561,7.952,7.951 M62.762,699.523c0-4.391,3.561-7.951,7.953-7.951h0.354c4.393,0,7.953,3.561,7.953,7.951
					 M46.503,699.523c0-4.391,3.56-7.951,7.952-7.951h0.354c4.393,0,7.953,3.561,7.953,7.951 M30.243,699.523
					c0-4.391,3.561-7.951,7.953-7.951h0.354c4.393,0,7.953,3.561,7.953,7.951 M13.984,699.523c0-4.391,3.561-7.951,7.953-7.951
					h0.354c4.393,0,7.952,3.561,7.952,7.951 M-2.273,699.523c0-4.391,3.561-7.951,7.953-7.951h0.352
					c4.393,0,7.953,3.561,7.953,7.951"/>
			</g>
			<g>
				<path fill="none" stroke="#FFFFFF" stroke-miterlimit="10" d="M534.268,716.266c0-4.393,3.561-7.953,7.953-7.953h0.354
					c4.392,0,7.952,3.561,7.952,7.953 M518.008,716.266c0-4.393,3.561-7.953,7.953-7.953h0.354c4.393,0,7.953,3.561,7.953,7.953
					 M501.751,716.266c0-4.393,3.561-7.953,7.952-7.953h0.353c4.392,0,7.952,3.561,7.952,7.953 M485.492,716.266
					c0-4.393,3.56-7.953,7.952-7.953h0.354c4.393,0,7.953,3.561,7.953,7.953 M469.232,716.266c0-4.393,3.561-7.953,7.953-7.953
					h0.354c4.393,0,7.953,3.561,7.953,7.953 M452.974,716.266c0-4.393,3.56-7.953,7.952-7.953h0.354
					c4.393,0,7.953,3.561,7.953,7.953 M436.714,716.266c0-4.393,3.561-7.953,7.953-7.953h0.354c4.393,0,7.953,3.561,7.953,7.953
					 M420.457,716.266c0-4.393,3.561-7.953,7.952-7.953h0.353c4.392,0,7.952,3.561,7.952,7.953 M404.197,716.266
					c0-4.393,3.561-7.953,7.953-7.953h0.354c4.393,0,7.953,3.561,7.953,7.953 M387.938,716.266c0-4.393,3.561-7.953,7.952-7.953
					h0.354c4.392,0,7.952,3.561,7.952,7.953 M371.68,716.266c0-4.393,3.56-7.953,7.952-7.953h0.354c4.393,0,7.953,3.561,7.953,7.953
					 M355.42,716.266c0-4.393,3.561-7.953,7.953-7.953h0.354c4.393,0,7.953,3.561,7.953,7.953 M339.162,716.266
					c0-4.393,3.561-7.953,7.953-7.953h0.352c4.393,0,7.953,3.561,7.953,7.953 M322.903,716.266c0-4.393,3.561-7.953,7.952-7.953
					h0.354c4.392,0,7.952,3.561,7.952,7.953 M306.645,716.266c0-4.393,3.561-7.953,7.952-7.953h0.354
					c4.392,0,7.952,3.561,7.952,7.953 M290.385,716.266c0-4.393,3.561-7.953,7.953-7.953h0.354c4.393,0,7.953,3.561,7.953,7.953
					 M274.126,716.266c0-4.393,3.561-7.953,7.952-7.953h0.354c4.392,0,7.952,3.561,7.952,7.953 M257.867,716.266
					c0-4.393,3.56-7.953,7.952-7.953h0.354c4.393,0,7.953,3.561,7.953,7.953 M241.609,716.266c0-4.393,3.561-7.953,7.952-7.953
					h0.353c4.393,0,7.953,3.561,7.953,7.953 M225.35,716.266c0-4.393,3.561-7.953,7.953-7.953h0.354
					c4.393,0,7.953,3.561,7.953,7.953 M209.091,716.266c0-4.393,3.561-7.953,7.952-7.953h0.354c4.392,0,7.952,3.561,7.952,7.953
					 M192.832,716.266c0-4.393,3.561-7.953,7.952-7.953h0.354c4.392,0,7.952,3.561,7.952,7.953 M176.572,716.266
					c0-4.393,3.561-7.953,7.953-7.953h0.354c4.393,0,7.953,3.561,7.953,7.953 M160.314,716.266c0-4.393,3.561-7.953,7.953-7.953
					h0.353c4.392,0,7.952,3.561,7.952,7.953 M144.056,716.266c0-4.393,3.561-7.953,7.953-7.953h0.354
					c4.393,0,7.952,3.561,7.952,7.953 M127.797,716.266c0-4.393,3.561-7.953,7.953-7.953h0.354c4.392,0,7.952,3.561,7.952,7.953
					 M111.537,716.266c0-4.393,3.561-7.953,7.953-7.953h0.354c4.393,0,7.953,3.561,7.953,7.953 M95.278,716.266
					c0-4.393,3.561-7.953,7.952-7.953h0.354c4.392,0,7.952,3.561,7.952,7.953 M79.021,716.266c0-4.393,3.56-7.953,7.952-7.953h0.353
					c4.392,0,7.952,3.561,7.952,7.953 M62.762,716.266c0-4.393,3.561-7.953,7.953-7.953h0.354c4.393,0,7.953,3.561,7.953,7.953
					 M46.503,716.266c0-4.393,3.56-7.953,7.952-7.953h0.354c4.393,0,7.953,3.561,7.953,7.953 M30.243,716.266
					c0-4.393,3.561-7.953,7.953-7.953h0.354c4.393,0,7.953,3.561,7.953,7.953 M13.984,716.266c0-4.393,3.561-7.953,7.953-7.953
					h0.354c4.393,0,7.952,3.561,7.952,7.953 M-2.273,716.266c0-4.393,3.561-7.953,7.953-7.953h0.352
					c4.393,0,7.953,3.561,7.953,7.953"/>
			</g>
			<g>
				<path fill="none" stroke="#FFFFFF" stroke-miterlimit="10" d="M534.268,733.006c0-4.391,3.561-7.951,7.953-7.951h0.354
					c4.392,0,7.952,3.561,7.952,7.951 M518.008,733.006c0-4.391,3.561-7.951,7.953-7.951h0.354c4.393,0,7.953,3.561,7.953,7.951
					 M501.751,733.006c0-4.391,3.561-7.951,7.952-7.951h0.353c4.392,0,7.952,3.561,7.952,7.951 M485.492,733.006
					c0-4.391,3.56-7.951,7.952-7.951h0.354c4.393,0,7.953,3.561,7.953,7.951 M469.232,733.006c0-4.391,3.561-7.951,7.953-7.951
					h0.354c4.393,0,7.953,3.561,7.953,7.951 M452.974,733.006c0-4.391,3.56-7.951,7.952-7.951h0.354
					c4.393,0,7.953,3.561,7.953,7.951 M436.714,733.006c0-4.391,3.561-7.951,7.953-7.951h0.354c4.393,0,7.953,3.561,7.953,7.951
					 M420.457,733.006c0-4.391,3.561-7.951,7.952-7.951h0.353c4.392,0,7.952,3.561,7.952,7.951 M404.197,733.006
					c0-4.391,3.561-7.951,7.953-7.951h0.354c4.393,0,7.953,3.561,7.953,7.951 M387.938,733.006c0-4.391,3.561-7.951,7.952-7.951
					h0.354c4.392,0,7.952,3.561,7.952,7.951 M371.68,733.006c0-4.391,3.56-7.951,7.952-7.951h0.354c4.393,0,7.953,3.561,7.953,7.951
					 M355.42,733.006c0-4.391,3.561-7.951,7.953-7.951h0.354c4.393,0,7.953,3.561,7.953,7.951 M339.162,733.006
					c0-4.391,3.561-7.951,7.953-7.951h0.352c4.393,0,7.953,3.561,7.953,7.951 M322.903,733.006c0-4.391,3.561-7.951,7.952-7.951
					h0.354c4.392,0,7.952,3.561,7.952,7.951 M306.645,733.006c0-4.391,3.561-7.951,7.952-7.951h0.354
					c4.392,0,7.952,3.561,7.952,7.951 M290.385,733.006c0-4.391,3.561-7.951,7.953-7.951h0.354c4.393,0,7.953,3.561,7.953,7.951
					 M274.126,733.006c0-4.391,3.561-7.951,7.952-7.951h0.354c4.392,0,7.952,3.561,7.952,7.951 M257.867,733.006
					c0-4.391,3.56-7.951,7.952-7.951h0.354c4.393,0,7.953,3.561,7.953,7.951 M241.609,733.006c0-4.391,3.561-7.951,7.952-7.951
					h0.353c4.393,0,7.953,3.561,7.953,7.951 M225.35,733.006c0-4.391,3.561-7.951,7.953-7.951h0.354
					c4.393,0,7.953,3.561,7.953,7.951 M209.091,733.006c0-4.391,3.561-7.951,7.952-7.951h0.354c4.392,0,7.952,3.561,7.952,7.951
					 M192.832,733.006c0-4.391,3.561-7.951,7.952-7.951h0.354c4.392,0,7.952,3.561,7.952,7.951 M176.572,733.006
					c0-4.391,3.561-7.951,7.953-7.951h0.354c4.393,0,7.953,3.561,7.953,7.951 M160.314,733.006c0-4.391,3.561-7.951,7.953-7.951
					h0.353c4.392,0,7.952,3.561,7.952,7.951 M144.056,733.006c0-4.391,3.561-7.951,7.953-7.951h0.354
					c4.393,0,7.952,3.561,7.952,7.951 M127.797,733.006c0-4.391,3.561-7.951,7.953-7.951h0.354c4.392,0,7.952,3.561,7.952,7.951
					 M111.537,733.006c0-4.391,3.561-7.951,7.953-7.951h0.354c4.393,0,7.953,3.561,7.953,7.951 M95.278,733.006
					c0-4.391,3.561-7.951,7.952-7.951h0.354c4.392,0,7.952,3.561,7.952,7.951 M79.021,733.006c0-4.391,3.56-7.951,7.952-7.951h0.353
					c4.392,0,7.952,3.561,7.952,7.951 M62.762,733.006c0-4.391,3.561-7.951,7.953-7.951h0.354c4.393,0,7.953,3.561,7.953,7.951
					 M46.503,733.006c0-4.391,3.56-7.951,7.952-7.951h0.354c4.393,0,7.953,3.561,7.953,7.951 M30.243,733.006
					c0-4.391,3.561-7.951,7.953-7.951h0.354c4.393,0,7.953,3.561,7.953,7.951 M13.984,733.006c0-4.391,3.561-7.951,7.953-7.951
					h0.354c4.393,0,7.952,3.561,7.952,7.951 M-2.273,733.006c0-4.391,3.561-7.951,7.953-7.951h0.352
					c4.393,0,7.953,3.561,7.953,7.951"/>
			</g>
			<g>
				<path fill="none" stroke="#FFFFFF" stroke-miterlimit="10" d="M534.268,749.748c0-4.393,3.561-7.953,7.953-7.953h0.354
					c4.392,0,7.952,3.561,7.952,7.953 M518.008,749.748c0-4.393,3.561-7.953,7.953-7.953h0.354c4.393,0,7.953,3.561,7.953,7.953
					 M501.751,749.748c0-4.393,3.561-7.953,7.952-7.953h0.353c4.392,0,7.952,3.561,7.952,7.953 M485.492,749.748
					c0-4.393,3.56-7.953,7.952-7.953h0.354c4.393,0,7.953,3.561,7.953,7.953 M469.232,749.748c0-4.393,3.561-7.953,7.953-7.953
					h0.354c4.393,0,7.953,3.561,7.953,7.953 M452.974,749.748c0-4.393,3.56-7.953,7.952-7.953h0.354
					c4.393,0,7.953,3.561,7.953,7.953 M436.714,749.748c0-4.393,3.561-7.953,7.953-7.953h0.354c4.393,0,7.953,3.561,7.953,7.953
					 M420.457,749.748c0-4.393,3.561-7.953,7.952-7.953h0.353c4.392,0,7.952,3.561,7.952,7.953 M404.197,749.748
					c0-4.393,3.561-7.953,7.953-7.953h0.354c4.393,0,7.953,3.561,7.953,7.953 M387.938,749.748c0-4.393,3.561-7.953,7.952-7.953
					h0.354c4.392,0,7.952,3.561,7.952,7.953 M371.68,749.748c0-4.393,3.56-7.953,7.952-7.953h0.354c4.393,0,7.953,3.561,7.953,7.953
					 M355.42,749.748c0-4.393,3.561-7.953,7.953-7.953h0.354c4.393,0,7.953,3.561,7.953,7.953 M339.162,749.748
					c0-4.393,3.561-7.953,7.953-7.953h0.352c4.393,0,7.953,3.561,7.953,7.953 M322.903,749.748c0-4.393,3.561-7.953,7.952-7.953
					h0.354c4.392,0,7.952,3.561,7.952,7.953 M306.645,749.748c0-4.393,3.561-7.953,7.952-7.953h0.354
					c4.392,0,7.952,3.561,7.952,7.953 M290.385,749.748c0-4.393,3.561-7.953,7.953-7.953h0.354c4.393,0,7.953,3.561,7.953,7.953
					 M274.126,749.748c0-4.393,3.561-7.953,7.952-7.953h0.354c4.392,0,7.952,3.561,7.952,7.953 M257.867,749.748
					c0-4.393,3.56-7.953,7.952-7.953h0.354c4.393,0,7.953,3.561,7.953,7.953 M241.609,749.748c0-4.393,3.561-7.953,7.952-7.953
					h0.353c4.393,0,7.953,3.561,7.953,7.953 M225.35,749.748c0-4.393,3.561-7.953,7.953-7.953h0.354
					c4.393,0,7.953,3.561,7.953,7.953 M209.091,749.748c0-4.393,3.561-7.953,7.952-7.953h0.354c4.392,0,7.952,3.561,7.952,7.953
					 M192.832,749.748c0-4.393,3.561-7.953,7.952-7.953h0.354c4.392,0,7.952,3.561,7.952,7.953 M176.572,749.748
					c0-4.393,3.561-7.953,7.953-7.953h0.354c4.393,0,7.953,3.561,7.953,7.953 M160.314,749.748c0-4.393,3.561-7.953,7.953-7.953
					h0.353c4.392,0,7.952,3.561,7.952,7.953 M144.056,749.748c0-4.393,3.561-7.953,7.953-7.953h0.354
					c4.393,0,7.952,3.561,7.952,7.953 M127.797,749.748c0-4.393,3.561-7.953,7.953-7.953h0.354c4.392,0,7.952,3.561,7.952,7.953
					 M111.537,749.748c0-4.393,3.561-7.953,7.953-7.953h0.354c4.393,0,7.953,3.561,7.953,7.953 M95.278,749.748
					c0-4.393,3.561-7.953,7.952-7.953h0.354c4.392,0,7.952,3.561,7.952,7.953 M79.021,749.748c0-4.393,3.56-7.953,7.952-7.953h0.353
					c4.392,0,7.952,3.561,7.952,7.953 M62.762,749.748c0-4.393,3.561-7.953,7.953-7.953h0.354c4.393,0,7.953,3.561,7.953,7.953
					 M46.503,749.748c0-4.393,3.56-7.953,7.952-7.953h0.354c4.393,0,7.953,3.561,7.953,7.953 M30.243,749.748
					c0-4.393,3.561-7.953,7.953-7.953h0.354c4.393,0,7.953,3.561,7.953,7.953 M13.984,749.748c0-4.393,3.561-7.953,7.953-7.953
					h0.354c4.393,0,7.952,3.561,7.952,7.953 M-2.273,749.748c0-4.393,3.561-7.953,7.953-7.953h0.352
					c4.393,0,7.953,3.561,7.953,7.953"/>
			</g>
			<g>
				<path fill="none" stroke="#FFFFFF" stroke-miterlimit="10" d="M534.268,766.488c0-4.391,3.561-7.951,7.953-7.951h0.354
					c4.392,0,7.952,3.561,7.952,7.951 M518.008,766.488c0-4.391,3.561-7.951,7.953-7.951h0.354c4.393,0,7.953,3.561,7.953,7.951
					 M501.751,766.488c0-4.391,3.561-7.951,7.952-7.951h0.353c4.392,0,7.952,3.561,7.952,7.951 M485.492,766.488
					c0-4.391,3.56-7.951,7.952-7.951h0.354c4.393,0,7.953,3.561,7.953,7.951 M469.232,766.488c0-4.391,3.561-7.951,7.953-7.951
					h0.354c4.393,0,7.953,3.561,7.953,7.951 M452.974,766.488c0-4.391,3.56-7.951,7.952-7.951h0.354
					c4.393,0,7.953,3.561,7.953,7.951 M436.714,766.488c0-4.391,3.561-7.951,7.953-7.951h0.354c4.393,0,7.953,3.561,7.953,7.951
					 M420.457,766.488c0-4.391,3.561-7.951,7.952-7.951h0.353c4.392,0,7.952,3.561,7.952,7.951 M404.197,766.488
					c0-4.391,3.561-7.951,7.953-7.951h0.354c4.393,0,7.953,3.561,7.953,7.951 M387.938,766.488c0-4.391,3.561-7.951,7.952-7.951
					h0.354c4.392,0,7.952,3.561,7.952,7.951 M371.68,766.488c0-4.391,3.56-7.951,7.952-7.951h0.354c4.393,0,7.953,3.561,7.953,7.951
					 M355.42,766.488c0-4.391,3.561-7.951,7.953-7.951h0.354c4.393,0,7.953,3.561,7.953,7.951 M339.162,766.488
					c0-4.391,3.561-7.951,7.953-7.951h0.352c4.393,0,7.953,3.561,7.953,7.951 M322.903,766.488c0-4.391,3.561-7.951,7.952-7.951
					h0.354c4.392,0,7.952,3.561,7.952,7.951 M306.645,766.488c0-4.391,3.561-7.951,7.952-7.951h0.354
					c4.392,0,7.952,3.561,7.952,7.951 M290.385,766.488c0-4.391,3.561-7.951,7.953-7.951h0.354c4.393,0,7.953,3.561,7.953,7.951
					 M274.126,766.488c0-4.391,3.561-7.951,7.952-7.951h0.354c4.392,0,7.952,3.561,7.952,7.951 M257.867,766.488
					c0-4.391,3.56-7.951,7.952-7.951h0.354c4.393,0,7.953,3.561,7.953,7.951 M241.609,766.488c0-4.391,3.561-7.951,7.952-7.951
					h0.353c4.393,0,7.953,3.561,7.953,7.951 M225.35,766.488c0-4.391,3.561-7.951,7.953-7.951h0.354
					c4.393,0,7.953,3.561,7.953,7.951 M209.091,766.488c0-4.391,3.561-7.951,7.952-7.951h0.354c4.392,0,7.952,3.561,7.952,7.951
					 M192.832,766.488c0-4.391,3.561-7.951,7.952-7.951h0.354c4.392,0,7.952,3.561,7.952,7.951 M176.572,766.488
					c0-4.391,3.561-7.951,7.953-7.951h0.354c4.393,0,7.953,3.561,7.953,7.951 M160.314,766.488c0-4.391,3.561-7.951,7.953-7.951
					h0.353c4.392,0,7.952,3.561,7.952,7.951 M144.056,766.488c0-4.391,3.561-7.951,7.953-7.951h0.354
					c4.393,0,7.952,3.561,7.952,7.951 M127.797,766.488c0-4.391,3.561-7.951,7.953-7.951h0.354c4.392,0,7.952,3.561,7.952,7.951
					 M111.537,766.488c0-4.391,3.561-7.951,7.953-7.951h0.354c4.393,0,7.953,3.561,7.953,7.951 M95.278,766.488
					c0-4.391,3.561-7.951,7.952-7.951h0.354c4.392,0,7.952,3.561,7.952,7.951 M79.021,766.488c0-4.391,3.56-7.951,7.952-7.951h0.353
					c4.392,0,7.952,3.561,7.952,7.951 M62.762,766.488c0-4.391,3.561-7.951,7.953-7.951h0.354c4.393,0,7.953,3.561,7.953,7.951
					 M46.503,766.488c0-4.391,3.56-7.951,7.952-7.951h0.354c4.393,0,7.953,3.561,7.953,7.951 M30.243,766.488
					c0-4.391,3.561-7.951,7.953-7.951h0.354c4.393,0,7.953,3.561,7.953,7.951 M13.984,766.488c0-4.391,3.561-7.951,7.953-7.951
					h0.354c4.393,0,7.952,3.561,7.952,7.951 M-2.273,766.488c0-4.391,3.561-7.951,7.953-7.951h0.352
					c4.393,0,7.953,3.561,7.953,7.951"/>
			</g>
			<g>
				<path fill="none" stroke="#FFFFFF" stroke-miterlimit="10" d="M534.268,783.23c0-4.393,3.561-7.953,7.953-7.953h0.354
					c4.392,0,7.952,3.561,7.952,7.953 M518.008,783.23c0-4.393,3.561-7.953,7.953-7.953h0.354c4.393,0,7.953,3.561,7.953,7.953
					 M501.751,783.23c0-4.393,3.561-7.953,7.952-7.953h0.353c4.392,0,7.952,3.561,7.952,7.953 M485.492,783.23
					c0-4.393,3.56-7.953,7.952-7.953h0.354c4.393,0,7.953,3.561,7.953,7.953 M469.232,783.23c0-4.393,3.561-7.953,7.953-7.953h0.354
					c4.393,0,7.953,3.561,7.953,7.953 M452.974,783.23c0-4.393,3.56-7.953,7.952-7.953h0.354c4.393,0,7.953,3.561,7.953,7.953
					 M436.714,783.23c0-4.393,3.561-7.953,7.953-7.953h0.354c4.393,0,7.953,3.561,7.953,7.953 M420.457,783.23
					c0-4.393,3.561-7.953,7.952-7.953h0.353c4.392,0,7.952,3.561,7.952,7.953 M404.197,783.23c0-4.393,3.561-7.953,7.953-7.953
					h0.354c4.393,0,7.953,3.561,7.953,7.953 M387.938,783.23c0-4.393,3.561-7.953,7.952-7.953h0.354
					c4.392,0,7.952,3.561,7.952,7.953 M371.68,783.23c0-4.393,3.56-7.953,7.952-7.953h0.354c4.393,0,7.953,3.561,7.953,7.953
					 M355.42,783.23c0-4.393,3.561-7.953,7.953-7.953h0.354c4.393,0,7.953,3.561,7.953,7.953 M339.162,783.23
					c0-4.393,3.561-7.953,7.953-7.953h0.352c4.393,0,7.953,3.561,7.953,7.953 M322.903,783.23c0-4.393,3.561-7.953,7.952-7.953
					h0.354c4.392,0,7.952,3.561,7.952,7.953 M306.645,783.23c0-4.393,3.561-7.953,7.952-7.953h0.354
					c4.392,0,7.952,3.561,7.952,7.953 M290.385,783.23c0-4.393,3.561-7.953,7.953-7.953h0.354c4.393,0,7.953,3.561,7.953,7.953
					 M274.126,783.23c0-4.393,3.561-7.953,7.952-7.953h0.354c4.392,0,7.952,3.561,7.952,7.953 M257.867,783.23
					c0-4.393,3.56-7.953,7.952-7.953h0.354c4.393,0,7.953,3.561,7.953,7.953 M241.609,783.23c0-4.393,3.561-7.953,7.952-7.953h0.353
					c4.393,0,7.953,3.561,7.953,7.953 M225.35,783.23c0-4.393,3.561-7.953,7.953-7.953h0.354c4.393,0,7.953,3.561,7.953,7.953
					 M209.091,783.23c0-4.393,3.561-7.953,7.952-7.953h0.354c4.392,0,7.952,3.561,7.952,7.953 M192.832,783.23
					c0-4.393,3.561-7.953,7.952-7.953h0.354c4.392,0,7.952,3.561,7.952,7.953 M176.572,783.23c0-4.393,3.561-7.953,7.953-7.953
					h0.354c4.393,0,7.953,3.561,7.953,7.953 M160.314,783.23c0-4.393,3.561-7.953,7.953-7.953h0.353
					c4.392,0,7.952,3.561,7.952,7.953 M144.056,783.23c0-4.393,3.561-7.953,7.953-7.953h0.354c4.393,0,7.952,3.561,7.952,7.953
					 M127.797,783.23c0-4.393,3.561-7.953,7.953-7.953h0.354c4.392,0,7.952,3.561,7.952,7.953 M111.537,783.23
					c0-4.393,3.561-7.953,7.953-7.953h0.354c4.393,0,7.953,3.561,7.953,7.953 M95.278,783.23c0-4.393,3.561-7.953,7.952-7.953h0.354
					c4.392,0,7.952,3.561,7.952,7.953 M79.021,783.23c0-4.393,3.56-7.953,7.952-7.953h0.353c4.392,0,7.952,3.561,7.952,7.953
					 M62.762,783.23c0-4.393,3.561-7.953,7.953-7.953h0.354c4.393,0,7.953,3.561,7.953,7.953 M46.503,783.23
					c0-4.393,3.56-7.953,7.952-7.953h0.354c4.393,0,7.953,3.561,7.953,7.953 M30.243,783.23c0-4.393,3.561-7.953,7.953-7.953h0.354
					c4.393,0,7.953,3.561,7.953,7.953 M13.984,783.23c0-4.393,3.561-7.953,7.953-7.953h0.354c4.393,0,7.952,3.561,7.952,7.953
					 M-2.273,783.23c0-4.393,3.561-7.953,7.953-7.953h0.352c4.393,0,7.953,3.561,7.953,7.953"/>
			</g>
			<g>
				<path fill="none" stroke="#FFFFFF" stroke-miterlimit="10" d="M534.268,799.971c0-4.391,3.561-7.951,7.953-7.951h0.354
					c4.392,0,7.952,3.561,7.952,7.951 M518.008,799.971c0-4.391,3.561-7.951,7.953-7.951h0.354c4.393,0,7.953,3.561,7.953,7.951
					 M501.751,799.971c0-4.391,3.561-7.951,7.952-7.951h0.353c4.392,0,7.952,3.561,7.952,7.951 M485.492,799.971
					c0-4.391,3.56-7.951,7.952-7.951h0.354c4.393,0,7.953,3.561,7.953,7.951 M469.232,799.971c0-4.391,3.561-7.951,7.953-7.951
					h0.354c4.393,0,7.953,3.561,7.953,7.951 M452.974,799.971c0-4.391,3.56-7.951,7.952-7.951h0.354
					c4.393,0,7.953,3.561,7.953,7.951 M436.714,799.971c0-4.391,3.561-7.951,7.953-7.951h0.354c4.393,0,7.953,3.561,7.953,7.951
					 M420.457,799.971c0-4.391,3.561-7.951,7.952-7.951h0.353c4.392,0,7.952,3.561,7.952,7.951 M404.197,799.971
					c0-4.391,3.561-7.951,7.953-7.951h0.354c4.393,0,7.953,3.561,7.953,7.951 M387.938,799.971c0-4.391,3.561-7.951,7.952-7.951
					h0.354c4.392,0,7.952,3.561,7.952,7.951 M371.68,799.971c0-4.391,3.56-7.951,7.952-7.951h0.354c4.393,0,7.953,3.561,7.953,7.951
					 M355.42,799.971c0-4.391,3.561-7.951,7.953-7.951h0.354c4.393,0,7.953,3.561,7.953,7.951 M339.162,799.971
					c0-4.391,3.561-7.951,7.953-7.951h0.352c4.393,0,7.953,3.561,7.953,7.951 M322.903,799.971c0-4.391,3.561-7.951,7.952-7.951
					h0.354c4.392,0,7.952,3.561,7.952,7.951 M306.645,799.971c0-4.391,3.561-7.951,7.952-7.951h0.354
					c4.392,0,7.952,3.561,7.952,7.951 M290.385,799.971c0-4.391,3.561-7.951,7.953-7.951h0.354c4.393,0,7.953,3.561,7.953,7.951
					 M274.126,799.971c0-4.391,3.561-7.951,7.952-7.951h0.354c4.392,0,7.952,3.561,7.952,7.951 M257.867,799.971
					c0-4.391,3.56-7.951,7.952-7.951h0.354c4.393,0,7.953,3.561,7.953,7.951 M241.609,799.971c0-4.391,3.561-7.951,7.952-7.951
					h0.353c4.393,0,7.953,3.561,7.953,7.951 M225.35,799.971c0-4.391,3.561-7.951,7.953-7.951h0.354
					c4.393,0,7.953,3.561,7.953,7.951 M209.091,799.971c0-4.391,3.561-7.951,7.952-7.951h0.354c4.392,0,7.952,3.561,7.952,7.951
					 M192.832,799.971c0-4.391,3.561-7.951,7.952-7.951h0.354c4.392,0,7.952,3.561,7.952,7.951 M176.572,799.971
					c0-4.391,3.561-7.951,7.953-7.951h0.354c4.393,0,7.953,3.561,7.953,7.951 M160.314,799.971c0-4.391,3.561-7.951,7.953-7.951
					h0.353c4.392,0,7.952,3.561,7.952,7.951 M144.056,799.971c0-4.391,3.561-7.951,7.953-7.951h0.354
					c4.393,0,7.952,3.561,7.952,7.951 M127.797,799.971c0-4.391,3.561-7.951,7.953-7.951h0.354c4.392,0,7.952,3.561,7.952,7.951
					 M111.537,799.971c0-4.391,3.561-7.951,7.953-7.951h0.354c4.393,0,7.953,3.561,7.953,7.951 M95.278,799.971
					c0-4.391,3.561-7.951,7.952-7.951h0.354c4.392,0,7.952,3.561,7.952,7.951 M79.021,799.971c0-4.391,3.56-7.951,7.952-7.951h0.353
					c4.392,0,7.952,3.561,7.952,7.951 M62.762,799.971c0-4.391,3.561-7.951,7.953-7.951h0.354c4.393,0,7.953,3.561,7.953,7.951
					 M46.503,799.971c0-4.391,3.56-7.951,7.952-7.951h0.354c4.393,0,7.953,3.561,7.953,7.951 M30.243,799.971
					c0-4.391,3.561-7.951,7.953-7.951h0.354c4.393,0,7.953,3.561,7.953,7.951 M13.984,799.971c0-4.391,3.561-7.951,7.953-7.951
					h0.354c4.393,0,7.952,3.561,7.952,7.951 M-2.273,799.971c0-4.391,3.561-7.951,7.953-7.951h0.352
					c4.393,0,7.953,3.561,7.953,7.951"/>
			</g>
			<g>
				<path fill="none" stroke="#FFFFFF" stroke-miterlimit="10" d="M534.268,816.713c0-4.393,3.561-7.953,7.953-7.953h0.354
					c4.392,0,7.952,3.561,7.952,7.953 M518.008,816.713c0-4.393,3.561-7.953,7.953-7.953h0.354c4.393,0,7.953,3.561,7.953,7.953
					 M501.751,816.713c0-4.393,3.561-7.953,7.952-7.953h0.353c4.392,0,7.952,3.561,7.952,7.953 M485.492,816.713
					c0-4.393,3.56-7.953,7.952-7.953h0.354c4.393,0,7.953,3.561,7.953,7.953 M469.232,816.713c0-4.393,3.561-7.953,7.953-7.953
					h0.354c4.393,0,7.953,3.561,7.953,7.953 M452.974,816.713c0-4.393,3.56-7.953,7.952-7.953h0.354
					c4.393,0,7.953,3.561,7.953,7.953 M436.714,816.713c0-4.393,3.561-7.953,7.953-7.953h0.354c4.393,0,7.953,3.561,7.953,7.953
					 M420.457,816.713c0-4.393,3.561-7.953,7.952-7.953h0.353c4.392,0,7.952,3.561,7.952,7.953 M404.197,816.713
					c0-4.393,3.561-7.953,7.953-7.953h0.354c4.393,0,7.953,3.561,7.953,7.953 M387.938,816.713c0-4.393,3.561-7.953,7.952-7.953
					h0.354c4.392,0,7.952,3.561,7.952,7.953 M371.68,816.713c0-4.393,3.56-7.953,7.952-7.953h0.354c4.393,0,7.953,3.561,7.953,7.953
					 M355.42,816.713c0-4.393,3.561-7.953,7.953-7.953h0.354c4.393,0,7.953,3.561,7.953,7.953 M339.162,816.713
					c0-4.393,3.561-7.953,7.953-7.953h0.352c4.393,0,7.953,3.561,7.953,7.953 M322.903,816.713c0-4.393,3.561-7.953,7.952-7.953
					h0.354c4.392,0,7.952,3.561,7.952,7.953 M306.645,816.713c0-4.393,3.561-7.953,7.952-7.953h0.354
					c4.392,0,7.952,3.561,7.952,7.953 M290.385,816.713c0-4.393,3.561-7.953,7.953-7.953h0.354c4.393,0,7.953,3.561,7.953,7.953
					 M274.126,816.713c0-4.393,3.561-7.953,7.952-7.953h0.354c4.392,0,7.952,3.561,7.952,7.953 M257.867,816.713
					c0-4.393,3.56-7.953,7.952-7.953h0.354c4.393,0,7.953,3.561,7.953,7.953 M241.609,816.713c0-4.393,3.561-7.953,7.952-7.953
					h0.353c4.393,0,7.953,3.561,7.953,7.953 M225.35,816.713c0-4.393,3.561-7.953,7.953-7.953h0.354
					c4.393,0,7.953,3.561,7.953,7.953 M209.091,816.713c0-4.393,3.561-7.953,7.952-7.953h0.354c4.392,0,7.952,3.561,7.952,7.953
					 M192.832,816.713c0-4.393,3.561-7.953,7.952-7.953h0.354c4.392,0,7.952,3.561,7.952,7.953 M176.572,816.713
					c0-4.393,3.561-7.953,7.953-7.953h0.354c4.393,0,7.953,3.561,7.953,7.953 M160.314,816.713c0-4.393,3.561-7.953,7.953-7.953
					h0.353c4.392,0,7.952,3.561,7.952,7.953 M144.056,816.713c0-4.393,3.561-7.953,7.953-7.953h0.354
					c4.393,0,7.952,3.561,7.952,7.953 M127.797,816.713c0-4.393,3.561-7.953,7.953-7.953h0.354c4.392,0,7.952,3.561,7.952,7.953
					 M111.537,816.713c0-4.393,3.561-7.953,7.953-7.953h0.354c4.393,0,7.953,3.561,7.953,7.953 M95.278,816.713
					c0-4.393,3.561-7.953,7.952-7.953h0.354c4.392,0,7.952,3.561,7.952,7.953 M79.021,816.713c0-4.393,3.56-7.953,7.952-7.953h0.353
					c4.392,0,7.952,3.561,7.952,7.953 M62.762,816.713c0-4.393,3.561-7.953,7.953-7.953h0.354c4.393,0,7.953,3.561,7.953,7.953
					 M46.503,816.713c0-4.393,3.56-7.953,7.952-7.953h0.354c4.393,0,7.953,3.561,7.953,7.953 M30.243,816.713
					c0-4.393,3.561-7.953,7.953-7.953h0.354c4.393,0,7.953,3.561,7.953,7.953 M13.984,816.713c0-4.393,3.561-7.953,7.953-7.953
					h0.354c4.393,0,7.952,3.561,7.952,7.953 M-2.273,816.713c0-4.393,3.561-7.953,7.953-7.953h0.352
					c4.393,0,7.953,3.561,7.953,7.953"/>
			</g>
			<g>
				<path fill="none" stroke="#FFFFFF" stroke-miterlimit="10" d="M534.268,833.453c0-4.391,3.561-7.951,7.953-7.951h0.354
					c4.392,0,7.952,3.561,7.952,7.951 M518.008,833.453c0-4.391,3.561-7.951,7.953-7.951h0.354c4.393,0,7.953,3.561,7.953,7.951
					 M501.751,833.453c0-4.391,3.561-7.951,7.952-7.951h0.353c4.392,0,7.952,3.561,7.952,7.951 M485.492,833.453
					c0-4.391,3.56-7.951,7.952-7.951h0.354c4.393,0,7.953,3.561,7.953,7.951 M469.232,833.453c0-4.391,3.561-7.951,7.953-7.951
					h0.354c4.393,0,7.953,3.561,7.953,7.951 M452.974,833.453c0-4.391,3.56-7.951,7.952-7.951h0.354
					c4.393,0,7.953,3.561,7.953,7.951 M436.714,833.453c0-4.391,3.561-7.951,7.953-7.951h0.354c4.393,0,7.953,3.561,7.953,7.951
					 M420.457,833.453c0-4.391,3.561-7.951,7.952-7.951h0.353c4.392,0,7.952,3.561,7.952,7.951 M404.197,833.453
					c0-4.391,3.561-7.951,7.953-7.951h0.354c4.393,0,7.953,3.561,7.953,7.951 M387.938,833.453c0-4.391,3.561-7.951,7.952-7.951
					h0.354c4.392,0,7.952,3.561,7.952,7.951 M371.68,833.453c0-4.391,3.56-7.951,7.952-7.951h0.354c4.393,0,7.953,3.561,7.953,7.951
					 M355.42,833.453c0-4.391,3.561-7.951,7.953-7.951h0.354c4.393,0,7.953,3.561,7.953,7.951 M339.162,833.453
					c0-4.391,3.561-7.951,7.953-7.951h0.352c4.393,0,7.953,3.561,7.953,7.951 M322.903,833.453c0-4.391,3.561-7.951,7.952-7.951
					h0.354c4.392,0,7.952,3.561,7.952,7.951 M306.645,833.453c0-4.391,3.561-7.951,7.952-7.951h0.354
					c4.392,0,7.952,3.561,7.952,7.951 M290.385,833.453c0-4.391,3.561-7.951,7.953-7.951h0.354c4.393,0,7.953,3.561,7.953,7.951
					 M274.126,833.453c0-4.391,3.561-7.951,7.952-7.951h0.354c4.392,0,7.952,3.561,7.952,7.951 M257.867,833.453
					c0-4.391,3.56-7.951,7.952-7.951h0.354c4.393,0,7.953,3.561,7.953,7.951 M241.609,833.453c0-4.391,3.561-7.951,7.952-7.951
					h0.353c4.393,0,7.953,3.561,7.953,7.951 M225.35,833.453c0-4.391,3.561-7.951,7.953-7.951h0.354
					c4.393,0,7.953,3.561,7.953,7.951 M209.091,833.453c0-4.391,3.561-7.951,7.952-7.951h0.354c4.392,0,7.952,3.561,7.952,7.951
					 M192.832,833.453c0-4.391,3.561-7.951,7.952-7.951h0.354c4.392,0,7.952,3.561,7.952,7.951 M176.572,833.453
					c0-4.391,3.561-7.951,7.953-7.951h0.354c4.393,0,7.953,3.561,7.953,7.951 M160.314,833.453c0-4.391,3.561-7.951,7.953-7.951
					h0.353c4.392,0,7.952,3.561,7.952,7.951 M144.056,833.453c0-4.391,3.561-7.951,7.953-7.951h0.354
					c4.393,0,7.952,3.561,7.952,7.951 M127.797,833.453c0-4.391,3.561-7.951,7.953-7.951h0.354c4.392,0,7.952,3.561,7.952,7.951
					 M111.537,833.453c0-4.391,3.561-7.951,7.953-7.951h0.354c4.393,0,7.953,3.561,7.953,7.951 M95.278,833.453
					c0-4.391,3.561-7.951,7.952-7.951h0.354c4.392,0,7.952,3.561,7.952,7.951 M79.021,833.453c0-4.391,3.56-7.951,7.952-7.951h0.353
					c4.392,0,7.952,3.561,7.952,7.951 M62.762,833.453c0-4.391,3.561-7.951,7.953-7.951h0.354c4.393,0,7.953,3.561,7.953,7.951
					 M46.503,833.453c0-4.391,3.56-7.951,7.952-7.951h0.354c4.393,0,7.953,3.561,7.953,7.951 M30.243,833.453
					c0-4.391,3.561-7.951,7.953-7.951h0.354c4.393,0,7.953,3.561,7.953,7.951 M13.984,833.453c0-4.391,3.561-7.951,7.953-7.951
					h0.354c4.393,0,7.952,3.561,7.952,7.951 M-2.273,833.453c0-4.391,3.561-7.951,7.953-7.951h0.352
					c4.393,0,7.953,3.561,7.953,7.951"/>
			</g>
			<g>
				<path fill="none" stroke="#FFFFFF" stroke-miterlimit="10" d="M534.268,850.195c0-4.393,3.561-7.953,7.953-7.953h0.354
					c4.392,0,7.952,3.561,7.952,7.953 M518.008,850.195c0-4.393,3.561-7.953,7.953-7.953h0.354c4.393,0,7.953,3.561,7.953,7.953
					 M501.751,850.195c0-4.393,3.561-7.953,7.952-7.953h0.353c4.392,0,7.952,3.561,7.952,7.953 M485.492,850.195
					c0-4.393,3.56-7.953,7.952-7.953h0.354c4.393,0,7.953,3.561,7.953,7.953 M469.232,850.195c0-4.393,3.561-7.953,7.953-7.953
					h0.354c4.393,0,7.953,3.561,7.953,7.953 M452.974,850.195c0-4.393,3.56-7.953,7.952-7.953h0.354
					c4.393,0,7.953,3.561,7.953,7.953 M436.714,850.195c0-4.393,3.561-7.953,7.953-7.953h0.354c4.393,0,7.953,3.561,7.953,7.953
					 M420.457,850.195c0-4.393,3.561-7.953,7.952-7.953h0.353c4.392,0,7.952,3.561,7.952,7.953 M404.197,850.195
					c0-4.393,3.561-7.953,7.953-7.953h0.354c4.393,0,7.953,3.561,7.953,7.953 M387.938,850.195c0-4.393,3.561-7.953,7.952-7.953
					h0.354c4.392,0,7.952,3.561,7.952,7.953 M371.68,850.195c0-4.393,3.56-7.953,7.952-7.953h0.354c4.393,0,7.953,3.561,7.953,7.953
					 M355.42,850.195c0-4.393,3.561-7.953,7.953-7.953h0.354c4.393,0,7.953,3.561,7.953,7.953 M339.162,850.195
					c0-4.393,3.561-7.953,7.953-7.953h0.352c4.393,0,7.953,3.561,7.953,7.953 M322.903,850.195c0-4.393,3.561-7.953,7.952-7.953
					h0.354c4.392,0,7.952,3.561,7.952,7.953 M306.645,850.195c0-4.393,3.561-7.953,7.952-7.953h0.354
					c4.392,0,7.952,3.561,7.952,7.953 M290.385,850.195c0-4.393,3.561-7.953,7.953-7.953h0.354c4.393,0,7.953,3.561,7.953,7.953
					 M274.126,850.195c0-4.393,3.561-7.953,7.952-7.953h0.354c4.392,0,7.952,3.561,7.952,7.953 M257.867,850.195
					c0-4.393,3.56-7.953,7.952-7.953h0.354c4.393,0,7.953,3.561,7.953,7.953 M241.609,850.195c0-4.393,3.561-7.953,7.952-7.953
					h0.353c4.393,0,7.953,3.561,7.953,7.953 M225.35,850.195c0-4.393,3.561-7.953,7.953-7.953h0.354
					c4.393,0,7.953,3.561,7.953,7.953 M209.091,850.195c0-4.393,3.561-7.953,7.952-7.953h0.354c4.392,0,7.952,3.561,7.952,7.953
					 M192.832,850.195c0-4.393,3.561-7.953,7.952-7.953h0.354c4.392,0,7.952,3.561,7.952,7.953 M176.572,850.195
					c0-4.393,3.561-7.953,7.953-7.953h0.354c4.393,0,7.953,3.561,7.953,7.953 M160.314,850.195c0-4.393,3.561-7.953,7.953-7.953
					h0.353c4.392,0,7.952,3.561,7.952,7.953 M144.056,850.195c0-4.393,3.561-7.953,7.953-7.953h0.354
					c4.393,0,7.952,3.561,7.952,7.953 M127.797,850.195c0-4.393,3.561-7.953,7.953-7.953h0.354c4.392,0,7.952,3.561,7.952,7.953
					 M111.537,850.195c0-4.393,3.561-7.953,7.953-7.953h0.354c4.393,0,7.953,3.561,7.953,7.953 M95.278,850.195
					c0-4.393,3.561-7.953,7.952-7.953h0.354c4.392,0,7.952,3.561,7.952,7.953 M79.021,850.195c0-4.393,3.56-7.953,7.952-7.953h0.353
					c4.392,0,7.952,3.561,7.952,7.953 M62.762,850.195c0-4.393,3.561-7.953,7.953-7.953h0.354c4.393,0,7.953,3.561,7.953,7.953
					 M46.503,850.195c0-4.393,3.56-7.953,7.952-7.953h0.354c4.393,0,7.953,3.561,7.953,7.953 M30.243,850.195
					c0-4.393,3.561-7.953,7.953-7.953h0.354c4.393,0,7.953,3.561,7.953,7.953 M13.984,850.195c0-4.393,3.561-7.953,7.953-7.953
					h0.354c4.393,0,7.952,3.561,7.952,7.953 M-2.273,850.195c0-4.393,3.561-7.953,7.953-7.953h0.352
					c4.393,0,7.953,3.561,7.953,7.953"/>
			</g>
			<g>
				<path fill="none" stroke="#FFFFFF" stroke-miterlimit="10" d="M534.268,866.936c0-4.391,3.561-7.951,7.953-7.951h0.354
					c4.392,0,7.952,3.561,7.952,7.951 M518.008,866.936c0-4.391,3.561-7.951,7.953-7.951h0.354c4.393,0,7.953,3.561,7.953,7.951
					 M501.751,866.936c0-4.391,3.561-7.951,7.952-7.951h0.353c4.392,0,7.952,3.561,7.952,7.951 M485.492,866.936
					c0-4.391,3.56-7.951,7.952-7.951h0.354c4.393,0,7.953,3.561,7.953,7.951 M469.232,866.936c0-4.391,3.561-7.951,7.953-7.951
					h0.354c4.393,0,7.953,3.561,7.953,7.951 M452.974,866.936c0-4.391,3.56-7.951,7.952-7.951h0.354
					c4.393,0,7.953,3.561,7.953,7.951 M436.714,866.936c0-4.391,3.561-7.951,7.953-7.951h0.354c4.393,0,7.953,3.561,7.953,7.951
					 M420.457,866.936c0-4.391,3.561-7.951,7.952-7.951h0.353c4.392,0,7.952,3.561,7.952,7.951 M404.197,866.936
					c0-4.391,3.561-7.951,7.953-7.951h0.354c4.393,0,7.953,3.561,7.953,7.951 M387.938,866.936c0-4.391,3.561-7.951,7.952-7.951
					h0.354c4.392,0,7.952,3.561,7.952,7.951 M371.68,866.936c0-4.391,3.56-7.951,7.952-7.951h0.354c4.393,0,7.953,3.561,7.953,7.951
					 M355.42,866.936c0-4.391,3.561-7.951,7.953-7.951h0.354c4.393,0,7.953,3.561,7.953,7.951 M339.162,866.936
					c0-4.391,3.561-7.951,7.953-7.951h0.352c4.393,0,7.953,3.561,7.953,7.951 M322.903,866.936c0-4.391,3.561-7.951,7.952-7.951
					h0.354c4.392,0,7.952,3.561,7.952,7.951 M306.645,866.936c0-4.391,3.561-7.951,7.952-7.951h0.354
					c4.392,0,7.952,3.561,7.952,7.951 M290.385,866.936c0-4.391,3.561-7.951,7.953-7.951h0.354c4.393,0,7.953,3.561,7.953,7.951
					 M274.126,866.936c0-4.391,3.561-7.951,7.952-7.951h0.354c4.392,0,7.952,3.561,7.952,7.951 M257.867,866.936
					c0-4.391,3.56-7.951,7.952-7.951h0.354c4.393,0,7.953,3.561,7.953,7.951 M241.609,866.936c0-4.391,3.561-7.951,7.952-7.951
					h0.353c4.393,0,7.953,3.561,7.953,7.951 M225.35,866.936c0-4.391,3.561-7.951,7.953-7.951h0.354
					c4.393,0,7.953,3.561,7.953,7.951 M209.091,866.936c0-4.391,3.561-7.951,7.952-7.951h0.354c4.392,0,7.952,3.561,7.952,7.951
					 M192.832,866.936c0-4.391,3.561-7.951,7.952-7.951h0.354c4.392,0,7.952,3.561,7.952,7.951 M176.572,866.936
					c0-4.391,3.561-7.951,7.953-7.951h0.354c4.393,0,7.953,3.561,7.953,7.951 M160.314,866.936c0-4.391,3.561-7.951,7.953-7.951
					h0.353c4.392,0,7.952,3.561,7.952,7.951 M144.056,866.936c0-4.391,3.561-7.951,7.953-7.951h0.354
					c4.393,0,7.952,3.561,7.952,7.951 M127.797,866.936c0-4.391,3.561-7.951,7.953-7.951h0.354c4.392,0,7.952,3.561,7.952,7.951
					 M111.537,866.936c0-4.391,3.561-7.951,7.953-7.951h0.354c4.393,0,7.953,3.561,7.953,7.951 M95.278,866.936
					c0-4.391,3.561-7.951,7.952-7.951h0.354c4.392,0,7.952,3.561,7.952,7.951 M79.021,866.936c0-4.391,3.56-7.951,7.952-7.951h0.353
					c4.392,0,7.952,3.561,7.952,7.951 M62.762,866.936c0-4.391,3.561-7.951,7.953-7.951h0.354c4.393,0,7.953,3.561,7.953,7.951
					 M46.503,866.936c0-4.391,3.56-7.951,7.952-7.951h0.354c4.393,0,7.953,3.561,7.953,7.951 M30.243,866.936
					c0-4.391,3.561-7.951,7.953-7.951h0.354c4.393,0,7.953,3.561,7.953,7.951 M13.984,866.936c0-4.391,3.561-7.951,7.953-7.951
					h0.354c4.393,0,7.952,3.561,7.952,7.951 M-2.273,866.936c0-4.391,3.561-7.951,7.953-7.951h0.352
					c4.393,0,7.953,3.561,7.953,7.951"/>
			</g>
			<g>
				<path fill="none" stroke="#FFFFFF" stroke-miterlimit="10" d="M534.268,883.678c0-4.393,3.561-7.953,7.953-7.953h0.354
					c4.392,0,7.952,3.561,7.952,7.953 M518.008,883.678c0-4.393,3.561-7.953,7.953-7.953h0.354c4.393,0,7.953,3.561,7.953,7.953
					 M501.751,883.678c0-4.393,3.561-7.953,7.952-7.953h0.353c4.392,0,7.952,3.561,7.952,7.953 M485.492,883.678
					c0-4.393,3.56-7.953,7.952-7.953h0.354c4.393,0,7.953,3.561,7.953,7.953 M469.232,883.678c0-4.393,3.561-7.953,7.953-7.953
					h0.354c4.393,0,7.953,3.561,7.953,7.953 M452.974,883.678c0-4.393,3.56-7.953,7.952-7.953h0.354
					c4.393,0,7.953,3.561,7.953,7.953 M436.714,883.678c0-4.393,3.561-7.953,7.953-7.953h0.354c4.393,0,7.953,3.561,7.953,7.953
					 M420.457,883.678c0-4.393,3.561-7.953,7.952-7.953h0.353c4.392,0,7.952,3.561,7.952,7.953 M404.197,883.678
					c0-4.393,3.561-7.953,7.953-7.953h0.354c4.393,0,7.953,3.561,7.953,7.953 M387.938,883.678c0-4.393,3.561-7.953,7.952-7.953
					h0.354c4.392,0,7.952,3.561,7.952,7.953 M371.68,883.678c0-4.393,3.56-7.953,7.952-7.953h0.354c4.393,0,7.953,3.561,7.953,7.953
					 M355.42,883.678c0-4.393,3.561-7.953,7.953-7.953h0.354c4.393,0,7.953,3.561,7.953,7.953 M339.162,883.678
					c0-4.393,3.561-7.953,7.953-7.953h0.352c4.393,0,7.953,3.561,7.953,7.953 M322.903,883.678c0-4.393,3.561-7.953,7.952-7.953
					h0.354c4.392,0,7.952,3.561,7.952,7.953 M306.645,883.678c0-4.393,3.561-7.953,7.952-7.953h0.354
					c4.392,0,7.952,3.561,7.952,7.953 M290.385,883.678c0-4.393,3.561-7.953,7.953-7.953h0.354c4.393,0,7.953,3.561,7.953,7.953
					 M274.126,883.678c0-4.393,3.561-7.953,7.952-7.953h0.354c4.392,0,7.952,3.561,7.952,7.953 M257.867,883.678
					c0-4.393,3.56-7.953,7.952-7.953h0.354c4.393,0,7.953,3.561,7.953,7.953 M241.609,883.678c0-4.393,3.561-7.953,7.952-7.953
					h0.353c4.393,0,7.953,3.561,7.953,7.953 M225.35,883.678c0-4.393,3.561-7.953,7.953-7.953h0.354
					c4.393,0,7.953,3.561,7.953,7.953 M209.091,883.678c0-4.393,3.561-7.953,7.952-7.953h0.354c4.392,0,7.952,3.561,7.952,7.953
					 M192.832,883.678c0-4.393,3.561-7.953,7.952-7.953h0.354c4.392,0,7.952,3.561,7.952,7.953 M176.572,883.678
					c0-4.393,3.561-7.953,7.953-7.953h0.354c4.393,0,7.953,3.561,7.953,7.953 M160.314,883.678c0-4.393,3.561-7.953,7.953-7.953
					h0.353c4.392,0,7.952,3.561,7.952,7.953 M144.056,883.678c0-4.393,3.561-7.953,7.953-7.953h0.354
					c4.393,0,7.952,3.561,7.952,7.953 M127.797,883.678c0-4.393,3.561-7.953,7.953-7.953h0.354c4.392,0,7.952,3.561,7.952,7.953
					 M111.537,883.678c0-4.393,3.561-7.953,7.953-7.953h0.354c4.393,0,7.953,3.561,7.953,7.953 M95.278,883.678
					c0-4.393,3.561-7.953,7.952-7.953h0.354c4.392,0,7.952,3.561,7.952,7.953 M79.021,883.678c0-4.393,3.56-7.953,7.952-7.953h0.353
					c4.392,0,7.952,3.561,7.952,7.953 M62.762,883.678c0-4.393,3.561-7.953,7.953-7.953h0.354c4.393,0,7.953,3.561,7.953,7.953
					 M46.503,883.678c0-4.393,3.56-7.953,7.952-7.953h0.354c4.393,0,7.953,3.561,7.953,7.953 M30.243,883.678
					c0-4.393,3.561-7.953,7.953-7.953h0.354c4.393,0,7.953,3.561,7.953,7.953 M13.984,883.678c0-4.393,3.561-7.953,7.953-7.953
					h0.354c4.393,0,7.952,3.561,7.952,7.953 M-2.273,883.678c0-4.393,3.561-7.953,7.953-7.953h0.352
					c4.393,0,7.953,3.561,7.953,7.953"/>
			</g>
			<g>
				<path fill="none" stroke="#FFFFFF" stroke-miterlimit="10" d="M534.268,900.418c0-4.391,3.561-7.951,7.953-7.951h0.354
					c4.392,0,7.952,3.561,7.952,7.951 M518.008,900.418c0-4.391,3.561-7.951,7.953-7.951h0.354c4.393,0,7.953,3.561,7.953,7.951
					 M501.751,900.418c0-4.391,3.561-7.951,7.952-7.951h0.353c4.392,0,7.952,3.561,7.952,7.951 M485.492,900.418
					c0-4.391,3.56-7.951,7.952-7.951h0.354c4.393,0,7.953,3.561,7.953,7.951 M469.232,900.418c0-4.391,3.561-7.951,7.953-7.951
					h0.354c4.393,0,7.953,3.561,7.953,7.951 M452.974,900.418c0-4.391,3.56-7.951,7.952-7.951h0.354
					c4.393,0,7.953,3.561,7.953,7.951 M436.714,900.418c0-4.391,3.561-7.951,7.953-7.951h0.354c4.393,0,7.953,3.561,7.953,7.951
					 M420.457,900.418c0-4.391,3.561-7.951,7.952-7.951h0.353c4.392,0,7.952,3.561,7.952,7.951 M404.197,900.418
					c0-4.391,3.561-7.951,7.953-7.951h0.354c4.393,0,7.953,3.561,7.953,7.951 M387.938,900.418c0-4.391,3.561-7.951,7.952-7.951
					h0.354c4.392,0,7.952,3.561,7.952,7.951 M371.68,900.418c0-4.391,3.56-7.951,7.952-7.951h0.354c4.393,0,7.953,3.561,7.953,7.951
					 M355.42,900.418c0-4.391,3.561-7.951,7.953-7.951h0.354c4.393,0,7.953,3.561,7.953,7.951 M339.162,900.418
					c0-4.391,3.561-7.951,7.953-7.951h0.352c4.393,0,7.953,3.561,7.953,7.951 M322.903,900.418c0-4.391,3.561-7.951,7.952-7.951
					h0.354c4.392,0,7.952,3.561,7.952,7.951 M306.645,900.418c0-4.391,3.561-7.951,7.952-7.951h0.354
					c4.392,0,7.952,3.561,7.952,7.951 M290.385,900.418c0-4.391,3.561-7.951,7.953-7.951h0.354c4.393,0,7.953,3.561,7.953,7.951
					 M274.126,900.418c0-4.391,3.561-7.951,7.952-7.951h0.354c4.392,0,7.952,3.561,7.952,7.951 M257.867,900.418
					c0-4.391,3.56-7.951,7.952-7.951h0.354c4.393,0,7.953,3.561,7.953,7.951 M241.609,900.418c0-4.391,3.561-7.951,7.952-7.951
					h0.353c4.393,0,7.953,3.561,7.953,7.951 M225.35,900.418c0-4.391,3.561-7.951,7.953-7.951h0.354
					c4.393,0,7.953,3.561,7.953,7.951 M209.091,900.418c0-4.391,3.561-7.951,7.952-7.951h0.354c4.392,0,7.952,3.561,7.952,7.951
					 M192.832,900.418c0-4.391,3.561-7.951,7.952-7.951h0.354c4.392,0,7.952,3.561,7.952,7.951 M176.572,900.418
					c0-4.391,3.561-7.951,7.953-7.951h0.354c4.393,0,7.953,3.561,7.953,7.951 M160.314,900.418c0-4.391,3.561-7.951,7.953-7.951
					h0.353c4.392,0,7.952,3.561,7.952,7.951 M144.056,900.418c0-4.391,3.561-7.951,7.953-7.951h0.354
					c4.393,0,7.952,3.561,7.952,7.951 M127.797,900.418c0-4.391,3.561-7.951,7.953-7.951h0.354c4.392,0,7.952,3.561,7.952,7.951
					 M111.537,900.418c0-4.391,3.561-7.951,7.953-7.951h0.354c4.393,0,7.953,3.561,7.953,7.951 M95.278,900.418
					c0-4.391,3.561-7.951,7.952-7.951h0.354c4.392,0,7.952,3.561,7.952,7.951 M79.021,900.418c0-4.391,3.56-7.951,7.952-7.951h0.353
					c4.392,0,7.952,3.561,7.952,7.951 M62.762,900.418c0-4.391,3.561-7.951,7.953-7.951h0.354c4.393,0,7.953,3.561,7.953,7.951
					 M46.503,900.418c0-4.391,3.56-7.951,7.952-7.951h0.354c4.393,0,7.953,3.561,7.953,7.951 M30.243,900.418
					c0-4.391,3.561-7.951,7.953-7.951h0.354c4.393,0,7.953,3.561,7.953,7.951 M13.984,900.418c0-4.391,3.561-7.951,7.953-7.951
					h0.354c4.393,0,7.952,3.561,7.952,7.951 M-2.273,900.418c0-4.391,3.561-7.951,7.953-7.951h0.352
					c4.393,0,7.953,3.561,7.953,7.951"/>
			</g>
			<g>
				<path fill="none" stroke="#FFFFFF" stroke-miterlimit="10" d="M534.268,917.16c0-4.393,3.561-7.953,7.953-7.953h0.354
					c4.392,0,7.952,3.561,7.952,7.953 M518.008,917.16c0-4.393,3.561-7.953,7.953-7.953h0.354c4.393,0,7.953,3.561,7.953,7.953
					 M501.751,917.16c0-4.393,3.561-7.953,7.952-7.953h0.353c4.392,0,7.952,3.561,7.952,7.953 M485.492,917.16
					c0-4.393,3.56-7.953,7.952-7.953h0.354c4.393,0,7.953,3.561,7.953,7.953 M469.232,917.16c0-4.393,3.561-7.953,7.953-7.953h0.354
					c4.393,0,7.953,3.561,7.953,7.953 M452.974,917.16c0-4.393,3.56-7.953,7.952-7.953h0.354c4.393,0,7.953,3.561,7.953,7.953
					 M436.714,917.16c0-4.393,3.561-7.953,7.953-7.953h0.354c4.393,0,7.953,3.561,7.953,7.953 M420.457,917.16
					c0-4.393,3.561-7.953,7.952-7.953h0.353c4.392,0,7.952,3.561,7.952,7.953 M404.197,917.16c0-4.393,3.561-7.953,7.953-7.953
					h0.354c4.393,0,7.953,3.561,7.953,7.953 M387.938,917.16c0-4.393,3.561-7.953,7.952-7.953h0.354
					c4.392,0,7.952,3.561,7.952,7.953 M371.68,917.16c0-4.393,3.56-7.953,7.952-7.953h0.354c4.393,0,7.953,3.561,7.953,7.953
					 M355.42,917.16c0-4.393,3.561-7.953,7.953-7.953h0.354c4.393,0,7.953,3.561,7.953,7.953 M339.162,917.16
					c0-4.393,3.561-7.953,7.953-7.953h0.352c4.393,0,7.953,3.561,7.953,7.953 M322.903,917.16c0-4.393,3.561-7.953,7.952-7.953
					h0.354c4.392,0,7.952,3.561,7.952,7.953 M306.645,917.16c0-4.393,3.561-7.953,7.952-7.953h0.354
					c4.392,0,7.952,3.561,7.952,7.953 M290.385,917.16c0-4.393,3.561-7.953,7.953-7.953h0.354c4.393,0,7.953,3.561,7.953,7.953
					 M274.126,917.16c0-4.393,3.561-7.953,7.952-7.953h0.354c4.392,0,7.952,3.561,7.952,7.953 M257.867,917.16
					c0-4.393,3.56-7.953,7.952-7.953h0.354c4.393,0,7.953,3.561,7.953,7.953 M241.609,917.16c0-4.393,3.561-7.953,7.952-7.953h0.353
					c4.393,0,7.953,3.561,7.953,7.953 M225.35,917.16c0-4.393,3.561-7.953,7.953-7.953h0.354c4.393,0,7.953,3.561,7.953,7.953
					 M209.091,917.16c0-4.393,3.561-7.953,7.952-7.953h0.354c4.392,0,7.952,3.561,7.952,7.953 M192.832,917.16
					c0-4.393,3.561-7.953,7.952-7.953h0.354c4.392,0,7.952,3.561,7.952,7.953 M176.572,917.16c0-4.393,3.561-7.953,7.953-7.953
					h0.354c4.393,0,7.953,3.561,7.953,7.953 M160.314,917.16c0-4.393,3.561-7.953,7.953-7.953h0.353
					c4.392,0,7.952,3.561,7.952,7.953 M144.056,917.16c0-4.393,3.561-7.953,7.953-7.953h0.354c4.393,0,7.952,3.561,7.952,7.953
					 M127.797,917.16c0-4.393,3.561-7.953,7.953-7.953h0.354c4.392,0,7.952,3.561,7.952,7.953 M111.537,917.16
					c0-4.393,3.561-7.953,7.953-7.953h0.354c4.393,0,7.953,3.561,7.953,7.953 M95.278,917.16c0-4.393,3.561-7.953,7.952-7.953h0.354
					c4.392,0,7.952,3.561,7.952,7.953 M79.021,917.16c0-4.393,3.56-7.953,7.952-7.953h0.353c4.392,0,7.952,3.561,7.952,7.953
					 M62.762,917.16c0-4.393,3.561-7.953,7.953-7.953h0.354c4.393,0,7.953,3.561,7.953,7.953 M46.503,917.16
					c0-4.393,3.56-7.953,7.952-7.953h0.354c4.393,0,7.953,3.561,7.953,7.953 M30.243,917.16c0-4.393,3.561-7.953,7.953-7.953h0.354
					c4.393,0,7.953,3.561,7.953,7.953 M13.984,917.16c0-4.393,3.561-7.953,7.953-7.953h0.354c4.393,0,7.952,3.561,7.952,7.953
					 M-2.273,917.16c0-4.393,3.561-7.953,7.953-7.953h0.352c4.393,0,7.953,3.561,7.953,7.953"/>
			</g>
			<g>
				<path fill="none" stroke="#FFFFFF" stroke-miterlimit="10" d="M534.268,933.9c0-4.391,3.561-7.951,7.953-7.951h0.354
					c4.392,0,7.952,3.561,7.952,7.951 M518.008,933.9c0-4.391,3.561-7.951,7.953-7.951h0.354c4.393,0,7.953,3.561,7.953,7.951
					 M501.751,933.9c0-4.391,3.561-7.951,7.952-7.951h0.353c4.392,0,7.952,3.561,7.952,7.951 M485.492,933.9
					c0-4.391,3.56-7.951,7.952-7.951h0.354c4.393,0,7.953,3.561,7.953,7.951 M469.232,933.9c0-4.391,3.561-7.951,7.953-7.951h0.354
					c4.393,0,7.953,3.561,7.953,7.951 M452.974,933.9c0-4.391,3.56-7.951,7.952-7.951h0.354c4.393,0,7.953,3.561,7.953,7.951
					 M436.714,933.9c0-4.391,3.561-7.951,7.953-7.951h0.354c4.393,0,7.953,3.561,7.953,7.951 M420.457,933.9
					c0-4.391,3.561-7.951,7.952-7.951h0.353c4.392,0,7.952,3.561,7.952,7.951 M404.197,933.9c0-4.391,3.561-7.951,7.953-7.951h0.354
					c4.393,0,7.953,3.561,7.953,7.951 M387.938,933.9c0-4.391,3.561-7.951,7.952-7.951h0.354c4.392,0,7.952,3.561,7.952,7.951
					 M371.68,933.9c0-4.391,3.56-7.951,7.952-7.951h0.354c4.393,0,7.953,3.561,7.953,7.951 M355.42,933.9
					c0-4.391,3.561-7.951,7.953-7.951h0.354c4.393,0,7.953,3.561,7.953,7.951 M339.162,933.9c0-4.391,3.561-7.951,7.953-7.951h0.352
					c4.393,0,7.953,3.561,7.953,7.951 M322.903,933.9c0-4.391,3.561-7.951,7.952-7.951h0.354c4.392,0,7.952,3.561,7.952,7.951
					 M306.645,933.9c0-4.391,3.561-7.951,7.952-7.951h0.354c4.392,0,7.952,3.561,7.952,7.951 M290.385,933.9
					c0-4.391,3.561-7.951,7.953-7.951h0.354c4.393,0,7.953,3.561,7.953,7.951 M274.126,933.9c0-4.391,3.561-7.951,7.952-7.951h0.354
					c4.392,0,7.952,3.561,7.952,7.951 M257.867,933.9c0-4.391,3.56-7.951,7.952-7.951h0.354c4.393,0,7.953,3.561,7.953,7.951
					 M241.609,933.9c0-4.391,3.561-7.951,7.952-7.951h0.353c4.393,0,7.953,3.561,7.953,7.951 M225.35,933.9
					c0-4.391,3.561-7.951,7.953-7.951h0.354c4.393,0,7.953,3.561,7.953,7.951 M209.091,933.9c0-4.391,3.561-7.951,7.952-7.951h0.354
					c4.392,0,7.952,3.561,7.952,7.951 M192.832,933.9c0-4.391,3.561-7.951,7.952-7.951h0.354c4.392,0,7.952,3.561,7.952,7.951
					 M176.572,933.9c0-4.391,3.561-7.951,7.953-7.951h0.354c4.393,0,7.953,3.561,7.953,7.951 M160.314,933.9
					c0-4.391,3.561-7.951,7.953-7.951h0.353c4.392,0,7.952,3.561,7.952,7.951 M144.056,933.9c0-4.391,3.561-7.951,7.953-7.951h0.354
					c4.393,0,7.952,3.561,7.952,7.951 M127.797,933.9c0-4.391,3.561-7.951,7.953-7.951h0.354c4.392,0,7.952,3.561,7.952,7.951
					 M111.537,933.9c0-4.391,3.561-7.951,7.953-7.951h0.354c4.393,0,7.953,3.561,7.953,7.951 M95.278,933.9
					c0-4.391,3.561-7.951,7.952-7.951h0.354c4.392,0,7.952,3.561,7.952,7.951 M79.021,933.9c0-4.391,3.56-7.951,7.952-7.951h0.353
					c4.392,0,7.952,3.561,7.952,7.951 M62.762,933.9c0-4.391,3.561-7.951,7.953-7.951h0.354c4.393,0,7.953,3.561,7.953,7.951
					 M46.503,933.9c0-4.391,3.56-7.951,7.952-7.951h0.354c4.393,0,7.953,3.561,7.953,7.951 M30.243,933.9
					c0-4.391,3.561-7.951,7.953-7.951h0.354c4.393,0,7.953,3.561,7.953,7.951 M13.984,933.9c0-4.391,3.561-7.951,7.953-7.951h0.354
					c4.393,0,7.952,3.561,7.952,7.951 M-2.273,933.9c0-4.391,3.561-7.951,7.953-7.951h0.352c4.393,0,7.953,3.561,7.953,7.951"/>
			</g>
			<g>
				<path fill="none" stroke="#FFFFFF" stroke-miterlimit="10" d="M534.268,950.643c0-4.393,3.561-7.953,7.953-7.953h0.354
					c4.392,0,7.952,3.561,7.952,7.953 M518.008,950.643c0-4.393,3.561-7.953,7.953-7.953h0.354c4.393,0,7.953,3.561,7.953,7.953
					 M501.751,950.643c0-4.393,3.561-7.953,7.952-7.953h0.353c4.392,0,7.952,3.561,7.952,7.953 M485.492,950.643
					c0-4.393,3.56-7.953,7.952-7.953h0.354c4.393,0,7.953,3.561,7.953,7.953 M469.232,950.643c0-4.393,3.561-7.953,7.953-7.953
					h0.354c4.393,0,7.953,3.561,7.953,7.953 M452.974,950.643c0-4.393,3.56-7.953,7.952-7.953h0.354
					c4.393,0,7.953,3.561,7.953,7.953 M436.714,950.643c0-4.393,3.561-7.953,7.953-7.953h0.354c4.393,0,7.953,3.561,7.953,7.953
					 M420.457,950.643c0-4.393,3.561-7.953,7.952-7.953h0.353c4.392,0,7.952,3.561,7.952,7.953 M404.197,950.643
					c0-4.393,3.561-7.953,7.953-7.953h0.354c4.393,0,7.953,3.561,7.953,7.953 M387.938,950.643c0-4.393,3.561-7.953,7.952-7.953
					h0.354c4.392,0,7.952,3.561,7.952,7.953 M371.68,950.643c0-4.393,3.56-7.953,7.952-7.953h0.354c4.393,0,7.953,3.561,7.953,7.953
					 M355.42,950.643c0-4.393,3.561-7.953,7.953-7.953h0.354c4.393,0,7.953,3.561,7.953,7.953 M339.162,950.643
					c0-4.393,3.561-7.953,7.953-7.953h0.352c4.393,0,7.953,3.561,7.953,7.953 M322.903,950.643c0-4.393,3.561-7.953,7.952-7.953
					h0.354c4.392,0,7.952,3.561,7.952,7.953 M306.645,950.643c0-4.393,3.561-7.953,7.952-7.953h0.354
					c4.392,0,7.952,3.561,7.952,7.953 M290.385,950.643c0-4.393,3.561-7.953,7.953-7.953h0.354c4.393,0,7.953,3.561,7.953,7.953
					 M274.126,950.643c0-4.393,3.561-7.953,7.952-7.953h0.354c4.392,0,7.952,3.561,7.952,7.953 M257.867,950.643
					c0-4.393,3.56-7.953,7.952-7.953h0.354c4.393,0,7.953,3.561,7.953,7.953 M241.609,950.643c0-4.393,3.561-7.953,7.952-7.953
					h0.353c4.393,0,7.953,3.561,7.953,7.953 M225.35,950.643c0-4.393,3.561-7.953,7.953-7.953h0.354
					c4.393,0,7.953,3.561,7.953,7.953 M209.091,950.643c0-4.393,3.561-7.953,7.952-7.953h0.354c4.392,0,7.952,3.561,7.952,7.953
					 M192.832,950.643c0-4.393,3.561-7.953,7.952-7.953h0.354c4.392,0,7.952,3.561,7.952,7.953 M176.572,950.643
					c0-4.393,3.561-7.953,7.953-7.953h0.354c4.393,0,7.953,3.561,7.953,7.953 M160.314,950.643c0-4.393,3.561-7.953,7.953-7.953
					h0.353c4.392,0,7.952,3.561,7.952,7.953 M144.056,950.643c0-4.393,3.561-7.953,7.953-7.953h0.354
					c4.393,0,7.952,3.561,7.952,7.953 M127.797,950.643c0-4.393,3.561-7.953,7.953-7.953h0.354c4.392,0,7.952,3.561,7.952,7.953
					 M111.537,950.643c0-4.393,3.561-7.953,7.953-7.953h0.354c4.393,0,7.953,3.561,7.953,7.953 M95.278,950.643
					c0-4.393,3.561-7.953,7.952-7.953h0.354c4.392,0,7.952,3.561,7.952,7.953 M79.021,950.643c0-4.393,3.56-7.953,7.952-7.953h0.353
					c4.392,0,7.952,3.561,7.952,7.953 M62.762,950.643c0-4.393,3.561-7.953,7.953-7.953h0.354c4.393,0,7.953,3.561,7.953,7.953
					 M46.503,950.643c0-4.393,3.56-7.953,7.952-7.953h0.354c4.393,0,7.953,3.561,7.953,7.953 M30.243,950.643
					c0-4.393,3.561-7.953,7.953-7.953h0.354c4.393,0,7.953,3.561,7.953,7.953 M13.984,950.643c0-4.393,3.561-7.953,7.953-7.953
					h0.354c4.393,0,7.952,3.561,7.952,7.953 M-2.273,950.643c0-4.393,3.561-7.953,7.953-7.953h0.352
					c4.393,0,7.953,3.561,7.953,7.953"/>
			</g>
		</g>
	</g>
</g>
<rect x="-0.148" y="632.301" fill="none" width="579.08" height="333.318"/>
<rect x="245.609" y="774.834" transform="matrix(0.5964 -0.8027 0.8027 0.5964 -428.1998 700.0663)" opacity="0.7" fill="#FFFFFF" width="472.871" height="2"/>
<rect x="254.933" y="774.834" transform="matrix(0.5964 -0.8027 0.8027 0.5964 -424.4364 707.5508)" opacity="0.7" fill="#FFFFFF" width="472.871" height="2"/>
<polygon opacity="0.7" fill="#FFFFFF" points="640.898,585.452 358.882,965.022 360.487,966.216 641.39,588.146 641.39,585.817 "/>
<polygon opacity="0.7" fill="#FFFFFF" points="368.206,965.022 369.812,966.216 641.39,600.695 641.39,597.341 "/>
<polygon opacity="0.7" fill="#FFFFFF" points="377.53,965.022 379.136,966.216 641.39,613.244 641.39,609.891 "/>
<polygon opacity="0.7" fill="#FFFFFF" points="386.854,965.022 388.46,966.216 641.39,625.794 641.39,622.439 "/>
<polygon opacity="0.7" fill="#FFFFFF" points="396.179,965.022 397.784,966.216 641.39,638.344 641.39,634.989 "/>
<polygon opacity="0.7" fill="#FFFFFF" points="405.503,965.022 407.108,966.216 641.39,650.894 641.39,647.539 "/>
<polygon opacity="0.7" fill="#FFFFFF" points="414.827,965.022 416.433,966.216 641.39,663.442 641.39,660.089 "/>
<polygon opacity="0.7" fill="#FFFFFF" points="424.151,965.022 425.757,966.216 641.39,675.992 641.39,672.639 "/>
<polygon opacity="0.7" fill="#FFFFFF" points="433.476,965.022 435.081,966.216 641.39,688.542 641.39,685.188 "/>
<polygon opacity="0.7" fill="#FFFFFF" points="442.8,965.022 444.405,966.216 641.39,701.092 641.39,697.737 "/>
<polygon opacity="0.7" fill="#FFFFFF" points="452.124,965.022 453.729,966.216 641.39,713.642 641.39,710.287 "/>
<polygon opacity="0.7" fill="#FFFFFF" points="461.448,965.022 463.054,966.216 641.39,726.19 641.39,722.837 "/>
<polygon opacity="0.7" fill="#FFFFFF" points="470.772,965.022 472.378,966.216 641.39,738.74 641.39,735.387 "/>
<polygon opacity="0.7" fill="#FFFFFF" points="480.097,965.022 481.702,966.216 641.39,751.29 641.39,747.936 "/>
<polygon opacity="0.7" fill="#FFFFFF" points="489.421,965.022 491.026,966.216 641.39,763.84 641.39,760.485 "/>
<polygon opacity="0.7" fill="#FFFFFF" points="498.745,965.022 500.351,966.216 641.39,776.39 641.39,773.035 "/>
<polygon opacity="0.7" fill="#FFFFFF" points="508.069,965.022 509.675,966.216 641.39,788.938 641.39,785.585 "/>
<polygon opacity="0.7" fill="#FFFFFF" points="517.394,965.022 518.999,966.216 641.39,801.488 641.39,798.135 "/>
<polygon opacity="0.7" fill="#FFFFFF" points="526.718,965.022 528.323,966.216 641.39,814.038 641.39,810.684 "/>
<polygon opacity="0.7" fill="#FFFFFF" points="536.042,965.022 537.647,966.216 641.39,826.588 641.39,823.233 "/>
<polygon opacity="0.7" fill="#FFFFFF" points="545.366,965.022 546.972,966.216 641.39,839.138 641.39,835.783 "/>
<polygon opacity="0.7" fill="#FFFFFF" points="554.69,965.022 556.296,966.216 641.39,851.687 641.39,848.333 "/>
<polygon opacity="0.7" fill="#FFFFFF" points="564.015,965.022 565.62,966.216 641.39,864.236 641.39,860.883 "/>
<polygon opacity="0.7" fill="#FFFFFF" points="573.339,965.022 574.944,966.216 641.39,876.786 641.39,873.432 "/>
<polygon opacity="0.7" fill="#FFFFFF" points="582.663,965.022 584.269,966.216 641.39,889.336 641.39,885.981 "/>
<polygon opacity="0.7" fill="#FFFFFF" points="591.987,965.022 593.593,966.216 641.39,901.886 641.39,898.531 "/>
<polygon opacity="0.7" fill="#FFFFFF" points="601.312,965.022 602.917,966.216 641.39,914.435 641.39,911.081 "/>
<polygon opacity="0.7" fill="#FFFFFF" points="610.636,965.022 612.241,966.216 641.39,926.984 641.39,923.63 "/>
<polygon opacity="0.7" fill="#FFFFFF" points="619.96,965.022 621.565,966.216 641.39,939.534 641.39,936.18 "/>
<polygon opacity="0.7" fill="#FFFFFF" points="629.284,965.022 630.89,966.216 641.39,952.084 641.39,948.729 "/>
</svg>
