<?xml version="1.0" encoding="utf-8"?>
<!-- Generator: Adobe Illustrator 16.0.0, SVG Export Plug-In . SVG Version: 6.00 Build 0)  -->
<!DOCTYPE svg PUBLIC "-//W3C//DTD SVG 1.1//EN" "http://www.w3.org/Graphics/SVG/1.1/DTD/svg11.dtd">
<svg version="1.1" id="图层_1" xmlns="http://www.w3.org/2000/svg" xmlns:xlink="http://www.w3.org/1999/xlink" x="0px" y="0px"
	 width="640px" height="960px" viewBox="0 0 640 960" enable-background="new 0 0 640 960" xml:space="preserve">
<g>
	<g>
		<path fill="#FFFFFF" d="M347.549,574.337h9.023v-5.109h2.016v5.109h9.117v10.688h-1.922v-1.266h-7.195v8.719h-2.016v-8.719h-7.102
			v1.266h-1.922V574.337z M349.471,582.024h7.102v-5.953h-7.102V582.024z M365.783,576.071h-7.195v5.953h7.195V576.071z"/>
		<path fill="#FFFFFF" d="M371.338,570.493h20.508v21.867h-1.805v-1.172h-16.898v1.195h-1.805V570.493z M390.041,572.157h-16.898
			v17.367h16.898V572.157z M374.221,585.446h6.469v-4.641h-5.648v-1.594h5.648v-3.141h-6.094v-1.594h13.969v1.594h-6.141v3.141
			h5.672v1.594h-5.672v4.641h6.516v1.594h-14.719V585.446z M383.643,582.306l1.313-0.984c0.859,0.891,1.594,1.727,2.203,2.508
			l-1.383,1.055C385.025,583.868,384.314,583.009,383.643,582.306z"/>
		<path fill="#FFFFFF" d="M393.955,590.368c6.813-3.938,10.414-10.844,10.805-20.719h2.063c-0.086,1.672-0.25,3.266-0.492,4.781
			c1.938,7.813,5.578,12.953,10.922,15.422c-0.656,0.719-1.234,1.398-1.734,2.039c-4.641-2.625-7.949-7.27-9.926-13.934
			c-1.711,6.438-5.098,11.168-10.16,14.191C395.01,591.571,394.518,590.978,393.955,590.368z"/>
		<path fill="#FFFFFF" d="M417.955,576.024c2.313-1.969,4.125-4.266,5.438-6.891h2.109c-0.367,0.727-0.754,1.422-1.16,2.086h16.324
			v1.688H423.24c-1.219,1.734-2.59,3.258-4.113,4.57C418.799,577.024,418.408,576.54,417.955,576.024z M418.049,580.97h3.445
			l1.055-5.859h15.492c-0.086,2.094-0.168,4.047-0.246,5.859h3.41v1.688h-3.48c-0.07,1.531-0.137,2.953-0.199,4.266h2.836v1.641
			h-2.965c-0.156,1.141-0.473,1.969-0.949,2.484c-0.609,0.672-1.672,1.008-3.188,1.008c-0.875,0-1.992-0.031-3.352-0.094
			c-0.078-0.531-0.195-1.164-0.352-1.898c1.609,0.141,2.766,0.211,3.469,0.211c0.984,0,1.633-0.188,1.945-0.563
			c0.211-0.219,0.371-0.602,0.48-1.148h-15.012v-1.758l0.75-4.148h-3.141V580.97z M435.826,582.657H423.1l-0.738,4.266h13.266
			C435.705,585.532,435.771,584.11,435.826,582.657z M436.049,576.751h-11.906l-0.738,4.219h12.504
			C435.955,579.595,436.002,578.188,436.049,576.751z M427.213,584.017l1.102-1.219c1.188,0.922,2.234,1.773,3.141,2.555
			l-1.242,1.383C429.01,585.61,428.01,584.704,427.213,584.017z M427.4,578.063l1.102-1.219c1.188,0.922,2.234,1.773,3.141,2.555
			l-1.266,1.406C429.408,579.853,428.416,578.938,427.4,578.063z"/>
		<path fill="#FFFFFF" d="M441.955,590.368c6.813-3.938,10.414-10.844,10.805-20.719h2.063c-0.086,1.672-0.25,3.266-0.492,4.781
			c1.938,7.813,5.578,12.953,10.922,15.422c-0.656,0.719-1.234,1.398-1.734,2.039c-4.641-2.625-7.949-7.27-9.926-13.934
			c-1.711,6.438-5.098,11.168-10.16,14.191C443.01,591.571,442.518,590.978,441.955,590.368z"/>
		<path fill="#FFFFFF" d="M353.807,615.595l1.805,1.195c-2.609,3.031-5.266,5.563-7.969,7.594c-0.5-0.438-1.086-0.93-1.758-1.477
			C348.9,620.845,351.541,618.407,353.807,615.595z M349.049,602.821h17.25v12.727h-1.922v-1.102h-13.406v1.102h-1.922V602.821z
			 M364.377,612.712v-8.156h-13.406v8.156H364.377z M360.885,615.524c2.938,2.438,5.695,4.828,8.273,7.172
			c-0.125,0.109-0.727,0.656-1.805,1.641c-2.328-2.484-4.961-4.953-7.898-7.406L360.885,615.524z"/>
		<path fill="#FFFFFF" d="M378.814,603.337c1.422,1.844,2.656,3.617,3.703,5.32c-0.594,0.406-1.133,0.766-1.617,1.078
			c-0.305-0.539-0.629-1.09-0.973-1.652c-3.82,0.281-6.879,0.535-9.176,0.762l-0.75-1.969c0.688-0.375,1.445-1.078,2.273-2.109
			c0.859-1.125,1.703-2.383,2.531-3.773l1.852,0.68c-1.297,1.875-2.664,3.648-4.102,5.32c2.344-0.148,4.473-0.301,6.387-0.457
			c-0.492-0.742-1.02-1.504-1.582-2.285L378.814,603.337z M373.143,624.079h-1.828v-13.828h9.516v11.086
			c0,1.688-0.781,2.531-2.344,2.531c-0.688,0.016-1.57,0.023-2.648,0.023c-0.078-0.484-0.195-1.078-0.352-1.781
			c0.984,0.078,1.773,0.117,2.367,0.117c0.766,0,1.148-0.398,1.148-1.195v-1.945h-5.859V624.079z M379.002,611.751h-5.859v2.25
			h5.859V611.751z M373.143,617.681h5.859v-2.273h-5.859V617.681z M383.104,612.782h1.828v3.867
			c2.219-0.828,4.539-1.914,6.961-3.258l1.055,1.617c-2.555,1.344-5.227,2.535-8.016,3.574v2.027c0,0.984,0.383,1.477,1.148,1.477
			h3.445c0.797,0,1.258-0.383,1.383-1.148c0.109-0.688,0.203-1.711,0.281-3.07c0.594,0.234,1.203,0.453,1.828,0.656
			c-0.125,1.375-0.258,2.414-0.398,3.117c-0.203,1.375-1.18,2.063-2.93,2.063h-3.914c-1.781,0-2.672-0.914-2.672-2.742V612.782z
			 M383.15,601.345h1.828v4.02c2.148-0.852,4.281-1.879,6.398-3.082l1.055,1.617c-2.438,1.234-4.922,2.363-7.453,3.387v1.348
			c0,1.047,0.414,1.57,1.242,1.57h2.977c0.984,0,1.539-0.406,1.664-1.219c0.109-0.672,0.203-1.648,0.281-2.93
			c0.594,0.234,1.203,0.461,1.828,0.68c-0.125,1.25-0.258,2.266-0.398,3.047c-0.234,1.359-1.289,2.039-3.164,2.039h-3.422
			c-1.891,0-2.836-0.938-2.836-2.813V601.345z"/>
		<path fill="#FFFFFF" d="M393.885,613.696c1-0.273,2.023-0.566,3.07-0.879v-5.051h-2.813v-1.617h2.813v-4.641h1.734v4.641h2.625
			v1.617h-2.625v4.535c0.797-0.242,1.609-0.496,2.438-0.762c0.016,0.719,0.031,1.336,0.047,1.852
			c-0.828,0.242-1.656,0.496-2.484,0.762v7.348c0,1.641-0.719,2.477-2.156,2.508c-0.578,0.031-1.328,0.031-2.25,0
			c-0.094-0.656-0.195-1.297-0.305-1.922c0.891,0.094,1.57,0.141,2.039,0.141c0.625,0,0.938-0.367,0.938-1.102v-6.422
			c-0.938,0.305-1.875,0.617-2.813,0.938L393.885,613.696z M403.518,616.649c-0.188,3.047-0.984,5.578-2.391,7.594
			c-0.453-0.5-0.914-0.961-1.383-1.383c0.938-1.5,1.547-3.039,1.828-4.617c0.234-1.391,0.352-3.703,0.352-6.938v-8.766h13.922
			v18.891c0,1.719-0.773,2.586-2.32,2.602c-0.672,0.016-1.594,0.008-2.766-0.023c-0.125-0.672-0.25-1.289-0.375-1.852
			c1.125,0.094,1.984,0.141,2.578,0.141c0.766,0,1.148-0.43,1.148-1.289v-4.359h-4.383v6.563h-1.734v-6.563H403.518z
			 M403.682,610.438c0.016,1.625-0.008,3.117-0.07,4.477h4.383v-4.477H403.682z M403.682,608.704h4.313v-4.43h-4.313V608.704z
			 M414.111,604.274h-4.383v4.43h4.383V604.274z M409.729,614.915h4.383v-4.477h-4.383V614.915z"/>
		<path fill="#FFFFFF" d="M424.541,624.29h-1.852v-12.129c-1.133,1.32-2.383,2.59-3.75,3.809c-0.328-0.547-0.703-1.117-1.125-1.711
			c3.016-2.523,5.371-5.32,7.066-8.391h-6.41v-1.734h7.289c0.445-0.977,0.828-1.977,1.148-3l1.945,0.445
			c-0.313,0.867-0.656,1.719-1.031,2.555h13.242v1.734h-14.086c-0.484,0.922-1.016,1.82-1.594,2.695h12.844v12.516
			c0,1.938-0.945,2.906-2.836,2.906c-0.828,0.016-2.086,0.023-3.773,0.023c-0.078-0.531-0.195-1.172-0.352-1.922
			c1.438,0.109,2.594,0.164,3.469,0.164c1.078,0,1.617-0.531,1.617-1.594v-1.664h-11.813V624.29z M436.354,610.204h-11.813v2.789
			h11.813V610.204z M424.541,617.399h11.813v-2.813h-11.813V617.399z"/>
		<path fill="#FFFFFF" d="M451.447,621.946l6.117,0.141l7.641-0.234c-0.172,0.516-0.391,1.133-0.656,1.852h-7.57l-5.742-0.094
			c-2.625-0.047-4.492-0.953-5.602-2.719c-0.641,0.594-1.578,1.641-2.813,3.141l-0.961-1.945c1.383-1.336,2.383-2.293,3-2.871
			v-7.887h-2.789v-1.734h4.594v9.996C447.627,621.122,449.221,621.907,451.447,621.946z M444.791,601.72
			c0.797,0.969,1.891,2.445,3.281,4.43l-1.664,1.172c-1.266-1.984-2.305-3.516-3.117-4.594L444.791,601.72z M450.111,609.571
			l1.125-1.219c1.555,1.242,3.441,2.793,5.66,4.652c1.5-1.766,2.699-3.793,3.598-6.082l1.781,0.844
			c-1.07,2.43-2.391,4.57-3.961,6.422c1.688,1.422,3.547,3,5.578,4.734l-1.453,1.57c-2.008-1.828-3.813-3.457-5.414-4.887
			c-2.125,2.117-4.641,3.793-7.547,5.027c-0.297-0.453-0.68-0.977-1.148-1.57c2.875-1.195,5.309-2.766,7.301-4.711
			C453.334,612.313,451.494,610.72,450.111,609.571z M448.799,604.954h15.844v1.641h-15.844V604.954z M454.471,601.931l1.617-0.797
			c0.484,0.734,1.055,1.695,1.711,2.883l-1.688,0.867C455.518,603.728,454.971,602.743,454.471,601.931z"/>
		<path fill="#FFFFFF" d="M465.908,616.063c1.656-2.609,2.828-5.438,3.516-8.484h-3.352v-1.641h3.68v-4.57h1.805v4.57h3.633v1.641
			h-3.633v2.906l0.938-0.891c0.625,0.578,1.5,1.438,2.625,2.578l-1.359,1.266c-0.984-1.172-1.719-2.008-2.203-2.508v13.547h-1.805
			V610.86c-0.875,3.141-1.906,5.563-3.094,7.266C466.455,617.454,466.205,616.767,465.908,616.063z M472.822,617.493
			c3.5-3.875,6.109-8.164,7.828-12.867h-6.164v-1.688h14.578v1.688h-6.469c-0.531,1.563-1.156,3.078-1.875,4.547h1.359v15.305
			h-1.828V610.11c-1.578,3.063-3.539,5.969-5.883,8.719C473.947,618.407,473.432,617.962,472.822,617.493z M482.455,611.235
			l1.43-1.055c2.188,2.672,3.961,4.992,5.32,6.961l-1.57,1.242C485.807,615.618,484.08,613.235,482.455,611.235z"/>
		<path fill="#FFFFFF" d="M490.541,608.868v-1.781h8.086v1.711c-1.328,5.125-3.75,9.516-7.266,13.172
			c-0.531-0.609-1.008-1.086-1.43-1.43c3.531-3.719,5.805-7.609,6.82-11.672H490.541z M500.549,601.368h1.898v3.762
			c0.672,1.828,1.441,3.527,2.309,5.098c1.727-1.438,3.449-3.156,5.168-5.156l1.57,1.406c-1.828,1.914-3.758,3.699-5.789,5.355
			c2.063,3.266,4.586,5.918,7.57,7.957c-0.656,0.656-1.188,1.242-1.594,1.758c-4.109-3.234-7.188-7.238-9.234-12.012v10.957
			c0,2.328-1.117,3.492-3.352,3.492c-0.688,0-1.703-0.008-3.047-0.023c-0.078-0.578-0.203-1.281-0.375-2.109
			c1.25,0.125,2.266,0.188,3.047,0.188c1.219,0,1.828-0.586,1.828-1.758V601.368z"/>
		<path fill="#FFFFFF" d="M514.916,605.165h2.367c0.578-1.422,1.055-2.719,1.43-3.891l1.969,0.563
			c-0.492,1.195-0.969,2.305-1.43,3.328h4.688v18.656h-1.875v-1.828h-5.273v1.992h-1.875V605.165z M522.064,606.923h-5.273v5.695
			h5.273V606.923z M516.791,620.235h5.273v-5.93h-5.273V620.235z M524.291,609.97c1.469-2.328,2.711-5.227,3.727-8.695l1.969,0.492
			c-0.398,1.18-0.805,2.289-1.219,3.328h7.547c-0.188,8.031-0.344,13.086-0.469,15.164c-0.109,2.453-1.398,3.68-3.867,3.68
			c-1.422,0-2.867-0.047-4.336-0.141c-0.094-0.781-0.219-1.477-0.375-2.086h0.07c1.563,0.219,2.992,0.328,4.289,0.328
			c1.422,0,2.188-0.75,2.297-2.25c0.172-2.328,0.297-6.641,0.375-12.938h-6.281c-0.68,1.508-1.383,2.836-2.109,3.984
			C525.486,610.54,524.947,610.251,524.291,609.97z M526.354,611.563l1.43-1.055c1.734,2.047,3.117,3.82,4.148,5.32l-1.734,1.219
			C529.088,615.235,527.807,613.407,526.354,611.563z"/>
	</g>
</g>
<g>
	<g>
		<path fill="#F7CC48" d="M362.377,696.702v-39.182h-9.407l2.856-5.837h13.288v45.019H362.377z"/>
		<path fill="#F7CC48" d="M406.247,650.224h5.278l-22.261,52.378h-5.278L406.247,650.224z"/>
		<path fill="#F7CC48" d="M434.159,696.702v-9.221h-21.796l26.453-36.698h2.08v31.544h5.526v5.154h-5.526v9.221H434.159z
			 M434.346,665.996l-11.581,16.331h11.395v-11.829c0-0.621,0.016-1.314,0.047-2.08
			C434.236,667.652,434.283,666.845,434.346,665.996z"/>
	</g>
</g>
<g>
	<g>
		<path fill="#FFFFFF" d="M353.042,806.753c2.039-0.703,4.453-1.625,7.242-2.766v-7.383h-6.75v-1.734h6.75v-6.586h1.898v22.523
			h-1.898v-4.863c-1.5,0.609-3.664,1.496-6.492,2.66L353.042,806.753z M366.847,788.237h1.898v7.934
			c2.133-1.094,4.125-2.293,5.977-3.598l1.172,1.688c-1.688,1.063-4.07,2.363-7.148,3.902v8.613c0,1.063,0.586,1.594,1.758,1.594
			h1.641c1.125,0,1.758-0.531,1.898-1.594c0.141-0.984,0.266-2.266,0.375-3.844c0.688,0.281,1.352,0.531,1.992,0.75
			c-0.156,1.484-0.328,2.75-0.516,3.797c-0.297,1.781-1.398,2.672-3.305,2.672h-2.531c-2.141,0-3.211-1.055-3.211-3.164V788.237z"/>
		<path fill="#FFFFFF" d="M383.323,803.894l1.289,1.406c-2.094,1.578-4.195,3.023-6.305,4.336c-0.297-0.531-0.656-1.055-1.078-1.57
			C379.37,806.831,381.401,805.44,383.323,803.894z M377.3,791.214h10.828c-0.445-0.828-0.953-1.68-1.523-2.555l1.711-0.844
			c0.625,0.938,1.234,1.906,1.828,2.906l-0.938,0.492h11.016v1.641H377.3V791.214z M380.347,794.94h16.758v7.922h-1.828v-0.938
			h-5.391v5.953c0,1.852-0.883,2.789-2.648,2.813c-1.125,0-2.148,0-3.07,0c-0.109-0.672-0.227-1.305-0.352-1.898
			c1.047,0.094,1.953,0.141,2.719,0.141c0.984,0.031,1.477-0.477,1.477-1.523v-5.484h-5.836v1.055h-1.828V794.94z M395.276,796.558
			h-13.102v3.75h13.102V796.558z M392.417,805.464l1.102-1.406c2.141,1.266,4.195,2.547,6.164,3.844l-1.242,1.617
			C396.784,808.284,394.776,806.933,392.417,805.464z"/>
		<path fill="#FFFFFF" d="M401.112,809.05c6.813-3.938,10.414-10.844,10.805-20.719h2.063c-0.086,1.672-0.25,3.266-0.492,4.781
			c1.938,7.813,5.578,12.953,10.922,15.422c-0.656,0.719-1.234,1.398-1.734,2.039c-4.641-2.625-7.949-7.27-9.926-13.934
			c-1.711,6.438-5.098,11.168-10.16,14.191C402.167,810.253,401.675,809.659,401.112,809.05z"/>
		<path fill="#FFFFFF" d="M432.964,802.276l1.805,1.195c-2.609,3.031-5.266,5.563-7.969,7.594c-0.5-0.438-1.086-0.93-1.758-1.477
			C428.058,807.526,430.698,805.089,432.964,802.276z M428.206,789.503h17.25v12.727h-1.922v-1.102h-13.406v1.102h-1.922V789.503z
			 M443.534,799.394v-8.156h-13.406v8.156H443.534z M440.042,802.206c2.938,2.438,5.695,4.828,8.273,7.172
			c-0.125,0.109-0.727,0.656-1.805,1.641c-2.328-2.484-4.961-4.953-7.898-7.406L440.042,802.206z"/>
		<path fill="#FFFFFF" d="M455.698,810.972h-1.852v-12.129c-1.133,1.32-2.383,2.59-3.75,3.809c-0.328-0.547-0.703-1.117-1.125-1.711
			c3.016-2.523,5.371-5.32,7.066-8.391h-6.41v-1.734h7.289c0.445-0.977,0.828-1.977,1.148-3l1.945,0.445
			c-0.313,0.867-0.656,1.719-1.031,2.555h13.242v1.734h-14.086c-0.484,0.922-1.016,1.82-1.594,2.695h12.844v12.516
			c0,1.938-0.945,2.906-2.836,2.906c-0.828,0.016-2.086,0.023-3.773,0.023c-0.078-0.531-0.195-1.172-0.352-1.922
			c1.438,0.109,2.594,0.164,3.469,0.164c1.078,0,1.617-0.531,1.617-1.594v-1.664h-11.813V810.972z M467.511,796.886h-11.813v2.789
			h11.813V796.886z M455.698,804.081h11.813v-2.813h-11.813V804.081z"/>
		<path fill="#FFFFFF" d="M482.604,808.628l6.117,0.141l7.641-0.234c-0.172,0.516-0.391,1.133-0.656,1.852h-7.57l-5.742-0.094
			c-2.625-0.047-4.492-0.953-5.602-2.719c-0.641,0.594-1.578,1.641-2.813,3.141l-0.961-1.945c1.383-1.336,2.383-2.293,3-2.871
			v-7.887h-2.789v-1.734h4.594v9.996C478.784,807.804,480.378,808.589,482.604,808.628z M475.948,788.401
			c0.797,0.969,1.891,2.445,3.281,4.43l-1.664,1.172c-1.266-1.984-2.305-3.516-3.117-4.594L475.948,788.401z M481.269,796.253
			l1.125-1.219c1.555,1.242,3.441,2.793,5.66,4.652c1.5-1.766,2.699-3.793,3.598-6.082l1.781,0.844
			c-1.07,2.43-2.391,4.57-3.961,6.422c1.688,1.422,3.547,3,5.578,4.734l-1.453,1.57c-2.008-1.828-3.813-3.457-5.414-4.887
			c-2.125,2.117-4.641,3.793-7.547,5.027c-0.297-0.453-0.68-0.977-1.148-1.57c2.875-1.195,5.309-2.766,7.301-4.711
			C484.491,798.995,482.651,797.401,481.269,796.253z M479.956,791.636H495.8v1.641h-15.844V791.636z M485.628,788.612l1.617-0.797
			c0.484,0.734,1.055,1.695,1.711,2.883l-1.688,0.867C486.675,790.409,486.128,789.425,485.628,788.612z"/>
		<path fill="#FFFFFF" d="M497.065,802.745c1.656-2.609,2.828-5.438,3.516-8.484h-3.352v-1.641h3.68v-4.57h1.805v4.57h3.633v1.641
			h-3.633v2.906l0.938-0.891c0.625,0.578,1.5,1.438,2.625,2.578l-1.359,1.266c-0.984-1.172-1.719-2.008-2.203-2.508v13.547h-1.805
			v-13.617c-0.875,3.141-1.906,5.563-3.094,7.266C497.612,804.136,497.362,803.448,497.065,802.745z M503.979,804.175
			c3.5-3.875,6.109-8.164,7.828-12.867h-6.164v-1.688h14.578v1.688h-6.469c-0.531,1.563-1.156,3.078-1.875,4.547h1.359v15.305
			h-1.828v-14.367c-1.578,3.063-3.539,5.969-5.883,8.719C505.104,805.089,504.589,804.644,503.979,804.175z M513.612,797.917
			l1.43-1.055c2.188,2.672,3.961,4.992,5.32,6.961l-1.57,1.242C516.964,802.3,515.237,799.917,513.612,797.917z"/>
		<path fill="#FFFFFF" d="M521.698,795.55v-1.781h8.086v1.711c-1.328,5.125-3.75,9.516-7.266,13.172
			c-0.531-0.609-1.008-1.086-1.43-1.43c3.531-3.719,5.805-7.609,6.82-11.672H521.698z M531.706,788.05h1.898v3.762
			c0.672,1.828,1.441,3.527,2.309,5.098c1.727-1.438,3.449-3.156,5.168-5.156l1.57,1.406c-1.828,1.914-3.758,3.699-5.789,5.355
			c2.063,3.266,4.586,5.918,7.57,7.957c-0.656,0.656-1.188,1.242-1.594,1.758c-4.109-3.234-7.188-7.238-9.234-12.012v10.957
			c0,2.328-1.117,3.492-3.352,3.492c-0.688,0-1.703-0.008-3.047-0.023c-0.078-0.578-0.203-1.281-0.375-2.109
			c1.25,0.125,2.266,0.188,3.047,0.188c1.219,0,1.828-0.586,1.828-1.758V788.05z"/>
		<path fill="#FFFFFF" d="M546.073,791.847h2.367c0.578-1.422,1.055-2.719,1.43-3.891l1.969,0.563
			c-0.492,1.195-0.969,2.305-1.43,3.328h4.688v18.656h-1.875v-1.828h-5.273v1.992h-1.875V791.847z M553.222,793.604h-5.273v5.695
			h5.273V793.604z M547.948,806.917h5.273v-5.93h-5.273V806.917z M555.448,796.651c1.469-2.328,2.711-5.227,3.727-8.695l1.969,0.492
			c-0.398,1.18-0.805,2.289-1.219,3.328h7.547c-0.188,8.031-0.344,13.086-0.469,15.164c-0.109,2.453-1.398,3.68-3.867,3.68
			c-1.422,0-2.867-0.047-4.336-0.141c-0.094-0.781-0.219-1.477-0.375-2.086h0.07c1.563,0.219,2.992,0.328,4.289,0.328
			c1.422,0,2.188-0.75,2.297-2.25c0.172-2.328,0.297-6.641,0.375-12.938h-6.281c-0.68,1.508-1.383,2.836-2.109,3.984
			C556.644,797.222,556.104,796.933,555.448,796.651z M557.511,798.245l1.43-1.055c1.734,2.047,3.117,3.82,4.148,5.32l-1.734,1.219
			C560.245,801.917,558.964,800.089,557.511,798.245z"/>
	</g>
</g>
<g>
	<g>
		<path fill="#F7CC48" d="M362.377,883.363v-39.182h-9.407l2.856-5.837h13.288v45.019H362.377z"/>
		<path fill="#F7CC48" d="M406.247,836.885h5.278l-22.261,52.378h-5.278L406.247,836.885z"/>
		<path fill="#F7CC48" d="M414.444,871.224h7.078v0.373c0,2.091,0.714,3.756,2.143,4.998c1.428,1.242,3.363,1.863,5.806,1.863
			c2.753,0,4.88-0.688,6.381-2.064c1.5-1.377,2.251-3.358,2.251-5.946c0-2.711-0.771-4.755-2.313-6.132
			c-1.542-1.376-3.845-2.064-6.908-2.064c-0.145,0-0.372,0.011-0.683,0.031s-0.549,0.031-0.715,0.031v-5.962
			c0.145,0,0.367,0.011,0.668,0.031c0.3,0.021,0.522,0.031,0.668,0.031c2.69,0,4.719-0.563,6.085-1.692
			c1.366-1.128,2.049-2.789,2.049-4.982c0-1.945-0.616-3.493-1.847-4.642c-1.232-1.149-2.883-1.724-4.952-1.724
			c-2.216,0-3.949,0.533-5.201,1.599c-1.252,1.066-1.909,2.562-1.972,4.486h-6.675c0.207-3.87,1.521-6.84,3.943-8.91
			c2.422-2.069,5.785-3.104,10.09-3.104c4.161,0,7.457,1.086,9.889,3.26c2.433,2.173,3.648,5.112,3.648,8.817
			c0,2.794-0.688,5.087-2.064,6.877c-1.377,1.791-3.286,2.872-5.729,3.244c2.877,0.518,5.065,1.781,6.566,3.788
			c1.501,2.008,2.251,4.668,2.251,7.979c0,4.036-1.412,7.239-4.238,9.609c-2.825,2.369-6.649,3.555-11.472,3.555
			c-4.367,0-7.886-1.206-10.556-3.617C415.965,878.546,414.568,875.302,414.444,871.224z"/>
		<path fill="#F7CC48" d="M481.725,877.464v5.899h-30.458l16.983-20.336c2.111-2.546,3.652-4.781,4.626-6.706
			c0.973-1.926,1.459-3.674,1.459-5.247c0-2.256-0.668-4.031-2.003-5.325c-1.335-1.293-3.161-1.94-5.479-1.94
			c-2.07,0-3.777,0.647-5.123,1.94c-1.346,1.294-2.101,2.996-2.267,5.107h-7.109c0-4.077,1.366-7.332,4.098-9.765
			c2.732-2.432,6.406-3.647,11.022-3.647c4.388,0,7.85,1.128,10.386,3.384c2.535,2.256,3.803,5.33,3.803,9.221
			c0,2.774-0.729,5.573-2.188,8.398c-1.46,2.826-4.549,6.93-9.268,12.311l-5.775,6.706H481.725z"/>
	</g>
</g>
<g>
	<g>
		<line fill="none" stroke="#FFFFFF" stroke-width="2" stroke-miterlimit="10" x1="265.042" y1="823.15" x2="265.542" y2="823.15"/>
		
			<line fill="none" stroke="#FFFFFF" stroke-width="2" stroke-miterlimit="10" stroke-dasharray="0.9999,3.9995" x1="269.541" y1="823.15" x2="597.5" y2="823.15"/>
		<line fill="none" stroke="#FFFFFF" stroke-width="2" stroke-miterlimit="10" x1="599.5" y1="823.15" x2="600" y2="823.15"/>
	</g>
</g>
<g>
	<g>
		
			<line fill="none" stroke="#FFFFFF" stroke-width="2" stroke-miterlimit="10" x1="288.802" y1="636.876" x2="289.302" y2="636.876"/>
		
			<line fill="none" stroke="#FFFFFF" stroke-width="2" stroke-miterlimit="10" stroke-dasharray="1.0039,4.0155" x1="293.317" y1="636.876" x2="597.492" y2="636.876"/>
		<line fill="none" stroke="#FFFFFF" stroke-width="2" stroke-miterlimit="10" x1="599.5" y1="636.876" x2="600" y2="636.876"/>
	</g>
</g>
</svg>
