<?xml version="1.0" encoding="utf-8"?>
<!-- Generator: Adobe Illustrator 16.0.0, SVG Export Plug-In . SVG Version: 6.00 Build 0)  -->
<!DOCTYPE svg PUBLIC "-//W3C//DTD SVG 1.1//EN" "http://www.w3.org/Graphics/SVG/1.1/DTD/svg11.dtd">
<svg version="1.1" id="图层_1" xmlns="http://www.w3.org/2000/svg" xmlns:xlink="http://www.w3.org/1999/xlink" x="0px" y="0px"
	 width="640px" height="960px" viewBox="0 0 640 960" enable-background="new 0 0 640 960" xml:space="preserve">
<g>
	<g>
		<g>
			<rect x="448.882" y="-1.071" fill="#F7CC48" width="132.887" height="132.888"/>
		</g>
		<g>
			<polygon fill="#F7CC48" points="473.299,138.929 467.781,133.13 478.816,133.13 			"/>
		</g>
	</g>
</g>
<g>
	<g>
		<path fill="#1B3467" d="M471.78,85.684V63.026h-5.439l1.651-3.375h7.685v26.033H471.78z"/>
		<path fill="#1B3467" d="M488.388,85.127l10.736-22.101H486.97V59.65h18.115l-13.232,27.021L488.388,85.127z"/>
		<path fill="#1B3467" d="M527.043,73.026c0,4.178-0.842,7.448-2.522,9.812c-1.683,2.364-3.995,3.546-6.939,3.546
			c-2.98,0-5.3-1.194-6.957-3.582c-1.658-2.388-2.487-5.742-2.487-10.063c0-4.285,0.838-7.624,2.514-10.018s4.004-3.591,6.984-3.591
			c3.017,0,5.338,1.2,6.966,3.6C526.229,65.129,527.043,68.562,527.043,73.026z M517.509,82.703c1.748,0,3.062-0.835,3.941-2.504
			c0.88-1.67,1.319-4.168,1.319-7.496c0-3.232-0.434-5.694-1.302-7.388c-0.868-1.693-2.134-2.541-3.797-2.541
			c-1.736,0-3.047,0.844-3.933,2.532c-0.886,1.688-1.328,4.177-1.328,7.469c0,3.196,0.439,5.649,1.319,7.361
			C514.609,81.848,515.869,82.703,517.509,82.703z"/>
		<path fill="#1B3467" d="M485.786,115.039c-0.531,0.625-0.953,1.188-1.266,1.688c-4.094-2.203-7.234-5.355-9.422-9.457v11.496
			h-1.875V107.27c-1.906,4.055-5.109,7.387-9.609,9.996c-0.313-0.453-0.727-0.984-1.242-1.594c4.375-2.492,7.465-5.414,9.27-8.766
			H462.7v-1.781h10.523v-9.094h1.875v9.094h10.359v1.781h-8.754C478.813,110.438,481.841,113.148,485.786,115.039z M464.669,98.445
			l1.336-1.102c1.688,1.906,3.25,3.695,4.688,5.367l-1.57,1.313C467.716,102.133,466.231,100.273,464.669,98.445z M477.606,102.805
			c1.641-1.766,3.086-3.57,4.336-5.414l1.688,1.219c-1.969,2.453-3.508,4.266-4.617,5.438L477.606,102.805z"/>
	</g>
</g>
</svg>
