<?xml version="1.0" encoding="utf-8"?>
<!-- Generator: Adobe Illustrator 16.0.0, SVG Export Plug-In . SVG Version: 6.00 Build 0)  -->
<!DOCTYPE svg PUBLIC "-//W3C//DTD SVG 1.1//EN" "http://www.w3.org/Graphics/SVG/1.1/DTD/svg11.dtd">
<svg version="1.1" id="图层_1" xmlns="http://www.w3.org/2000/svg" xmlns:xlink="http://www.w3.org/1999/xlink" x="0px" y="0px"
	 width="640px" height="1625.534px" viewBox="0 0 640 1625.534" enable-background="new 0 0 640 1625.534" xml:space="preserve">
<path fill="#6DA5D8" stroke="#6DA5D8" stroke-miterlimit="10" d="M641,1625.534V538.717c-1.462,6.204,0.303,6.389-1,6.545
	c-13.028,1.58-18.841,0.896-28.925-1.552l-0.316-0.076c-8.518-2.069-31.143-7.569-65.66-0.116
	c-28.188,6.085-53.721,1.487-54.919,1.27c-18.962-5.114-35.873-5.746-46.722-5.373c-11.782,0.4-18.969,1.999-19.271,2.063
	c-42.304,10.828-66.803,1.787-67.038,1.694c-18.85-6.288-40.438-7.623-66.063-4.102c-28.204,3.882-49.424,6.272-65.666,1.698
	c-14.242-4.012-34.593-7.729-65.828-0.865c-24.38,5.354-32.66,4.069-47.692,1.741c-3.009-0.467-6.42-0.99-10.229-1.506
	c-37.19-4.964-84.534,3.773-85.009,3.863c-0.219,0.043-5.275,1.565-16.667-2.837v1084.369H641z"/>
</svg>
