<?xml version="1.0" encoding="utf-8"?>
<!-- Generator: Adobe Illustrator 16.0.0, SVG Export Plug-In . SVG Version: 6.00 Build 0)  -->
<!DOCTYPE svg PUBLIC "-//W3C//DTD SVG 1.1//EN" "http://www.w3.org/Graphics/SVG/1.1/DTD/svg11.dtd">
<svg version="1.1" id="图层_1" xmlns="http://www.w3.org/2000/svg" xmlns:xlink="http://www.w3.org/1999/xlink" x="0px" y="0px"
	 width="640px" height="960px" viewBox="0 0 640 960" enable-background="new 0 0 640 960" xml:space="preserve">
<g>
	<g>
		<g>
			<rect x="448.883" y="-1.136" fill="#F7CC48" width="132.887" height="132.888"/>
		</g>
		<g>
			<polygon fill="#F7CC48" points="473.299,138.864 467.781,133.065 478.816,133.065 			"/>
		</g>
	</g>
</g>
<g>
	<g>
		<path fill="#1B3467" d="M480.453,82.208v3.41H462.84l9.82-11.76c1.221-1.472,2.113-2.765,2.676-3.877
			c0.563-1.113,0.844-2.125,0.844-3.035c0-1.305-0.387-2.33-1.158-3.078s-1.828-1.123-3.168-1.123c-1.197,0-2.186,0.375-2.963,1.123
			c-0.779,0.748-1.215,1.732-1.311,2.953h-4.111c0-2.358,0.789-4.24,2.369-5.646s3.705-2.109,6.373-2.109
			c2.539,0,4.541,0.652,6.006,1.957c1.467,1.305,2.199,3.082,2.199,5.332c0,1.604-0.422,3.223-1.266,4.855
			c-0.844,1.635-2.629,4.008-5.359,7.119l-3.338,3.879H480.453z"/>
		<path fill="#1B3467" d="M491.01,71.721c-1.305-0.563-2.262-1.298-2.873-2.207c-0.609-0.91-0.916-2.047-0.916-3.412
			c0-2.106,0.742-3.807,2.227-5.099s3.447-1.938,5.889-1.938c2.502,0,4.488,0.654,5.961,1.965s2.209,3.062,2.209,5.252
			c0,1.293-0.32,2.403-0.961,3.33c-0.641,0.928-1.584,1.631-2.828,2.109c1.461,0.479,2.604,1.326,3.43,2.541
			s1.238,2.648,1.238,4.301c0,2.417-0.799,4.314-2.396,5.691c-1.598,1.375-3.814,2.064-6.652,2.064
			c-2.789,0-4.984-0.689-6.588-2.064c-1.605-1.377-2.406-3.25-2.406-5.62c0-1.724,0.406-3.187,1.221-4.39
			S489.525,72.201,491.01,71.721z M495.336,82.817c1.545,0,2.754-0.403,3.627-1.211c0.873-0.809,1.311-1.924,1.311-3.35
			c0-1.436-0.438-2.561-1.311-3.375c-0.873-0.813-2.082-1.221-3.627-1.221c-1.508,0-2.699,0.413-3.572,1.239
			c-0.873,0.825-1.311,1.944-1.311,3.356c0,1.426,0.432,2.541,1.293,3.35C492.607,82.414,493.805,82.817,495.336,82.817z
			 M495.426,62.53c-1.244,0-2.227,0.326-2.943,0.979c-0.719,0.652-1.078,1.541-1.078,2.666c0,1.102,0.35,1.963,1.051,2.585
			c0.699,0.622,1.66,0.934,2.881,0.934c1.258,0,2.236-0.308,2.936-0.925c0.701-0.615,1.051-1.48,1.051-2.594
			c0-1.137-0.348-2.029-1.041-2.676C497.586,62.852,496.635,62.53,495.426,62.53z"/>
		<path fill="#1B3467" d="M510.723,79.334c0.611,1.125,1.395,1.986,2.352,2.585c0.959,0.599,2.023,0.897,3.197,0.897
			c1.734,0,3.141-0.553,4.219-1.66c1.076-1.107,1.615-2.564,1.615-4.372c0-1.735-0.564-3.147-1.697-4.237
			c-1.131-1.089-2.611-1.633-4.443-1.633c-1.102,0-2.121,0.188-3.061,0.564s-1.768,0.938-2.486,1.68l-1.059-0.234l3.268-13.34
			h12.424v3.466h-9.857l-1.543,5.799c0.717-0.299,1.412-0.521,2.082-0.664s1.34-0.216,2.01-0.216c2.502,0,4.537,0.803,6.105,2.406
			s2.352,3.692,2.352,6.266c0,2.944-0.916,5.293-2.746,7.047c-1.832,1.754-4.285,2.631-7.361,2.631c-1.82,0-3.4-0.314-4.74-0.943
			c-1.342-0.628-2.496-1.601-3.465-2.917L510.723,79.334z"/>
		<path fill="#1B3467" d="M462.771,97.606h22.594v1.805h-13.418c-0.063,1.742-0.145,3.375-0.246,4.898h10.875
			c-0.156,3.188-0.336,6.211-0.539,9.07c-0.141,1.734-0.539,2.984-1.195,3.75c-0.625,0.703-1.758,1.063-3.398,1.078
			c-0.859,0.031-2.313-0.031-4.359-0.188c-0.078-0.594-0.195-1.313-0.352-2.156c1.984,0.266,3.5,0.398,4.547,0.398
			c1.672,0.125,2.594-0.93,2.766-3.164c0.188-2.188,0.328-4.523,0.422-7.008h-8.906c-0.586,5.719-3.148,9.969-7.688,12.75
			c-0.359-0.484-0.82-1.039-1.383-1.664c4.391-2.672,6.742-6.656,7.055-11.953c0.148-1.711,0.246-3.648,0.293-5.813h-7.066V97.606z"
			/>
		<path fill="#1B3467" d="M486.936,99.012h11.273c-0.484-0.828-1.031-1.672-1.641-2.531l1.641-0.891
			c0.656,0.891,1.227,1.734,1.711,2.531l-1.5,0.891h10.898v1.641h-22.383V99.012z M488.764,103.254h18.586v15.211h-1.781v-1.617
			h-15.023v1.617h-1.781V103.254z M490.545,109.254h6.633v-4.359h-6.633V109.254z M490.545,115.208h6.633v-4.359h-6.633V115.208z
			 M505.568,104.895h-6.609v4.359h6.609V104.895z M498.959,115.208h6.609v-4.359h-6.609V115.208z"/>
	</g>
</g>
</svg>
